G04 #@! TF.GenerationSoftware,KiCad,Pcbnew,(5.1.4-0-10_14)*
G04 #@! TF.CreationDate,2021-03-24T21:25:25+09:00*
G04 #@! TF.ProjectId,Z80-1MSRAM,5a38302d-314d-4535-9241-4d2e6b696361,rev?*
G04 #@! TF.SameCoordinates,Original*
G04 #@! TF.FileFunction,Legend,Top*
G04 #@! TF.FilePolarity,Positive*
%FSLAX46Y46*%
G04 Gerber Fmt 4.6, Leading zero omitted, Abs format (unit mm)*
G04 Created by KiCad (PCBNEW (5.1.4-0-10_14)) date 2021-03-24 21:25:25*
%MOMM*%
%LPD*%
G04 APERTURE LIST*
%ADD10C,0.200000*%
%ADD11C,0.150000*%
%ADD12C,0.300000*%
%ADD13C,0.120000*%
%ADD14O,2.100000X2.100000*%
%ADD15R,2.100000X2.100000*%
%ADD16C,2.000000*%
%ADD17C,1.900000*%
%ADD18R,1.900000X1.900000*%
%ADD19O,2.000000X2.000000*%
%ADD20R,2.200000X2.200000*%
%ADD21C,2.200000*%
%ADD22R,2.000000X2.000000*%
%ADD23R,2.127200X2.127200*%
%ADD24O,2.127200X2.127200*%
%ADD25R,2.400000X2.400000*%
%ADD26C,2.400000*%
%ADD27C,3.600000*%
G04 APERTURE END LIST*
D10*
X157571428Y-65952380D02*
X157571428Y-64952380D01*
X157904761Y-65666666D01*
X158238095Y-64952380D01*
X158238095Y-65952380D01*
X158666666Y-65904761D02*
X158809523Y-65952380D01*
X159047619Y-65952380D01*
X159142857Y-65904761D01*
X159190476Y-65857142D01*
X159238095Y-65761904D01*
X159238095Y-65666666D01*
X159190476Y-65571428D01*
X159142857Y-65523809D01*
X159047619Y-65476190D01*
X158857142Y-65428571D01*
X158761904Y-65380952D01*
X158714285Y-65333333D01*
X158666666Y-65238095D01*
X158666666Y-65142857D01*
X158714285Y-65047619D01*
X158761904Y-65000000D01*
X158857142Y-64952380D01*
X159095238Y-64952380D01*
X159238095Y-65000000D01*
X159571428Y-64952380D02*
X160238095Y-65952380D01*
X160238095Y-64952380D02*
X159571428Y-65952380D01*
X161380952Y-65952380D02*
X161380952Y-64952380D01*
X161714285Y-65666666D01*
X162047619Y-64952380D01*
X162047619Y-65952380D01*
X162523809Y-65428571D02*
X162857142Y-65428571D01*
X163000000Y-65952380D02*
X162523809Y-65952380D01*
X162523809Y-64952380D01*
X163000000Y-64952380D01*
X163428571Y-65952380D02*
X163428571Y-64952380D01*
X163761904Y-65666666D01*
X164095238Y-64952380D01*
X164095238Y-65952380D01*
X165285714Y-65904761D02*
X165428571Y-65952380D01*
X165666666Y-65952380D01*
X165761904Y-65904761D01*
X165809523Y-65857142D01*
X165857142Y-65761904D01*
X165857142Y-65666666D01*
X165809523Y-65571428D01*
X165761904Y-65523809D01*
X165666666Y-65476190D01*
X165476190Y-65428571D01*
X165380952Y-65380952D01*
X165333333Y-65333333D01*
X165285714Y-65238095D01*
X165285714Y-65142857D01*
X165333333Y-65047619D01*
X165380952Y-65000000D01*
X165476190Y-64952380D01*
X165714285Y-64952380D01*
X165857142Y-65000000D01*
X166761904Y-65952380D02*
X166285714Y-65952380D01*
X166285714Y-64952380D01*
X167285714Y-64952380D02*
X167476190Y-64952380D01*
X167571428Y-65000000D01*
X167666666Y-65095238D01*
X167714285Y-65285714D01*
X167714285Y-65619047D01*
X167666666Y-65809523D01*
X167571428Y-65904761D01*
X167476190Y-65952380D01*
X167285714Y-65952380D01*
X167190476Y-65904761D01*
X167095238Y-65809523D01*
X167047619Y-65619047D01*
X167047619Y-65285714D01*
X167095238Y-65095238D01*
X167190476Y-65000000D01*
X167285714Y-64952380D01*
X168000000Y-64952380D02*
X168571428Y-64952380D01*
X168285714Y-65952380D02*
X168285714Y-64952380D01*
X184309523Y-69452380D02*
X184309523Y-68452380D01*
X184880952Y-69452380D02*
X184452380Y-68880952D01*
X184880952Y-68452380D02*
X184309523Y-69023809D01*
X185214285Y-68452380D02*
X185880952Y-68452380D01*
X185214285Y-69452380D01*
X185880952Y-69452380D01*
X186404761Y-68880952D02*
X186309523Y-68833333D01*
X186261904Y-68785714D01*
X186214285Y-68690476D01*
X186214285Y-68642857D01*
X186261904Y-68547619D01*
X186309523Y-68500000D01*
X186404761Y-68452380D01*
X186595238Y-68452380D01*
X186690476Y-68500000D01*
X186738095Y-68547619D01*
X186785714Y-68642857D01*
X186785714Y-68690476D01*
X186738095Y-68785714D01*
X186690476Y-68833333D01*
X186595238Y-68880952D01*
X186404761Y-68880952D01*
X186309523Y-68928571D01*
X186261904Y-68976190D01*
X186214285Y-69071428D01*
X186214285Y-69261904D01*
X186261904Y-69357142D01*
X186309523Y-69404761D01*
X186404761Y-69452380D01*
X186595238Y-69452380D01*
X186690476Y-69404761D01*
X186738095Y-69357142D01*
X186785714Y-69261904D01*
X186785714Y-69071428D01*
X186738095Y-68976190D01*
X186690476Y-68928571D01*
X186595238Y-68880952D01*
X187404761Y-68452380D02*
X187500000Y-68452380D01*
X187595238Y-68500000D01*
X187642857Y-68547619D01*
X187690476Y-68642857D01*
X187738095Y-68833333D01*
X187738095Y-69071428D01*
X187690476Y-69261904D01*
X187642857Y-69357142D01*
X187595238Y-69404761D01*
X187500000Y-69452380D01*
X187404761Y-69452380D01*
X187309523Y-69404761D01*
X187261904Y-69357142D01*
X187214285Y-69261904D01*
X187166666Y-69071428D01*
X187166666Y-68833333D01*
X187214285Y-68642857D01*
X187261904Y-68547619D01*
X187309523Y-68500000D01*
X187404761Y-68452380D01*
X178714285Y-69452380D02*
X178714285Y-68452380D01*
X179047619Y-69166666D01*
X179380952Y-68452380D01*
X179380952Y-69452380D01*
X179809523Y-69404761D02*
X179952380Y-69452380D01*
X180190476Y-69452380D01*
X180285714Y-69404761D01*
X180333333Y-69357142D01*
X180380952Y-69261904D01*
X180380952Y-69166666D01*
X180333333Y-69071428D01*
X180285714Y-69023809D01*
X180190476Y-68976190D01*
X180000000Y-68928571D01*
X179904761Y-68880952D01*
X179857142Y-68833333D01*
X179809523Y-68738095D01*
X179809523Y-68642857D01*
X179857142Y-68547619D01*
X179904761Y-68500000D01*
X180000000Y-68452380D01*
X180238095Y-68452380D01*
X180380952Y-68500000D01*
X180714285Y-68452380D02*
X181380952Y-69452380D01*
X181380952Y-68452380D02*
X180714285Y-69452380D01*
D11*
X102652380Y-82814285D02*
X102652380Y-82195238D01*
X103033333Y-82528571D01*
X103033333Y-82385714D01*
X103080952Y-82290476D01*
X103128571Y-82242857D01*
X103223809Y-82195238D01*
X103461904Y-82195238D01*
X103557142Y-82242857D01*
X103604761Y-82290476D01*
X103652380Y-82385714D01*
X103652380Y-82671428D01*
X103604761Y-82766666D01*
X103557142Y-82814285D01*
X102747619Y-81814285D02*
X102700000Y-81766666D01*
X102652380Y-81671428D01*
X102652380Y-81433333D01*
X102700000Y-81338095D01*
X102747619Y-81290476D01*
X102842857Y-81242857D01*
X102938095Y-81242857D01*
X103080952Y-81290476D01*
X103652380Y-81861904D01*
X103652380Y-81242857D01*
X103652380Y-80814285D02*
X102652380Y-80814285D01*
X103271428Y-80719047D02*
X103652380Y-80433333D01*
X102985714Y-80433333D02*
X103366666Y-80814285D01*
X103652380Y-87195238D02*
X103652380Y-87766666D01*
X103652380Y-87480952D02*
X102652380Y-87480952D01*
X102795238Y-87576190D01*
X102890476Y-87671428D01*
X102938095Y-87766666D01*
X102652380Y-86338095D02*
X102652380Y-86528571D01*
X102700000Y-86623809D01*
X102747619Y-86671428D01*
X102890476Y-86766666D01*
X103080952Y-86814285D01*
X103461904Y-86814285D01*
X103557142Y-86766666D01*
X103604761Y-86719047D01*
X103652380Y-86623809D01*
X103652380Y-86433333D01*
X103604761Y-86338095D01*
X103557142Y-86290476D01*
X103461904Y-86242857D01*
X103223809Y-86242857D01*
X103128571Y-86290476D01*
X103080952Y-86338095D01*
X103033333Y-86433333D01*
X103033333Y-86623809D01*
X103080952Y-86719047D01*
X103128571Y-86766666D01*
X103223809Y-86814285D01*
X103652380Y-85814285D02*
X102652380Y-85814285D01*
X103271428Y-85719047D02*
X103652380Y-85433333D01*
X102985714Y-85433333D02*
X103366666Y-85814285D01*
X110299571Y-101790952D02*
X110204333Y-101743333D01*
X110156714Y-101695714D01*
X110109095Y-101600476D01*
X110109095Y-101552857D01*
X110156714Y-101457619D01*
X110204333Y-101410000D01*
X110299571Y-101362380D01*
X110490047Y-101362380D01*
X110585285Y-101410000D01*
X110632904Y-101457619D01*
X110680523Y-101552857D01*
X110680523Y-101600476D01*
X110632904Y-101695714D01*
X110585285Y-101743333D01*
X110490047Y-101790952D01*
X110299571Y-101790952D01*
X110204333Y-101838571D01*
X110156714Y-101886190D01*
X110109095Y-101981428D01*
X110109095Y-102171904D01*
X110156714Y-102267142D01*
X110204333Y-102314761D01*
X110299571Y-102362380D01*
X110490047Y-102362380D01*
X110585285Y-102314761D01*
X110632904Y-102267142D01*
X110680523Y-102171904D01*
X110680523Y-101981428D01*
X110632904Y-101886190D01*
X110585285Y-101838571D01*
X110490047Y-101790952D01*
X111299571Y-101362380D02*
X111394809Y-101362380D01*
X111490047Y-101410000D01*
X111537666Y-101457619D01*
X111585285Y-101552857D01*
X111632904Y-101743333D01*
X111632904Y-101981428D01*
X111585285Y-102171904D01*
X111537666Y-102267142D01*
X111490047Y-102314761D01*
X111394809Y-102362380D01*
X111299571Y-102362380D01*
X111204333Y-102314761D01*
X111156714Y-102267142D01*
X111109095Y-102171904D01*
X111061476Y-101981428D01*
X111061476Y-101743333D01*
X111109095Y-101552857D01*
X111156714Y-101457619D01*
X111204333Y-101410000D01*
X111299571Y-101362380D01*
X116422870Y-92949900D02*
X116518108Y-92949900D01*
X116613346Y-92997520D01*
X116660965Y-93045139D01*
X116708584Y-93140377D01*
X116756203Y-93330853D01*
X116756203Y-93568948D01*
X116708584Y-93759424D01*
X116660965Y-93854662D01*
X116613346Y-93902281D01*
X116518108Y-93949900D01*
X116422870Y-93949900D01*
X116327632Y-93902281D01*
X116280013Y-93854662D01*
X116232394Y-93759424D01*
X116184775Y-93568948D01*
X116184775Y-93330853D01*
X116232394Y-93140377D01*
X116280013Y-93045139D01*
X116327632Y-92997520D01*
X116422870Y-92949900D01*
X117375251Y-92949900D02*
X117470489Y-92949900D01*
X117565727Y-92997520D01*
X117613346Y-93045139D01*
X117660965Y-93140377D01*
X117708584Y-93330853D01*
X117708584Y-93568948D01*
X117660965Y-93759424D01*
X117613346Y-93854662D01*
X117565727Y-93902281D01*
X117470489Y-93949900D01*
X117375251Y-93949900D01*
X117280013Y-93902281D01*
X117232394Y-93854662D01*
X117184775Y-93759424D01*
X117137156Y-93568948D01*
X117137156Y-93330853D01*
X117184775Y-93140377D01*
X117232394Y-93045139D01*
X117280013Y-92997520D01*
X117375251Y-92949900D01*
X115046190Y-101235380D02*
X115141428Y-101235380D01*
X115236666Y-101283000D01*
X115284285Y-101330619D01*
X115331904Y-101425857D01*
X115379523Y-101616333D01*
X115379523Y-101854428D01*
X115331904Y-102044904D01*
X115284285Y-102140142D01*
X115236666Y-102187761D01*
X115141428Y-102235380D01*
X115046190Y-102235380D01*
X114950952Y-102187761D01*
X114903333Y-102140142D01*
X114855714Y-102044904D01*
X114808095Y-101854428D01*
X114808095Y-101616333D01*
X114855714Y-101425857D01*
X114903333Y-101330619D01*
X114950952Y-101283000D01*
X115046190Y-101235380D01*
X115998571Y-101235380D02*
X116093809Y-101235380D01*
X116189047Y-101283000D01*
X116236666Y-101330619D01*
X116284285Y-101425857D01*
X116331904Y-101616333D01*
X116331904Y-101854428D01*
X116284285Y-102044904D01*
X116236666Y-102140142D01*
X116189047Y-102187761D01*
X116093809Y-102235380D01*
X115998571Y-102235380D01*
X115903333Y-102187761D01*
X115855714Y-102140142D01*
X115808095Y-102044904D01*
X115760476Y-101854428D01*
X115760476Y-101616333D01*
X115808095Y-101425857D01*
X115855714Y-101330619D01*
X115903333Y-101283000D01*
X115998571Y-101235380D01*
X105973571Y-105362142D02*
X106021190Y-105219285D01*
X106068809Y-105171666D01*
X106164047Y-105124047D01*
X106306904Y-105124047D01*
X106402142Y-105171666D01*
X106449761Y-105219285D01*
X106497380Y-105314523D01*
X106497380Y-105695476D01*
X105497380Y-105695476D01*
X105497380Y-105362142D01*
X105545000Y-105266904D01*
X105592619Y-105219285D01*
X105687857Y-105171666D01*
X105783095Y-105171666D01*
X105878333Y-105219285D01*
X105925952Y-105266904D01*
X105973571Y-105362142D01*
X105973571Y-105695476D01*
X106211666Y-104743095D02*
X106211666Y-104266904D01*
X106497380Y-104838333D02*
X105497380Y-104505000D01*
X106497380Y-104171666D01*
X106497380Y-103838333D02*
X105497380Y-103838333D01*
X106497380Y-103266904D01*
X105497380Y-103266904D01*
X106497380Y-102790714D02*
X105497380Y-102790714D01*
X106497380Y-102219285D02*
X105925952Y-102647857D01*
X105497380Y-102219285D02*
X106068809Y-102790714D01*
X106497380Y-101028809D02*
X105497380Y-101028809D01*
X105449761Y-99838333D02*
X106735476Y-100695476D01*
X105497380Y-99314523D02*
X105497380Y-99124047D01*
X105545000Y-99028809D01*
X105640238Y-98933571D01*
X105830714Y-98885952D01*
X106164047Y-98885952D01*
X106354523Y-98933571D01*
X106449761Y-99028809D01*
X106497380Y-99124047D01*
X106497380Y-99314523D01*
X106449761Y-99409761D01*
X106354523Y-99505000D01*
X106164047Y-99552619D01*
X105830714Y-99552619D01*
X105640238Y-99505000D01*
X105545000Y-99409761D01*
X105497380Y-99314523D01*
X106211666Y-97743095D02*
X106211666Y-97266904D01*
X106497380Y-97838333D02*
X105497380Y-97505000D01*
X106497380Y-97171666D01*
X106497380Y-96838333D02*
X105497380Y-96838333D01*
X105497380Y-96600238D01*
X105545000Y-96457380D01*
X105640238Y-96362142D01*
X105735476Y-96314523D01*
X105925952Y-96266904D01*
X106068809Y-96266904D01*
X106259285Y-96314523D01*
X106354523Y-96362142D01*
X106449761Y-96457380D01*
X106497380Y-96600238D01*
X106497380Y-96838333D01*
X106497380Y-95838333D02*
X105497380Y-95838333D01*
X105497380Y-95600238D01*
X105545000Y-95457380D01*
X105640238Y-95362142D01*
X105735476Y-95314523D01*
X105925952Y-95266904D01*
X106068809Y-95266904D01*
X106259285Y-95314523D01*
X106354523Y-95362142D01*
X106449761Y-95457380D01*
X106497380Y-95600238D01*
X106497380Y-95838333D01*
X106497380Y-94266904D02*
X106021190Y-94600238D01*
X106497380Y-94838333D02*
X105497380Y-94838333D01*
X105497380Y-94457380D01*
X105545000Y-94362142D01*
X105592619Y-94314523D01*
X105687857Y-94266904D01*
X105830714Y-94266904D01*
X105925952Y-94314523D01*
X105973571Y-94362142D01*
X106021190Y-94457380D01*
X106021190Y-94838333D01*
X112720809Y-119110571D02*
X112863666Y-119158190D01*
X112911285Y-119205809D01*
X112958904Y-119301047D01*
X112958904Y-119443904D01*
X112911285Y-119539142D01*
X112863666Y-119586761D01*
X112768428Y-119634380D01*
X112387476Y-119634380D01*
X112387476Y-118634380D01*
X112720809Y-118634380D01*
X112816047Y-118682000D01*
X112863666Y-118729619D01*
X112911285Y-118824857D01*
X112911285Y-118920095D01*
X112863666Y-119015333D01*
X112816047Y-119062952D01*
X112720809Y-119110571D01*
X112387476Y-119110571D01*
X113339857Y-119348666D02*
X113816047Y-119348666D01*
X113244619Y-119634380D02*
X113577952Y-118634380D01*
X113911285Y-119634380D01*
X114244619Y-119634380D02*
X114244619Y-118634380D01*
X114816047Y-119634380D01*
X114816047Y-118634380D01*
X115292238Y-119634380D02*
X115292238Y-118634380D01*
X115863666Y-119634380D02*
X115435095Y-119062952D01*
X115863666Y-118634380D02*
X115292238Y-119205809D01*
X117054142Y-119634380D02*
X117054142Y-118634380D01*
X117625571Y-119634380D01*
X117625571Y-118634380D01*
X118244619Y-119634380D02*
X118149380Y-119586761D01*
X118101761Y-119539142D01*
X118054142Y-119443904D01*
X118054142Y-119158190D01*
X118101761Y-119062952D01*
X118149380Y-119015333D01*
X118244619Y-118967714D01*
X118387476Y-118967714D01*
X118482714Y-119015333D01*
X118530333Y-119062952D01*
X118577952Y-119158190D01*
X118577952Y-119443904D01*
X118530333Y-119539142D01*
X118482714Y-119586761D01*
X118387476Y-119634380D01*
X118244619Y-119634380D01*
X119006523Y-119539142D02*
X119054142Y-119586761D01*
X119006523Y-119634380D01*
X118958904Y-119586761D01*
X119006523Y-119539142D01*
X119006523Y-119634380D01*
X108726005Y-92995620D02*
X108535529Y-92995620D01*
X108440291Y-93043240D01*
X108392672Y-93090859D01*
X108297434Y-93233716D01*
X108249815Y-93424192D01*
X108249815Y-93805144D01*
X108297434Y-93900382D01*
X108345053Y-93948001D01*
X108440291Y-93995620D01*
X108630767Y-93995620D01*
X108726005Y-93948001D01*
X108773624Y-93900382D01*
X108821243Y-93805144D01*
X108821243Y-93567049D01*
X108773624Y-93471811D01*
X108726005Y-93424192D01*
X108630767Y-93376573D01*
X108440291Y-93376573D01*
X108345053Y-93424192D01*
X108297434Y-93471811D01*
X108249815Y-93567049D01*
X109440291Y-92995620D02*
X109535529Y-92995620D01*
X109630767Y-93043240D01*
X109678386Y-93090859D01*
X109726005Y-93186097D01*
X109773624Y-93376573D01*
X109773624Y-93614668D01*
X109726005Y-93805144D01*
X109678386Y-93900382D01*
X109630767Y-93948001D01*
X109535529Y-93995620D01*
X109440291Y-93995620D01*
X109345053Y-93948001D01*
X109297434Y-93900382D01*
X109249815Y-93805144D01*
X109202196Y-93614668D01*
X109202196Y-93376573D01*
X109249815Y-93186097D01*
X109297434Y-93090859D01*
X109345053Y-93043240D01*
X109440291Y-92995620D01*
X111342205Y-93328954D02*
X111342205Y-93995620D01*
X111104110Y-92948001D02*
X110866015Y-93662287D01*
X111485062Y-93662287D01*
X112056491Y-92995620D02*
X112151729Y-92995620D01*
X112246967Y-93043240D01*
X112294586Y-93090859D01*
X112342205Y-93186097D01*
X112389824Y-93376573D01*
X112389824Y-93614668D01*
X112342205Y-93805144D01*
X112294586Y-93900382D01*
X112246967Y-93948001D01*
X112151729Y-93995620D01*
X112056491Y-93995620D01*
X111961253Y-93948001D01*
X111913634Y-93900382D01*
X111866015Y-93805144D01*
X111818396Y-93614668D01*
X111818396Y-93376573D01*
X111866015Y-93186097D01*
X111913634Y-93090859D01*
X111961253Y-93043240D01*
X112056491Y-92995620D01*
X113614295Y-93090859D02*
X113661914Y-93043240D01*
X113757152Y-92995620D01*
X113995247Y-92995620D01*
X114090485Y-93043240D01*
X114138104Y-93090859D01*
X114185723Y-93186097D01*
X114185723Y-93281335D01*
X114138104Y-93424192D01*
X113566676Y-93995620D01*
X114185723Y-93995620D01*
X114804771Y-92995620D02*
X114900009Y-92995620D01*
X114995247Y-93043240D01*
X115042866Y-93090859D01*
X115090485Y-93186097D01*
X115138104Y-93376573D01*
X115138104Y-93614668D01*
X115090485Y-93805144D01*
X115042866Y-93900382D01*
X114995247Y-93948001D01*
X114900009Y-93995620D01*
X114804771Y-93995620D01*
X114709533Y-93948001D01*
X114661914Y-93900382D01*
X114614295Y-93805144D01*
X114566676Y-93614668D01*
X114566676Y-93376573D01*
X114614295Y-93186097D01*
X114661914Y-93090859D01*
X114709533Y-93043240D01*
X114804771Y-92995620D01*
D12*
X144394928Y-96143928D02*
X144394928Y-97143928D01*
X142894928Y-96501071D01*
X143894928Y-98358214D02*
X142894928Y-98358214D01*
X144466357Y-98001071D02*
X143394928Y-97643928D01*
X143394928Y-98572500D01*
X142894928Y-99143928D02*
X144394928Y-99143928D01*
X143680642Y-99143928D02*
X143680642Y-100001071D01*
X142894928Y-100001071D02*
X144394928Y-100001071D01*
X143037785Y-101572500D02*
X142966357Y-101501071D01*
X142894928Y-101286785D01*
X142894928Y-101143928D01*
X142966357Y-100929642D01*
X143109214Y-100786785D01*
X143252071Y-100715357D01*
X143537785Y-100643928D01*
X143752071Y-100643928D01*
X144037785Y-100715357D01*
X144180642Y-100786785D01*
X144323500Y-100929642D01*
X144394928Y-101143928D01*
X144394928Y-101286785D01*
X144323500Y-101501071D01*
X144252071Y-101572500D01*
X144394928Y-102072500D02*
X144394928Y-103072500D01*
X142894928Y-102429642D01*
X143894928Y-104286785D02*
X142894928Y-104286785D01*
X144466357Y-103929642D02*
X143394928Y-103572500D01*
X143394928Y-104501071D01*
D11*
X124539523Y-111522380D02*
X124349047Y-111522380D01*
X124253809Y-111570000D01*
X124206190Y-111617619D01*
X124110952Y-111760476D01*
X124063333Y-111950952D01*
X124063333Y-112331904D01*
X124110952Y-112427142D01*
X124158571Y-112474761D01*
X124253809Y-112522380D01*
X124444285Y-112522380D01*
X124539523Y-112474761D01*
X124587142Y-112427142D01*
X124634761Y-112331904D01*
X124634761Y-112093809D01*
X124587142Y-111998571D01*
X124539523Y-111950952D01*
X124444285Y-111903333D01*
X124253809Y-111903333D01*
X124158571Y-111950952D01*
X124110952Y-111998571D01*
X124063333Y-112093809D01*
X125491904Y-111855714D02*
X125491904Y-112522380D01*
X125253809Y-111474761D02*
X125015714Y-112189047D01*
X125634761Y-112189047D01*
X126015714Y-112522380D02*
X126015714Y-111522380D01*
X126110952Y-112141428D02*
X126396666Y-112522380D01*
X126396666Y-111855714D02*
X126015714Y-112236666D01*
X127158571Y-111998571D02*
X127301428Y-112046190D01*
X127349047Y-112093809D01*
X127396666Y-112189047D01*
X127396666Y-112331904D01*
X127349047Y-112427142D01*
X127301428Y-112474761D01*
X127206190Y-112522380D01*
X126825238Y-112522380D01*
X126825238Y-111522380D01*
X127158571Y-111522380D01*
X127253809Y-111570000D01*
X127301428Y-111617619D01*
X127349047Y-111712857D01*
X127349047Y-111808095D01*
X127301428Y-111903333D01*
X127253809Y-111950952D01*
X127158571Y-111998571D01*
X126825238Y-111998571D01*
X123492380Y-114083904D02*
X122492380Y-114083904D01*
X123492380Y-113512476D02*
X122920952Y-113941047D01*
X122492380Y-113512476D02*
X123063809Y-114083904D01*
D12*
X177571471Y-123124542D02*
X178714328Y-122481685D01*
X178714328Y-123767400D01*
X177571471Y-123124542D01*
D11*
X117533809Y-111776380D02*
X117629047Y-111776380D01*
X117724285Y-111824000D01*
X117771904Y-111871619D01*
X117819523Y-111966857D01*
X117867142Y-112157333D01*
X117867142Y-112395428D01*
X117819523Y-112585904D01*
X117771904Y-112681142D01*
X117724285Y-112728761D01*
X117629047Y-112776380D01*
X117533809Y-112776380D01*
X117438571Y-112728761D01*
X117390952Y-112681142D01*
X117343333Y-112585904D01*
X117295714Y-112395428D01*
X117295714Y-112157333D01*
X117343333Y-111966857D01*
X117390952Y-111871619D01*
X117438571Y-111824000D01*
X117533809Y-111776380D01*
X118248095Y-111871619D02*
X118295714Y-111824000D01*
X118390952Y-111776380D01*
X118629047Y-111776380D01*
X118724285Y-111824000D01*
X118771904Y-111871619D01*
X118819523Y-111966857D01*
X118819523Y-112062095D01*
X118771904Y-112204952D01*
X118200476Y-112776380D01*
X118819523Y-112776380D01*
X119248095Y-112776380D02*
X119248095Y-111776380D01*
X119676666Y-112776380D02*
X119676666Y-112252571D01*
X119629047Y-112157333D01*
X119533809Y-112109714D01*
X119390952Y-112109714D01*
X119295714Y-112157333D01*
X119248095Y-112204952D01*
X110903809Y-111776380D02*
X110999047Y-111776380D01*
X111094285Y-111824000D01*
X111141904Y-111871619D01*
X111189523Y-111966857D01*
X111237142Y-112157333D01*
X111237142Y-112395428D01*
X111189523Y-112585904D01*
X111141904Y-112681142D01*
X111094285Y-112728761D01*
X110999047Y-112776380D01*
X110903809Y-112776380D01*
X110808571Y-112728761D01*
X110760952Y-112681142D01*
X110713333Y-112585904D01*
X110665714Y-112395428D01*
X110665714Y-112157333D01*
X110713333Y-111966857D01*
X110760952Y-111871619D01*
X110808571Y-111824000D01*
X110903809Y-111776380D01*
X112189523Y-112776380D02*
X111618095Y-112776380D01*
X111903809Y-112776380D02*
X111903809Y-111776380D01*
X111808571Y-111919238D01*
X111713333Y-112014476D01*
X111618095Y-112062095D01*
X112618095Y-112776380D02*
X112618095Y-111776380D01*
X113046666Y-112776380D02*
X113046666Y-112252571D01*
X112999047Y-112157333D01*
X112903809Y-112109714D01*
X112760952Y-112109714D01*
X112665714Y-112157333D01*
X112618095Y-112204952D01*
D12*
X145004285Y-114008571D02*
X145004285Y-112508571D01*
X145861428Y-114008571D02*
X145218571Y-113151428D01*
X145861428Y-112508571D02*
X145004285Y-113365714D01*
X146361428Y-112508571D02*
X147361428Y-112508571D01*
X146361428Y-114008571D01*
X147361428Y-114008571D01*
X148147142Y-113151428D02*
X148004285Y-113080000D01*
X147932857Y-113008571D01*
X147861428Y-112865714D01*
X147861428Y-112794285D01*
X147932857Y-112651428D01*
X148004285Y-112580000D01*
X148147142Y-112508571D01*
X148432857Y-112508571D01*
X148575714Y-112580000D01*
X148647142Y-112651428D01*
X148718571Y-112794285D01*
X148718571Y-112865714D01*
X148647142Y-113008571D01*
X148575714Y-113080000D01*
X148432857Y-113151428D01*
X148147142Y-113151428D01*
X148004285Y-113222857D01*
X147932857Y-113294285D01*
X147861428Y-113437142D01*
X147861428Y-113722857D01*
X147932857Y-113865714D01*
X148004285Y-113937142D01*
X148147142Y-114008571D01*
X148432857Y-114008571D01*
X148575714Y-113937142D01*
X148647142Y-113865714D01*
X148718571Y-113722857D01*
X148718571Y-113437142D01*
X148647142Y-113294285D01*
X148575714Y-113222857D01*
X148432857Y-113151428D01*
X149647142Y-112508571D02*
X149790000Y-112508571D01*
X149932857Y-112580000D01*
X150004285Y-112651428D01*
X150075714Y-112794285D01*
X150147142Y-113080000D01*
X150147142Y-113437142D01*
X150075714Y-113722857D01*
X150004285Y-113865714D01*
X149932857Y-113937142D01*
X149790000Y-114008571D01*
X149647142Y-114008571D01*
X149504285Y-113937142D01*
X149432857Y-113865714D01*
X149361428Y-113722857D01*
X149290000Y-113437142D01*
X149290000Y-113080000D01*
X149361428Y-112794285D01*
X149432857Y-112651428D01*
X149504285Y-112580000D01*
X149647142Y-112508571D01*
X150790000Y-113437142D02*
X151932857Y-113437142D01*
X153432857Y-114008571D02*
X152575714Y-114008571D01*
X153004285Y-114008571D02*
X153004285Y-112508571D01*
X152861428Y-112722857D01*
X152718571Y-112865714D01*
X152575714Y-112937142D01*
X154075714Y-114008571D02*
X154075714Y-112508571D01*
X154575714Y-113580000D01*
X155075714Y-112508571D01*
X155075714Y-114008571D01*
X155718571Y-113937142D02*
X155932857Y-114008571D01*
X156290000Y-114008571D01*
X156432857Y-113937142D01*
X156504285Y-113865714D01*
X156575714Y-113722857D01*
X156575714Y-113580000D01*
X156504285Y-113437142D01*
X156432857Y-113365714D01*
X156290000Y-113294285D01*
X156004285Y-113222857D01*
X155861428Y-113151428D01*
X155790000Y-113080000D01*
X155718571Y-112937142D01*
X155718571Y-112794285D01*
X155790000Y-112651428D01*
X155861428Y-112580000D01*
X156004285Y-112508571D01*
X156361428Y-112508571D01*
X156575714Y-112580000D01*
X158075714Y-114008571D02*
X157575714Y-113294285D01*
X157218571Y-114008571D02*
X157218571Y-112508571D01*
X157790000Y-112508571D01*
X157932857Y-112580000D01*
X158004285Y-112651428D01*
X158075714Y-112794285D01*
X158075714Y-113008571D01*
X158004285Y-113151428D01*
X157932857Y-113222857D01*
X157790000Y-113294285D01*
X157218571Y-113294285D01*
X158647142Y-113580000D02*
X159361428Y-113580000D01*
X158504285Y-114008571D02*
X159004285Y-112508571D01*
X159504285Y-114008571D01*
X160004285Y-114008571D02*
X160004285Y-112508571D01*
X160504285Y-113580000D01*
X161004285Y-112508571D01*
X161004285Y-114008571D01*
X162861428Y-113865714D02*
X162932857Y-113937142D01*
X162861428Y-114008571D01*
X162790000Y-113937142D01*
X162861428Y-113865714D01*
X162861428Y-114008571D01*
X162861428Y-113080000D02*
X162932857Y-113151428D01*
X162861428Y-113222857D01*
X162790000Y-113151428D01*
X162861428Y-113080000D01*
X162861428Y-113222857D01*
X164575714Y-112508571D02*
X165575714Y-112508571D01*
X164575714Y-114008571D01*
X165575714Y-114008571D01*
X166361428Y-113151428D02*
X166218571Y-113080000D01*
X166147142Y-113008571D01*
X166075714Y-112865714D01*
X166075714Y-112794285D01*
X166147142Y-112651428D01*
X166218571Y-112580000D01*
X166361428Y-112508571D01*
X166647142Y-112508571D01*
X166790000Y-112580000D01*
X166861428Y-112651428D01*
X166932857Y-112794285D01*
X166932857Y-112865714D01*
X166861428Y-113008571D01*
X166790000Y-113080000D01*
X166647142Y-113151428D01*
X166361428Y-113151428D01*
X166218571Y-113222857D01*
X166147142Y-113294285D01*
X166075714Y-113437142D01*
X166075714Y-113722857D01*
X166147142Y-113865714D01*
X166218571Y-113937142D01*
X166361428Y-114008571D01*
X166647142Y-114008571D01*
X166790000Y-113937142D01*
X166861428Y-113865714D01*
X166932857Y-113722857D01*
X166932857Y-113437142D01*
X166861428Y-113294285D01*
X166790000Y-113222857D01*
X166647142Y-113151428D01*
X167861428Y-112508571D02*
X168004285Y-112508571D01*
X168147142Y-112580000D01*
X168218571Y-112651428D01*
X168290000Y-112794285D01*
X168361428Y-113080000D01*
X168361428Y-113437142D01*
X168290000Y-113722857D01*
X168218571Y-113865714D01*
X168147142Y-113937142D01*
X168004285Y-114008571D01*
X167861428Y-114008571D01*
X167718571Y-113937142D01*
X167647142Y-113865714D01*
X167575714Y-113722857D01*
X167504285Y-113437142D01*
X167504285Y-113080000D01*
X167575714Y-112794285D01*
X167647142Y-112651428D01*
X167718571Y-112580000D01*
X167861428Y-112508571D01*
X170932857Y-114008571D02*
X170075714Y-114008571D01*
X170504285Y-114008571D02*
X170504285Y-112508571D01*
X170361428Y-112722857D01*
X170218571Y-112865714D01*
X170075714Y-112937142D01*
X171504285Y-112651428D02*
X171575714Y-112580000D01*
X171718571Y-112508571D01*
X172075714Y-112508571D01*
X172218571Y-112580000D01*
X172290000Y-112651428D01*
X172361428Y-112794285D01*
X172361428Y-112937142D01*
X172290000Y-113151428D01*
X171432857Y-114008571D01*
X172361428Y-114008571D01*
X173218571Y-113151428D02*
X173075714Y-113080000D01*
X173004285Y-113008571D01*
X172932857Y-112865714D01*
X172932857Y-112794285D01*
X173004285Y-112651428D01*
X173075714Y-112580000D01*
X173218571Y-112508571D01*
X173504285Y-112508571D01*
X173647142Y-112580000D01*
X173718571Y-112651428D01*
X173790000Y-112794285D01*
X173790000Y-112865714D01*
X173718571Y-113008571D01*
X173647142Y-113080000D01*
X173504285Y-113151428D01*
X173218571Y-113151428D01*
X173075714Y-113222857D01*
X173004285Y-113294285D01*
X172932857Y-113437142D01*
X172932857Y-113722857D01*
X173004285Y-113865714D01*
X173075714Y-113937142D01*
X173218571Y-114008571D01*
X173504285Y-114008571D01*
X173647142Y-113937142D01*
X173718571Y-113865714D01*
X173790000Y-113722857D01*
X173790000Y-113437142D01*
X173718571Y-113294285D01*
X173647142Y-113222857D01*
X173504285Y-113151428D01*
X174432857Y-114008571D02*
X174432857Y-112508571D01*
X174575714Y-113437142D02*
X175004285Y-114008571D01*
X175004285Y-113008571D02*
X174432857Y-113580000D01*
X176147142Y-113222857D02*
X176361428Y-113294285D01*
X176432857Y-113365714D01*
X176504285Y-113508571D01*
X176504285Y-113722857D01*
X176432857Y-113865714D01*
X176361428Y-113937142D01*
X176218571Y-114008571D01*
X175647142Y-114008571D01*
X175647142Y-112508571D01*
X176147142Y-112508571D01*
X176290000Y-112580000D01*
X176361428Y-112651428D01*
X176432857Y-112794285D01*
X176432857Y-112937142D01*
X176361428Y-113080000D01*
X176290000Y-113151428D01*
X176147142Y-113222857D01*
X175647142Y-113222857D01*
X179147142Y-114008571D02*
X178647142Y-113294285D01*
X178290000Y-114008571D02*
X178290000Y-112508571D01*
X178861428Y-112508571D01*
X179004285Y-112580000D01*
X179075714Y-112651428D01*
X179147142Y-112794285D01*
X179147142Y-113008571D01*
X179075714Y-113151428D01*
X179004285Y-113222857D01*
X178861428Y-113294285D01*
X178290000Y-113294285D01*
X179718571Y-113580000D02*
X180432857Y-113580000D01*
X179575714Y-114008571D02*
X180075714Y-112508571D01*
X180575714Y-114008571D01*
X181075714Y-114008571D02*
X181075714Y-112508571D01*
X181575714Y-113580000D01*
X182075714Y-112508571D01*
X182075714Y-114008571D01*
X183861428Y-112437142D02*
X182575714Y-114365714D01*
X185218571Y-114008571D02*
X184718571Y-113294285D01*
X184361428Y-114008571D02*
X184361428Y-112508571D01*
X184932857Y-112508571D01*
X185075714Y-112580000D01*
X185147142Y-112651428D01*
X185218571Y-112794285D01*
X185218571Y-113008571D01*
X185147142Y-113151428D01*
X185075714Y-113222857D01*
X184932857Y-113294285D01*
X184361428Y-113294285D01*
X186147142Y-112508571D02*
X186432857Y-112508571D01*
X186575714Y-112580000D01*
X186718571Y-112722857D01*
X186790000Y-113008571D01*
X186790000Y-113508571D01*
X186718571Y-113794285D01*
X186575714Y-113937142D01*
X186432857Y-114008571D01*
X186147142Y-114008571D01*
X186004285Y-113937142D01*
X185861428Y-113794285D01*
X185790000Y-113508571D01*
X185790000Y-113008571D01*
X185861428Y-112722857D01*
X186004285Y-112580000D01*
X186147142Y-112508571D01*
X187432857Y-114008571D02*
X187432857Y-112508571D01*
X187932857Y-113580000D01*
X188432857Y-112508571D01*
X188432857Y-114008571D01*
X190790000Y-113222857D02*
X191004285Y-113294285D01*
X191075714Y-113365714D01*
X191147142Y-113508571D01*
X191147142Y-113722857D01*
X191075714Y-113865714D01*
X191004285Y-113937142D01*
X190861428Y-114008571D01*
X190290000Y-114008571D01*
X190290000Y-112508571D01*
X190790000Y-112508571D01*
X190932857Y-112580000D01*
X191004285Y-112651428D01*
X191075714Y-112794285D01*
X191075714Y-112937142D01*
X191004285Y-113080000D01*
X190932857Y-113151428D01*
X190790000Y-113222857D01*
X190290000Y-113222857D01*
X192075714Y-112508571D02*
X192361428Y-112508571D01*
X192504285Y-112580000D01*
X192647142Y-112722857D01*
X192718571Y-113008571D01*
X192718571Y-113508571D01*
X192647142Y-113794285D01*
X192504285Y-113937142D01*
X192361428Y-114008571D01*
X192075714Y-114008571D01*
X191932857Y-113937142D01*
X191790000Y-113794285D01*
X191718571Y-113508571D01*
X191718571Y-113008571D01*
X191790000Y-112722857D01*
X191932857Y-112580000D01*
X192075714Y-112508571D01*
X193290000Y-113580000D02*
X194004285Y-113580000D01*
X193147142Y-114008571D02*
X193647142Y-112508571D01*
X194147142Y-114008571D01*
X195504285Y-114008571D02*
X195004285Y-113294285D01*
X194647142Y-114008571D02*
X194647142Y-112508571D01*
X195218571Y-112508571D01*
X195361428Y-112580000D01*
X195432857Y-112651428D01*
X195504285Y-112794285D01*
X195504285Y-113008571D01*
X195432857Y-113151428D01*
X195361428Y-113222857D01*
X195218571Y-113294285D01*
X194647142Y-113294285D01*
X196147142Y-114008571D02*
X196147142Y-112508571D01*
X196504285Y-112508571D01*
X196718571Y-112580000D01*
X196861428Y-112722857D01*
X196932857Y-112865714D01*
X197004285Y-113151428D01*
X197004285Y-113365714D01*
X196932857Y-113651428D01*
X196861428Y-113794285D01*
X196718571Y-113937142D01*
X196504285Y-114008571D01*
X196147142Y-114008571D01*
X192932857Y-116558571D02*
X192432857Y-115844285D01*
X192075714Y-116558571D02*
X192075714Y-115058571D01*
X192647142Y-115058571D01*
X192790000Y-115130000D01*
X192861428Y-115201428D01*
X192932857Y-115344285D01*
X192932857Y-115558571D01*
X192861428Y-115701428D01*
X192790000Y-115772857D01*
X192647142Y-115844285D01*
X192075714Y-115844285D01*
X193575714Y-115772857D02*
X194075714Y-115772857D01*
X194290000Y-116558571D02*
X193575714Y-116558571D01*
X193575714Y-115058571D01*
X194290000Y-115058571D01*
X194718571Y-115058571D02*
X195218571Y-116558571D01*
X195718571Y-115058571D01*
X196861428Y-115558571D02*
X196861428Y-116558571D01*
X196504285Y-114987142D02*
X196147142Y-116058571D01*
X197075714Y-116058571D01*
X179504285Y-119108571D02*
X179504285Y-117608571D01*
X180361428Y-119108571D02*
X179718571Y-118251428D01*
X180361428Y-117608571D02*
X179504285Y-118465714D01*
X181004285Y-117608571D02*
X181004285Y-118822857D01*
X181075714Y-118965714D01*
X181147142Y-119037142D01*
X181290000Y-119108571D01*
X181575714Y-119108571D01*
X181718571Y-119037142D01*
X181790000Y-118965714D01*
X181861428Y-118822857D01*
X181861428Y-117608571D01*
X182575714Y-119108571D02*
X182575714Y-117608571D01*
X183432857Y-119108571D01*
X183432857Y-117608571D01*
X184147142Y-119108571D02*
X184147142Y-117608571D01*
X184861428Y-118537142D02*
X186004285Y-118537142D01*
X186718571Y-119108571D02*
X186718571Y-117608571D01*
X187575714Y-119108571D01*
X187575714Y-117608571D01*
X188290000Y-118322857D02*
X188790000Y-118322857D01*
X189004285Y-119108571D02*
X188290000Y-119108571D01*
X188290000Y-117608571D01*
X189004285Y-117608571D01*
X189432857Y-117608571D02*
X190290000Y-117608571D01*
X189861428Y-119108571D02*
X189861428Y-117608571D01*
X191861428Y-117751428D02*
X191932857Y-117680000D01*
X192075714Y-117608571D01*
X192432857Y-117608571D01*
X192575714Y-117680000D01*
X192647142Y-117751428D01*
X192718571Y-117894285D01*
X192718571Y-118037142D01*
X192647142Y-118251428D01*
X191790000Y-119108571D01*
X192718571Y-119108571D01*
X193647142Y-117608571D02*
X193790000Y-117608571D01*
X193932857Y-117680000D01*
X194004285Y-117751428D01*
X194075714Y-117894285D01*
X194147142Y-118180000D01*
X194147142Y-118537142D01*
X194075714Y-118822857D01*
X194004285Y-118965714D01*
X193932857Y-119037142D01*
X193790000Y-119108571D01*
X193647142Y-119108571D01*
X193504285Y-119037142D01*
X193432857Y-118965714D01*
X193361428Y-118822857D01*
X193290000Y-118537142D01*
X193290000Y-118180000D01*
X193361428Y-117894285D01*
X193432857Y-117751428D01*
X193504285Y-117680000D01*
X193647142Y-117608571D01*
X194718571Y-117751428D02*
X194790000Y-117680000D01*
X194932857Y-117608571D01*
X195290000Y-117608571D01*
X195432857Y-117680000D01*
X195504285Y-117751428D01*
X195575714Y-117894285D01*
X195575714Y-118037142D01*
X195504285Y-118251428D01*
X194647142Y-119108571D01*
X195575714Y-119108571D01*
X197004285Y-119108571D02*
X196147142Y-119108571D01*
X196575714Y-119108571D02*
X196575714Y-117608571D01*
X196432857Y-117822857D01*
X196290000Y-117965714D01*
X196147142Y-118037142D01*
X144331428Y-72775928D02*
X144331428Y-73775928D01*
X142831428Y-73133071D01*
X143831428Y-74990214D02*
X142831428Y-74990214D01*
X144402857Y-74633071D02*
X143331428Y-74275928D01*
X143331428Y-75204500D01*
X142831428Y-75775928D02*
X144331428Y-75775928D01*
X143617142Y-75775928D02*
X143617142Y-76633071D01*
X142831428Y-76633071D02*
X144331428Y-76633071D01*
X142974285Y-78204500D02*
X142902857Y-78133071D01*
X142831428Y-77918785D01*
X142831428Y-77775928D01*
X142902857Y-77561642D01*
X143045714Y-77418785D01*
X143188571Y-77347357D01*
X143474285Y-77275928D01*
X143688571Y-77275928D01*
X143974285Y-77347357D01*
X144117142Y-77418785D01*
X144260000Y-77561642D01*
X144331428Y-77775928D01*
X144331428Y-77918785D01*
X144260000Y-78133071D01*
X144188571Y-78204500D01*
X144331428Y-79133071D02*
X144331428Y-79275928D01*
X144260000Y-79418785D01*
X144188571Y-79490214D01*
X144045714Y-79561642D01*
X143760000Y-79633071D01*
X143402857Y-79633071D01*
X143117142Y-79561642D01*
X142974285Y-79490214D01*
X142902857Y-79418785D01*
X142831428Y-79275928D01*
X142831428Y-79133071D01*
X142902857Y-78990214D01*
X142974285Y-78918785D01*
X143117142Y-78847357D01*
X143402857Y-78775928D01*
X143760000Y-78775928D01*
X144045714Y-78847357D01*
X144188571Y-78918785D01*
X144260000Y-78990214D01*
X144331428Y-79133071D01*
X144188571Y-80204500D02*
X144260000Y-80275928D01*
X144331428Y-80418785D01*
X144331428Y-80775928D01*
X144260000Y-80918785D01*
X144188571Y-80990214D01*
X144045714Y-81061642D01*
X143902857Y-81061642D01*
X143688571Y-80990214D01*
X142831428Y-80133071D01*
X142831428Y-81061642D01*
X129789928Y-96080428D02*
X129789928Y-97080428D01*
X128289928Y-96437571D01*
X129289928Y-98294714D02*
X128289928Y-98294714D01*
X129861357Y-97937571D02*
X128789928Y-97580428D01*
X128789928Y-98509000D01*
X128289928Y-99080428D02*
X129789928Y-99080428D01*
X129075642Y-99080428D02*
X129075642Y-99937571D01*
X128289928Y-99937571D02*
X129789928Y-99937571D01*
X128432785Y-101509000D02*
X128361357Y-101437571D01*
X128289928Y-101223285D01*
X128289928Y-101080428D01*
X128361357Y-100866142D01*
X128504214Y-100723285D01*
X128647071Y-100651857D01*
X128932785Y-100580428D01*
X129147071Y-100580428D01*
X129432785Y-100651857D01*
X129575642Y-100723285D01*
X129718500Y-100866142D01*
X129789928Y-101080428D01*
X129789928Y-101223285D01*
X129718500Y-101437571D01*
X129647071Y-101509000D01*
X129789928Y-102437571D02*
X129789928Y-102580428D01*
X129718500Y-102723285D01*
X129647071Y-102794714D01*
X129504214Y-102866142D01*
X129218500Y-102937571D01*
X128861357Y-102937571D01*
X128575642Y-102866142D01*
X128432785Y-102794714D01*
X128361357Y-102723285D01*
X128289928Y-102580428D01*
X128289928Y-102437571D01*
X128361357Y-102294714D01*
X128432785Y-102223285D01*
X128575642Y-102151857D01*
X128861357Y-102080428D01*
X129218500Y-102080428D01*
X129504214Y-102151857D01*
X129647071Y-102223285D01*
X129718500Y-102294714D01*
X129789928Y-102437571D01*
X129789928Y-103866142D02*
X129789928Y-104009000D01*
X129718500Y-104151857D01*
X129647071Y-104223285D01*
X129504214Y-104294714D01*
X129218500Y-104366142D01*
X128861357Y-104366142D01*
X128575642Y-104294714D01*
X128432785Y-104223285D01*
X128361357Y-104151857D01*
X128289928Y-104009000D01*
X128289928Y-103866142D01*
X128361357Y-103723285D01*
X128432785Y-103651857D01*
X128575642Y-103580428D01*
X128861357Y-103509000D01*
X129218500Y-103509000D01*
X129504214Y-103580428D01*
X129647071Y-103651857D01*
X129718500Y-103723285D01*
X129789928Y-103866142D01*
X129662928Y-73093428D02*
X129662928Y-74093428D01*
X128162928Y-73450571D01*
X129162928Y-75307714D02*
X128162928Y-75307714D01*
X129734357Y-74950571D02*
X128662928Y-74593428D01*
X128662928Y-75522000D01*
X128162928Y-76093428D02*
X129662928Y-76093428D01*
X128948642Y-76093428D02*
X128948642Y-76950571D01*
X128162928Y-76950571D02*
X129662928Y-76950571D01*
X128305785Y-78522000D02*
X128234357Y-78450571D01*
X128162928Y-78236285D01*
X128162928Y-78093428D01*
X128234357Y-77879142D01*
X128377214Y-77736285D01*
X128520071Y-77664857D01*
X128805785Y-77593428D01*
X129020071Y-77593428D01*
X129305785Y-77664857D01*
X129448642Y-77736285D01*
X129591500Y-77879142D01*
X129662928Y-78093428D01*
X129662928Y-78236285D01*
X129591500Y-78450571D01*
X129520071Y-78522000D01*
X129662928Y-79450571D02*
X129662928Y-79593428D01*
X129591500Y-79736285D01*
X129520071Y-79807714D01*
X129377214Y-79879142D01*
X129091500Y-79950571D01*
X128734357Y-79950571D01*
X128448642Y-79879142D01*
X128305785Y-79807714D01*
X128234357Y-79736285D01*
X128162928Y-79593428D01*
X128162928Y-79450571D01*
X128234357Y-79307714D01*
X128305785Y-79236285D01*
X128448642Y-79164857D01*
X128734357Y-79093428D01*
X129091500Y-79093428D01*
X129377214Y-79164857D01*
X129520071Y-79236285D01*
X129591500Y-79307714D01*
X129662928Y-79450571D01*
X129162928Y-81236285D02*
X128162928Y-81236285D01*
X129734357Y-80879142D02*
X128662928Y-80522000D01*
X128662928Y-81450571D01*
X113978428Y-75490642D02*
X113978428Y-76490642D01*
X112478428Y-75847785D01*
X113478428Y-77704928D02*
X112478428Y-77704928D01*
X114049857Y-77347785D02*
X112978428Y-76990642D01*
X112978428Y-77919214D01*
X112478428Y-78490642D02*
X113978428Y-78490642D01*
X113264142Y-78490642D02*
X113264142Y-79347785D01*
X112478428Y-79347785D02*
X113978428Y-79347785D01*
X112621285Y-80919214D02*
X112549857Y-80847785D01*
X112478428Y-80633500D01*
X112478428Y-80490642D01*
X112549857Y-80276357D01*
X112692714Y-80133500D01*
X112835571Y-80062071D01*
X113121285Y-79990642D01*
X113335571Y-79990642D01*
X113621285Y-80062071D01*
X113764142Y-80133500D01*
X113907000Y-80276357D01*
X113978428Y-80490642D01*
X113978428Y-80633500D01*
X113907000Y-80847785D01*
X113835571Y-80919214D01*
X112478428Y-82347785D02*
X112478428Y-81490642D01*
X112478428Y-81919214D02*
X113978428Y-81919214D01*
X113764142Y-81776357D01*
X113621285Y-81633500D01*
X113549857Y-81490642D01*
X113978428Y-82847785D02*
X113978428Y-83776357D01*
X113407000Y-83276357D01*
X113407000Y-83490642D01*
X113335571Y-83633500D01*
X113264142Y-83704928D01*
X113121285Y-83776357D01*
X112764142Y-83776357D01*
X112621285Y-83704928D01*
X112549857Y-83633500D01*
X112478428Y-83490642D01*
X112478428Y-83062071D01*
X112549857Y-82919214D01*
X112621285Y-82847785D01*
X112478428Y-84490642D02*
X112478428Y-84776357D01*
X112549857Y-84919214D01*
X112621285Y-84990642D01*
X112835571Y-85133500D01*
X113121285Y-85204928D01*
X113692714Y-85204928D01*
X113835571Y-85133500D01*
X113907000Y-85062071D01*
X113978428Y-84919214D01*
X113978428Y-84633500D01*
X113907000Y-84490642D01*
X113835571Y-84419214D01*
X113692714Y-84347785D01*
X113335571Y-84347785D01*
X113192714Y-84419214D01*
X113121285Y-84490642D01*
X113049857Y-84633500D01*
X113049857Y-84919214D01*
X113121285Y-85062071D01*
X113192714Y-85133500D01*
X113335571Y-85204928D01*
X167323428Y-85924285D02*
X167323428Y-85638571D01*
X167252000Y-85495714D01*
X167180571Y-85424285D01*
X166966285Y-85281428D01*
X166680571Y-85210000D01*
X166109142Y-85210000D01*
X165966285Y-85281428D01*
X165894857Y-85352857D01*
X165823428Y-85495714D01*
X165823428Y-85781428D01*
X165894857Y-85924285D01*
X165966285Y-85995714D01*
X166109142Y-86067142D01*
X166466285Y-86067142D01*
X166609142Y-85995714D01*
X166680571Y-85924285D01*
X166752000Y-85781428D01*
X166752000Y-85495714D01*
X166680571Y-85352857D01*
X166609142Y-85281428D01*
X166466285Y-85210000D01*
X167180571Y-86638571D02*
X167252000Y-86710000D01*
X167323428Y-86852857D01*
X167323428Y-87210000D01*
X167252000Y-87352857D01*
X167180571Y-87424285D01*
X167037714Y-87495714D01*
X166894857Y-87495714D01*
X166680571Y-87424285D01*
X165823428Y-86567142D01*
X165823428Y-87495714D01*
X166680571Y-88352857D02*
X166752000Y-88210000D01*
X166823428Y-88138571D01*
X166966285Y-88067142D01*
X167037714Y-88067142D01*
X167180571Y-88138571D01*
X167252000Y-88210000D01*
X167323428Y-88352857D01*
X167323428Y-88638571D01*
X167252000Y-88781428D01*
X167180571Y-88852857D01*
X167037714Y-88924285D01*
X166966285Y-88924285D01*
X166823428Y-88852857D01*
X166752000Y-88781428D01*
X166680571Y-88638571D01*
X166680571Y-88352857D01*
X166609142Y-88210000D01*
X166537714Y-88138571D01*
X166394857Y-88067142D01*
X166109142Y-88067142D01*
X165966285Y-88138571D01*
X165894857Y-88210000D01*
X165823428Y-88352857D01*
X165823428Y-88638571D01*
X165894857Y-88781428D01*
X165966285Y-88852857D01*
X166109142Y-88924285D01*
X166394857Y-88924285D01*
X166537714Y-88852857D01*
X166609142Y-88781428D01*
X166680571Y-88638571D01*
X165823428Y-90352857D02*
X165823428Y-89495714D01*
X165823428Y-89924285D02*
X167323428Y-89924285D01*
X167109142Y-89781428D01*
X166966285Y-89638571D01*
X166894857Y-89495714D01*
X167180571Y-90924285D02*
X167252000Y-90995714D01*
X167323428Y-91138571D01*
X167323428Y-91495714D01*
X167252000Y-91638571D01*
X167180571Y-91710000D01*
X167037714Y-91781428D01*
X166894857Y-91781428D01*
X166680571Y-91710000D01*
X165823428Y-90852857D01*
X165823428Y-91781428D01*
X166680571Y-92638571D02*
X166752000Y-92495714D01*
X166823428Y-92424285D01*
X166966285Y-92352857D01*
X167037714Y-92352857D01*
X167180571Y-92424285D01*
X167252000Y-92495714D01*
X167323428Y-92638571D01*
X167323428Y-92924285D01*
X167252000Y-93067142D01*
X167180571Y-93138571D01*
X167037714Y-93210000D01*
X166966285Y-93210000D01*
X166823428Y-93138571D01*
X166752000Y-93067142D01*
X166680571Y-92924285D01*
X166680571Y-92638571D01*
X166609142Y-92495714D01*
X166537714Y-92424285D01*
X166394857Y-92352857D01*
X166109142Y-92352857D01*
X165966285Y-92424285D01*
X165894857Y-92495714D01*
X165823428Y-92638571D01*
X165823428Y-92924285D01*
X165894857Y-93067142D01*
X165966285Y-93138571D01*
X166109142Y-93210000D01*
X166394857Y-93210000D01*
X166537714Y-93138571D01*
X166609142Y-93067142D01*
X166680571Y-92924285D01*
X163273428Y-84067142D02*
X163273428Y-83210000D01*
X163273428Y-83638571D02*
X164773428Y-83638571D01*
X164559142Y-83495714D01*
X164416285Y-83352857D01*
X164344857Y-83210000D01*
X164630571Y-84638571D02*
X164702000Y-84710000D01*
X164773428Y-84852857D01*
X164773428Y-85210000D01*
X164702000Y-85352857D01*
X164630571Y-85424285D01*
X164487714Y-85495714D01*
X164344857Y-85495714D01*
X164130571Y-85424285D01*
X163273428Y-84567142D01*
X163273428Y-85495714D01*
X164130571Y-86352857D02*
X164202000Y-86210000D01*
X164273428Y-86138571D01*
X164416285Y-86067142D01*
X164487714Y-86067142D01*
X164630571Y-86138571D01*
X164702000Y-86210000D01*
X164773428Y-86352857D01*
X164773428Y-86638571D01*
X164702000Y-86781428D01*
X164630571Y-86852857D01*
X164487714Y-86924285D01*
X164416285Y-86924285D01*
X164273428Y-86852857D01*
X164202000Y-86781428D01*
X164130571Y-86638571D01*
X164130571Y-86352857D01*
X164059142Y-86210000D01*
X163987714Y-86138571D01*
X163844857Y-86067142D01*
X163559142Y-86067142D01*
X163416285Y-86138571D01*
X163344857Y-86210000D01*
X163273428Y-86352857D01*
X163273428Y-86638571D01*
X163344857Y-86781428D01*
X163416285Y-86852857D01*
X163559142Y-86924285D01*
X163844857Y-86924285D01*
X163987714Y-86852857D01*
X164059142Y-86781428D01*
X164130571Y-86638571D01*
X163273428Y-87567142D02*
X164773428Y-87567142D01*
X163844857Y-87710000D02*
X163273428Y-88138571D01*
X164273428Y-88138571D02*
X163702000Y-87567142D01*
X163344857Y-89852857D02*
X163273428Y-90067142D01*
X163273428Y-90424285D01*
X163344857Y-90567142D01*
X163416285Y-90638571D01*
X163559142Y-90710000D01*
X163702000Y-90710000D01*
X163844857Y-90638571D01*
X163916285Y-90567142D01*
X163987714Y-90424285D01*
X164059142Y-90138571D01*
X164130571Y-89995714D01*
X164202000Y-89924285D01*
X164344857Y-89852857D01*
X164487714Y-89852857D01*
X164630571Y-89924285D01*
X164702000Y-89995714D01*
X164773428Y-90138571D01*
X164773428Y-90495714D01*
X164702000Y-90710000D01*
X163273428Y-92210000D02*
X163987714Y-91710000D01*
X163273428Y-91352857D02*
X164773428Y-91352857D01*
X164773428Y-91924285D01*
X164702000Y-92067142D01*
X164630571Y-92138571D01*
X164487714Y-92210000D01*
X164273428Y-92210000D01*
X164130571Y-92138571D01*
X164059142Y-92067142D01*
X163987714Y-91924285D01*
X163987714Y-91352857D01*
X163702000Y-92781428D02*
X163702000Y-93495714D01*
X163273428Y-92638571D02*
X164773428Y-93138571D01*
X163273428Y-93638571D01*
X163273428Y-94138571D02*
X164773428Y-94138571D01*
X163702000Y-94638571D01*
X164773428Y-95138571D01*
X163273428Y-95138571D01*
X190040571Y-88083285D02*
X190112000Y-88154714D01*
X190183428Y-88297571D01*
X190183428Y-88654714D01*
X190112000Y-88797571D01*
X190040571Y-88869000D01*
X189897714Y-88940428D01*
X189754857Y-88940428D01*
X189540571Y-88869000D01*
X188683428Y-88011857D01*
X188683428Y-88940428D01*
X189540571Y-89797571D02*
X189612000Y-89654714D01*
X189683428Y-89583285D01*
X189826285Y-89511857D01*
X189897714Y-89511857D01*
X190040571Y-89583285D01*
X190112000Y-89654714D01*
X190183428Y-89797571D01*
X190183428Y-90083285D01*
X190112000Y-90226142D01*
X190040571Y-90297571D01*
X189897714Y-90369000D01*
X189826285Y-90369000D01*
X189683428Y-90297571D01*
X189612000Y-90226142D01*
X189540571Y-90083285D01*
X189540571Y-89797571D01*
X189469142Y-89654714D01*
X189397714Y-89583285D01*
X189254857Y-89511857D01*
X188969142Y-89511857D01*
X188826285Y-89583285D01*
X188754857Y-89654714D01*
X188683428Y-89797571D01*
X188683428Y-90083285D01*
X188754857Y-90226142D01*
X188826285Y-90297571D01*
X188969142Y-90369000D01*
X189254857Y-90369000D01*
X189397714Y-90297571D01*
X189469142Y-90226142D01*
X189540571Y-90083285D01*
X190040571Y-90940428D02*
X190112000Y-91011857D01*
X190183428Y-91154714D01*
X190183428Y-91511857D01*
X190112000Y-91654714D01*
X190040571Y-91726142D01*
X189897714Y-91797571D01*
X189754857Y-91797571D01*
X189540571Y-91726142D01*
X188683428Y-90869000D01*
X188683428Y-91797571D01*
X190183428Y-93154714D02*
X190183428Y-92440428D01*
X189469142Y-92369000D01*
X189540571Y-92440428D01*
X189612000Y-92583285D01*
X189612000Y-92940428D01*
X189540571Y-93083285D01*
X189469142Y-93154714D01*
X189326285Y-93226142D01*
X188969142Y-93226142D01*
X188826285Y-93154714D01*
X188754857Y-93083285D01*
X188683428Y-92940428D01*
X188683428Y-92583285D01*
X188754857Y-92440428D01*
X188826285Y-92369000D01*
X190183428Y-94511857D02*
X190183428Y-94226142D01*
X190112000Y-94083285D01*
X190040571Y-94011857D01*
X189826285Y-93869000D01*
X189540571Y-93797571D01*
X188969142Y-93797571D01*
X188826285Y-93869000D01*
X188754857Y-93940428D01*
X188683428Y-94083285D01*
X188683428Y-94369000D01*
X188754857Y-94511857D01*
X188826285Y-94583285D01*
X188969142Y-94654714D01*
X189326285Y-94654714D01*
X189469142Y-94583285D01*
X189540571Y-94511857D01*
X189612000Y-94369000D01*
X189612000Y-94083285D01*
X189540571Y-93940428D01*
X189469142Y-93869000D01*
X189326285Y-93797571D01*
X186133428Y-90190428D02*
X186847714Y-89690428D01*
X186133428Y-89333285D02*
X187633428Y-89333285D01*
X187633428Y-89904714D01*
X187562000Y-90047571D01*
X187490571Y-90119000D01*
X187347714Y-90190428D01*
X187133428Y-90190428D01*
X186990571Y-90119000D01*
X186919142Y-90047571D01*
X186847714Y-89904714D01*
X186847714Y-89333285D01*
X187633428Y-91119000D02*
X187633428Y-91404714D01*
X187562000Y-91547571D01*
X187419142Y-91690428D01*
X187133428Y-91761857D01*
X186633428Y-91761857D01*
X186347714Y-91690428D01*
X186204857Y-91547571D01*
X186133428Y-91404714D01*
X186133428Y-91119000D01*
X186204857Y-90976142D01*
X186347714Y-90833285D01*
X186633428Y-90761857D01*
X187133428Y-90761857D01*
X187419142Y-90833285D01*
X187562000Y-90976142D01*
X187633428Y-91119000D01*
X186133428Y-92404714D02*
X187633428Y-92404714D01*
X186562000Y-92904714D01*
X187633428Y-93404714D01*
X186133428Y-93404714D01*
D13*
X179170000Y-67330000D02*
X179170000Y-66000000D01*
X180500000Y-67330000D02*
X179170000Y-67330000D01*
X181770000Y-67330000D02*
X181770000Y-64670000D01*
X181770000Y-64670000D02*
X186910000Y-64670000D01*
X181770000Y-67330000D02*
X186910000Y-67330000D01*
X186910000Y-67330000D02*
X186910000Y-64670000D01*
X179170000Y-63830000D02*
X179170000Y-62500000D01*
X180500000Y-63830000D02*
X179170000Y-63830000D01*
X181770000Y-63830000D02*
X181770000Y-61170000D01*
X181770000Y-61170000D02*
X186910000Y-61170000D01*
X181770000Y-63830000D02*
X186910000Y-63830000D01*
X186910000Y-63830000D02*
X186910000Y-61170000D01*
X157670000Y-63830000D02*
X157670000Y-62500000D01*
X159000000Y-63830000D02*
X157670000Y-63830000D01*
X160270000Y-63830000D02*
X160270000Y-61170000D01*
X160270000Y-61170000D02*
X170490000Y-61170000D01*
X160270000Y-63830000D02*
X170490000Y-63830000D01*
X170490000Y-63830000D02*
X170490000Y-61170000D01*
X104070000Y-87910000D02*
X106730000Y-87910000D01*
X104070000Y-82770000D02*
X104070000Y-87910000D01*
X106730000Y-82770000D02*
X106730000Y-87910000D01*
X104070000Y-82770000D02*
X106730000Y-82770000D01*
X104070000Y-81500000D02*
X104070000Y-80170000D01*
X104070000Y-80170000D02*
X105400000Y-80170000D01*
X130841000Y-115231000D02*
X130841000Y-116489000D01*
X129001000Y-115231000D02*
X129001000Y-116489000D01*
X116737000Y-105810000D02*
X116737000Y-103150000D01*
X111597000Y-105810000D02*
X116737000Y-105810000D01*
X111597000Y-103150000D02*
X116737000Y-103150000D01*
X111597000Y-105810000D02*
X111597000Y-103150000D01*
X110327000Y-105810000D02*
X108997000Y-105810000D01*
X108997000Y-105810000D02*
X108997000Y-104480000D01*
X133254000Y-117910000D02*
X137104000Y-117910000D01*
X132871369Y-117332045D02*
G75*
G03X133254000Y-117910000I2322631J1122045D01*
G01*
X132837600Y-115111193D02*
G75*
G02X135194000Y-113610000I2356400J-1098807D01*
G01*
X137550400Y-115111193D02*
G75*
G03X135194000Y-113610000I-2356400J-1098807D01*
G01*
X137496383Y-117322264D02*
G75*
G02X137104000Y-117910000I-2302383J1112264D01*
G01*
X110768000Y-121976000D02*
X111538000Y-121976000D01*
X118848000Y-121976000D02*
X118078000Y-121976000D01*
X111538000Y-123346000D02*
X118078000Y-123346000D01*
X111538000Y-120606000D02*
X111538000Y-123346000D01*
X118078000Y-120606000D02*
X111538000Y-120606000D01*
X118078000Y-123346000D02*
X118078000Y-120606000D01*
X118078000Y-126394000D02*
X118078000Y-123654000D01*
X118078000Y-123654000D02*
X111538000Y-123654000D01*
X111538000Y-123654000D02*
X111538000Y-126394000D01*
X111538000Y-126394000D02*
X118078000Y-126394000D01*
X118848000Y-125024000D02*
X118078000Y-125024000D01*
X110768000Y-125024000D02*
X111538000Y-125024000D01*
X150725000Y-116515000D02*
X149955000Y-116515000D01*
X142645000Y-116515000D02*
X143415000Y-116515000D01*
X149955000Y-115145000D02*
X143415000Y-115145000D01*
X149955000Y-117885000D02*
X149955000Y-115145000D01*
X143415000Y-117885000D02*
X149955000Y-117885000D01*
X143415000Y-115145000D02*
X143415000Y-117885000D01*
X157385000Y-115145000D02*
X157385000Y-117885000D01*
X157385000Y-117885000D02*
X163925000Y-117885000D01*
X163925000Y-117885000D02*
X163925000Y-115145000D01*
X163925000Y-115145000D02*
X157385000Y-115145000D01*
X156615000Y-116515000D02*
X157385000Y-116515000D01*
X164695000Y-116515000D02*
X163925000Y-116515000D01*
X107954000Y-94865000D02*
X107954000Y-100065000D01*
X115634000Y-94865000D02*
X107954000Y-94865000D01*
X118234000Y-100065000D02*
X107954000Y-100065000D01*
X115634000Y-94865000D02*
X115634000Y-97465000D01*
X115634000Y-97465000D02*
X118234000Y-97465000D01*
X118234000Y-97465000D02*
X118234000Y-100065000D01*
X116904000Y-94865000D02*
X118234000Y-94865000D01*
X118234000Y-94865000D02*
X118234000Y-96195000D01*
X126948608Y-117474335D02*
G75*
G03X127105516Y-114242000I-1078608J1672335D01*
G01*
X124791392Y-117474335D02*
G75*
G02X124634484Y-114242000I1078608J1672335D01*
G01*
X126949837Y-116843130D02*
G75*
G03X126950000Y-114761039I-1079837J1041130D01*
G01*
X124790163Y-116843130D02*
G75*
G02X124790000Y-114761039I1079837J1041130D01*
G01*
X127106000Y-114242000D02*
X126950000Y-114242000D01*
X124790000Y-114242000D02*
X124634000Y-114242000D01*
X144574000Y-91880500D02*
G75*
G02X142574000Y-91880500I-1000000J0D01*
G01*
X142574000Y-91880500D02*
X140924000Y-91880500D01*
X140924000Y-91880500D02*
X140924000Y-109780500D01*
X140924000Y-109780500D02*
X146224000Y-109780500D01*
X146224000Y-109780500D02*
X146224000Y-91880500D01*
X146224000Y-91880500D02*
X144574000Y-91880500D01*
X138434000Y-91820500D02*
X138434000Y-109840500D01*
X138434000Y-109840500D02*
X148714000Y-109840500D01*
X148714000Y-109840500D02*
X148714000Y-91820500D01*
X148714000Y-91820500D02*
X138434000Y-91820500D01*
X111030000Y-108414000D02*
X111030000Y-111154000D01*
X111030000Y-111154000D02*
X117570000Y-111154000D01*
X117570000Y-111154000D02*
X117570000Y-108414000D01*
X117570000Y-108414000D02*
X111030000Y-108414000D01*
X110260000Y-109784000D02*
X111030000Y-109784000D01*
X118340000Y-109784000D02*
X117570000Y-109784000D01*
X186960000Y-74485000D02*
X181380000Y-74485000D01*
X181380000Y-74485000D02*
X181380000Y-110285000D01*
X181380000Y-110285000D02*
X194540000Y-110285000D01*
X194540000Y-110285000D02*
X194540000Y-74485000D01*
X194540000Y-74485000D02*
X188960000Y-74485000D01*
X178950000Y-74485000D02*
X178950000Y-110285000D01*
X178950000Y-110285000D02*
X196970000Y-110285000D01*
X196970000Y-110285000D02*
X196970000Y-74485000D01*
X196970000Y-74485000D02*
X178950000Y-74485000D01*
X188960000Y-74485000D02*
G75*
G02X186960000Y-74485000I-1000000J0D01*
G01*
D11*
X165354000Y-123119000D02*
X165354000Y-122611000D01*
X164846000Y-123119000D02*
X164846000Y-122611000D01*
X162814000Y-123119000D02*
X162814000Y-122611000D01*
X162306000Y-123119000D02*
X162306000Y-122611000D01*
X167386000Y-123119000D02*
X167386000Y-122611000D01*
X167894000Y-123119000D02*
X167894000Y-122611000D01*
X169926000Y-123119000D02*
X169926000Y-122611000D01*
X170434000Y-123119000D02*
X170434000Y-122611000D01*
X172466000Y-123119000D02*
X172466000Y-122611000D01*
X172974000Y-123119000D02*
X172974000Y-122611000D01*
X175006000Y-123119000D02*
X175006000Y-122611000D01*
X175514000Y-123119000D02*
X175514000Y-122611000D01*
X134874000Y-123119000D02*
X134874000Y-122611000D01*
X134366000Y-123119000D02*
X134366000Y-122611000D01*
X132334000Y-123119000D02*
X132334000Y-122611000D01*
X131826000Y-123119000D02*
X131826000Y-122611000D01*
X136906000Y-123119000D02*
X136906000Y-122611000D01*
X137414000Y-123119000D02*
X137414000Y-122611000D01*
X139446000Y-123119000D02*
X139446000Y-122611000D01*
X139954000Y-123119000D02*
X139954000Y-122611000D01*
X129794000Y-123119000D02*
X129794000Y-122611000D01*
X129286000Y-123119000D02*
X129286000Y-122611000D01*
X127254000Y-123119000D02*
X127254000Y-122611000D01*
X126746000Y-123119000D02*
X126746000Y-122611000D01*
X145034000Y-123119000D02*
X145034000Y-122611000D01*
X144526000Y-123119000D02*
X144526000Y-122611000D01*
X142494000Y-123119000D02*
X142494000Y-122611000D01*
X141986000Y-123119000D02*
X141986000Y-122611000D01*
X147066000Y-123119000D02*
X147066000Y-122611000D01*
X147574000Y-123119000D02*
X147574000Y-122611000D01*
X149606000Y-123119000D02*
X149606000Y-122611000D01*
X150114000Y-123119000D02*
X150114000Y-122611000D01*
X160274000Y-123119000D02*
X160274000Y-122611000D01*
X159766000Y-123119000D02*
X159766000Y-122611000D01*
X157734000Y-123119000D02*
X157734000Y-122611000D01*
X157226000Y-123119000D02*
X157226000Y-122611000D01*
X152146000Y-123119000D02*
X152146000Y-122611000D01*
X152654000Y-123119000D02*
X152654000Y-122611000D01*
X154686000Y-123119000D02*
X154686000Y-122611000D01*
X155194000Y-123119000D02*
X155194000Y-122611000D01*
X129794000Y-125659000D02*
X129794000Y-125151000D01*
X129286000Y-125659000D02*
X129286000Y-125151000D01*
X127254000Y-125659000D02*
X127254000Y-125151000D01*
X126746000Y-125659000D02*
X126746000Y-125151000D01*
X131826000Y-125659000D02*
X131826000Y-125151000D01*
X132334000Y-125659000D02*
X132334000Y-125151000D01*
X134366000Y-125659000D02*
X134366000Y-125151000D01*
X134874000Y-125659000D02*
X134874000Y-125151000D01*
X150114000Y-125659000D02*
X150114000Y-125151000D01*
X149606000Y-125659000D02*
X149606000Y-125151000D01*
X147574000Y-125659000D02*
X147574000Y-125151000D01*
X147066000Y-125659000D02*
X147066000Y-125151000D01*
X152146000Y-125659000D02*
X152146000Y-125151000D01*
X152654000Y-125659000D02*
X152654000Y-125151000D01*
X154686000Y-125659000D02*
X154686000Y-125151000D01*
X155194000Y-125659000D02*
X155194000Y-125151000D01*
X145034000Y-125659000D02*
X145034000Y-125151000D01*
X144526000Y-125659000D02*
X144526000Y-125151000D01*
X142494000Y-125659000D02*
X142494000Y-125151000D01*
X141986000Y-125659000D02*
X141986000Y-125151000D01*
X136906000Y-125659000D02*
X136906000Y-125151000D01*
X137414000Y-125659000D02*
X137414000Y-125151000D01*
X139446000Y-125659000D02*
X139446000Y-125151000D01*
X139954000Y-125659000D02*
X139954000Y-125151000D01*
X160274000Y-125659000D02*
X160274000Y-125151000D01*
X159766000Y-125659000D02*
X159766000Y-125151000D01*
X157734000Y-125659000D02*
X157734000Y-125151000D01*
X157226000Y-125659000D02*
X157226000Y-125151000D01*
X162306000Y-125659000D02*
X162306000Y-125151000D01*
X162814000Y-125659000D02*
X162814000Y-125151000D01*
X164846000Y-125659000D02*
X164846000Y-125151000D01*
X165354000Y-125659000D02*
X165354000Y-125151000D01*
X175514000Y-125659000D02*
X175514000Y-125151000D01*
X175006000Y-125659000D02*
X175006000Y-125151000D01*
X172974000Y-125659000D02*
X172974000Y-125151000D01*
X172466000Y-125659000D02*
X172466000Y-125151000D01*
X167386000Y-125659000D02*
X167386000Y-125151000D01*
X167894000Y-125659000D02*
X167894000Y-125151000D01*
X169926000Y-125659000D02*
X169926000Y-125151000D01*
X170434000Y-125659000D02*
X170434000Y-125151000D01*
X176810000Y-121595000D02*
X176810000Y-120445000D01*
X176810000Y-120445000D02*
X175260000Y-120445000D01*
X175387000Y-128199000D02*
X175387000Y-134168000D01*
X175387000Y-134168000D02*
X175133000Y-134168000D01*
X175133000Y-134168000D02*
X175133000Y-128326000D01*
X175133000Y-128326000D02*
X175260000Y-128326000D01*
X175260000Y-128326000D02*
X175260000Y-134168000D01*
X135890000Y-125659000D02*
X135890000Y-128199000D01*
X135890000Y-125659000D02*
X133350000Y-125659000D01*
X133350000Y-125659000D02*
X133350000Y-128199000D01*
X134874000Y-128199000D02*
X134874000Y-134295000D01*
X134874000Y-134295000D02*
X134366000Y-134295000D01*
X134366000Y-134295000D02*
X134366000Y-128199000D01*
X133350000Y-128199000D02*
X135890000Y-128199000D01*
X130810000Y-128199000D02*
X133350000Y-128199000D01*
X131826000Y-134295000D02*
X131826000Y-128199000D01*
X132334000Y-134295000D02*
X131826000Y-134295000D01*
X132334000Y-128199000D02*
X132334000Y-134295000D01*
X130810000Y-125659000D02*
X130810000Y-128199000D01*
X133350000Y-125659000D02*
X130810000Y-125659000D01*
X133350000Y-125659000D02*
X133350000Y-128199000D01*
X128270000Y-125659000D02*
X128270000Y-128199000D01*
X128270000Y-125659000D02*
X125730000Y-125659000D01*
X127254000Y-128199000D02*
X127254000Y-134295000D01*
X127254000Y-134295000D02*
X126746000Y-134295000D01*
X126746000Y-134295000D02*
X126746000Y-128199000D01*
X125730000Y-128199000D02*
X128270000Y-128199000D01*
X128270000Y-128199000D02*
X130810000Y-128199000D01*
X129286000Y-134295000D02*
X129286000Y-128199000D01*
X129794000Y-134295000D02*
X129286000Y-134295000D01*
X129794000Y-128199000D02*
X129794000Y-134295000D01*
X128270000Y-125659000D02*
X128270000Y-128199000D01*
X130810000Y-125659000D02*
X128270000Y-125659000D01*
X130810000Y-125659000D02*
X130810000Y-128199000D01*
X125730000Y-125659000D02*
X125730000Y-128199000D01*
X156210000Y-125659000D02*
X156210000Y-128199000D01*
X156210000Y-125659000D02*
X153670000Y-125659000D01*
X153670000Y-125659000D02*
X153670000Y-128199000D01*
X155194000Y-128199000D02*
X155194000Y-134295000D01*
X155194000Y-134295000D02*
X154686000Y-134295000D01*
X154686000Y-134295000D02*
X154686000Y-128199000D01*
X153670000Y-128199000D02*
X156210000Y-128199000D01*
X151130000Y-128199000D02*
X153670000Y-128199000D01*
X152146000Y-134295000D02*
X152146000Y-128199000D01*
X152654000Y-134295000D02*
X152146000Y-134295000D01*
X152654000Y-128199000D02*
X152654000Y-134295000D01*
X151130000Y-125659000D02*
X151130000Y-128199000D01*
X153670000Y-125659000D02*
X151130000Y-125659000D01*
X153670000Y-125659000D02*
X153670000Y-128199000D01*
X148590000Y-125659000D02*
X148590000Y-128199000D01*
X148590000Y-125659000D02*
X146050000Y-125659000D01*
X146050000Y-125659000D02*
X146050000Y-128199000D01*
X147574000Y-128199000D02*
X147574000Y-134295000D01*
X147574000Y-134295000D02*
X147066000Y-134295000D01*
X147066000Y-134295000D02*
X147066000Y-128199000D01*
X146050000Y-128199000D02*
X148590000Y-128199000D01*
X148590000Y-128199000D02*
X151130000Y-128199000D01*
X149606000Y-134295000D02*
X149606000Y-128199000D01*
X150114000Y-134295000D02*
X149606000Y-134295000D01*
X150114000Y-128199000D02*
X150114000Y-134295000D01*
X148590000Y-125659000D02*
X148590000Y-128199000D01*
X151130000Y-125659000D02*
X148590000Y-125659000D01*
X151130000Y-125659000D02*
X151130000Y-128199000D01*
X140970000Y-125659000D02*
X140970000Y-128199000D01*
X140970000Y-125659000D02*
X138430000Y-125659000D01*
X138430000Y-125659000D02*
X138430000Y-128199000D01*
X139954000Y-128199000D02*
X139954000Y-134295000D01*
X139954000Y-134295000D02*
X139446000Y-134295000D01*
X139446000Y-134295000D02*
X139446000Y-128199000D01*
X138430000Y-128199000D02*
X140970000Y-128199000D01*
X135890000Y-128199000D02*
X138430000Y-128199000D01*
X136906000Y-134295000D02*
X136906000Y-128199000D01*
X137414000Y-134295000D02*
X136906000Y-134295000D01*
X137414000Y-128199000D02*
X137414000Y-134295000D01*
X135890000Y-125659000D02*
X135890000Y-128199000D01*
X138430000Y-125659000D02*
X135890000Y-125659000D01*
X138430000Y-125659000D02*
X138430000Y-128199000D01*
X143510000Y-125659000D02*
X143510000Y-128199000D01*
X143510000Y-125659000D02*
X140970000Y-125659000D01*
X140970000Y-125659000D02*
X140970000Y-128199000D01*
X142494000Y-128199000D02*
X142494000Y-134295000D01*
X142494000Y-134295000D02*
X141986000Y-134295000D01*
X141986000Y-134295000D02*
X141986000Y-128199000D01*
X140970000Y-128199000D02*
X143510000Y-128199000D01*
X143510000Y-128199000D02*
X146050000Y-128199000D01*
X144526000Y-134295000D02*
X144526000Y-128199000D01*
X145034000Y-134295000D02*
X144526000Y-134295000D01*
X145034000Y-128199000D02*
X145034000Y-134295000D01*
X143510000Y-125659000D02*
X143510000Y-128199000D01*
X146050000Y-125659000D02*
X143510000Y-125659000D01*
X146050000Y-125659000D02*
X146050000Y-128199000D01*
X166370000Y-125659000D02*
X166370000Y-128199000D01*
X166370000Y-125659000D02*
X163830000Y-125659000D01*
X163830000Y-125659000D02*
X163830000Y-128199000D01*
X165354000Y-128199000D02*
X165354000Y-134295000D01*
X165354000Y-134295000D02*
X164846000Y-134295000D01*
X164846000Y-134295000D02*
X164846000Y-128199000D01*
X163830000Y-128199000D02*
X166370000Y-128199000D01*
X161290000Y-128199000D02*
X163830000Y-128199000D01*
X162306000Y-134295000D02*
X162306000Y-128199000D01*
X162814000Y-134295000D02*
X162306000Y-134295000D01*
X162814000Y-128199000D02*
X162814000Y-134295000D01*
X161290000Y-125659000D02*
X161290000Y-128199000D01*
X163830000Y-125659000D02*
X161290000Y-125659000D01*
X163830000Y-125659000D02*
X163830000Y-128199000D01*
X158750000Y-125659000D02*
X158750000Y-128199000D01*
X158750000Y-125659000D02*
X156210000Y-125659000D01*
X156210000Y-125659000D02*
X156210000Y-128199000D01*
X157734000Y-128199000D02*
X157734000Y-134295000D01*
X157734000Y-134295000D02*
X157226000Y-134295000D01*
X157226000Y-134295000D02*
X157226000Y-128199000D01*
X156210000Y-128199000D02*
X158750000Y-128199000D01*
X158750000Y-128199000D02*
X161290000Y-128199000D01*
X159766000Y-134295000D02*
X159766000Y-128199000D01*
X160274000Y-134295000D02*
X159766000Y-134295000D01*
X160274000Y-128199000D02*
X160274000Y-134295000D01*
X158750000Y-125659000D02*
X158750000Y-128199000D01*
X161290000Y-125659000D02*
X158750000Y-125659000D01*
X161290000Y-125659000D02*
X161290000Y-128199000D01*
X171450000Y-125659000D02*
X171450000Y-128199000D01*
X171450000Y-125659000D02*
X168910000Y-125659000D01*
X168910000Y-125659000D02*
X168910000Y-128199000D01*
X170434000Y-128199000D02*
X170434000Y-134295000D01*
X170434000Y-134295000D02*
X169926000Y-134295000D01*
X169926000Y-134295000D02*
X169926000Y-128199000D01*
X168910000Y-128199000D02*
X171450000Y-128199000D01*
X166370000Y-128199000D02*
X168910000Y-128199000D01*
X167386000Y-134295000D02*
X167386000Y-128199000D01*
X167894000Y-134295000D02*
X167386000Y-134295000D01*
X167894000Y-128199000D02*
X167894000Y-134295000D01*
X166370000Y-125659000D02*
X166370000Y-128199000D01*
X168910000Y-125659000D02*
X166370000Y-125659000D01*
X168910000Y-125659000D02*
X168910000Y-128199000D01*
X173990000Y-125659000D02*
X173990000Y-128199000D01*
X173990000Y-125659000D02*
X171450000Y-125659000D01*
X171450000Y-125659000D02*
X171450000Y-128199000D01*
X172974000Y-128199000D02*
X172974000Y-134295000D01*
X172974000Y-134295000D02*
X172466000Y-134295000D01*
X172466000Y-134295000D02*
X172466000Y-128199000D01*
X171450000Y-128199000D02*
X173990000Y-128199000D01*
X173990000Y-128199000D02*
X176530000Y-128199000D01*
X175006000Y-134295000D02*
X175006000Y-128199000D01*
X175514000Y-134295000D02*
X175006000Y-134295000D01*
X175514000Y-128199000D02*
X175514000Y-134295000D01*
X173990000Y-125659000D02*
X173990000Y-128199000D01*
X176530000Y-125659000D02*
X173990000Y-125659000D01*
X176530000Y-125659000D02*
X176530000Y-128199000D01*
X110606000Y-114393000D02*
X110806000Y-114393000D01*
X113200000Y-114393000D02*
X113020000Y-114393000D01*
X112889643Y-117620744D02*
G75*
G03X113206000Y-114393000I-1003643J1727744D01*
G01*
X113019068Y-116945006D02*
G75*
G03X113020000Y-114842000I-1133068J1052006D01*
G01*
X110579274Y-114405780D02*
G75*
G03X110926000Y-117643000I1306726J-1497220D01*
G01*
X110806747Y-114879111D02*
G75*
G03X110826000Y-116927000I1079253J-1013889D01*
G01*
X117056000Y-114473000D02*
X117256000Y-114473000D01*
X119650000Y-114473000D02*
X119470000Y-114473000D01*
X119339643Y-117700744D02*
G75*
G03X119656000Y-114473000I-1003643J1727744D01*
G01*
X119469068Y-117025006D02*
G75*
G03X119470000Y-114922000I-1133068J1052006D01*
G01*
X117029274Y-114485780D02*
G75*
G03X117376000Y-117723000I1306726J-1497220D01*
G01*
X117256747Y-114959111D02*
G75*
G03X117276000Y-117007000I1079253J-1013889D01*
G01*
D13*
X142700000Y-68135000D02*
X140930000Y-68135000D01*
X140930000Y-68135000D02*
X140930000Y-86155000D01*
X140930000Y-86155000D02*
X146470000Y-86155000D01*
X146470000Y-86155000D02*
X146470000Y-68135000D01*
X146470000Y-68135000D02*
X144700000Y-68135000D01*
X138500000Y-68135000D02*
X138500000Y-86155000D01*
X138500000Y-86155000D02*
X148900000Y-86155000D01*
X148900000Y-86155000D02*
X148900000Y-68135000D01*
X148900000Y-68135000D02*
X138500000Y-68135000D01*
X144700000Y-68135000D02*
G75*
G02X142700000Y-68135000I-1000000J0D01*
G01*
X112040000Y-70520000D02*
X110270000Y-70520000D01*
X110270000Y-70520000D02*
X110270000Y-91080000D01*
X110270000Y-91080000D02*
X115810000Y-91080000D01*
X115810000Y-91080000D02*
X115810000Y-70520000D01*
X115810000Y-70520000D02*
X114040000Y-70520000D01*
X107840000Y-70520000D02*
X107840000Y-91080000D01*
X107840000Y-91080000D02*
X118240000Y-91080000D01*
X118240000Y-91080000D02*
X118240000Y-70520000D01*
X118240000Y-70520000D02*
X107840000Y-70520000D01*
X114040000Y-70520000D02*
G75*
G02X112040000Y-70520000I-1000000J0D01*
G01*
X127968000Y-68198500D02*
X126198000Y-68198500D01*
X126198000Y-68198500D02*
X126198000Y-86218500D01*
X126198000Y-86218500D02*
X131738000Y-86218500D01*
X131738000Y-86218500D02*
X131738000Y-68198500D01*
X131738000Y-68198500D02*
X129968000Y-68198500D01*
X123768000Y-68198500D02*
X123768000Y-86218500D01*
X123768000Y-86218500D02*
X134168000Y-86218500D01*
X134168000Y-86218500D02*
X134168000Y-68198500D01*
X134168000Y-68198500D02*
X123768000Y-68198500D01*
X129968000Y-68198500D02*
G75*
G02X127968000Y-68198500I-1000000J0D01*
G01*
X127714000Y-91947500D02*
X125944000Y-91947500D01*
X125944000Y-91947500D02*
X125944000Y-109967500D01*
X125944000Y-109967500D02*
X131484000Y-109967500D01*
X131484000Y-109967500D02*
X131484000Y-91947500D01*
X131484000Y-91947500D02*
X129714000Y-91947500D01*
X123514000Y-91947500D02*
X123514000Y-109967500D01*
X123514000Y-109967500D02*
X133914000Y-109967500D01*
X133914000Y-109967500D02*
X133914000Y-91947500D01*
X133914000Y-91947500D02*
X123514000Y-91947500D01*
X129714000Y-91947500D02*
G75*
G02X127714000Y-91947500I-1000000J0D01*
G01*
X164100000Y-69405000D02*
X158520000Y-69405000D01*
X158520000Y-69405000D02*
X158520000Y-110285000D01*
X158520000Y-110285000D02*
X171680000Y-110285000D01*
X171680000Y-110285000D02*
X171680000Y-69405000D01*
X171680000Y-69405000D02*
X166100000Y-69405000D01*
X156090000Y-69405000D02*
X156090000Y-110285000D01*
X156090000Y-110285000D02*
X174110000Y-110285000D01*
X174110000Y-110285000D02*
X174110000Y-69405000D01*
X174110000Y-69405000D02*
X156090000Y-69405000D01*
X166100000Y-69405000D02*
G75*
G02X164100000Y-69405000I-1000000J0D01*
G01*
X148730000Y-67300000D02*
X144610000Y-67300000D01*
X148730000Y-64680000D02*
X144610000Y-64680000D01*
X148730000Y-67300000D02*
X148730000Y-66740000D01*
X148730000Y-65240000D02*
X148730000Y-64680000D01*
X144610000Y-67300000D02*
X144610000Y-66740000D01*
X144610000Y-65240000D02*
X144610000Y-64680000D01*
X148638000Y-91091500D02*
X144518000Y-91091500D01*
X148638000Y-88471500D02*
X144518000Y-88471500D01*
X148638000Y-91091500D02*
X148638000Y-90531500D01*
X148638000Y-89031500D02*
X148638000Y-88471500D01*
X144518000Y-91091500D02*
X144518000Y-90531500D01*
X144518000Y-89031500D02*
X144518000Y-88471500D01*
X118200000Y-69810000D02*
X114080000Y-69810000D01*
X118200000Y-67190000D02*
X114080000Y-67190000D01*
X118200000Y-69810000D02*
X118200000Y-69250000D01*
X118200000Y-67750000D02*
X118200000Y-67190000D01*
X114080000Y-69810000D02*
X114080000Y-69250000D01*
X114080000Y-67750000D02*
X114080000Y-67190000D01*
X133906000Y-67088500D02*
X129786000Y-67088500D01*
X133906000Y-64468500D02*
X129786000Y-64468500D01*
X133906000Y-67088500D02*
X133906000Y-66528500D01*
X133906000Y-65028500D02*
X133906000Y-64468500D01*
X129786000Y-67088500D02*
X129786000Y-66528500D01*
X129786000Y-65028500D02*
X129786000Y-64468500D01*
X133842000Y-91218500D02*
X129722000Y-91218500D01*
X133842000Y-88598500D02*
X129722000Y-88598500D01*
X133842000Y-91218500D02*
X133842000Y-90658500D01*
X133842000Y-89158500D02*
X133842000Y-88598500D01*
X129722000Y-91218500D02*
X129722000Y-90658500D01*
X129722000Y-89158500D02*
X129722000Y-88598500D01*
X173530000Y-68930000D02*
X169410000Y-68930000D01*
X173530000Y-66310000D02*
X169410000Y-66310000D01*
X173530000Y-68930000D02*
X173530000Y-68370000D01*
X173530000Y-66870000D02*
X173530000Y-66310000D01*
X169410000Y-68930000D02*
X169410000Y-68370000D01*
X169410000Y-66870000D02*
X169410000Y-66310000D01*
X196350000Y-74010000D02*
X192230000Y-74010000D01*
X196350000Y-71390000D02*
X192230000Y-71390000D01*
X196350000Y-74010000D02*
X196350000Y-73450000D01*
X196350000Y-71950000D02*
X196350000Y-71390000D01*
X192230000Y-74010000D02*
X192230000Y-73450000D01*
X192230000Y-71950000D02*
X192230000Y-71390000D01*
X189290000Y-122865000D02*
G75*
G03X189290000Y-122865000I-2620000J0D01*
G01*
X186670000Y-120285000D02*
X186670000Y-125445000D01*
X186710000Y-120285000D02*
X186710000Y-125445000D01*
X186750000Y-120286000D02*
X186750000Y-125444000D01*
X186790000Y-120287000D02*
X186790000Y-125443000D01*
X186830000Y-120289000D02*
X186830000Y-125441000D01*
X186870000Y-120292000D02*
X186870000Y-125438000D01*
X186910000Y-120296000D02*
X186910000Y-121825000D01*
X186910000Y-123905000D02*
X186910000Y-125434000D01*
X186950000Y-120300000D02*
X186950000Y-121825000D01*
X186950000Y-123905000D02*
X186950000Y-125430000D01*
X186990000Y-120304000D02*
X186990000Y-121825000D01*
X186990000Y-123905000D02*
X186990000Y-125426000D01*
X187030000Y-120309000D02*
X187030000Y-121825000D01*
X187030000Y-123905000D02*
X187030000Y-125421000D01*
X187070000Y-120315000D02*
X187070000Y-121825000D01*
X187070000Y-123905000D02*
X187070000Y-125415000D01*
X187110000Y-120322000D02*
X187110000Y-121825000D01*
X187110000Y-123905000D02*
X187110000Y-125408000D01*
X187150000Y-120329000D02*
X187150000Y-121825000D01*
X187150000Y-123905000D02*
X187150000Y-125401000D01*
X187190000Y-120337000D02*
X187190000Y-121825000D01*
X187190000Y-123905000D02*
X187190000Y-125393000D01*
X187230000Y-120345000D02*
X187230000Y-121825000D01*
X187230000Y-123905000D02*
X187230000Y-125385000D01*
X187270000Y-120354000D02*
X187270000Y-121825000D01*
X187270000Y-123905000D02*
X187270000Y-125376000D01*
X187310000Y-120364000D02*
X187310000Y-121825000D01*
X187310000Y-123905000D02*
X187310000Y-125366000D01*
X187350000Y-120374000D02*
X187350000Y-121825000D01*
X187350000Y-123905000D02*
X187350000Y-125356000D01*
X187391000Y-120385000D02*
X187391000Y-121825000D01*
X187391000Y-123905000D02*
X187391000Y-125345000D01*
X187431000Y-120397000D02*
X187431000Y-121825000D01*
X187431000Y-123905000D02*
X187431000Y-125333000D01*
X187471000Y-120410000D02*
X187471000Y-121825000D01*
X187471000Y-123905000D02*
X187471000Y-125320000D01*
X187511000Y-120423000D02*
X187511000Y-121825000D01*
X187511000Y-123905000D02*
X187511000Y-125307000D01*
X187551000Y-120437000D02*
X187551000Y-121825000D01*
X187551000Y-123905000D02*
X187551000Y-125293000D01*
X187591000Y-120451000D02*
X187591000Y-121825000D01*
X187591000Y-123905000D02*
X187591000Y-125279000D01*
X187631000Y-120467000D02*
X187631000Y-121825000D01*
X187631000Y-123905000D02*
X187631000Y-125263000D01*
X187671000Y-120483000D02*
X187671000Y-121825000D01*
X187671000Y-123905000D02*
X187671000Y-125247000D01*
X187711000Y-120500000D02*
X187711000Y-121825000D01*
X187711000Y-123905000D02*
X187711000Y-125230000D01*
X187751000Y-120517000D02*
X187751000Y-121825000D01*
X187751000Y-123905000D02*
X187751000Y-125213000D01*
X187791000Y-120536000D02*
X187791000Y-121825000D01*
X187791000Y-123905000D02*
X187791000Y-125194000D01*
X187831000Y-120555000D02*
X187831000Y-121825000D01*
X187831000Y-123905000D02*
X187831000Y-125175000D01*
X187871000Y-120575000D02*
X187871000Y-121825000D01*
X187871000Y-123905000D02*
X187871000Y-125155000D01*
X187911000Y-120597000D02*
X187911000Y-121825000D01*
X187911000Y-123905000D02*
X187911000Y-125133000D01*
X187951000Y-120618000D02*
X187951000Y-121825000D01*
X187951000Y-123905000D02*
X187951000Y-125112000D01*
X187991000Y-120641000D02*
X187991000Y-121825000D01*
X187991000Y-123905000D02*
X187991000Y-125089000D01*
X188031000Y-120665000D02*
X188031000Y-121825000D01*
X188031000Y-123905000D02*
X188031000Y-125065000D01*
X188071000Y-120690000D02*
X188071000Y-121825000D01*
X188071000Y-123905000D02*
X188071000Y-125040000D01*
X188111000Y-120716000D02*
X188111000Y-121825000D01*
X188111000Y-123905000D02*
X188111000Y-125014000D01*
X188151000Y-120743000D02*
X188151000Y-121825000D01*
X188151000Y-123905000D02*
X188151000Y-124987000D01*
X188191000Y-120770000D02*
X188191000Y-121825000D01*
X188191000Y-123905000D02*
X188191000Y-124960000D01*
X188231000Y-120800000D02*
X188231000Y-121825000D01*
X188231000Y-123905000D02*
X188231000Y-124930000D01*
X188271000Y-120830000D02*
X188271000Y-121825000D01*
X188271000Y-123905000D02*
X188271000Y-124900000D01*
X188311000Y-120861000D02*
X188311000Y-121825000D01*
X188311000Y-123905000D02*
X188311000Y-124869000D01*
X188351000Y-120894000D02*
X188351000Y-121825000D01*
X188351000Y-123905000D02*
X188351000Y-124836000D01*
X188391000Y-120928000D02*
X188391000Y-121825000D01*
X188391000Y-123905000D02*
X188391000Y-124802000D01*
X188431000Y-120964000D02*
X188431000Y-121825000D01*
X188431000Y-123905000D02*
X188431000Y-124766000D01*
X188471000Y-121001000D02*
X188471000Y-121825000D01*
X188471000Y-123905000D02*
X188471000Y-124729000D01*
X188511000Y-121039000D02*
X188511000Y-121825000D01*
X188511000Y-123905000D02*
X188511000Y-124691000D01*
X188551000Y-121080000D02*
X188551000Y-121825000D01*
X188551000Y-123905000D02*
X188551000Y-124650000D01*
X188591000Y-121122000D02*
X188591000Y-121825000D01*
X188591000Y-123905000D02*
X188591000Y-124608000D01*
X188631000Y-121166000D02*
X188631000Y-121825000D01*
X188631000Y-123905000D02*
X188631000Y-124564000D01*
X188671000Y-121212000D02*
X188671000Y-121825000D01*
X188671000Y-123905000D02*
X188671000Y-124518000D01*
X188711000Y-121260000D02*
X188711000Y-121825000D01*
X188711000Y-123905000D02*
X188711000Y-124470000D01*
X188751000Y-121311000D02*
X188751000Y-121825000D01*
X188751000Y-123905000D02*
X188751000Y-124419000D01*
X188791000Y-121365000D02*
X188791000Y-121825000D01*
X188791000Y-123905000D02*
X188791000Y-124365000D01*
X188831000Y-121422000D02*
X188831000Y-121825000D01*
X188831000Y-123905000D02*
X188831000Y-124308000D01*
X188871000Y-121482000D02*
X188871000Y-121825000D01*
X188871000Y-123905000D02*
X188871000Y-124248000D01*
X188911000Y-121546000D02*
X188911000Y-121825000D01*
X188911000Y-123905000D02*
X188911000Y-124184000D01*
X188951000Y-121614000D02*
X188951000Y-121825000D01*
X188951000Y-123905000D02*
X188951000Y-124116000D01*
X188991000Y-121687000D02*
X188991000Y-124043000D01*
X189031000Y-121767000D02*
X189031000Y-123963000D01*
X189071000Y-121854000D02*
X189071000Y-123876000D01*
X189111000Y-121950000D02*
X189111000Y-123780000D01*
X189151000Y-122060000D02*
X189151000Y-123670000D01*
X189191000Y-122188000D02*
X189191000Y-123542000D01*
X189231000Y-122347000D02*
X189231000Y-123383000D01*
X189271000Y-122581000D02*
X189271000Y-123149000D01*
X183865225Y-121390000D02*
X184365225Y-121390000D01*
X184115225Y-121140000D02*
X184115225Y-121640000D01*
D11*
X177622380Y-66833333D02*
X178336666Y-66833333D01*
X178479523Y-66880952D01*
X178574761Y-66976190D01*
X178622380Y-67119047D01*
X178622380Y-67214285D01*
X178622380Y-66357142D02*
X177622380Y-66357142D01*
X177622380Y-65976190D01*
X177670000Y-65880952D01*
X177717619Y-65833333D01*
X177812857Y-65785714D01*
X177955714Y-65785714D01*
X178050952Y-65833333D01*
X178098571Y-65880952D01*
X178146190Y-65976190D01*
X178146190Y-66357142D01*
X177955714Y-64928571D02*
X178622380Y-64928571D01*
X177574761Y-65166666D02*
X178289047Y-65404761D01*
X178289047Y-64785714D01*
X177622380Y-63333333D02*
X178336666Y-63333333D01*
X178479523Y-63380952D01*
X178574761Y-63476190D01*
X178622380Y-63619047D01*
X178622380Y-63714285D01*
X178622380Y-62857142D02*
X177622380Y-62857142D01*
X177622380Y-62476190D01*
X177670000Y-62380952D01*
X177717619Y-62333333D01*
X177812857Y-62285714D01*
X177955714Y-62285714D01*
X178050952Y-62333333D01*
X178098571Y-62380952D01*
X178146190Y-62476190D01*
X178146190Y-62857142D01*
X177622380Y-61952380D02*
X177622380Y-61333333D01*
X178003333Y-61666666D01*
X178003333Y-61523809D01*
X178050952Y-61428571D01*
X178098571Y-61380952D01*
X178193809Y-61333333D01*
X178431904Y-61333333D01*
X178527142Y-61380952D01*
X178574761Y-61428571D01*
X178622380Y-61523809D01*
X178622380Y-61809523D01*
X178574761Y-61904761D01*
X178527142Y-61952380D01*
X156122380Y-62833333D02*
X156836666Y-62833333D01*
X156979523Y-62880952D01*
X157074761Y-62976190D01*
X157122380Y-63119047D01*
X157122380Y-63214285D01*
X156122380Y-62452380D02*
X156122380Y-61833333D01*
X156503333Y-62166666D01*
X156503333Y-62023809D01*
X156550952Y-61928571D01*
X156598571Y-61880952D01*
X156693809Y-61833333D01*
X156931904Y-61833333D01*
X157027142Y-61880952D01*
X157074761Y-61928571D01*
X157122380Y-62023809D01*
X157122380Y-62309523D01*
X157074761Y-62404761D01*
X157027142Y-62452380D01*
X104566666Y-78622380D02*
X104566666Y-79336666D01*
X104519047Y-79479523D01*
X104423809Y-79574761D01*
X104280952Y-79622380D01*
X104185714Y-79622380D01*
X105042857Y-79622380D02*
X105042857Y-78622380D01*
X105423809Y-78622380D01*
X105519047Y-78670000D01*
X105566666Y-78717619D01*
X105614285Y-78812857D01*
X105614285Y-78955714D01*
X105566666Y-79050952D01*
X105519047Y-79098571D01*
X105423809Y-79146190D01*
X105042857Y-79146190D01*
X105995238Y-78717619D02*
X106042857Y-78670000D01*
X106138095Y-78622380D01*
X106376190Y-78622380D01*
X106471428Y-78670000D01*
X106519047Y-78717619D01*
X106566666Y-78812857D01*
X106566666Y-78908095D01*
X106519047Y-79050952D01*
X105947619Y-79622380D01*
X106566666Y-79622380D01*
X129833333Y-119677142D02*
X129785714Y-119724761D01*
X129642857Y-119772380D01*
X129547619Y-119772380D01*
X129404761Y-119724761D01*
X129309523Y-119629523D01*
X129261904Y-119534285D01*
X129214285Y-119343809D01*
X129214285Y-119200952D01*
X129261904Y-119010476D01*
X129309523Y-118915238D01*
X129404761Y-118820000D01*
X129547619Y-118772380D01*
X129642857Y-118772380D01*
X129785714Y-118820000D01*
X129833333Y-118867619D01*
X130309523Y-119772380D02*
X130500000Y-119772380D01*
X130595238Y-119724761D01*
X130642857Y-119677142D01*
X130738095Y-119534285D01*
X130785714Y-119343809D01*
X130785714Y-118962857D01*
X130738095Y-118867619D01*
X130690476Y-118820000D01*
X130595238Y-118772380D01*
X130404761Y-118772380D01*
X130309523Y-118820000D01*
X130261904Y-118867619D01*
X130214285Y-118962857D01*
X130214285Y-119200952D01*
X130261904Y-119296190D01*
X130309523Y-119343809D01*
X130404761Y-119391428D01*
X130595238Y-119391428D01*
X130690476Y-119343809D01*
X130738095Y-119296190D01*
X130785714Y-119200952D01*
X117907380Y-105313333D02*
X118621666Y-105313333D01*
X118764523Y-105360952D01*
X118859761Y-105456190D01*
X118907380Y-105599047D01*
X118907380Y-105694285D01*
X118907380Y-104837142D02*
X117907380Y-104837142D01*
X117907380Y-104456190D01*
X117955000Y-104360952D01*
X118002619Y-104313333D01*
X118097857Y-104265714D01*
X118240714Y-104265714D01*
X118335952Y-104313333D01*
X118383571Y-104360952D01*
X118431190Y-104456190D01*
X118431190Y-104837142D01*
X118907380Y-103313333D02*
X118907380Y-103884761D01*
X118907380Y-103599047D02*
X117907380Y-103599047D01*
X118050238Y-103694285D01*
X118145476Y-103789523D01*
X118193095Y-103884761D01*
X135404761Y-113047619D02*
X135309523Y-113000000D01*
X135214285Y-112904761D01*
X135071428Y-112761904D01*
X134976190Y-112714285D01*
X134880952Y-112714285D01*
X134928571Y-112952380D02*
X134833333Y-112904761D01*
X134738095Y-112809523D01*
X134690476Y-112619047D01*
X134690476Y-112285714D01*
X134738095Y-112095238D01*
X134833333Y-112000000D01*
X134928571Y-111952380D01*
X135119047Y-111952380D01*
X135214285Y-112000000D01*
X135309523Y-112095238D01*
X135357142Y-112285714D01*
X135357142Y-112619047D01*
X135309523Y-112809523D01*
X135214285Y-112904761D01*
X135119047Y-112952380D01*
X134928571Y-112952380D01*
X136309523Y-112952380D02*
X135738095Y-112952380D01*
X136023809Y-112952380D02*
X136023809Y-111952380D01*
X135928571Y-112095238D01*
X135833333Y-112190476D01*
X135738095Y-112238095D01*
X114833333Y-122428380D02*
X114500000Y-121952190D01*
X114261904Y-122428380D02*
X114261904Y-121428380D01*
X114642857Y-121428380D01*
X114738095Y-121476000D01*
X114785714Y-121523619D01*
X114833333Y-121618857D01*
X114833333Y-121761714D01*
X114785714Y-121856952D01*
X114738095Y-121904571D01*
X114642857Y-121952190D01*
X114261904Y-121952190D01*
X115785714Y-122428380D02*
X115214285Y-122428380D01*
X115500000Y-122428380D02*
X115500000Y-121428380D01*
X115404761Y-121571238D01*
X115309523Y-121666476D01*
X115214285Y-121714095D01*
X114833333Y-125452380D02*
X114500000Y-124976190D01*
X114261904Y-125452380D02*
X114261904Y-124452380D01*
X114642857Y-124452380D01*
X114738095Y-124500000D01*
X114785714Y-124547619D01*
X114833333Y-124642857D01*
X114833333Y-124785714D01*
X114785714Y-124880952D01*
X114738095Y-124928571D01*
X114642857Y-124976190D01*
X114261904Y-124976190D01*
X115214285Y-124547619D02*
X115261904Y-124500000D01*
X115357142Y-124452380D01*
X115595238Y-124452380D01*
X115690476Y-124500000D01*
X115738095Y-124547619D01*
X115785714Y-124642857D01*
X115785714Y-124738095D01*
X115738095Y-124880952D01*
X115166666Y-125452380D01*
X115785714Y-125452380D01*
X146833333Y-116952380D02*
X146500000Y-116476190D01*
X146261904Y-116952380D02*
X146261904Y-115952380D01*
X146642857Y-115952380D01*
X146738095Y-116000000D01*
X146785714Y-116047619D01*
X146833333Y-116142857D01*
X146833333Y-116285714D01*
X146785714Y-116380952D01*
X146738095Y-116428571D01*
X146642857Y-116476190D01*
X146261904Y-116476190D01*
X147690476Y-116285714D02*
X147690476Y-116952380D01*
X147452380Y-115904761D02*
X147214285Y-116619047D01*
X147833333Y-116619047D01*
X160630573Y-116952380D02*
X160297240Y-116476190D01*
X160059144Y-116952380D02*
X160059144Y-115952380D01*
X160440097Y-115952380D01*
X160535335Y-116000000D01*
X160582954Y-116047619D01*
X160630573Y-116142857D01*
X160630573Y-116285714D01*
X160582954Y-116380952D01*
X160535335Y-116428571D01*
X160440097Y-116476190D01*
X160059144Y-116476190D01*
X161535335Y-115952380D02*
X161059144Y-115952380D01*
X161011525Y-116428571D01*
X161059144Y-116380952D01*
X161154382Y-116333333D01*
X161392478Y-116333333D01*
X161487716Y-116380952D01*
X161535335Y-116428571D01*
X161582954Y-116523809D01*
X161582954Y-116761904D01*
X161535335Y-116857142D01*
X161487716Y-116904761D01*
X161392478Y-116952380D01*
X161154382Y-116952380D01*
X161059144Y-116904761D01*
X161011525Y-116857142D01*
X118686380Y-97798333D02*
X119400666Y-97798333D01*
X119543523Y-97845952D01*
X119638761Y-97941190D01*
X119686380Y-98084047D01*
X119686380Y-98179285D01*
X118781619Y-97369761D02*
X118734000Y-97322142D01*
X118686380Y-97226904D01*
X118686380Y-96988809D01*
X118734000Y-96893571D01*
X118781619Y-96845952D01*
X118876857Y-96798333D01*
X118972095Y-96798333D01*
X119114952Y-96845952D01*
X119686380Y-97417380D01*
X119686380Y-96798333D01*
X123402380Y-117000095D02*
X122402380Y-117000095D01*
X122402380Y-116762000D01*
X122450000Y-116619142D01*
X122545238Y-116523904D01*
X122640476Y-116476285D01*
X122830952Y-116428666D01*
X122973809Y-116428666D01*
X123164285Y-116476285D01*
X123259523Y-116523904D01*
X123354761Y-116619142D01*
X123402380Y-116762000D01*
X123402380Y-117000095D01*
X122402380Y-116095333D02*
X122402380Y-115476285D01*
X122783333Y-115809619D01*
X122783333Y-115666761D01*
X122830952Y-115571523D01*
X122878571Y-115523904D01*
X122973809Y-115476285D01*
X123211904Y-115476285D01*
X123307142Y-115523904D01*
X123354761Y-115571523D01*
X123402380Y-115666761D01*
X123402380Y-115952476D01*
X123354761Y-116047714D01*
X123307142Y-116095333D01*
X138832095Y-90432880D02*
X138832095Y-91242404D01*
X138879714Y-91337642D01*
X138927333Y-91385261D01*
X139022571Y-91432880D01*
X139213047Y-91432880D01*
X139308285Y-91385261D01*
X139355904Y-91337642D01*
X139403523Y-91242404D01*
X139403523Y-90432880D01*
X139832095Y-90528119D02*
X139879714Y-90480500D01*
X139974952Y-90432880D01*
X140213047Y-90432880D01*
X140308285Y-90480500D01*
X140355904Y-90528119D01*
X140403523Y-90623357D01*
X140403523Y-90718595D01*
X140355904Y-90861452D01*
X139784476Y-91432880D01*
X140403523Y-91432880D01*
X114333333Y-110363380D02*
X114000000Y-109887190D01*
X113761904Y-110363380D02*
X113761904Y-109363380D01*
X114142857Y-109363380D01*
X114238095Y-109411000D01*
X114285714Y-109458619D01*
X114333333Y-109553857D01*
X114333333Y-109696714D01*
X114285714Y-109791952D01*
X114238095Y-109839571D01*
X114142857Y-109887190D01*
X113761904Y-109887190D01*
X114666666Y-109363380D02*
X115285714Y-109363380D01*
X114952380Y-109744333D01*
X115095238Y-109744333D01*
X115190476Y-109791952D01*
X115238095Y-109839571D01*
X115285714Y-109934809D01*
X115285714Y-110172904D01*
X115238095Y-110268142D01*
X115190476Y-110315761D01*
X115095238Y-110363380D01*
X114809523Y-110363380D01*
X114714285Y-110315761D01*
X114666666Y-110268142D01*
X179070095Y-72660380D02*
X179070095Y-73469904D01*
X179117714Y-73565142D01*
X179165333Y-73612761D01*
X179260571Y-73660380D01*
X179451047Y-73660380D01*
X179546285Y-73612761D01*
X179593904Y-73565142D01*
X179641523Y-73469904D01*
X179641523Y-72660380D01*
X180022476Y-72660380D02*
X180689142Y-72660380D01*
X180260571Y-73660380D01*
X177252380Y-121293333D02*
X177966666Y-121293333D01*
X178109523Y-121340952D01*
X178204761Y-121436190D01*
X178252380Y-121579047D01*
X178252380Y-121674285D01*
X178252380Y-120293333D02*
X178252380Y-120864761D01*
X178252380Y-120579047D02*
X177252380Y-120579047D01*
X177395238Y-120674285D01*
X177490476Y-120769523D01*
X177538095Y-120864761D01*
X109312380Y-117240095D02*
X108312380Y-117240095D01*
X108312380Y-117002000D01*
X108360000Y-116859142D01*
X108455238Y-116763904D01*
X108550476Y-116716285D01*
X108740952Y-116668666D01*
X108883809Y-116668666D01*
X109074285Y-116716285D01*
X109169523Y-116763904D01*
X109264761Y-116859142D01*
X109312380Y-117002000D01*
X109312380Y-117240095D01*
X109312380Y-115716285D02*
X109312380Y-116287714D01*
X109312380Y-116002000D02*
X108312380Y-116002000D01*
X108455238Y-116097238D01*
X108550476Y-116192476D01*
X108598095Y-116287714D01*
X109832380Y-114218904D02*
X108832380Y-114218904D01*
X109832380Y-113647476D02*
X109260952Y-114076047D01*
X108832380Y-113647476D02*
X109403809Y-114218904D01*
X115762380Y-117320095D02*
X114762380Y-117320095D01*
X114762380Y-117082000D01*
X114810000Y-116939142D01*
X114905238Y-116843904D01*
X115000476Y-116796285D01*
X115190952Y-116748666D01*
X115333809Y-116748666D01*
X115524285Y-116796285D01*
X115619523Y-116843904D01*
X115714761Y-116939142D01*
X115762380Y-117082000D01*
X115762380Y-117320095D01*
X114857619Y-116367714D02*
X114810000Y-116320095D01*
X114762380Y-116224857D01*
X114762380Y-115986761D01*
X114810000Y-115891523D01*
X114857619Y-115843904D01*
X114952857Y-115796285D01*
X115048095Y-115796285D01*
X115190952Y-115843904D01*
X115762380Y-116415333D01*
X115762380Y-115796285D01*
X116192380Y-114173904D02*
X115192380Y-114173904D01*
X116192380Y-113602476D02*
X115620952Y-114031047D01*
X115192380Y-113602476D02*
X115763809Y-114173904D01*
X139128095Y-66437380D02*
X139128095Y-67246904D01*
X139175714Y-67342142D01*
X139223333Y-67389761D01*
X139318571Y-67437380D01*
X139509047Y-67437380D01*
X139604285Y-67389761D01*
X139651904Y-67342142D01*
X139699523Y-67246904D01*
X139699523Y-66437380D01*
X140699523Y-67437380D02*
X140128095Y-67437380D01*
X140413809Y-67437380D02*
X140413809Y-66437380D01*
X140318571Y-66580238D01*
X140223333Y-66675476D01*
X140128095Y-66723095D01*
X107706095Y-68949380D02*
X107706095Y-69758904D01*
X107753714Y-69854142D01*
X107801333Y-69901761D01*
X107896571Y-69949380D01*
X108087047Y-69949380D01*
X108182285Y-69901761D01*
X108229904Y-69854142D01*
X108277523Y-69758904D01*
X108277523Y-68949380D01*
X108658476Y-68949380D02*
X109277523Y-68949380D01*
X108944190Y-69330333D01*
X109087047Y-69330333D01*
X109182285Y-69377952D01*
X109229904Y-69425571D01*
X109277523Y-69520809D01*
X109277523Y-69758904D01*
X109229904Y-69854142D01*
X109182285Y-69901761D01*
X109087047Y-69949380D01*
X108801333Y-69949380D01*
X108706095Y-69901761D01*
X108658476Y-69854142D01*
X123634095Y-66754880D02*
X123634095Y-67564404D01*
X123681714Y-67659642D01*
X123729333Y-67707261D01*
X123824571Y-67754880D01*
X124015047Y-67754880D01*
X124110285Y-67707261D01*
X124157904Y-67659642D01*
X124205523Y-67564404D01*
X124205523Y-66754880D01*
X125110285Y-67088214D02*
X125110285Y-67754880D01*
X124872190Y-66707261D02*
X124634095Y-67421547D01*
X125253142Y-67421547D01*
X124142095Y-90249880D02*
X124142095Y-91059404D01*
X124189714Y-91154642D01*
X124237333Y-91202261D01*
X124332571Y-91249880D01*
X124523047Y-91249880D01*
X124618285Y-91202261D01*
X124665904Y-91154642D01*
X124713523Y-91059404D01*
X124713523Y-90249880D01*
X125665904Y-90249880D02*
X125189714Y-90249880D01*
X125142095Y-90726071D01*
X125189714Y-90678452D01*
X125284952Y-90630833D01*
X125523047Y-90630833D01*
X125618285Y-90678452D01*
X125665904Y-90726071D01*
X125713523Y-90821309D01*
X125713523Y-91059404D01*
X125665904Y-91154642D01*
X125618285Y-91202261D01*
X125523047Y-91249880D01*
X125284952Y-91249880D01*
X125189714Y-91202261D01*
X125142095Y-91154642D01*
X155956095Y-67834380D02*
X155956095Y-68643904D01*
X156003714Y-68739142D01*
X156051333Y-68786761D01*
X156146571Y-68834380D01*
X156337047Y-68834380D01*
X156432285Y-68786761D01*
X156479904Y-68739142D01*
X156527523Y-68643904D01*
X156527523Y-67834380D01*
X157432285Y-67834380D02*
X157241809Y-67834380D01*
X157146571Y-67882000D01*
X157098952Y-67929619D01*
X157003714Y-68072476D01*
X156956095Y-68262952D01*
X156956095Y-68643904D01*
X157003714Y-68739142D01*
X157051333Y-68786761D01*
X157146571Y-68834380D01*
X157337047Y-68834380D01*
X157432285Y-68786761D01*
X157479904Y-68739142D01*
X157527523Y-68643904D01*
X157527523Y-68405809D01*
X157479904Y-68310571D01*
X157432285Y-68262952D01*
X157337047Y-68215333D01*
X157146571Y-68215333D01*
X157051333Y-68262952D01*
X157003714Y-68310571D01*
X156956095Y-68405809D01*
X147724833Y-63849642D02*
X147677214Y-63897261D01*
X147534357Y-63944880D01*
X147439119Y-63944880D01*
X147296261Y-63897261D01*
X147201023Y-63802023D01*
X147153404Y-63706785D01*
X147105785Y-63516309D01*
X147105785Y-63373452D01*
X147153404Y-63182976D01*
X147201023Y-63087738D01*
X147296261Y-62992500D01*
X147439119Y-62944880D01*
X147534357Y-62944880D01*
X147677214Y-62992500D01*
X147724833Y-63040119D01*
X148677214Y-63944880D02*
X148105785Y-63944880D01*
X148391500Y-63944880D02*
X148391500Y-62944880D01*
X148296261Y-63087738D01*
X148201023Y-63182976D01*
X148105785Y-63230595D01*
X147597833Y-87979642D02*
X147550214Y-88027261D01*
X147407357Y-88074880D01*
X147312119Y-88074880D01*
X147169261Y-88027261D01*
X147074023Y-87932023D01*
X147026404Y-87836785D01*
X146978785Y-87646309D01*
X146978785Y-87503452D01*
X147026404Y-87312976D01*
X147074023Y-87217738D01*
X147169261Y-87122500D01*
X147312119Y-87074880D01*
X147407357Y-87074880D01*
X147550214Y-87122500D01*
X147597833Y-87170119D01*
X147978785Y-87170119D02*
X148026404Y-87122500D01*
X148121642Y-87074880D01*
X148359738Y-87074880D01*
X148454976Y-87122500D01*
X148502595Y-87170119D01*
X148550214Y-87265357D01*
X148550214Y-87360595D01*
X148502595Y-87503452D01*
X147931166Y-88074880D01*
X148550214Y-88074880D01*
X117371833Y-66326142D02*
X117324214Y-66373761D01*
X117181357Y-66421380D01*
X117086119Y-66421380D01*
X116943261Y-66373761D01*
X116848023Y-66278523D01*
X116800404Y-66183285D01*
X116752785Y-65992809D01*
X116752785Y-65849952D01*
X116800404Y-65659476D01*
X116848023Y-65564238D01*
X116943261Y-65469000D01*
X117086119Y-65421380D01*
X117181357Y-65421380D01*
X117324214Y-65469000D01*
X117371833Y-65516619D01*
X117705166Y-65421380D02*
X118324214Y-65421380D01*
X117990880Y-65802333D01*
X118133738Y-65802333D01*
X118228976Y-65849952D01*
X118276595Y-65897571D01*
X118324214Y-65992809D01*
X118324214Y-66230904D01*
X118276595Y-66326142D01*
X118228976Y-66373761D01*
X118133738Y-66421380D01*
X117848023Y-66421380D01*
X117752785Y-66373761D01*
X117705166Y-66326142D01*
X133119833Y-63849642D02*
X133072214Y-63897261D01*
X132929357Y-63944880D01*
X132834119Y-63944880D01*
X132691261Y-63897261D01*
X132596023Y-63802023D01*
X132548404Y-63706785D01*
X132500785Y-63516309D01*
X132500785Y-63373452D01*
X132548404Y-63182976D01*
X132596023Y-63087738D01*
X132691261Y-62992500D01*
X132834119Y-62944880D01*
X132929357Y-62944880D01*
X133072214Y-62992500D01*
X133119833Y-63040119D01*
X133976976Y-63278214D02*
X133976976Y-63944880D01*
X133738880Y-62897261D02*
X133500785Y-63611547D01*
X134119833Y-63611547D01*
X132801833Y-88043142D02*
X132754214Y-88090761D01*
X132611357Y-88138380D01*
X132516119Y-88138380D01*
X132373261Y-88090761D01*
X132278023Y-87995523D01*
X132230404Y-87900285D01*
X132182785Y-87709809D01*
X132182785Y-87566952D01*
X132230404Y-87376476D01*
X132278023Y-87281238D01*
X132373261Y-87186000D01*
X132516119Y-87138380D01*
X132611357Y-87138380D01*
X132754214Y-87186000D01*
X132801833Y-87233619D01*
X133706595Y-87138380D02*
X133230404Y-87138380D01*
X133182785Y-87614571D01*
X133230404Y-87566952D01*
X133325642Y-87519333D01*
X133563738Y-87519333D01*
X133658976Y-87566952D01*
X133706595Y-87614571D01*
X133754214Y-87709809D01*
X133754214Y-87947904D01*
X133706595Y-88043142D01*
X133658976Y-88090761D01*
X133563738Y-88138380D01*
X133325642Y-88138380D01*
X133230404Y-88090761D01*
X133182785Y-88043142D01*
X172553333Y-65691142D02*
X172505714Y-65738761D01*
X172362857Y-65786380D01*
X172267619Y-65786380D01*
X172124761Y-65738761D01*
X172029523Y-65643523D01*
X171981904Y-65548285D01*
X171934285Y-65357809D01*
X171934285Y-65214952D01*
X171981904Y-65024476D01*
X172029523Y-64929238D01*
X172124761Y-64834000D01*
X172267619Y-64786380D01*
X172362857Y-64786380D01*
X172505714Y-64834000D01*
X172553333Y-64881619D01*
X173410476Y-64786380D02*
X173220000Y-64786380D01*
X173124761Y-64834000D01*
X173077142Y-64881619D01*
X172981904Y-65024476D01*
X172934285Y-65214952D01*
X172934285Y-65595904D01*
X172981904Y-65691142D01*
X173029523Y-65738761D01*
X173124761Y-65786380D01*
X173315238Y-65786380D01*
X173410476Y-65738761D01*
X173458095Y-65691142D01*
X173505714Y-65595904D01*
X173505714Y-65357809D01*
X173458095Y-65262571D01*
X173410476Y-65214952D01*
X173315238Y-65167333D01*
X173124761Y-65167333D01*
X173029523Y-65214952D01*
X172981904Y-65262571D01*
X172934285Y-65357809D01*
X195159333Y-71025142D02*
X195111714Y-71072761D01*
X194968857Y-71120380D01*
X194873619Y-71120380D01*
X194730761Y-71072761D01*
X194635523Y-70977523D01*
X194587904Y-70882285D01*
X194540285Y-70691809D01*
X194540285Y-70548952D01*
X194587904Y-70358476D01*
X194635523Y-70263238D01*
X194730761Y-70168000D01*
X194873619Y-70120380D01*
X194968857Y-70120380D01*
X195111714Y-70168000D01*
X195159333Y-70215619D01*
X195492666Y-70120380D02*
X196159333Y-70120380D01*
X195730761Y-71120380D01*
X190968333Y-123222142D02*
X190920714Y-123269761D01*
X190777857Y-123317380D01*
X190682619Y-123317380D01*
X190539761Y-123269761D01*
X190444523Y-123174523D01*
X190396904Y-123079285D01*
X190349285Y-122888809D01*
X190349285Y-122745952D01*
X190396904Y-122555476D01*
X190444523Y-122460238D01*
X190539761Y-122365000D01*
X190682619Y-122317380D01*
X190777857Y-122317380D01*
X190920714Y-122365000D01*
X190968333Y-122412619D01*
X191539761Y-122745952D02*
X191444523Y-122698333D01*
X191396904Y-122650714D01*
X191349285Y-122555476D01*
X191349285Y-122507857D01*
X191396904Y-122412619D01*
X191444523Y-122365000D01*
X191539761Y-122317380D01*
X191730238Y-122317380D01*
X191825476Y-122365000D01*
X191873095Y-122412619D01*
X191920714Y-122507857D01*
X191920714Y-122555476D01*
X191873095Y-122650714D01*
X191825476Y-122698333D01*
X191730238Y-122745952D01*
X191539761Y-122745952D01*
X191444523Y-122793571D01*
X191396904Y-122841190D01*
X191349285Y-122936428D01*
X191349285Y-123126904D01*
X191396904Y-123222142D01*
X191444523Y-123269761D01*
X191539761Y-123317380D01*
X191730238Y-123317380D01*
X191825476Y-123269761D01*
X191873095Y-123222142D01*
X191920714Y-123126904D01*
X191920714Y-122936428D01*
X191873095Y-122841190D01*
X191825476Y-122793571D01*
X191730238Y-122745952D01*
%LPC*%
D14*
X185580000Y-66000000D03*
X183040000Y-66000000D03*
D15*
X180500000Y-66000000D03*
D14*
X185580000Y-62500000D03*
X183040000Y-62500000D03*
D15*
X180500000Y-62500000D03*
D14*
X169160000Y-62500000D03*
X166620000Y-62500000D03*
X164080000Y-62500000D03*
X161540000Y-62500000D03*
D15*
X159000000Y-62500000D03*
X105400000Y-81500000D03*
D14*
X105400000Y-84040000D03*
X105400000Y-86580000D03*
D16*
X129921000Y-114610000D03*
X129921000Y-117110000D03*
D15*
X110327000Y-104480000D03*
D14*
X112867000Y-104480000D03*
X115407000Y-104480000D03*
D17*
X135194000Y-116210000D03*
X137734000Y-116210000D03*
D18*
X132654000Y-116210000D03*
D19*
X109728000Y-121976000D03*
D16*
X119888000Y-121976000D03*
X119888000Y-125024000D03*
D19*
X109728000Y-125024000D03*
X151765000Y-116515000D03*
D16*
X141605000Y-116515000D03*
X155575000Y-116515000D03*
D19*
X165735000Y-116515000D03*
D15*
X116904000Y-96195000D03*
D14*
X116904000Y-98735000D03*
X114364000Y-96195000D03*
X114364000Y-98735000D03*
X111824000Y-96195000D03*
X111824000Y-98735000D03*
X109284000Y-96195000D03*
X109284000Y-98735000D03*
D20*
X125870000Y-114532000D03*
D21*
X125870000Y-117072000D03*
D22*
X139764000Y-93210500D03*
D19*
X147384000Y-108450500D03*
X139764000Y-95750500D03*
X147384000Y-105910500D03*
X139764000Y-98290500D03*
X147384000Y-103370500D03*
X139764000Y-100830500D03*
X147384000Y-100830500D03*
X139764000Y-103370500D03*
X147384000Y-98290500D03*
X139764000Y-105910500D03*
X147384000Y-95750500D03*
X139764000Y-108450500D03*
X147384000Y-93210500D03*
D16*
X109220000Y-109784000D03*
D19*
X119380000Y-109784000D03*
D22*
X180340000Y-75875000D03*
D19*
X195580000Y-108895000D03*
X180340000Y-78415000D03*
X195580000Y-106355000D03*
X180340000Y-80955000D03*
X195580000Y-103815000D03*
X180340000Y-83495000D03*
X195580000Y-101275000D03*
X180340000Y-86035000D03*
X195580000Y-98735000D03*
X180340000Y-88575000D03*
X195580000Y-96195000D03*
X180340000Y-91115000D03*
X195580000Y-93655000D03*
X180340000Y-93655000D03*
X195580000Y-91115000D03*
X180340000Y-96195000D03*
X195580000Y-88575000D03*
X180340000Y-98735000D03*
X195580000Y-86035000D03*
X180340000Y-101275000D03*
X195580000Y-83495000D03*
X180340000Y-103815000D03*
X195580000Y-80955000D03*
X180340000Y-106355000D03*
X195580000Y-78415000D03*
X180340000Y-108895000D03*
X195580000Y-75875000D03*
D23*
X175260000Y-121595000D03*
D24*
X175260000Y-124135000D03*
X172720000Y-121595000D03*
X172720000Y-124135000D03*
X170180000Y-121595000D03*
X170180000Y-124135000D03*
X167640000Y-121595000D03*
X167640000Y-124135000D03*
X165100000Y-121595000D03*
X165100000Y-124135000D03*
X162560000Y-121595000D03*
X162560000Y-124135000D03*
X160020000Y-121595000D03*
X160020000Y-124135000D03*
X157480000Y-121595000D03*
X157480000Y-124135000D03*
X154940000Y-121595000D03*
X154940000Y-124135000D03*
X152400000Y-121595000D03*
X152400000Y-124135000D03*
X149860000Y-121595000D03*
X149860000Y-124135000D03*
X147320000Y-121595000D03*
X147320000Y-124135000D03*
X144780000Y-121595000D03*
X144780000Y-124135000D03*
X142240000Y-121595000D03*
X142240000Y-124135000D03*
X139700000Y-121595000D03*
X139700000Y-124135000D03*
X137160000Y-121595000D03*
X137160000Y-124135000D03*
X134620000Y-121595000D03*
X134620000Y-124135000D03*
X132080000Y-121595000D03*
X132080000Y-124135000D03*
X129540000Y-121595000D03*
X129540000Y-124135000D03*
X127000000Y-121595000D03*
X127000000Y-124135000D03*
D25*
X111920000Y-114592000D03*
D26*
X111920000Y-117132000D03*
D25*
X118370000Y-114672000D03*
D26*
X118370000Y-117212000D03*
D22*
X139890000Y-69525000D03*
D19*
X147510000Y-84765000D03*
X139890000Y-72065000D03*
X147510000Y-82225000D03*
X139890000Y-74605000D03*
X147510000Y-79685000D03*
X139890000Y-77145000D03*
X147510000Y-77145000D03*
X139890000Y-79685000D03*
X147510000Y-74605000D03*
X139890000Y-82225000D03*
X147510000Y-72065000D03*
X139890000Y-84765000D03*
X147510000Y-69525000D03*
D22*
X109230000Y-71910000D03*
D19*
X116850000Y-89690000D03*
X109230000Y-74450000D03*
X116850000Y-87150000D03*
X109230000Y-76990000D03*
X116850000Y-84610000D03*
X109230000Y-79530000D03*
X116850000Y-82070000D03*
X109230000Y-82070000D03*
X116850000Y-79530000D03*
X109230000Y-84610000D03*
X116850000Y-76990000D03*
X109230000Y-87150000D03*
X116850000Y-74450000D03*
X109230000Y-89690000D03*
X116850000Y-71910000D03*
D22*
X125158000Y-69588500D03*
D19*
X132778000Y-84828500D03*
X125158000Y-72128500D03*
X132778000Y-82288500D03*
X125158000Y-74668500D03*
X132778000Y-79748500D03*
X125158000Y-77208500D03*
X132778000Y-77208500D03*
X125158000Y-79748500D03*
X132778000Y-74668500D03*
X125158000Y-82288500D03*
X132778000Y-72128500D03*
X125158000Y-84828500D03*
X132778000Y-69588500D03*
D22*
X124904000Y-93337500D03*
D19*
X132524000Y-108577500D03*
X124904000Y-95877500D03*
X132524000Y-106037500D03*
X124904000Y-98417500D03*
X132524000Y-103497500D03*
X124904000Y-100957500D03*
X132524000Y-100957500D03*
X124904000Y-103497500D03*
X132524000Y-98417500D03*
X124904000Y-106037500D03*
X132524000Y-95877500D03*
X124904000Y-108577500D03*
X132524000Y-93337500D03*
D22*
X157480000Y-70795000D03*
D19*
X172720000Y-108895000D03*
X157480000Y-73335000D03*
X172720000Y-106355000D03*
X157480000Y-75875000D03*
X172720000Y-103815000D03*
X157480000Y-78415000D03*
X172720000Y-101275000D03*
X157480000Y-80955000D03*
X172720000Y-98735000D03*
X157480000Y-83495000D03*
X172720000Y-96195000D03*
X157480000Y-86035000D03*
X172720000Y-93655000D03*
X157480000Y-88575000D03*
X172720000Y-91115000D03*
X157480000Y-91115000D03*
X172720000Y-88575000D03*
X157480000Y-93655000D03*
X172720000Y-86035000D03*
X157480000Y-96195000D03*
X172720000Y-83495000D03*
X157480000Y-98735000D03*
X172720000Y-80955000D03*
X157480000Y-101275000D03*
X172720000Y-78415000D03*
X157480000Y-103815000D03*
X172720000Y-75875000D03*
X157480000Y-106355000D03*
X172720000Y-73335000D03*
X157480000Y-108895000D03*
X172720000Y-70795000D03*
D16*
X147920000Y-65990000D03*
X145420000Y-65990000D03*
X147828000Y-89781500D03*
X145328000Y-89781500D03*
X117390000Y-68500000D03*
X114890000Y-68500000D03*
X133096000Y-65778500D03*
X130596000Y-65778500D03*
X133032000Y-89908500D03*
X130532000Y-89908500D03*
X172720000Y-67620000D03*
X170220000Y-67620000D03*
X195540000Y-72700000D03*
X193040000Y-72700000D03*
D22*
X185420000Y-122865000D03*
D16*
X187920000Y-122865000D03*
D27*
X105500000Y-64500000D03*
X194500000Y-64500000D03*
X105510000Y-130490000D03*
X194500000Y-130490000D03*
M02*
