G04 #@! TF.GenerationSoftware,KiCad,Pcbnew,(5.0.0-3-g5ebb6b6)*
G04 #@! TF.CreationDate,2018-11-18T15:17:24+09:00*
G04 #@! TF.ProjectId,Z80-1MSRAM,5A38302D314D5352414D2E6B69636164,rev?*
G04 #@! TF.SameCoordinates,Original*
G04 #@! TF.FileFunction,Legend,Top*
G04 #@! TF.FilePolarity,Positive*
%FSLAX46Y46*%
G04 Gerber Fmt 4.6, Leading zero omitted, Abs format (unit mm)*
G04 Created by KiCad (PCBNEW (5.0.0-3-g5ebb6b6)) date *
%MOMM*%
%LPD*%
G01*
G04 APERTURE LIST*
%ADD10C,0.300000*%
%ADD11C,0.150000*%
%ADD12C,0.120000*%
%ADD13R,2.000000X2.000000*%
%ADD14O,2.000000X2.000000*%
%ADD15R,2.127200X2.127200*%
%ADD16O,2.127200X2.127200*%
%ADD17R,2.400000X2.400000*%
%ADD18C,2.400000*%
%ADD19C,2.000000*%
%ADD20C,3.600000*%
G04 APERTURE END LIST*
D10*
X177571471Y-126624542D02*
X178714328Y-125981685D01*
X178714328Y-127267400D01*
X177571471Y-126624542D01*
D11*
X119116190Y-118037619D02*
X119020952Y-118037619D01*
X118925714Y-117990000D01*
X118878095Y-117942380D01*
X118830476Y-117847142D01*
X118782857Y-117656666D01*
X118782857Y-117418571D01*
X118830476Y-117228095D01*
X118878095Y-117132857D01*
X118925714Y-117085238D01*
X119020952Y-117037619D01*
X119116190Y-117037619D01*
X119211428Y-117085238D01*
X119259047Y-117132857D01*
X119306666Y-117228095D01*
X119354285Y-117418571D01*
X119354285Y-117656666D01*
X119306666Y-117847142D01*
X119259047Y-117942380D01*
X119211428Y-117990000D01*
X119116190Y-118037619D01*
X118401904Y-117942380D02*
X118354285Y-117990000D01*
X118259047Y-118037619D01*
X118020952Y-118037619D01*
X117925714Y-117990000D01*
X117878095Y-117942380D01*
X117830476Y-117847142D01*
X117830476Y-117751904D01*
X117878095Y-117609047D01*
X118449523Y-117037619D01*
X117830476Y-117037619D01*
X117401904Y-117037619D02*
X117401904Y-118037619D01*
X116973333Y-117037619D02*
X116973333Y-117561428D01*
X117020952Y-117656666D01*
X117116190Y-117704285D01*
X117259047Y-117704285D01*
X117354285Y-117656666D01*
X117401904Y-117609047D01*
X112716190Y-117957619D02*
X112620952Y-117957619D01*
X112525714Y-117910000D01*
X112478095Y-117862380D01*
X112430476Y-117767142D01*
X112382857Y-117576666D01*
X112382857Y-117338571D01*
X112430476Y-117148095D01*
X112478095Y-117052857D01*
X112525714Y-117005238D01*
X112620952Y-116957619D01*
X112716190Y-116957619D01*
X112811428Y-117005238D01*
X112859047Y-117052857D01*
X112906666Y-117148095D01*
X112954285Y-117338571D01*
X112954285Y-117576666D01*
X112906666Y-117767142D01*
X112859047Y-117862380D01*
X112811428Y-117910000D01*
X112716190Y-117957619D01*
X111430476Y-116957619D02*
X112001904Y-116957619D01*
X111716190Y-116957619D02*
X111716190Y-117957619D01*
X111811428Y-117814761D01*
X111906666Y-117719523D01*
X112001904Y-117671904D01*
X111001904Y-116957619D02*
X111001904Y-117957619D01*
X110573333Y-116957619D02*
X110573333Y-117481428D01*
X110620952Y-117576666D01*
X110716190Y-117624285D01*
X110859047Y-117624285D01*
X110954285Y-117576666D01*
X111001904Y-117529047D01*
D10*
X140927585Y-119413571D02*
X140927585Y-117913571D01*
X141784728Y-119413571D02*
X141141871Y-118556428D01*
X141784728Y-117913571D02*
X140927585Y-118770714D01*
X142284728Y-117913571D02*
X143284728Y-117913571D01*
X142284728Y-119413571D01*
X143284728Y-119413571D01*
X144070442Y-118556428D02*
X143927585Y-118485000D01*
X143856157Y-118413571D01*
X143784728Y-118270714D01*
X143784728Y-118199285D01*
X143856157Y-118056428D01*
X143927585Y-117985000D01*
X144070442Y-117913571D01*
X144356157Y-117913571D01*
X144499014Y-117985000D01*
X144570442Y-118056428D01*
X144641871Y-118199285D01*
X144641871Y-118270714D01*
X144570442Y-118413571D01*
X144499014Y-118485000D01*
X144356157Y-118556428D01*
X144070442Y-118556428D01*
X143927585Y-118627857D01*
X143856157Y-118699285D01*
X143784728Y-118842142D01*
X143784728Y-119127857D01*
X143856157Y-119270714D01*
X143927585Y-119342142D01*
X144070442Y-119413571D01*
X144356157Y-119413571D01*
X144499014Y-119342142D01*
X144570442Y-119270714D01*
X144641871Y-119127857D01*
X144641871Y-118842142D01*
X144570442Y-118699285D01*
X144499014Y-118627857D01*
X144356157Y-118556428D01*
X145570442Y-117913571D02*
X145713300Y-117913571D01*
X145856157Y-117985000D01*
X145927585Y-118056428D01*
X145999014Y-118199285D01*
X146070442Y-118485000D01*
X146070442Y-118842142D01*
X145999014Y-119127857D01*
X145927585Y-119270714D01*
X145856157Y-119342142D01*
X145713300Y-119413571D01*
X145570442Y-119413571D01*
X145427585Y-119342142D01*
X145356157Y-119270714D01*
X145284728Y-119127857D01*
X145213300Y-118842142D01*
X145213300Y-118485000D01*
X145284728Y-118199285D01*
X145356157Y-118056428D01*
X145427585Y-117985000D01*
X145570442Y-117913571D01*
X146713300Y-118842142D02*
X147856157Y-118842142D01*
X149356157Y-119413571D02*
X148499014Y-119413571D01*
X148927585Y-119413571D02*
X148927585Y-117913571D01*
X148784728Y-118127857D01*
X148641871Y-118270714D01*
X148499014Y-118342142D01*
X149999014Y-119413571D02*
X149999014Y-117913571D01*
X150499014Y-118985000D01*
X150999014Y-117913571D01*
X150999014Y-119413571D01*
X151641871Y-119342142D02*
X151856157Y-119413571D01*
X152213300Y-119413571D01*
X152356157Y-119342142D01*
X152427585Y-119270714D01*
X152499014Y-119127857D01*
X152499014Y-118985000D01*
X152427585Y-118842142D01*
X152356157Y-118770714D01*
X152213300Y-118699285D01*
X151927585Y-118627857D01*
X151784728Y-118556428D01*
X151713300Y-118485000D01*
X151641871Y-118342142D01*
X151641871Y-118199285D01*
X151713300Y-118056428D01*
X151784728Y-117985000D01*
X151927585Y-117913571D01*
X152284728Y-117913571D01*
X152499014Y-117985000D01*
X153999014Y-119413571D02*
X153499014Y-118699285D01*
X153141871Y-119413571D02*
X153141871Y-117913571D01*
X153713300Y-117913571D01*
X153856157Y-117985000D01*
X153927585Y-118056428D01*
X153999014Y-118199285D01*
X153999014Y-118413571D01*
X153927585Y-118556428D01*
X153856157Y-118627857D01*
X153713300Y-118699285D01*
X153141871Y-118699285D01*
X154570442Y-118985000D02*
X155284728Y-118985000D01*
X154427585Y-119413571D02*
X154927585Y-117913571D01*
X155427585Y-119413571D01*
X155927585Y-119413571D02*
X155927585Y-117913571D01*
X156427585Y-118985000D01*
X156927585Y-117913571D01*
X156927585Y-119413571D01*
X158784728Y-119270714D02*
X158856157Y-119342142D01*
X158784728Y-119413571D01*
X158713300Y-119342142D01*
X158784728Y-119270714D01*
X158784728Y-119413571D01*
X158784728Y-118485000D02*
X158856157Y-118556428D01*
X158784728Y-118627857D01*
X158713300Y-118556428D01*
X158784728Y-118485000D01*
X158784728Y-118627857D01*
X160499014Y-117913571D02*
X161499014Y-117913571D01*
X160499014Y-119413571D01*
X161499014Y-119413571D01*
X162284728Y-118556428D02*
X162141871Y-118485000D01*
X162070442Y-118413571D01*
X161999014Y-118270714D01*
X161999014Y-118199285D01*
X162070442Y-118056428D01*
X162141871Y-117985000D01*
X162284728Y-117913571D01*
X162570442Y-117913571D01*
X162713300Y-117985000D01*
X162784728Y-118056428D01*
X162856157Y-118199285D01*
X162856157Y-118270714D01*
X162784728Y-118413571D01*
X162713300Y-118485000D01*
X162570442Y-118556428D01*
X162284728Y-118556428D01*
X162141871Y-118627857D01*
X162070442Y-118699285D01*
X161999014Y-118842142D01*
X161999014Y-119127857D01*
X162070442Y-119270714D01*
X162141871Y-119342142D01*
X162284728Y-119413571D01*
X162570442Y-119413571D01*
X162713300Y-119342142D01*
X162784728Y-119270714D01*
X162856157Y-119127857D01*
X162856157Y-118842142D01*
X162784728Y-118699285D01*
X162713300Y-118627857D01*
X162570442Y-118556428D01*
X163784728Y-117913571D02*
X163927585Y-117913571D01*
X164070442Y-117985000D01*
X164141871Y-118056428D01*
X164213300Y-118199285D01*
X164284728Y-118485000D01*
X164284728Y-118842142D01*
X164213300Y-119127857D01*
X164141871Y-119270714D01*
X164070442Y-119342142D01*
X163927585Y-119413571D01*
X163784728Y-119413571D01*
X163641871Y-119342142D01*
X163570442Y-119270714D01*
X163499014Y-119127857D01*
X163427585Y-118842142D01*
X163427585Y-118485000D01*
X163499014Y-118199285D01*
X163570442Y-118056428D01*
X163641871Y-117985000D01*
X163784728Y-117913571D01*
X166856157Y-119413571D02*
X165999014Y-119413571D01*
X166427585Y-119413571D02*
X166427585Y-117913571D01*
X166284728Y-118127857D01*
X166141871Y-118270714D01*
X165999014Y-118342142D01*
X167427585Y-118056428D02*
X167499014Y-117985000D01*
X167641871Y-117913571D01*
X167999014Y-117913571D01*
X168141871Y-117985000D01*
X168213300Y-118056428D01*
X168284728Y-118199285D01*
X168284728Y-118342142D01*
X168213300Y-118556428D01*
X167356157Y-119413571D01*
X168284728Y-119413571D01*
X169141871Y-118556428D02*
X168999014Y-118485000D01*
X168927585Y-118413571D01*
X168856157Y-118270714D01*
X168856157Y-118199285D01*
X168927585Y-118056428D01*
X168999014Y-117985000D01*
X169141871Y-117913571D01*
X169427585Y-117913571D01*
X169570442Y-117985000D01*
X169641871Y-118056428D01*
X169713300Y-118199285D01*
X169713300Y-118270714D01*
X169641871Y-118413571D01*
X169570442Y-118485000D01*
X169427585Y-118556428D01*
X169141871Y-118556428D01*
X168999014Y-118627857D01*
X168927585Y-118699285D01*
X168856157Y-118842142D01*
X168856157Y-119127857D01*
X168927585Y-119270714D01*
X168999014Y-119342142D01*
X169141871Y-119413571D01*
X169427585Y-119413571D01*
X169570442Y-119342142D01*
X169641871Y-119270714D01*
X169713300Y-119127857D01*
X169713300Y-118842142D01*
X169641871Y-118699285D01*
X169570442Y-118627857D01*
X169427585Y-118556428D01*
X170356157Y-119413571D02*
X170356157Y-117913571D01*
X170499014Y-118842142D02*
X170927585Y-119413571D01*
X170927585Y-118413571D02*
X170356157Y-118985000D01*
X172070442Y-118627857D02*
X172284728Y-118699285D01*
X172356157Y-118770714D01*
X172427585Y-118913571D01*
X172427585Y-119127857D01*
X172356157Y-119270714D01*
X172284728Y-119342142D01*
X172141871Y-119413571D01*
X171570442Y-119413571D01*
X171570442Y-117913571D01*
X172070442Y-117913571D01*
X172213300Y-117985000D01*
X172284728Y-118056428D01*
X172356157Y-118199285D01*
X172356157Y-118342142D01*
X172284728Y-118485000D01*
X172213300Y-118556428D01*
X172070442Y-118627857D01*
X171570442Y-118627857D01*
X175070442Y-119413571D02*
X174570442Y-118699285D01*
X174213300Y-119413571D02*
X174213300Y-117913571D01*
X174784728Y-117913571D01*
X174927585Y-117985000D01*
X174999014Y-118056428D01*
X175070442Y-118199285D01*
X175070442Y-118413571D01*
X174999014Y-118556428D01*
X174927585Y-118627857D01*
X174784728Y-118699285D01*
X174213300Y-118699285D01*
X175641871Y-118985000D02*
X176356157Y-118985000D01*
X175499014Y-119413571D02*
X175999014Y-117913571D01*
X176499014Y-119413571D01*
X176999014Y-119413571D02*
X176999014Y-117913571D01*
X177499014Y-118985000D01*
X177999014Y-117913571D01*
X177999014Y-119413571D01*
X179784728Y-117842142D02*
X178499014Y-119770714D01*
X181141871Y-119413571D02*
X180641871Y-118699285D01*
X180284728Y-119413571D02*
X180284728Y-117913571D01*
X180856157Y-117913571D01*
X180999014Y-117985000D01*
X181070442Y-118056428D01*
X181141871Y-118199285D01*
X181141871Y-118413571D01*
X181070442Y-118556428D01*
X180999014Y-118627857D01*
X180856157Y-118699285D01*
X180284728Y-118699285D01*
X182070442Y-117913571D02*
X182356157Y-117913571D01*
X182499014Y-117985000D01*
X182641871Y-118127857D01*
X182713300Y-118413571D01*
X182713300Y-118913571D01*
X182641871Y-119199285D01*
X182499014Y-119342142D01*
X182356157Y-119413571D01*
X182070442Y-119413571D01*
X181927585Y-119342142D01*
X181784728Y-119199285D01*
X181713300Y-118913571D01*
X181713300Y-118413571D01*
X181784728Y-118127857D01*
X181927585Y-117985000D01*
X182070442Y-117913571D01*
X183356157Y-119413571D02*
X183356157Y-117913571D01*
X183856157Y-118985000D01*
X184356157Y-117913571D01*
X184356157Y-119413571D01*
X186713300Y-118627857D02*
X186927585Y-118699285D01*
X186999014Y-118770714D01*
X187070442Y-118913571D01*
X187070442Y-119127857D01*
X186999014Y-119270714D01*
X186927585Y-119342142D01*
X186784728Y-119413571D01*
X186213300Y-119413571D01*
X186213300Y-117913571D01*
X186713300Y-117913571D01*
X186856157Y-117985000D01*
X186927585Y-118056428D01*
X186999014Y-118199285D01*
X186999014Y-118342142D01*
X186927585Y-118485000D01*
X186856157Y-118556428D01*
X186713300Y-118627857D01*
X186213300Y-118627857D01*
X187999014Y-117913571D02*
X188284728Y-117913571D01*
X188427585Y-117985000D01*
X188570442Y-118127857D01*
X188641871Y-118413571D01*
X188641871Y-118913571D01*
X188570442Y-119199285D01*
X188427585Y-119342142D01*
X188284728Y-119413571D01*
X187999014Y-119413571D01*
X187856157Y-119342142D01*
X187713300Y-119199285D01*
X187641871Y-118913571D01*
X187641871Y-118413571D01*
X187713300Y-118127857D01*
X187856157Y-117985000D01*
X187999014Y-117913571D01*
X189213300Y-118985000D02*
X189927585Y-118985000D01*
X189070442Y-119413571D02*
X189570442Y-117913571D01*
X190070442Y-119413571D01*
X191427585Y-119413571D02*
X190927585Y-118699285D01*
X190570442Y-119413571D02*
X190570442Y-117913571D01*
X191141871Y-117913571D01*
X191284728Y-117985000D01*
X191356157Y-118056428D01*
X191427585Y-118199285D01*
X191427585Y-118413571D01*
X191356157Y-118556428D01*
X191284728Y-118627857D01*
X191141871Y-118699285D01*
X190570442Y-118699285D01*
X192070442Y-119413571D02*
X192070442Y-117913571D01*
X192427585Y-117913571D01*
X192641871Y-117985000D01*
X192784728Y-118127857D01*
X192856157Y-118270714D01*
X192927585Y-118556428D01*
X192927585Y-118770714D01*
X192856157Y-119056428D01*
X192784728Y-119199285D01*
X192641871Y-119342142D01*
X192427585Y-119413571D01*
X192070442Y-119413571D01*
X186713300Y-121963571D02*
X186213300Y-121249285D01*
X185856157Y-121963571D02*
X185856157Y-120463571D01*
X186427585Y-120463571D01*
X186570442Y-120535000D01*
X186641871Y-120606428D01*
X186713300Y-120749285D01*
X186713300Y-120963571D01*
X186641871Y-121106428D01*
X186570442Y-121177857D01*
X186427585Y-121249285D01*
X185856157Y-121249285D01*
X187356157Y-121177857D02*
X187856157Y-121177857D01*
X188070442Y-121963571D02*
X187356157Y-121963571D01*
X187356157Y-120463571D01*
X188070442Y-120463571D01*
X188499014Y-120463571D02*
X188999014Y-121963571D01*
X189499014Y-120463571D01*
X190784728Y-121963571D02*
X189927585Y-121963571D01*
X190356157Y-121963571D02*
X190356157Y-120463571D01*
X190213300Y-120677857D01*
X190070442Y-120820714D01*
X189927585Y-120892142D01*
X191427585Y-121820714D02*
X191499014Y-121892142D01*
X191427585Y-121963571D01*
X191356157Y-121892142D01*
X191427585Y-121820714D01*
X191427585Y-121963571D01*
X192927585Y-121963571D02*
X192070442Y-121963571D01*
X192499014Y-121963571D02*
X192499014Y-120463571D01*
X192356157Y-120677857D01*
X192213300Y-120820714D01*
X192070442Y-120892142D01*
X182284728Y-124513571D02*
X182284728Y-123013571D01*
X183141871Y-124513571D02*
X182499014Y-123656428D01*
X183141871Y-123013571D02*
X182284728Y-123870714D01*
X183784728Y-123013571D02*
X183784728Y-124227857D01*
X183856157Y-124370714D01*
X183927585Y-124442142D01*
X184070442Y-124513571D01*
X184356157Y-124513571D01*
X184499014Y-124442142D01*
X184570442Y-124370714D01*
X184641871Y-124227857D01*
X184641871Y-123013571D01*
X185356157Y-124513571D02*
X185356157Y-123013571D01*
X186213300Y-124513571D01*
X186213300Y-123013571D01*
X186927585Y-124513571D02*
X186927585Y-123013571D01*
X187641871Y-123942142D02*
X188784728Y-123942142D01*
X189499014Y-124513571D02*
X189499014Y-123013571D01*
X190356157Y-124513571D01*
X190356157Y-123013571D01*
X191070442Y-123727857D02*
X191570442Y-123727857D01*
X191784728Y-124513571D02*
X191070442Y-124513571D01*
X191070442Y-123013571D01*
X191784728Y-123013571D01*
X192213300Y-123013571D02*
X193070442Y-123013571D01*
X192641871Y-124513571D02*
X192641871Y-123013571D01*
X112581428Y-100977428D02*
X112581428Y-101977428D01*
X111081428Y-101334571D01*
X112081428Y-103191714D02*
X111081428Y-103191714D01*
X112652857Y-102834571D02*
X111581428Y-102477428D01*
X111581428Y-103406000D01*
X111081428Y-103977428D02*
X112581428Y-103977428D01*
X111867142Y-103977428D02*
X111867142Y-104834571D01*
X111081428Y-104834571D02*
X112581428Y-104834571D01*
X111224285Y-106406000D02*
X111152857Y-106334571D01*
X111081428Y-106120285D01*
X111081428Y-105977428D01*
X111152857Y-105763142D01*
X111295714Y-105620285D01*
X111438571Y-105548857D01*
X111724285Y-105477428D01*
X111938571Y-105477428D01*
X112224285Y-105548857D01*
X112367142Y-105620285D01*
X112510000Y-105763142D01*
X112581428Y-105977428D01*
X112581428Y-106120285D01*
X112510000Y-106334571D01*
X112438571Y-106406000D01*
X112581428Y-107334571D02*
X112581428Y-107477428D01*
X112510000Y-107620285D01*
X112438571Y-107691714D01*
X112295714Y-107763142D01*
X112010000Y-107834571D01*
X111652857Y-107834571D01*
X111367142Y-107763142D01*
X111224285Y-107691714D01*
X111152857Y-107620285D01*
X111081428Y-107477428D01*
X111081428Y-107334571D01*
X111152857Y-107191714D01*
X111224285Y-107120285D01*
X111367142Y-107048857D01*
X111652857Y-106977428D01*
X112010000Y-106977428D01*
X112295714Y-107048857D01*
X112438571Y-107120285D01*
X112510000Y-107191714D01*
X112581428Y-107334571D01*
X112438571Y-108406000D02*
X112510000Y-108477428D01*
X112581428Y-108620285D01*
X112581428Y-108977428D01*
X112510000Y-109120285D01*
X112438571Y-109191714D01*
X112295714Y-109263142D01*
X112152857Y-109263142D01*
X111938571Y-109191714D01*
X111081428Y-108334571D01*
X111081428Y-109263142D01*
X112581428Y-78371428D02*
X112581428Y-79371428D01*
X111081428Y-78728571D01*
X112081428Y-80585714D02*
X111081428Y-80585714D01*
X112652857Y-80228571D02*
X111581428Y-79871428D01*
X111581428Y-80800000D01*
X111081428Y-81371428D02*
X112581428Y-81371428D01*
X111867142Y-81371428D02*
X111867142Y-82228571D01*
X111081428Y-82228571D02*
X112581428Y-82228571D01*
X111224285Y-83800000D02*
X111152857Y-83728571D01*
X111081428Y-83514285D01*
X111081428Y-83371428D01*
X111152857Y-83157142D01*
X111295714Y-83014285D01*
X111438571Y-82942857D01*
X111724285Y-82871428D01*
X111938571Y-82871428D01*
X112224285Y-82942857D01*
X112367142Y-83014285D01*
X112510000Y-83157142D01*
X112581428Y-83371428D01*
X112581428Y-83514285D01*
X112510000Y-83728571D01*
X112438571Y-83800000D01*
X112581428Y-84728571D02*
X112581428Y-84871428D01*
X112510000Y-85014285D01*
X112438571Y-85085714D01*
X112295714Y-85157142D01*
X112010000Y-85228571D01*
X111652857Y-85228571D01*
X111367142Y-85157142D01*
X111224285Y-85085714D01*
X111152857Y-85014285D01*
X111081428Y-84871428D01*
X111081428Y-84728571D01*
X111152857Y-84585714D01*
X111224285Y-84514285D01*
X111367142Y-84442857D01*
X111652857Y-84371428D01*
X112010000Y-84371428D01*
X112295714Y-84442857D01*
X112438571Y-84514285D01*
X112510000Y-84585714D01*
X112581428Y-84728571D01*
X112581428Y-86157142D02*
X112581428Y-86300000D01*
X112510000Y-86442857D01*
X112438571Y-86514285D01*
X112295714Y-86585714D01*
X112010000Y-86657142D01*
X111652857Y-86657142D01*
X111367142Y-86585714D01*
X111224285Y-86514285D01*
X111152857Y-86442857D01*
X111081428Y-86300000D01*
X111081428Y-86157142D01*
X111152857Y-86014285D01*
X111224285Y-85942857D01*
X111367142Y-85871428D01*
X111652857Y-85800000D01*
X112010000Y-85800000D01*
X112295714Y-85871428D01*
X112438571Y-85942857D01*
X112510000Y-86014285D01*
X112581428Y-86157142D01*
X127313428Y-95691142D02*
X127313428Y-96691142D01*
X125813428Y-96048285D01*
X126813428Y-97905428D02*
X125813428Y-97905428D01*
X127384857Y-97548285D02*
X126313428Y-97191142D01*
X126313428Y-98119714D01*
X125813428Y-98691142D02*
X127313428Y-98691142D01*
X126599142Y-98691142D02*
X126599142Y-99548285D01*
X125813428Y-99548285D02*
X127313428Y-99548285D01*
X125956285Y-101119714D02*
X125884857Y-101048285D01*
X125813428Y-100834000D01*
X125813428Y-100691142D01*
X125884857Y-100476857D01*
X126027714Y-100334000D01*
X126170571Y-100262571D01*
X126456285Y-100191142D01*
X126670571Y-100191142D01*
X126956285Y-100262571D01*
X127099142Y-100334000D01*
X127242000Y-100476857D01*
X127313428Y-100691142D01*
X127313428Y-100834000D01*
X127242000Y-101048285D01*
X127170571Y-101119714D01*
X127313428Y-102476857D02*
X127313428Y-101762571D01*
X126599142Y-101691142D01*
X126670571Y-101762571D01*
X126742000Y-101905428D01*
X126742000Y-102262571D01*
X126670571Y-102405428D01*
X126599142Y-102476857D01*
X126456285Y-102548285D01*
X126099142Y-102548285D01*
X125956285Y-102476857D01*
X125884857Y-102405428D01*
X125813428Y-102262571D01*
X125813428Y-101905428D01*
X125884857Y-101762571D01*
X125956285Y-101691142D01*
X127313428Y-103048285D02*
X127313428Y-104048285D01*
X125813428Y-103405428D01*
X127313428Y-104476857D02*
X127313428Y-105405428D01*
X126742000Y-104905428D01*
X126742000Y-105119714D01*
X126670571Y-105262571D01*
X126599142Y-105334000D01*
X126456285Y-105405428D01*
X126099142Y-105405428D01*
X125956285Y-105334000D01*
X125884857Y-105262571D01*
X125813428Y-105119714D01*
X125813428Y-104691142D01*
X125884857Y-104548285D01*
X125956285Y-104476857D01*
X143569428Y-74561428D02*
X143569428Y-75561428D01*
X142069428Y-74918571D01*
X143069428Y-76775714D02*
X142069428Y-76775714D01*
X143640857Y-76418571D02*
X142569428Y-76061428D01*
X142569428Y-76990000D01*
X142069428Y-77561428D02*
X143569428Y-77561428D01*
X142855142Y-77561428D02*
X142855142Y-78418571D01*
X142069428Y-78418571D02*
X143569428Y-78418571D01*
X142212285Y-79990000D02*
X142140857Y-79918571D01*
X142069428Y-79704285D01*
X142069428Y-79561428D01*
X142140857Y-79347142D01*
X142283714Y-79204285D01*
X142426571Y-79132857D01*
X142712285Y-79061428D01*
X142926571Y-79061428D01*
X143212285Y-79132857D01*
X143355142Y-79204285D01*
X143498000Y-79347142D01*
X143569428Y-79561428D01*
X143569428Y-79704285D01*
X143498000Y-79918571D01*
X143426571Y-79990000D01*
X143569428Y-80918571D02*
X143569428Y-81061428D01*
X143498000Y-81204285D01*
X143426571Y-81275714D01*
X143283714Y-81347142D01*
X142998000Y-81418571D01*
X142640857Y-81418571D01*
X142355142Y-81347142D01*
X142212285Y-81275714D01*
X142140857Y-81204285D01*
X142069428Y-81061428D01*
X142069428Y-80918571D01*
X142140857Y-80775714D01*
X142212285Y-80704285D01*
X142355142Y-80632857D01*
X142640857Y-80561428D01*
X142998000Y-80561428D01*
X143283714Y-80632857D01*
X143426571Y-80704285D01*
X143498000Y-80775714D01*
X143569428Y-80918571D01*
X143069428Y-82704285D02*
X142069428Y-82704285D01*
X143640857Y-82347142D02*
X142569428Y-81990000D01*
X142569428Y-82918571D01*
X143061428Y-98739142D02*
X143061428Y-99739142D01*
X141561428Y-99096285D01*
X142561428Y-100953428D02*
X141561428Y-100953428D01*
X143132857Y-100596285D02*
X142061428Y-100239142D01*
X142061428Y-101167714D01*
X141561428Y-101739142D02*
X143061428Y-101739142D01*
X142347142Y-101739142D02*
X142347142Y-102596285D01*
X141561428Y-102596285D02*
X143061428Y-102596285D01*
X141704285Y-104167714D02*
X141632857Y-104096285D01*
X141561428Y-103882000D01*
X141561428Y-103739142D01*
X141632857Y-103524857D01*
X141775714Y-103382000D01*
X141918571Y-103310571D01*
X142204285Y-103239142D01*
X142418571Y-103239142D01*
X142704285Y-103310571D01*
X142847142Y-103382000D01*
X142990000Y-103524857D01*
X143061428Y-103739142D01*
X143061428Y-103882000D01*
X142990000Y-104096285D01*
X142918571Y-104167714D01*
X141561428Y-105596285D02*
X141561428Y-104739142D01*
X141561428Y-105167714D02*
X143061428Y-105167714D01*
X142847142Y-105024857D01*
X142704285Y-104882000D01*
X142632857Y-104739142D01*
X143061428Y-106096285D02*
X143061428Y-107024857D01*
X142490000Y-106524857D01*
X142490000Y-106739142D01*
X142418571Y-106882000D01*
X142347142Y-106953428D01*
X142204285Y-107024857D01*
X141847142Y-107024857D01*
X141704285Y-106953428D01*
X141632857Y-106882000D01*
X141561428Y-106739142D01*
X141561428Y-106310571D01*
X141632857Y-106167714D01*
X141704285Y-106096285D01*
X141561428Y-107739142D02*
X141561428Y-108024857D01*
X141632857Y-108167714D01*
X141704285Y-108239142D01*
X141918571Y-108382000D01*
X142204285Y-108453428D01*
X142775714Y-108453428D01*
X142918571Y-108382000D01*
X142990000Y-108310571D01*
X143061428Y-108167714D01*
X143061428Y-107882000D01*
X142990000Y-107739142D01*
X142918571Y-107667714D01*
X142775714Y-107596285D01*
X142418571Y-107596285D01*
X142275714Y-107667714D01*
X142204285Y-107739142D01*
X142132857Y-107882000D01*
X142132857Y-108167714D01*
X142204285Y-108310571D01*
X142275714Y-108382000D01*
X142418571Y-108453428D01*
X166429428Y-92218285D02*
X166429428Y-91932571D01*
X166358000Y-91789714D01*
X166286571Y-91718285D01*
X166072285Y-91575428D01*
X165786571Y-91504000D01*
X165215142Y-91504000D01*
X165072285Y-91575428D01*
X165000857Y-91646857D01*
X164929428Y-91789714D01*
X164929428Y-92075428D01*
X165000857Y-92218285D01*
X165072285Y-92289714D01*
X165215142Y-92361142D01*
X165572285Y-92361142D01*
X165715142Y-92289714D01*
X165786571Y-92218285D01*
X165858000Y-92075428D01*
X165858000Y-91789714D01*
X165786571Y-91646857D01*
X165715142Y-91575428D01*
X165572285Y-91504000D01*
X166286571Y-92932571D02*
X166358000Y-93004000D01*
X166429428Y-93146857D01*
X166429428Y-93504000D01*
X166358000Y-93646857D01*
X166286571Y-93718285D01*
X166143714Y-93789714D01*
X166000857Y-93789714D01*
X165786571Y-93718285D01*
X164929428Y-92861142D01*
X164929428Y-93789714D01*
X165786571Y-94646857D02*
X165858000Y-94504000D01*
X165929428Y-94432571D01*
X166072285Y-94361142D01*
X166143714Y-94361142D01*
X166286571Y-94432571D01*
X166358000Y-94504000D01*
X166429428Y-94646857D01*
X166429428Y-94932571D01*
X166358000Y-95075428D01*
X166286571Y-95146857D01*
X166143714Y-95218285D01*
X166072285Y-95218285D01*
X165929428Y-95146857D01*
X165858000Y-95075428D01*
X165786571Y-94932571D01*
X165786571Y-94646857D01*
X165715142Y-94504000D01*
X165643714Y-94432571D01*
X165500857Y-94361142D01*
X165215142Y-94361142D01*
X165072285Y-94432571D01*
X165000857Y-94504000D01*
X164929428Y-94646857D01*
X164929428Y-94932571D01*
X165000857Y-95075428D01*
X165072285Y-95146857D01*
X165215142Y-95218285D01*
X165500857Y-95218285D01*
X165643714Y-95146857D01*
X165715142Y-95075428D01*
X165786571Y-94932571D01*
X164929428Y-96646857D02*
X164929428Y-95789714D01*
X164929428Y-96218285D02*
X166429428Y-96218285D01*
X166215142Y-96075428D01*
X166072285Y-95932571D01*
X166000857Y-95789714D01*
X166286571Y-97218285D02*
X166358000Y-97289714D01*
X166429428Y-97432571D01*
X166429428Y-97789714D01*
X166358000Y-97932571D01*
X166286571Y-98004000D01*
X166143714Y-98075428D01*
X166000857Y-98075428D01*
X165786571Y-98004000D01*
X164929428Y-97146857D01*
X164929428Y-98075428D01*
X165786571Y-98932571D02*
X165858000Y-98789714D01*
X165929428Y-98718285D01*
X166072285Y-98646857D01*
X166143714Y-98646857D01*
X166286571Y-98718285D01*
X166358000Y-98789714D01*
X166429428Y-98932571D01*
X166429428Y-99218285D01*
X166358000Y-99361142D01*
X166286571Y-99432571D01*
X166143714Y-99504000D01*
X166072285Y-99504000D01*
X165929428Y-99432571D01*
X165858000Y-99361142D01*
X165786571Y-99218285D01*
X165786571Y-98932571D01*
X165715142Y-98789714D01*
X165643714Y-98718285D01*
X165500857Y-98646857D01*
X165215142Y-98646857D01*
X165072285Y-98718285D01*
X165000857Y-98789714D01*
X164929428Y-98932571D01*
X164929428Y-99218285D01*
X165000857Y-99361142D01*
X165072285Y-99432571D01*
X165215142Y-99504000D01*
X165500857Y-99504000D01*
X165643714Y-99432571D01*
X165715142Y-99361142D01*
X165786571Y-99218285D01*
X189146571Y-92218285D02*
X189218000Y-92289714D01*
X189289428Y-92432571D01*
X189289428Y-92789714D01*
X189218000Y-92932571D01*
X189146571Y-93004000D01*
X189003714Y-93075428D01*
X188860857Y-93075428D01*
X188646571Y-93004000D01*
X187789428Y-92146857D01*
X187789428Y-93075428D01*
X188646571Y-93932571D02*
X188718000Y-93789714D01*
X188789428Y-93718285D01*
X188932285Y-93646857D01*
X189003714Y-93646857D01*
X189146571Y-93718285D01*
X189218000Y-93789714D01*
X189289428Y-93932571D01*
X189289428Y-94218285D01*
X189218000Y-94361142D01*
X189146571Y-94432571D01*
X189003714Y-94504000D01*
X188932285Y-94504000D01*
X188789428Y-94432571D01*
X188718000Y-94361142D01*
X188646571Y-94218285D01*
X188646571Y-93932571D01*
X188575142Y-93789714D01*
X188503714Y-93718285D01*
X188360857Y-93646857D01*
X188075142Y-93646857D01*
X187932285Y-93718285D01*
X187860857Y-93789714D01*
X187789428Y-93932571D01*
X187789428Y-94218285D01*
X187860857Y-94361142D01*
X187932285Y-94432571D01*
X188075142Y-94504000D01*
X188360857Y-94504000D01*
X188503714Y-94432571D01*
X188575142Y-94361142D01*
X188646571Y-94218285D01*
X189146571Y-95075428D02*
X189218000Y-95146857D01*
X189289428Y-95289714D01*
X189289428Y-95646857D01*
X189218000Y-95789714D01*
X189146571Y-95861142D01*
X189003714Y-95932571D01*
X188860857Y-95932571D01*
X188646571Y-95861142D01*
X187789428Y-95004000D01*
X187789428Y-95932571D01*
X189289428Y-97289714D02*
X189289428Y-96575428D01*
X188575142Y-96504000D01*
X188646571Y-96575428D01*
X188718000Y-96718285D01*
X188718000Y-97075428D01*
X188646571Y-97218285D01*
X188575142Y-97289714D01*
X188432285Y-97361142D01*
X188075142Y-97361142D01*
X187932285Y-97289714D01*
X187860857Y-97218285D01*
X187789428Y-97075428D01*
X187789428Y-96718285D01*
X187860857Y-96575428D01*
X187932285Y-96504000D01*
X189289428Y-98646857D02*
X189289428Y-98361142D01*
X189218000Y-98218285D01*
X189146571Y-98146857D01*
X188932285Y-98004000D01*
X188646571Y-97932571D01*
X188075142Y-97932571D01*
X187932285Y-98004000D01*
X187860857Y-98075428D01*
X187789428Y-98218285D01*
X187789428Y-98504000D01*
X187860857Y-98646857D01*
X187932285Y-98718285D01*
X188075142Y-98789714D01*
X188432285Y-98789714D01*
X188575142Y-98718285D01*
X188646571Y-98646857D01*
X188718000Y-98504000D01*
X188718000Y-98218285D01*
X188646571Y-98075428D01*
X188575142Y-98004000D01*
X188432285Y-97932571D01*
D12*
G04 #@! TO.C,U7*
X186960000Y-79255000D02*
X181380000Y-79255000D01*
X181380000Y-79255000D02*
X181380000Y-115055000D01*
X181380000Y-115055000D02*
X194540000Y-115055000D01*
X194540000Y-115055000D02*
X194540000Y-79255000D01*
X194540000Y-79255000D02*
X188960000Y-79255000D01*
X178950000Y-79255000D02*
X178950000Y-115055000D01*
X178950000Y-115055000D02*
X196970000Y-115055000D01*
X196970000Y-115055000D02*
X196970000Y-79255000D01*
X196970000Y-79255000D02*
X178950000Y-79255000D01*
X188960000Y-79255000D02*
G75*
G02X186960000Y-79255000I-1000000J0D01*
G01*
D11*
G04 #@! TO.C,J1*
X165354000Y-126619000D02*
X165354000Y-126111000D01*
X164846000Y-126619000D02*
X164846000Y-126111000D01*
X162814000Y-126619000D02*
X162814000Y-126111000D01*
X162306000Y-126619000D02*
X162306000Y-126111000D01*
X167386000Y-126619000D02*
X167386000Y-126111000D01*
X167894000Y-126619000D02*
X167894000Y-126111000D01*
X169926000Y-126619000D02*
X169926000Y-126111000D01*
X170434000Y-126619000D02*
X170434000Y-126111000D01*
X172466000Y-126619000D02*
X172466000Y-126111000D01*
X172974000Y-126619000D02*
X172974000Y-126111000D01*
X175006000Y-126619000D02*
X175006000Y-126111000D01*
X175514000Y-126619000D02*
X175514000Y-126111000D01*
X134874000Y-126619000D02*
X134874000Y-126111000D01*
X134366000Y-126619000D02*
X134366000Y-126111000D01*
X132334000Y-126619000D02*
X132334000Y-126111000D01*
X131826000Y-126619000D02*
X131826000Y-126111000D01*
X136906000Y-126619000D02*
X136906000Y-126111000D01*
X137414000Y-126619000D02*
X137414000Y-126111000D01*
X139446000Y-126619000D02*
X139446000Y-126111000D01*
X139954000Y-126619000D02*
X139954000Y-126111000D01*
X129794000Y-126619000D02*
X129794000Y-126111000D01*
X129286000Y-126619000D02*
X129286000Y-126111000D01*
X127254000Y-126619000D02*
X127254000Y-126111000D01*
X126746000Y-126619000D02*
X126746000Y-126111000D01*
X145034000Y-126619000D02*
X145034000Y-126111000D01*
X144526000Y-126619000D02*
X144526000Y-126111000D01*
X142494000Y-126619000D02*
X142494000Y-126111000D01*
X141986000Y-126619000D02*
X141986000Y-126111000D01*
X147066000Y-126619000D02*
X147066000Y-126111000D01*
X147574000Y-126619000D02*
X147574000Y-126111000D01*
X149606000Y-126619000D02*
X149606000Y-126111000D01*
X150114000Y-126619000D02*
X150114000Y-126111000D01*
X160274000Y-126619000D02*
X160274000Y-126111000D01*
X159766000Y-126619000D02*
X159766000Y-126111000D01*
X157734000Y-126619000D02*
X157734000Y-126111000D01*
X157226000Y-126619000D02*
X157226000Y-126111000D01*
X152146000Y-126619000D02*
X152146000Y-126111000D01*
X152654000Y-126619000D02*
X152654000Y-126111000D01*
X154686000Y-126619000D02*
X154686000Y-126111000D01*
X155194000Y-126619000D02*
X155194000Y-126111000D01*
X129794000Y-129159000D02*
X129794000Y-128651000D01*
X129286000Y-129159000D02*
X129286000Y-128651000D01*
X127254000Y-129159000D02*
X127254000Y-128651000D01*
X126746000Y-129159000D02*
X126746000Y-128651000D01*
X131826000Y-129159000D02*
X131826000Y-128651000D01*
X132334000Y-129159000D02*
X132334000Y-128651000D01*
X134366000Y-129159000D02*
X134366000Y-128651000D01*
X134874000Y-129159000D02*
X134874000Y-128651000D01*
X150114000Y-129159000D02*
X150114000Y-128651000D01*
X149606000Y-129159000D02*
X149606000Y-128651000D01*
X147574000Y-129159000D02*
X147574000Y-128651000D01*
X147066000Y-129159000D02*
X147066000Y-128651000D01*
X152146000Y-129159000D02*
X152146000Y-128651000D01*
X152654000Y-129159000D02*
X152654000Y-128651000D01*
X154686000Y-129159000D02*
X154686000Y-128651000D01*
X155194000Y-129159000D02*
X155194000Y-128651000D01*
X145034000Y-129159000D02*
X145034000Y-128651000D01*
X144526000Y-129159000D02*
X144526000Y-128651000D01*
X142494000Y-129159000D02*
X142494000Y-128651000D01*
X141986000Y-129159000D02*
X141986000Y-128651000D01*
X136906000Y-129159000D02*
X136906000Y-128651000D01*
X137414000Y-129159000D02*
X137414000Y-128651000D01*
X139446000Y-129159000D02*
X139446000Y-128651000D01*
X139954000Y-129159000D02*
X139954000Y-128651000D01*
X160274000Y-129159000D02*
X160274000Y-128651000D01*
X159766000Y-129159000D02*
X159766000Y-128651000D01*
X157734000Y-129159000D02*
X157734000Y-128651000D01*
X157226000Y-129159000D02*
X157226000Y-128651000D01*
X162306000Y-129159000D02*
X162306000Y-128651000D01*
X162814000Y-129159000D02*
X162814000Y-128651000D01*
X164846000Y-129159000D02*
X164846000Y-128651000D01*
X165354000Y-129159000D02*
X165354000Y-128651000D01*
X175514000Y-129159000D02*
X175514000Y-128651000D01*
X175006000Y-129159000D02*
X175006000Y-128651000D01*
X172974000Y-129159000D02*
X172974000Y-128651000D01*
X172466000Y-129159000D02*
X172466000Y-128651000D01*
X167386000Y-129159000D02*
X167386000Y-128651000D01*
X167894000Y-129159000D02*
X167894000Y-128651000D01*
X169926000Y-129159000D02*
X169926000Y-128651000D01*
X170434000Y-129159000D02*
X170434000Y-128651000D01*
X176810000Y-125095000D02*
X176810000Y-123945000D01*
X176810000Y-123945000D02*
X175260000Y-123945000D01*
X175387000Y-131699000D02*
X175387000Y-137668000D01*
X175387000Y-137668000D02*
X175133000Y-137668000D01*
X175133000Y-137668000D02*
X175133000Y-131826000D01*
X175133000Y-131826000D02*
X175260000Y-131826000D01*
X175260000Y-131826000D02*
X175260000Y-137668000D01*
X135890000Y-129159000D02*
X135890000Y-131699000D01*
X135890000Y-129159000D02*
X133350000Y-129159000D01*
X133350000Y-129159000D02*
X133350000Y-131699000D01*
X134874000Y-131699000D02*
X134874000Y-137795000D01*
X134874000Y-137795000D02*
X134366000Y-137795000D01*
X134366000Y-137795000D02*
X134366000Y-131699000D01*
X133350000Y-131699000D02*
X135890000Y-131699000D01*
X130810000Y-131699000D02*
X133350000Y-131699000D01*
X131826000Y-137795000D02*
X131826000Y-131699000D01*
X132334000Y-137795000D02*
X131826000Y-137795000D01*
X132334000Y-131699000D02*
X132334000Y-137795000D01*
X130810000Y-129159000D02*
X130810000Y-131699000D01*
X133350000Y-129159000D02*
X130810000Y-129159000D01*
X133350000Y-129159000D02*
X133350000Y-131699000D01*
X128270000Y-129159000D02*
X128270000Y-131699000D01*
X128270000Y-129159000D02*
X125730000Y-129159000D01*
X127254000Y-131699000D02*
X127254000Y-137795000D01*
X127254000Y-137795000D02*
X126746000Y-137795000D01*
X126746000Y-137795000D02*
X126746000Y-131699000D01*
X125730000Y-131699000D02*
X128270000Y-131699000D01*
X128270000Y-131699000D02*
X130810000Y-131699000D01*
X129286000Y-137795000D02*
X129286000Y-131699000D01*
X129794000Y-137795000D02*
X129286000Y-137795000D01*
X129794000Y-131699000D02*
X129794000Y-137795000D01*
X128270000Y-129159000D02*
X128270000Y-131699000D01*
X130810000Y-129159000D02*
X128270000Y-129159000D01*
X130810000Y-129159000D02*
X130810000Y-131699000D01*
X125730000Y-129159000D02*
X125730000Y-131699000D01*
X156210000Y-129159000D02*
X156210000Y-131699000D01*
X156210000Y-129159000D02*
X153670000Y-129159000D01*
X153670000Y-129159000D02*
X153670000Y-131699000D01*
X155194000Y-131699000D02*
X155194000Y-137795000D01*
X155194000Y-137795000D02*
X154686000Y-137795000D01*
X154686000Y-137795000D02*
X154686000Y-131699000D01*
X153670000Y-131699000D02*
X156210000Y-131699000D01*
X151130000Y-131699000D02*
X153670000Y-131699000D01*
X152146000Y-137795000D02*
X152146000Y-131699000D01*
X152654000Y-137795000D02*
X152146000Y-137795000D01*
X152654000Y-131699000D02*
X152654000Y-137795000D01*
X151130000Y-129159000D02*
X151130000Y-131699000D01*
X153670000Y-129159000D02*
X151130000Y-129159000D01*
X153670000Y-129159000D02*
X153670000Y-131699000D01*
X148590000Y-129159000D02*
X148590000Y-131699000D01*
X148590000Y-129159000D02*
X146050000Y-129159000D01*
X146050000Y-129159000D02*
X146050000Y-131699000D01*
X147574000Y-131699000D02*
X147574000Y-137795000D01*
X147574000Y-137795000D02*
X147066000Y-137795000D01*
X147066000Y-137795000D02*
X147066000Y-131699000D01*
X146050000Y-131699000D02*
X148590000Y-131699000D01*
X148590000Y-131699000D02*
X151130000Y-131699000D01*
X149606000Y-137795000D02*
X149606000Y-131699000D01*
X150114000Y-137795000D02*
X149606000Y-137795000D01*
X150114000Y-131699000D02*
X150114000Y-137795000D01*
X148590000Y-129159000D02*
X148590000Y-131699000D01*
X151130000Y-129159000D02*
X148590000Y-129159000D01*
X151130000Y-129159000D02*
X151130000Y-131699000D01*
X140970000Y-129159000D02*
X140970000Y-131699000D01*
X140970000Y-129159000D02*
X138430000Y-129159000D01*
X138430000Y-129159000D02*
X138430000Y-131699000D01*
X139954000Y-131699000D02*
X139954000Y-137795000D01*
X139954000Y-137795000D02*
X139446000Y-137795000D01*
X139446000Y-137795000D02*
X139446000Y-131699000D01*
X138430000Y-131699000D02*
X140970000Y-131699000D01*
X135890000Y-131699000D02*
X138430000Y-131699000D01*
X136906000Y-137795000D02*
X136906000Y-131699000D01*
X137414000Y-137795000D02*
X136906000Y-137795000D01*
X137414000Y-131699000D02*
X137414000Y-137795000D01*
X135890000Y-129159000D02*
X135890000Y-131699000D01*
X138430000Y-129159000D02*
X135890000Y-129159000D01*
X138430000Y-129159000D02*
X138430000Y-131699000D01*
X143510000Y-129159000D02*
X143510000Y-131699000D01*
X143510000Y-129159000D02*
X140970000Y-129159000D01*
X140970000Y-129159000D02*
X140970000Y-131699000D01*
X142494000Y-131699000D02*
X142494000Y-137795000D01*
X142494000Y-137795000D02*
X141986000Y-137795000D01*
X141986000Y-137795000D02*
X141986000Y-131699000D01*
X140970000Y-131699000D02*
X143510000Y-131699000D01*
X143510000Y-131699000D02*
X146050000Y-131699000D01*
X144526000Y-137795000D02*
X144526000Y-131699000D01*
X145034000Y-137795000D02*
X144526000Y-137795000D01*
X145034000Y-131699000D02*
X145034000Y-137795000D01*
X143510000Y-129159000D02*
X143510000Y-131699000D01*
X146050000Y-129159000D02*
X143510000Y-129159000D01*
X146050000Y-129159000D02*
X146050000Y-131699000D01*
X166370000Y-129159000D02*
X166370000Y-131699000D01*
X166370000Y-129159000D02*
X163830000Y-129159000D01*
X163830000Y-129159000D02*
X163830000Y-131699000D01*
X165354000Y-131699000D02*
X165354000Y-137795000D01*
X165354000Y-137795000D02*
X164846000Y-137795000D01*
X164846000Y-137795000D02*
X164846000Y-131699000D01*
X163830000Y-131699000D02*
X166370000Y-131699000D01*
X161290000Y-131699000D02*
X163830000Y-131699000D01*
X162306000Y-137795000D02*
X162306000Y-131699000D01*
X162814000Y-137795000D02*
X162306000Y-137795000D01*
X162814000Y-131699000D02*
X162814000Y-137795000D01*
X161290000Y-129159000D02*
X161290000Y-131699000D01*
X163830000Y-129159000D02*
X161290000Y-129159000D01*
X163830000Y-129159000D02*
X163830000Y-131699000D01*
X158750000Y-129159000D02*
X158750000Y-131699000D01*
X158750000Y-129159000D02*
X156210000Y-129159000D01*
X156210000Y-129159000D02*
X156210000Y-131699000D01*
X157734000Y-131699000D02*
X157734000Y-137795000D01*
X157734000Y-137795000D02*
X157226000Y-137795000D01*
X157226000Y-137795000D02*
X157226000Y-131699000D01*
X156210000Y-131699000D02*
X158750000Y-131699000D01*
X158750000Y-131699000D02*
X161290000Y-131699000D01*
X159766000Y-137795000D02*
X159766000Y-131699000D01*
X160274000Y-137795000D02*
X159766000Y-137795000D01*
X160274000Y-131699000D02*
X160274000Y-137795000D01*
X158750000Y-129159000D02*
X158750000Y-131699000D01*
X161290000Y-129159000D02*
X158750000Y-129159000D01*
X161290000Y-129159000D02*
X161290000Y-131699000D01*
X171450000Y-129159000D02*
X171450000Y-131699000D01*
X171450000Y-129159000D02*
X168910000Y-129159000D01*
X168910000Y-129159000D02*
X168910000Y-131699000D01*
X170434000Y-131699000D02*
X170434000Y-137795000D01*
X170434000Y-137795000D02*
X169926000Y-137795000D01*
X169926000Y-137795000D02*
X169926000Y-131699000D01*
X168910000Y-131699000D02*
X171450000Y-131699000D01*
X166370000Y-131699000D02*
X168910000Y-131699000D01*
X167386000Y-137795000D02*
X167386000Y-131699000D01*
X167894000Y-137795000D02*
X167386000Y-137795000D01*
X167894000Y-131699000D02*
X167894000Y-137795000D01*
X166370000Y-129159000D02*
X166370000Y-131699000D01*
X168910000Y-129159000D02*
X166370000Y-129159000D01*
X168910000Y-129159000D02*
X168910000Y-131699000D01*
X173990000Y-129159000D02*
X173990000Y-131699000D01*
X173990000Y-129159000D02*
X171450000Y-129159000D01*
X171450000Y-129159000D02*
X171450000Y-131699000D01*
X172974000Y-131699000D02*
X172974000Y-137795000D01*
X172974000Y-137795000D02*
X172466000Y-137795000D01*
X172466000Y-137795000D02*
X172466000Y-131699000D01*
X171450000Y-131699000D02*
X173990000Y-131699000D01*
X173990000Y-131699000D02*
X176530000Y-131699000D01*
X175006000Y-137795000D02*
X175006000Y-131699000D01*
X175514000Y-137795000D02*
X175006000Y-137795000D01*
X175514000Y-131699000D02*
X175514000Y-137795000D01*
X173990000Y-129159000D02*
X173990000Y-131699000D01*
X176530000Y-129159000D02*
X173990000Y-129159000D01*
X176530000Y-129159000D02*
X176530000Y-131699000D01*
G04 #@! TO.C,D1*
X110446000Y-119816000D02*
X110646000Y-119816000D01*
X113040000Y-119816000D02*
X112860000Y-119816000D01*
X112729643Y-123043744D02*
G75*
G03X113046000Y-119816000I-1003643J1727744D01*
G01*
X112859068Y-122368006D02*
G75*
G03X112860000Y-120265000I-1133068J1052006D01*
G01*
X110419274Y-119828780D02*
G75*
G03X110766000Y-123066000I1306726J-1497220D01*
G01*
X110646747Y-120302111D02*
G75*
G03X110666000Y-122350000I1079253J-1013889D01*
G01*
G04 #@! TO.C,D2*
X116796000Y-119816000D02*
X116996000Y-119816000D01*
X119390000Y-119816000D02*
X119210000Y-119816000D01*
X119079643Y-123043744D02*
G75*
G03X119396000Y-119816000I-1003643J1727744D01*
G01*
X119209068Y-122368006D02*
G75*
G03X119210000Y-120265000I-1133068J1052006D01*
G01*
X116769274Y-119828780D02*
G75*
G03X117116000Y-123066000I1306726J-1497220D01*
G01*
X116996747Y-120302111D02*
G75*
G03X117016000Y-122350000I1079253J-1013889D01*
G01*
D12*
G04 #@! TO.C,U1*
X110760000Y-96400000D02*
X108990000Y-96400000D01*
X108990000Y-96400000D02*
X108990000Y-114420000D01*
X108990000Y-114420000D02*
X114530000Y-114420000D01*
X114530000Y-114420000D02*
X114530000Y-96400000D01*
X114530000Y-96400000D02*
X112760000Y-96400000D01*
X106560000Y-96400000D02*
X106560000Y-114420000D01*
X106560000Y-114420000D02*
X116960000Y-114420000D01*
X116960000Y-114420000D02*
X116960000Y-96400000D01*
X116960000Y-96400000D02*
X106560000Y-96400000D01*
X112760000Y-96400000D02*
G75*
G02X110760000Y-96400000I-1000000J0D01*
G01*
G04 #@! TO.C,U2*
X125365000Y-88780000D02*
X123595000Y-88780000D01*
X123595000Y-88780000D02*
X123595000Y-114420000D01*
X123595000Y-114420000D02*
X129135000Y-114420000D01*
X129135000Y-114420000D02*
X129135000Y-88780000D01*
X129135000Y-88780000D02*
X127365000Y-88780000D01*
X121165000Y-88780000D02*
X121165000Y-114420000D01*
X121165000Y-114420000D02*
X131565000Y-114420000D01*
X131565000Y-114420000D02*
X131565000Y-88780000D01*
X131565000Y-88780000D02*
X121165000Y-88780000D01*
X127365000Y-88780000D02*
G75*
G02X125365000Y-88780000I-1000000J0D01*
G01*
G04 #@! TO.C,U3*
X141240000Y-94495000D02*
X139470000Y-94495000D01*
X139470000Y-94495000D02*
X139470000Y-115055000D01*
X139470000Y-115055000D02*
X145010000Y-115055000D01*
X145010000Y-115055000D02*
X145010000Y-94495000D01*
X145010000Y-94495000D02*
X143240000Y-94495000D01*
X137040000Y-94495000D02*
X137040000Y-115055000D01*
X137040000Y-115055000D02*
X147440000Y-115055000D01*
X147440000Y-115055000D02*
X147440000Y-94495000D01*
X147440000Y-94495000D02*
X137040000Y-94495000D01*
X143240000Y-94495000D02*
G75*
G02X141240000Y-94495000I-1000000J0D01*
G01*
G04 #@! TO.C,U4*
X141240000Y-69730000D02*
X139470000Y-69730000D01*
X139470000Y-69730000D02*
X139470000Y-87750000D01*
X139470000Y-87750000D02*
X145010000Y-87750000D01*
X145010000Y-87750000D02*
X145010000Y-69730000D01*
X145010000Y-69730000D02*
X143240000Y-69730000D01*
X137040000Y-69730000D02*
X137040000Y-87750000D01*
X137040000Y-87750000D02*
X147440000Y-87750000D01*
X147440000Y-87750000D02*
X147440000Y-69730000D01*
X147440000Y-69730000D02*
X137040000Y-69730000D01*
X143240000Y-69730000D02*
G75*
G02X141240000Y-69730000I-1000000J0D01*
G01*
G04 #@! TO.C,U5*
X110760000Y-73540000D02*
X108990000Y-73540000D01*
X108990000Y-73540000D02*
X108990000Y-91560000D01*
X108990000Y-91560000D02*
X114530000Y-91560000D01*
X114530000Y-91560000D02*
X114530000Y-73540000D01*
X114530000Y-73540000D02*
X112760000Y-73540000D01*
X106560000Y-73540000D02*
X106560000Y-91560000D01*
X106560000Y-91560000D02*
X116960000Y-91560000D01*
X116960000Y-91560000D02*
X116960000Y-73540000D01*
X116960000Y-73540000D02*
X106560000Y-73540000D01*
X112760000Y-73540000D02*
G75*
G02X110760000Y-73540000I-1000000J0D01*
G01*
G04 #@! TO.C,U6*
X164100000Y-74175000D02*
X158520000Y-74175000D01*
X158520000Y-74175000D02*
X158520000Y-115055000D01*
X158520000Y-115055000D02*
X171680000Y-115055000D01*
X171680000Y-115055000D02*
X171680000Y-74175000D01*
X171680000Y-74175000D02*
X166100000Y-74175000D01*
X156090000Y-74175000D02*
X156090000Y-115055000D01*
X156090000Y-115055000D02*
X174110000Y-115055000D01*
X174110000Y-115055000D02*
X174110000Y-74175000D01*
X174110000Y-74175000D02*
X156090000Y-74175000D01*
X166100000Y-74175000D02*
G75*
G02X164100000Y-74175000I-1000000J0D01*
G01*
G04 #@! TO.C,C1*
X146820000Y-69255000D02*
X142700000Y-69255000D01*
X146820000Y-66635000D02*
X142700000Y-66635000D01*
X146820000Y-69255000D02*
X146820000Y-68695000D01*
X146820000Y-67195000D02*
X146820000Y-66635000D01*
X142700000Y-69255000D02*
X142700000Y-68695000D01*
X142700000Y-67195000D02*
X142700000Y-66635000D01*
G04 #@! TO.C,C2*
X130945000Y-88305000D02*
X126825000Y-88305000D01*
X130945000Y-85685000D02*
X126825000Y-85685000D01*
X130945000Y-88305000D02*
X130945000Y-87745000D01*
X130945000Y-86245000D02*
X130945000Y-85685000D01*
X126825000Y-88305000D02*
X126825000Y-87745000D01*
X126825000Y-86245000D02*
X126825000Y-85685000D01*
G04 #@! TO.C,C3*
X146820000Y-93385000D02*
X142700000Y-93385000D01*
X146820000Y-90765000D02*
X142700000Y-90765000D01*
X146820000Y-93385000D02*
X146820000Y-92825000D01*
X146820000Y-91325000D02*
X146820000Y-90765000D01*
X142700000Y-93385000D02*
X142700000Y-92825000D01*
X142700000Y-91325000D02*
X142700000Y-90765000D01*
G04 #@! TO.C,C4*
X116340000Y-95290000D02*
X112220000Y-95290000D01*
X116340000Y-92670000D02*
X112220000Y-92670000D01*
X116340000Y-95290000D02*
X116340000Y-94730000D01*
X116340000Y-93230000D02*
X116340000Y-92670000D01*
X112220000Y-95290000D02*
X112220000Y-94730000D01*
X112220000Y-93230000D02*
X112220000Y-92670000D01*
G04 #@! TO.C,C5*
X116380000Y-73065000D02*
X112260000Y-73065000D01*
X116380000Y-70445000D02*
X112260000Y-70445000D01*
X116380000Y-73065000D02*
X116380000Y-72505000D01*
X116380000Y-71005000D02*
X116380000Y-70445000D01*
X112260000Y-73065000D02*
X112260000Y-72505000D01*
X112260000Y-71005000D02*
X112260000Y-70445000D01*
G04 #@! TO.C,C6*
X173530000Y-73700000D02*
X169410000Y-73700000D01*
X173530000Y-71080000D02*
X169410000Y-71080000D01*
X173530000Y-73700000D02*
X173530000Y-73140000D01*
X173530000Y-71640000D02*
X173530000Y-71080000D01*
X169410000Y-73700000D02*
X169410000Y-73140000D01*
X169410000Y-71640000D02*
X169410000Y-71080000D01*
G04 #@! TO.C,C7*
X196350000Y-78780000D02*
X192230000Y-78780000D01*
X196350000Y-76160000D02*
X192230000Y-76160000D01*
X196350000Y-78780000D02*
X196350000Y-78220000D01*
X196350000Y-76720000D02*
X196350000Y-76160000D01*
X192230000Y-78780000D02*
X192230000Y-78220000D01*
X192230000Y-76720000D02*
X192230000Y-76160000D01*
G04 #@! TO.C,R1*
X110450000Y-133385000D02*
X113070000Y-133385000D01*
X113070000Y-133385000D02*
X113070000Y-126965000D01*
X113070000Y-126965000D02*
X110450000Y-126965000D01*
X110450000Y-126965000D02*
X110450000Y-133385000D01*
X111760000Y-134275000D02*
X111760000Y-133385000D01*
X111760000Y-126075000D02*
X111760000Y-126965000D01*
G04 #@! TO.C,R2*
X116800000Y-133385000D02*
X119420000Y-133385000D01*
X119420000Y-133385000D02*
X119420000Y-126965000D01*
X119420000Y-126965000D02*
X116800000Y-126965000D01*
X116800000Y-126965000D02*
X116800000Y-133385000D01*
X118110000Y-134275000D02*
X118110000Y-133385000D01*
X118110000Y-126075000D02*
X118110000Y-126965000D01*
G04 #@! TO.C,C8*
X190110000Y-131600000D02*
G75*
G03X190110000Y-131600000I-2620000J0D01*
G01*
X187490000Y-129020000D02*
X187490000Y-134180000D01*
X187530000Y-129020000D02*
X187530000Y-134180000D01*
X187570000Y-129021000D02*
X187570000Y-134179000D01*
X187610000Y-129022000D02*
X187610000Y-134178000D01*
X187650000Y-129024000D02*
X187650000Y-134176000D01*
X187690000Y-129027000D02*
X187690000Y-134173000D01*
X187730000Y-129031000D02*
X187730000Y-130560000D01*
X187730000Y-132640000D02*
X187730000Y-134169000D01*
X187770000Y-129035000D02*
X187770000Y-130560000D01*
X187770000Y-132640000D02*
X187770000Y-134165000D01*
X187810000Y-129039000D02*
X187810000Y-130560000D01*
X187810000Y-132640000D02*
X187810000Y-134161000D01*
X187850000Y-129044000D02*
X187850000Y-130560000D01*
X187850000Y-132640000D02*
X187850000Y-134156000D01*
X187890000Y-129050000D02*
X187890000Y-130560000D01*
X187890000Y-132640000D02*
X187890000Y-134150000D01*
X187930000Y-129057000D02*
X187930000Y-130560000D01*
X187930000Y-132640000D02*
X187930000Y-134143000D01*
X187970000Y-129064000D02*
X187970000Y-130560000D01*
X187970000Y-132640000D02*
X187970000Y-134136000D01*
X188010000Y-129072000D02*
X188010000Y-130560000D01*
X188010000Y-132640000D02*
X188010000Y-134128000D01*
X188050000Y-129080000D02*
X188050000Y-130560000D01*
X188050000Y-132640000D02*
X188050000Y-134120000D01*
X188090000Y-129089000D02*
X188090000Y-130560000D01*
X188090000Y-132640000D02*
X188090000Y-134111000D01*
X188130000Y-129099000D02*
X188130000Y-130560000D01*
X188130000Y-132640000D02*
X188130000Y-134101000D01*
X188170000Y-129109000D02*
X188170000Y-130560000D01*
X188170000Y-132640000D02*
X188170000Y-134091000D01*
X188211000Y-129120000D02*
X188211000Y-130560000D01*
X188211000Y-132640000D02*
X188211000Y-134080000D01*
X188251000Y-129132000D02*
X188251000Y-130560000D01*
X188251000Y-132640000D02*
X188251000Y-134068000D01*
X188291000Y-129145000D02*
X188291000Y-130560000D01*
X188291000Y-132640000D02*
X188291000Y-134055000D01*
X188331000Y-129158000D02*
X188331000Y-130560000D01*
X188331000Y-132640000D02*
X188331000Y-134042000D01*
X188371000Y-129172000D02*
X188371000Y-130560000D01*
X188371000Y-132640000D02*
X188371000Y-134028000D01*
X188411000Y-129186000D02*
X188411000Y-130560000D01*
X188411000Y-132640000D02*
X188411000Y-134014000D01*
X188451000Y-129202000D02*
X188451000Y-130560000D01*
X188451000Y-132640000D02*
X188451000Y-133998000D01*
X188491000Y-129218000D02*
X188491000Y-130560000D01*
X188491000Y-132640000D02*
X188491000Y-133982000D01*
X188531000Y-129235000D02*
X188531000Y-130560000D01*
X188531000Y-132640000D02*
X188531000Y-133965000D01*
X188571000Y-129252000D02*
X188571000Y-130560000D01*
X188571000Y-132640000D02*
X188571000Y-133948000D01*
X188611000Y-129271000D02*
X188611000Y-130560000D01*
X188611000Y-132640000D02*
X188611000Y-133929000D01*
X188651000Y-129290000D02*
X188651000Y-130560000D01*
X188651000Y-132640000D02*
X188651000Y-133910000D01*
X188691000Y-129310000D02*
X188691000Y-130560000D01*
X188691000Y-132640000D02*
X188691000Y-133890000D01*
X188731000Y-129332000D02*
X188731000Y-130560000D01*
X188731000Y-132640000D02*
X188731000Y-133868000D01*
X188771000Y-129353000D02*
X188771000Y-130560000D01*
X188771000Y-132640000D02*
X188771000Y-133847000D01*
X188811000Y-129376000D02*
X188811000Y-130560000D01*
X188811000Y-132640000D02*
X188811000Y-133824000D01*
X188851000Y-129400000D02*
X188851000Y-130560000D01*
X188851000Y-132640000D02*
X188851000Y-133800000D01*
X188891000Y-129425000D02*
X188891000Y-130560000D01*
X188891000Y-132640000D02*
X188891000Y-133775000D01*
X188931000Y-129451000D02*
X188931000Y-130560000D01*
X188931000Y-132640000D02*
X188931000Y-133749000D01*
X188971000Y-129478000D02*
X188971000Y-130560000D01*
X188971000Y-132640000D02*
X188971000Y-133722000D01*
X189011000Y-129505000D02*
X189011000Y-130560000D01*
X189011000Y-132640000D02*
X189011000Y-133695000D01*
X189051000Y-129535000D02*
X189051000Y-130560000D01*
X189051000Y-132640000D02*
X189051000Y-133665000D01*
X189091000Y-129565000D02*
X189091000Y-130560000D01*
X189091000Y-132640000D02*
X189091000Y-133635000D01*
X189131000Y-129596000D02*
X189131000Y-130560000D01*
X189131000Y-132640000D02*
X189131000Y-133604000D01*
X189171000Y-129629000D02*
X189171000Y-130560000D01*
X189171000Y-132640000D02*
X189171000Y-133571000D01*
X189211000Y-129663000D02*
X189211000Y-130560000D01*
X189211000Y-132640000D02*
X189211000Y-133537000D01*
X189251000Y-129699000D02*
X189251000Y-130560000D01*
X189251000Y-132640000D02*
X189251000Y-133501000D01*
X189291000Y-129736000D02*
X189291000Y-130560000D01*
X189291000Y-132640000D02*
X189291000Y-133464000D01*
X189331000Y-129774000D02*
X189331000Y-130560000D01*
X189331000Y-132640000D02*
X189331000Y-133426000D01*
X189371000Y-129815000D02*
X189371000Y-130560000D01*
X189371000Y-132640000D02*
X189371000Y-133385000D01*
X189411000Y-129857000D02*
X189411000Y-130560000D01*
X189411000Y-132640000D02*
X189411000Y-133343000D01*
X189451000Y-129901000D02*
X189451000Y-130560000D01*
X189451000Y-132640000D02*
X189451000Y-133299000D01*
X189491000Y-129947000D02*
X189491000Y-130560000D01*
X189491000Y-132640000D02*
X189491000Y-133253000D01*
X189531000Y-129995000D02*
X189531000Y-130560000D01*
X189531000Y-132640000D02*
X189531000Y-133205000D01*
X189571000Y-130046000D02*
X189571000Y-130560000D01*
X189571000Y-132640000D02*
X189571000Y-133154000D01*
X189611000Y-130100000D02*
X189611000Y-130560000D01*
X189611000Y-132640000D02*
X189611000Y-133100000D01*
X189651000Y-130157000D02*
X189651000Y-130560000D01*
X189651000Y-132640000D02*
X189651000Y-133043000D01*
X189691000Y-130217000D02*
X189691000Y-130560000D01*
X189691000Y-132640000D02*
X189691000Y-132983000D01*
X189731000Y-130281000D02*
X189731000Y-130560000D01*
X189731000Y-132640000D02*
X189731000Y-132919000D01*
X189771000Y-130349000D02*
X189771000Y-130560000D01*
X189771000Y-132640000D02*
X189771000Y-132851000D01*
X189811000Y-130422000D02*
X189811000Y-132778000D01*
X189851000Y-130502000D02*
X189851000Y-132698000D01*
X189891000Y-130589000D02*
X189891000Y-132611000D01*
X189931000Y-130685000D02*
X189931000Y-132515000D01*
X189971000Y-130795000D02*
X189971000Y-132405000D01*
X190011000Y-130923000D02*
X190011000Y-132277000D01*
X190051000Y-131082000D02*
X190051000Y-132118000D01*
X190091000Y-131316000D02*
X190091000Y-131884000D01*
X184685225Y-130125000D02*
X185185225Y-130125000D01*
X184935225Y-129875000D02*
X184935225Y-130375000D01*
G04 #@! TO.C,U7*
D11*
X179070095Y-77430380D02*
X179070095Y-78239904D01*
X179117714Y-78335142D01*
X179165333Y-78382761D01*
X179260571Y-78430380D01*
X179451047Y-78430380D01*
X179546285Y-78382761D01*
X179593904Y-78335142D01*
X179641523Y-78239904D01*
X179641523Y-77430380D01*
X180022476Y-77430380D02*
X180689142Y-77430380D01*
X180260571Y-78430380D01*
G04 #@! TO.C,J1*
X177252380Y-124793333D02*
X177966666Y-124793333D01*
X178109523Y-124840952D01*
X178204761Y-124936190D01*
X178252380Y-125079047D01*
X178252380Y-125174285D01*
X178252380Y-123793333D02*
X178252380Y-124364761D01*
X178252380Y-124079047D02*
X177252380Y-124079047D01*
X177395238Y-124174285D01*
X177490476Y-124269523D01*
X177538095Y-124364761D01*
G04 #@! TO.C,D1*
X109152380Y-122663095D02*
X108152380Y-122663095D01*
X108152380Y-122425000D01*
X108200000Y-122282142D01*
X108295238Y-122186904D01*
X108390476Y-122139285D01*
X108580952Y-122091666D01*
X108723809Y-122091666D01*
X108914285Y-122139285D01*
X109009523Y-122186904D01*
X109104761Y-122282142D01*
X109152380Y-122425000D01*
X109152380Y-122663095D01*
X109152380Y-121139285D02*
X109152380Y-121710714D01*
X109152380Y-121425000D02*
X108152380Y-121425000D01*
X108295238Y-121520238D01*
X108390476Y-121615476D01*
X108438095Y-121710714D01*
X109672380Y-119641904D02*
X108672380Y-119641904D01*
X109672380Y-119070476D02*
X109100952Y-119499047D01*
X108672380Y-119070476D02*
X109243809Y-119641904D01*
G04 #@! TO.C,D2*
X115502380Y-122663095D02*
X114502380Y-122663095D01*
X114502380Y-122425000D01*
X114550000Y-122282142D01*
X114645238Y-122186904D01*
X114740476Y-122139285D01*
X114930952Y-122091666D01*
X115073809Y-122091666D01*
X115264285Y-122139285D01*
X115359523Y-122186904D01*
X115454761Y-122282142D01*
X115502380Y-122425000D01*
X115502380Y-122663095D01*
X114597619Y-121710714D02*
X114550000Y-121663095D01*
X114502380Y-121567857D01*
X114502380Y-121329761D01*
X114550000Y-121234523D01*
X114597619Y-121186904D01*
X114692857Y-121139285D01*
X114788095Y-121139285D01*
X114930952Y-121186904D01*
X115502380Y-121758333D01*
X115502380Y-121139285D01*
X116022380Y-119641904D02*
X115022380Y-119641904D01*
X116022380Y-119070476D02*
X115450952Y-119499047D01*
X115022380Y-119070476D02*
X115593809Y-119641904D01*
G04 #@! TO.C,U1*
X107188095Y-94702380D02*
X107188095Y-95511904D01*
X107235714Y-95607142D01*
X107283333Y-95654761D01*
X107378571Y-95702380D01*
X107569047Y-95702380D01*
X107664285Y-95654761D01*
X107711904Y-95607142D01*
X107759523Y-95511904D01*
X107759523Y-94702380D01*
X108759523Y-95702380D02*
X108188095Y-95702380D01*
X108473809Y-95702380D02*
X108473809Y-94702380D01*
X108378571Y-94845238D01*
X108283333Y-94940476D01*
X108188095Y-94988095D01*
G04 #@! TO.C,U2*
X121158095Y-87082380D02*
X121158095Y-87891904D01*
X121205714Y-87987142D01*
X121253333Y-88034761D01*
X121348571Y-88082380D01*
X121539047Y-88082380D01*
X121634285Y-88034761D01*
X121681904Y-87987142D01*
X121729523Y-87891904D01*
X121729523Y-87082380D01*
X122158095Y-87177619D02*
X122205714Y-87130000D01*
X122300952Y-87082380D01*
X122539047Y-87082380D01*
X122634285Y-87130000D01*
X122681904Y-87177619D01*
X122729523Y-87272857D01*
X122729523Y-87368095D01*
X122681904Y-87510952D01*
X122110476Y-88082380D01*
X122729523Y-88082380D01*
G04 #@! TO.C,U3*
X136906095Y-92924380D02*
X136906095Y-93733904D01*
X136953714Y-93829142D01*
X137001333Y-93876761D01*
X137096571Y-93924380D01*
X137287047Y-93924380D01*
X137382285Y-93876761D01*
X137429904Y-93829142D01*
X137477523Y-93733904D01*
X137477523Y-92924380D01*
X137858476Y-92924380D02*
X138477523Y-92924380D01*
X138144190Y-93305333D01*
X138287047Y-93305333D01*
X138382285Y-93352952D01*
X138429904Y-93400571D01*
X138477523Y-93495809D01*
X138477523Y-93733904D01*
X138429904Y-93829142D01*
X138382285Y-93876761D01*
X138287047Y-93924380D01*
X138001333Y-93924380D01*
X137906095Y-93876761D01*
X137858476Y-93829142D01*
G04 #@! TO.C,U4*
X136906095Y-68286380D02*
X136906095Y-69095904D01*
X136953714Y-69191142D01*
X137001333Y-69238761D01*
X137096571Y-69286380D01*
X137287047Y-69286380D01*
X137382285Y-69238761D01*
X137429904Y-69191142D01*
X137477523Y-69095904D01*
X137477523Y-68286380D01*
X138382285Y-68619714D02*
X138382285Y-69286380D01*
X138144190Y-68238761D02*
X137906095Y-68953047D01*
X138525142Y-68953047D01*
G04 #@! TO.C,U5*
X107188095Y-71842380D02*
X107188095Y-72651904D01*
X107235714Y-72747142D01*
X107283333Y-72794761D01*
X107378571Y-72842380D01*
X107569047Y-72842380D01*
X107664285Y-72794761D01*
X107711904Y-72747142D01*
X107759523Y-72651904D01*
X107759523Y-71842380D01*
X108711904Y-71842380D02*
X108235714Y-71842380D01*
X108188095Y-72318571D01*
X108235714Y-72270952D01*
X108330952Y-72223333D01*
X108569047Y-72223333D01*
X108664285Y-72270952D01*
X108711904Y-72318571D01*
X108759523Y-72413809D01*
X108759523Y-72651904D01*
X108711904Y-72747142D01*
X108664285Y-72794761D01*
X108569047Y-72842380D01*
X108330952Y-72842380D01*
X108235714Y-72794761D01*
X108188095Y-72747142D01*
G04 #@! TO.C,U6*
X155956095Y-72604380D02*
X155956095Y-73413904D01*
X156003714Y-73509142D01*
X156051333Y-73556761D01*
X156146571Y-73604380D01*
X156337047Y-73604380D01*
X156432285Y-73556761D01*
X156479904Y-73509142D01*
X156527523Y-73413904D01*
X156527523Y-72604380D01*
X157432285Y-72604380D02*
X157241809Y-72604380D01*
X157146571Y-72652000D01*
X157098952Y-72699619D01*
X157003714Y-72842476D01*
X156956095Y-73032952D01*
X156956095Y-73413904D01*
X157003714Y-73509142D01*
X157051333Y-73556761D01*
X157146571Y-73604380D01*
X157337047Y-73604380D01*
X157432285Y-73556761D01*
X157479904Y-73509142D01*
X157527523Y-73413904D01*
X157527523Y-73175809D01*
X157479904Y-73080571D01*
X157432285Y-73032952D01*
X157337047Y-72985333D01*
X157146571Y-72985333D01*
X157051333Y-73032952D01*
X157003714Y-73080571D01*
X156956095Y-73175809D01*
G04 #@! TO.C,C1*
X145629333Y-66143142D02*
X145581714Y-66190761D01*
X145438857Y-66238380D01*
X145343619Y-66238380D01*
X145200761Y-66190761D01*
X145105523Y-66095523D01*
X145057904Y-66000285D01*
X145010285Y-65809809D01*
X145010285Y-65666952D01*
X145057904Y-65476476D01*
X145105523Y-65381238D01*
X145200761Y-65286000D01*
X145343619Y-65238380D01*
X145438857Y-65238380D01*
X145581714Y-65286000D01*
X145629333Y-65333619D01*
X146581714Y-66238380D02*
X146010285Y-66238380D01*
X146296000Y-66238380D02*
X146296000Y-65238380D01*
X146200761Y-65381238D01*
X146105523Y-65476476D01*
X146010285Y-65524095D01*
G04 #@! TO.C,C2*
X130135333Y-84939142D02*
X130087714Y-84986761D01*
X129944857Y-85034380D01*
X129849619Y-85034380D01*
X129706761Y-84986761D01*
X129611523Y-84891523D01*
X129563904Y-84796285D01*
X129516285Y-84605809D01*
X129516285Y-84462952D01*
X129563904Y-84272476D01*
X129611523Y-84177238D01*
X129706761Y-84082000D01*
X129849619Y-84034380D01*
X129944857Y-84034380D01*
X130087714Y-84082000D01*
X130135333Y-84129619D01*
X130516285Y-84129619D02*
X130563904Y-84082000D01*
X130659142Y-84034380D01*
X130897238Y-84034380D01*
X130992476Y-84082000D01*
X131040095Y-84129619D01*
X131087714Y-84224857D01*
X131087714Y-84320095D01*
X131040095Y-84462952D01*
X130468666Y-85034380D01*
X131087714Y-85034380D01*
G04 #@! TO.C,C3*
X145629333Y-90273142D02*
X145581714Y-90320761D01*
X145438857Y-90368380D01*
X145343619Y-90368380D01*
X145200761Y-90320761D01*
X145105523Y-90225523D01*
X145057904Y-90130285D01*
X145010285Y-89939809D01*
X145010285Y-89796952D01*
X145057904Y-89606476D01*
X145105523Y-89511238D01*
X145200761Y-89416000D01*
X145343619Y-89368380D01*
X145438857Y-89368380D01*
X145581714Y-89416000D01*
X145629333Y-89463619D01*
X145962666Y-89368380D02*
X146581714Y-89368380D01*
X146248380Y-89749333D01*
X146391238Y-89749333D01*
X146486476Y-89796952D01*
X146534095Y-89844571D01*
X146581714Y-89939809D01*
X146581714Y-90177904D01*
X146534095Y-90273142D01*
X146486476Y-90320761D01*
X146391238Y-90368380D01*
X146105523Y-90368380D01*
X146010285Y-90320761D01*
X145962666Y-90273142D01*
G04 #@! TO.C,C4*
X117943333Y-94337142D02*
X117895714Y-94384761D01*
X117752857Y-94432380D01*
X117657619Y-94432380D01*
X117514761Y-94384761D01*
X117419523Y-94289523D01*
X117371904Y-94194285D01*
X117324285Y-94003809D01*
X117324285Y-93860952D01*
X117371904Y-93670476D01*
X117419523Y-93575238D01*
X117514761Y-93480000D01*
X117657619Y-93432380D01*
X117752857Y-93432380D01*
X117895714Y-93480000D01*
X117943333Y-93527619D01*
X118800476Y-93765714D02*
X118800476Y-94432380D01*
X118562380Y-93384761D02*
X118324285Y-94099047D01*
X118943333Y-94099047D01*
G04 #@! TO.C,C5*
X115403333Y-69699142D02*
X115355714Y-69746761D01*
X115212857Y-69794380D01*
X115117619Y-69794380D01*
X114974761Y-69746761D01*
X114879523Y-69651523D01*
X114831904Y-69556285D01*
X114784285Y-69365809D01*
X114784285Y-69222952D01*
X114831904Y-69032476D01*
X114879523Y-68937238D01*
X114974761Y-68842000D01*
X115117619Y-68794380D01*
X115212857Y-68794380D01*
X115355714Y-68842000D01*
X115403333Y-68889619D01*
X116308095Y-68794380D02*
X115831904Y-68794380D01*
X115784285Y-69270571D01*
X115831904Y-69222952D01*
X115927142Y-69175333D01*
X116165238Y-69175333D01*
X116260476Y-69222952D01*
X116308095Y-69270571D01*
X116355714Y-69365809D01*
X116355714Y-69603904D01*
X116308095Y-69699142D01*
X116260476Y-69746761D01*
X116165238Y-69794380D01*
X115927142Y-69794380D01*
X115831904Y-69746761D01*
X115784285Y-69699142D01*
G04 #@! TO.C,C6*
X172553333Y-70461142D02*
X172505714Y-70508761D01*
X172362857Y-70556380D01*
X172267619Y-70556380D01*
X172124761Y-70508761D01*
X172029523Y-70413523D01*
X171981904Y-70318285D01*
X171934285Y-70127809D01*
X171934285Y-69984952D01*
X171981904Y-69794476D01*
X172029523Y-69699238D01*
X172124761Y-69604000D01*
X172267619Y-69556380D01*
X172362857Y-69556380D01*
X172505714Y-69604000D01*
X172553333Y-69651619D01*
X173410476Y-69556380D02*
X173220000Y-69556380D01*
X173124761Y-69604000D01*
X173077142Y-69651619D01*
X172981904Y-69794476D01*
X172934285Y-69984952D01*
X172934285Y-70365904D01*
X172981904Y-70461142D01*
X173029523Y-70508761D01*
X173124761Y-70556380D01*
X173315238Y-70556380D01*
X173410476Y-70508761D01*
X173458095Y-70461142D01*
X173505714Y-70365904D01*
X173505714Y-70127809D01*
X173458095Y-70032571D01*
X173410476Y-69984952D01*
X173315238Y-69937333D01*
X173124761Y-69937333D01*
X173029523Y-69984952D01*
X172981904Y-70032571D01*
X172934285Y-70127809D01*
G04 #@! TO.C,C7*
X195159333Y-75795142D02*
X195111714Y-75842761D01*
X194968857Y-75890380D01*
X194873619Y-75890380D01*
X194730761Y-75842761D01*
X194635523Y-75747523D01*
X194587904Y-75652285D01*
X194540285Y-75461809D01*
X194540285Y-75318952D01*
X194587904Y-75128476D01*
X194635523Y-75033238D01*
X194730761Y-74938000D01*
X194873619Y-74890380D01*
X194968857Y-74890380D01*
X195111714Y-74938000D01*
X195159333Y-74985619D01*
X195492666Y-74890380D02*
X196159333Y-74890380D01*
X195730761Y-75890380D01*
G04 #@! TO.C,R1*
X109922380Y-129726666D02*
X109446190Y-130060000D01*
X109922380Y-130298095D02*
X108922380Y-130298095D01*
X108922380Y-129917142D01*
X108970000Y-129821904D01*
X109017619Y-129774285D01*
X109112857Y-129726666D01*
X109255714Y-129726666D01*
X109350952Y-129774285D01*
X109398571Y-129821904D01*
X109446190Y-129917142D01*
X109446190Y-130298095D01*
X109922380Y-128774285D02*
X109922380Y-129345714D01*
X109922380Y-129060000D02*
X108922380Y-129060000D01*
X109065238Y-129155238D01*
X109160476Y-129250476D01*
X109208095Y-129345714D01*
G04 #@! TO.C,R2*
X116282380Y-129636666D02*
X115806190Y-129970000D01*
X116282380Y-130208095D02*
X115282380Y-130208095D01*
X115282380Y-129827142D01*
X115330000Y-129731904D01*
X115377619Y-129684285D01*
X115472857Y-129636666D01*
X115615714Y-129636666D01*
X115710952Y-129684285D01*
X115758571Y-129731904D01*
X115806190Y-129827142D01*
X115806190Y-130208095D01*
X115377619Y-129255714D02*
X115330000Y-129208095D01*
X115282380Y-129112857D01*
X115282380Y-128874761D01*
X115330000Y-128779523D01*
X115377619Y-128731904D01*
X115472857Y-128684285D01*
X115568095Y-128684285D01*
X115710952Y-128731904D01*
X116282380Y-129303333D01*
X116282380Y-128684285D01*
G04 #@! TO.C,C8*
X187323333Y-128207142D02*
X187275714Y-128254761D01*
X187132857Y-128302380D01*
X187037619Y-128302380D01*
X186894761Y-128254761D01*
X186799523Y-128159523D01*
X186751904Y-128064285D01*
X186704285Y-127873809D01*
X186704285Y-127730952D01*
X186751904Y-127540476D01*
X186799523Y-127445238D01*
X186894761Y-127350000D01*
X187037619Y-127302380D01*
X187132857Y-127302380D01*
X187275714Y-127350000D01*
X187323333Y-127397619D01*
X187894761Y-127730952D02*
X187799523Y-127683333D01*
X187751904Y-127635714D01*
X187704285Y-127540476D01*
X187704285Y-127492857D01*
X187751904Y-127397619D01*
X187799523Y-127350000D01*
X187894761Y-127302380D01*
X188085238Y-127302380D01*
X188180476Y-127350000D01*
X188228095Y-127397619D01*
X188275714Y-127492857D01*
X188275714Y-127540476D01*
X188228095Y-127635714D01*
X188180476Y-127683333D01*
X188085238Y-127730952D01*
X187894761Y-127730952D01*
X187799523Y-127778571D01*
X187751904Y-127826190D01*
X187704285Y-127921428D01*
X187704285Y-128111904D01*
X187751904Y-128207142D01*
X187799523Y-128254761D01*
X187894761Y-128302380D01*
X188085238Y-128302380D01*
X188180476Y-128254761D01*
X188228095Y-128207142D01*
X188275714Y-128111904D01*
X188275714Y-127921428D01*
X188228095Y-127826190D01*
X188180476Y-127778571D01*
X188085238Y-127730952D01*
G04 #@! TD*
%LPC*%
D13*
G04 #@! TO.C,U7*
X180340000Y-80645000D03*
D14*
X195580000Y-113665000D03*
X180340000Y-83185000D03*
X195580000Y-111125000D03*
X180340000Y-85725000D03*
X195580000Y-108585000D03*
X180340000Y-88265000D03*
X195580000Y-106045000D03*
X180340000Y-90805000D03*
X195580000Y-103505000D03*
X180340000Y-93345000D03*
X195580000Y-100965000D03*
X180340000Y-95885000D03*
X195580000Y-98425000D03*
X180340000Y-98425000D03*
X195580000Y-95885000D03*
X180340000Y-100965000D03*
X195580000Y-93345000D03*
X180340000Y-103505000D03*
X195580000Y-90805000D03*
X180340000Y-106045000D03*
X195580000Y-88265000D03*
X180340000Y-108585000D03*
X195580000Y-85725000D03*
X180340000Y-111125000D03*
X195580000Y-83185000D03*
X180340000Y-113665000D03*
X195580000Y-80645000D03*
G04 #@! TD*
D15*
G04 #@! TO.C,J1*
X175260000Y-125095000D03*
D16*
X175260000Y-127635000D03*
X172720000Y-125095000D03*
X172720000Y-127635000D03*
X170180000Y-125095000D03*
X170180000Y-127635000D03*
X167640000Y-125095000D03*
X167640000Y-127635000D03*
X165100000Y-125095000D03*
X165100000Y-127635000D03*
X162560000Y-125095000D03*
X162560000Y-127635000D03*
X160020000Y-125095000D03*
X160020000Y-127635000D03*
X157480000Y-125095000D03*
X157480000Y-127635000D03*
X154940000Y-125095000D03*
X154940000Y-127635000D03*
X152400000Y-125095000D03*
X152400000Y-127635000D03*
X149860000Y-125095000D03*
X149860000Y-127635000D03*
X147320000Y-125095000D03*
X147320000Y-127635000D03*
X144780000Y-125095000D03*
X144780000Y-127635000D03*
X142240000Y-125095000D03*
X142240000Y-127635000D03*
X139700000Y-125095000D03*
X139700000Y-127635000D03*
X137160000Y-125095000D03*
X137160000Y-127635000D03*
X134620000Y-125095000D03*
X134620000Y-127635000D03*
X132080000Y-125095000D03*
X132080000Y-127635000D03*
X129540000Y-125095000D03*
X129540000Y-127635000D03*
X127000000Y-125095000D03*
X127000000Y-127635000D03*
G04 #@! TD*
D17*
G04 #@! TO.C,D1*
X111760000Y-120015000D03*
D18*
X111760000Y-122555000D03*
G04 #@! TD*
D17*
G04 #@! TO.C,D2*
X118110000Y-120015000D03*
D18*
X118110000Y-122555000D03*
G04 #@! TD*
D13*
G04 #@! TO.C,U1*
X107950000Y-97790000D03*
D14*
X115570000Y-113030000D03*
X107950000Y-100330000D03*
X115570000Y-110490000D03*
X107950000Y-102870000D03*
X115570000Y-107950000D03*
X107950000Y-105410000D03*
X115570000Y-105410000D03*
X107950000Y-107950000D03*
X115570000Y-102870000D03*
X107950000Y-110490000D03*
X115570000Y-100330000D03*
X107950000Y-113030000D03*
X115570000Y-97790000D03*
G04 #@! TD*
D13*
G04 #@! TO.C,U2*
X122555000Y-90170000D03*
D14*
X130175000Y-113030000D03*
X122555000Y-92710000D03*
X130175000Y-110490000D03*
X122555000Y-95250000D03*
X130175000Y-107950000D03*
X122555000Y-97790000D03*
X130175000Y-105410000D03*
X122555000Y-100330000D03*
X130175000Y-102870000D03*
X122555000Y-102870000D03*
X130175000Y-100330000D03*
X122555000Y-105410000D03*
X130175000Y-97790000D03*
X122555000Y-107950000D03*
X130175000Y-95250000D03*
X122555000Y-110490000D03*
X130175000Y-92710000D03*
X122555000Y-113030000D03*
X130175000Y-90170000D03*
G04 #@! TD*
D13*
G04 #@! TO.C,U3*
X138430000Y-95885000D03*
D14*
X146050000Y-113665000D03*
X138430000Y-98425000D03*
X146050000Y-111125000D03*
X138430000Y-100965000D03*
X146050000Y-108585000D03*
X138430000Y-103505000D03*
X146050000Y-106045000D03*
X138430000Y-106045000D03*
X146050000Y-103505000D03*
X138430000Y-108585000D03*
X146050000Y-100965000D03*
X138430000Y-111125000D03*
X146050000Y-98425000D03*
X138430000Y-113665000D03*
X146050000Y-95885000D03*
G04 #@! TD*
D13*
G04 #@! TO.C,U4*
X138430000Y-71120000D03*
D14*
X146050000Y-86360000D03*
X138430000Y-73660000D03*
X146050000Y-83820000D03*
X138430000Y-76200000D03*
X146050000Y-81280000D03*
X138430000Y-78740000D03*
X146050000Y-78740000D03*
X138430000Y-81280000D03*
X146050000Y-76200000D03*
X138430000Y-83820000D03*
X146050000Y-73660000D03*
X138430000Y-86360000D03*
X146050000Y-71120000D03*
G04 #@! TD*
D13*
G04 #@! TO.C,U5*
X107950000Y-74930000D03*
D14*
X115570000Y-90170000D03*
X107950000Y-77470000D03*
X115570000Y-87630000D03*
X107950000Y-80010000D03*
X115570000Y-85090000D03*
X107950000Y-82550000D03*
X115570000Y-82550000D03*
X107950000Y-85090000D03*
X115570000Y-80010000D03*
X107950000Y-87630000D03*
X115570000Y-77470000D03*
X107950000Y-90170000D03*
X115570000Y-74930000D03*
G04 #@! TD*
D13*
G04 #@! TO.C,U6*
X157480000Y-75565000D03*
D14*
X172720000Y-113665000D03*
X157480000Y-78105000D03*
X172720000Y-111125000D03*
X157480000Y-80645000D03*
X172720000Y-108585000D03*
X157480000Y-83185000D03*
X172720000Y-106045000D03*
X157480000Y-85725000D03*
X172720000Y-103505000D03*
X157480000Y-88265000D03*
X172720000Y-100965000D03*
X157480000Y-90805000D03*
X172720000Y-98425000D03*
X157480000Y-93345000D03*
X172720000Y-95885000D03*
X157480000Y-95885000D03*
X172720000Y-93345000D03*
X157480000Y-98425000D03*
X172720000Y-90805000D03*
X157480000Y-100965000D03*
X172720000Y-88265000D03*
X157480000Y-103505000D03*
X172720000Y-85725000D03*
X157480000Y-106045000D03*
X172720000Y-83185000D03*
X157480000Y-108585000D03*
X172720000Y-80645000D03*
X157480000Y-111125000D03*
X172720000Y-78105000D03*
X157480000Y-113665000D03*
X172720000Y-75565000D03*
G04 #@! TD*
D19*
G04 #@! TO.C,C1*
X146010000Y-67945000D03*
X143510000Y-67945000D03*
G04 #@! TD*
G04 #@! TO.C,C2*
X130135000Y-86995000D03*
X127635000Y-86995000D03*
G04 #@! TD*
G04 #@! TO.C,C3*
X146010000Y-92075000D03*
X143510000Y-92075000D03*
G04 #@! TD*
G04 #@! TO.C,C4*
X115530000Y-93980000D03*
X113030000Y-93980000D03*
G04 #@! TD*
G04 #@! TO.C,C5*
X115570000Y-71755000D03*
X113070000Y-71755000D03*
G04 #@! TD*
G04 #@! TO.C,C6*
X172720000Y-72390000D03*
X170220000Y-72390000D03*
G04 #@! TD*
G04 #@! TO.C,C7*
X195540000Y-77470000D03*
X193040000Y-77470000D03*
G04 #@! TD*
G04 #@! TO.C,R1*
X111760000Y-135255000D03*
D14*
X111760000Y-125095000D03*
G04 #@! TD*
D19*
G04 #@! TO.C,R2*
X118110000Y-135255000D03*
D14*
X118110000Y-125095000D03*
G04 #@! TD*
D13*
G04 #@! TO.C,C8*
X186240000Y-131600000D03*
D19*
X188740000Y-131600000D03*
G04 #@! TD*
D20*
G04 #@! TO.C,MH1*
X106650000Y-68200000D03*
G04 #@! TD*
G04 #@! TO.C,MH2*
X195640000Y-68150000D03*
G04 #@! TD*
G04 #@! TO.C,MH3*
X106550000Y-134220000D03*
G04 #@! TD*
G04 #@! TO.C,MH4*
X195640000Y-134120000D03*
G04 #@! TD*
M02*
