G04 #@! TF.GenerationSoftware,KiCad,Pcbnew,(5.0.0-3-g5ebb6b6)*
G04 #@! TF.CreationDate,2019-01-10T21:12:22+09:00*
G04 #@! TF.ProjectId,Z80-1MSRAM,5A38302D314D5352414D2E6B69636164,rev?*
G04 #@! TF.SameCoordinates,Original*
G04 #@! TF.FileFunction,Soldermask,Top*
G04 #@! TF.FilePolarity,Negative*
%FSLAX46Y46*%
G04 Gerber Fmt 4.6, Leading zero omitted, Abs format (unit mm)*
G04 Created by KiCad (PCBNEW (5.0.0-3-g5ebb6b6)) date *
%MOMM*%
%LPD*%
G01*
G04 APERTURE LIST*
%ADD10R,2.100000X2.100000*%
%ADD11O,2.100000X2.100000*%
%ADD12R,2.200000X2.200000*%
%ADD13C,2.200000*%
%ADD14R,2.000000X2.000000*%
%ADD15O,2.000000X2.000000*%
%ADD16C,2.000000*%
%ADD17R,2.127200X2.127200*%
%ADD18O,2.127200X2.127200*%
%ADD19R,2.400000X2.400000*%
%ADD20C,2.400000*%
%ADD21C,3.600000*%
G04 APERTURE END LIST*
D10*
G04 #@! TO.C,J2*
X117920000Y-101727000D03*
D11*
X117920000Y-104267000D03*
X115380000Y-101727000D03*
X115380000Y-104267000D03*
X112840000Y-101727000D03*
X112840000Y-104267000D03*
X110300000Y-101727000D03*
X110300000Y-104267000D03*
G04 #@! TD*
D12*
G04 #@! TO.C,D3*
X125870000Y-118540000D03*
D13*
X125870000Y-121080000D03*
G04 #@! TD*
D14*
G04 #@! TO.C,U2*
X139764000Y-97980500D03*
D15*
X147384000Y-113220500D03*
X139764000Y-100520500D03*
X147384000Y-110680500D03*
X139764000Y-103060500D03*
X147384000Y-108140500D03*
X139764000Y-105600500D03*
X147384000Y-105600500D03*
X139764000Y-108140500D03*
X147384000Y-103060500D03*
X139764000Y-110680500D03*
X147384000Y-100520500D03*
X139764000Y-113220500D03*
X147384000Y-97980500D03*
G04 #@! TD*
D16*
G04 #@! TO.C,R3*
X110109000Y-112586000D03*
D15*
X120269000Y-112586000D03*
G04 #@! TD*
D14*
G04 #@! TO.C,U7*
X180340000Y-80645000D03*
D15*
X195580000Y-113665000D03*
X180340000Y-83185000D03*
X195580000Y-111125000D03*
X180340000Y-85725000D03*
X195580000Y-108585000D03*
X180340000Y-88265000D03*
X195580000Y-106045000D03*
X180340000Y-90805000D03*
X195580000Y-103505000D03*
X180340000Y-93345000D03*
X195580000Y-100965000D03*
X180340000Y-95885000D03*
X195580000Y-98425000D03*
X180340000Y-98425000D03*
X195580000Y-95885000D03*
X180340000Y-100965000D03*
X195580000Y-93345000D03*
X180340000Y-103505000D03*
X195580000Y-90805000D03*
X180340000Y-106045000D03*
X195580000Y-88265000D03*
X180340000Y-108585000D03*
X195580000Y-85725000D03*
X180340000Y-111125000D03*
X195580000Y-83185000D03*
X180340000Y-113665000D03*
X195580000Y-80645000D03*
G04 #@! TD*
D17*
G04 #@! TO.C,J1*
X175260000Y-125095000D03*
D18*
X175260000Y-127635000D03*
X172720000Y-125095000D03*
X172720000Y-127635000D03*
X170180000Y-125095000D03*
X170180000Y-127635000D03*
X167640000Y-125095000D03*
X167640000Y-127635000D03*
X165100000Y-125095000D03*
X165100000Y-127635000D03*
X162560000Y-125095000D03*
X162560000Y-127635000D03*
X160020000Y-125095000D03*
X160020000Y-127635000D03*
X157480000Y-125095000D03*
X157480000Y-127635000D03*
X154940000Y-125095000D03*
X154940000Y-127635000D03*
X152400000Y-125095000D03*
X152400000Y-127635000D03*
X149860000Y-125095000D03*
X149860000Y-127635000D03*
X147320000Y-125095000D03*
X147320000Y-127635000D03*
X144780000Y-125095000D03*
X144780000Y-127635000D03*
X142240000Y-125095000D03*
X142240000Y-127635000D03*
X139700000Y-125095000D03*
X139700000Y-127635000D03*
X137160000Y-125095000D03*
X137160000Y-127635000D03*
X134620000Y-125095000D03*
X134620000Y-127635000D03*
X132080000Y-125095000D03*
X132080000Y-127635000D03*
X129540000Y-125095000D03*
X129540000Y-127635000D03*
X127000000Y-125095000D03*
X127000000Y-127635000D03*
G04 #@! TD*
D19*
G04 #@! TO.C,D1*
X111920000Y-118600000D03*
D20*
X111920000Y-121140000D03*
G04 #@! TD*
D19*
G04 #@! TO.C,D2*
X118370000Y-118680000D03*
D20*
X118370000Y-121220000D03*
G04 #@! TD*
D14*
G04 #@! TO.C,U1*
X139890000Y-74295000D03*
D15*
X147510000Y-89535000D03*
X139890000Y-76835000D03*
X147510000Y-86995000D03*
X139890000Y-79375000D03*
X147510000Y-84455000D03*
X139890000Y-81915000D03*
X147510000Y-81915000D03*
X139890000Y-84455000D03*
X147510000Y-79375000D03*
X139890000Y-86995000D03*
X147510000Y-76835000D03*
X139890000Y-89535000D03*
X147510000Y-74295000D03*
G04 #@! TD*
D14*
G04 #@! TO.C,U3*
X109230000Y-75410000D03*
D15*
X116850000Y-93190000D03*
X109230000Y-77950000D03*
X116850000Y-90650000D03*
X109230000Y-80490000D03*
X116850000Y-88110000D03*
X109230000Y-83030000D03*
X116850000Y-85570000D03*
X109230000Y-85570000D03*
X116850000Y-83030000D03*
X109230000Y-88110000D03*
X116850000Y-80490000D03*
X109230000Y-90650000D03*
X116850000Y-77950000D03*
X109230000Y-93190000D03*
X116850000Y-75410000D03*
G04 #@! TD*
D14*
G04 #@! TO.C,U4*
X125158000Y-74358500D03*
D15*
X132778000Y-89598500D03*
X125158000Y-76898500D03*
X132778000Y-87058500D03*
X125158000Y-79438500D03*
X132778000Y-84518500D03*
X125158000Y-81978500D03*
X132778000Y-81978500D03*
X125158000Y-84518500D03*
X132778000Y-79438500D03*
X125158000Y-87058500D03*
X132778000Y-76898500D03*
X125158000Y-89598500D03*
X132778000Y-74358500D03*
G04 #@! TD*
D14*
G04 #@! TO.C,U5*
X124904000Y-98107500D03*
D15*
X132524000Y-113347500D03*
X124904000Y-100647500D03*
X132524000Y-110807500D03*
X124904000Y-103187500D03*
X132524000Y-108267500D03*
X124904000Y-105727500D03*
X132524000Y-105727500D03*
X124904000Y-108267500D03*
X132524000Y-103187500D03*
X124904000Y-110807500D03*
X132524000Y-100647500D03*
X124904000Y-113347500D03*
X132524000Y-98107500D03*
G04 #@! TD*
D14*
G04 #@! TO.C,U6*
X157480000Y-75565000D03*
D15*
X172720000Y-113665000D03*
X157480000Y-78105000D03*
X172720000Y-111125000D03*
X157480000Y-80645000D03*
X172720000Y-108585000D03*
X157480000Y-83185000D03*
X172720000Y-106045000D03*
X157480000Y-85725000D03*
X172720000Y-103505000D03*
X157480000Y-88265000D03*
X172720000Y-100965000D03*
X157480000Y-90805000D03*
X172720000Y-98425000D03*
X157480000Y-93345000D03*
X172720000Y-95885000D03*
X157480000Y-95885000D03*
X172720000Y-93345000D03*
X157480000Y-98425000D03*
X172720000Y-90805000D03*
X157480000Y-100965000D03*
X172720000Y-88265000D03*
X157480000Y-103505000D03*
X172720000Y-85725000D03*
X157480000Y-106045000D03*
X172720000Y-83185000D03*
X157480000Y-108585000D03*
X172720000Y-80645000D03*
X157480000Y-111125000D03*
X172720000Y-78105000D03*
X157480000Y-113665000D03*
X172720000Y-75565000D03*
G04 #@! TD*
D16*
G04 #@! TO.C,C1*
X147920000Y-70760000D03*
X145420000Y-70760000D03*
G04 #@! TD*
G04 #@! TO.C,C2*
X147828000Y-94551500D03*
X145328000Y-94551500D03*
G04 #@! TD*
G04 #@! TO.C,C3*
X117390000Y-72000000D03*
X114890000Y-72000000D03*
G04 #@! TD*
G04 #@! TO.C,C4*
X133096000Y-70548500D03*
X130596000Y-70548500D03*
G04 #@! TD*
G04 #@! TO.C,C5*
X133032000Y-94678500D03*
X130532000Y-94678500D03*
G04 #@! TD*
G04 #@! TO.C,C6*
X172720000Y-72390000D03*
X170220000Y-72390000D03*
G04 #@! TD*
G04 #@! TO.C,C7*
X195540000Y-77470000D03*
X193040000Y-77470000D03*
G04 #@! TD*
G04 #@! TO.C,R1*
X111760000Y-135255000D03*
D15*
X111760000Y-125095000D03*
G04 #@! TD*
D16*
G04 #@! TO.C,R2*
X118110000Y-135255000D03*
D15*
X118110000Y-125095000D03*
G04 #@! TD*
D14*
G04 #@! TO.C,C8*
X185890000Y-130420000D03*
D16*
X188390000Y-130420000D03*
G04 #@! TD*
D21*
G04 #@! TO.C,MH1*
X106650000Y-68200000D03*
G04 #@! TD*
G04 #@! TO.C,MH2*
X195640000Y-68150000D03*
G04 #@! TD*
G04 #@! TO.C,MH3*
X106550000Y-134220000D03*
G04 #@! TD*
G04 #@! TO.C,MH4*
X195640000Y-134120000D03*
G04 #@! TD*
M02*
