M48
; DRILL file {KiCad (5.1.4-0-10_14)} date 2021 March 25, Thursday 21:32:35
; FORMAT={-:-/ absolute / metric / decimal}
; #@! TF.CreationDate,2021-03-25T21:32:35+09:00
; #@! TF.GenerationSoftware,Kicad,Pcbnew,(5.1.4-0-10_14)
FMAT,2
METRIC
T1C0.400
T2C0.800
T3C0.900
T4C1.000
T5C1.001
T6C1.016
T7C3.200
%
G90
G05
T1
X134.943Y-78.526
X134.946Y-77.35
X136.333Y-100.21
X141.57Y-81.556
X149.835Y-112.669
X150.147Y-79.477
X158.52Y-73.726
X162.642Y-101.495
X170.948Y-93.875
X172.037Y-97.471
X178.5Y-69.5
X179.5Y-88.0
X192.0Y-106.5
T2
X164.73Y-85.2
X167.23Y-85.2
X118.42Y-122.26
X118.42Y-132.42
X135.64Y-127.69
X145.8Y-127.69
X114.95Y-78.61
X128.38Y-102.05
X130.88Y-102.05
X187.56Y-90.25
X190.06Y-90.25
X113.0Y-66.5
X115.5Y-66.5
X128.366Y-78.058
X130.866Y-78.058
X122.761Y-126.22
X122.761Y-128.72
X172.558Y-81.776
X182.718Y-81.776
X143.19Y-78.27
X145.69Y-78.27
X117.45Y-78.61
X137.66Y-81.805
X137.66Y-84.345
X137.66Y-86.885
X137.66Y-89.425
X137.66Y-91.965
X137.66Y-94.505
X137.66Y-97.045
X145.28Y-81.805
X145.28Y-84.345
X145.28Y-86.885
X145.28Y-89.425
X145.28Y-91.965
X145.28Y-94.505
X145.28Y-97.045
X137.534Y-105.49
X137.534Y-108.03
X137.534Y-110.57
X137.534Y-113.11
X137.534Y-115.65
X137.534Y-118.19
X137.534Y-120.73
X145.154Y-105.49
X145.154Y-108.03
X145.154Y-110.57
X145.154Y-113.11
X145.154Y-115.65
X145.154Y-118.19
X145.154Y-120.73
X122.674Y-105.618
X122.674Y-108.158
X122.674Y-110.698
X122.674Y-113.238
X122.674Y-115.778
X122.674Y-118.318
X130.294Y-113.238
X130.294Y-115.778
X130.294Y-118.318
X130.294Y-120.858
X143.098Y-102.062
X145.598Y-102.062
X122.674Y-120.858
X130.294Y-105.618
X130.294Y-108.158
X130.294Y-110.698
X126.16Y-127.91
X128.7Y-127.91
X174.34Y-109.115
X122.928Y-81.868
X122.928Y-84.408
X122.928Y-86.948
X122.928Y-89.489
X122.928Y-92.028
X122.928Y-94.569
X122.928Y-97.108
X130.548Y-81.868
X130.548Y-84.408
X130.548Y-86.948
X130.548Y-89.489
X130.548Y-92.028
X130.548Y-94.569
X130.548Y-97.108
X109.29Y-82.02
X109.29Y-84.56
X109.29Y-87.1
X109.29Y-89.64
X109.29Y-92.18
X109.29Y-94.72
X109.29Y-97.26
X109.29Y-99.8
X116.91Y-82.02
X116.91Y-84.56
X116.91Y-87.1
X116.91Y-89.64
X116.91Y-92.18
X116.91Y-94.72
X116.91Y-97.26
X116.91Y-99.8
X174.34Y-93.875
X174.34Y-96.415
X174.34Y-98.955
X174.34Y-101.495
X174.34Y-104.035
X174.34Y-106.575
X174.34Y-111.655
X174.34Y-114.195
X174.34Y-116.735
X174.34Y-119.275
X174.34Y-121.815
X174.34Y-124.355
X174.34Y-126.895
X189.58Y-93.875
X189.58Y-96.415
X189.58Y-98.955
X189.58Y-101.495
X189.58Y-104.035
X189.58Y-106.575
X189.58Y-109.115
X189.58Y-111.655
X189.58Y-114.195
X189.58Y-116.735
X151.48Y-88.795
X151.48Y-91.335
X151.48Y-93.875
X151.48Y-96.415
X151.48Y-98.955
X151.48Y-101.495
X189.58Y-119.275
X151.48Y-104.035
X151.48Y-106.575
X151.48Y-109.115
X151.48Y-111.655
X151.48Y-114.195
X151.48Y-116.735
X151.48Y-119.275
X151.48Y-121.815
X151.48Y-124.355
X151.48Y-126.895
X166.72Y-88.795
X166.72Y-91.335
X166.72Y-93.875
X166.72Y-96.415
X166.72Y-98.955
X166.72Y-101.495
X166.72Y-104.035
X166.72Y-106.575
X166.72Y-109.115
X166.72Y-111.655
X166.72Y-114.195
X131.24Y-127.91
X172.558Y-84.824
X182.718Y-84.824
X166.72Y-119.275
X166.72Y-121.815
X166.72Y-124.355
X172.53Y-87.9
X182.69Y-87.9
X189.58Y-121.815
X189.58Y-124.355
X189.58Y-126.895
X166.72Y-116.735
X166.72Y-126.895
T3
X186.41Y-74.47
X186.41Y-77.01
T4
X109.344Y-106.305
X109.344Y-108.845
X111.884Y-106.305
X111.884Y-108.845
X114.424Y-106.305
X114.424Y-108.845
X116.964Y-106.305
X116.964Y-108.845
X196.5Y-91.84
X196.5Y-94.38
X196.5Y-96.92
X196.5Y-99.46
X196.5Y-102.0
X105.12Y-87.86
X105.12Y-90.4
X105.12Y-92.94
X196.0Y-74.0
X196.0Y-76.54
X196.0Y-79.08
X192.5Y-74.0
X192.5Y-76.54
X192.5Y-79.08
X110.387Y-114.59
X112.927Y-114.59
X115.467Y-114.59
T5
X173.91Y-74.442
X173.91Y-76.982
X180.36Y-74.522
X180.36Y-77.062
T6
X125.0Y-66.96
X125.0Y-69.5
X127.54Y-66.96
X127.54Y-69.5
X130.08Y-66.96
X130.08Y-69.5
X132.62Y-66.96
X132.62Y-69.5
X135.16Y-66.96
X135.16Y-69.5
X137.7Y-66.96
X137.7Y-69.5
X140.24Y-66.96
X140.24Y-69.5
X142.78Y-66.96
X142.78Y-69.5
X145.32Y-66.96
X145.32Y-69.5
X147.86Y-66.96
X147.86Y-69.5
X150.4Y-66.96
X150.4Y-69.5
X152.94Y-66.96
X152.94Y-69.5
X155.48Y-66.96
X155.48Y-69.5
X158.02Y-66.96
X158.02Y-69.5
X160.56Y-66.96
X160.56Y-69.5
X163.1Y-66.96
X163.1Y-69.5
X165.64Y-66.96
X165.64Y-69.5
X168.18Y-66.96
X168.18Y-69.5
X170.72Y-66.96
X170.72Y-69.5
X173.26Y-66.96
X173.26Y-69.5
T7
X194.5Y-64.5
X105.5Y-64.5
X105.51Y-130.49
X194.5Y-130.49
T0
M30
