M48
; DRILL file {KiCad (5.1.4-0-10_14)} date 2021 March 24, Wednesday 21:25:28
; FORMAT={-:-/ absolute / metric / decimal}
; #@! TF.CreationDate,2021-03-24T21:25:28+09:00
; #@! TF.GenerationSoftware,Kicad,Pcbnew,(5.1.4-0-10_14)
FMAT,2
METRIC
T1C0.400
T2C0.800
T3C0.900
T4C1.000
T5C1.001
T6C1.016
T7C3.200
%
G90
G05
T1
X127.728Y-91.994
X131.058Y-85.798
X135.877Y-83.471
X139.058Y-118.953
X143.016Y-115.727
X147.31Y-110.665
X156.926Y-115.19
T2
X180.34Y-75.875
X180.34Y-78.415
X180.34Y-80.955
X180.34Y-83.495
X180.34Y-86.035
X180.34Y-88.575
X180.34Y-91.115
X180.34Y-93.655
X180.34Y-96.195
X180.34Y-98.735
X180.34Y-101.275
X180.34Y-103.815
X180.34Y-106.355
X180.34Y-108.895
X195.58Y-75.875
X195.58Y-78.415
X195.58Y-80.955
X187.92Y-122.865
X195.58Y-83.495
X195.58Y-86.035
X195.58Y-88.575
X195.58Y-91.115
X195.58Y-93.655
X195.58Y-96.195
X195.58Y-98.735
X195.58Y-101.275
X195.58Y-103.815
X195.58Y-106.355
X195.58Y-108.895
X139.89Y-69.525
X139.89Y-72.065
X139.89Y-74.605
X139.89Y-77.145
X139.89Y-84.765
X147.51Y-79.685
X147.51Y-82.225
X147.51Y-84.765
X185.42Y-122.865
X139.89Y-79.685
X139.89Y-82.225
X147.51Y-69.525
X147.51Y-72.065
X147.51Y-74.605
X147.51Y-77.145
X155.575Y-116.515
X165.735Y-116.515
X139.764Y-93.21
X139.764Y-95.751
X139.764Y-98.29
X139.764Y-100.831
X139.764Y-103.37
X139.764Y-105.91
X139.764Y-108.45
X147.384Y-93.21
X147.384Y-95.751
X147.384Y-98.29
X147.384Y-100.831
X147.384Y-103.37
X119.38Y-109.784
X109.22Y-109.784
X147.384Y-105.91
X147.384Y-108.45
X170.22Y-67.62
X172.72Y-67.62
X109.728Y-121.976
X119.888Y-121.976
X109.728Y-125.024
X119.888Y-125.024
X145.42Y-65.99
X147.92Y-65.99
X130.532Y-89.908
X133.032Y-89.908
X147.828Y-89.781
X141.605Y-116.515
X151.765Y-116.515
X193.04Y-72.7
X195.54Y-72.7
X145.328Y-89.781
X157.48Y-70.795
X157.48Y-73.335
X157.48Y-75.875
X157.48Y-78.415
X157.48Y-80.955
X157.48Y-83.495
X157.48Y-86.035
X157.48Y-88.575
X157.48Y-91.115
X124.904Y-93.337
X124.904Y-95.877
X124.904Y-98.417
X124.904Y-100.957
X124.904Y-103.498
X124.904Y-106.037
X124.904Y-108.578
X132.524Y-93.337
X132.524Y-95.877
X132.524Y-98.417
X172.72Y-98.735
X129.921Y-114.61
X172.72Y-93.655
X132.524Y-100.957
X132.524Y-103.498
X132.524Y-106.037
X157.48Y-106.355
X132.524Y-108.578
X130.596Y-65.778
X133.096Y-65.778
X125.158Y-69.588
X125.158Y-72.129
X157.48Y-98.735
X125.158Y-74.668
X125.158Y-77.209
X125.158Y-79.748
X157.48Y-93.655
X157.48Y-96.195
X157.48Y-101.275
X157.48Y-103.815
X157.48Y-108.895
X172.72Y-70.795
X172.72Y-73.335
X172.72Y-75.875
X172.72Y-78.415
X172.72Y-80.955
X172.72Y-83.495
X172.72Y-86.035
X172.72Y-88.575
X172.72Y-91.115
X172.72Y-96.195
X172.72Y-101.275
X172.72Y-103.815
X129.921Y-117.11
X132.778Y-69.588
X132.778Y-82.288
X172.72Y-108.895
X125.158Y-82.288
X125.158Y-84.828
X132.778Y-72.129
X132.778Y-74.668
X172.72Y-106.355
X132.778Y-77.209
X132.778Y-79.748
X132.778Y-84.828
X109.23Y-71.91
X109.23Y-74.45
X109.23Y-76.99
X109.23Y-79.53
X109.23Y-82.07
X109.23Y-84.61
X109.23Y-87.15
X109.23Y-89.69
X116.85Y-71.91
X116.85Y-74.45
X116.85Y-76.99
X116.85Y-79.53
X116.85Y-82.07
X116.85Y-84.61
X116.85Y-87.15
X116.85Y-89.69
X114.89Y-68.5
X117.39Y-68.5
X132.654Y-116.21
X135.194Y-116.21
X137.734Y-116.21
T3
X125.87Y-114.532
X125.87Y-117.072
T4
X110.327Y-104.48
X112.867Y-104.48
X115.407Y-104.48
X109.284Y-96.195
X109.284Y-98.735
X111.824Y-96.195
X111.824Y-98.735
X114.364Y-96.195
X114.364Y-98.735
X116.904Y-96.195
X116.904Y-98.735
X105.4Y-86.58
X180.5Y-62.5
X159.0Y-62.5
X161.54Y-62.5
X164.08Y-62.5
X166.62Y-62.5
X169.16Y-62.5
X105.4Y-81.5
X105.4Y-84.04
X185.58Y-66.0
X183.04Y-62.5
X185.58Y-62.5
X180.5Y-66.0
X183.04Y-66.0
T5
X118.37Y-114.672
X118.37Y-117.212
X111.92Y-114.592
X111.92Y-117.132
T6
X127.0Y-121.595
X127.0Y-124.135
X129.54Y-121.595
X129.54Y-124.135
X132.08Y-121.595
X132.08Y-124.135
X134.62Y-121.595
X134.62Y-124.135
X137.16Y-121.595
X137.16Y-124.135
X139.7Y-121.595
X139.7Y-124.135
X142.24Y-121.595
X142.24Y-124.135
X144.78Y-121.595
X144.78Y-124.135
X147.32Y-121.595
X147.32Y-124.135
X149.86Y-121.595
X149.86Y-124.135
X152.4Y-121.595
X152.4Y-124.135
X154.94Y-121.595
X154.94Y-124.135
X157.48Y-121.595
X157.48Y-124.135
X160.02Y-121.595
X160.02Y-124.135
X162.56Y-121.595
X162.56Y-124.135
X165.1Y-121.595
X165.1Y-124.135
X167.64Y-121.595
X167.64Y-124.135
X170.18Y-121.595
X170.18Y-124.135
X172.72Y-121.595
X172.72Y-124.135
X175.26Y-121.595
X175.26Y-124.135
T7
X194.5Y-64.5
X194.5Y-130.49
X105.5Y-64.5
X105.51Y-130.49
T0
M30
