M48
;DRILL file {KiCad (5.0.0-3-g5ebb6b6)} date 
;FORMAT={-:-/ absolute / metric / decimal}
FMAT,2
METRIC,TZ
T1C0.610
T2C0.800
T3C1.001
T4C1.016
T5C3.200
%
G90
G05
M71
T1
X111.504Y-102.51
X120.808Y-116.052
X127.948Y-115.196
X132.159Y-99.769
X136.963Y-95.127
X137.075Y-88.855
X137.209Y-99.574
X138.125Y-117.549
X139.512Y-120.215
X140.484Y-120.969
X152.178Y-98.155
X154.037Y-96.318
X164.886Y-115.562
X167.383Y-89.627
X175.418Y-89.627
X178.007Y-90.882
X182.319Y-106.388
T2
X143.51Y-67.945
X146.01Y-67.945
X118.11Y-125.095
X118.11Y-135.255
X113.03Y-93.98
X115.53Y-93.98
X143.51Y-92.075
X146.01Y-92.075
X170.22Y-72.39
X172.72Y-72.39
X180.34Y-80.645
X180.34Y-83.185
X180.34Y-85.725
X180.34Y-88.265
X180.34Y-90.805
X180.34Y-93.345
X180.34Y-95.885
X180.34Y-98.425
X180.34Y-100.965
X180.34Y-103.505
X180.34Y-106.045
X180.34Y-108.585
X180.34Y-111.125
X180.34Y-113.665
X195.58Y-80.645
X195.58Y-83.185
X195.58Y-85.725
X195.58Y-88.265
X195.58Y-90.805
X195.58Y-93.345
X195.58Y-95.885
X195.58Y-98.425
X195.58Y-100.965
X195.58Y-103.505
X195.58Y-106.045
X195.58Y-108.585
X195.58Y-111.125
X195.58Y-113.665
X138.43Y-95.885
X138.43Y-98.425
X138.43Y-100.965
X138.43Y-103.505
X138.43Y-106.045
X138.43Y-108.585
X138.43Y-111.125
X138.43Y-113.665
X146.05Y-95.885
X146.05Y-98.425
X146.05Y-100.965
X146.05Y-103.505
X146.05Y-106.045
X146.05Y-108.585
X146.05Y-111.125
X146.05Y-113.665
X122.555Y-90.17
X122.555Y-92.71
X122.555Y-95.25
X122.555Y-97.79
X122.555Y-100.33
X122.555Y-102.87
X122.555Y-105.41
X122.555Y-107.95
X122.555Y-110.49
X122.555Y-113.03
X130.175Y-90.17
X130.175Y-92.71
X130.175Y-95.25
X130.175Y-97.79
X130.175Y-100.33
X130.175Y-102.87
X130.175Y-105.41
X130.175Y-107.95
X130.175Y-110.49
X130.175Y-113.03
X138.43Y-71.12
X138.43Y-73.66
X138.43Y-76.2
X138.43Y-78.74
X138.43Y-81.28
X138.43Y-83.82
X138.43Y-86.36
X146.05Y-71.12
X146.05Y-73.66
X146.05Y-76.2
X146.05Y-78.74
X146.05Y-81.28
X146.05Y-83.82
X146.05Y-86.36
X107.95Y-74.93
X107.95Y-77.47
X107.95Y-80.01
X107.95Y-82.55
X107.95Y-85.09
X107.95Y-87.63
X107.95Y-90.17
X115.57Y-74.93
X115.57Y-77.47
X115.57Y-80.01
X115.57Y-82.55
X115.57Y-85.09
X115.57Y-87.63
X115.57Y-90.17
X111.76Y-125.095
X111.76Y-135.255
X127.635Y-86.995
X130.135Y-86.995
X107.95Y-97.79
X107.95Y-100.33
X107.95Y-102.87
X107.95Y-105.41
X107.95Y-107.95
X107.95Y-110.49
X107.95Y-113.03
X115.57Y-97.79
X115.57Y-100.33
X115.57Y-102.87
X115.57Y-105.41
X115.57Y-107.95
X115.57Y-110.49
X115.57Y-113.03
X157.48Y-75.565
X157.48Y-78.105
X157.48Y-80.645
X157.48Y-83.185
X157.48Y-85.725
X157.48Y-88.265
X157.48Y-90.805
X157.48Y-93.345
X157.48Y-95.885
X157.48Y-98.425
X157.48Y-100.965
X157.48Y-103.505
X157.48Y-106.045
X157.48Y-108.585
X157.48Y-111.125
X157.48Y-113.665
X172.72Y-75.565
X172.72Y-78.105
X172.72Y-80.645
X172.72Y-83.185
X172.72Y-85.725
X172.72Y-88.265
X172.72Y-90.805
X172.72Y-93.345
X172.72Y-95.885
X172.72Y-98.425
X172.72Y-100.965
X172.72Y-103.505
X172.72Y-106.045
X172.72Y-108.585
X172.72Y-111.125
X172.72Y-113.665
X113.07Y-71.755
X115.57Y-71.755
X193.04Y-77.47
X195.54Y-77.47
T3
X118.11Y-120.015
X118.11Y-122.555
X111.76Y-120.015
X111.76Y-122.555
T4
X127.Y-125.095
X127.Y-127.635
X129.54Y-125.095
X129.54Y-127.635
X132.08Y-125.095
X132.08Y-127.635
X134.62Y-125.095
X134.62Y-127.635
X137.16Y-125.095
X137.16Y-127.635
X139.7Y-125.095
X139.7Y-127.635
X142.24Y-125.095
X142.24Y-127.635
X144.78Y-125.095
X144.78Y-127.635
X147.32Y-125.095
X147.32Y-127.635
X149.86Y-125.095
X149.86Y-127.635
X152.4Y-125.095
X152.4Y-127.635
X154.94Y-125.095
X154.94Y-127.635
X157.48Y-125.095
X157.48Y-127.635
X160.02Y-125.095
X160.02Y-127.635
X162.56Y-125.095
X162.56Y-127.635
X165.1Y-125.095
X165.1Y-127.635
X167.64Y-125.095
X167.64Y-127.635
X170.18Y-125.095
X170.18Y-127.635
X172.72Y-125.095
X172.72Y-127.635
X175.26Y-125.095
X175.26Y-127.635
T5
X196.03Y-68.68
X195.57Y-133.96
X106.64Y-133.85
X106.62Y-68.12
T0
M30
