G04 #@! TF.GenerationSoftware,KiCad,Pcbnew,(5.1.4-0-10_14)*
G04 #@! TF.CreationDate,2021-03-25T21:19:08+09:00*
G04 #@! TF.ProjectId,Z80-1MSRAM,5a38302d-314d-4535-9241-4d2e6b696361,rev?*
G04 #@! TF.SameCoordinates,Original*
G04 #@! TF.FileFunction,Soldermask,Bot*
G04 #@! TF.FilePolarity,Negative*
%FSLAX46Y46*%
G04 Gerber Fmt 4.6, Leading zero omitted, Abs format (unit mm)*
G04 Created by KiCad (PCBNEW (5.1.4-0-10_14)) date 2021-03-25 21:19:08*
%MOMM*%
%LPD*%
G04 APERTURE LIST*
%ADD10O,2.100000X2.100000*%
%ADD11R,2.100000X2.100000*%
%ADD12C,2.000000*%
%ADD13C,1.900000*%
%ADD14R,1.900000X1.900000*%
%ADD15O,2.000000X2.000000*%
%ADD16R,2.200000X2.200000*%
%ADD17C,2.200000*%
%ADD18R,2.000000X2.000000*%
%ADD19R,2.127200X2.127200*%
%ADD20O,2.127200X2.127200*%
%ADD21R,2.400000X2.400000*%
%ADD22C,2.400000*%
%ADD23C,3.600000*%
G04 APERTURE END LIST*
D10*
X192500000Y-79080000D03*
X192500000Y-76540000D03*
D11*
X192500000Y-74000000D03*
D10*
X196000000Y-79080000D03*
X196000000Y-76540000D03*
D11*
X196000000Y-74000000D03*
D10*
X196500000Y-102000000D03*
X196500000Y-99460000D03*
X196500000Y-96920000D03*
X196500000Y-94380000D03*
D11*
X196500000Y-91840000D03*
X105120000Y-87860000D03*
D10*
X105120000Y-90400000D03*
X105120000Y-92940000D03*
D12*
X122761000Y-126220000D03*
X122761000Y-128720000D03*
D11*
X110387000Y-114590000D03*
D10*
X112927000Y-114590000D03*
X115467000Y-114590000D03*
D13*
X128700000Y-127910000D03*
X131240000Y-127910000D03*
D14*
X126160000Y-127910000D03*
D15*
X172558000Y-81776000D03*
D12*
X182718000Y-81776000D03*
X182718000Y-84824000D03*
D15*
X172558000Y-84824000D03*
X118420000Y-132420000D03*
D12*
X118420000Y-122260000D03*
X135640000Y-127690000D03*
D15*
X145800000Y-127690000D03*
D11*
X116964000Y-106305000D03*
D10*
X116964000Y-108845000D03*
X114424000Y-106305000D03*
X114424000Y-108845000D03*
X111884000Y-106305000D03*
X111884000Y-108845000D03*
X109344000Y-106305000D03*
X109344000Y-108845000D03*
D16*
X186410000Y-74470000D03*
D17*
X186410000Y-77010000D03*
D18*
X137534000Y-105490000D03*
D15*
X145154000Y-120730000D03*
X137534000Y-108030000D03*
X145154000Y-118190000D03*
X137534000Y-110570000D03*
X145154000Y-115650000D03*
X137534000Y-113110000D03*
X145154000Y-113110000D03*
X137534000Y-115650000D03*
X145154000Y-110570000D03*
X137534000Y-118190000D03*
X145154000Y-108030000D03*
X137534000Y-120730000D03*
X145154000Y-105490000D03*
D12*
X182690000Y-87900000D03*
D15*
X172530000Y-87900000D03*
D18*
X174340000Y-93875000D03*
D15*
X189580000Y-126895000D03*
X174340000Y-96415000D03*
X189580000Y-124355000D03*
X174340000Y-98955000D03*
X189580000Y-121815000D03*
X174340000Y-101495000D03*
X189580000Y-119275000D03*
X174340000Y-104035000D03*
X189580000Y-116735000D03*
X174340000Y-106575000D03*
X189580000Y-114195000D03*
X174340000Y-109115000D03*
X189580000Y-111655000D03*
X174340000Y-111655000D03*
X189580000Y-109115000D03*
X174340000Y-114195000D03*
X189580000Y-106575000D03*
X174340000Y-116735000D03*
X189580000Y-104035000D03*
X174340000Y-119275000D03*
X189580000Y-101495000D03*
X174340000Y-121815000D03*
X189580000Y-98955000D03*
X174340000Y-124355000D03*
X189580000Y-96415000D03*
X174340000Y-126895000D03*
X189580000Y-93875000D03*
D19*
X125000000Y-69500000D03*
D20*
X125000000Y-66960000D03*
X127540000Y-69500000D03*
X127540000Y-66960000D03*
X130080000Y-69500000D03*
X130080000Y-66960000D03*
X132620000Y-69500000D03*
X132620000Y-66960000D03*
X135160000Y-69500000D03*
X135160000Y-66960000D03*
X137700000Y-69500000D03*
X137700000Y-66960000D03*
X140240000Y-69500000D03*
X140240000Y-66960000D03*
X142780000Y-69500000D03*
X142780000Y-66960000D03*
X145320000Y-69500000D03*
X145320000Y-66960000D03*
X147860000Y-69500000D03*
X147860000Y-66960000D03*
X150400000Y-69500000D03*
X150400000Y-66960000D03*
X152940000Y-69500000D03*
X152940000Y-66960000D03*
X155480000Y-69500000D03*
X155480000Y-66960000D03*
X158020000Y-69500000D03*
X158020000Y-66960000D03*
X160560000Y-69500000D03*
X160560000Y-66960000D03*
X163100000Y-69500000D03*
X163100000Y-66960000D03*
X165640000Y-69500000D03*
X165640000Y-66960000D03*
X168180000Y-69500000D03*
X168180000Y-66960000D03*
X170720000Y-69500000D03*
X170720000Y-66960000D03*
X173260000Y-69500000D03*
X173260000Y-66960000D03*
D21*
X173910000Y-74442000D03*
D22*
X173910000Y-76982000D03*
D21*
X180360000Y-74522000D03*
D22*
X180360000Y-77062000D03*
D18*
X137660000Y-81805000D03*
D15*
X145280000Y-97045000D03*
X137660000Y-84345000D03*
X145280000Y-94505000D03*
X137660000Y-86885000D03*
X145280000Y-91965000D03*
X137660000Y-89425000D03*
X145280000Y-89425000D03*
X137660000Y-91965000D03*
X145280000Y-86885000D03*
X137660000Y-94505000D03*
X145280000Y-84345000D03*
X137660000Y-97045000D03*
X145280000Y-81805000D03*
D18*
X109290000Y-82020000D03*
D15*
X116910000Y-99800000D03*
X109290000Y-84560000D03*
X116910000Y-97260000D03*
X109290000Y-87100000D03*
X116910000Y-94720000D03*
X109290000Y-89640000D03*
X116910000Y-92180000D03*
X109290000Y-92180000D03*
X116910000Y-89640000D03*
X109290000Y-94720000D03*
X116910000Y-87100000D03*
X109290000Y-97260000D03*
X116910000Y-84560000D03*
X109290000Y-99800000D03*
X116910000Y-82020000D03*
D18*
X122928000Y-81868500D03*
D15*
X130548000Y-97108500D03*
X122928000Y-84408500D03*
X130548000Y-94568500D03*
X122928000Y-86948500D03*
X130548000Y-92028500D03*
X122928000Y-89488500D03*
X130548000Y-89488500D03*
X122928000Y-92028500D03*
X130548000Y-86948500D03*
X122928000Y-94568500D03*
X130548000Y-84408500D03*
X122928000Y-97108500D03*
X130548000Y-81868500D03*
D18*
X122674000Y-105618000D03*
D15*
X130294000Y-120858000D03*
X122674000Y-108158000D03*
X130294000Y-118318000D03*
X122674000Y-110698000D03*
X130294000Y-115778000D03*
X122674000Y-113238000D03*
X130294000Y-113238000D03*
X122674000Y-115778000D03*
X130294000Y-110698000D03*
X122674000Y-118318000D03*
X130294000Y-108158000D03*
X122674000Y-120858000D03*
X130294000Y-105618000D03*
D18*
X151480000Y-88795000D03*
D15*
X166720000Y-126895000D03*
X151480000Y-91335000D03*
X166720000Y-124355000D03*
X151480000Y-93875000D03*
X166720000Y-121815000D03*
X151480000Y-96415000D03*
X166720000Y-119275000D03*
X151480000Y-98955000D03*
X166720000Y-116735000D03*
X151480000Y-101495000D03*
X166720000Y-114195000D03*
X151480000Y-104035000D03*
X166720000Y-111655000D03*
X151480000Y-106575000D03*
X166720000Y-109115000D03*
X151480000Y-109115000D03*
X166720000Y-106575000D03*
X151480000Y-111655000D03*
X166720000Y-104035000D03*
X151480000Y-114195000D03*
X166720000Y-101495000D03*
X151480000Y-116735000D03*
X166720000Y-98955000D03*
X151480000Y-119275000D03*
X166720000Y-96415000D03*
X151480000Y-121815000D03*
X166720000Y-93875000D03*
X151480000Y-124355000D03*
X166720000Y-91335000D03*
X151480000Y-126895000D03*
X166720000Y-88795000D03*
D12*
X145690000Y-78270000D03*
X143190000Y-78270000D03*
X145598000Y-102062000D03*
X143098000Y-102062000D03*
X117450000Y-78610000D03*
X114950000Y-78610000D03*
X130866000Y-78058500D03*
X128366000Y-78058500D03*
X130880000Y-102050000D03*
X128380000Y-102050000D03*
X167230000Y-85200000D03*
X164730000Y-85200000D03*
X190060000Y-90250000D03*
X187560000Y-90250000D03*
D18*
X113000000Y-66500000D03*
D12*
X115500000Y-66500000D03*
D23*
X105500000Y-64500000D03*
X194500000Y-64500000D03*
X105510000Y-130490000D03*
X194500000Y-130490000D03*
M02*
