G04 #@! TF.GenerationSoftware,KiCad,Pcbnew,(5.0.0-3-g5ebb6b6)*
G04 #@! TF.CreationDate,2019-09-07T09:18:47+09:00*
G04 #@! TF.ProjectId,Z80-1MSRAM,5A38302D314D5352414D2E6B69636164,rev?*
G04 #@! TF.SameCoordinates,Original*
G04 #@! TF.FileFunction,Soldermask,Bot*
G04 #@! TF.FilePolarity,Negative*
%FSLAX46Y46*%
G04 Gerber Fmt 4.6, Leading zero omitted, Abs format (unit mm)*
G04 Created by KiCad (PCBNEW (5.0.0-3-g5ebb6b6)) date 2019 September 07, Saturday 09:18:47*
%MOMM*%
%LPD*%
G01*
G04 APERTURE LIST*
%ADD10R,2.100000X2.100000*%
%ADD11O,2.100000X2.100000*%
%ADD12C,2.000000*%
%ADD13C,1.900000*%
%ADD14R,1.900000X1.900000*%
%ADD15O,2.000000X2.000000*%
%ADD16R,2.200000X2.200000*%
%ADD17C,2.200000*%
%ADD18R,2.000000X2.000000*%
%ADD19R,2.127200X2.127200*%
%ADD20O,2.127200X2.127200*%
%ADD21R,2.400000X2.400000*%
%ADD22C,2.400000*%
%ADD23C,3.600000*%
G04 APERTURE END LIST*
D10*
G04 #@! TO.C,JP2*
X105400000Y-85000000D03*
D11*
X105400000Y-87540000D03*
X105400000Y-90080000D03*
G04 #@! TD*
D12*
G04 #@! TO.C,C9*
X129921000Y-118110000D03*
X129921000Y-120610000D03*
G04 #@! TD*
D10*
G04 #@! TO.C,JP1*
X110327000Y-107980000D03*
D11*
X112867000Y-107980000D03*
X115407000Y-107980000D03*
G04 #@! TD*
D13*
G04 #@! TO.C,Q1*
X135194000Y-119710000D03*
X137734000Y-119710000D03*
D14*
X132654000Y-119710000D03*
G04 #@! TD*
D15*
G04 #@! TO.C,R1*
X109728000Y-125476000D03*
D12*
X119888000Y-125476000D03*
G04 #@! TD*
G04 #@! TO.C,R2*
X119888000Y-128524000D03*
D15*
X109728000Y-128524000D03*
G04 #@! TD*
G04 #@! TO.C,R4*
X151765000Y-120015000D03*
D12*
X141605000Y-120015000D03*
G04 #@! TD*
G04 #@! TO.C,R5*
X155575000Y-120015000D03*
D15*
X165735000Y-120015000D03*
G04 #@! TD*
D10*
G04 #@! TO.C,J2*
X116904000Y-99695000D03*
D11*
X116904000Y-102235000D03*
X114364000Y-99695000D03*
X114364000Y-102235000D03*
X111824000Y-99695000D03*
X111824000Y-102235000D03*
X109284000Y-99695000D03*
X109284000Y-102235000D03*
G04 #@! TD*
D16*
G04 #@! TO.C,D3*
X125870000Y-118032000D03*
D17*
X125870000Y-120572000D03*
G04 #@! TD*
D18*
G04 #@! TO.C,U2*
X139764000Y-96710500D03*
D15*
X147384000Y-111950500D03*
X139764000Y-99250500D03*
X147384000Y-109410500D03*
X139764000Y-101790500D03*
X147384000Y-106870500D03*
X139764000Y-104330500D03*
X147384000Y-104330500D03*
X139764000Y-106870500D03*
X147384000Y-101790500D03*
X139764000Y-109410500D03*
X147384000Y-99250500D03*
X139764000Y-111950500D03*
X147384000Y-96710500D03*
G04 #@! TD*
D12*
G04 #@! TO.C,R3*
X109220000Y-113284000D03*
D15*
X119380000Y-113284000D03*
G04 #@! TD*
D18*
G04 #@! TO.C,U7*
X180340000Y-79375000D03*
D15*
X195580000Y-112395000D03*
X180340000Y-81915000D03*
X195580000Y-109855000D03*
X180340000Y-84455000D03*
X195580000Y-107315000D03*
X180340000Y-86995000D03*
X195580000Y-104775000D03*
X180340000Y-89535000D03*
X195580000Y-102235000D03*
X180340000Y-92075000D03*
X195580000Y-99695000D03*
X180340000Y-94615000D03*
X195580000Y-97155000D03*
X180340000Y-97155000D03*
X195580000Y-94615000D03*
X180340000Y-99695000D03*
X195580000Y-92075000D03*
X180340000Y-102235000D03*
X195580000Y-89535000D03*
X180340000Y-104775000D03*
X195580000Y-86995000D03*
X180340000Y-107315000D03*
X195580000Y-84455000D03*
X180340000Y-109855000D03*
X195580000Y-81915000D03*
X180340000Y-112395000D03*
X195580000Y-79375000D03*
G04 #@! TD*
D19*
G04 #@! TO.C,J1*
X175260000Y-125095000D03*
D20*
X175260000Y-127635000D03*
X172720000Y-125095000D03*
X172720000Y-127635000D03*
X170180000Y-125095000D03*
X170180000Y-127635000D03*
X167640000Y-125095000D03*
X167640000Y-127635000D03*
X165100000Y-125095000D03*
X165100000Y-127635000D03*
X162560000Y-125095000D03*
X162560000Y-127635000D03*
X160020000Y-125095000D03*
X160020000Y-127635000D03*
X157480000Y-125095000D03*
X157480000Y-127635000D03*
X154940000Y-125095000D03*
X154940000Y-127635000D03*
X152400000Y-125095000D03*
X152400000Y-127635000D03*
X149860000Y-125095000D03*
X149860000Y-127635000D03*
X147320000Y-125095000D03*
X147320000Y-127635000D03*
X144780000Y-125095000D03*
X144780000Y-127635000D03*
X142240000Y-125095000D03*
X142240000Y-127635000D03*
X139700000Y-125095000D03*
X139700000Y-127635000D03*
X137160000Y-125095000D03*
X137160000Y-127635000D03*
X134620000Y-125095000D03*
X134620000Y-127635000D03*
X132080000Y-125095000D03*
X132080000Y-127635000D03*
X129540000Y-125095000D03*
X129540000Y-127635000D03*
X127000000Y-125095000D03*
X127000000Y-127635000D03*
G04 #@! TD*
D21*
G04 #@! TO.C,D1*
X111920000Y-118092000D03*
D22*
X111920000Y-120632000D03*
G04 #@! TD*
D21*
G04 #@! TO.C,D2*
X118370000Y-118172000D03*
D22*
X118370000Y-120712000D03*
G04 #@! TD*
D18*
G04 #@! TO.C,U1*
X139890000Y-73025000D03*
D15*
X147510000Y-88265000D03*
X139890000Y-75565000D03*
X147510000Y-85725000D03*
X139890000Y-78105000D03*
X147510000Y-83185000D03*
X139890000Y-80645000D03*
X147510000Y-80645000D03*
X139890000Y-83185000D03*
X147510000Y-78105000D03*
X139890000Y-85725000D03*
X147510000Y-75565000D03*
X139890000Y-88265000D03*
X147510000Y-73025000D03*
G04 #@! TD*
D18*
G04 #@! TO.C,U3*
X109230000Y-75410000D03*
D15*
X116850000Y-93190000D03*
X109230000Y-77950000D03*
X116850000Y-90650000D03*
X109230000Y-80490000D03*
X116850000Y-88110000D03*
X109230000Y-83030000D03*
X116850000Y-85570000D03*
X109230000Y-85570000D03*
X116850000Y-83030000D03*
X109230000Y-88110000D03*
X116850000Y-80490000D03*
X109230000Y-90650000D03*
X116850000Y-77950000D03*
X109230000Y-93190000D03*
X116850000Y-75410000D03*
G04 #@! TD*
D18*
G04 #@! TO.C,U4*
X125158000Y-73088500D03*
D15*
X132778000Y-88328500D03*
X125158000Y-75628500D03*
X132778000Y-85788500D03*
X125158000Y-78168500D03*
X132778000Y-83248500D03*
X125158000Y-80708500D03*
X132778000Y-80708500D03*
X125158000Y-83248500D03*
X132778000Y-78168500D03*
X125158000Y-85788500D03*
X132778000Y-75628500D03*
X125158000Y-88328500D03*
X132778000Y-73088500D03*
G04 #@! TD*
D18*
G04 #@! TO.C,U5*
X124904000Y-96837500D03*
D15*
X132524000Y-112077500D03*
X124904000Y-99377500D03*
X132524000Y-109537500D03*
X124904000Y-101917500D03*
X132524000Y-106997500D03*
X124904000Y-104457500D03*
X132524000Y-104457500D03*
X124904000Y-106997500D03*
X132524000Y-101917500D03*
X124904000Y-109537500D03*
X132524000Y-99377500D03*
X124904000Y-112077500D03*
X132524000Y-96837500D03*
G04 #@! TD*
D18*
G04 #@! TO.C,U6*
X157480000Y-74295000D03*
D15*
X172720000Y-112395000D03*
X157480000Y-76835000D03*
X172720000Y-109855000D03*
X157480000Y-79375000D03*
X172720000Y-107315000D03*
X157480000Y-81915000D03*
X172720000Y-104775000D03*
X157480000Y-84455000D03*
X172720000Y-102235000D03*
X157480000Y-86995000D03*
X172720000Y-99695000D03*
X157480000Y-89535000D03*
X172720000Y-97155000D03*
X157480000Y-92075000D03*
X172720000Y-94615000D03*
X157480000Y-94615000D03*
X172720000Y-92075000D03*
X157480000Y-97155000D03*
X172720000Y-89535000D03*
X157480000Y-99695000D03*
X172720000Y-86995000D03*
X157480000Y-102235000D03*
X172720000Y-84455000D03*
X157480000Y-104775000D03*
X172720000Y-81915000D03*
X157480000Y-107315000D03*
X172720000Y-79375000D03*
X157480000Y-109855000D03*
X172720000Y-76835000D03*
X157480000Y-112395000D03*
X172720000Y-74295000D03*
G04 #@! TD*
D12*
G04 #@! TO.C,C1*
X147920000Y-69490000D03*
X145420000Y-69490000D03*
G04 #@! TD*
G04 #@! TO.C,C2*
X147828000Y-93281500D03*
X145328000Y-93281500D03*
G04 #@! TD*
G04 #@! TO.C,C3*
X117390000Y-72000000D03*
X114890000Y-72000000D03*
G04 #@! TD*
G04 #@! TO.C,C4*
X133096000Y-69278500D03*
X130596000Y-69278500D03*
G04 #@! TD*
G04 #@! TO.C,C5*
X133032000Y-93408500D03*
X130532000Y-93408500D03*
G04 #@! TD*
G04 #@! TO.C,C6*
X172720000Y-71120000D03*
X170220000Y-71120000D03*
G04 #@! TD*
G04 #@! TO.C,C7*
X195540000Y-76200000D03*
X193040000Y-76200000D03*
G04 #@! TD*
D18*
G04 #@! TO.C,C8*
X185420000Y-126365000D03*
D12*
X187920000Y-126365000D03*
G04 #@! TD*
D23*
G04 #@! TO.C,MH1*
X106650000Y-68200000D03*
G04 #@! TD*
G04 #@! TO.C,MH2*
X195640000Y-68150000D03*
G04 #@! TD*
G04 #@! TO.C,MH3*
X106550000Y-134220000D03*
G04 #@! TD*
G04 #@! TO.C,MH4*
X195640000Y-134120000D03*
G04 #@! TD*
M02*
