G04 #@! TF.GenerationSoftware,KiCad,Pcbnew,(5.0.0-3-g5ebb6b6)*
G04 #@! TF.CreationDate,2019-09-07T09:18:46+09:00*
G04 #@! TF.ProjectId,Z80-1MSRAM,5A38302D314D5352414D2E6B69636164,rev?*
G04 #@! TF.SameCoordinates,Original*
G04 #@! TF.FileFunction,Copper,L1,Top,Signal*
G04 #@! TF.FilePolarity,Positive*
%FSLAX46Y46*%
G04 Gerber Fmt 4.6, Leading zero omitted, Abs format (unit mm)*
G04 Created by KiCad (PCBNEW (5.0.0-3-g5ebb6b6)) date 2019 September 07, Saturday 09:18:46*
%MOMM*%
%LPD*%
G01*
G04 APERTURE LIST*
G04 #@! TA.AperFunction,ComponentPad*
%ADD10R,1.700000X1.700000*%
G04 #@! TD*
G04 #@! TA.AperFunction,ComponentPad*
%ADD11O,1.700000X1.700000*%
G04 #@! TD*
G04 #@! TA.AperFunction,ComponentPad*
%ADD12C,1.600000*%
G04 #@! TD*
G04 #@! TA.AperFunction,ComponentPad*
%ADD13C,1.500000*%
G04 #@! TD*
G04 #@! TA.AperFunction,ComponentPad*
%ADD14R,1.500000X1.500000*%
G04 #@! TD*
G04 #@! TA.AperFunction,ComponentPad*
%ADD15O,1.600000X1.600000*%
G04 #@! TD*
G04 #@! TA.AperFunction,ComponentPad*
%ADD16R,1.800000X1.800000*%
G04 #@! TD*
G04 #@! TA.AperFunction,ComponentPad*
%ADD17C,1.800000*%
G04 #@! TD*
G04 #@! TA.AperFunction,ComponentPad*
%ADD18R,1.600000X1.600000*%
G04 #@! TD*
G04 #@! TA.AperFunction,ComponentPad*
%ADD19R,1.727200X1.727200*%
G04 #@! TD*
G04 #@! TA.AperFunction,ComponentPad*
%ADD20O,1.727200X1.727200*%
G04 #@! TD*
G04 #@! TA.AperFunction,ComponentPad*
%ADD21R,2.000000X2.000000*%
G04 #@! TD*
G04 #@! TA.AperFunction,ComponentPad*
%ADD22C,2.000000*%
G04 #@! TD*
G04 #@! TA.AperFunction,ViaPad*
%ADD23C,0.800000*%
G04 #@! TD*
G04 #@! TA.AperFunction,Conductor*
%ADD24C,0.250000*%
G04 #@! TD*
G04 #@! TA.AperFunction,Conductor*
%ADD25C,0.600000*%
G04 #@! TD*
G04 #@! TA.AperFunction,Conductor*
%ADD26C,0.254000*%
G04 #@! TD*
G04 APERTURE END LIST*
D10*
G04 #@! TO.P,JP2,1*
G04 #@! TO.N,GND*
X105400000Y-85000000D03*
D11*
G04 #@! TO.P,JP2,2*
G04 #@! TO.N,Net-(JP2-Pad2)*
X105400000Y-87540000D03*
G04 #@! TO.P,JP2,3*
G04 #@! TO.N,/A14*
X105400000Y-90080000D03*
G04 #@! TD*
D12*
G04 #@! TO.P,C9,1*
G04 #@! TO.N,Net-(C9-Pad1)*
X129921000Y-118110000D03*
G04 #@! TO.P,C9,2*
G04 #@! TO.N,A7*
X129921000Y-120610000D03*
G04 #@! TD*
D10*
G04 #@! TO.P,JP1,1*
G04 #@! TO.N,Net-(JP1-Pad1)*
X110327000Y-107980000D03*
D11*
G04 #@! TO.P,JP1,2*
G04 #@! TO.N,ADDR_SEL*
X112867000Y-107980000D03*
G04 #@! TO.P,JP1,3*
G04 #@! TO.N,A7*
X115407000Y-107980000D03*
G04 #@! TD*
D13*
G04 #@! TO.P,Q1,2*
G04 #@! TO.N,Net-(JP1-Pad1)*
X135194000Y-119710000D03*
G04 #@! TO.P,Q1,3*
G04 #@! TO.N,Net-(C9-Pad1)*
X137734000Y-119710000D03*
D14*
G04 #@! TO.P,Q1,1*
G04 #@! TO.N,GND*
X132654000Y-119710000D03*
G04 #@! TD*
D15*
G04 #@! TO.P,R1,2*
G04 #@! TO.N,Net-(D1-Pad2)*
X109728000Y-125476000D03*
D12*
G04 #@! TO.P,R1,1*
G04 #@! TO.N,VCC*
X119888000Y-125476000D03*
G04 #@! TD*
G04 #@! TO.P,R2,1*
G04 #@! TO.N,VCC*
X119888000Y-128524000D03*
D15*
G04 #@! TO.P,R2,2*
G04 #@! TO.N,Net-(D2-Pad2)*
X109728000Y-128524000D03*
G04 #@! TD*
G04 #@! TO.P,R4,2*
G04 #@! TO.N,A7*
X151765000Y-120015000D03*
D12*
G04 #@! TO.P,R4,1*
G04 #@! TO.N,Net-(C9-Pad1)*
X141605000Y-120015000D03*
G04 #@! TD*
G04 #@! TO.P,R5,1*
G04 #@! TO.N,Net-(JP1-Pad1)*
X155575000Y-120015000D03*
D15*
G04 #@! TO.P,R5,2*
G04 #@! TO.N,VCC*
X165735000Y-120015000D03*
G04 #@! TD*
D10*
G04 #@! TO.P,J2,1*
G04 #@! TO.N,Net-(J2-Pad1)*
X116904000Y-99695000D03*
D11*
G04 #@! TO.P,J2,2*
G04 #@! TO.N,Net-(J2-Pad2)*
X116904000Y-102235000D03*
G04 #@! TO.P,J2,3*
G04 #@! TO.N,Net-(J2-Pad3)*
X114364000Y-99695000D03*
G04 #@! TO.P,J2,4*
G04 #@! TO.N,Net-(J2-Pad2)*
X114364000Y-102235000D03*
G04 #@! TO.P,J2,5*
G04 #@! TO.N,Net-(J2-Pad5)*
X111824000Y-99695000D03*
G04 #@! TO.P,J2,6*
G04 #@! TO.N,Net-(J2-Pad2)*
X111824000Y-102235000D03*
G04 #@! TO.P,J2,7*
G04 #@! TO.N,Net-(J2-Pad7)*
X109284000Y-99695000D03*
G04 #@! TO.P,J2,8*
G04 #@! TO.N,Net-(J2-Pad2)*
X109284000Y-102235000D03*
G04 #@! TD*
D16*
G04 #@! TO.P,D3,1*
G04 #@! TO.N,Net-(D3-Pad1)*
X125870000Y-118032000D03*
D17*
G04 #@! TO.P,D3,2*
G04 #@! TO.N,Net-(D3-Pad2)*
X125870000Y-120572000D03*
G04 #@! TD*
D18*
G04 #@! TO.P,U2,1*
G04 #@! TO.N,VCC*
X139764000Y-96710500D03*
D15*
G04 #@! TO.P,U2,8*
G04 #@! TO.N,Net-(U2-Pad8)*
X147384000Y-111950500D03*
G04 #@! TO.P,U2,2*
G04 #@! TO.N,/D0*
X139764000Y-99250500D03*
G04 #@! TO.P,U2,9*
G04 #@! TO.N,/DA1*
X147384000Y-109410500D03*
G04 #@! TO.P,U2,3*
G04 #@! TO.N,Net-(U1-Pad1)*
X139764000Y-101790500D03*
G04 #@! TO.P,U2,10*
G04 #@! TO.N,VCC*
X147384000Y-106870500D03*
G04 #@! TO.P,U2,4*
G04 #@! TO.N,Net-(U2-Pad13)*
X139764000Y-104330500D03*
G04 #@! TO.P,U2,11*
G04 #@! TO.N,Net-(U1-Pad1)*
X147384000Y-104330500D03*
G04 #@! TO.P,U2,5*
G04 #@! TO.N,/DA0*
X139764000Y-106870500D03*
G04 #@! TO.P,U2,12*
G04 #@! TO.N,/D1*
X147384000Y-101790500D03*
G04 #@! TO.P,U2,6*
G04 #@! TO.N,Net-(U2-Pad6)*
X139764000Y-109410500D03*
G04 #@! TO.P,U2,13*
G04 #@! TO.N,Net-(U2-Pad13)*
X147384000Y-99250500D03*
G04 #@! TO.P,U2,7*
G04 #@! TO.N,GND*
X139764000Y-111950500D03*
G04 #@! TO.P,U2,14*
G04 #@! TO.N,VCC*
X147384000Y-96710500D03*
G04 #@! TD*
D12*
G04 #@! TO.P,R3,1*
G04 #@! TO.N,VCC*
X109220000Y-113284000D03*
D15*
G04 #@! TO.P,R3,2*
G04 #@! TO.N,Net-(D3-Pad2)*
X119380000Y-113284000D03*
G04 #@! TD*
D18*
G04 #@! TO.P,U7,1*
G04 #@! TO.N,/A14*
X180340000Y-79375000D03*
D15*
G04 #@! TO.P,U7,15*
G04 #@! TO.N,/D3*
X195580000Y-112395000D03*
G04 #@! TO.P,U7,2*
G04 #@! TO.N,/A12*
X180340000Y-81915000D03*
G04 #@! TO.P,U7,16*
G04 #@! TO.N,/D4*
X195580000Y-109855000D03*
G04 #@! TO.P,U7,3*
G04 #@! TO.N,A7*
X180340000Y-84455000D03*
G04 #@! TO.P,U7,17*
G04 #@! TO.N,/D5*
X195580000Y-107315000D03*
G04 #@! TO.P,U7,4*
G04 #@! TO.N,/A6*
X180340000Y-86995000D03*
G04 #@! TO.P,U7,18*
G04 #@! TO.N,/D6*
X195580000Y-104775000D03*
G04 #@! TO.P,U7,5*
G04 #@! TO.N,/A5*
X180340000Y-89535000D03*
G04 #@! TO.P,U7,19*
G04 #@! TO.N,/D7*
X195580000Y-102235000D03*
G04 #@! TO.P,U7,6*
G04 #@! TO.N,/A4*
X180340000Y-92075000D03*
G04 #@! TO.P,U7,20*
G04 #@! TO.N,Net-(U1-Pad13)*
X195580000Y-99695000D03*
G04 #@! TO.P,U7,7*
G04 #@! TO.N,/A3*
X180340000Y-94615000D03*
G04 #@! TO.P,U7,21*
G04 #@! TO.N,/A10*
X195580000Y-97155000D03*
G04 #@! TO.P,U7,8*
G04 #@! TO.N,/A2*
X180340000Y-97155000D03*
G04 #@! TO.P,U7,22*
G04 #@! TO.N,~MEMRD*
X195580000Y-94615000D03*
G04 #@! TO.P,U7,9*
G04 #@! TO.N,/A1*
X180340000Y-99695000D03*
G04 #@! TO.P,U7,23*
G04 #@! TO.N,/A11*
X195580000Y-92075000D03*
G04 #@! TO.P,U7,10*
G04 #@! TO.N,/A0*
X180340000Y-102235000D03*
G04 #@! TO.P,U7,24*
G04 #@! TO.N,/A9*
X195580000Y-89535000D03*
G04 #@! TO.P,U7,11*
G04 #@! TO.N,/D0*
X180340000Y-104775000D03*
G04 #@! TO.P,U7,25*
G04 #@! TO.N,/A8*
X195580000Y-86995000D03*
G04 #@! TO.P,U7,12*
G04 #@! TO.N,/D1*
X180340000Y-107315000D03*
G04 #@! TO.P,U7,26*
G04 #@! TO.N,/A13*
X195580000Y-84455000D03*
G04 #@! TO.P,U7,13*
G04 #@! TO.N,/D2*
X180340000Y-109855000D03*
G04 #@! TO.P,U7,27*
G04 #@! TO.N,VCC*
X195580000Y-81915000D03*
G04 #@! TO.P,U7,14*
G04 #@! TO.N,GND*
X180340000Y-112395000D03*
G04 #@! TO.P,U7,28*
G04 #@! TO.N,VCC*
X195580000Y-79375000D03*
G04 #@! TD*
D19*
G04 #@! TO.P,J1,1*
G04 #@! TO.N,VCC*
X175260000Y-125095000D03*
D20*
G04 #@! TO.P,J1,2*
G04 #@! TO.N,GND*
X175260000Y-127635000D03*
G04 #@! TO.P,J1,3*
G04 #@! TO.N,VCC*
X172720000Y-125095000D03*
G04 #@! TO.P,J1,4*
G04 #@! TO.N,GND*
X172720000Y-127635000D03*
G04 #@! TO.P,J1,5*
G04 #@! TO.N,Net-(J1-Pad5)*
X170180000Y-125095000D03*
G04 #@! TO.P,J1,6*
G04 #@! TO.N,Net-(J1-Pad6)*
X170180000Y-127635000D03*
G04 #@! TO.P,J1,7*
G04 #@! TO.N,Net-(J1-Pad7)*
X167640000Y-125095000D03*
G04 #@! TO.P,J1,8*
G04 #@! TO.N,Net-(J1-Pad8)*
X167640000Y-127635000D03*
G04 #@! TO.P,J1,9*
G04 #@! TO.N,/D0*
X165100000Y-125095000D03*
G04 #@! TO.P,J1,10*
G04 #@! TO.N,/D1*
X165100000Y-127635000D03*
G04 #@! TO.P,J1,11*
G04 #@! TO.N,/D2*
X162560000Y-125095000D03*
G04 #@! TO.P,J1,12*
G04 #@! TO.N,/D3*
X162560000Y-127635000D03*
G04 #@! TO.P,J1,13*
G04 #@! TO.N,/D4*
X160020000Y-125095000D03*
G04 #@! TO.P,J1,14*
G04 #@! TO.N,/D5*
X160020000Y-127635000D03*
G04 #@! TO.P,J1,15*
G04 #@! TO.N,/D6*
X157480000Y-125095000D03*
G04 #@! TO.P,J1,16*
G04 #@! TO.N,/D7*
X157480000Y-127635000D03*
G04 #@! TO.P,J1,17*
G04 #@! TO.N,Net-(J1-Pad17)*
X154940000Y-125095000D03*
G04 #@! TO.P,J1,18*
G04 #@! TO.N,~MEMRD*
X154940000Y-127635000D03*
G04 #@! TO.P,J1,19*
G04 #@! TO.N,~IOWR*
X152400000Y-125095000D03*
G04 #@! TO.P,J1,20*
G04 #@! TO.N,~MEMWR*
X152400000Y-127635000D03*
G04 #@! TO.P,J1,21*
G04 #@! TO.N,RES*
X149860000Y-125095000D03*
G04 #@! TO.P,J1,22*
G04 #@! TO.N,Net-(J1-Pad22)*
X149860000Y-127635000D03*
G04 #@! TO.P,J1,23*
G04 #@! TO.N,Net-(J1-Pad23)*
X147320000Y-125095000D03*
G04 #@! TO.P,J1,24*
G04 #@! TO.N,Net-(J1-Pad24)*
X147320000Y-127635000D03*
G04 #@! TO.P,J1,25*
G04 #@! TO.N,/A0*
X144780000Y-125095000D03*
G04 #@! TO.P,J1,26*
G04 #@! TO.N,/A1*
X144780000Y-127635000D03*
G04 #@! TO.P,J1,27*
G04 #@! TO.N,/A2*
X142240000Y-125095000D03*
G04 #@! TO.P,J1,28*
G04 #@! TO.N,/A3*
X142240000Y-127635000D03*
G04 #@! TO.P,J1,29*
G04 #@! TO.N,/A4*
X139700000Y-125095000D03*
G04 #@! TO.P,J1,30*
G04 #@! TO.N,/A5*
X139700000Y-127635000D03*
G04 #@! TO.P,J1,31*
G04 #@! TO.N,/A6*
X137160000Y-125095000D03*
G04 #@! TO.P,J1,32*
G04 #@! TO.N,A7*
X137160000Y-127635000D03*
G04 #@! TO.P,J1,33*
G04 #@! TO.N,/A8*
X134620000Y-125095000D03*
G04 #@! TO.P,J1,34*
G04 #@! TO.N,/A9*
X134620000Y-127635000D03*
G04 #@! TO.P,J1,35*
G04 #@! TO.N,/A10*
X132080000Y-125095000D03*
G04 #@! TO.P,J1,36*
G04 #@! TO.N,/A11*
X132080000Y-127635000D03*
G04 #@! TO.P,J1,37*
G04 #@! TO.N,/A12*
X129540000Y-125095000D03*
G04 #@! TO.P,J1,38*
G04 #@! TO.N,/A13*
X129540000Y-127635000D03*
G04 #@! TO.P,J1,39*
G04 #@! TO.N,/A14*
X127000000Y-125095000D03*
G04 #@! TO.P,J1,40*
G04 #@! TO.N,/A15*
X127000000Y-127635000D03*
G04 #@! TD*
D21*
G04 #@! TO.P,D1,1*
G04 #@! TO.N,Net-(D1-Pad1)*
X111920000Y-118092000D03*
D22*
G04 #@! TO.P,D1,2*
G04 #@! TO.N,Net-(D1-Pad2)*
X111920000Y-120632000D03*
G04 #@! TD*
D21*
G04 #@! TO.P,D2,1*
G04 #@! TO.N,Net-(D2-Pad1)*
X118370000Y-118172000D03*
D22*
G04 #@! TO.P,D2,2*
G04 #@! TO.N,Net-(D2-Pad2)*
X118370000Y-120712000D03*
G04 #@! TD*
D18*
G04 #@! TO.P,U1,1*
G04 #@! TO.N,Net-(U1-Pad1)*
X139890000Y-73025000D03*
D15*
G04 #@! TO.P,U1,8*
G04 #@! TO.N,Net-(U1-Pad8)*
X147510000Y-88265000D03*
G04 #@! TO.P,U1,2*
G04 #@! TO.N,~IOWR*
X139890000Y-75565000D03*
G04 #@! TO.P,U1,9*
G04 #@! TO.N,Net-(U1-Pad4)*
X147510000Y-85725000D03*
G04 #@! TO.P,U1,3*
G04 #@! TO.N,Net-(J2-Pad2)*
X139890000Y-78105000D03*
G04 #@! TO.P,U1,10*
G04 #@! TO.N,Net-(U1-Pad10)*
X147510000Y-83185000D03*
G04 #@! TO.P,U1,4*
G04 #@! TO.N,Net-(U1-Pad4)*
X139890000Y-80645000D03*
G04 #@! TO.P,U1,11*
G04 #@! TO.N,Net-(U1-Pad10)*
X147510000Y-80645000D03*
G04 #@! TO.P,U1,5*
G04 #@! TO.N,/DA0*
X139890000Y-83185000D03*
G04 #@! TO.P,U1,12*
G04 #@! TO.N,Net-(U1-Pad10)*
X147510000Y-78105000D03*
G04 #@! TO.P,U1,6*
G04 #@! TO.N,/DA1*
X139890000Y-85725000D03*
G04 #@! TO.P,U1,13*
G04 #@! TO.N,Net-(U1-Pad13)*
X147510000Y-75565000D03*
G04 #@! TO.P,U1,7*
G04 #@! TO.N,GND*
X139890000Y-88265000D03*
G04 #@! TO.P,U1,14*
G04 #@! TO.N,VCC*
X147510000Y-73025000D03*
G04 #@! TD*
D18*
G04 #@! TO.P,U3,1*
G04 #@! TO.N,ADDR_SEL*
X109230000Y-75410000D03*
D15*
G04 #@! TO.P,U3,9*
G04 #@! TO.N,Net-(U3-Pad9)*
X116850000Y-93190000D03*
G04 #@! TO.P,U3,2*
G04 #@! TO.N,/A5*
X109230000Y-77950000D03*
G04 #@! TO.P,U3,10*
G04 #@! TO.N,Net-(U3-Pad10)*
X116850000Y-90650000D03*
G04 #@! TO.P,U3,3*
G04 #@! TO.N,/A6*
X109230000Y-80490000D03*
G04 #@! TO.P,U3,11*
G04 #@! TO.N,Net-(U3-Pad11)*
X116850000Y-88110000D03*
G04 #@! TO.P,U3,4*
G04 #@! TO.N,Net-(J2-Pad1)*
X109230000Y-83030000D03*
G04 #@! TO.P,U3,12*
G04 #@! TO.N,Net-(U1-Pad8)*
X116850000Y-85570000D03*
G04 #@! TO.P,U3,5*
G04 #@! TO.N,Net-(J2-Pad3)*
X109230000Y-85570000D03*
G04 #@! TO.P,U3,13*
G04 #@! TO.N,/A15*
X116850000Y-83030000D03*
G04 #@! TO.P,U3,6*
G04 #@! TO.N,Net-(J2-Pad5)*
X109230000Y-88110000D03*
G04 #@! TO.P,U3,14*
G04 #@! TO.N,Net-(JP2-Pad2)*
X116850000Y-80490000D03*
G04 #@! TO.P,U3,7*
G04 #@! TO.N,Net-(J2-Pad7)*
X109230000Y-90650000D03*
G04 #@! TO.P,U3,15*
G04 #@! TO.N,GND*
X116850000Y-77950000D03*
G04 #@! TO.P,U3,8*
X109230000Y-93190000D03*
G04 #@! TO.P,U3,16*
G04 #@! TO.N,VCC*
X116850000Y-75410000D03*
G04 #@! TD*
D18*
G04 #@! TO.P,U4,1*
G04 #@! TO.N,/DA1*
X125158000Y-73088500D03*
D15*
G04 #@! TO.P,U4,8*
G04 #@! TO.N,Net-(D2-Pad1)*
X132778000Y-88328500D03*
G04 #@! TO.P,U4,2*
G04 #@! TO.N,Net-(U4-Pad2)*
X125158000Y-75628500D03*
G04 #@! TO.P,U4,9*
G04 #@! TO.N,/DA1*
X132778000Y-85788500D03*
G04 #@! TO.P,U4,3*
G04 #@! TO.N,Net-(U4-Pad3)*
X125158000Y-78168500D03*
G04 #@! TO.P,U4,10*
G04 #@! TO.N,Net-(D1-Pad1)*
X132778000Y-83248500D03*
G04 #@! TO.P,U4,4*
G04 #@! TO.N,/MEMA16*
X125158000Y-80708500D03*
G04 #@! TO.P,U4,11*
G04 #@! TO.N,/DA0*
X132778000Y-80708500D03*
G04 #@! TO.P,U4,5*
G04 #@! TO.N,RES*
X125158000Y-83248500D03*
G04 #@! TO.P,U4,12*
G04 #@! TO.N,Net-(D3-Pad1)*
X132778000Y-78168500D03*
G04 #@! TO.P,U4,6*
G04 #@! TO.N,Net-(U2-Pad13)*
X125158000Y-85788500D03*
G04 #@! TO.P,U4,13*
G04 #@! TO.N,Net-(U1-Pad4)*
X132778000Y-75628500D03*
G04 #@! TO.P,U4,7*
G04 #@! TO.N,GND*
X125158000Y-88328500D03*
G04 #@! TO.P,U4,14*
G04 #@! TO.N,VCC*
X132778000Y-73088500D03*
G04 #@! TD*
D18*
G04 #@! TO.P,U5,1*
G04 #@! TO.N,/DA0*
X124904000Y-96837500D03*
D15*
G04 #@! TO.P,U5,8*
G04 #@! TO.N,Net-(U5-Pad5)*
X132524000Y-112077500D03*
G04 #@! TO.P,U5,2*
G04 #@! TO.N,/A15*
X124904000Y-99377500D03*
G04 #@! TO.P,U5,9*
X132524000Y-109537500D03*
G04 #@! TO.P,U5,3*
G04 #@! TO.N,Net-(U5-Pad3)*
X124904000Y-101917500D03*
G04 #@! TO.P,U5,10*
G04 #@! TO.N,Net-(U4-Pad2)*
X132524000Y-106997500D03*
G04 #@! TO.P,U5,4*
G04 #@! TO.N,Net-(U5-Pad3)*
X124904000Y-104457500D03*
G04 #@! TO.P,U5,11*
G04 #@! TO.N,Net-(U4-Pad3)*
X132524000Y-104457500D03*
G04 #@! TO.P,U5,5*
G04 #@! TO.N,Net-(U5-Pad5)*
X124904000Y-106997500D03*
G04 #@! TO.P,U5,12*
G04 #@! TO.N,/DA1*
X132524000Y-101917500D03*
G04 #@! TO.P,U5,6*
G04 #@! TO.N,/MEMA15*
X124904000Y-109537500D03*
G04 #@! TO.P,U5,13*
G04 #@! TO.N,/A15*
X132524000Y-99377500D03*
G04 #@! TO.P,U5,7*
G04 #@! TO.N,GND*
X124904000Y-112077500D03*
G04 #@! TO.P,U5,14*
G04 #@! TO.N,VCC*
X132524000Y-96837500D03*
G04 #@! TD*
D18*
G04 #@! TO.P,U6,1*
G04 #@! TO.N,N/C*
X157480000Y-74295000D03*
D15*
G04 #@! TO.P,U6,17*
G04 #@! TO.N,/D3*
X172720000Y-112395000D03*
G04 #@! TO.P,U6,2*
G04 #@! TO.N,/MEMA16*
X157480000Y-76835000D03*
G04 #@! TO.P,U6,18*
G04 #@! TO.N,/D4*
X172720000Y-109855000D03*
G04 #@! TO.P,U6,3*
G04 #@! TO.N,/A14*
X157480000Y-79375000D03*
G04 #@! TO.P,U6,19*
G04 #@! TO.N,/D5*
X172720000Y-107315000D03*
G04 #@! TO.P,U6,4*
G04 #@! TO.N,/A12*
X157480000Y-81915000D03*
G04 #@! TO.P,U6,20*
G04 #@! TO.N,/D6*
X172720000Y-104775000D03*
G04 #@! TO.P,U6,5*
G04 #@! TO.N,A7*
X157480000Y-84455000D03*
G04 #@! TO.P,U6,21*
G04 #@! TO.N,/D7*
X172720000Y-102235000D03*
G04 #@! TO.P,U6,6*
G04 #@! TO.N,/A6*
X157480000Y-86995000D03*
G04 #@! TO.P,U6,22*
G04 #@! TO.N,GND*
X172720000Y-99695000D03*
G04 #@! TO.P,U6,7*
G04 #@! TO.N,/A5*
X157480000Y-89535000D03*
G04 #@! TO.P,U6,23*
G04 #@! TO.N,/A10*
X172720000Y-97155000D03*
G04 #@! TO.P,U6,8*
G04 #@! TO.N,/A4*
X157480000Y-92075000D03*
G04 #@! TO.P,U6,24*
G04 #@! TO.N,~MEMRD*
X172720000Y-94615000D03*
G04 #@! TO.P,U6,9*
G04 #@! TO.N,/A3*
X157480000Y-94615000D03*
G04 #@! TO.P,U6,25*
G04 #@! TO.N,/A11*
X172720000Y-92075000D03*
G04 #@! TO.P,U6,10*
G04 #@! TO.N,/A2*
X157480000Y-97155000D03*
G04 #@! TO.P,U6,26*
G04 #@! TO.N,/A9*
X172720000Y-89535000D03*
G04 #@! TO.P,U6,11*
G04 #@! TO.N,/A1*
X157480000Y-99695000D03*
G04 #@! TO.P,U6,27*
G04 #@! TO.N,/A8*
X172720000Y-86995000D03*
G04 #@! TO.P,U6,12*
G04 #@! TO.N,/A0*
X157480000Y-102235000D03*
G04 #@! TO.P,U6,28*
G04 #@! TO.N,/A13*
X172720000Y-84455000D03*
G04 #@! TO.P,U6,13*
G04 #@! TO.N,/D0*
X157480000Y-104775000D03*
G04 #@! TO.P,U6,29*
G04 #@! TO.N,~MEMWR*
X172720000Y-81915000D03*
G04 #@! TO.P,U6,14*
G04 #@! TO.N,/D1*
X157480000Y-107315000D03*
G04 #@! TO.P,U6,30*
G04 #@! TO.N,Net-(U1-Pad13)*
X172720000Y-79375000D03*
G04 #@! TO.P,U6,15*
G04 #@! TO.N,/D2*
X157480000Y-109855000D03*
G04 #@! TO.P,U6,31*
G04 #@! TO.N,/MEMA15*
X172720000Y-76835000D03*
G04 #@! TO.P,U6,16*
G04 #@! TO.N,GND*
X157480000Y-112395000D03*
G04 #@! TO.P,U6,32*
G04 #@! TO.N,VCC*
X172720000Y-74295000D03*
G04 #@! TD*
D12*
G04 #@! TO.P,C1,1*
G04 #@! TO.N,VCC*
X147920000Y-69490000D03*
G04 #@! TO.P,C1,2*
G04 #@! TO.N,GND*
X145420000Y-69490000D03*
G04 #@! TD*
G04 #@! TO.P,C2,1*
G04 #@! TO.N,VCC*
X147828000Y-93281500D03*
G04 #@! TO.P,C2,2*
G04 #@! TO.N,GND*
X145328000Y-93281500D03*
G04 #@! TD*
G04 #@! TO.P,C3,1*
G04 #@! TO.N,VCC*
X117390000Y-72000000D03*
G04 #@! TO.P,C3,2*
G04 #@! TO.N,GND*
X114890000Y-72000000D03*
G04 #@! TD*
G04 #@! TO.P,C4,1*
G04 #@! TO.N,VCC*
X133096000Y-69278500D03*
G04 #@! TO.P,C4,2*
G04 #@! TO.N,GND*
X130596000Y-69278500D03*
G04 #@! TD*
G04 #@! TO.P,C5,1*
G04 #@! TO.N,VCC*
X133032000Y-93408500D03*
G04 #@! TO.P,C5,2*
G04 #@! TO.N,GND*
X130532000Y-93408500D03*
G04 #@! TD*
G04 #@! TO.P,C6,1*
G04 #@! TO.N,VCC*
X172720000Y-71120000D03*
G04 #@! TO.P,C6,2*
G04 #@! TO.N,GND*
X170220000Y-71120000D03*
G04 #@! TD*
G04 #@! TO.P,C7,1*
G04 #@! TO.N,VCC*
X195540000Y-76200000D03*
G04 #@! TO.P,C7,2*
G04 #@! TO.N,GND*
X193040000Y-76200000D03*
G04 #@! TD*
D18*
G04 #@! TO.P,C8,1*
G04 #@! TO.N,VCC*
X185420000Y-126365000D03*
D12*
G04 #@! TO.P,C8,2*
G04 #@! TO.N,GND*
X187920000Y-126365000D03*
G04 #@! TD*
D23*
G04 #@! TO.N,Net-(D2-Pad1)*
X122262800Y-97714500D03*
G04 #@! TO.N,/D0*
X173703400Y-106078400D03*
G04 #@! TO.N,~IOWR*
X149641400Y-112686800D03*
G04 #@! TO.N,/A0*
X154830000Y-102235000D03*
G04 #@! TO.N,/A5*
X125715900Y-95038300D03*
X154245500Y-103463600D03*
G04 #@! TO.N,/A11*
X154018200Y-121840100D03*
G04 #@! TO.N,RES*
X130631400Y-100081400D03*
G04 #@! TD*
D24*
G04 #@! TO.N,Net-(D1-Pad1)*
X111920000Y-118092000D02*
X111920000Y-116766700D01*
X132778000Y-83248500D02*
X131652700Y-83248500D01*
X131652700Y-83248500D02*
X130527400Y-82123200D01*
X130527400Y-82123200D02*
X124918800Y-82123200D01*
X124918800Y-82123200D02*
X122089500Y-79293900D01*
X122089500Y-79293900D02*
X115734400Y-79293900D01*
X115734400Y-79293900D02*
X110607400Y-84420900D01*
X110607400Y-84420900D02*
X108139200Y-84420900D01*
X108139200Y-84420900D02*
X106384700Y-86175400D01*
X106384700Y-86175400D02*
X105091100Y-86175400D01*
X105091100Y-86175400D02*
X104224700Y-87041800D01*
X104224700Y-87041800D02*
X104224700Y-109899700D01*
X104224700Y-109899700D02*
X111091700Y-116766700D01*
X111091700Y-116766700D02*
X111920000Y-116766700D01*
G04 #@! TO.N,Net-(D2-Pad1)*
X132778000Y-88328500D02*
X130636300Y-88328500D01*
X130636300Y-88328500D02*
X122262800Y-96702000D01*
X122262800Y-96702000D02*
X122262800Y-97714500D01*
G04 #@! TO.N,Net-(D2-Pad2)*
X109728000Y-128524000D02*
X110853300Y-128524000D01*
X118370000Y-120712000D02*
X110853300Y-128228700D01*
X110853300Y-128228700D02*
X110853300Y-128524000D01*
D25*
G04 #@! TO.N,VCC*
X119888000Y-125476000D02*
X119888000Y-128524000D01*
X148810300Y-73025000D02*
X148840700Y-72994600D01*
X148840700Y-72994600D02*
X170119300Y-72994600D01*
X170119300Y-72994600D02*
X171419700Y-74295000D01*
X175260000Y-125095000D02*
X176623900Y-125095000D01*
X185420000Y-125714800D02*
X177243700Y-125714800D01*
X177243700Y-125714800D02*
X176623900Y-125095000D01*
X185420000Y-125714800D02*
X185420000Y-125064700D01*
X185420000Y-126365000D02*
X185420000Y-125714800D01*
X195580000Y-81915000D02*
X196883500Y-83218500D01*
X196883500Y-83218500D02*
X196883500Y-113601200D01*
X196883500Y-113601200D02*
X185420000Y-125064700D01*
X175260000Y-125095000D02*
X174083900Y-125095000D01*
X172720000Y-125095000D02*
X174083900Y-125095000D01*
X132524000Y-96837500D02*
X133824300Y-96837500D01*
X138463700Y-96710500D02*
X133951300Y-96710500D01*
X133951300Y-96710500D02*
X133824300Y-96837500D01*
X172720000Y-125095000D02*
X167640000Y-120015000D01*
X167640000Y-120015000D02*
X165735000Y-120015000D01*
X147510000Y-73025000D02*
X148810300Y-73025000D01*
X172720000Y-74295000D02*
X171419700Y-74295000D01*
X139764000Y-96710500D02*
X138463700Y-96710500D01*
X132778000Y-71788200D02*
X117601800Y-71788200D01*
X117601800Y-71788200D02*
X117390000Y-72000000D01*
X146209700Y-73025000D02*
X144909400Y-71724700D01*
X144909400Y-71724700D02*
X132841500Y-71724700D01*
X132841500Y-71724700D02*
X132778000Y-71788200D01*
X132778000Y-73088500D02*
X132778000Y-71788200D01*
X147510000Y-73025000D02*
X146209700Y-73025000D01*
G04 #@! TO.N,GND*
X193040000Y-76200000D02*
X189290900Y-72450900D01*
X189290900Y-72450900D02*
X171550900Y-72450900D01*
X171550900Y-72450900D02*
X170220000Y-71120000D01*
X187920000Y-126365000D02*
X197686900Y-116598100D01*
X197686900Y-116598100D02*
X197686900Y-79630900D01*
X197686900Y-79630900D02*
X195863400Y-77807400D01*
X195863400Y-77807400D02*
X194647400Y-77807400D01*
X194647400Y-77807400D02*
X193040000Y-76200000D01*
X113562100Y-74045200D02*
X113562100Y-74662100D01*
X113562100Y-74662100D02*
X116850000Y-77950000D01*
X114890000Y-72000000D02*
X113562100Y-73327900D01*
X113562100Y-73327900D02*
X113562100Y-74045200D01*
X113562100Y-74045200D02*
X108237100Y-74045200D01*
X108237100Y-74045200D02*
X105400000Y-76882300D01*
X105400000Y-76882300D02*
X105400000Y-85000000D01*
X170220000Y-71120000D02*
X147050000Y-71120000D01*
X147050000Y-71120000D02*
X145420000Y-69490000D01*
X114890000Y-72000000D02*
X117611500Y-69278500D01*
X117611500Y-69278500D02*
X130596000Y-69278500D01*
X145420000Y-69490000D02*
X144316100Y-70593900D01*
X144316100Y-70593900D02*
X131911400Y-70593900D01*
X131911400Y-70593900D02*
X130596000Y-69278500D01*
X124904000Y-112077500D02*
X123603700Y-112077500D01*
X117695900Y-94490300D02*
X119651900Y-96446300D01*
X119651900Y-96446300D02*
X119651900Y-108125700D01*
X119651900Y-108125700D02*
X123603700Y-112077500D01*
X117695900Y-94490300D02*
X111830600Y-94490300D01*
X111830600Y-94490300D02*
X110530300Y-93190000D01*
X123857700Y-88328500D02*
X117695900Y-94490300D01*
X109230000Y-93190000D02*
X110530300Y-93190000D01*
X125158000Y-88328500D02*
X123857700Y-88328500D01*
X156179700Y-112395000D02*
X155571200Y-111786500D01*
X155571200Y-111786500D02*
X149268500Y-111786500D01*
X149268500Y-111786500D02*
X148741100Y-112313900D01*
X148741100Y-112313900D02*
X148741100Y-112457300D01*
X148741100Y-112457300D02*
X147947600Y-113250800D01*
X147947600Y-113250800D02*
X142364600Y-113250800D01*
X142364600Y-113250800D02*
X141064300Y-111950500D01*
X157480000Y-112395000D02*
X156179700Y-112395000D01*
X139764000Y-111950500D02*
X141064300Y-111950500D01*
X172720000Y-127635000D02*
X175260000Y-127635000D01*
X130532000Y-93408500D02*
X135675500Y-88265000D01*
X135675500Y-88265000D02*
X139890000Y-88265000D01*
D24*
G04 #@! TO.N,/D0*
X140889300Y-99250500D02*
X142050600Y-98089200D01*
X142050600Y-98089200D02*
X147845400Y-98089200D01*
X147845400Y-98089200D02*
X154531200Y-104775000D01*
X154531200Y-104775000D02*
X156354700Y-104775000D01*
X139764000Y-99250500D02*
X140889300Y-99250500D01*
X173703400Y-106078400D02*
X174437200Y-105344600D01*
X174437200Y-105344600D02*
X178645100Y-105344600D01*
X178645100Y-105344600D02*
X179214700Y-104775000D01*
X158605300Y-104775000D02*
X159908700Y-106078400D01*
X159908700Y-106078400D02*
X173703400Y-106078400D01*
X180340000Y-104775000D02*
X179214700Y-104775000D01*
X157480000Y-104775000D02*
X158605300Y-104775000D01*
X156917400Y-104775000D02*
X157480000Y-104775000D01*
X156917400Y-104775000D02*
X156354700Y-104775000D01*
G04 #@! TO.N,/D1*
X148509300Y-101790500D02*
X154033800Y-107315000D01*
X154033800Y-107315000D02*
X156354700Y-107315000D01*
X156354700Y-107315000D02*
X156354700Y-110337800D01*
X156354700Y-110337800D02*
X157141900Y-111125000D01*
X157141900Y-111125000D02*
X157809700Y-111125000D01*
X157809700Y-111125000D02*
X161316600Y-114631900D01*
X161316600Y-114631900D02*
X161316600Y-125555000D01*
X161316600Y-125555000D02*
X162207700Y-126446100D01*
X162207700Y-126446100D02*
X163093800Y-126446100D01*
X163093800Y-126446100D02*
X163911100Y-127263400D01*
X163911100Y-127263400D02*
X163911100Y-127635000D01*
X165100000Y-127635000D02*
X163911100Y-127635000D01*
X157480000Y-107315000D02*
X158605300Y-107315000D01*
X158605300Y-107315000D02*
X159730600Y-108440300D01*
X159730600Y-108440300D02*
X178089400Y-108440300D01*
X178089400Y-108440300D02*
X179214700Y-107315000D01*
X156917400Y-107315000D02*
X157480000Y-107315000D01*
X180340000Y-107315000D02*
X179214700Y-107315000D01*
X156917400Y-107315000D02*
X156354700Y-107315000D01*
X147384000Y-101790500D02*
X148509300Y-101790500D01*
G04 #@! TO.N,/D2*
X157480000Y-109855000D02*
X158605300Y-109855000D01*
X162560000Y-111125000D02*
X177944700Y-111125000D01*
X177944700Y-111125000D02*
X179214700Y-109855000D01*
X158605300Y-109855000D02*
X159875300Y-111125000D01*
X159875300Y-111125000D02*
X162560000Y-111125000D01*
X162560000Y-111125000D02*
X162560000Y-125095000D01*
X180340000Y-109855000D02*
X179214700Y-109855000D01*
G04 #@! TO.N,/D3*
X195580000Y-112395000D02*
X194454700Y-112395000D01*
X172720000Y-112395000D02*
X173845300Y-112395000D01*
X173845300Y-112395000D02*
X174970600Y-113520300D01*
X174970600Y-113520300D02*
X193329400Y-113520300D01*
X193329400Y-113520300D02*
X194454700Y-112395000D01*
G04 #@! TO.N,/D4*
X195580000Y-109855000D02*
X194454700Y-109855000D01*
X172720000Y-109855000D02*
X177719400Y-109855000D01*
X177719400Y-109855000D02*
X178844700Y-108729700D01*
X178844700Y-108729700D02*
X193329400Y-108729700D01*
X193329400Y-108729700D02*
X194454700Y-109855000D01*
G04 #@! TO.N,/D5*
X172720000Y-107315000D02*
X175606600Y-107315000D01*
X175606600Y-107315000D02*
X176731900Y-106189700D01*
X176731900Y-106189700D02*
X193329400Y-106189700D01*
X193329400Y-106189700D02*
X194454700Y-107315000D01*
X195580000Y-107315000D02*
X194454700Y-107315000D01*
G04 #@! TO.N,/D6*
X195580000Y-104775000D02*
X194454700Y-104775000D01*
X172720000Y-104775000D02*
X177804700Y-104775000D01*
X177804700Y-104775000D02*
X178930000Y-103649700D01*
X178930000Y-103649700D02*
X193329400Y-103649700D01*
X193329400Y-103649700D02*
X194454700Y-104775000D01*
G04 #@! TO.N,/D7*
X195580000Y-102235000D02*
X194454700Y-102235000D01*
X172720000Y-102235000D02*
X173845300Y-102235000D01*
X173845300Y-102235000D02*
X174970600Y-101109700D01*
X174970600Y-101109700D02*
X193329400Y-101109700D01*
X193329400Y-101109700D02*
X194454700Y-102235000D01*
G04 #@! TO.N,~IOWR*
X153588900Y-125095000D02*
X153588900Y-124421700D01*
X153588900Y-124421700D02*
X157167600Y-120843000D01*
X157167600Y-120843000D02*
X157167600Y-119344100D01*
X157167600Y-119344100D02*
X150510300Y-112686800D01*
X150510300Y-112686800D02*
X149641400Y-112686800D01*
X152400000Y-125095000D02*
X153588900Y-125095000D01*
G04 #@! TO.N,/A0*
X156354700Y-102235000D02*
X154830000Y-102235000D01*
X157480000Y-102235000D02*
X156354700Y-102235000D01*
X158042700Y-102235000D02*
X157480000Y-102235000D01*
X158042700Y-102235000D02*
X158605300Y-102235000D01*
X158605300Y-102235000D02*
X159730600Y-103360300D01*
X159730600Y-103360300D02*
X178089400Y-103360300D01*
X178089400Y-103360300D02*
X179214700Y-102235000D01*
X180340000Y-102235000D02*
X179214700Y-102235000D01*
G04 #@! TO.N,/A1*
X157480000Y-99695000D02*
X158605300Y-99695000D01*
X158605300Y-99695000D02*
X159741600Y-100831300D01*
X159741600Y-100831300D02*
X173673400Y-100831300D01*
X173673400Y-100831300D02*
X174809700Y-99695000D01*
X174809700Y-99695000D02*
X180340000Y-99695000D01*
G04 #@! TO.N,/A2*
X180340000Y-97155000D02*
X179214700Y-97155000D01*
X157480000Y-97155000D02*
X158605300Y-97155000D01*
X158605300Y-97155000D02*
X159730600Y-98280300D01*
X159730600Y-98280300D02*
X178089400Y-98280300D01*
X178089400Y-98280300D02*
X179214700Y-97155000D01*
G04 #@! TO.N,/A3*
X157480000Y-94615000D02*
X158605300Y-94615000D01*
X158605300Y-94615000D02*
X159741600Y-95751300D01*
X159741600Y-95751300D02*
X173673400Y-95751300D01*
X173673400Y-95751300D02*
X174809700Y-94615000D01*
X174809700Y-94615000D02*
X180340000Y-94615000D01*
G04 #@! TO.N,/A4*
X157480000Y-92075000D02*
X158605300Y-92075000D01*
X158605300Y-92075000D02*
X159738500Y-90941800D01*
X159738500Y-90941800D02*
X173349000Y-90941800D01*
X173349000Y-90941800D02*
X174482200Y-92075000D01*
X174482200Y-92075000D02*
X180340000Y-92075000D01*
G04 #@! TO.N,/A5*
X153459200Y-95038300D02*
X125715900Y-95038300D01*
X153459200Y-95038300D02*
X153459200Y-102677300D01*
X153459200Y-102677300D02*
X154245500Y-103463600D01*
X156354700Y-89535000D02*
X153459200Y-92430500D01*
X153459200Y-92430500D02*
X153459200Y-95038300D01*
X157480000Y-89535000D02*
X156354700Y-89535000D01*
X157746200Y-89535000D02*
X157480000Y-89535000D01*
X157746200Y-89535000D02*
X158605300Y-89535000D01*
X158605300Y-89535000D02*
X159738500Y-88401800D01*
X159738500Y-88401800D02*
X173349000Y-88401800D01*
X173349000Y-88401800D02*
X174482200Y-89535000D01*
X174482200Y-89535000D02*
X180340000Y-89535000D01*
G04 #@! TO.N,/A6*
X157480000Y-86995000D02*
X158605300Y-86995000D01*
X158605300Y-86995000D02*
X159738500Y-85861800D01*
X159738500Y-85861800D02*
X173349000Y-85861800D01*
X173349000Y-85861800D02*
X174482200Y-86995000D01*
X174482200Y-86995000D02*
X180340000Y-86995000D01*
G04 #@! TO.N,/A8*
X195580000Y-86995000D02*
X194454700Y-86995000D01*
X172720000Y-86995000D02*
X173845300Y-86995000D01*
X173845300Y-86995000D02*
X174970600Y-88120300D01*
X174970600Y-88120300D02*
X193329400Y-88120300D01*
X193329400Y-88120300D02*
X194454700Y-86995000D01*
G04 #@! TO.N,/A9*
X195580000Y-89535000D02*
X194454700Y-89535000D01*
X172720000Y-89535000D02*
X173845300Y-89535000D01*
X173845300Y-89535000D02*
X174970600Y-90660300D01*
X174970600Y-90660300D02*
X193329400Y-90660300D01*
X193329400Y-90660300D02*
X194454700Y-89535000D01*
G04 #@! TO.N,/A10*
X195580000Y-97155000D02*
X194454700Y-97155000D01*
X172720000Y-97155000D02*
X173845300Y-97155000D01*
X173845300Y-97155000D02*
X174970600Y-96029700D01*
X174970600Y-96029700D02*
X193329400Y-96029700D01*
X193329400Y-96029700D02*
X194454700Y-97155000D01*
G04 #@! TO.N,/A11*
X132080000Y-127635000D02*
X133268900Y-127635000D01*
X154018200Y-121840100D02*
X143803800Y-121840100D01*
X143803800Y-121840100D02*
X140889000Y-124754900D01*
X140889000Y-124754900D02*
X140889000Y-125609300D01*
X140889000Y-125609300D02*
X140052300Y-126446000D01*
X140052300Y-126446000D02*
X139185700Y-126446000D01*
X139185700Y-126446000D02*
X138430000Y-127201700D01*
X138430000Y-127201700D02*
X138430000Y-128109300D01*
X138430000Y-128109300D02*
X137715400Y-128823900D01*
X137715400Y-128823900D02*
X134086200Y-128823900D01*
X134086200Y-128823900D02*
X133268900Y-128006600D01*
X133268900Y-128006600D02*
X133268900Y-127635000D01*
X195580000Y-92075000D02*
X194454700Y-92075000D01*
X172720000Y-92075000D02*
X173845300Y-92075000D01*
X173845300Y-92075000D02*
X174970600Y-93200300D01*
X174970600Y-93200300D02*
X193329400Y-93200300D01*
X193329400Y-93200300D02*
X194454700Y-92075000D01*
G04 #@! TO.N,/A12*
X157480000Y-81915000D02*
X158605300Y-81915000D01*
X180340000Y-81915000D02*
X179214700Y-81915000D01*
X158605300Y-81915000D02*
X159730600Y-80789700D01*
X159730600Y-80789700D02*
X178089400Y-80789700D01*
X178089400Y-80789700D02*
X179214700Y-81915000D01*
G04 #@! TO.N,/A13*
X195580000Y-84455000D02*
X194454700Y-84455000D01*
X172720000Y-84455000D02*
X173845300Y-84455000D01*
X173845300Y-84455000D02*
X174970600Y-85580300D01*
X174970600Y-85580300D02*
X193329400Y-85580300D01*
X193329400Y-85580300D02*
X194454700Y-84455000D01*
G04 #@! TO.N,/A14*
X127000000Y-123906100D02*
X119224200Y-116130300D01*
X119224200Y-116130300D02*
X116308100Y-116130300D01*
X116308100Y-116130300D02*
X105400000Y-105222200D01*
X105400000Y-105222200D02*
X105400000Y-90080000D01*
X127000000Y-125095000D02*
X127000000Y-123906100D01*
G04 #@! TO.N,/A15*
X127000000Y-127635000D02*
X127000000Y-126446100D01*
X132524000Y-109537500D02*
X132524000Y-110662800D01*
X132524000Y-110662800D02*
X132242700Y-110662800D01*
X132242700Y-110662800D02*
X128188900Y-114716600D01*
X128188900Y-114716600D02*
X128188900Y-125628800D01*
X128188900Y-125628800D02*
X127371600Y-126446100D01*
X127371600Y-126446100D02*
X127000000Y-126446100D01*
X132524000Y-99377500D02*
X131398700Y-99377500D01*
X124904000Y-99377500D02*
X126029300Y-99377500D01*
X126029300Y-99377500D02*
X126101800Y-99305000D01*
X126101800Y-99305000D02*
X131326200Y-99305000D01*
X131326200Y-99305000D02*
X131398700Y-99377500D01*
G04 #@! TO.N,Net-(U1-Pad1)*
X139764000Y-101790500D02*
X140889300Y-101790500D01*
X147384000Y-104330500D02*
X143429300Y-104330500D01*
X143429300Y-104330500D02*
X140889300Y-101790500D01*
G04 #@! TO.N,/DA1*
X147384000Y-109410500D02*
X146258700Y-109410500D01*
X132524000Y-101917500D02*
X133649300Y-101917500D01*
X133649300Y-101917500D02*
X133649300Y-102480100D01*
X133649300Y-102480100D02*
X139454400Y-108285200D01*
X139454400Y-108285200D02*
X145133400Y-108285200D01*
X145133400Y-108285200D02*
X146258700Y-109410500D01*
X132778000Y-85788500D02*
X133903300Y-85788500D01*
X133903300Y-85788500D02*
X138701200Y-85788500D01*
X138701200Y-85788500D02*
X138764700Y-85725000D01*
X139890000Y-85725000D02*
X138764700Y-85725000D01*
G04 #@! TO.N,/DA0*
X139764000Y-106870500D02*
X139764000Y-105745200D01*
X124904000Y-96837500D02*
X126029300Y-96837500D01*
X126029300Y-96837500D02*
X127154600Y-97962800D01*
X127154600Y-97962800D02*
X132726000Y-97962800D01*
X132726000Y-97962800D02*
X138638700Y-103875500D01*
X138638700Y-103875500D02*
X138638700Y-104901300D01*
X138638700Y-104901300D02*
X139482600Y-105745200D01*
X139482600Y-105745200D02*
X139764000Y-105745200D01*
X139890000Y-83185000D02*
X138764700Y-83185000D01*
X132778000Y-80708500D02*
X136288200Y-80708500D01*
X136288200Y-80708500D02*
X138764700Y-83185000D01*
G04 #@! TO.N,/MEMA16*
X125158000Y-80708500D02*
X126283300Y-80708500D01*
X157480000Y-76835000D02*
X130156800Y-76835000D01*
X130156800Y-76835000D02*
X126283300Y-80708500D01*
G04 #@! TO.N,/MEMA15*
X124904000Y-109537500D02*
X124904000Y-108412200D01*
X172720000Y-76835000D02*
X162555300Y-76835000D01*
X162555300Y-76835000D02*
X158745300Y-80645000D01*
X158745300Y-80645000D02*
X157105400Y-80645000D01*
X157105400Y-80645000D02*
X145782000Y-91968400D01*
X145782000Y-91968400D02*
X138348900Y-91968400D01*
X138348900Y-91968400D02*
X135779900Y-94537400D01*
X135779900Y-94537400D02*
X128639200Y-94537400D01*
X128639200Y-94537400D02*
X128397500Y-94295700D01*
X128397500Y-94295700D02*
X125378500Y-94295700D01*
X125378500Y-94295700D02*
X123778700Y-95895500D01*
X123778700Y-95895500D02*
X123778700Y-107568300D01*
X123778700Y-107568300D02*
X124622600Y-108412200D01*
X124622600Y-108412200D02*
X124904000Y-108412200D01*
G04 #@! TO.N,Net-(D3-Pad2)*
X119380000Y-113284000D02*
X119380000Y-114409300D01*
X125870000Y-120572000D02*
X119707300Y-114409300D01*
X119707300Y-114409300D02*
X119380000Y-114409300D01*
G04 #@! TO.N,RES*
X151048900Y-125095000D02*
X151048900Y-124723400D01*
X151048900Y-124723400D02*
X152509000Y-123263300D01*
X152509000Y-123263300D02*
X153973400Y-123263300D01*
X153973400Y-123263300D02*
X156717200Y-120519500D01*
X156717200Y-120519500D02*
X156717200Y-119560300D01*
X156717200Y-119560300D02*
X153105700Y-115948800D01*
X153105700Y-115948800D02*
X142146000Y-115948800D01*
X142146000Y-115948800D02*
X138179700Y-111982500D01*
X138179700Y-111982500D02*
X138179700Y-108455000D01*
X138179700Y-108455000D02*
X133053600Y-103328900D01*
X133053600Y-103328900D02*
X132287600Y-103328900D01*
X132287600Y-103328900D02*
X130631400Y-101672700D01*
X130631400Y-101672700D02*
X130631400Y-100081400D01*
X149860000Y-125095000D02*
X151048900Y-125095000D01*
G04 #@! TO.N,Net-(U2-Pad13)*
X147384000Y-99250500D02*
X146258700Y-99250500D01*
X139764000Y-104330500D02*
X139764000Y-103205200D01*
X139764000Y-103205200D02*
X139482700Y-103205200D01*
X139482700Y-103205200D02*
X138601600Y-102324100D01*
X138601600Y-102324100D02*
X138601600Y-101346800D01*
X138601600Y-101346800D02*
X139572600Y-100375800D01*
X139572600Y-100375800D02*
X145133400Y-100375800D01*
X145133400Y-100375800D02*
X146258700Y-99250500D01*
G04 #@! TO.N,Net-(U1-Pad13)*
X172720000Y-78249700D02*
X173001300Y-78249700D01*
X173001300Y-78249700D02*
X173851400Y-77399600D01*
X173851400Y-77399600D02*
X173851400Y-76338700D01*
X173851400Y-76338700D02*
X173077700Y-75565000D01*
X173077700Y-75565000D02*
X148635300Y-75565000D01*
X147510000Y-75565000D02*
X148635300Y-75565000D01*
X172720000Y-79375000D02*
X172720000Y-78249700D01*
G04 #@! TO.N,Net-(U1-Pad8)*
X147510000Y-88265000D02*
X146384700Y-88265000D01*
X116850000Y-85570000D02*
X117975300Y-85570000D01*
X117975300Y-85570000D02*
X119545000Y-87139700D01*
X119545000Y-87139700D02*
X145259400Y-87139700D01*
X145259400Y-87139700D02*
X146384700Y-88265000D01*
G04 #@! TO.N,Net-(U1-Pad4)*
X139890000Y-80645000D02*
X141015300Y-80645000D01*
X141015300Y-80645000D02*
X146095300Y-85725000D01*
X146095300Y-85725000D02*
X147510000Y-85725000D01*
G04 #@! TO.N,Net-(J2-Pad2)*
X139890000Y-78105000D02*
X139890000Y-79230300D01*
X139890000Y-79230300D02*
X139608700Y-79230300D01*
X139608700Y-79230300D02*
X138764600Y-80074400D01*
X138764600Y-80074400D02*
X138764600Y-81117100D01*
X138764600Y-81117100D02*
X139562500Y-81915000D01*
X139562500Y-81915000D02*
X140211700Y-81915000D01*
X140211700Y-81915000D02*
X141016900Y-82720200D01*
X141016900Y-82720200D02*
X141016900Y-83730000D01*
X141016900Y-83730000D02*
X140302400Y-84444500D01*
X140302400Y-84444500D02*
X116303600Y-84444500D01*
X116303600Y-84444500D02*
X110470700Y-90277400D01*
X110470700Y-90277400D02*
X110470700Y-91053000D01*
X110470700Y-91053000D02*
X109603700Y-91920000D01*
X109603700Y-91920000D02*
X108843500Y-91920000D01*
X108843500Y-91920000D02*
X108056300Y-92707200D01*
X108056300Y-92707200D02*
X108056300Y-100419600D01*
X108056300Y-100419600D02*
X109284000Y-101647300D01*
X111824000Y-102235000D02*
X110648700Y-102235000D01*
X109284000Y-101647300D02*
X110061000Y-101647300D01*
X110061000Y-101647300D02*
X110648700Y-102235000D01*
X109284000Y-102235000D02*
X109284000Y-101647300D01*
X114364000Y-102235000D02*
X116904000Y-102235000D01*
X111824000Y-102235000D02*
X114364000Y-102235000D01*
G04 #@! TO.N,Net-(JP1-Pad1)*
X136275300Y-118628700D02*
X135194000Y-119710000D01*
X155575000Y-120015000D02*
X154188700Y-118628700D01*
X154188700Y-118628700D02*
X136275300Y-118628700D01*
X136275300Y-118628700D02*
X136275300Y-111660700D01*
X136275300Y-111660700D02*
X132996500Y-108381900D01*
X132996500Y-108381900D02*
X130657100Y-108381900D01*
X130657100Y-108381900D02*
X125804500Y-113234500D01*
X125804500Y-113234500D02*
X122026300Y-113234500D01*
X122026300Y-113234500D02*
X117947100Y-109155300D01*
X117947100Y-109155300D02*
X112310200Y-109155300D01*
X112310200Y-109155300D02*
X111502300Y-108347400D01*
X111502300Y-108347400D02*
X111502300Y-107980000D01*
X110327000Y-107980000D02*
X111502300Y-107980000D01*
G04 #@! TO.N,A7*
X135946200Y-121272600D02*
X130583600Y-121272600D01*
X130583600Y-121272600D02*
X129921000Y-120610000D01*
X150639700Y-120015000D02*
X149382100Y-121272600D01*
X149382100Y-121272600D02*
X135946200Y-121272600D01*
X137160000Y-126446100D02*
X136788500Y-126446100D01*
X136788500Y-126446100D02*
X135946200Y-125603800D01*
X135946200Y-125603800D02*
X135946200Y-121272600D01*
X137160000Y-127635000D02*
X137160000Y-126446100D01*
X151765000Y-120015000D02*
X150639700Y-120015000D01*
X180340000Y-84455000D02*
X179214700Y-84455000D01*
X157480000Y-84455000D02*
X158605300Y-84455000D01*
X158605300Y-84455000D02*
X159730600Y-83329700D01*
X159730600Y-83329700D02*
X178089400Y-83329700D01*
X178089400Y-83329700D02*
X179214700Y-84455000D01*
G04 #@! TO.N,Net-(C9-Pad1)*
X137734000Y-119710000D02*
X136658500Y-120785500D01*
X136658500Y-120785500D02*
X131762600Y-120785500D01*
X131762600Y-120785500D02*
X129921000Y-118943900D01*
X129921000Y-118943900D02*
X129921000Y-118110000D01*
G04 #@! TO.N,Net-(JP2-Pad2)*
X105400000Y-87540000D02*
X106575300Y-87540000D01*
X116850000Y-80490000D02*
X115724700Y-80490000D01*
X115724700Y-80490000D02*
X115724700Y-80771300D01*
X115724700Y-80771300D02*
X109604400Y-86891600D01*
X109604400Y-86891600D02*
X107223700Y-86891600D01*
X107223700Y-86891600D02*
X106575300Y-87540000D01*
G04 #@! TD*
D26*
G04 #@! TO.N,GND*
G36*
X199872654Y-137673000D02*
X102726656Y-137673000D01*
X102716065Y-133775431D01*
X104315000Y-133775431D01*
X104315000Y-134664569D01*
X104655259Y-135486026D01*
X105283974Y-136114741D01*
X106105431Y-136455000D01*
X106994569Y-136455000D01*
X107816026Y-136114741D01*
X108444741Y-135486026D01*
X108785000Y-134664569D01*
X108785000Y-133775431D01*
X108743579Y-133675431D01*
X193405000Y-133675431D01*
X193405000Y-134564569D01*
X193745259Y-135386026D01*
X194373974Y-136014741D01*
X195195431Y-136355000D01*
X196084569Y-136355000D01*
X196906026Y-136014741D01*
X197534741Y-135386026D01*
X197875000Y-134564569D01*
X197875000Y-133675431D01*
X197534741Y-132853974D01*
X196906026Y-132225259D01*
X196084569Y-131885000D01*
X195195431Y-131885000D01*
X194373974Y-132225259D01*
X193745259Y-132853974D01*
X193405000Y-133675431D01*
X108743579Y-133675431D01*
X108444741Y-132953974D01*
X107816026Y-132325259D01*
X106994569Y-131985000D01*
X106105431Y-131985000D01*
X105283974Y-132325259D01*
X104655259Y-132953974D01*
X104315000Y-133775431D01*
X102716065Y-133775431D01*
X102693513Y-125476000D01*
X108264887Y-125476000D01*
X108376260Y-126035909D01*
X108693423Y-126510577D01*
X109168091Y-126827740D01*
X109586667Y-126911000D01*
X109869333Y-126911000D01*
X110287909Y-126827740D01*
X110762577Y-126510577D01*
X111079740Y-126035909D01*
X111191113Y-125476000D01*
X111079740Y-124916091D01*
X110762577Y-124441423D01*
X110287909Y-124124260D01*
X109869333Y-124041000D01*
X109586667Y-124041000D01*
X109168091Y-124124260D01*
X108693423Y-124441423D01*
X108376260Y-124916091D01*
X108264887Y-125476000D01*
X102693513Y-125476000D01*
X102589072Y-87041800D01*
X103449812Y-87041800D01*
X103464700Y-87116647D01*
X103464701Y-109824848D01*
X103449812Y-109899700D01*
X103508797Y-110196237D01*
X103604504Y-110339472D01*
X103676772Y-110447629D01*
X103740228Y-110490029D01*
X110284114Y-117033916D01*
X110272560Y-117092000D01*
X110272560Y-119092000D01*
X110321843Y-119339765D01*
X110462191Y-119549809D01*
X110598723Y-119641038D01*
X110533914Y-119705847D01*
X110285000Y-120306778D01*
X110285000Y-120957222D01*
X110533914Y-121558153D01*
X110993847Y-122018086D01*
X111594778Y-122267000D01*
X112245222Y-122267000D01*
X112846153Y-122018086D01*
X113306086Y-121558153D01*
X113555000Y-120957222D01*
X113555000Y-120306778D01*
X113306086Y-119705847D01*
X113241277Y-119641038D01*
X113377809Y-119549809D01*
X113518157Y-119339765D01*
X113567440Y-119092000D01*
X113567440Y-117092000D01*
X113518157Y-116844235D01*
X113377809Y-116634191D01*
X113167765Y-116493843D01*
X112920000Y-116444560D01*
X112618797Y-116444560D01*
X112467929Y-116218771D01*
X112216537Y-116050796D01*
X111920000Y-115991811D01*
X111845148Y-116006700D01*
X111406502Y-116006700D01*
X109939152Y-114539350D01*
X110032862Y-114500534D01*
X110436534Y-114096862D01*
X110655000Y-113569439D01*
X110655000Y-112998561D01*
X110436534Y-112471138D01*
X110032862Y-112067466D01*
X109505439Y-111849000D01*
X108934561Y-111849000D01*
X108407138Y-112067466D01*
X108003466Y-112471138D01*
X107964650Y-112564848D01*
X104984700Y-109584899D01*
X104984700Y-105881701D01*
X115717770Y-116614772D01*
X115760171Y-116678229D01*
X116011563Y-116846204D01*
X116233248Y-116890300D01*
X116233253Y-116890300D01*
X116308100Y-116905188D01*
X116382947Y-116890300D01*
X116794518Y-116890300D01*
X116771843Y-116924235D01*
X116722560Y-117172000D01*
X116722560Y-119172000D01*
X116771843Y-119419765D01*
X116912191Y-119629809D01*
X117048723Y-119721038D01*
X116983914Y-119785847D01*
X116735000Y-120386778D01*
X116735000Y-121037222D01*
X116803823Y-121203375D01*
X110615829Y-127391369D01*
X110287909Y-127172260D01*
X109869333Y-127089000D01*
X109586667Y-127089000D01*
X109168091Y-127172260D01*
X108693423Y-127489423D01*
X108376260Y-127964091D01*
X108264887Y-128524000D01*
X108376260Y-129083909D01*
X108693423Y-129558577D01*
X109168091Y-129875740D01*
X109586667Y-129959000D01*
X109869333Y-129959000D01*
X110287909Y-129875740D01*
X110762577Y-129558577D01*
X110948786Y-129279896D01*
X111149837Y-129239904D01*
X111401229Y-129071929D01*
X111569204Y-128820537D01*
X111613300Y-128598851D01*
X111627044Y-128529757D01*
X114966240Y-125190561D01*
X118453000Y-125190561D01*
X118453000Y-125761439D01*
X118671466Y-126288862D01*
X118953000Y-126570396D01*
X118953001Y-127429603D01*
X118671466Y-127711138D01*
X118453000Y-128238561D01*
X118453000Y-128809439D01*
X118671466Y-129336862D01*
X119075138Y-129740534D01*
X119602561Y-129959000D01*
X120173439Y-129959000D01*
X120700862Y-129740534D01*
X121104534Y-129336862D01*
X121323000Y-128809439D01*
X121323000Y-128238561D01*
X121104534Y-127711138D01*
X120823000Y-127429604D01*
X120823000Y-126570396D01*
X121104534Y-126288862D01*
X121323000Y-125761439D01*
X121323000Y-125190561D01*
X121104534Y-124663138D01*
X120700862Y-124259466D01*
X120173439Y-124041000D01*
X119602561Y-124041000D01*
X119075138Y-124259466D01*
X118671466Y-124663138D01*
X118453000Y-125190561D01*
X114966240Y-125190561D01*
X117878625Y-122278177D01*
X118044778Y-122347000D01*
X118695222Y-122347000D01*
X119296153Y-122098086D01*
X119756086Y-121638153D01*
X120005000Y-121037222D01*
X120005000Y-120386778D01*
X119756086Y-119785847D01*
X119691277Y-119721038D01*
X119827809Y-119629809D01*
X119968157Y-119419765D01*
X120017440Y-119172000D01*
X120017440Y-117998341D01*
X125987967Y-123968869D01*
X125919570Y-124014570D01*
X125588350Y-124510275D01*
X125472041Y-125095000D01*
X125588350Y-125679725D01*
X125919570Y-126175430D01*
X126203281Y-126365000D01*
X125919570Y-126554570D01*
X125588350Y-127050275D01*
X125472041Y-127635000D01*
X125588350Y-128219725D01*
X125919570Y-128715430D01*
X126415275Y-129046650D01*
X126852402Y-129133600D01*
X127147598Y-129133600D01*
X127584725Y-129046650D01*
X128080430Y-128715430D01*
X128270000Y-128431719D01*
X128459570Y-128715430D01*
X128955275Y-129046650D01*
X129392402Y-129133600D01*
X129687598Y-129133600D01*
X130124725Y-129046650D01*
X130620430Y-128715430D01*
X130810000Y-128431719D01*
X130999570Y-128715430D01*
X131495275Y-129046650D01*
X131932402Y-129133600D01*
X132227598Y-129133600D01*
X132664725Y-129046650D01*
X133006069Y-128818571D01*
X133495871Y-129308373D01*
X133538271Y-129371829D01*
X133601727Y-129414229D01*
X133789662Y-129539804D01*
X133837805Y-129549380D01*
X134011348Y-129583900D01*
X134011352Y-129583900D01*
X134086200Y-129598788D01*
X134161048Y-129583900D01*
X137640553Y-129583900D01*
X137715400Y-129598788D01*
X137790247Y-129583900D01*
X137790252Y-129583900D01*
X138011937Y-129539804D01*
X138263329Y-129371829D01*
X138305731Y-129308370D01*
X138786879Y-128827223D01*
X139115275Y-129046650D01*
X139552402Y-129133600D01*
X139847598Y-129133600D01*
X140284725Y-129046650D01*
X140780430Y-128715430D01*
X140970000Y-128431719D01*
X141159570Y-128715430D01*
X141655275Y-129046650D01*
X142092402Y-129133600D01*
X142387598Y-129133600D01*
X142824725Y-129046650D01*
X143320430Y-128715430D01*
X143510000Y-128431719D01*
X143699570Y-128715430D01*
X144195275Y-129046650D01*
X144632402Y-129133600D01*
X144927598Y-129133600D01*
X145364725Y-129046650D01*
X145860430Y-128715430D01*
X146050000Y-128431719D01*
X146239570Y-128715430D01*
X146735275Y-129046650D01*
X147172402Y-129133600D01*
X147467598Y-129133600D01*
X147904725Y-129046650D01*
X148400430Y-128715430D01*
X148590000Y-128431719D01*
X148779570Y-128715430D01*
X149275275Y-129046650D01*
X149712402Y-129133600D01*
X150007598Y-129133600D01*
X150444725Y-129046650D01*
X150940430Y-128715430D01*
X151130000Y-128431719D01*
X151319570Y-128715430D01*
X151815275Y-129046650D01*
X152252402Y-129133600D01*
X152547598Y-129133600D01*
X152984725Y-129046650D01*
X153480430Y-128715430D01*
X153670000Y-128431719D01*
X153859570Y-128715430D01*
X154355275Y-129046650D01*
X154792402Y-129133600D01*
X155087598Y-129133600D01*
X155524725Y-129046650D01*
X156020430Y-128715430D01*
X156210000Y-128431719D01*
X156399570Y-128715430D01*
X156895275Y-129046650D01*
X157332402Y-129133600D01*
X157627598Y-129133600D01*
X158064725Y-129046650D01*
X158560430Y-128715430D01*
X158750000Y-128431719D01*
X158939570Y-128715430D01*
X159435275Y-129046650D01*
X159872402Y-129133600D01*
X160167598Y-129133600D01*
X160604725Y-129046650D01*
X161100430Y-128715430D01*
X161290000Y-128431719D01*
X161479570Y-128715430D01*
X161975275Y-129046650D01*
X162412402Y-129133600D01*
X162707598Y-129133600D01*
X163144725Y-129046650D01*
X163640430Y-128715430D01*
X163830000Y-128431719D01*
X164019570Y-128715430D01*
X164515275Y-129046650D01*
X164952402Y-129133600D01*
X165247598Y-129133600D01*
X165684725Y-129046650D01*
X166180430Y-128715430D01*
X166370000Y-128431719D01*
X166559570Y-128715430D01*
X167055275Y-129046650D01*
X167492402Y-129133600D01*
X167787598Y-129133600D01*
X168224725Y-129046650D01*
X168720430Y-128715430D01*
X168910000Y-128431719D01*
X169099570Y-128715430D01*
X169595275Y-129046650D01*
X170032402Y-129133600D01*
X170327598Y-129133600D01*
X170764725Y-129046650D01*
X171260430Y-128715430D01*
X171461854Y-128413979D01*
X171513179Y-128523490D01*
X171945053Y-128917688D01*
X172360974Y-129089958D01*
X172593000Y-128968817D01*
X172593000Y-127762000D01*
X172847000Y-127762000D01*
X172847000Y-128968817D01*
X173079026Y-129089958D01*
X173494947Y-128917688D01*
X173926821Y-128523490D01*
X173990000Y-128388687D01*
X174053179Y-128523490D01*
X174485053Y-128917688D01*
X174900974Y-129089958D01*
X175133000Y-128968817D01*
X175133000Y-127762000D01*
X175387000Y-127762000D01*
X175387000Y-128968817D01*
X175619026Y-129089958D01*
X176034947Y-128917688D01*
X176466821Y-128523490D01*
X176714968Y-127994027D01*
X176594469Y-127762000D01*
X175387000Y-127762000D01*
X175133000Y-127762000D01*
X172847000Y-127762000D01*
X172593000Y-127762000D01*
X172573000Y-127762000D01*
X172573000Y-127508000D01*
X172593000Y-127508000D01*
X172593000Y-127488000D01*
X172847000Y-127488000D01*
X172847000Y-127508000D01*
X175133000Y-127508000D01*
X175133000Y-127488000D01*
X175387000Y-127488000D01*
X175387000Y-127508000D01*
X176594469Y-127508000D01*
X176714968Y-127275973D01*
X176466821Y-126746510D01*
X176279050Y-126575119D01*
X176371365Y-126556757D01*
X176581409Y-126416409D01*
X176590474Y-126402843D01*
X176806963Y-126547496D01*
X176878881Y-126595550D01*
X177243700Y-126668117D01*
X177335786Y-126649800D01*
X183972560Y-126649800D01*
X183972560Y-127165000D01*
X184021843Y-127412765D01*
X184162191Y-127622809D01*
X184372235Y-127763157D01*
X184620000Y-127812440D01*
X186220000Y-127812440D01*
X186467765Y-127763157D01*
X186677809Y-127622809D01*
X186818157Y-127412765D01*
X186826117Y-127372745D01*
X187091861Y-127372745D01*
X187165995Y-127618864D01*
X187703223Y-127811965D01*
X188273454Y-127784778D01*
X188674005Y-127618864D01*
X188748139Y-127372745D01*
X187920000Y-126544605D01*
X187091861Y-127372745D01*
X186826117Y-127372745D01*
X186864693Y-127178813D01*
X186912255Y-127193139D01*
X187740395Y-126365000D01*
X188099605Y-126365000D01*
X188927745Y-127193139D01*
X189173864Y-127119005D01*
X189366965Y-126581777D01*
X189339778Y-126011546D01*
X189173864Y-125610995D01*
X188927745Y-125536861D01*
X188099605Y-126365000D01*
X187740395Y-126365000D01*
X186912255Y-125536861D01*
X186864693Y-125551187D01*
X186826118Y-125357255D01*
X187091861Y-125357255D01*
X187920000Y-126185395D01*
X188748139Y-125357255D01*
X188674005Y-125111136D01*
X188136777Y-124918035D01*
X187566546Y-124945222D01*
X187165995Y-125111136D01*
X187091861Y-125357255D01*
X186826118Y-125357255D01*
X186818157Y-125317235D01*
X186686617Y-125120372D01*
X197479531Y-114327459D01*
X197557597Y-114275297D01*
X197764250Y-113966019D01*
X197818500Y-113693286D01*
X197818500Y-113693283D01*
X197836816Y-113601201D01*
X197818500Y-113509119D01*
X197818500Y-83310581D01*
X197836816Y-83218499D01*
X197818500Y-83126415D01*
X197818500Y-83126414D01*
X197764250Y-82853681D01*
X197557597Y-82544403D01*
X197479531Y-82492241D01*
X197019749Y-82032459D01*
X197043113Y-81915000D01*
X196931740Y-81355091D01*
X196614577Y-80880423D01*
X196262242Y-80645000D01*
X196614577Y-80409577D01*
X196931740Y-79934909D01*
X197043113Y-79375000D01*
X196931740Y-78815091D01*
X196614577Y-78340423D01*
X196139909Y-78023260D01*
X195721333Y-77940000D01*
X195438667Y-77940000D01*
X195020091Y-78023260D01*
X194545423Y-78340423D01*
X194228260Y-78815091D01*
X194116887Y-79375000D01*
X194228260Y-79934909D01*
X194545423Y-80409577D01*
X194897758Y-80645000D01*
X194545423Y-80880423D01*
X194228260Y-81355091D01*
X194116887Y-81915000D01*
X194228260Y-82474909D01*
X194545423Y-82949577D01*
X194897758Y-83185000D01*
X194545423Y-83420423D01*
X194359214Y-83699104D01*
X194158163Y-83739096D01*
X193906771Y-83907071D01*
X193864371Y-83970527D01*
X193014599Y-84820300D01*
X181730450Y-84820300D01*
X181803113Y-84455000D01*
X181691740Y-83895091D01*
X181374577Y-83420423D01*
X181022242Y-83185000D01*
X181374577Y-82949577D01*
X181691740Y-82474909D01*
X181803113Y-81915000D01*
X181691740Y-81355091D01*
X181374577Y-80880423D01*
X181253894Y-80799785D01*
X181387765Y-80773157D01*
X181597809Y-80632809D01*
X181738157Y-80422765D01*
X181787440Y-80175000D01*
X181787440Y-78575000D01*
X181738157Y-78327235D01*
X181597809Y-78117191D01*
X181387765Y-77976843D01*
X181140000Y-77927560D01*
X179540000Y-77927560D01*
X179292235Y-77976843D01*
X179082191Y-78117191D01*
X178941843Y-78327235D01*
X178892560Y-78575000D01*
X178892560Y-80175000D01*
X178941843Y-80422765D01*
X179082191Y-80632809D01*
X179292235Y-80773157D01*
X179426106Y-80799785D01*
X179305423Y-80880423D01*
X179285196Y-80910695D01*
X178679731Y-80305230D01*
X178637329Y-80241771D01*
X178385937Y-80073796D01*
X178164252Y-80029700D01*
X178164247Y-80029700D01*
X178089400Y-80014812D01*
X178014553Y-80029700D01*
X174008403Y-80029700D01*
X174071740Y-79934909D01*
X174183113Y-79375000D01*
X174071740Y-78815091D01*
X173847023Y-78478778D01*
X174335873Y-77989929D01*
X174399329Y-77947529D01*
X174567304Y-77696137D01*
X174611400Y-77474452D01*
X174611400Y-77474447D01*
X174626288Y-77399600D01*
X174611400Y-77324753D01*
X174611400Y-77207745D01*
X192211861Y-77207745D01*
X192285995Y-77453864D01*
X192823223Y-77646965D01*
X193393454Y-77619778D01*
X193794005Y-77453864D01*
X193868139Y-77207745D01*
X193040000Y-76379605D01*
X192211861Y-77207745D01*
X174611400Y-77207745D01*
X174611400Y-76413546D01*
X174626288Y-76338699D01*
X174611400Y-76263852D01*
X174611400Y-76263848D01*
X174567304Y-76042163D01*
X174527922Y-75983223D01*
X191593035Y-75983223D01*
X191620222Y-76553454D01*
X191786136Y-76954005D01*
X192032255Y-77028139D01*
X192860395Y-76200000D01*
X193219605Y-76200000D01*
X194047745Y-77028139D01*
X194293864Y-76954005D01*
X194296290Y-76947254D01*
X194323466Y-77012862D01*
X194727138Y-77416534D01*
X195254561Y-77635000D01*
X195825439Y-77635000D01*
X196352862Y-77416534D01*
X196756534Y-77012862D01*
X196975000Y-76485439D01*
X196975000Y-75914561D01*
X196756534Y-75387138D01*
X196352862Y-74983466D01*
X195825439Y-74765000D01*
X195254561Y-74765000D01*
X194727138Y-74983466D01*
X194323466Y-75387138D01*
X194296475Y-75452299D01*
X194293864Y-75445995D01*
X194047745Y-75371861D01*
X193219605Y-76200000D01*
X192860395Y-76200000D01*
X192032255Y-75371861D01*
X191786136Y-75445995D01*
X191593035Y-75983223D01*
X174527922Y-75983223D01*
X174399329Y-75790771D01*
X174335873Y-75748371D01*
X173819666Y-75232165D01*
X173846332Y-75192255D01*
X192211861Y-75192255D01*
X193040000Y-76020395D01*
X193868139Y-75192255D01*
X193794005Y-74946136D01*
X193256777Y-74753035D01*
X192686546Y-74780222D01*
X192285995Y-74946136D01*
X192211861Y-75192255D01*
X173846332Y-75192255D01*
X174071740Y-74854909D01*
X174183113Y-74295000D01*
X174071740Y-73735091D01*
X173754577Y-73260423D01*
X173279909Y-72943260D01*
X172861333Y-72860000D01*
X172578667Y-72860000D01*
X172160091Y-72943260D01*
X171698605Y-73251615D01*
X170865710Y-72418721D01*
X170974005Y-72373864D01*
X171048139Y-72127745D01*
X170220000Y-71299605D01*
X170205858Y-71313748D01*
X170026252Y-71134142D01*
X170040395Y-71120000D01*
X170399605Y-71120000D01*
X171227745Y-71948139D01*
X171473864Y-71874005D01*
X171476290Y-71867254D01*
X171503466Y-71932862D01*
X171907138Y-72336534D01*
X172434561Y-72555000D01*
X173005439Y-72555000D01*
X173532862Y-72336534D01*
X173936534Y-71932862D01*
X174155000Y-71405439D01*
X174155000Y-70834561D01*
X173936534Y-70307138D01*
X173532862Y-69903466D01*
X173005439Y-69685000D01*
X172434561Y-69685000D01*
X171907138Y-69903466D01*
X171503466Y-70307138D01*
X171476475Y-70372299D01*
X171473864Y-70365995D01*
X171227745Y-70291861D01*
X170399605Y-71120000D01*
X170040395Y-71120000D01*
X169212255Y-70291861D01*
X168966136Y-70365995D01*
X168773035Y-70903223D01*
X168800222Y-71473454D01*
X168966136Y-71874005D01*
X169212253Y-71948139D01*
X169100792Y-72059600D01*
X148932785Y-72059600D01*
X148840699Y-72041283D01*
X148748614Y-72059600D01*
X148609314Y-72087309D01*
X148544577Y-71990423D01*
X148069909Y-71673260D01*
X147651333Y-71590000D01*
X147368667Y-71590000D01*
X146950091Y-71673260D01*
X146488605Y-71981615D01*
X145635661Y-71128672D01*
X145583497Y-71050603D01*
X145399426Y-70927611D01*
X145773454Y-70909778D01*
X146174005Y-70743864D01*
X146248139Y-70497745D01*
X145420000Y-69669605D01*
X144591861Y-70497745D01*
X144665995Y-70743864D01*
X144793516Y-70789700D01*
X132933586Y-70789700D01*
X132841500Y-70771383D01*
X132749415Y-70789700D01*
X132749414Y-70789700D01*
X132476681Y-70843950D01*
X132462837Y-70853200D01*
X118272596Y-70853200D01*
X118202862Y-70783466D01*
X117675439Y-70565000D01*
X117104561Y-70565000D01*
X116577138Y-70783466D01*
X116173466Y-71187138D01*
X116146475Y-71252299D01*
X116143864Y-71245995D01*
X115897745Y-71171861D01*
X115069605Y-72000000D01*
X115897745Y-72828139D01*
X116143864Y-72754005D01*
X116146290Y-72747254D01*
X116173466Y-72812862D01*
X116577138Y-73216534D01*
X117104561Y-73435000D01*
X117675439Y-73435000D01*
X118202862Y-73216534D01*
X118606534Y-72812862D01*
X118643673Y-72723200D01*
X123710560Y-72723200D01*
X123710560Y-73888500D01*
X123759843Y-74136265D01*
X123900191Y-74346309D01*
X124110235Y-74486657D01*
X124244106Y-74513285D01*
X124123423Y-74593923D01*
X123806260Y-75068591D01*
X123694887Y-75628500D01*
X123806260Y-76188409D01*
X124123423Y-76663077D01*
X124475758Y-76898500D01*
X124123423Y-77133923D01*
X123806260Y-77608591D01*
X123694887Y-78168500D01*
X123806260Y-78728409D01*
X124123423Y-79203077D01*
X124475758Y-79438500D01*
X124123423Y-79673923D01*
X123891469Y-80021067D01*
X122679831Y-78809430D01*
X122637429Y-78745971D01*
X122386037Y-78577996D01*
X122164352Y-78533900D01*
X122164347Y-78533900D01*
X122089500Y-78519012D01*
X122014653Y-78533900D01*
X118144628Y-78533900D01*
X118241904Y-78299039D01*
X118119915Y-78077000D01*
X116977000Y-78077000D01*
X116977000Y-78097000D01*
X116723000Y-78097000D01*
X116723000Y-78077000D01*
X115580085Y-78077000D01*
X115458096Y-78299039D01*
X115563301Y-78553045D01*
X115437863Y-78577996D01*
X115186471Y-78745971D01*
X115144071Y-78809427D01*
X110635907Y-83317591D01*
X110693113Y-83030000D01*
X110581740Y-82470091D01*
X110264577Y-81995423D01*
X109912242Y-81760000D01*
X110264577Y-81524577D01*
X110581740Y-81049909D01*
X110693113Y-80490000D01*
X110581740Y-79930091D01*
X110264577Y-79455423D01*
X109912242Y-79220000D01*
X110264577Y-78984577D01*
X110581740Y-78509909D01*
X110693113Y-77950000D01*
X110581740Y-77390091D01*
X110264577Y-76915423D01*
X110143894Y-76834785D01*
X110277765Y-76808157D01*
X110487809Y-76667809D01*
X110628157Y-76457765D01*
X110677440Y-76210000D01*
X110677440Y-75410000D01*
X115386887Y-75410000D01*
X115498260Y-75969909D01*
X115815423Y-76444577D01*
X116199108Y-76700947D01*
X115994866Y-76797611D01*
X115618959Y-77212577D01*
X115458096Y-77600961D01*
X115580085Y-77823000D01*
X116723000Y-77823000D01*
X116723000Y-77803000D01*
X116977000Y-77803000D01*
X116977000Y-77823000D01*
X118119915Y-77823000D01*
X118241904Y-77600961D01*
X118081041Y-77212577D01*
X117705134Y-76797611D01*
X117500892Y-76700947D01*
X117884577Y-76444577D01*
X118201740Y-75969909D01*
X118313113Y-75410000D01*
X118201740Y-74850091D01*
X117884577Y-74375423D01*
X117409909Y-74058260D01*
X116991333Y-73975000D01*
X116708667Y-73975000D01*
X116290091Y-74058260D01*
X115815423Y-74375423D01*
X115498260Y-74850091D01*
X115386887Y-75410000D01*
X110677440Y-75410000D01*
X110677440Y-74610000D01*
X110628157Y-74362235D01*
X110487809Y-74152191D01*
X110277765Y-74011843D01*
X110030000Y-73962560D01*
X108430000Y-73962560D01*
X108182235Y-74011843D01*
X107972191Y-74152191D01*
X107831843Y-74362235D01*
X107782560Y-74610000D01*
X107782560Y-76210000D01*
X107831843Y-76457765D01*
X107972191Y-76667809D01*
X108182235Y-76808157D01*
X108316106Y-76834785D01*
X108195423Y-76915423D01*
X107878260Y-77390091D01*
X107766887Y-77950000D01*
X107878260Y-78509909D01*
X108195423Y-78984577D01*
X108547758Y-79220000D01*
X108195423Y-79455423D01*
X107878260Y-79930091D01*
X107766887Y-80490000D01*
X107878260Y-81049909D01*
X108195423Y-81524577D01*
X108547758Y-81760000D01*
X108195423Y-81995423D01*
X107878260Y-82470091D01*
X107766887Y-83030000D01*
X107878260Y-83589909D01*
X107941961Y-83685244D01*
X107892916Y-83695000D01*
X107842662Y-83704996D01*
X107737402Y-83775329D01*
X107591271Y-83872971D01*
X107548871Y-83936427D01*
X106885000Y-84600298D01*
X106885000Y-84023690D01*
X106788327Y-83790301D01*
X106609698Y-83611673D01*
X106376309Y-83515000D01*
X105685750Y-83515000D01*
X105527000Y-83673750D01*
X105527000Y-84873000D01*
X105547000Y-84873000D01*
X105547000Y-85127000D01*
X105527000Y-85127000D01*
X105527000Y-85147000D01*
X105273000Y-85147000D01*
X105273000Y-85127000D01*
X104073750Y-85127000D01*
X103915000Y-85285750D01*
X103915000Y-85976310D01*
X104002982Y-86188717D01*
X103740230Y-86451469D01*
X103676771Y-86493871D01*
X103508796Y-86745264D01*
X103464700Y-86966949D01*
X103464700Y-86966953D01*
X103449812Y-87041800D01*
X102589072Y-87041800D01*
X102580871Y-84023690D01*
X103915000Y-84023690D01*
X103915000Y-84714250D01*
X104073750Y-84873000D01*
X105273000Y-84873000D01*
X105273000Y-83673750D01*
X105114250Y-83515000D01*
X104423691Y-83515000D01*
X104190302Y-83611673D01*
X104011673Y-83790301D01*
X103915000Y-84023690D01*
X102580871Y-84023690D01*
X102550937Y-73007745D01*
X114061861Y-73007745D01*
X114135995Y-73253864D01*
X114673223Y-73446965D01*
X115243454Y-73419778D01*
X115644005Y-73253864D01*
X115718139Y-73007745D01*
X114890000Y-72179605D01*
X114061861Y-73007745D01*
X102550937Y-73007745D01*
X102547609Y-71783223D01*
X113443035Y-71783223D01*
X113470222Y-72353454D01*
X113636136Y-72754005D01*
X113882255Y-72828139D01*
X114710395Y-72000000D01*
X113882255Y-71171861D01*
X113636136Y-71245995D01*
X113443035Y-71783223D01*
X102547609Y-71783223D01*
X102545460Y-70992255D01*
X114061861Y-70992255D01*
X114890000Y-71820395D01*
X115718139Y-70992255D01*
X115644005Y-70746136D01*
X115106777Y-70553035D01*
X114536546Y-70580222D01*
X114135995Y-70746136D01*
X114061861Y-70992255D01*
X102545460Y-70992255D01*
X102536663Y-67755431D01*
X104415000Y-67755431D01*
X104415000Y-68644569D01*
X104755259Y-69466026D01*
X105383974Y-70094741D01*
X106205431Y-70435000D01*
X107094569Y-70435000D01*
X107453694Y-70286245D01*
X129767861Y-70286245D01*
X129841995Y-70532364D01*
X130379223Y-70725465D01*
X130949454Y-70698278D01*
X131350005Y-70532364D01*
X131424139Y-70286245D01*
X130596000Y-69458105D01*
X129767861Y-70286245D01*
X107453694Y-70286245D01*
X107916026Y-70094741D01*
X108544741Y-69466026D01*
X108712208Y-69061723D01*
X129149035Y-69061723D01*
X129176222Y-69631954D01*
X129342136Y-70032505D01*
X129588255Y-70106639D01*
X130416395Y-69278500D01*
X130775605Y-69278500D01*
X131603745Y-70106639D01*
X131849864Y-70032505D01*
X131852290Y-70025754D01*
X131879466Y-70091362D01*
X132283138Y-70495034D01*
X132810561Y-70713500D01*
X133381439Y-70713500D01*
X133908862Y-70495034D01*
X134312534Y-70091362D01*
X134531000Y-69563939D01*
X134531000Y-69273223D01*
X143973035Y-69273223D01*
X144000222Y-69843454D01*
X144166136Y-70244005D01*
X144412255Y-70318139D01*
X145240395Y-69490000D01*
X145599605Y-69490000D01*
X146427745Y-70318139D01*
X146673864Y-70244005D01*
X146676290Y-70237254D01*
X146703466Y-70302862D01*
X147107138Y-70706534D01*
X147634561Y-70925000D01*
X148205439Y-70925000D01*
X148732862Y-70706534D01*
X149136534Y-70302862D01*
X149215486Y-70112255D01*
X169391861Y-70112255D01*
X170220000Y-70940395D01*
X171048139Y-70112255D01*
X170974005Y-69866136D01*
X170436777Y-69673035D01*
X169866546Y-69700222D01*
X169465995Y-69866136D01*
X169391861Y-70112255D01*
X149215486Y-70112255D01*
X149355000Y-69775439D01*
X149355000Y-69204561D01*
X149136534Y-68677138D01*
X148732862Y-68273466D01*
X148205439Y-68055000D01*
X147634561Y-68055000D01*
X147107138Y-68273466D01*
X146703466Y-68677138D01*
X146676475Y-68742299D01*
X146673864Y-68735995D01*
X146427745Y-68661861D01*
X145599605Y-69490000D01*
X145240395Y-69490000D01*
X144412255Y-68661861D01*
X144166136Y-68735995D01*
X143973035Y-69273223D01*
X134531000Y-69273223D01*
X134531000Y-68993061D01*
X134319417Y-68482255D01*
X144591861Y-68482255D01*
X145420000Y-69310395D01*
X146248139Y-68482255D01*
X146174005Y-68236136D01*
X145636777Y-68043035D01*
X145066546Y-68070222D01*
X144665995Y-68236136D01*
X144591861Y-68482255D01*
X134319417Y-68482255D01*
X134312534Y-68465638D01*
X133908862Y-68061966D01*
X133381439Y-67843500D01*
X132810561Y-67843500D01*
X132283138Y-68061966D01*
X131879466Y-68465638D01*
X131852475Y-68530799D01*
X131849864Y-68524495D01*
X131603745Y-68450361D01*
X130775605Y-69278500D01*
X130416395Y-69278500D01*
X129588255Y-68450361D01*
X129342136Y-68524495D01*
X129149035Y-69061723D01*
X108712208Y-69061723D01*
X108885000Y-68644569D01*
X108885000Y-68270755D01*
X129767861Y-68270755D01*
X130596000Y-69098895D01*
X131424139Y-68270755D01*
X131350005Y-68024636D01*
X130812777Y-67831535D01*
X130242546Y-67858722D01*
X129841995Y-68024636D01*
X129767861Y-68270755D01*
X108885000Y-68270755D01*
X108885000Y-67755431D01*
X108864290Y-67705431D01*
X193405000Y-67705431D01*
X193405000Y-68594569D01*
X193745259Y-69416026D01*
X194373974Y-70044741D01*
X195195431Y-70385000D01*
X196084569Y-70385000D01*
X196906026Y-70044741D01*
X197534741Y-69416026D01*
X197875000Y-68594569D01*
X197875000Y-67705431D01*
X197534741Y-66883974D01*
X196906026Y-66255259D01*
X196084569Y-65915000D01*
X195195431Y-65915000D01*
X194373974Y-66255259D01*
X193745259Y-66883974D01*
X193405000Y-67705431D01*
X108864290Y-67705431D01*
X108544741Y-66933974D01*
X107916026Y-66305259D01*
X107094569Y-65965000D01*
X106205431Y-65965000D01*
X105383974Y-66305259D01*
X104755259Y-66933974D01*
X104415000Y-67755431D01*
X102536663Y-67755431D01*
X102527346Y-64327000D01*
X199673344Y-64327000D01*
X199872654Y-137673000D01*
X199872654Y-137673000D01*
G37*
X199872654Y-137673000D02*
X102726656Y-137673000D01*
X102716065Y-133775431D01*
X104315000Y-133775431D01*
X104315000Y-134664569D01*
X104655259Y-135486026D01*
X105283974Y-136114741D01*
X106105431Y-136455000D01*
X106994569Y-136455000D01*
X107816026Y-136114741D01*
X108444741Y-135486026D01*
X108785000Y-134664569D01*
X108785000Y-133775431D01*
X108743579Y-133675431D01*
X193405000Y-133675431D01*
X193405000Y-134564569D01*
X193745259Y-135386026D01*
X194373974Y-136014741D01*
X195195431Y-136355000D01*
X196084569Y-136355000D01*
X196906026Y-136014741D01*
X197534741Y-135386026D01*
X197875000Y-134564569D01*
X197875000Y-133675431D01*
X197534741Y-132853974D01*
X196906026Y-132225259D01*
X196084569Y-131885000D01*
X195195431Y-131885000D01*
X194373974Y-132225259D01*
X193745259Y-132853974D01*
X193405000Y-133675431D01*
X108743579Y-133675431D01*
X108444741Y-132953974D01*
X107816026Y-132325259D01*
X106994569Y-131985000D01*
X106105431Y-131985000D01*
X105283974Y-132325259D01*
X104655259Y-132953974D01*
X104315000Y-133775431D01*
X102716065Y-133775431D01*
X102693513Y-125476000D01*
X108264887Y-125476000D01*
X108376260Y-126035909D01*
X108693423Y-126510577D01*
X109168091Y-126827740D01*
X109586667Y-126911000D01*
X109869333Y-126911000D01*
X110287909Y-126827740D01*
X110762577Y-126510577D01*
X111079740Y-126035909D01*
X111191113Y-125476000D01*
X111079740Y-124916091D01*
X110762577Y-124441423D01*
X110287909Y-124124260D01*
X109869333Y-124041000D01*
X109586667Y-124041000D01*
X109168091Y-124124260D01*
X108693423Y-124441423D01*
X108376260Y-124916091D01*
X108264887Y-125476000D01*
X102693513Y-125476000D01*
X102589072Y-87041800D01*
X103449812Y-87041800D01*
X103464700Y-87116647D01*
X103464701Y-109824848D01*
X103449812Y-109899700D01*
X103508797Y-110196237D01*
X103604504Y-110339472D01*
X103676772Y-110447629D01*
X103740228Y-110490029D01*
X110284114Y-117033916D01*
X110272560Y-117092000D01*
X110272560Y-119092000D01*
X110321843Y-119339765D01*
X110462191Y-119549809D01*
X110598723Y-119641038D01*
X110533914Y-119705847D01*
X110285000Y-120306778D01*
X110285000Y-120957222D01*
X110533914Y-121558153D01*
X110993847Y-122018086D01*
X111594778Y-122267000D01*
X112245222Y-122267000D01*
X112846153Y-122018086D01*
X113306086Y-121558153D01*
X113555000Y-120957222D01*
X113555000Y-120306778D01*
X113306086Y-119705847D01*
X113241277Y-119641038D01*
X113377809Y-119549809D01*
X113518157Y-119339765D01*
X113567440Y-119092000D01*
X113567440Y-117092000D01*
X113518157Y-116844235D01*
X113377809Y-116634191D01*
X113167765Y-116493843D01*
X112920000Y-116444560D01*
X112618797Y-116444560D01*
X112467929Y-116218771D01*
X112216537Y-116050796D01*
X111920000Y-115991811D01*
X111845148Y-116006700D01*
X111406502Y-116006700D01*
X109939152Y-114539350D01*
X110032862Y-114500534D01*
X110436534Y-114096862D01*
X110655000Y-113569439D01*
X110655000Y-112998561D01*
X110436534Y-112471138D01*
X110032862Y-112067466D01*
X109505439Y-111849000D01*
X108934561Y-111849000D01*
X108407138Y-112067466D01*
X108003466Y-112471138D01*
X107964650Y-112564848D01*
X104984700Y-109584899D01*
X104984700Y-105881701D01*
X115717770Y-116614772D01*
X115760171Y-116678229D01*
X116011563Y-116846204D01*
X116233248Y-116890300D01*
X116233253Y-116890300D01*
X116308100Y-116905188D01*
X116382947Y-116890300D01*
X116794518Y-116890300D01*
X116771843Y-116924235D01*
X116722560Y-117172000D01*
X116722560Y-119172000D01*
X116771843Y-119419765D01*
X116912191Y-119629809D01*
X117048723Y-119721038D01*
X116983914Y-119785847D01*
X116735000Y-120386778D01*
X116735000Y-121037222D01*
X116803823Y-121203375D01*
X110615829Y-127391369D01*
X110287909Y-127172260D01*
X109869333Y-127089000D01*
X109586667Y-127089000D01*
X109168091Y-127172260D01*
X108693423Y-127489423D01*
X108376260Y-127964091D01*
X108264887Y-128524000D01*
X108376260Y-129083909D01*
X108693423Y-129558577D01*
X109168091Y-129875740D01*
X109586667Y-129959000D01*
X109869333Y-129959000D01*
X110287909Y-129875740D01*
X110762577Y-129558577D01*
X110948786Y-129279896D01*
X111149837Y-129239904D01*
X111401229Y-129071929D01*
X111569204Y-128820537D01*
X111613300Y-128598851D01*
X111627044Y-128529757D01*
X114966240Y-125190561D01*
X118453000Y-125190561D01*
X118453000Y-125761439D01*
X118671466Y-126288862D01*
X118953000Y-126570396D01*
X118953001Y-127429603D01*
X118671466Y-127711138D01*
X118453000Y-128238561D01*
X118453000Y-128809439D01*
X118671466Y-129336862D01*
X119075138Y-129740534D01*
X119602561Y-129959000D01*
X120173439Y-129959000D01*
X120700862Y-129740534D01*
X121104534Y-129336862D01*
X121323000Y-128809439D01*
X121323000Y-128238561D01*
X121104534Y-127711138D01*
X120823000Y-127429604D01*
X120823000Y-126570396D01*
X121104534Y-126288862D01*
X121323000Y-125761439D01*
X121323000Y-125190561D01*
X121104534Y-124663138D01*
X120700862Y-124259466D01*
X120173439Y-124041000D01*
X119602561Y-124041000D01*
X119075138Y-124259466D01*
X118671466Y-124663138D01*
X118453000Y-125190561D01*
X114966240Y-125190561D01*
X117878625Y-122278177D01*
X118044778Y-122347000D01*
X118695222Y-122347000D01*
X119296153Y-122098086D01*
X119756086Y-121638153D01*
X120005000Y-121037222D01*
X120005000Y-120386778D01*
X119756086Y-119785847D01*
X119691277Y-119721038D01*
X119827809Y-119629809D01*
X119968157Y-119419765D01*
X120017440Y-119172000D01*
X120017440Y-117998341D01*
X125987967Y-123968869D01*
X125919570Y-124014570D01*
X125588350Y-124510275D01*
X125472041Y-125095000D01*
X125588350Y-125679725D01*
X125919570Y-126175430D01*
X126203281Y-126365000D01*
X125919570Y-126554570D01*
X125588350Y-127050275D01*
X125472041Y-127635000D01*
X125588350Y-128219725D01*
X125919570Y-128715430D01*
X126415275Y-129046650D01*
X126852402Y-129133600D01*
X127147598Y-129133600D01*
X127584725Y-129046650D01*
X128080430Y-128715430D01*
X128270000Y-128431719D01*
X128459570Y-128715430D01*
X128955275Y-129046650D01*
X129392402Y-129133600D01*
X129687598Y-129133600D01*
X130124725Y-129046650D01*
X130620430Y-128715430D01*
X130810000Y-128431719D01*
X130999570Y-128715430D01*
X131495275Y-129046650D01*
X131932402Y-129133600D01*
X132227598Y-129133600D01*
X132664725Y-129046650D01*
X133006069Y-128818571D01*
X133495871Y-129308373D01*
X133538271Y-129371829D01*
X133601727Y-129414229D01*
X133789662Y-129539804D01*
X133837805Y-129549380D01*
X134011348Y-129583900D01*
X134011352Y-129583900D01*
X134086200Y-129598788D01*
X134161048Y-129583900D01*
X137640553Y-129583900D01*
X137715400Y-129598788D01*
X137790247Y-129583900D01*
X137790252Y-129583900D01*
X138011937Y-129539804D01*
X138263329Y-129371829D01*
X138305731Y-129308370D01*
X138786879Y-128827223D01*
X139115275Y-129046650D01*
X139552402Y-129133600D01*
X139847598Y-129133600D01*
X140284725Y-129046650D01*
X140780430Y-128715430D01*
X140970000Y-128431719D01*
X141159570Y-128715430D01*
X141655275Y-129046650D01*
X142092402Y-129133600D01*
X142387598Y-129133600D01*
X142824725Y-129046650D01*
X143320430Y-128715430D01*
X143510000Y-128431719D01*
X143699570Y-128715430D01*
X144195275Y-129046650D01*
X144632402Y-129133600D01*
X144927598Y-129133600D01*
X145364725Y-129046650D01*
X145860430Y-128715430D01*
X146050000Y-128431719D01*
X146239570Y-128715430D01*
X146735275Y-129046650D01*
X147172402Y-129133600D01*
X147467598Y-129133600D01*
X147904725Y-129046650D01*
X148400430Y-128715430D01*
X148590000Y-128431719D01*
X148779570Y-128715430D01*
X149275275Y-129046650D01*
X149712402Y-129133600D01*
X150007598Y-129133600D01*
X150444725Y-129046650D01*
X150940430Y-128715430D01*
X151130000Y-128431719D01*
X151319570Y-128715430D01*
X151815275Y-129046650D01*
X152252402Y-129133600D01*
X152547598Y-129133600D01*
X152984725Y-129046650D01*
X153480430Y-128715430D01*
X153670000Y-128431719D01*
X153859570Y-128715430D01*
X154355275Y-129046650D01*
X154792402Y-129133600D01*
X155087598Y-129133600D01*
X155524725Y-129046650D01*
X156020430Y-128715430D01*
X156210000Y-128431719D01*
X156399570Y-128715430D01*
X156895275Y-129046650D01*
X157332402Y-129133600D01*
X157627598Y-129133600D01*
X158064725Y-129046650D01*
X158560430Y-128715430D01*
X158750000Y-128431719D01*
X158939570Y-128715430D01*
X159435275Y-129046650D01*
X159872402Y-129133600D01*
X160167598Y-129133600D01*
X160604725Y-129046650D01*
X161100430Y-128715430D01*
X161290000Y-128431719D01*
X161479570Y-128715430D01*
X161975275Y-129046650D01*
X162412402Y-129133600D01*
X162707598Y-129133600D01*
X163144725Y-129046650D01*
X163640430Y-128715430D01*
X163830000Y-128431719D01*
X164019570Y-128715430D01*
X164515275Y-129046650D01*
X164952402Y-129133600D01*
X165247598Y-129133600D01*
X165684725Y-129046650D01*
X166180430Y-128715430D01*
X166370000Y-128431719D01*
X166559570Y-128715430D01*
X167055275Y-129046650D01*
X167492402Y-129133600D01*
X167787598Y-129133600D01*
X168224725Y-129046650D01*
X168720430Y-128715430D01*
X168910000Y-128431719D01*
X169099570Y-128715430D01*
X169595275Y-129046650D01*
X170032402Y-129133600D01*
X170327598Y-129133600D01*
X170764725Y-129046650D01*
X171260430Y-128715430D01*
X171461854Y-128413979D01*
X171513179Y-128523490D01*
X171945053Y-128917688D01*
X172360974Y-129089958D01*
X172593000Y-128968817D01*
X172593000Y-127762000D01*
X172847000Y-127762000D01*
X172847000Y-128968817D01*
X173079026Y-129089958D01*
X173494947Y-128917688D01*
X173926821Y-128523490D01*
X173990000Y-128388687D01*
X174053179Y-128523490D01*
X174485053Y-128917688D01*
X174900974Y-129089958D01*
X175133000Y-128968817D01*
X175133000Y-127762000D01*
X175387000Y-127762000D01*
X175387000Y-128968817D01*
X175619026Y-129089958D01*
X176034947Y-128917688D01*
X176466821Y-128523490D01*
X176714968Y-127994027D01*
X176594469Y-127762000D01*
X175387000Y-127762000D01*
X175133000Y-127762000D01*
X172847000Y-127762000D01*
X172593000Y-127762000D01*
X172573000Y-127762000D01*
X172573000Y-127508000D01*
X172593000Y-127508000D01*
X172593000Y-127488000D01*
X172847000Y-127488000D01*
X172847000Y-127508000D01*
X175133000Y-127508000D01*
X175133000Y-127488000D01*
X175387000Y-127488000D01*
X175387000Y-127508000D01*
X176594469Y-127508000D01*
X176714968Y-127275973D01*
X176466821Y-126746510D01*
X176279050Y-126575119D01*
X176371365Y-126556757D01*
X176581409Y-126416409D01*
X176590474Y-126402843D01*
X176806963Y-126547496D01*
X176878881Y-126595550D01*
X177243700Y-126668117D01*
X177335786Y-126649800D01*
X183972560Y-126649800D01*
X183972560Y-127165000D01*
X184021843Y-127412765D01*
X184162191Y-127622809D01*
X184372235Y-127763157D01*
X184620000Y-127812440D01*
X186220000Y-127812440D01*
X186467765Y-127763157D01*
X186677809Y-127622809D01*
X186818157Y-127412765D01*
X186826117Y-127372745D01*
X187091861Y-127372745D01*
X187165995Y-127618864D01*
X187703223Y-127811965D01*
X188273454Y-127784778D01*
X188674005Y-127618864D01*
X188748139Y-127372745D01*
X187920000Y-126544605D01*
X187091861Y-127372745D01*
X186826117Y-127372745D01*
X186864693Y-127178813D01*
X186912255Y-127193139D01*
X187740395Y-126365000D01*
X188099605Y-126365000D01*
X188927745Y-127193139D01*
X189173864Y-127119005D01*
X189366965Y-126581777D01*
X189339778Y-126011546D01*
X189173864Y-125610995D01*
X188927745Y-125536861D01*
X188099605Y-126365000D01*
X187740395Y-126365000D01*
X186912255Y-125536861D01*
X186864693Y-125551187D01*
X186826118Y-125357255D01*
X187091861Y-125357255D01*
X187920000Y-126185395D01*
X188748139Y-125357255D01*
X188674005Y-125111136D01*
X188136777Y-124918035D01*
X187566546Y-124945222D01*
X187165995Y-125111136D01*
X187091861Y-125357255D01*
X186826118Y-125357255D01*
X186818157Y-125317235D01*
X186686617Y-125120372D01*
X197479531Y-114327459D01*
X197557597Y-114275297D01*
X197764250Y-113966019D01*
X197818500Y-113693286D01*
X197818500Y-113693283D01*
X197836816Y-113601201D01*
X197818500Y-113509119D01*
X197818500Y-83310581D01*
X197836816Y-83218499D01*
X197818500Y-83126415D01*
X197818500Y-83126414D01*
X197764250Y-82853681D01*
X197557597Y-82544403D01*
X197479531Y-82492241D01*
X197019749Y-82032459D01*
X197043113Y-81915000D01*
X196931740Y-81355091D01*
X196614577Y-80880423D01*
X196262242Y-80645000D01*
X196614577Y-80409577D01*
X196931740Y-79934909D01*
X197043113Y-79375000D01*
X196931740Y-78815091D01*
X196614577Y-78340423D01*
X196139909Y-78023260D01*
X195721333Y-77940000D01*
X195438667Y-77940000D01*
X195020091Y-78023260D01*
X194545423Y-78340423D01*
X194228260Y-78815091D01*
X194116887Y-79375000D01*
X194228260Y-79934909D01*
X194545423Y-80409577D01*
X194897758Y-80645000D01*
X194545423Y-80880423D01*
X194228260Y-81355091D01*
X194116887Y-81915000D01*
X194228260Y-82474909D01*
X194545423Y-82949577D01*
X194897758Y-83185000D01*
X194545423Y-83420423D01*
X194359214Y-83699104D01*
X194158163Y-83739096D01*
X193906771Y-83907071D01*
X193864371Y-83970527D01*
X193014599Y-84820300D01*
X181730450Y-84820300D01*
X181803113Y-84455000D01*
X181691740Y-83895091D01*
X181374577Y-83420423D01*
X181022242Y-83185000D01*
X181374577Y-82949577D01*
X181691740Y-82474909D01*
X181803113Y-81915000D01*
X181691740Y-81355091D01*
X181374577Y-80880423D01*
X181253894Y-80799785D01*
X181387765Y-80773157D01*
X181597809Y-80632809D01*
X181738157Y-80422765D01*
X181787440Y-80175000D01*
X181787440Y-78575000D01*
X181738157Y-78327235D01*
X181597809Y-78117191D01*
X181387765Y-77976843D01*
X181140000Y-77927560D01*
X179540000Y-77927560D01*
X179292235Y-77976843D01*
X179082191Y-78117191D01*
X178941843Y-78327235D01*
X178892560Y-78575000D01*
X178892560Y-80175000D01*
X178941843Y-80422765D01*
X179082191Y-80632809D01*
X179292235Y-80773157D01*
X179426106Y-80799785D01*
X179305423Y-80880423D01*
X179285196Y-80910695D01*
X178679731Y-80305230D01*
X178637329Y-80241771D01*
X178385937Y-80073796D01*
X178164252Y-80029700D01*
X178164247Y-80029700D01*
X178089400Y-80014812D01*
X178014553Y-80029700D01*
X174008403Y-80029700D01*
X174071740Y-79934909D01*
X174183113Y-79375000D01*
X174071740Y-78815091D01*
X173847023Y-78478778D01*
X174335873Y-77989929D01*
X174399329Y-77947529D01*
X174567304Y-77696137D01*
X174611400Y-77474452D01*
X174611400Y-77474447D01*
X174626288Y-77399600D01*
X174611400Y-77324753D01*
X174611400Y-77207745D01*
X192211861Y-77207745D01*
X192285995Y-77453864D01*
X192823223Y-77646965D01*
X193393454Y-77619778D01*
X193794005Y-77453864D01*
X193868139Y-77207745D01*
X193040000Y-76379605D01*
X192211861Y-77207745D01*
X174611400Y-77207745D01*
X174611400Y-76413546D01*
X174626288Y-76338699D01*
X174611400Y-76263852D01*
X174611400Y-76263848D01*
X174567304Y-76042163D01*
X174527922Y-75983223D01*
X191593035Y-75983223D01*
X191620222Y-76553454D01*
X191786136Y-76954005D01*
X192032255Y-77028139D01*
X192860395Y-76200000D01*
X193219605Y-76200000D01*
X194047745Y-77028139D01*
X194293864Y-76954005D01*
X194296290Y-76947254D01*
X194323466Y-77012862D01*
X194727138Y-77416534D01*
X195254561Y-77635000D01*
X195825439Y-77635000D01*
X196352862Y-77416534D01*
X196756534Y-77012862D01*
X196975000Y-76485439D01*
X196975000Y-75914561D01*
X196756534Y-75387138D01*
X196352862Y-74983466D01*
X195825439Y-74765000D01*
X195254561Y-74765000D01*
X194727138Y-74983466D01*
X194323466Y-75387138D01*
X194296475Y-75452299D01*
X194293864Y-75445995D01*
X194047745Y-75371861D01*
X193219605Y-76200000D01*
X192860395Y-76200000D01*
X192032255Y-75371861D01*
X191786136Y-75445995D01*
X191593035Y-75983223D01*
X174527922Y-75983223D01*
X174399329Y-75790771D01*
X174335873Y-75748371D01*
X173819666Y-75232165D01*
X173846332Y-75192255D01*
X192211861Y-75192255D01*
X193040000Y-76020395D01*
X193868139Y-75192255D01*
X193794005Y-74946136D01*
X193256777Y-74753035D01*
X192686546Y-74780222D01*
X192285995Y-74946136D01*
X192211861Y-75192255D01*
X173846332Y-75192255D01*
X174071740Y-74854909D01*
X174183113Y-74295000D01*
X174071740Y-73735091D01*
X173754577Y-73260423D01*
X173279909Y-72943260D01*
X172861333Y-72860000D01*
X172578667Y-72860000D01*
X172160091Y-72943260D01*
X171698605Y-73251615D01*
X170865710Y-72418721D01*
X170974005Y-72373864D01*
X171048139Y-72127745D01*
X170220000Y-71299605D01*
X170205858Y-71313748D01*
X170026252Y-71134142D01*
X170040395Y-71120000D01*
X170399605Y-71120000D01*
X171227745Y-71948139D01*
X171473864Y-71874005D01*
X171476290Y-71867254D01*
X171503466Y-71932862D01*
X171907138Y-72336534D01*
X172434561Y-72555000D01*
X173005439Y-72555000D01*
X173532862Y-72336534D01*
X173936534Y-71932862D01*
X174155000Y-71405439D01*
X174155000Y-70834561D01*
X173936534Y-70307138D01*
X173532862Y-69903466D01*
X173005439Y-69685000D01*
X172434561Y-69685000D01*
X171907138Y-69903466D01*
X171503466Y-70307138D01*
X171476475Y-70372299D01*
X171473864Y-70365995D01*
X171227745Y-70291861D01*
X170399605Y-71120000D01*
X170040395Y-71120000D01*
X169212255Y-70291861D01*
X168966136Y-70365995D01*
X168773035Y-70903223D01*
X168800222Y-71473454D01*
X168966136Y-71874005D01*
X169212253Y-71948139D01*
X169100792Y-72059600D01*
X148932785Y-72059600D01*
X148840699Y-72041283D01*
X148748614Y-72059600D01*
X148609314Y-72087309D01*
X148544577Y-71990423D01*
X148069909Y-71673260D01*
X147651333Y-71590000D01*
X147368667Y-71590000D01*
X146950091Y-71673260D01*
X146488605Y-71981615D01*
X145635661Y-71128672D01*
X145583497Y-71050603D01*
X145399426Y-70927611D01*
X145773454Y-70909778D01*
X146174005Y-70743864D01*
X146248139Y-70497745D01*
X145420000Y-69669605D01*
X144591861Y-70497745D01*
X144665995Y-70743864D01*
X144793516Y-70789700D01*
X132933586Y-70789700D01*
X132841500Y-70771383D01*
X132749415Y-70789700D01*
X132749414Y-70789700D01*
X132476681Y-70843950D01*
X132462837Y-70853200D01*
X118272596Y-70853200D01*
X118202862Y-70783466D01*
X117675439Y-70565000D01*
X117104561Y-70565000D01*
X116577138Y-70783466D01*
X116173466Y-71187138D01*
X116146475Y-71252299D01*
X116143864Y-71245995D01*
X115897745Y-71171861D01*
X115069605Y-72000000D01*
X115897745Y-72828139D01*
X116143864Y-72754005D01*
X116146290Y-72747254D01*
X116173466Y-72812862D01*
X116577138Y-73216534D01*
X117104561Y-73435000D01*
X117675439Y-73435000D01*
X118202862Y-73216534D01*
X118606534Y-72812862D01*
X118643673Y-72723200D01*
X123710560Y-72723200D01*
X123710560Y-73888500D01*
X123759843Y-74136265D01*
X123900191Y-74346309D01*
X124110235Y-74486657D01*
X124244106Y-74513285D01*
X124123423Y-74593923D01*
X123806260Y-75068591D01*
X123694887Y-75628500D01*
X123806260Y-76188409D01*
X124123423Y-76663077D01*
X124475758Y-76898500D01*
X124123423Y-77133923D01*
X123806260Y-77608591D01*
X123694887Y-78168500D01*
X123806260Y-78728409D01*
X124123423Y-79203077D01*
X124475758Y-79438500D01*
X124123423Y-79673923D01*
X123891469Y-80021067D01*
X122679831Y-78809430D01*
X122637429Y-78745971D01*
X122386037Y-78577996D01*
X122164352Y-78533900D01*
X122164347Y-78533900D01*
X122089500Y-78519012D01*
X122014653Y-78533900D01*
X118144628Y-78533900D01*
X118241904Y-78299039D01*
X118119915Y-78077000D01*
X116977000Y-78077000D01*
X116977000Y-78097000D01*
X116723000Y-78097000D01*
X116723000Y-78077000D01*
X115580085Y-78077000D01*
X115458096Y-78299039D01*
X115563301Y-78553045D01*
X115437863Y-78577996D01*
X115186471Y-78745971D01*
X115144071Y-78809427D01*
X110635907Y-83317591D01*
X110693113Y-83030000D01*
X110581740Y-82470091D01*
X110264577Y-81995423D01*
X109912242Y-81760000D01*
X110264577Y-81524577D01*
X110581740Y-81049909D01*
X110693113Y-80490000D01*
X110581740Y-79930091D01*
X110264577Y-79455423D01*
X109912242Y-79220000D01*
X110264577Y-78984577D01*
X110581740Y-78509909D01*
X110693113Y-77950000D01*
X110581740Y-77390091D01*
X110264577Y-76915423D01*
X110143894Y-76834785D01*
X110277765Y-76808157D01*
X110487809Y-76667809D01*
X110628157Y-76457765D01*
X110677440Y-76210000D01*
X110677440Y-75410000D01*
X115386887Y-75410000D01*
X115498260Y-75969909D01*
X115815423Y-76444577D01*
X116199108Y-76700947D01*
X115994866Y-76797611D01*
X115618959Y-77212577D01*
X115458096Y-77600961D01*
X115580085Y-77823000D01*
X116723000Y-77823000D01*
X116723000Y-77803000D01*
X116977000Y-77803000D01*
X116977000Y-77823000D01*
X118119915Y-77823000D01*
X118241904Y-77600961D01*
X118081041Y-77212577D01*
X117705134Y-76797611D01*
X117500892Y-76700947D01*
X117884577Y-76444577D01*
X118201740Y-75969909D01*
X118313113Y-75410000D01*
X118201740Y-74850091D01*
X117884577Y-74375423D01*
X117409909Y-74058260D01*
X116991333Y-73975000D01*
X116708667Y-73975000D01*
X116290091Y-74058260D01*
X115815423Y-74375423D01*
X115498260Y-74850091D01*
X115386887Y-75410000D01*
X110677440Y-75410000D01*
X110677440Y-74610000D01*
X110628157Y-74362235D01*
X110487809Y-74152191D01*
X110277765Y-74011843D01*
X110030000Y-73962560D01*
X108430000Y-73962560D01*
X108182235Y-74011843D01*
X107972191Y-74152191D01*
X107831843Y-74362235D01*
X107782560Y-74610000D01*
X107782560Y-76210000D01*
X107831843Y-76457765D01*
X107972191Y-76667809D01*
X108182235Y-76808157D01*
X108316106Y-76834785D01*
X108195423Y-76915423D01*
X107878260Y-77390091D01*
X107766887Y-77950000D01*
X107878260Y-78509909D01*
X108195423Y-78984577D01*
X108547758Y-79220000D01*
X108195423Y-79455423D01*
X107878260Y-79930091D01*
X107766887Y-80490000D01*
X107878260Y-81049909D01*
X108195423Y-81524577D01*
X108547758Y-81760000D01*
X108195423Y-81995423D01*
X107878260Y-82470091D01*
X107766887Y-83030000D01*
X107878260Y-83589909D01*
X107941961Y-83685244D01*
X107892916Y-83695000D01*
X107842662Y-83704996D01*
X107737402Y-83775329D01*
X107591271Y-83872971D01*
X107548871Y-83936427D01*
X106885000Y-84600298D01*
X106885000Y-84023690D01*
X106788327Y-83790301D01*
X106609698Y-83611673D01*
X106376309Y-83515000D01*
X105685750Y-83515000D01*
X105527000Y-83673750D01*
X105527000Y-84873000D01*
X105547000Y-84873000D01*
X105547000Y-85127000D01*
X105527000Y-85127000D01*
X105527000Y-85147000D01*
X105273000Y-85147000D01*
X105273000Y-85127000D01*
X104073750Y-85127000D01*
X103915000Y-85285750D01*
X103915000Y-85976310D01*
X104002982Y-86188717D01*
X103740230Y-86451469D01*
X103676771Y-86493871D01*
X103508796Y-86745264D01*
X103464700Y-86966949D01*
X103464700Y-86966953D01*
X103449812Y-87041800D01*
X102589072Y-87041800D01*
X102580871Y-84023690D01*
X103915000Y-84023690D01*
X103915000Y-84714250D01*
X104073750Y-84873000D01*
X105273000Y-84873000D01*
X105273000Y-83673750D01*
X105114250Y-83515000D01*
X104423691Y-83515000D01*
X104190302Y-83611673D01*
X104011673Y-83790301D01*
X103915000Y-84023690D01*
X102580871Y-84023690D01*
X102550937Y-73007745D01*
X114061861Y-73007745D01*
X114135995Y-73253864D01*
X114673223Y-73446965D01*
X115243454Y-73419778D01*
X115644005Y-73253864D01*
X115718139Y-73007745D01*
X114890000Y-72179605D01*
X114061861Y-73007745D01*
X102550937Y-73007745D01*
X102547609Y-71783223D01*
X113443035Y-71783223D01*
X113470222Y-72353454D01*
X113636136Y-72754005D01*
X113882255Y-72828139D01*
X114710395Y-72000000D01*
X113882255Y-71171861D01*
X113636136Y-71245995D01*
X113443035Y-71783223D01*
X102547609Y-71783223D01*
X102545460Y-70992255D01*
X114061861Y-70992255D01*
X114890000Y-71820395D01*
X115718139Y-70992255D01*
X115644005Y-70746136D01*
X115106777Y-70553035D01*
X114536546Y-70580222D01*
X114135995Y-70746136D01*
X114061861Y-70992255D01*
X102545460Y-70992255D01*
X102536663Y-67755431D01*
X104415000Y-67755431D01*
X104415000Y-68644569D01*
X104755259Y-69466026D01*
X105383974Y-70094741D01*
X106205431Y-70435000D01*
X107094569Y-70435000D01*
X107453694Y-70286245D01*
X129767861Y-70286245D01*
X129841995Y-70532364D01*
X130379223Y-70725465D01*
X130949454Y-70698278D01*
X131350005Y-70532364D01*
X131424139Y-70286245D01*
X130596000Y-69458105D01*
X129767861Y-70286245D01*
X107453694Y-70286245D01*
X107916026Y-70094741D01*
X108544741Y-69466026D01*
X108712208Y-69061723D01*
X129149035Y-69061723D01*
X129176222Y-69631954D01*
X129342136Y-70032505D01*
X129588255Y-70106639D01*
X130416395Y-69278500D01*
X130775605Y-69278500D01*
X131603745Y-70106639D01*
X131849864Y-70032505D01*
X131852290Y-70025754D01*
X131879466Y-70091362D01*
X132283138Y-70495034D01*
X132810561Y-70713500D01*
X133381439Y-70713500D01*
X133908862Y-70495034D01*
X134312534Y-70091362D01*
X134531000Y-69563939D01*
X134531000Y-69273223D01*
X143973035Y-69273223D01*
X144000222Y-69843454D01*
X144166136Y-70244005D01*
X144412255Y-70318139D01*
X145240395Y-69490000D01*
X145599605Y-69490000D01*
X146427745Y-70318139D01*
X146673864Y-70244005D01*
X146676290Y-70237254D01*
X146703466Y-70302862D01*
X147107138Y-70706534D01*
X147634561Y-70925000D01*
X148205439Y-70925000D01*
X148732862Y-70706534D01*
X149136534Y-70302862D01*
X149215486Y-70112255D01*
X169391861Y-70112255D01*
X170220000Y-70940395D01*
X171048139Y-70112255D01*
X170974005Y-69866136D01*
X170436777Y-69673035D01*
X169866546Y-69700222D01*
X169465995Y-69866136D01*
X169391861Y-70112255D01*
X149215486Y-70112255D01*
X149355000Y-69775439D01*
X149355000Y-69204561D01*
X149136534Y-68677138D01*
X148732862Y-68273466D01*
X148205439Y-68055000D01*
X147634561Y-68055000D01*
X147107138Y-68273466D01*
X146703466Y-68677138D01*
X146676475Y-68742299D01*
X146673864Y-68735995D01*
X146427745Y-68661861D01*
X145599605Y-69490000D01*
X145240395Y-69490000D01*
X144412255Y-68661861D01*
X144166136Y-68735995D01*
X143973035Y-69273223D01*
X134531000Y-69273223D01*
X134531000Y-68993061D01*
X134319417Y-68482255D01*
X144591861Y-68482255D01*
X145420000Y-69310395D01*
X146248139Y-68482255D01*
X146174005Y-68236136D01*
X145636777Y-68043035D01*
X145066546Y-68070222D01*
X144665995Y-68236136D01*
X144591861Y-68482255D01*
X134319417Y-68482255D01*
X134312534Y-68465638D01*
X133908862Y-68061966D01*
X133381439Y-67843500D01*
X132810561Y-67843500D01*
X132283138Y-68061966D01*
X131879466Y-68465638D01*
X131852475Y-68530799D01*
X131849864Y-68524495D01*
X131603745Y-68450361D01*
X130775605Y-69278500D01*
X130416395Y-69278500D01*
X129588255Y-68450361D01*
X129342136Y-68524495D01*
X129149035Y-69061723D01*
X108712208Y-69061723D01*
X108885000Y-68644569D01*
X108885000Y-68270755D01*
X129767861Y-68270755D01*
X130596000Y-69098895D01*
X131424139Y-68270755D01*
X131350005Y-68024636D01*
X130812777Y-67831535D01*
X130242546Y-67858722D01*
X129841995Y-68024636D01*
X129767861Y-68270755D01*
X108885000Y-68270755D01*
X108885000Y-67755431D01*
X108864290Y-67705431D01*
X193405000Y-67705431D01*
X193405000Y-68594569D01*
X193745259Y-69416026D01*
X194373974Y-70044741D01*
X195195431Y-70385000D01*
X196084569Y-70385000D01*
X196906026Y-70044741D01*
X197534741Y-69416026D01*
X197875000Y-68594569D01*
X197875000Y-67705431D01*
X197534741Y-66883974D01*
X196906026Y-66255259D01*
X196084569Y-65915000D01*
X195195431Y-65915000D01*
X194373974Y-66255259D01*
X193745259Y-66883974D01*
X193405000Y-67705431D01*
X108864290Y-67705431D01*
X108544741Y-66933974D01*
X107916026Y-66305259D01*
X107094569Y-65965000D01*
X106205431Y-65965000D01*
X105383974Y-66305259D01*
X104755259Y-66933974D01*
X104415000Y-67755431D01*
X102536663Y-67755431D01*
X102527346Y-64327000D01*
X199673344Y-64327000D01*
X199872654Y-137673000D01*
G36*
X171256887Y-112395000D02*
X171368260Y-112954909D01*
X171685423Y-113429577D01*
X172160091Y-113746740D01*
X172578667Y-113830000D01*
X172861333Y-113830000D01*
X173279909Y-113746740D01*
X173754577Y-113429577D01*
X173774804Y-113399305D01*
X174380271Y-114004773D01*
X174422671Y-114068229D01*
X174674063Y-114236204D01*
X174895748Y-114280300D01*
X174895752Y-114280300D01*
X174970600Y-114295188D01*
X175045448Y-114280300D01*
X193254553Y-114280300D01*
X193329400Y-114295188D01*
X193404247Y-114280300D01*
X193404252Y-114280300D01*
X193625937Y-114236204D01*
X193877329Y-114068229D01*
X193919731Y-114004770D01*
X194525196Y-113399305D01*
X194545423Y-113429577D01*
X195020091Y-113746740D01*
X195350039Y-113812371D01*
X184823970Y-124338441D01*
X184745904Y-124390603D01*
X184693742Y-124468669D01*
X184693741Y-124468670D01*
X184539250Y-124699882D01*
X184523353Y-124779800D01*
X177630989Y-124779800D01*
X177350161Y-124498972D01*
X177297997Y-124420903D01*
X176988719Y-124214250D01*
X176758521Y-124168461D01*
X176721757Y-123983635D01*
X176581409Y-123773591D01*
X176371365Y-123633243D01*
X176123600Y-123583960D01*
X174396400Y-123583960D01*
X174148635Y-123633243D01*
X173938591Y-123773591D01*
X173798243Y-123983635D01*
X173793068Y-124009651D01*
X173304725Y-123683350D01*
X172867598Y-123596400D01*
X172572402Y-123596400D01*
X172548453Y-123601164D01*
X168366261Y-119418972D01*
X168314097Y-119340903D01*
X168004819Y-119134250D01*
X167732086Y-119080000D01*
X167640000Y-119061683D01*
X167547914Y-119080000D01*
X166836112Y-119080000D01*
X166769577Y-118980423D01*
X166294909Y-118663260D01*
X165876333Y-118580000D01*
X165593667Y-118580000D01*
X165175091Y-118663260D01*
X164700423Y-118980423D01*
X164383260Y-119455091D01*
X164271887Y-120015000D01*
X164383260Y-120574909D01*
X164700423Y-121049577D01*
X165175091Y-121366740D01*
X165593667Y-121450000D01*
X165876333Y-121450000D01*
X166294909Y-121366740D01*
X166769577Y-121049577D01*
X166836112Y-120950000D01*
X167252711Y-120950000D01*
X169921225Y-123618515D01*
X169595275Y-123683350D01*
X169099570Y-124014570D01*
X168910000Y-124298281D01*
X168720430Y-124014570D01*
X168224725Y-123683350D01*
X167787598Y-123596400D01*
X167492402Y-123596400D01*
X167055275Y-123683350D01*
X166559570Y-124014570D01*
X166370000Y-124298281D01*
X166180430Y-124014570D01*
X165684725Y-123683350D01*
X165247598Y-123596400D01*
X164952402Y-123596400D01*
X164515275Y-123683350D01*
X164019570Y-124014570D01*
X163830000Y-124298281D01*
X163640430Y-124014570D01*
X163320000Y-123800465D01*
X163320000Y-111885000D01*
X171358332Y-111885000D01*
X171256887Y-112395000D01*
X171256887Y-112395000D01*
G37*
X171256887Y-112395000D02*
X171368260Y-112954909D01*
X171685423Y-113429577D01*
X172160091Y-113746740D01*
X172578667Y-113830000D01*
X172861333Y-113830000D01*
X173279909Y-113746740D01*
X173754577Y-113429577D01*
X173774804Y-113399305D01*
X174380271Y-114004773D01*
X174422671Y-114068229D01*
X174674063Y-114236204D01*
X174895748Y-114280300D01*
X174895752Y-114280300D01*
X174970600Y-114295188D01*
X175045448Y-114280300D01*
X193254553Y-114280300D01*
X193329400Y-114295188D01*
X193404247Y-114280300D01*
X193404252Y-114280300D01*
X193625937Y-114236204D01*
X193877329Y-114068229D01*
X193919731Y-114004770D01*
X194525196Y-113399305D01*
X194545423Y-113429577D01*
X195020091Y-113746740D01*
X195350039Y-113812371D01*
X184823970Y-124338441D01*
X184745904Y-124390603D01*
X184693742Y-124468669D01*
X184693741Y-124468670D01*
X184539250Y-124699882D01*
X184523353Y-124779800D01*
X177630989Y-124779800D01*
X177350161Y-124498972D01*
X177297997Y-124420903D01*
X176988719Y-124214250D01*
X176758521Y-124168461D01*
X176721757Y-123983635D01*
X176581409Y-123773591D01*
X176371365Y-123633243D01*
X176123600Y-123583960D01*
X174396400Y-123583960D01*
X174148635Y-123633243D01*
X173938591Y-123773591D01*
X173798243Y-123983635D01*
X173793068Y-124009651D01*
X173304725Y-123683350D01*
X172867598Y-123596400D01*
X172572402Y-123596400D01*
X172548453Y-123601164D01*
X168366261Y-119418972D01*
X168314097Y-119340903D01*
X168004819Y-119134250D01*
X167732086Y-119080000D01*
X167640000Y-119061683D01*
X167547914Y-119080000D01*
X166836112Y-119080000D01*
X166769577Y-118980423D01*
X166294909Y-118663260D01*
X165876333Y-118580000D01*
X165593667Y-118580000D01*
X165175091Y-118663260D01*
X164700423Y-118980423D01*
X164383260Y-119455091D01*
X164271887Y-120015000D01*
X164383260Y-120574909D01*
X164700423Y-121049577D01*
X165175091Y-121366740D01*
X165593667Y-121450000D01*
X165876333Y-121450000D01*
X166294909Y-121366740D01*
X166769577Y-121049577D01*
X166836112Y-120950000D01*
X167252711Y-120950000D01*
X169921225Y-123618515D01*
X169595275Y-123683350D01*
X169099570Y-124014570D01*
X168910000Y-124298281D01*
X168720430Y-124014570D01*
X168224725Y-123683350D01*
X167787598Y-123596400D01*
X167492402Y-123596400D01*
X167055275Y-123683350D01*
X166559570Y-124014570D01*
X166370000Y-124298281D01*
X166180430Y-124014570D01*
X165684725Y-123683350D01*
X165247598Y-123596400D01*
X164952402Y-123596400D01*
X164515275Y-123683350D01*
X164019570Y-124014570D01*
X163830000Y-124298281D01*
X163640430Y-124014570D01*
X163320000Y-123800465D01*
X163320000Y-111885000D01*
X171358332Y-111885000D01*
X171256887Y-112395000D01*
G36*
X153443470Y-107799472D02*
X153485871Y-107862929D01*
X153549327Y-107905329D01*
X153737262Y-108030904D01*
X153785405Y-108040480D01*
X153958948Y-108075000D01*
X153958952Y-108075000D01*
X154033800Y-108089888D01*
X154108648Y-108075000D01*
X155594700Y-108075000D01*
X155594701Y-110262948D01*
X155579812Y-110337800D01*
X155638797Y-110634337D01*
X155754081Y-110806871D01*
X155806772Y-110885729D01*
X155870228Y-110928129D01*
X156415657Y-111473558D01*
X156248959Y-111657577D01*
X156088096Y-112045961D01*
X156210085Y-112268000D01*
X157353000Y-112268000D01*
X157353000Y-112248000D01*
X157607000Y-112248000D01*
X157607000Y-112268000D01*
X157627000Y-112268000D01*
X157627000Y-112522000D01*
X157607000Y-112522000D01*
X157607000Y-113665629D01*
X157829041Y-113786914D01*
X158335134Y-113547389D01*
X158711041Y-113132423D01*
X158720202Y-113110304D01*
X160556600Y-114946702D01*
X160556601Y-123673778D01*
X160167598Y-123596400D01*
X159872402Y-123596400D01*
X159435275Y-123683350D01*
X158939570Y-124014570D01*
X158750000Y-124298281D01*
X158560430Y-124014570D01*
X158064725Y-123683350D01*
X157627598Y-123596400D01*
X157332402Y-123596400D01*
X156895275Y-123683350D01*
X156399570Y-124014570D01*
X156210000Y-124298281D01*
X156020430Y-124014570D01*
X155524725Y-123683350D01*
X155422404Y-123662997D01*
X157652073Y-121433329D01*
X157715529Y-121390929D01*
X157883504Y-121139537D01*
X157927600Y-120917852D01*
X157927600Y-120917848D01*
X157942488Y-120843001D01*
X157927600Y-120768154D01*
X157927600Y-119418947D01*
X157942488Y-119344100D01*
X157927600Y-119269253D01*
X157927600Y-119269248D01*
X157883504Y-119047563D01*
X157715529Y-118796171D01*
X157652073Y-118753771D01*
X151642341Y-112744039D01*
X156088096Y-112744039D01*
X156248959Y-113132423D01*
X156624866Y-113547389D01*
X157130959Y-113786914D01*
X157353000Y-113665629D01*
X157353000Y-112522000D01*
X156210085Y-112522000D01*
X156088096Y-112744039D01*
X151642341Y-112744039D01*
X151100631Y-112202330D01*
X151058229Y-112138871D01*
X150806837Y-111970896D01*
X150585152Y-111926800D01*
X150585147Y-111926800D01*
X150510300Y-111911912D01*
X150435453Y-111926800D01*
X150345111Y-111926800D01*
X150227680Y-111809369D01*
X149847274Y-111651800D01*
X149435526Y-111651800D01*
X149055120Y-111809369D01*
X148830507Y-112033982D01*
X148847113Y-111950500D01*
X148735740Y-111390591D01*
X148418577Y-110915923D01*
X148066242Y-110680500D01*
X148418577Y-110445077D01*
X148735740Y-109970409D01*
X148847113Y-109410500D01*
X148735740Y-108850591D01*
X148418577Y-108375923D01*
X148066242Y-108140500D01*
X148418577Y-107905077D01*
X148735740Y-107430409D01*
X148847113Y-106870500D01*
X148735740Y-106310591D01*
X148418577Y-105835923D01*
X148066242Y-105600500D01*
X148418577Y-105365077D01*
X148735740Y-104890409D01*
X148847113Y-104330500D01*
X148735740Y-103770591D01*
X148418577Y-103295923D01*
X148066242Y-103060500D01*
X148418577Y-102825077D01*
X148438804Y-102794805D01*
X153443470Y-107799472D01*
X153443470Y-107799472D01*
G37*
X153443470Y-107799472D02*
X153485871Y-107862929D01*
X153549327Y-107905329D01*
X153737262Y-108030904D01*
X153785405Y-108040480D01*
X153958948Y-108075000D01*
X153958952Y-108075000D01*
X154033800Y-108089888D01*
X154108648Y-108075000D01*
X155594700Y-108075000D01*
X155594701Y-110262948D01*
X155579812Y-110337800D01*
X155638797Y-110634337D01*
X155754081Y-110806871D01*
X155806772Y-110885729D01*
X155870228Y-110928129D01*
X156415657Y-111473558D01*
X156248959Y-111657577D01*
X156088096Y-112045961D01*
X156210085Y-112268000D01*
X157353000Y-112268000D01*
X157353000Y-112248000D01*
X157607000Y-112248000D01*
X157607000Y-112268000D01*
X157627000Y-112268000D01*
X157627000Y-112522000D01*
X157607000Y-112522000D01*
X157607000Y-113665629D01*
X157829041Y-113786914D01*
X158335134Y-113547389D01*
X158711041Y-113132423D01*
X158720202Y-113110304D01*
X160556600Y-114946702D01*
X160556601Y-123673778D01*
X160167598Y-123596400D01*
X159872402Y-123596400D01*
X159435275Y-123683350D01*
X158939570Y-124014570D01*
X158750000Y-124298281D01*
X158560430Y-124014570D01*
X158064725Y-123683350D01*
X157627598Y-123596400D01*
X157332402Y-123596400D01*
X156895275Y-123683350D01*
X156399570Y-124014570D01*
X156210000Y-124298281D01*
X156020430Y-124014570D01*
X155524725Y-123683350D01*
X155422404Y-123662997D01*
X157652073Y-121433329D01*
X157715529Y-121390929D01*
X157883504Y-121139537D01*
X157927600Y-120917852D01*
X157927600Y-120917848D01*
X157942488Y-120843001D01*
X157927600Y-120768154D01*
X157927600Y-119418947D01*
X157942488Y-119344100D01*
X157927600Y-119269253D01*
X157927600Y-119269248D01*
X157883504Y-119047563D01*
X157715529Y-118796171D01*
X157652073Y-118753771D01*
X151642341Y-112744039D01*
X156088096Y-112744039D01*
X156248959Y-113132423D01*
X156624866Y-113547389D01*
X157130959Y-113786914D01*
X157353000Y-113665629D01*
X157353000Y-112522000D01*
X156210085Y-112522000D01*
X156088096Y-112744039D01*
X151642341Y-112744039D01*
X151100631Y-112202330D01*
X151058229Y-112138871D01*
X150806837Y-111970896D01*
X150585152Y-111926800D01*
X150585147Y-111926800D01*
X150510300Y-111911912D01*
X150435453Y-111926800D01*
X150345111Y-111926800D01*
X150227680Y-111809369D01*
X149847274Y-111651800D01*
X149435526Y-111651800D01*
X149055120Y-111809369D01*
X148830507Y-112033982D01*
X148847113Y-111950500D01*
X148735740Y-111390591D01*
X148418577Y-110915923D01*
X148066242Y-110680500D01*
X148418577Y-110445077D01*
X148735740Y-109970409D01*
X148847113Y-109410500D01*
X148735740Y-108850591D01*
X148418577Y-108375923D01*
X148066242Y-108140500D01*
X148418577Y-107905077D01*
X148735740Y-107430409D01*
X148847113Y-106870500D01*
X148735740Y-106310591D01*
X148418577Y-105835923D01*
X148066242Y-105600500D01*
X148418577Y-105365077D01*
X148735740Y-104890409D01*
X148847113Y-104330500D01*
X148735740Y-103770591D01*
X148418577Y-103295923D01*
X148066242Y-103060500D01*
X148418577Y-102825077D01*
X148438804Y-102794805D01*
X153443470Y-107799472D01*
G36*
X135515301Y-111975504D02*
X135515300Y-118313898D01*
X135494034Y-118335165D01*
X135469494Y-118325000D01*
X134918506Y-118325000D01*
X134409460Y-118535853D01*
X134039000Y-118906313D01*
X134039000Y-118833691D01*
X133942327Y-118600302D01*
X133763699Y-118421673D01*
X133530310Y-118325000D01*
X132939750Y-118325000D01*
X132781000Y-118483750D01*
X132781000Y-119583000D01*
X132801000Y-119583000D01*
X132801000Y-119837000D01*
X132781000Y-119837000D01*
X132781000Y-119857000D01*
X132527000Y-119857000D01*
X132527000Y-119837000D01*
X132507000Y-119837000D01*
X132507000Y-119583000D01*
X132527000Y-119583000D01*
X132527000Y-118483750D01*
X132368250Y-118325000D01*
X131777690Y-118325000D01*
X131544301Y-118421673D01*
X131365673Y-118600302D01*
X131269000Y-118833691D01*
X131269000Y-119217099D01*
X131056149Y-119004247D01*
X131137534Y-118922862D01*
X131356000Y-118395439D01*
X131356000Y-117824561D01*
X131137534Y-117297138D01*
X130733862Y-116893466D01*
X130206439Y-116675000D01*
X129635561Y-116675000D01*
X129108138Y-116893466D01*
X128948900Y-117052704D01*
X128948900Y-115031401D01*
X131240606Y-112739696D01*
X131489423Y-113112077D01*
X131964091Y-113429240D01*
X132382667Y-113512500D01*
X132665333Y-113512500D01*
X133083909Y-113429240D01*
X133558577Y-113112077D01*
X133875740Y-112637409D01*
X133987113Y-112077500D01*
X133875740Y-111517591D01*
X133558577Y-111042923D01*
X133262614Y-110845167D01*
X133279896Y-110758286D01*
X133558577Y-110572077D01*
X133780197Y-110240399D01*
X135515301Y-111975504D01*
X135515301Y-111975504D01*
G37*
X135515301Y-111975504D02*
X135515300Y-118313898D01*
X135494034Y-118335165D01*
X135469494Y-118325000D01*
X134918506Y-118325000D01*
X134409460Y-118535853D01*
X134039000Y-118906313D01*
X134039000Y-118833691D01*
X133942327Y-118600302D01*
X133763699Y-118421673D01*
X133530310Y-118325000D01*
X132939750Y-118325000D01*
X132781000Y-118483750D01*
X132781000Y-119583000D01*
X132801000Y-119583000D01*
X132801000Y-119837000D01*
X132781000Y-119837000D01*
X132781000Y-119857000D01*
X132527000Y-119857000D01*
X132527000Y-119837000D01*
X132507000Y-119837000D01*
X132507000Y-119583000D01*
X132527000Y-119583000D01*
X132527000Y-118483750D01*
X132368250Y-118325000D01*
X131777690Y-118325000D01*
X131544301Y-118421673D01*
X131365673Y-118600302D01*
X131269000Y-118833691D01*
X131269000Y-119217099D01*
X131056149Y-119004247D01*
X131137534Y-118922862D01*
X131356000Y-118395439D01*
X131356000Y-117824561D01*
X131137534Y-117297138D01*
X130733862Y-116893466D01*
X130206439Y-116675000D01*
X129635561Y-116675000D01*
X129108138Y-116893466D01*
X128948900Y-117052704D01*
X128948900Y-115031401D01*
X131240606Y-112739696D01*
X131489423Y-113112077D01*
X131964091Y-113429240D01*
X132382667Y-113512500D01*
X132665333Y-113512500D01*
X133083909Y-113429240D01*
X133558577Y-113112077D01*
X133875740Y-112637409D01*
X133987113Y-112077500D01*
X133875740Y-111517591D01*
X133558577Y-111042923D01*
X133262614Y-110845167D01*
X133279896Y-110758286D01*
X133558577Y-110572077D01*
X133780197Y-110240399D01*
X135515301Y-111975504D01*
G36*
X145668371Y-109894973D02*
X145710771Y-109958429D01*
X145962163Y-110126404D01*
X146163214Y-110166396D01*
X146349423Y-110445077D01*
X146701758Y-110680500D01*
X146349423Y-110915923D01*
X146032260Y-111390591D01*
X145920887Y-111950500D01*
X146032260Y-112510409D01*
X146349423Y-112985077D01*
X146824091Y-113302240D01*
X147242667Y-113385500D01*
X147525333Y-113385500D01*
X147943909Y-113302240D01*
X148418577Y-112985077D01*
X148606400Y-112703980D01*
X148606400Y-112892674D01*
X148763969Y-113273080D01*
X149055120Y-113564231D01*
X149435526Y-113721800D01*
X149847274Y-113721800D01*
X150227680Y-113564231D01*
X150270305Y-113521606D01*
X151937499Y-115188800D01*
X142460802Y-115188800D01*
X140453352Y-113181351D01*
X140619134Y-113102889D01*
X140995041Y-112687923D01*
X141155904Y-112299539D01*
X141033915Y-112077500D01*
X139891000Y-112077500D01*
X139891000Y-112097500D01*
X139637000Y-112097500D01*
X139637000Y-112077500D01*
X139617000Y-112077500D01*
X139617000Y-111823500D01*
X139637000Y-111823500D01*
X139637000Y-111803500D01*
X139891000Y-111803500D01*
X139891000Y-111823500D01*
X141033915Y-111823500D01*
X141155904Y-111601461D01*
X140995041Y-111213077D01*
X140619134Y-110798111D01*
X140414892Y-110701447D01*
X140798577Y-110445077D01*
X141115740Y-109970409D01*
X141227113Y-109410500D01*
X141154450Y-109045200D01*
X144818599Y-109045200D01*
X145668371Y-109894973D01*
X145668371Y-109894973D01*
G37*
X145668371Y-109894973D02*
X145710771Y-109958429D01*
X145962163Y-110126404D01*
X146163214Y-110166396D01*
X146349423Y-110445077D01*
X146701758Y-110680500D01*
X146349423Y-110915923D01*
X146032260Y-111390591D01*
X145920887Y-111950500D01*
X146032260Y-112510409D01*
X146349423Y-112985077D01*
X146824091Y-113302240D01*
X147242667Y-113385500D01*
X147525333Y-113385500D01*
X147943909Y-113302240D01*
X148418577Y-112985077D01*
X148606400Y-112703980D01*
X148606400Y-112892674D01*
X148763969Y-113273080D01*
X149055120Y-113564231D01*
X149435526Y-113721800D01*
X149847274Y-113721800D01*
X150227680Y-113564231D01*
X150270305Y-113521606D01*
X151937499Y-115188800D01*
X142460802Y-115188800D01*
X140453352Y-113181351D01*
X140619134Y-113102889D01*
X140995041Y-112687923D01*
X141155904Y-112299539D01*
X141033915Y-112077500D01*
X139891000Y-112077500D01*
X139891000Y-112097500D01*
X139637000Y-112097500D01*
X139637000Y-112077500D01*
X139617000Y-112077500D01*
X139617000Y-111823500D01*
X139637000Y-111823500D01*
X139637000Y-111803500D01*
X139891000Y-111803500D01*
X139891000Y-111823500D01*
X141033915Y-111823500D01*
X141155904Y-111601461D01*
X140995041Y-111213077D01*
X140619134Y-110798111D01*
X140414892Y-110701447D01*
X140798577Y-110445077D01*
X141115740Y-109970409D01*
X141227113Y-109410500D01*
X141154450Y-109045200D01*
X144818599Y-109045200D01*
X145668371Y-109894973D01*
G36*
X193864370Y-110339472D02*
X193906771Y-110402929D01*
X194158163Y-110570904D01*
X194359214Y-110610896D01*
X194545423Y-110889577D01*
X194897758Y-111125000D01*
X194545423Y-111360423D01*
X194359214Y-111639104D01*
X194158163Y-111679096D01*
X193906771Y-111847071D01*
X193864371Y-111910527D01*
X193014599Y-112760300D01*
X181725169Y-112760300D01*
X181731904Y-112744039D01*
X181609915Y-112522000D01*
X180467000Y-112522000D01*
X180467000Y-112542000D01*
X180213000Y-112542000D01*
X180213000Y-112522000D01*
X179070085Y-112522000D01*
X178948096Y-112744039D01*
X178954831Y-112760300D01*
X175285402Y-112760300D01*
X174435631Y-111910530D01*
X174418572Y-111885000D01*
X177869853Y-111885000D01*
X177944700Y-111899888D01*
X178019547Y-111885000D01*
X178019552Y-111885000D01*
X178241237Y-111840904D01*
X178492629Y-111672929D01*
X178535031Y-111609470D01*
X179285196Y-110859305D01*
X179305423Y-110889577D01*
X179689108Y-111145947D01*
X179484866Y-111242611D01*
X179108959Y-111657577D01*
X178948096Y-112045961D01*
X179070085Y-112268000D01*
X180213000Y-112268000D01*
X180213000Y-112248000D01*
X180467000Y-112248000D01*
X180467000Y-112268000D01*
X181609915Y-112268000D01*
X181731904Y-112045961D01*
X181571041Y-111657577D01*
X181195134Y-111242611D01*
X180990892Y-111145947D01*
X181374577Y-110889577D01*
X181691740Y-110414909D01*
X181803113Y-109855000D01*
X181730450Y-109489700D01*
X193014599Y-109489700D01*
X193864370Y-110339472D01*
X193864370Y-110339472D01*
G37*
X193864370Y-110339472D02*
X193906771Y-110402929D01*
X194158163Y-110570904D01*
X194359214Y-110610896D01*
X194545423Y-110889577D01*
X194897758Y-111125000D01*
X194545423Y-111360423D01*
X194359214Y-111639104D01*
X194158163Y-111679096D01*
X193906771Y-111847071D01*
X193864371Y-111910527D01*
X193014599Y-112760300D01*
X181725169Y-112760300D01*
X181731904Y-112744039D01*
X181609915Y-112522000D01*
X180467000Y-112522000D01*
X180467000Y-112542000D01*
X180213000Y-112542000D01*
X180213000Y-112522000D01*
X179070085Y-112522000D01*
X178948096Y-112744039D01*
X178954831Y-112760300D01*
X175285402Y-112760300D01*
X174435631Y-111910530D01*
X174418572Y-111885000D01*
X177869853Y-111885000D01*
X177944700Y-111899888D01*
X178019547Y-111885000D01*
X178019552Y-111885000D01*
X178241237Y-111840904D01*
X178492629Y-111672929D01*
X178535031Y-111609470D01*
X179285196Y-110859305D01*
X179305423Y-110889577D01*
X179689108Y-111145947D01*
X179484866Y-111242611D01*
X179108959Y-111657577D01*
X178948096Y-112045961D01*
X179070085Y-112268000D01*
X180213000Y-112268000D01*
X180213000Y-112248000D01*
X180467000Y-112248000D01*
X180467000Y-112268000D01*
X181609915Y-112268000D01*
X181731904Y-112045961D01*
X181571041Y-111657577D01*
X181195134Y-111242611D01*
X180990892Y-111145947D01*
X181374577Y-110889577D01*
X181691740Y-110414909D01*
X181803113Y-109855000D01*
X181730450Y-109489700D01*
X193014599Y-109489700D01*
X193864370Y-110339472D01*
G36*
X115815423Y-86604577D02*
X116167758Y-86840000D01*
X115815423Y-87075423D01*
X115498260Y-87550091D01*
X115386887Y-88110000D01*
X115498260Y-88669909D01*
X115815423Y-89144577D01*
X116167758Y-89380000D01*
X115815423Y-89615423D01*
X115498260Y-90090091D01*
X115386887Y-90650000D01*
X115498260Y-91209909D01*
X115815423Y-91684577D01*
X116167758Y-91920000D01*
X115815423Y-92155423D01*
X115498260Y-92630091D01*
X115386887Y-93190000D01*
X115498260Y-93749909D01*
X115815423Y-94224577D01*
X116290091Y-94541740D01*
X116708667Y-94625000D01*
X116991333Y-94625000D01*
X117409909Y-94541740D01*
X117884577Y-94224577D01*
X118201740Y-93749909D01*
X118313113Y-93190000D01*
X118201740Y-92630091D01*
X117884577Y-92155423D01*
X117532242Y-91920000D01*
X117884577Y-91684577D01*
X118201740Y-91209909D01*
X118313113Y-90650000D01*
X118201740Y-90090091D01*
X117884577Y-89615423D01*
X117532242Y-89380000D01*
X117884577Y-89144577D01*
X118196641Y-88677539D01*
X123766096Y-88677539D01*
X123926959Y-89065923D01*
X124302866Y-89480889D01*
X124808959Y-89720414D01*
X125031000Y-89599129D01*
X125031000Y-88455500D01*
X125285000Y-88455500D01*
X125285000Y-89599129D01*
X125507041Y-89720414D01*
X126013134Y-89480889D01*
X126389041Y-89065923D01*
X126549904Y-88677539D01*
X126427915Y-88455500D01*
X125285000Y-88455500D01*
X125031000Y-88455500D01*
X123888085Y-88455500D01*
X123766096Y-88677539D01*
X118196641Y-88677539D01*
X118201740Y-88669909D01*
X118313113Y-88110000D01*
X118201740Y-87550091D01*
X117884577Y-87075423D01*
X117532242Y-86840000D01*
X117884577Y-86604577D01*
X117904804Y-86574305D01*
X118954670Y-87624172D01*
X118997071Y-87687629D01*
X119248463Y-87855604D01*
X119470148Y-87899700D01*
X119470152Y-87899700D01*
X119544999Y-87914588D01*
X119619846Y-87899700D01*
X123799132Y-87899700D01*
X123766096Y-87979461D01*
X123888085Y-88201500D01*
X125031000Y-88201500D01*
X125031000Y-88181500D01*
X125285000Y-88181500D01*
X125285000Y-88201500D01*
X126427915Y-88201500D01*
X126549904Y-87979461D01*
X126516868Y-87899700D01*
X129990298Y-87899700D01*
X121778330Y-96111669D01*
X121714871Y-96154071D01*
X121546896Y-96405464D01*
X121502800Y-96627149D01*
X121502800Y-96627153D01*
X121487912Y-96702000D01*
X121502800Y-96776848D01*
X121502800Y-97010789D01*
X121385369Y-97128220D01*
X121227800Y-97508626D01*
X121227800Y-97920374D01*
X121385369Y-98300780D01*
X121676520Y-98591931D01*
X122056926Y-98749500D01*
X122468674Y-98749500D01*
X122849080Y-98591931D01*
X123018700Y-98422311D01*
X123018701Y-107493448D01*
X123003812Y-107568300D01*
X123018701Y-107643152D01*
X123041361Y-107757071D01*
X123062797Y-107864837D01*
X123187096Y-108050863D01*
X123230772Y-108116229D01*
X123294228Y-108158629D01*
X123776937Y-108641338D01*
X123552260Y-108977591D01*
X123440887Y-109537500D01*
X123552260Y-110097409D01*
X123869423Y-110572077D01*
X124253108Y-110828447D01*
X124048866Y-110925111D01*
X123672959Y-111340077D01*
X123512096Y-111728461D01*
X123634085Y-111950500D01*
X124777000Y-111950500D01*
X124777000Y-111930500D01*
X125031000Y-111930500D01*
X125031000Y-111950500D01*
X125051000Y-111950500D01*
X125051000Y-112204500D01*
X125031000Y-112204500D01*
X125031000Y-112224500D01*
X124777000Y-112224500D01*
X124777000Y-112204500D01*
X123634085Y-112204500D01*
X123512096Y-112426539D01*
X123531961Y-112474500D01*
X122341102Y-112474500D01*
X118537431Y-108670830D01*
X118495029Y-108607371D01*
X118243637Y-108439396D01*
X118021952Y-108395300D01*
X118021947Y-108395300D01*
X117947100Y-108380412D01*
X117872253Y-108395300D01*
X116838484Y-108395300D01*
X116921092Y-107980000D01*
X116805839Y-107400582D01*
X116477625Y-106909375D01*
X115986418Y-106581161D01*
X115553256Y-106495000D01*
X115260744Y-106495000D01*
X114827582Y-106581161D01*
X114336375Y-106909375D01*
X114137000Y-107207761D01*
X113937625Y-106909375D01*
X113446418Y-106581161D01*
X113013256Y-106495000D01*
X112720744Y-106495000D01*
X112287582Y-106581161D01*
X111796375Y-106909375D01*
X111784184Y-106927619D01*
X111775157Y-106882235D01*
X111634809Y-106672191D01*
X111424765Y-106531843D01*
X111177000Y-106482560D01*
X109477000Y-106482560D01*
X109229235Y-106531843D01*
X109019191Y-106672191D01*
X108878843Y-106882235D01*
X108829560Y-107130000D01*
X108829560Y-107576959D01*
X106160000Y-104907399D01*
X106160000Y-91358178D01*
X106470625Y-91150625D01*
X106798839Y-90659418D01*
X106914092Y-90080000D01*
X106798839Y-89500582D01*
X106470625Y-89009375D01*
X106172239Y-88810000D01*
X106470625Y-88610625D01*
X106682474Y-88293571D01*
X106871837Y-88255904D01*
X107123229Y-88087929D01*
X107165631Y-88024470D01*
X107538502Y-87651600D01*
X107858069Y-87651600D01*
X107766887Y-88110000D01*
X107878260Y-88669909D01*
X108195423Y-89144577D01*
X108547758Y-89380000D01*
X108195423Y-89615423D01*
X107878260Y-90090091D01*
X107766887Y-90650000D01*
X107878260Y-91209909D01*
X108118798Y-91569900D01*
X107571830Y-92116869D01*
X107508371Y-92159271D01*
X107340396Y-92410664D01*
X107296300Y-92632349D01*
X107296300Y-92632353D01*
X107281412Y-92707200D01*
X107296300Y-92782047D01*
X107296301Y-100344748D01*
X107281412Y-100419600D01*
X107340397Y-100716137D01*
X107461789Y-100897812D01*
X107508372Y-100967529D01*
X107571828Y-101009929D01*
X108018270Y-101456371D01*
X107885161Y-101655582D01*
X107769908Y-102235000D01*
X107885161Y-102814418D01*
X108213375Y-103305625D01*
X108704582Y-103633839D01*
X109137744Y-103720000D01*
X109430256Y-103720000D01*
X109863418Y-103633839D01*
X110354625Y-103305625D01*
X110554000Y-103007239D01*
X110753375Y-103305625D01*
X111244582Y-103633839D01*
X111677744Y-103720000D01*
X111970256Y-103720000D01*
X112403418Y-103633839D01*
X112894625Y-103305625D01*
X113094000Y-103007239D01*
X113293375Y-103305625D01*
X113784582Y-103633839D01*
X114217744Y-103720000D01*
X114510256Y-103720000D01*
X114943418Y-103633839D01*
X115434625Y-103305625D01*
X115634000Y-103007239D01*
X115833375Y-103305625D01*
X116324582Y-103633839D01*
X116757744Y-103720000D01*
X117050256Y-103720000D01*
X117483418Y-103633839D01*
X117974625Y-103305625D01*
X118302839Y-102814418D01*
X118418092Y-102235000D01*
X118302839Y-101655582D01*
X117974625Y-101164375D01*
X117956381Y-101152184D01*
X118001765Y-101143157D01*
X118211809Y-101002809D01*
X118352157Y-100792765D01*
X118401440Y-100545000D01*
X118401440Y-98845000D01*
X118352157Y-98597235D01*
X118211809Y-98387191D01*
X118001765Y-98246843D01*
X117754000Y-98197560D01*
X116054000Y-98197560D01*
X115806235Y-98246843D01*
X115596191Y-98387191D01*
X115455843Y-98597235D01*
X115446816Y-98642619D01*
X115434625Y-98624375D01*
X114943418Y-98296161D01*
X114510256Y-98210000D01*
X114217744Y-98210000D01*
X113784582Y-98296161D01*
X113293375Y-98624375D01*
X113094000Y-98922761D01*
X112894625Y-98624375D01*
X112403418Y-98296161D01*
X111970256Y-98210000D01*
X111677744Y-98210000D01*
X111244582Y-98296161D01*
X110753375Y-98624375D01*
X110554000Y-98922761D01*
X110354625Y-98624375D01*
X109863418Y-98296161D01*
X109430256Y-98210000D01*
X109137744Y-98210000D01*
X108816300Y-98273939D01*
X108816300Y-94551312D01*
X108880959Y-94581914D01*
X109103000Y-94460629D01*
X109103000Y-93317000D01*
X109357000Y-93317000D01*
X109357000Y-94460629D01*
X109579041Y-94581914D01*
X110085134Y-94342389D01*
X110461041Y-93927423D01*
X110621904Y-93539039D01*
X110499915Y-93317000D01*
X109357000Y-93317000D01*
X109103000Y-93317000D01*
X109083000Y-93317000D01*
X109083000Y-93063000D01*
X109103000Y-93063000D01*
X109103000Y-93043000D01*
X109357000Y-93043000D01*
X109357000Y-93063000D01*
X110499915Y-93063000D01*
X110621904Y-92840961D01*
X110461041Y-92452577D01*
X110311264Y-92287237D01*
X110955173Y-91643329D01*
X111018629Y-91600929D01*
X111186604Y-91349537D01*
X111230700Y-91127852D01*
X111230700Y-91127848D01*
X111245588Y-91053001D01*
X111230700Y-90978154D01*
X111230700Y-90592201D01*
X115576259Y-86246643D01*
X115815423Y-86604577D01*
X115815423Y-86604577D01*
G37*
X115815423Y-86604577D02*
X116167758Y-86840000D01*
X115815423Y-87075423D01*
X115498260Y-87550091D01*
X115386887Y-88110000D01*
X115498260Y-88669909D01*
X115815423Y-89144577D01*
X116167758Y-89380000D01*
X115815423Y-89615423D01*
X115498260Y-90090091D01*
X115386887Y-90650000D01*
X115498260Y-91209909D01*
X115815423Y-91684577D01*
X116167758Y-91920000D01*
X115815423Y-92155423D01*
X115498260Y-92630091D01*
X115386887Y-93190000D01*
X115498260Y-93749909D01*
X115815423Y-94224577D01*
X116290091Y-94541740D01*
X116708667Y-94625000D01*
X116991333Y-94625000D01*
X117409909Y-94541740D01*
X117884577Y-94224577D01*
X118201740Y-93749909D01*
X118313113Y-93190000D01*
X118201740Y-92630091D01*
X117884577Y-92155423D01*
X117532242Y-91920000D01*
X117884577Y-91684577D01*
X118201740Y-91209909D01*
X118313113Y-90650000D01*
X118201740Y-90090091D01*
X117884577Y-89615423D01*
X117532242Y-89380000D01*
X117884577Y-89144577D01*
X118196641Y-88677539D01*
X123766096Y-88677539D01*
X123926959Y-89065923D01*
X124302866Y-89480889D01*
X124808959Y-89720414D01*
X125031000Y-89599129D01*
X125031000Y-88455500D01*
X125285000Y-88455500D01*
X125285000Y-89599129D01*
X125507041Y-89720414D01*
X126013134Y-89480889D01*
X126389041Y-89065923D01*
X126549904Y-88677539D01*
X126427915Y-88455500D01*
X125285000Y-88455500D01*
X125031000Y-88455500D01*
X123888085Y-88455500D01*
X123766096Y-88677539D01*
X118196641Y-88677539D01*
X118201740Y-88669909D01*
X118313113Y-88110000D01*
X118201740Y-87550091D01*
X117884577Y-87075423D01*
X117532242Y-86840000D01*
X117884577Y-86604577D01*
X117904804Y-86574305D01*
X118954670Y-87624172D01*
X118997071Y-87687629D01*
X119248463Y-87855604D01*
X119470148Y-87899700D01*
X119470152Y-87899700D01*
X119544999Y-87914588D01*
X119619846Y-87899700D01*
X123799132Y-87899700D01*
X123766096Y-87979461D01*
X123888085Y-88201500D01*
X125031000Y-88201500D01*
X125031000Y-88181500D01*
X125285000Y-88181500D01*
X125285000Y-88201500D01*
X126427915Y-88201500D01*
X126549904Y-87979461D01*
X126516868Y-87899700D01*
X129990298Y-87899700D01*
X121778330Y-96111669D01*
X121714871Y-96154071D01*
X121546896Y-96405464D01*
X121502800Y-96627149D01*
X121502800Y-96627153D01*
X121487912Y-96702000D01*
X121502800Y-96776848D01*
X121502800Y-97010789D01*
X121385369Y-97128220D01*
X121227800Y-97508626D01*
X121227800Y-97920374D01*
X121385369Y-98300780D01*
X121676520Y-98591931D01*
X122056926Y-98749500D01*
X122468674Y-98749500D01*
X122849080Y-98591931D01*
X123018700Y-98422311D01*
X123018701Y-107493448D01*
X123003812Y-107568300D01*
X123018701Y-107643152D01*
X123041361Y-107757071D01*
X123062797Y-107864837D01*
X123187096Y-108050863D01*
X123230772Y-108116229D01*
X123294228Y-108158629D01*
X123776937Y-108641338D01*
X123552260Y-108977591D01*
X123440887Y-109537500D01*
X123552260Y-110097409D01*
X123869423Y-110572077D01*
X124253108Y-110828447D01*
X124048866Y-110925111D01*
X123672959Y-111340077D01*
X123512096Y-111728461D01*
X123634085Y-111950500D01*
X124777000Y-111950500D01*
X124777000Y-111930500D01*
X125031000Y-111930500D01*
X125031000Y-111950500D01*
X125051000Y-111950500D01*
X125051000Y-112204500D01*
X125031000Y-112204500D01*
X125031000Y-112224500D01*
X124777000Y-112224500D01*
X124777000Y-112204500D01*
X123634085Y-112204500D01*
X123512096Y-112426539D01*
X123531961Y-112474500D01*
X122341102Y-112474500D01*
X118537431Y-108670830D01*
X118495029Y-108607371D01*
X118243637Y-108439396D01*
X118021952Y-108395300D01*
X118021947Y-108395300D01*
X117947100Y-108380412D01*
X117872253Y-108395300D01*
X116838484Y-108395300D01*
X116921092Y-107980000D01*
X116805839Y-107400582D01*
X116477625Y-106909375D01*
X115986418Y-106581161D01*
X115553256Y-106495000D01*
X115260744Y-106495000D01*
X114827582Y-106581161D01*
X114336375Y-106909375D01*
X114137000Y-107207761D01*
X113937625Y-106909375D01*
X113446418Y-106581161D01*
X113013256Y-106495000D01*
X112720744Y-106495000D01*
X112287582Y-106581161D01*
X111796375Y-106909375D01*
X111784184Y-106927619D01*
X111775157Y-106882235D01*
X111634809Y-106672191D01*
X111424765Y-106531843D01*
X111177000Y-106482560D01*
X109477000Y-106482560D01*
X109229235Y-106531843D01*
X109019191Y-106672191D01*
X108878843Y-106882235D01*
X108829560Y-107130000D01*
X108829560Y-107576959D01*
X106160000Y-104907399D01*
X106160000Y-91358178D01*
X106470625Y-91150625D01*
X106798839Y-90659418D01*
X106914092Y-90080000D01*
X106798839Y-89500582D01*
X106470625Y-89009375D01*
X106172239Y-88810000D01*
X106470625Y-88610625D01*
X106682474Y-88293571D01*
X106871837Y-88255904D01*
X107123229Y-88087929D01*
X107165631Y-88024470D01*
X107538502Y-87651600D01*
X107858069Y-87651600D01*
X107766887Y-88110000D01*
X107878260Y-88669909D01*
X108195423Y-89144577D01*
X108547758Y-89380000D01*
X108195423Y-89615423D01*
X107878260Y-90090091D01*
X107766887Y-90650000D01*
X107878260Y-91209909D01*
X108118798Y-91569900D01*
X107571830Y-92116869D01*
X107508371Y-92159271D01*
X107340396Y-92410664D01*
X107296300Y-92632349D01*
X107296300Y-92632353D01*
X107281412Y-92707200D01*
X107296300Y-92782047D01*
X107296301Y-100344748D01*
X107281412Y-100419600D01*
X107340397Y-100716137D01*
X107461789Y-100897812D01*
X107508372Y-100967529D01*
X107571828Y-101009929D01*
X108018270Y-101456371D01*
X107885161Y-101655582D01*
X107769908Y-102235000D01*
X107885161Y-102814418D01*
X108213375Y-103305625D01*
X108704582Y-103633839D01*
X109137744Y-103720000D01*
X109430256Y-103720000D01*
X109863418Y-103633839D01*
X110354625Y-103305625D01*
X110554000Y-103007239D01*
X110753375Y-103305625D01*
X111244582Y-103633839D01*
X111677744Y-103720000D01*
X111970256Y-103720000D01*
X112403418Y-103633839D01*
X112894625Y-103305625D01*
X113094000Y-103007239D01*
X113293375Y-103305625D01*
X113784582Y-103633839D01*
X114217744Y-103720000D01*
X114510256Y-103720000D01*
X114943418Y-103633839D01*
X115434625Y-103305625D01*
X115634000Y-103007239D01*
X115833375Y-103305625D01*
X116324582Y-103633839D01*
X116757744Y-103720000D01*
X117050256Y-103720000D01*
X117483418Y-103633839D01*
X117974625Y-103305625D01*
X118302839Y-102814418D01*
X118418092Y-102235000D01*
X118302839Y-101655582D01*
X117974625Y-101164375D01*
X117956381Y-101152184D01*
X118001765Y-101143157D01*
X118211809Y-101002809D01*
X118352157Y-100792765D01*
X118401440Y-100545000D01*
X118401440Y-98845000D01*
X118352157Y-98597235D01*
X118211809Y-98387191D01*
X118001765Y-98246843D01*
X117754000Y-98197560D01*
X116054000Y-98197560D01*
X115806235Y-98246843D01*
X115596191Y-98387191D01*
X115455843Y-98597235D01*
X115446816Y-98642619D01*
X115434625Y-98624375D01*
X114943418Y-98296161D01*
X114510256Y-98210000D01*
X114217744Y-98210000D01*
X113784582Y-98296161D01*
X113293375Y-98624375D01*
X113094000Y-98922761D01*
X112894625Y-98624375D01*
X112403418Y-98296161D01*
X111970256Y-98210000D01*
X111677744Y-98210000D01*
X111244582Y-98296161D01*
X110753375Y-98624375D01*
X110554000Y-98922761D01*
X110354625Y-98624375D01*
X109863418Y-98296161D01*
X109430256Y-98210000D01*
X109137744Y-98210000D01*
X108816300Y-98273939D01*
X108816300Y-94551312D01*
X108880959Y-94581914D01*
X109103000Y-94460629D01*
X109103000Y-93317000D01*
X109357000Y-93317000D01*
X109357000Y-94460629D01*
X109579041Y-94581914D01*
X110085134Y-94342389D01*
X110461041Y-93927423D01*
X110621904Y-93539039D01*
X110499915Y-93317000D01*
X109357000Y-93317000D01*
X109103000Y-93317000D01*
X109083000Y-93317000D01*
X109083000Y-93063000D01*
X109103000Y-93063000D01*
X109103000Y-93043000D01*
X109357000Y-93043000D01*
X109357000Y-93063000D01*
X110499915Y-93063000D01*
X110621904Y-92840961D01*
X110461041Y-92452577D01*
X110311264Y-92287237D01*
X110955173Y-91643329D01*
X111018629Y-91600929D01*
X111186604Y-91349537D01*
X111230700Y-91127852D01*
X111230700Y-91127848D01*
X111245588Y-91053001D01*
X111230700Y-90978154D01*
X111230700Y-90592201D01*
X115576259Y-86246643D01*
X115815423Y-86604577D01*
G36*
X159140271Y-98764773D02*
X159182671Y-98828229D01*
X159434063Y-98996204D01*
X159655748Y-99040300D01*
X159655752Y-99040300D01*
X159730600Y-99055188D01*
X159805448Y-99040300D01*
X171454696Y-99040300D01*
X171328096Y-99345961D01*
X171450085Y-99568000D01*
X172593000Y-99568000D01*
X172593000Y-99548000D01*
X172847000Y-99548000D01*
X172847000Y-99568000D01*
X172867000Y-99568000D01*
X172867000Y-99822000D01*
X172847000Y-99822000D01*
X172847000Y-99842000D01*
X172593000Y-99842000D01*
X172593000Y-99822000D01*
X171450085Y-99822000D01*
X171328096Y-100044039D01*
X171339387Y-100071300D01*
X160056402Y-100071300D01*
X159195631Y-99210530D01*
X159153229Y-99147071D01*
X158901837Y-98979096D01*
X158700786Y-98939104D01*
X158514577Y-98660423D01*
X158162242Y-98425000D01*
X158514577Y-98189577D01*
X158534804Y-98159305D01*
X159140271Y-98764773D01*
X159140271Y-98764773D01*
G37*
X159140271Y-98764773D02*
X159182671Y-98828229D01*
X159434063Y-98996204D01*
X159655748Y-99040300D01*
X159655752Y-99040300D01*
X159730600Y-99055188D01*
X159805448Y-99040300D01*
X171454696Y-99040300D01*
X171328096Y-99345961D01*
X171450085Y-99568000D01*
X172593000Y-99568000D01*
X172593000Y-99548000D01*
X172847000Y-99548000D01*
X172847000Y-99568000D01*
X172867000Y-99568000D01*
X172867000Y-99822000D01*
X172847000Y-99822000D01*
X172847000Y-99842000D01*
X172593000Y-99842000D01*
X172593000Y-99822000D01*
X171450085Y-99822000D01*
X171328096Y-100044039D01*
X171339387Y-100071300D01*
X160056402Y-100071300D01*
X159195631Y-99210530D01*
X159153229Y-99147071D01*
X158901837Y-98979096D01*
X158700786Y-98939104D01*
X158514577Y-98660423D01*
X158162242Y-98425000D01*
X158514577Y-98189577D01*
X158534804Y-98159305D01*
X159140271Y-98764773D01*
G36*
X138498096Y-87915961D02*
X138620085Y-88138000D01*
X139763000Y-88138000D01*
X139763000Y-88118000D01*
X140017000Y-88118000D01*
X140017000Y-88138000D01*
X141159915Y-88138000D01*
X141281904Y-87915961D01*
X141275169Y-87899700D01*
X144944599Y-87899700D01*
X145794371Y-88749473D01*
X145836771Y-88812929D01*
X146088163Y-88980904D01*
X146289214Y-89020896D01*
X146475423Y-89299577D01*
X146950091Y-89616740D01*
X147040813Y-89634786D01*
X145467199Y-91208400D01*
X138423748Y-91208400D01*
X138348900Y-91193512D01*
X138274052Y-91208400D01*
X138274048Y-91208400D01*
X138052363Y-91252496D01*
X137800971Y-91420471D01*
X137758571Y-91483927D01*
X135465099Y-93777400D01*
X134432429Y-93777400D01*
X134467000Y-93693939D01*
X134467000Y-93123061D01*
X134248534Y-92595638D01*
X133844862Y-92191966D01*
X133317439Y-91973500D01*
X132746561Y-91973500D01*
X132219138Y-92191966D01*
X131815466Y-92595638D01*
X131788475Y-92660799D01*
X131785864Y-92654495D01*
X131539745Y-92580361D01*
X130711605Y-93408500D01*
X130725748Y-93422643D01*
X130546143Y-93602248D01*
X130532000Y-93588105D01*
X130517858Y-93602248D01*
X130338253Y-93422643D01*
X130352395Y-93408500D01*
X129524255Y-92580361D01*
X129278136Y-92654495D01*
X129085035Y-93191723D01*
X129112222Y-93761954D01*
X129118620Y-93777400D01*
X128965226Y-93777400D01*
X128945429Y-93747771D01*
X128694037Y-93579796D01*
X128472352Y-93535700D01*
X128472347Y-93535700D01*
X128397500Y-93520812D01*
X128322653Y-93535700D01*
X126503901Y-93535700D01*
X127638846Y-92400755D01*
X129703861Y-92400755D01*
X130532000Y-93228895D01*
X131360139Y-92400755D01*
X131286005Y-92154636D01*
X130748777Y-91961535D01*
X130178546Y-91988722D01*
X129777995Y-92154636D01*
X129703861Y-92400755D01*
X127638846Y-92400755D01*
X130951102Y-89088500D01*
X131559957Y-89088500D01*
X131743423Y-89363077D01*
X132218091Y-89680240D01*
X132636667Y-89763500D01*
X132919333Y-89763500D01*
X133337909Y-89680240D01*
X133812577Y-89363077D01*
X134129740Y-88888409D01*
X134184315Y-88614039D01*
X138498096Y-88614039D01*
X138658959Y-89002423D01*
X139034866Y-89417389D01*
X139540959Y-89656914D01*
X139763000Y-89535629D01*
X139763000Y-88392000D01*
X140017000Y-88392000D01*
X140017000Y-89535629D01*
X140239041Y-89656914D01*
X140745134Y-89417389D01*
X141121041Y-89002423D01*
X141281904Y-88614039D01*
X141159915Y-88392000D01*
X140017000Y-88392000D01*
X139763000Y-88392000D01*
X138620085Y-88392000D01*
X138498096Y-88614039D01*
X134184315Y-88614039D01*
X134241113Y-88328500D01*
X134155819Y-87899700D01*
X138504831Y-87899700D01*
X138498096Y-87915961D01*
X138498096Y-87915961D01*
G37*
X138498096Y-87915961D02*
X138620085Y-88138000D01*
X139763000Y-88138000D01*
X139763000Y-88118000D01*
X140017000Y-88118000D01*
X140017000Y-88138000D01*
X141159915Y-88138000D01*
X141281904Y-87915961D01*
X141275169Y-87899700D01*
X144944599Y-87899700D01*
X145794371Y-88749473D01*
X145836771Y-88812929D01*
X146088163Y-88980904D01*
X146289214Y-89020896D01*
X146475423Y-89299577D01*
X146950091Y-89616740D01*
X147040813Y-89634786D01*
X145467199Y-91208400D01*
X138423748Y-91208400D01*
X138348900Y-91193512D01*
X138274052Y-91208400D01*
X138274048Y-91208400D01*
X138052363Y-91252496D01*
X137800971Y-91420471D01*
X137758571Y-91483927D01*
X135465099Y-93777400D01*
X134432429Y-93777400D01*
X134467000Y-93693939D01*
X134467000Y-93123061D01*
X134248534Y-92595638D01*
X133844862Y-92191966D01*
X133317439Y-91973500D01*
X132746561Y-91973500D01*
X132219138Y-92191966D01*
X131815466Y-92595638D01*
X131788475Y-92660799D01*
X131785864Y-92654495D01*
X131539745Y-92580361D01*
X130711605Y-93408500D01*
X130725748Y-93422643D01*
X130546143Y-93602248D01*
X130532000Y-93588105D01*
X130517858Y-93602248D01*
X130338253Y-93422643D01*
X130352395Y-93408500D01*
X129524255Y-92580361D01*
X129278136Y-92654495D01*
X129085035Y-93191723D01*
X129112222Y-93761954D01*
X129118620Y-93777400D01*
X128965226Y-93777400D01*
X128945429Y-93747771D01*
X128694037Y-93579796D01*
X128472352Y-93535700D01*
X128472347Y-93535700D01*
X128397500Y-93520812D01*
X128322653Y-93535700D01*
X126503901Y-93535700D01*
X127638846Y-92400755D01*
X129703861Y-92400755D01*
X130532000Y-93228895D01*
X131360139Y-92400755D01*
X131286005Y-92154636D01*
X130748777Y-91961535D01*
X130178546Y-91988722D01*
X129777995Y-92154636D01*
X129703861Y-92400755D01*
X127638846Y-92400755D01*
X130951102Y-89088500D01*
X131559957Y-89088500D01*
X131743423Y-89363077D01*
X132218091Y-89680240D01*
X132636667Y-89763500D01*
X132919333Y-89763500D01*
X133337909Y-89680240D01*
X133812577Y-89363077D01*
X134129740Y-88888409D01*
X134184315Y-88614039D01*
X138498096Y-88614039D01*
X138658959Y-89002423D01*
X139034866Y-89417389D01*
X139540959Y-89656914D01*
X139763000Y-89535629D01*
X139763000Y-88392000D01*
X140017000Y-88392000D01*
X140017000Y-89535629D01*
X140239041Y-89656914D01*
X140745134Y-89417389D01*
X141121041Y-89002423D01*
X141281904Y-88614039D01*
X141159915Y-88392000D01*
X140017000Y-88392000D01*
X139763000Y-88392000D01*
X138620085Y-88392000D01*
X138498096Y-88614039D01*
X134184315Y-88614039D01*
X134241113Y-88328500D01*
X134155819Y-87899700D01*
X138504831Y-87899700D01*
X138498096Y-87915961D01*
G36*
X145521748Y-93267358D02*
X145507605Y-93281500D01*
X145521748Y-93295642D01*
X145342142Y-93475248D01*
X145328000Y-93461105D01*
X145313858Y-93475248D01*
X145134252Y-93295642D01*
X145148395Y-93281500D01*
X145134252Y-93267358D01*
X145313858Y-93087753D01*
X145328000Y-93101895D01*
X145342143Y-93087753D01*
X145521748Y-93267358D01*
X145521748Y-93267358D01*
G37*
X145521748Y-93267358D02*
X145507605Y-93281500D01*
X145521748Y-93295642D01*
X145342142Y-93475248D01*
X145328000Y-93461105D01*
X145313858Y-93475248D01*
X145134252Y-93295642D01*
X145148395Y-93281500D01*
X145134252Y-93267358D01*
X145313858Y-93087753D01*
X145328000Y-93101895D01*
X145342143Y-93087753D01*
X145521748Y-93267358D01*
G04 #@! TD*
M02*
