G04 #@! TF.GenerationSoftware,KiCad,Pcbnew,(5.1.4-0-10_14)*
G04 #@! TF.CreationDate,2021-03-25T21:32:33+09:00*
G04 #@! TF.ProjectId,Z80-1MSRAM,5a38302d-314d-4535-9241-4d2e6b696361,rev?*
G04 #@! TF.SameCoordinates,Original*
G04 #@! TF.FileFunction,Copper,L1,Top*
G04 #@! TF.FilePolarity,Positive*
%FSLAX46Y46*%
G04 Gerber Fmt 4.6, Leading zero omitted, Abs format (unit mm)*
G04 Created by KiCad (PCBNEW (5.1.4-0-10_14)) date 2021-03-25 21:32:33*
%MOMM*%
%LPD*%
G04 APERTURE LIST*
%ADD10O,1.700000X1.700000*%
%ADD11R,1.700000X1.700000*%
%ADD12C,1.600000*%
%ADD13C,1.500000*%
%ADD14R,1.500000X1.500000*%
%ADD15O,1.600000X1.600000*%
%ADD16R,1.800000X1.800000*%
%ADD17C,1.800000*%
%ADD18R,1.600000X1.600000*%
%ADD19R,1.727200X1.727200*%
%ADD20O,1.727200X1.727200*%
%ADD21R,2.000000X2.000000*%
%ADD22C,2.000000*%
%ADD23C,0.800000*%
%ADD24C,0.250000*%
%ADD25C,0.600000*%
%ADD26C,0.254000*%
G04 APERTURE END LIST*
D10*
X192500000Y-79080000D03*
X192500000Y-76540000D03*
D11*
X192500000Y-74000000D03*
D10*
X196000000Y-79080000D03*
X196000000Y-76540000D03*
D11*
X196000000Y-74000000D03*
D10*
X196500000Y-102000000D03*
X196500000Y-99460000D03*
X196500000Y-96920000D03*
X196500000Y-94380000D03*
D11*
X196500000Y-91840000D03*
X105120000Y-87860000D03*
D10*
X105120000Y-90400000D03*
X105120000Y-92940000D03*
D12*
X122761000Y-126220000D03*
X122761000Y-128720000D03*
D11*
X110387000Y-114590000D03*
D10*
X112927000Y-114590000D03*
X115467000Y-114590000D03*
D13*
X128700000Y-127910000D03*
X131240000Y-127910000D03*
D14*
X126160000Y-127910000D03*
D15*
X172558000Y-81776000D03*
D12*
X182718000Y-81776000D03*
X182718000Y-84824000D03*
D15*
X172558000Y-84824000D03*
X118420000Y-132420000D03*
D12*
X118420000Y-122260000D03*
X135640000Y-127690000D03*
D15*
X145800000Y-127690000D03*
D11*
X116964000Y-106305000D03*
D10*
X116964000Y-108845000D03*
X114424000Y-106305000D03*
X114424000Y-108845000D03*
X111884000Y-106305000D03*
X111884000Y-108845000D03*
X109344000Y-106305000D03*
X109344000Y-108845000D03*
D16*
X186410000Y-74470000D03*
D17*
X186410000Y-77010000D03*
D18*
X137534000Y-105490000D03*
D15*
X145154000Y-120730000D03*
X137534000Y-108030000D03*
X145154000Y-118190000D03*
X137534000Y-110570000D03*
X145154000Y-115650000D03*
X137534000Y-113110000D03*
X145154000Y-113110000D03*
X137534000Y-115650000D03*
X145154000Y-110570000D03*
X137534000Y-118190000D03*
X145154000Y-108030000D03*
X137534000Y-120730000D03*
X145154000Y-105490000D03*
D12*
X182690000Y-87900000D03*
D15*
X172530000Y-87900000D03*
D18*
X174340000Y-93875000D03*
D15*
X189580000Y-126895000D03*
X174340000Y-96415000D03*
X189580000Y-124355000D03*
X174340000Y-98955000D03*
X189580000Y-121815000D03*
X174340000Y-101495000D03*
X189580000Y-119275000D03*
X174340000Y-104035000D03*
X189580000Y-116735000D03*
X174340000Y-106575000D03*
X189580000Y-114195000D03*
X174340000Y-109115000D03*
X189580000Y-111655000D03*
X174340000Y-111655000D03*
X189580000Y-109115000D03*
X174340000Y-114195000D03*
X189580000Y-106575000D03*
X174340000Y-116735000D03*
X189580000Y-104035000D03*
X174340000Y-119275000D03*
X189580000Y-101495000D03*
X174340000Y-121815000D03*
X189580000Y-98955000D03*
X174340000Y-124355000D03*
X189580000Y-96415000D03*
X174340000Y-126895000D03*
X189580000Y-93875000D03*
D19*
X125000000Y-69500000D03*
D20*
X125000000Y-66960000D03*
X127540000Y-69500000D03*
X127540000Y-66960000D03*
X130080000Y-69500000D03*
X130080000Y-66960000D03*
X132620000Y-69500000D03*
X132620000Y-66960000D03*
X135160000Y-69500000D03*
X135160000Y-66960000D03*
X137700000Y-69500000D03*
X137700000Y-66960000D03*
X140240000Y-69500000D03*
X140240000Y-66960000D03*
X142780000Y-69500000D03*
X142780000Y-66960000D03*
X145320000Y-69500000D03*
X145320000Y-66960000D03*
X147860000Y-69500000D03*
X147860000Y-66960000D03*
X150400000Y-69500000D03*
X150400000Y-66960000D03*
X152940000Y-69500000D03*
X152940000Y-66960000D03*
X155480000Y-69500000D03*
X155480000Y-66960000D03*
X158020000Y-69500000D03*
X158020000Y-66960000D03*
X160560000Y-69500000D03*
X160560000Y-66960000D03*
X163100000Y-69500000D03*
X163100000Y-66960000D03*
X165640000Y-69500000D03*
X165640000Y-66960000D03*
X168180000Y-69500000D03*
X168180000Y-66960000D03*
X170720000Y-69500000D03*
X170720000Y-66960000D03*
X173260000Y-69500000D03*
X173260000Y-66960000D03*
D21*
X173910000Y-74442000D03*
D22*
X173910000Y-76982000D03*
D21*
X180360000Y-74522000D03*
D22*
X180360000Y-77062000D03*
D18*
X137660000Y-81805000D03*
D15*
X145280000Y-97045000D03*
X137660000Y-84345000D03*
X145280000Y-94505000D03*
X137660000Y-86885000D03*
X145280000Y-91965000D03*
X137660000Y-89425000D03*
X145280000Y-89425000D03*
X137660000Y-91965000D03*
X145280000Y-86885000D03*
X137660000Y-94505000D03*
X145280000Y-84345000D03*
X137660000Y-97045000D03*
X145280000Y-81805000D03*
D18*
X109290000Y-82020000D03*
D15*
X116910000Y-99800000D03*
X109290000Y-84560000D03*
X116910000Y-97260000D03*
X109290000Y-87100000D03*
X116910000Y-94720000D03*
X109290000Y-89640000D03*
X116910000Y-92180000D03*
X109290000Y-92180000D03*
X116910000Y-89640000D03*
X109290000Y-94720000D03*
X116910000Y-87100000D03*
X109290000Y-97260000D03*
X116910000Y-84560000D03*
X109290000Y-99800000D03*
X116910000Y-82020000D03*
D18*
X122928000Y-81868500D03*
D15*
X130548000Y-97108500D03*
X122928000Y-84408500D03*
X130548000Y-94568500D03*
X122928000Y-86948500D03*
X130548000Y-92028500D03*
X122928000Y-89488500D03*
X130548000Y-89488500D03*
X122928000Y-92028500D03*
X130548000Y-86948500D03*
X122928000Y-94568500D03*
X130548000Y-84408500D03*
X122928000Y-97108500D03*
X130548000Y-81868500D03*
D18*
X122674000Y-105618000D03*
D15*
X130294000Y-120858000D03*
X122674000Y-108158000D03*
X130294000Y-118318000D03*
X122674000Y-110698000D03*
X130294000Y-115778000D03*
X122674000Y-113238000D03*
X130294000Y-113238000D03*
X122674000Y-115778000D03*
X130294000Y-110698000D03*
X122674000Y-118318000D03*
X130294000Y-108158000D03*
X122674000Y-120858000D03*
X130294000Y-105618000D03*
D18*
X151480000Y-88795000D03*
D15*
X166720000Y-126895000D03*
X151480000Y-91335000D03*
X166720000Y-124355000D03*
X151480000Y-93875000D03*
X166720000Y-121815000D03*
X151480000Y-96415000D03*
X166720000Y-119275000D03*
X151480000Y-98955000D03*
X166720000Y-116735000D03*
X151480000Y-101495000D03*
X166720000Y-114195000D03*
X151480000Y-104035000D03*
X166720000Y-111655000D03*
X151480000Y-106575000D03*
X166720000Y-109115000D03*
X151480000Y-109115000D03*
X166720000Y-106575000D03*
X151480000Y-111655000D03*
X166720000Y-104035000D03*
X151480000Y-114195000D03*
X166720000Y-101495000D03*
X151480000Y-116735000D03*
X166720000Y-98955000D03*
X151480000Y-119275000D03*
X166720000Y-96415000D03*
X151480000Y-121815000D03*
X166720000Y-93875000D03*
X151480000Y-124355000D03*
X166720000Y-91335000D03*
X151480000Y-126895000D03*
X166720000Y-88795000D03*
D12*
X145690000Y-78270000D03*
X143190000Y-78270000D03*
X145598000Y-102062000D03*
X143098000Y-102062000D03*
X117450000Y-78610000D03*
X114950000Y-78610000D03*
X130866000Y-78058500D03*
X128366000Y-78058500D03*
X130880000Y-102050000D03*
X128380000Y-102050000D03*
X167230000Y-85200000D03*
X164730000Y-85200000D03*
X190060000Y-90250000D03*
X187560000Y-90250000D03*
D18*
X113000000Y-66500000D03*
D12*
X115500000Y-66500000D03*
D23*
X134946500Y-77349900D03*
X134942600Y-78526000D03*
X179500000Y-88000000D03*
X178500000Y-69500000D03*
X192000000Y-106500000D03*
X141570000Y-81555600D03*
X149835200Y-112668800D03*
X162642100Y-101495000D03*
X172037400Y-97471200D03*
X136332900Y-100210200D03*
X158520400Y-73725800D03*
X150147500Y-79477500D03*
X170948400Y-93875000D03*
D24*
X173910000Y-74442000D02*
X172584700Y-74442000D01*
X134946500Y-77349900D02*
X136124100Y-76172300D01*
X136124100Y-76172300D02*
X170854400Y-76172300D01*
X170854400Y-76172300D02*
X172584700Y-74442000D01*
X134942600Y-78526000D02*
X136324000Y-77144600D01*
X136324000Y-77144600D02*
X148840500Y-77144600D01*
X148840500Y-77144600D02*
X150073600Y-78377700D01*
X150073600Y-78377700D02*
X175179000Y-78377700D01*
X175179000Y-78377700D02*
X179034700Y-74522000D01*
X180360000Y-74522000D02*
X179034700Y-74522000D01*
D25*
X116910000Y-82020000D02*
X116910000Y-80719700D01*
X116910000Y-80719700D02*
X117450000Y-80179700D01*
X117450000Y-80179700D02*
X117450000Y-78610000D01*
X143979700Y-81805000D02*
X142679400Y-80504700D01*
X142679400Y-80504700D02*
X133212100Y-80504700D01*
X133212100Y-80504700D02*
X131848300Y-81868500D01*
X145280000Y-81805000D02*
X143979700Y-81805000D01*
X130548000Y-81868500D02*
X131848300Y-81868500D01*
X166720000Y-88795000D02*
X165419700Y-88795000D01*
X145280000Y-81805000D02*
X146580300Y-81805000D01*
X146580300Y-81805000D02*
X158429700Y-81805000D01*
X158429700Y-81805000D02*
X165419700Y-88795000D01*
X167230000Y-85200000D02*
X168939500Y-83490500D01*
X168939500Y-83490500D02*
X181384500Y-83490500D01*
X138834300Y-105490000D02*
X145154000Y-105490000D01*
X189580000Y-93875000D02*
X188279700Y-93875000D01*
X188279700Y-93875000D02*
X188279700Y-93489700D01*
X188279700Y-93489700D02*
X182690000Y-87900000D01*
X181384500Y-83490500D02*
X182718000Y-84824000D01*
X181384500Y-83490500D02*
X181384500Y-83109500D01*
X181384500Y-83109500D02*
X182718000Y-81776000D01*
X130294000Y-105618000D02*
X131594300Y-105618000D01*
X136233700Y-105490000D02*
X131722300Y-105490000D01*
X131722300Y-105490000D02*
X131594300Y-105618000D01*
X137534000Y-105490000D02*
X138834300Y-105490000D01*
X113000000Y-66500000D02*
X116000000Y-69500000D01*
X116000000Y-69500000D02*
X125000000Y-69500000D01*
X127540000Y-69500000D02*
X125000000Y-69500000D01*
X137534000Y-105490000D02*
X136233700Y-105490000D01*
X128366000Y-78058500D02*
X129733900Y-79426400D01*
X129733900Y-79426400D02*
X142033600Y-79426400D01*
X142033600Y-79426400D02*
X143190000Y-78270000D01*
X128380000Y-102050000D02*
X133385000Y-97045000D01*
X133385000Y-97045000D02*
X137660000Y-97045000D01*
X143190000Y-78270000D02*
X145297800Y-80377800D01*
X145297800Y-80377800D02*
X159907800Y-80377800D01*
X159907800Y-80377800D02*
X164730000Y-85200000D01*
X164730000Y-85200000D02*
X166070100Y-86540100D01*
X166070100Y-86540100D02*
X183850100Y-86540100D01*
X183850100Y-86540100D02*
X187560000Y-90250000D01*
X137534000Y-120730000D02*
X138834300Y-120730000D01*
X138834300Y-120730000D02*
X140134600Y-122030300D01*
X140134600Y-122030300D02*
X145315000Y-122030300D01*
X145315000Y-122030300D02*
X150179700Y-126895000D01*
X136900500Y-120730000D02*
X137534000Y-120730000D01*
X151480000Y-126895000D02*
X150179700Y-126895000D01*
X136900500Y-120730000D02*
X136233700Y-120730000D01*
X122674000Y-120858000D02*
X123974300Y-120858000D01*
X136233700Y-120730000D02*
X134805400Y-122158300D01*
X134805400Y-122158300D02*
X125274600Y-122158300D01*
X125274600Y-122158300D02*
X123974300Y-120858000D01*
X127540000Y-66960000D02*
X125000000Y-66960000D01*
D24*
X151480000Y-119275000D02*
X150354700Y-119275000D01*
X150354700Y-119275000D02*
X150354700Y-119134300D01*
X150354700Y-119134300D02*
X145600400Y-114380000D01*
X145600400Y-114380000D02*
X137166600Y-114380000D01*
X137166600Y-114380000D02*
X135954200Y-113167600D01*
X135954200Y-113167600D02*
X135954200Y-109609800D01*
X135954200Y-109609800D02*
X137534000Y-108030000D01*
X152042700Y-119275000D02*
X151480000Y-119275000D01*
X152042700Y-119275000D02*
X152605300Y-119275000D01*
X174340000Y-119275000D02*
X173214700Y-119275000D01*
X152605300Y-119275000D02*
X153730600Y-120400300D01*
X153730600Y-120400300D02*
X172089400Y-120400300D01*
X172089400Y-120400300D02*
X173214700Y-119275000D01*
X174340000Y-121815000D02*
X173214700Y-121815000D01*
X151480000Y-121815000D02*
X152605300Y-121815000D01*
X152605300Y-121815000D02*
X153730600Y-122940300D01*
X153730600Y-122940300D02*
X172089400Y-122940300D01*
X172089400Y-122940300D02*
X173214700Y-121815000D01*
X151480000Y-124355000D02*
X152605300Y-124355000D01*
X152605300Y-124355000D02*
X153741600Y-125491300D01*
X153741600Y-125491300D02*
X171305300Y-125491300D01*
X171305300Y-125491300D02*
X172441600Y-124355000D01*
X172441600Y-124355000D02*
X174340000Y-124355000D01*
X189580000Y-125769700D02*
X189861300Y-125769700D01*
X189861300Y-125769700D02*
X194915400Y-120715600D01*
X194915400Y-120715600D02*
X194915400Y-94279500D01*
X194915400Y-94279500D02*
X196067800Y-93127100D01*
X196067800Y-93127100D02*
X197379800Y-93127100D01*
X197379800Y-93127100D02*
X197682500Y-92824400D01*
X197682500Y-92824400D02*
X197682500Y-83163800D01*
X197682500Y-83163800D02*
X194824600Y-80305900D01*
X194824600Y-80305900D02*
X194824600Y-74163500D01*
X194824600Y-74163500D02*
X185531600Y-64870500D01*
X185531600Y-64870500D02*
X140606800Y-64870500D01*
X140606800Y-64870500D02*
X138888900Y-66588400D01*
X138888900Y-66588400D02*
X138888900Y-66960000D01*
X166720000Y-126895000D02*
X171804700Y-126895000D01*
X171804700Y-126895000D02*
X172930000Y-125769700D01*
X172930000Y-125769700D02*
X189580000Y-125769700D01*
X137700000Y-66960000D02*
X138888900Y-66960000D01*
X189580000Y-126895000D02*
X189580000Y-125769700D01*
X189580000Y-124355000D02*
X188454700Y-124355000D01*
X166720000Y-124355000D02*
X171804700Y-124355000D01*
X171804700Y-124355000D02*
X172930000Y-123229700D01*
X172930000Y-123229700D02*
X187329400Y-123229700D01*
X187329400Y-123229700D02*
X188454700Y-124355000D01*
X189580000Y-121815000D02*
X188454700Y-121815000D01*
X166720000Y-121815000D02*
X171804700Y-121815000D01*
X171804700Y-121815000D02*
X172930000Y-120689700D01*
X172930000Y-120689700D02*
X187329400Y-120689700D01*
X187329400Y-120689700D02*
X188454700Y-121815000D01*
X188454700Y-119275000D02*
X187329400Y-118149700D01*
X187329400Y-118149700D02*
X172930000Y-118149700D01*
X172930000Y-118149700D02*
X171804700Y-119275000D01*
X171804700Y-119275000D02*
X166720000Y-119275000D01*
X189580000Y-119275000D02*
X188454700Y-119275000D01*
X189580000Y-116735000D02*
X188454700Y-116735000D01*
X166720000Y-116735000D02*
X171804700Y-116735000D01*
X171804700Y-116735000D02*
X172930000Y-115609700D01*
X172930000Y-115609700D02*
X187329400Y-115609700D01*
X187329400Y-115609700D02*
X188454700Y-116735000D01*
X189580000Y-109115000D02*
X188454700Y-109115000D01*
X166720000Y-109115000D02*
X167845300Y-109115000D01*
X167845300Y-109115000D02*
X168970600Y-110240300D01*
X168970600Y-110240300D02*
X187329400Y-110240300D01*
X187329400Y-110240300D02*
X188454700Y-109115000D01*
X137660000Y-84345000D02*
X138785300Y-84345000D01*
X138785300Y-84345000D02*
X138785300Y-84340300D01*
X138785300Y-84340300D02*
X141570000Y-81555600D01*
X151480000Y-116735000D02*
X152605300Y-116735000D01*
X174340000Y-116735000D02*
X173214700Y-116735000D01*
X173214700Y-116735000D02*
X172089400Y-117860300D01*
X172089400Y-117860300D02*
X153730600Y-117860300D01*
X153730600Y-117860300D02*
X152605300Y-116735000D01*
X151480000Y-116735000D02*
X151480000Y-115609700D01*
X151480000Y-115609700D02*
X151198700Y-115609700D01*
X151198700Y-115609700D02*
X149835200Y-114246200D01*
X149835200Y-114246200D02*
X149835200Y-112668800D01*
X174340000Y-114195000D02*
X173214700Y-114195000D01*
X151480000Y-114195000D02*
X152605300Y-114195000D01*
X152605300Y-114195000D02*
X153730600Y-115320300D01*
X153730600Y-115320300D02*
X172089400Y-115320300D01*
X172089400Y-115320300D02*
X173214700Y-114195000D01*
X174340000Y-111655000D02*
X173214700Y-111655000D01*
X151480000Y-111655000D02*
X152605300Y-111655000D01*
X152605300Y-111655000D02*
X153730600Y-112780300D01*
X153730600Y-112780300D02*
X172089400Y-112780300D01*
X172089400Y-112780300D02*
X173214700Y-111655000D01*
X151480000Y-106575000D02*
X152605300Y-106575000D01*
X152605300Y-106575000D02*
X153738500Y-105441800D01*
X153738500Y-105441800D02*
X167349000Y-105441800D01*
X167349000Y-105441800D02*
X168482200Y-106575000D01*
X168482200Y-106575000D02*
X174340000Y-106575000D01*
X110415300Y-84560000D02*
X111540600Y-83434700D01*
X111540600Y-83434700D02*
X118061000Y-83434700D01*
X118061000Y-83434700D02*
X129392900Y-72102800D01*
X129392900Y-72102800D02*
X144427000Y-72102800D01*
X144427000Y-72102800D02*
X146590000Y-69939800D01*
X146590000Y-69939800D02*
X146590000Y-69066700D01*
X146590000Y-69066700D02*
X147507800Y-68148900D01*
X147507800Y-68148900D02*
X158553800Y-68148900D01*
X158553800Y-68148900D02*
X159371100Y-67331600D01*
X159371100Y-67331600D02*
X159371100Y-66960000D01*
X109290000Y-84560000D02*
X110415300Y-84560000D01*
X160560000Y-66960000D02*
X159371100Y-66960000D01*
X151480000Y-104035000D02*
X152605300Y-104035000D01*
X152605300Y-104035000D02*
X153738500Y-102901800D01*
X153738500Y-102901800D02*
X167349000Y-102901800D01*
X167349000Y-102901800D02*
X168482200Y-104035000D01*
X168482200Y-104035000D02*
X174340000Y-104035000D01*
X109290000Y-85974700D02*
X109008600Y-85974700D01*
X109008600Y-85974700D02*
X108164700Y-85130800D01*
X108164700Y-85130800D02*
X108164700Y-81049800D01*
X108164700Y-81049800D02*
X117562000Y-71652500D01*
X117562000Y-71652500D02*
X142337300Y-71652500D01*
X142337300Y-71652500D02*
X144050000Y-69939800D01*
X144050000Y-69939800D02*
X144050000Y-69066700D01*
X144050000Y-69066700D02*
X144805700Y-68311000D01*
X144805700Y-68311000D02*
X145734400Y-68311000D01*
X145734400Y-68311000D02*
X146567000Y-67478400D01*
X146567000Y-67478400D02*
X146567000Y-66570500D01*
X146567000Y-66570500D02*
X147366400Y-65771100D01*
X147366400Y-65771100D02*
X161061600Y-65771100D01*
X161061600Y-65771100D02*
X161830000Y-66539500D01*
X161830000Y-66539500D02*
X161830000Y-68230000D01*
X161830000Y-68230000D02*
X163100000Y-69500000D01*
X109290000Y-87100000D02*
X109290000Y-85974700D01*
X151480000Y-101495000D02*
X162642100Y-101495000D01*
X189580000Y-101495000D02*
X188454700Y-101495000D01*
X166720000Y-101495000D02*
X167845300Y-101495000D01*
X167845300Y-101495000D02*
X168970600Y-102620300D01*
X168970600Y-102620300D02*
X187329400Y-102620300D01*
X187329400Y-102620300D02*
X188454700Y-101495000D01*
X189580000Y-104035000D02*
X188454700Y-104035000D01*
X166720000Y-104035000D02*
X167845300Y-104035000D01*
X167845300Y-104035000D02*
X168970600Y-105160300D01*
X168970600Y-105160300D02*
X187329400Y-105160300D01*
X187329400Y-105160300D02*
X188454700Y-104035000D01*
X189580000Y-106575000D02*
X188454700Y-106575000D01*
X166720000Y-106575000D02*
X167845300Y-106575000D01*
X167845300Y-106575000D02*
X168970600Y-107700300D01*
X168970600Y-107700300D02*
X187329400Y-107700300D01*
X187329400Y-107700300D02*
X188454700Y-106575000D01*
X173214700Y-96415000D02*
X168809700Y-96415000D01*
X168809700Y-96415000D02*
X167673400Y-97551300D01*
X167673400Y-97551300D02*
X153741600Y-97551300D01*
X153741600Y-97551300D02*
X152605300Y-96415000D01*
X174340000Y-96415000D02*
X173214700Y-96415000D01*
X151480000Y-96415000D02*
X152605300Y-96415000D01*
X172037400Y-97829700D02*
X187329400Y-97829700D01*
X187329400Y-97829700D02*
X188454700Y-98955000D01*
X166720000Y-98955000D02*
X170912100Y-98955000D01*
X170912100Y-98955000D02*
X172037400Y-97829700D01*
X172037400Y-97829700D02*
X172037400Y-97471200D01*
X189580000Y-98955000D02*
X188454700Y-98955000D01*
X150354700Y-93875000D02*
X144842100Y-99387600D01*
X144842100Y-99387600D02*
X135295600Y-99387600D01*
X135295600Y-99387600D02*
X131485800Y-103197400D01*
X131485800Y-103197400D02*
X118556900Y-103197400D01*
X118556900Y-103197400D02*
X111349500Y-95990000D01*
X111349500Y-95990000D02*
X108904600Y-95990000D01*
X108904600Y-95990000D02*
X106295300Y-93380700D01*
X106295300Y-93380700D02*
X106295300Y-92940000D01*
X151480000Y-93875000D02*
X150354700Y-93875000D01*
X105120000Y-92940000D02*
X106295300Y-92940000D01*
X151666500Y-93875000D02*
X151480000Y-93875000D01*
X151666500Y-93875000D02*
X152605300Y-93875000D01*
X174340000Y-93875000D02*
X173214700Y-93875000D01*
X152605300Y-93875000D02*
X156285800Y-90194500D01*
X156285800Y-90194500D02*
X169534200Y-90194500D01*
X169534200Y-90194500D02*
X173214700Y-93875000D01*
X173260000Y-66960000D02*
X172071100Y-66960000D01*
X116910000Y-89640000D02*
X115784700Y-89640000D01*
X115784700Y-89640000D02*
X112118000Y-93306700D01*
X112118000Y-93306700D02*
X107386900Y-93306700D01*
X107386900Y-93306700D02*
X105750200Y-91670000D01*
X105750200Y-91670000D02*
X104680900Y-91670000D01*
X104680900Y-91670000D02*
X103944300Y-90933400D01*
X103944300Y-90933400D02*
X103944300Y-84633300D01*
X103944300Y-84633300D02*
X117431700Y-71145900D01*
X117431700Y-71145900D02*
X140275600Y-71145900D01*
X140275600Y-71145900D02*
X141510000Y-69911500D01*
X141510000Y-69911500D02*
X141510000Y-66539400D01*
X141510000Y-66539400D02*
X142728600Y-65320800D01*
X142728600Y-65320800D02*
X170803400Y-65320800D01*
X170803400Y-65320800D02*
X172071100Y-66588500D01*
X172071100Y-66588500D02*
X172071100Y-66960000D01*
X130294000Y-108158000D02*
X122674000Y-108158000D01*
X137534000Y-110570000D02*
X138659300Y-110570000D01*
X145154000Y-113110000D02*
X141199300Y-113110000D01*
X141199300Y-113110000D02*
X138659300Y-110570000D01*
X145154000Y-118190000D02*
X144028700Y-118190000D01*
X130294000Y-110698000D02*
X131419300Y-110698000D01*
X131419300Y-110698000D02*
X131419300Y-111260700D01*
X131419300Y-111260700D02*
X137223300Y-117064700D01*
X137223300Y-117064700D02*
X142903400Y-117064700D01*
X142903400Y-117064700D02*
X144028700Y-118190000D01*
X122928000Y-82993800D02*
X122646600Y-82993800D01*
X122646600Y-82993800D02*
X121320500Y-84319900D01*
X121320500Y-84319900D02*
X121320500Y-92015600D01*
X121320500Y-92015600D02*
X122748100Y-93443200D01*
X122748100Y-93443200D02*
X128297400Y-93443200D01*
X128297400Y-93443200D02*
X129422700Y-94568500D01*
X122928000Y-81868500D02*
X122928000Y-82993800D01*
X130548000Y-94568500D02*
X129422700Y-94568500D01*
X131110700Y-94568500D02*
X130548000Y-94568500D01*
X131110700Y-94568500D02*
X131673300Y-94568500D01*
X137660000Y-94505000D02*
X136534700Y-94505000D01*
X131673300Y-94568500D02*
X136471200Y-94568500D01*
X136471200Y-94568500D02*
X136534700Y-94505000D01*
X136534700Y-91965000D02*
X134058200Y-89488500D01*
X134058200Y-89488500D02*
X131673300Y-89488500D01*
X130548000Y-89488500D02*
X131673300Y-89488500D01*
X137660000Y-91965000D02*
X136534700Y-91965000D01*
X122928000Y-89488500D02*
X124053300Y-89488500D01*
X151480000Y-91335000D02*
X150354700Y-91335000D01*
X150354700Y-91335000D02*
X146058600Y-95631100D01*
X146058600Y-95631100D02*
X144354500Y-95631100D01*
X144354500Y-95631100D02*
X142103000Y-93379600D01*
X142103000Y-93379600D02*
X135626900Y-93379600D01*
X135626900Y-93379600D02*
X132861100Y-90613800D01*
X132861100Y-90613800D02*
X125178600Y-90613800D01*
X125178600Y-90613800D02*
X124053300Y-89488500D01*
X122674000Y-118318000D02*
X122674000Y-117192700D01*
X166720000Y-91335000D02*
X165594700Y-91335000D01*
X165594700Y-91335000D02*
X161784700Y-95145000D01*
X161784700Y-95145000D02*
X150354600Y-95145000D01*
X150354600Y-95145000D02*
X144564000Y-100935600D01*
X144564000Y-100935600D02*
X139969600Y-100935600D01*
X139969600Y-100935600D02*
X136637000Y-104268200D01*
X136637000Y-104268200D02*
X128240100Y-104268200D01*
X128240100Y-104268200D02*
X125764900Y-106743400D01*
X125764900Y-106743400D02*
X122497000Y-106743400D01*
X122497000Y-106743400D02*
X121548700Y-107691700D01*
X121548700Y-107691700D02*
X121548700Y-116348800D01*
X121548700Y-116348800D02*
X122392600Y-117192700D01*
X122392600Y-117192700D02*
X122674000Y-117192700D01*
X150400000Y-69500000D02*
X149211100Y-69500000D01*
X122928000Y-92028500D02*
X122928000Y-90903200D01*
X122928000Y-90903200D02*
X122688400Y-90903200D01*
X122688400Y-90903200D02*
X121770800Y-89985600D01*
X121770800Y-89985600D02*
X121770800Y-89024100D01*
X121770800Y-89024100D02*
X122576400Y-88218500D01*
X122576400Y-88218500D02*
X123308500Y-88218500D01*
X123308500Y-88218500D02*
X125624200Y-85902800D01*
X125624200Y-85902800D02*
X125624200Y-78506500D01*
X125624200Y-78506500D02*
X130685700Y-73445000D01*
X130685700Y-73445000D02*
X145637600Y-73445000D01*
X145637600Y-73445000D02*
X149211100Y-69871500D01*
X149211100Y-69871500D02*
X149211100Y-69500000D01*
X137534000Y-113110000D02*
X137534000Y-111984700D01*
X145154000Y-108030000D02*
X144028700Y-108030000D01*
X144028700Y-108030000D02*
X142903400Y-109155300D01*
X142903400Y-109155300D02*
X137335300Y-109155300D01*
X137335300Y-109155300D02*
X136408700Y-110081900D01*
X136408700Y-110081900D02*
X136408700Y-111140800D01*
X136408700Y-111140800D02*
X137252600Y-111984700D01*
X137252600Y-111984700D02*
X137534000Y-111984700D01*
X185184700Y-74470000D02*
X183831300Y-73116600D01*
X183831300Y-73116600D02*
X164291600Y-73116600D01*
X164291600Y-73116600D02*
X161889500Y-75518700D01*
X161889500Y-75518700D02*
X129285300Y-75518700D01*
X129285300Y-75518700D02*
X127221300Y-77582700D01*
X127221300Y-77582700D02*
X127221300Y-82777800D01*
X127221300Y-82777800D02*
X130266700Y-85823200D01*
X130266700Y-85823200D02*
X130548000Y-85823200D01*
X186410000Y-74470000D02*
X185184700Y-74470000D01*
X130548000Y-86948500D02*
X130548000Y-85823200D01*
X145280000Y-97045000D02*
X144154700Y-97045000D01*
X116910000Y-92180000D02*
X118035300Y-92180000D01*
X118035300Y-92180000D02*
X121775000Y-95919700D01*
X121775000Y-95919700D02*
X143029400Y-95919700D01*
X143029400Y-95919700D02*
X144154700Y-97045000D01*
X137660000Y-89425000D02*
X136534700Y-89425000D01*
X130548000Y-84408500D02*
X131673300Y-84408500D01*
X131673300Y-84408500D02*
X136534700Y-89269900D01*
X136534700Y-89269900D02*
X136534700Y-89425000D01*
X137660000Y-89425000D02*
X138785300Y-89425000D01*
X138785300Y-89425000D02*
X143865300Y-94505000D01*
X143865300Y-94505000D02*
X145280000Y-94505000D01*
X136332900Y-100210200D02*
X132895300Y-103647800D01*
X132895300Y-103647800D02*
X122528500Y-103647800D01*
X122528500Y-103647800D02*
X118139300Y-108037000D01*
X118139300Y-108037000D02*
X118139300Y-108845000D01*
X116964000Y-108845000D02*
X118139300Y-108845000D01*
X114424000Y-108845000D02*
X116964000Y-108845000D01*
X111884000Y-108845000D02*
X114424000Y-108845000D01*
X109344000Y-108845000D02*
X111884000Y-108845000D01*
X163100000Y-68148900D02*
X163471500Y-68148900D01*
X163471500Y-68148900D02*
X164289000Y-68966400D01*
X164289000Y-68966400D02*
X164289000Y-70021400D01*
X164289000Y-70021400D02*
X160584600Y-73725800D01*
X160584600Y-73725800D02*
X158520400Y-73725800D01*
X174340000Y-98955000D02*
X173214700Y-98955000D01*
X151480000Y-99967700D02*
X151592600Y-100080300D01*
X151592600Y-100080300D02*
X172089400Y-100080300D01*
X172089400Y-100080300D02*
X173214700Y-98955000D01*
X121509900Y-119459800D02*
X123180000Y-119459800D01*
X123180000Y-119459800D02*
X124733500Y-117906300D01*
X124733500Y-117906300D02*
X124733500Y-114616600D01*
X124733500Y-114616600D02*
X129795200Y-109554900D01*
X129795200Y-109554900D02*
X134202300Y-109554900D01*
X134202300Y-109554900D02*
X137141800Y-106615400D01*
X137141800Y-106615400D02*
X145661400Y-106615400D01*
X145661400Y-106615400D02*
X150354700Y-101922100D01*
X150354700Y-101922100D02*
X150354700Y-101008600D01*
X150354700Y-101008600D02*
X151395600Y-99967700D01*
X151395600Y-99967700D02*
X151480000Y-99967700D01*
X151480000Y-98955000D02*
X151480000Y-99967700D01*
X121509900Y-119459800D02*
X116642300Y-114592200D01*
X116642300Y-114592200D02*
X116642300Y-114590000D01*
X121869400Y-127845300D02*
X121509900Y-127485800D01*
X121509900Y-127485800D02*
X121509900Y-119459800D01*
X115467000Y-114590000D02*
X116642300Y-114590000D01*
X163100000Y-66960000D02*
X163100000Y-68148900D01*
X122761000Y-128720000D02*
X121886300Y-127845300D01*
X121886300Y-127845300D02*
X121869400Y-127845300D01*
X118420000Y-131294700D02*
X121869400Y-127845300D01*
X118420000Y-132420000D02*
X118420000Y-131294700D01*
X122761000Y-126220000D02*
X129550000Y-126220000D01*
X129550000Y-126220000D02*
X131240000Y-127910000D01*
X106295300Y-90400000D02*
X108210800Y-88484500D01*
X108210800Y-88484500D02*
X114400200Y-88484500D01*
X114400200Y-88484500D02*
X115784700Y-87100000D01*
X105120000Y-90400000D02*
X106295300Y-90400000D01*
X116910000Y-87100000D02*
X115784700Y-87100000D01*
X196500000Y-98284700D02*
X196867300Y-98284700D01*
X196867300Y-98284700D02*
X198132800Y-97019200D01*
X198132800Y-97019200D02*
X198132800Y-76940800D01*
X198132800Y-76940800D02*
X196367300Y-75175300D01*
X196367300Y-75175300D02*
X196000000Y-75175300D01*
X196000000Y-74000000D02*
X196000000Y-75175300D01*
X196500000Y-99460000D02*
X196500000Y-98284700D01*
X192500000Y-75175300D02*
X192867300Y-75175300D01*
X192867300Y-75175300D02*
X194374300Y-76682300D01*
X194374300Y-76682300D02*
X194374300Y-88539000D01*
X194374300Y-88539000D02*
X196500000Y-90664700D01*
X192500000Y-74000000D02*
X192500000Y-75175300D01*
X196500000Y-91840000D02*
X196500000Y-90664700D01*
X191324700Y-79080000D02*
X190927200Y-79477500D01*
X190927200Y-79477500D02*
X150147500Y-79477500D01*
X192500000Y-79080000D02*
X191324700Y-79080000D01*
X166720000Y-93875000D02*
X170948400Y-93875000D01*
X192500000Y-76540000D02*
X192500000Y-77715300D01*
X189580000Y-114195000D02*
X189580000Y-113069700D01*
X189580000Y-113069700D02*
X189861300Y-113069700D01*
X189861300Y-113069700D02*
X193675300Y-109255700D01*
X193675300Y-109255700D02*
X193675300Y-78523200D01*
X193675300Y-78523200D02*
X192867400Y-77715300D01*
X192867400Y-77715300D02*
X192500000Y-77715300D01*
D26*
G36*
X199290001Y-134290000D02*
G01*
X100710000Y-134290000D01*
X100710000Y-130269872D01*
X103275000Y-130269872D01*
X103275000Y-130710128D01*
X103360890Y-131141925D01*
X103529369Y-131548669D01*
X103773962Y-131914729D01*
X104085271Y-132226038D01*
X104451331Y-132470631D01*
X104858075Y-132639110D01*
X105289872Y-132725000D01*
X105730128Y-132725000D01*
X106161925Y-132639110D01*
X106568669Y-132470631D01*
X106934729Y-132226038D01*
X107246038Y-131914729D01*
X107490631Y-131548669D01*
X107659110Y-131141925D01*
X107745000Y-130710128D01*
X107745000Y-130269872D01*
X107659110Y-129838075D01*
X107490631Y-129431331D01*
X107246038Y-129065271D01*
X106934729Y-128753962D01*
X106568669Y-128509369D01*
X106161925Y-128340890D01*
X105730128Y-128255000D01*
X105289872Y-128255000D01*
X104858075Y-128340890D01*
X104451331Y-128509369D01*
X104085271Y-128753962D01*
X103773962Y-129065271D01*
X103529369Y-129431331D01*
X103360890Y-129838075D01*
X103275000Y-130269872D01*
X100710000Y-130269872D01*
X100710000Y-122118665D01*
X116985000Y-122118665D01*
X116985000Y-122401335D01*
X117040147Y-122678574D01*
X117148320Y-122939727D01*
X117305363Y-123174759D01*
X117505241Y-123374637D01*
X117740273Y-123531680D01*
X118001426Y-123639853D01*
X118278665Y-123695000D01*
X118561335Y-123695000D01*
X118838574Y-123639853D01*
X119099727Y-123531680D01*
X119334759Y-123374637D01*
X119534637Y-123174759D01*
X119691680Y-122939727D01*
X119799853Y-122678574D01*
X119855000Y-122401335D01*
X119855000Y-122118665D01*
X119799853Y-121841426D01*
X119691680Y-121580273D01*
X119534637Y-121345241D01*
X119334759Y-121145363D01*
X119099727Y-120988320D01*
X118838574Y-120880147D01*
X118561335Y-120825000D01*
X118278665Y-120825000D01*
X118001426Y-120880147D01*
X117740273Y-120988320D01*
X117505241Y-121145363D01*
X117305363Y-121345241D01*
X117148320Y-121580273D01*
X117040147Y-121841426D01*
X116985000Y-122118665D01*
X100710000Y-122118665D01*
X100710000Y-100149039D01*
X107898096Y-100149039D01*
X107938754Y-100283087D01*
X108058963Y-100537420D01*
X108226481Y-100763414D01*
X108434869Y-100952385D01*
X108676119Y-101097070D01*
X108940960Y-101191909D01*
X109163000Y-101070624D01*
X109163000Y-99927000D01*
X109417000Y-99927000D01*
X109417000Y-101070624D01*
X109639040Y-101191909D01*
X109903881Y-101097070D01*
X110145131Y-100952385D01*
X110353519Y-100763414D01*
X110521037Y-100537420D01*
X110641246Y-100283087D01*
X110681904Y-100149039D01*
X110559915Y-99927000D01*
X109417000Y-99927000D01*
X109163000Y-99927000D01*
X108020085Y-99927000D01*
X107898096Y-100149039D01*
X100710000Y-100149039D01*
X100710000Y-84633300D01*
X103180624Y-84633300D01*
X103184301Y-84670632D01*
X103184300Y-90896077D01*
X103180624Y-90933400D01*
X103184300Y-90970722D01*
X103184300Y-90970732D01*
X103195297Y-91082385D01*
X103232401Y-91204701D01*
X103238754Y-91225646D01*
X103309326Y-91357676D01*
X103328161Y-91380626D01*
X103404299Y-91473401D01*
X103433302Y-91497203D01*
X103954926Y-92018828D01*
X103879294Y-92110986D01*
X103741401Y-92368966D01*
X103656487Y-92648889D01*
X103627815Y-92940000D01*
X103656487Y-93231111D01*
X103741401Y-93511034D01*
X103879294Y-93769014D01*
X104064866Y-93995134D01*
X104290986Y-94180706D01*
X104548966Y-94318599D01*
X104828889Y-94403513D01*
X105047050Y-94425000D01*
X105192950Y-94425000D01*
X105411111Y-94403513D01*
X105691034Y-94318599D01*
X105949014Y-94180706D01*
X105988280Y-94148481D01*
X108184657Y-96344860D01*
X108091068Y-96458899D01*
X107957818Y-96708192D01*
X107875764Y-96978691D01*
X107848057Y-97260000D01*
X107875764Y-97541309D01*
X107957818Y-97811808D01*
X108091068Y-98061101D01*
X108270392Y-98279608D01*
X108488899Y-98458932D01*
X108626682Y-98532579D01*
X108434869Y-98647615D01*
X108226481Y-98836586D01*
X108058963Y-99062580D01*
X107938754Y-99316913D01*
X107898096Y-99450961D01*
X108020085Y-99673000D01*
X109163000Y-99673000D01*
X109163000Y-99653000D01*
X109417000Y-99653000D01*
X109417000Y-99673000D01*
X110559915Y-99673000D01*
X110681904Y-99450961D01*
X110641246Y-99316913D01*
X110521037Y-99062580D01*
X110353519Y-98836586D01*
X110145131Y-98647615D01*
X109953318Y-98532579D01*
X110091101Y-98458932D01*
X110309608Y-98279608D01*
X110488932Y-98061101D01*
X110622182Y-97811808D01*
X110704236Y-97541309D01*
X110731943Y-97260000D01*
X110704236Y-96978691D01*
X110634864Y-96750000D01*
X111034699Y-96750000D01*
X117993101Y-103708403D01*
X118016899Y-103737401D01*
X118132624Y-103832374D01*
X118264653Y-103902946D01*
X118407914Y-103946403D01*
X118519567Y-103957400D01*
X118519577Y-103957400D01*
X118556900Y-103961076D01*
X118594223Y-103957400D01*
X121144098Y-103957400D01*
X118452072Y-106649427D01*
X118452072Y-105455000D01*
X118439812Y-105330518D01*
X118403502Y-105210820D01*
X118344537Y-105100506D01*
X118265185Y-105003815D01*
X118168494Y-104924463D01*
X118058180Y-104865498D01*
X117938482Y-104829188D01*
X117814000Y-104816928D01*
X116114000Y-104816928D01*
X115989518Y-104829188D01*
X115869820Y-104865498D01*
X115759506Y-104924463D01*
X115662815Y-105003815D01*
X115583463Y-105100506D01*
X115524498Y-105210820D01*
X115503607Y-105279687D01*
X115479134Y-105249866D01*
X115253014Y-105064294D01*
X114995034Y-104926401D01*
X114715111Y-104841487D01*
X114496950Y-104820000D01*
X114351050Y-104820000D01*
X114132889Y-104841487D01*
X113852966Y-104926401D01*
X113594986Y-105064294D01*
X113368866Y-105249866D01*
X113183294Y-105475986D01*
X113154000Y-105530791D01*
X113124706Y-105475986D01*
X112939134Y-105249866D01*
X112713014Y-105064294D01*
X112455034Y-104926401D01*
X112175111Y-104841487D01*
X111956950Y-104820000D01*
X111811050Y-104820000D01*
X111592889Y-104841487D01*
X111312966Y-104926401D01*
X111054986Y-105064294D01*
X110828866Y-105249866D01*
X110643294Y-105475986D01*
X110614000Y-105530791D01*
X110584706Y-105475986D01*
X110399134Y-105249866D01*
X110173014Y-105064294D01*
X109915034Y-104926401D01*
X109635111Y-104841487D01*
X109416950Y-104820000D01*
X109271050Y-104820000D01*
X109052889Y-104841487D01*
X108772966Y-104926401D01*
X108514986Y-105064294D01*
X108288866Y-105249866D01*
X108103294Y-105475986D01*
X107965401Y-105733966D01*
X107880487Y-106013889D01*
X107851815Y-106305000D01*
X107880487Y-106596111D01*
X107965401Y-106876034D01*
X108103294Y-107134014D01*
X108288866Y-107360134D01*
X108514986Y-107545706D01*
X108569791Y-107575000D01*
X108514986Y-107604294D01*
X108288866Y-107789866D01*
X108103294Y-108015986D01*
X107965401Y-108273966D01*
X107880487Y-108553889D01*
X107851815Y-108845000D01*
X107880487Y-109136111D01*
X107965401Y-109416034D01*
X108103294Y-109674014D01*
X108288866Y-109900134D01*
X108514986Y-110085706D01*
X108772966Y-110223599D01*
X109052889Y-110308513D01*
X109271050Y-110330000D01*
X109416950Y-110330000D01*
X109635111Y-110308513D01*
X109915034Y-110223599D01*
X110173014Y-110085706D01*
X110399134Y-109900134D01*
X110584706Y-109674014D01*
X110614000Y-109619209D01*
X110643294Y-109674014D01*
X110828866Y-109900134D01*
X111054986Y-110085706D01*
X111312966Y-110223599D01*
X111592889Y-110308513D01*
X111811050Y-110330000D01*
X111956950Y-110330000D01*
X112175111Y-110308513D01*
X112455034Y-110223599D01*
X112713014Y-110085706D01*
X112939134Y-109900134D01*
X113124706Y-109674014D01*
X113154000Y-109619209D01*
X113183294Y-109674014D01*
X113368866Y-109900134D01*
X113594986Y-110085706D01*
X113852966Y-110223599D01*
X114132889Y-110308513D01*
X114351050Y-110330000D01*
X114496950Y-110330000D01*
X114715111Y-110308513D01*
X114995034Y-110223599D01*
X115253014Y-110085706D01*
X115479134Y-109900134D01*
X115664706Y-109674014D01*
X115694000Y-109619209D01*
X115723294Y-109674014D01*
X115908866Y-109900134D01*
X116134986Y-110085706D01*
X116392966Y-110223599D01*
X116672889Y-110308513D01*
X116891050Y-110330000D01*
X117036950Y-110330000D01*
X117255111Y-110308513D01*
X117535034Y-110223599D01*
X117793014Y-110085706D01*
X118019134Y-109900134D01*
X118204706Y-109674014D01*
X118245205Y-109598246D01*
X118288286Y-109594003D01*
X118431547Y-109550546D01*
X118563576Y-109479974D01*
X118679301Y-109385001D01*
X118774274Y-109269276D01*
X118844846Y-109137247D01*
X118888303Y-108993986D01*
X118899300Y-108882333D01*
X118902977Y-108845000D01*
X118899300Y-108807667D01*
X118899300Y-108351801D01*
X121235928Y-106015174D01*
X121235928Y-106418000D01*
X121248188Y-106542482D01*
X121284498Y-106662180D01*
X121343463Y-106772494D01*
X121365839Y-106799759D01*
X121037702Y-107127896D01*
X121008699Y-107151699D01*
X120953571Y-107218874D01*
X120913726Y-107267424D01*
X120883484Y-107324003D01*
X120843154Y-107399454D01*
X120799697Y-107542715D01*
X120788700Y-107654368D01*
X120788700Y-107654378D01*
X120785024Y-107691700D01*
X120788700Y-107729022D01*
X120788701Y-116311468D01*
X120785024Y-116348800D01*
X120799698Y-116497785D01*
X120843154Y-116641046D01*
X120913726Y-116773076D01*
X120975980Y-116848932D01*
X121008700Y-116888801D01*
X121037698Y-116912599D01*
X121550312Y-117425214D01*
X121475068Y-117516899D01*
X121341818Y-117766192D01*
X121259764Y-118036691D01*
X121250962Y-118126060D01*
X117216172Y-114091271D01*
X117182301Y-114049999D01*
X117066576Y-113955026D01*
X116934547Y-113884454D01*
X116791286Y-113840997D01*
X116748205Y-113836754D01*
X116707706Y-113760986D01*
X116522134Y-113534866D01*
X116296014Y-113349294D01*
X116038034Y-113211401D01*
X115758111Y-113126487D01*
X115539950Y-113105000D01*
X115394050Y-113105000D01*
X115175889Y-113126487D01*
X114895966Y-113211401D01*
X114637986Y-113349294D01*
X114411866Y-113534866D01*
X114226294Y-113760986D01*
X114197000Y-113815791D01*
X114167706Y-113760986D01*
X113982134Y-113534866D01*
X113756014Y-113349294D01*
X113498034Y-113211401D01*
X113218111Y-113126487D01*
X112999950Y-113105000D01*
X112854050Y-113105000D01*
X112635889Y-113126487D01*
X112355966Y-113211401D01*
X112097986Y-113349294D01*
X111871866Y-113534866D01*
X111847393Y-113564687D01*
X111826502Y-113495820D01*
X111767537Y-113385506D01*
X111688185Y-113288815D01*
X111591494Y-113209463D01*
X111481180Y-113150498D01*
X111361482Y-113114188D01*
X111237000Y-113101928D01*
X109537000Y-113101928D01*
X109412518Y-113114188D01*
X109292820Y-113150498D01*
X109182506Y-113209463D01*
X109085815Y-113288815D01*
X109006463Y-113385506D01*
X108947498Y-113495820D01*
X108911188Y-113615518D01*
X108898928Y-113740000D01*
X108898928Y-115440000D01*
X108911188Y-115564482D01*
X108947498Y-115684180D01*
X109006463Y-115794494D01*
X109085815Y-115891185D01*
X109182506Y-115970537D01*
X109292820Y-116029502D01*
X109412518Y-116065812D01*
X109537000Y-116078072D01*
X111237000Y-116078072D01*
X111361482Y-116065812D01*
X111481180Y-116029502D01*
X111591494Y-115970537D01*
X111688185Y-115891185D01*
X111767537Y-115794494D01*
X111826502Y-115684180D01*
X111847393Y-115615313D01*
X111871866Y-115645134D01*
X112097986Y-115830706D01*
X112355966Y-115968599D01*
X112635889Y-116053513D01*
X112854050Y-116075000D01*
X112999950Y-116075000D01*
X113218111Y-116053513D01*
X113498034Y-115968599D01*
X113756014Y-115830706D01*
X113982134Y-115645134D01*
X114167706Y-115419014D01*
X114197000Y-115364209D01*
X114226294Y-115419014D01*
X114411866Y-115645134D01*
X114637986Y-115830706D01*
X114895966Y-115968599D01*
X115175889Y-116053513D01*
X115394050Y-116075000D01*
X115539950Y-116075000D01*
X115758111Y-116053513D01*
X116038034Y-115968599D01*
X116296014Y-115830706D01*
X116522134Y-115645134D01*
X116566443Y-115591144D01*
X120749901Y-119774603D01*
X120749900Y-127448478D01*
X120746224Y-127485800D01*
X120749900Y-127523122D01*
X120749900Y-127523132D01*
X120760897Y-127634785D01*
X120803002Y-127773589D01*
X120804354Y-127778046D01*
X120824382Y-127815516D01*
X117908998Y-130730901D01*
X117880000Y-130754699D01*
X117856202Y-130783697D01*
X117856201Y-130783698D01*
X117785026Y-130870424D01*
X117714454Y-131002454D01*
X117688560Y-131087818D01*
X117672148Y-131141925D01*
X117670998Y-131145715D01*
X117666059Y-131195860D01*
X117618899Y-131221068D01*
X117400392Y-131400392D01*
X117221068Y-131618899D01*
X117087818Y-131868192D01*
X117005764Y-132138691D01*
X116978057Y-132420000D01*
X117005764Y-132701309D01*
X117087818Y-132971808D01*
X117221068Y-133221101D01*
X117400392Y-133439608D01*
X117618899Y-133618932D01*
X117868192Y-133752182D01*
X118138691Y-133834236D01*
X118349508Y-133855000D01*
X118490492Y-133855000D01*
X118701309Y-133834236D01*
X118971808Y-133752182D01*
X119221101Y-133618932D01*
X119439608Y-133439608D01*
X119618932Y-133221101D01*
X119752182Y-132971808D01*
X119834236Y-132701309D01*
X119861943Y-132420000D01*
X119834236Y-132138691D01*
X119752182Y-131868192D01*
X119618932Y-131618899D01*
X119439608Y-131400392D01*
X119411872Y-131377629D01*
X120519629Y-130269872D01*
X192265000Y-130269872D01*
X192265000Y-130710128D01*
X192350890Y-131141925D01*
X192519369Y-131548669D01*
X192763962Y-131914729D01*
X193075271Y-132226038D01*
X193441331Y-132470631D01*
X193848075Y-132639110D01*
X194279872Y-132725000D01*
X194720128Y-132725000D01*
X195151925Y-132639110D01*
X195558669Y-132470631D01*
X195924729Y-132226038D01*
X196236038Y-131914729D01*
X196480631Y-131548669D01*
X196649110Y-131141925D01*
X196735000Y-130710128D01*
X196735000Y-130269872D01*
X196649110Y-129838075D01*
X196480631Y-129431331D01*
X196236038Y-129065271D01*
X195924729Y-128753962D01*
X195558669Y-128509369D01*
X195151925Y-128340890D01*
X194720128Y-128255000D01*
X194279872Y-128255000D01*
X193848075Y-128340890D01*
X193441331Y-128509369D01*
X193075271Y-128753962D01*
X192763962Y-129065271D01*
X192519369Y-129431331D01*
X192350890Y-129838075D01*
X192265000Y-130269872D01*
X120519629Y-130269872D01*
X121460164Y-129329338D01*
X121489320Y-129399727D01*
X121646363Y-129634759D01*
X121846241Y-129834637D01*
X122081273Y-129991680D01*
X122342426Y-130099853D01*
X122619665Y-130155000D01*
X122902335Y-130155000D01*
X123179574Y-130099853D01*
X123440727Y-129991680D01*
X123675759Y-129834637D01*
X123875637Y-129634759D01*
X124032680Y-129399727D01*
X124140853Y-129138574D01*
X124196000Y-128861335D01*
X124196000Y-128660000D01*
X124771928Y-128660000D01*
X124784188Y-128784482D01*
X124820498Y-128904180D01*
X124879463Y-129014494D01*
X124958815Y-129111185D01*
X125055506Y-129190537D01*
X125165820Y-129249502D01*
X125285518Y-129285812D01*
X125410000Y-129298072D01*
X125874250Y-129295000D01*
X126033000Y-129136250D01*
X126033000Y-128037000D01*
X124933750Y-128037000D01*
X124775000Y-128195750D01*
X124771928Y-128660000D01*
X124196000Y-128660000D01*
X124196000Y-128578665D01*
X124140853Y-128301426D01*
X124032680Y-128040273D01*
X123875637Y-127805241D01*
X123675759Y-127605363D01*
X123473173Y-127470000D01*
X123675759Y-127334637D01*
X123875637Y-127134759D01*
X123979043Y-126980000D01*
X124801029Y-126980000D01*
X124784188Y-127035518D01*
X124771928Y-127160000D01*
X124775000Y-127624250D01*
X124933750Y-127783000D01*
X126033000Y-127783000D01*
X126033000Y-127763000D01*
X126287000Y-127763000D01*
X126287000Y-127783000D01*
X126307000Y-127783000D01*
X126307000Y-128037000D01*
X126287000Y-128037000D01*
X126287000Y-129136250D01*
X126445750Y-129295000D01*
X126910000Y-129298072D01*
X127034482Y-129285812D01*
X127154180Y-129249502D01*
X127264494Y-129190537D01*
X127361185Y-129111185D01*
X127440537Y-129014494D01*
X127499502Y-128904180D01*
X127535812Y-128784482D01*
X127546445Y-128676517D01*
X127624201Y-128792886D01*
X127817114Y-128985799D01*
X128043957Y-129137371D01*
X128296011Y-129241775D01*
X128563589Y-129295000D01*
X128836411Y-129295000D01*
X129103989Y-129241775D01*
X129356043Y-129137371D01*
X129582886Y-128985799D01*
X129775799Y-128792886D01*
X129927371Y-128566043D01*
X129970000Y-128463127D01*
X130012629Y-128566043D01*
X130164201Y-128792886D01*
X130357114Y-128985799D01*
X130583957Y-129137371D01*
X130836011Y-129241775D01*
X131103589Y-129295000D01*
X131376411Y-129295000D01*
X131643989Y-129241775D01*
X131896043Y-129137371D01*
X132122886Y-128985799D01*
X132315799Y-128792886D01*
X132467371Y-128566043D01*
X132571775Y-128313989D01*
X132625000Y-128046411D01*
X132625000Y-127773589D01*
X132580260Y-127548665D01*
X134205000Y-127548665D01*
X134205000Y-127831335D01*
X134260147Y-128108574D01*
X134368320Y-128369727D01*
X134525363Y-128604759D01*
X134725241Y-128804637D01*
X134960273Y-128961680D01*
X135221426Y-129069853D01*
X135498665Y-129125000D01*
X135781335Y-129125000D01*
X136058574Y-129069853D01*
X136319727Y-128961680D01*
X136554759Y-128804637D01*
X136754637Y-128604759D01*
X136911680Y-128369727D01*
X137019853Y-128108574D01*
X137075000Y-127831335D01*
X137075000Y-127690000D01*
X144358057Y-127690000D01*
X144385764Y-127971309D01*
X144467818Y-128241808D01*
X144601068Y-128491101D01*
X144780392Y-128709608D01*
X144998899Y-128888932D01*
X145248192Y-129022182D01*
X145518691Y-129104236D01*
X145729508Y-129125000D01*
X145870492Y-129125000D01*
X146081309Y-129104236D01*
X146351808Y-129022182D01*
X146601101Y-128888932D01*
X146819608Y-128709608D01*
X146998932Y-128491101D01*
X147132182Y-128241808D01*
X147214236Y-127971309D01*
X147241943Y-127690000D01*
X147214236Y-127408691D01*
X147164290Y-127244039D01*
X150088096Y-127244039D01*
X150128754Y-127378087D01*
X150248963Y-127632420D01*
X150416481Y-127858414D01*
X150624869Y-128047385D01*
X150866119Y-128192070D01*
X151130960Y-128286909D01*
X151353000Y-128165624D01*
X151353000Y-127022000D01*
X151607000Y-127022000D01*
X151607000Y-128165624D01*
X151829040Y-128286909D01*
X152093881Y-128192070D01*
X152335131Y-128047385D01*
X152543519Y-127858414D01*
X152711037Y-127632420D01*
X152831246Y-127378087D01*
X152871904Y-127244039D01*
X152749915Y-127022000D01*
X151607000Y-127022000D01*
X151353000Y-127022000D01*
X150210085Y-127022000D01*
X150088096Y-127244039D01*
X147164290Y-127244039D01*
X147132182Y-127138192D01*
X146998932Y-126888899D01*
X146819608Y-126670392D01*
X146601101Y-126491068D01*
X146351808Y-126357818D01*
X146081309Y-126275764D01*
X145870492Y-126255000D01*
X145729508Y-126255000D01*
X145518691Y-126275764D01*
X145248192Y-126357818D01*
X144998899Y-126491068D01*
X144780392Y-126670392D01*
X144601068Y-126888899D01*
X144467818Y-127138192D01*
X144385764Y-127408691D01*
X144358057Y-127690000D01*
X137075000Y-127690000D01*
X137075000Y-127548665D01*
X137019853Y-127271426D01*
X136911680Y-127010273D01*
X136754637Y-126775241D01*
X136554759Y-126575363D01*
X136319727Y-126418320D01*
X136058574Y-126310147D01*
X135781335Y-126255000D01*
X135498665Y-126255000D01*
X135221426Y-126310147D01*
X134960273Y-126418320D01*
X134725241Y-126575363D01*
X134525363Y-126775241D01*
X134368320Y-127010273D01*
X134260147Y-127271426D01*
X134205000Y-127548665D01*
X132580260Y-127548665D01*
X132571775Y-127506011D01*
X132467371Y-127253957D01*
X132315799Y-127027114D01*
X132122886Y-126834201D01*
X131896043Y-126682629D01*
X131643989Y-126578225D01*
X131376411Y-126525000D01*
X131103589Y-126525000D01*
X130958635Y-126553833D01*
X130113804Y-125709003D01*
X130090001Y-125679999D01*
X129974276Y-125585026D01*
X129842247Y-125514454D01*
X129698986Y-125470997D01*
X129587333Y-125460000D01*
X129587322Y-125460000D01*
X129550000Y-125456324D01*
X129512678Y-125460000D01*
X123979043Y-125460000D01*
X123875637Y-125305241D01*
X123675759Y-125105363D01*
X123440727Y-124948320D01*
X123179574Y-124840147D01*
X122902335Y-124785000D01*
X122619665Y-124785000D01*
X122342426Y-124840147D01*
X122269900Y-124870188D01*
X122269900Y-122230192D01*
X122324960Y-122249909D01*
X122547000Y-122128624D01*
X122547000Y-120985000D01*
X122801000Y-120985000D01*
X122801000Y-122128624D01*
X123023040Y-122249909D01*
X123287881Y-122155070D01*
X123529131Y-122010385D01*
X123737519Y-121821414D01*
X123905037Y-121595420D01*
X124025246Y-121341087D01*
X124065904Y-121207039D01*
X123943915Y-120985000D01*
X122801000Y-120985000D01*
X122547000Y-120985000D01*
X122527000Y-120985000D01*
X122527000Y-120731000D01*
X122547000Y-120731000D01*
X122547000Y-120711000D01*
X122801000Y-120711000D01*
X122801000Y-120731000D01*
X123943915Y-120731000D01*
X124065904Y-120508961D01*
X124025246Y-120374913D01*
X123905037Y-120120580D01*
X123772638Y-119941963D01*
X125244504Y-118470098D01*
X125273501Y-118446301D01*
X125368474Y-118330576D01*
X125439046Y-118198547D01*
X125482503Y-118055286D01*
X125493500Y-117943633D01*
X125493500Y-117943625D01*
X125497176Y-117906300D01*
X125493500Y-117868975D01*
X125493500Y-114931401D01*
X129036108Y-111388794D01*
X129095068Y-111499101D01*
X129274392Y-111717608D01*
X129492899Y-111896932D01*
X129625858Y-111968000D01*
X129492899Y-112039068D01*
X129274392Y-112218392D01*
X129095068Y-112436899D01*
X128961818Y-112686192D01*
X128879764Y-112956691D01*
X128852057Y-113238000D01*
X128879764Y-113519309D01*
X128961818Y-113789808D01*
X129095068Y-114039101D01*
X129274392Y-114257608D01*
X129492899Y-114436932D01*
X129625858Y-114508000D01*
X129492899Y-114579068D01*
X129274392Y-114758392D01*
X129095068Y-114976899D01*
X128961818Y-115226192D01*
X128879764Y-115496691D01*
X128852057Y-115778000D01*
X128879764Y-116059309D01*
X128961818Y-116329808D01*
X129095068Y-116579101D01*
X129274392Y-116797608D01*
X129492899Y-116976932D01*
X129625858Y-117048000D01*
X129492899Y-117119068D01*
X129274392Y-117298392D01*
X129095068Y-117516899D01*
X128961818Y-117766192D01*
X128879764Y-118036691D01*
X128852057Y-118318000D01*
X128879764Y-118599309D01*
X128961818Y-118869808D01*
X129095068Y-119119101D01*
X129274392Y-119337608D01*
X129492899Y-119516932D01*
X129625858Y-119588000D01*
X129492899Y-119659068D01*
X129274392Y-119838392D01*
X129095068Y-120056899D01*
X128961818Y-120306192D01*
X128879764Y-120576691D01*
X128852057Y-120858000D01*
X128879764Y-121139309D01*
X128961818Y-121409808D01*
X129095068Y-121659101D01*
X129274392Y-121877608D01*
X129492899Y-122056932D01*
X129742192Y-122190182D01*
X130012691Y-122272236D01*
X130223508Y-122293000D01*
X130364492Y-122293000D01*
X130575309Y-122272236D01*
X130845808Y-122190182D01*
X131095101Y-122056932D01*
X131313608Y-121877608D01*
X131492932Y-121659101D01*
X131626182Y-121409808D01*
X131708236Y-121139309D01*
X131714172Y-121079039D01*
X136142096Y-121079039D01*
X136182754Y-121213087D01*
X136302963Y-121467420D01*
X136470481Y-121693414D01*
X136678869Y-121882385D01*
X136920119Y-122027070D01*
X137184960Y-122121909D01*
X137407000Y-122000624D01*
X137407000Y-120857000D01*
X137661000Y-120857000D01*
X137661000Y-122000624D01*
X137883040Y-122121909D01*
X138147881Y-122027070D01*
X138389131Y-121882385D01*
X138597519Y-121693414D01*
X138765037Y-121467420D01*
X138885246Y-121213087D01*
X138925904Y-121079039D01*
X138803915Y-120857000D01*
X137661000Y-120857000D01*
X137407000Y-120857000D01*
X136264085Y-120857000D01*
X136142096Y-121079039D01*
X131714172Y-121079039D01*
X131735943Y-120858000D01*
X131708236Y-120576691D01*
X131626182Y-120306192D01*
X131492932Y-120056899D01*
X131313608Y-119838392D01*
X131095101Y-119659068D01*
X130962142Y-119588000D01*
X131095101Y-119516932D01*
X131313608Y-119337608D01*
X131492932Y-119119101D01*
X131626182Y-118869808D01*
X131708236Y-118599309D01*
X131735943Y-118318000D01*
X131708236Y-118036691D01*
X131626182Y-117766192D01*
X131492932Y-117516899D01*
X131313608Y-117298392D01*
X131095101Y-117119068D01*
X130962142Y-117048000D01*
X131095101Y-116976932D01*
X131313608Y-116797608D01*
X131492932Y-116579101D01*
X131626182Y-116329808D01*
X131708236Y-116059309D01*
X131735943Y-115778000D01*
X131708236Y-115496691D01*
X131626182Y-115226192D01*
X131492932Y-114976899D01*
X131313608Y-114758392D01*
X131095101Y-114579068D01*
X130962142Y-114508000D01*
X131095101Y-114436932D01*
X131313608Y-114257608D01*
X131492932Y-114039101D01*
X131626182Y-113789808D01*
X131708236Y-113519309D01*
X131735943Y-113238000D01*
X131708236Y-112956691D01*
X131626182Y-112686192D01*
X131492932Y-112436899D01*
X131365859Y-112282060D01*
X136397105Y-117313307D01*
X136335068Y-117388899D01*
X136201818Y-117638192D01*
X136119764Y-117908691D01*
X136092057Y-118190000D01*
X136119764Y-118471309D01*
X136201818Y-118741808D01*
X136335068Y-118991101D01*
X136514392Y-119209608D01*
X136732899Y-119388932D01*
X136870682Y-119462579D01*
X136678869Y-119577615D01*
X136470481Y-119766586D01*
X136302963Y-119992580D01*
X136182754Y-120246913D01*
X136142096Y-120380961D01*
X136264085Y-120603000D01*
X137407000Y-120603000D01*
X137407000Y-120583000D01*
X137661000Y-120583000D01*
X137661000Y-120603000D01*
X138803915Y-120603000D01*
X138925904Y-120380961D01*
X138885246Y-120246913D01*
X138765037Y-119992580D01*
X138597519Y-119766586D01*
X138389131Y-119577615D01*
X138197318Y-119462579D01*
X138335101Y-119388932D01*
X138553608Y-119209608D01*
X138732932Y-118991101D01*
X138866182Y-118741808D01*
X138948236Y-118471309D01*
X138975943Y-118190000D01*
X138948236Y-117908691D01*
X138922758Y-117824700D01*
X142588599Y-117824700D01*
X143464901Y-118701003D01*
X143488699Y-118730001D01*
X143555318Y-118784674D01*
X143604424Y-118824974D01*
X143736453Y-118895546D01*
X143879714Y-118939003D01*
X143929861Y-118943942D01*
X143955068Y-118991101D01*
X144134392Y-119209608D01*
X144352899Y-119388932D01*
X144485858Y-119460000D01*
X144352899Y-119531068D01*
X144134392Y-119710392D01*
X143955068Y-119928899D01*
X143821818Y-120178192D01*
X143739764Y-120448691D01*
X143712057Y-120730000D01*
X143739764Y-121011309D01*
X143821818Y-121281808D01*
X143955068Y-121531101D01*
X144134392Y-121749608D01*
X144352899Y-121928932D01*
X144602192Y-122062182D01*
X144872691Y-122144236D01*
X145083508Y-122165000D01*
X145224492Y-122165000D01*
X145435309Y-122144236D01*
X145705808Y-122062182D01*
X145955101Y-121928932D01*
X146173608Y-121749608D01*
X146352932Y-121531101D01*
X146486182Y-121281808D01*
X146568236Y-121011309D01*
X146595943Y-120730000D01*
X146568236Y-120448691D01*
X146486182Y-120178192D01*
X146352932Y-119928899D01*
X146173608Y-119710392D01*
X145955101Y-119531068D01*
X145822142Y-119460000D01*
X145955101Y-119388932D01*
X146173608Y-119209608D01*
X146352932Y-118991101D01*
X146486182Y-118741808D01*
X146568236Y-118471309D01*
X146595943Y-118190000D01*
X146568236Y-117908691D01*
X146486182Y-117638192D01*
X146352932Y-117388899D01*
X146173608Y-117170392D01*
X145955101Y-116991068D01*
X145822142Y-116920000D01*
X145955101Y-116848932D01*
X146173608Y-116669608D01*
X146352932Y-116451101D01*
X146437843Y-116292244D01*
X149621421Y-119475823D01*
X149649154Y-119567247D01*
X149719726Y-119699276D01*
X149773932Y-119765326D01*
X149814699Y-119815001D01*
X149930424Y-119909974D01*
X150062453Y-119980546D01*
X150205714Y-120024003D01*
X150255861Y-120028942D01*
X150281068Y-120076101D01*
X150460392Y-120294608D01*
X150678899Y-120473932D01*
X150811858Y-120545000D01*
X150678899Y-120616068D01*
X150460392Y-120795392D01*
X150281068Y-121013899D01*
X150147818Y-121263192D01*
X150065764Y-121533691D01*
X150038057Y-121815000D01*
X150065764Y-122096309D01*
X150147818Y-122366808D01*
X150281068Y-122616101D01*
X150460392Y-122834608D01*
X150678899Y-123013932D01*
X150811858Y-123085000D01*
X150678899Y-123156068D01*
X150460392Y-123335392D01*
X150281068Y-123553899D01*
X150147818Y-123803192D01*
X150065764Y-124073691D01*
X150038057Y-124355000D01*
X150065764Y-124636309D01*
X150147818Y-124906808D01*
X150281068Y-125156101D01*
X150460392Y-125374608D01*
X150678899Y-125553932D01*
X150816682Y-125627579D01*
X150624869Y-125742615D01*
X150416481Y-125931586D01*
X150248963Y-126157580D01*
X150128754Y-126411913D01*
X150088096Y-126545961D01*
X150210085Y-126768000D01*
X151353000Y-126768000D01*
X151353000Y-126748000D01*
X151607000Y-126748000D01*
X151607000Y-126768000D01*
X152749915Y-126768000D01*
X152871904Y-126545961D01*
X152831246Y-126411913D01*
X152711037Y-126157580D01*
X152543519Y-125931586D01*
X152335131Y-125742615D01*
X152143318Y-125627579D01*
X152281101Y-125553932D01*
X152499608Y-125374608D01*
X152522370Y-125346872D01*
X153177801Y-126002303D01*
X153201599Y-126031301D01*
X153317324Y-126126274D01*
X153449353Y-126196846D01*
X153592614Y-126240303D01*
X153704267Y-126251300D01*
X153704277Y-126251300D01*
X153741600Y-126254976D01*
X153778923Y-126251300D01*
X165436935Y-126251300D01*
X165387818Y-126343192D01*
X165305764Y-126613691D01*
X165278057Y-126895000D01*
X165305764Y-127176309D01*
X165387818Y-127446808D01*
X165521068Y-127696101D01*
X165700392Y-127914608D01*
X165918899Y-128093932D01*
X166168192Y-128227182D01*
X166438691Y-128309236D01*
X166649508Y-128330000D01*
X166790492Y-128330000D01*
X167001309Y-128309236D01*
X167271808Y-128227182D01*
X167521101Y-128093932D01*
X167739608Y-127914608D01*
X167918932Y-127696101D01*
X167940901Y-127655000D01*
X171767378Y-127655000D01*
X171804700Y-127658676D01*
X171842022Y-127655000D01*
X171842033Y-127655000D01*
X171953686Y-127644003D01*
X172096947Y-127600546D01*
X172228976Y-127529974D01*
X172344701Y-127435001D01*
X172368504Y-127405998D01*
X172530463Y-127244039D01*
X172948096Y-127244039D01*
X172988754Y-127378087D01*
X173108963Y-127632420D01*
X173276481Y-127858414D01*
X173484869Y-128047385D01*
X173726119Y-128192070D01*
X173990960Y-128286909D01*
X174213000Y-128165624D01*
X174213000Y-127022000D01*
X174467000Y-127022000D01*
X174467000Y-128165624D01*
X174689040Y-128286909D01*
X174953881Y-128192070D01*
X175195131Y-128047385D01*
X175403519Y-127858414D01*
X175571037Y-127632420D01*
X175691246Y-127378087D01*
X175731904Y-127244039D01*
X175609915Y-127022000D01*
X174467000Y-127022000D01*
X174213000Y-127022000D01*
X173070085Y-127022000D01*
X172948096Y-127244039D01*
X172530463Y-127244039D01*
X173047539Y-126726963D01*
X173070085Y-126768000D01*
X174213000Y-126768000D01*
X174213000Y-126748000D01*
X174467000Y-126748000D01*
X174467000Y-126768000D01*
X175609915Y-126768000D01*
X175731904Y-126545961D01*
X175726972Y-126529700D01*
X188191242Y-126529700D01*
X188165764Y-126613691D01*
X188138057Y-126895000D01*
X188165764Y-127176309D01*
X188247818Y-127446808D01*
X188381068Y-127696101D01*
X188560392Y-127914608D01*
X188778899Y-128093932D01*
X189028192Y-128227182D01*
X189298691Y-128309236D01*
X189509508Y-128330000D01*
X189650492Y-128330000D01*
X189861309Y-128309236D01*
X190131808Y-128227182D01*
X190381101Y-128093932D01*
X190599608Y-127914608D01*
X190778932Y-127696101D01*
X190912182Y-127446808D01*
X190994236Y-127176309D01*
X191021943Y-126895000D01*
X190994236Y-126613691D01*
X190912182Y-126343192D01*
X190778932Y-126093899D01*
X190703643Y-126002159D01*
X195426404Y-121279398D01*
X195455401Y-121255601D01*
X195550374Y-121139876D01*
X195620946Y-121007847D01*
X195664403Y-120864586D01*
X195675400Y-120752933D01*
X195675400Y-120752925D01*
X195679076Y-120715600D01*
X195675400Y-120678275D01*
X195675400Y-103243065D01*
X195928966Y-103378599D01*
X196208889Y-103463513D01*
X196427050Y-103485000D01*
X196572950Y-103485000D01*
X196791111Y-103463513D01*
X197071034Y-103378599D01*
X197329014Y-103240706D01*
X197555134Y-103055134D01*
X197740706Y-102829014D01*
X197878599Y-102571034D01*
X197963513Y-102291111D01*
X197992185Y-102000000D01*
X197963513Y-101708889D01*
X197878599Y-101428966D01*
X197740706Y-101170986D01*
X197555134Y-100944866D01*
X197329014Y-100759294D01*
X197274209Y-100730000D01*
X197329014Y-100700706D01*
X197555134Y-100515134D01*
X197740706Y-100289014D01*
X197878599Y-100031034D01*
X197963513Y-99751111D01*
X197992185Y-99460000D01*
X197963513Y-99168889D01*
X197878599Y-98888966D01*
X197740706Y-98630986D01*
X197675396Y-98551405D01*
X198643804Y-97582998D01*
X198672801Y-97559201D01*
X198767774Y-97443476D01*
X198838346Y-97311447D01*
X198881803Y-97168186D01*
X198892800Y-97056533D01*
X198892800Y-97056524D01*
X198896476Y-97019201D01*
X198892800Y-96981878D01*
X198892800Y-76978122D01*
X198896476Y-76940799D01*
X198892800Y-76903476D01*
X198892800Y-76903467D01*
X198881803Y-76791814D01*
X198838346Y-76648553D01*
X198810564Y-76596577D01*
X198767774Y-76516523D01*
X198696599Y-76429797D01*
X198672801Y-76400799D01*
X198643803Y-76377001D01*
X197412151Y-75145350D01*
X197439502Y-75094180D01*
X197475812Y-74974482D01*
X197488072Y-74850000D01*
X197488072Y-73150000D01*
X197475812Y-73025518D01*
X197439502Y-72905820D01*
X197380537Y-72795506D01*
X197301185Y-72698815D01*
X197204494Y-72619463D01*
X197094180Y-72560498D01*
X196974482Y-72524188D01*
X196850000Y-72511928D01*
X195150000Y-72511928D01*
X195025518Y-72524188D01*
X194905820Y-72560498D01*
X194795506Y-72619463D01*
X194698815Y-72698815D01*
X194619463Y-72795506D01*
X194588791Y-72852889D01*
X186095404Y-64359503D01*
X186071601Y-64330499D01*
X186009912Y-64279872D01*
X192265000Y-64279872D01*
X192265000Y-64720128D01*
X192350890Y-65151925D01*
X192519369Y-65558669D01*
X192763962Y-65924729D01*
X193075271Y-66236038D01*
X193441331Y-66480631D01*
X193848075Y-66649110D01*
X194279872Y-66735000D01*
X194720128Y-66735000D01*
X195151925Y-66649110D01*
X195558669Y-66480631D01*
X195924729Y-66236038D01*
X196236038Y-65924729D01*
X196480631Y-65558669D01*
X196649110Y-65151925D01*
X196735000Y-64720128D01*
X196735000Y-64279872D01*
X196649110Y-63848075D01*
X196480631Y-63441331D01*
X196236038Y-63075271D01*
X195924729Y-62763962D01*
X195558669Y-62519369D01*
X195151925Y-62350890D01*
X194720128Y-62265000D01*
X194279872Y-62265000D01*
X193848075Y-62350890D01*
X193441331Y-62519369D01*
X193075271Y-62763962D01*
X192763962Y-63075271D01*
X192519369Y-63441331D01*
X192350890Y-63848075D01*
X192265000Y-64279872D01*
X186009912Y-64279872D01*
X185955876Y-64235526D01*
X185823847Y-64164954D01*
X185680586Y-64121497D01*
X185568933Y-64110500D01*
X185568922Y-64110500D01*
X185531600Y-64106824D01*
X185494278Y-64110500D01*
X140644122Y-64110500D01*
X140606799Y-64106824D01*
X140569476Y-64110500D01*
X140569467Y-64110500D01*
X140457814Y-64121497D01*
X140314553Y-64164954D01*
X140182524Y-64235526D01*
X140182522Y-64235527D01*
X140182523Y-64235527D01*
X140095796Y-64306701D01*
X140095792Y-64306705D01*
X140066799Y-64330499D01*
X140043005Y-64359492D01*
X138623366Y-65779133D01*
X138536606Y-65707931D01*
X138276264Y-65568775D01*
X137993777Y-65483084D01*
X137773619Y-65461400D01*
X137626381Y-65461400D01*
X137406223Y-65483084D01*
X137123736Y-65568775D01*
X136863394Y-65707931D01*
X136635203Y-65895203D01*
X136447931Y-66123394D01*
X136430000Y-66156940D01*
X136412069Y-66123394D01*
X136224797Y-65895203D01*
X135996606Y-65707931D01*
X135736264Y-65568775D01*
X135453777Y-65483084D01*
X135233619Y-65461400D01*
X135086381Y-65461400D01*
X134866223Y-65483084D01*
X134583736Y-65568775D01*
X134323394Y-65707931D01*
X134095203Y-65895203D01*
X133907931Y-66123394D01*
X133890000Y-66156940D01*
X133872069Y-66123394D01*
X133684797Y-65895203D01*
X133456606Y-65707931D01*
X133196264Y-65568775D01*
X132913777Y-65483084D01*
X132693619Y-65461400D01*
X132546381Y-65461400D01*
X132326223Y-65483084D01*
X132043736Y-65568775D01*
X131783394Y-65707931D01*
X131555203Y-65895203D01*
X131367931Y-66123394D01*
X131350000Y-66156940D01*
X131332069Y-66123394D01*
X131144797Y-65895203D01*
X130916606Y-65707931D01*
X130656264Y-65568775D01*
X130373777Y-65483084D01*
X130153619Y-65461400D01*
X130006381Y-65461400D01*
X129786223Y-65483084D01*
X129503736Y-65568775D01*
X129243394Y-65707931D01*
X129015203Y-65895203D01*
X128827931Y-66123394D01*
X128804137Y-66167910D01*
X128746817Y-66071512D01*
X128550293Y-65853146D01*
X128314944Y-65677316D01*
X128049814Y-65550778D01*
X127899026Y-65505042D01*
X127667000Y-65626183D01*
X127667000Y-66833000D01*
X127687000Y-66833000D01*
X127687000Y-67087000D01*
X127667000Y-67087000D01*
X127667000Y-67107000D01*
X127413000Y-67107000D01*
X127413000Y-67087000D01*
X125127000Y-67087000D01*
X125127000Y-67107000D01*
X124873000Y-67107000D01*
X124873000Y-67087000D01*
X123665536Y-67087000D01*
X123545037Y-67319027D01*
X123643036Y-67595978D01*
X123793183Y-67848488D01*
X123954692Y-68027947D01*
X123892220Y-68046898D01*
X123781906Y-68105863D01*
X123685215Y-68185215D01*
X123605863Y-68281906D01*
X123546898Y-68392220D01*
X123510588Y-68511918D01*
X123505360Y-68565000D01*
X116387289Y-68565000D01*
X115737730Y-67915441D01*
X115850130Y-67898787D01*
X116116292Y-67803603D01*
X116241514Y-67736671D01*
X116313097Y-67492702D01*
X115500000Y-66679605D01*
X115485858Y-66693748D01*
X115306253Y-66514143D01*
X115320395Y-66500000D01*
X115679605Y-66500000D01*
X116492702Y-67313097D01*
X116736671Y-67241514D01*
X116857571Y-66986004D01*
X116926300Y-66711816D01*
X116931763Y-66600973D01*
X123545037Y-66600973D01*
X123665536Y-66833000D01*
X124873000Y-66833000D01*
X124873000Y-65626183D01*
X125127000Y-65626183D01*
X125127000Y-66833000D01*
X127413000Y-66833000D01*
X127413000Y-65626183D01*
X127180974Y-65505042D01*
X127030186Y-65550778D01*
X126765056Y-65677316D01*
X126529707Y-65853146D01*
X126333183Y-66071512D01*
X126270000Y-66177770D01*
X126206817Y-66071512D01*
X126010293Y-65853146D01*
X125774944Y-65677316D01*
X125509814Y-65550778D01*
X125359026Y-65505042D01*
X125127000Y-65626183D01*
X124873000Y-65626183D01*
X124640974Y-65505042D01*
X124490186Y-65550778D01*
X124225056Y-65677316D01*
X123989707Y-65853146D01*
X123793183Y-66071512D01*
X123643036Y-66324022D01*
X123545037Y-66600973D01*
X116931763Y-66600973D01*
X116940217Y-66429488D01*
X116898787Y-66149870D01*
X116803603Y-65883708D01*
X116736671Y-65758486D01*
X116492702Y-65686903D01*
X115679605Y-66500000D01*
X115320395Y-66500000D01*
X114507298Y-65686903D01*
X114438072Y-65707215D01*
X114438072Y-65700000D01*
X114425812Y-65575518D01*
X114405118Y-65507298D01*
X114686903Y-65507298D01*
X115500000Y-66320395D01*
X116313097Y-65507298D01*
X116241514Y-65263329D01*
X115986004Y-65142429D01*
X115711816Y-65073700D01*
X115429488Y-65059783D01*
X115149870Y-65101213D01*
X114883708Y-65196397D01*
X114758486Y-65263329D01*
X114686903Y-65507298D01*
X114405118Y-65507298D01*
X114389502Y-65455820D01*
X114330537Y-65345506D01*
X114251185Y-65248815D01*
X114154494Y-65169463D01*
X114044180Y-65110498D01*
X113924482Y-65074188D01*
X113800000Y-65061928D01*
X112200000Y-65061928D01*
X112075518Y-65074188D01*
X111955820Y-65110498D01*
X111845506Y-65169463D01*
X111748815Y-65248815D01*
X111669463Y-65345506D01*
X111610498Y-65455820D01*
X111574188Y-65575518D01*
X111561928Y-65700000D01*
X111561928Y-67300000D01*
X111574188Y-67424482D01*
X111610498Y-67544180D01*
X111669463Y-67654494D01*
X111748815Y-67751185D01*
X111845506Y-67830537D01*
X111955820Y-67889502D01*
X112075518Y-67925812D01*
X112200000Y-67938072D01*
X113115783Y-67938072D01*
X115306370Y-70128659D01*
X115335656Y-70164344D01*
X115478028Y-70281186D01*
X115580158Y-70335775D01*
X115640459Y-70368007D01*
X115816708Y-70421472D01*
X116000000Y-70439524D01*
X116045935Y-70435000D01*
X117157103Y-70435000D01*
X117139453Y-70440354D01*
X117007423Y-70510926D01*
X116923783Y-70579568D01*
X116891699Y-70605899D01*
X116867901Y-70634897D01*
X103433298Y-84069501D01*
X103404300Y-84093299D01*
X103380502Y-84122297D01*
X103380501Y-84122298D01*
X103309326Y-84209024D01*
X103238754Y-84341054D01*
X103213213Y-84425254D01*
X103195298Y-84484314D01*
X103187154Y-84567001D01*
X103180624Y-84633300D01*
X100710000Y-84633300D01*
X100710000Y-64279872D01*
X103265000Y-64279872D01*
X103265000Y-64720128D01*
X103350890Y-65151925D01*
X103519369Y-65558669D01*
X103763962Y-65924729D01*
X104075271Y-66236038D01*
X104441331Y-66480631D01*
X104848075Y-66649110D01*
X105279872Y-66735000D01*
X105720128Y-66735000D01*
X106151925Y-66649110D01*
X106558669Y-66480631D01*
X106924729Y-66236038D01*
X107236038Y-65924729D01*
X107480631Y-65558669D01*
X107649110Y-65151925D01*
X107735000Y-64720128D01*
X107735000Y-64279872D01*
X107649110Y-63848075D01*
X107480631Y-63441331D01*
X107236038Y-63075271D01*
X106924729Y-62763962D01*
X106558669Y-62519369D01*
X106151925Y-62350890D01*
X105720128Y-62265000D01*
X105279872Y-62265000D01*
X104848075Y-62350890D01*
X104441331Y-62519369D01*
X104075271Y-62763962D01*
X103763962Y-63075271D01*
X103519369Y-63441331D01*
X103350890Y-63848075D01*
X103265000Y-64279872D01*
X100710000Y-64279872D01*
X100710000Y-60710000D01*
X199290000Y-60710000D01*
X199290001Y-134290000D01*
X199290001Y-134290000D01*
G37*
X199290001Y-134290000D02*
X100710000Y-134290000D01*
X100710000Y-130269872D01*
X103275000Y-130269872D01*
X103275000Y-130710128D01*
X103360890Y-131141925D01*
X103529369Y-131548669D01*
X103773962Y-131914729D01*
X104085271Y-132226038D01*
X104451331Y-132470631D01*
X104858075Y-132639110D01*
X105289872Y-132725000D01*
X105730128Y-132725000D01*
X106161925Y-132639110D01*
X106568669Y-132470631D01*
X106934729Y-132226038D01*
X107246038Y-131914729D01*
X107490631Y-131548669D01*
X107659110Y-131141925D01*
X107745000Y-130710128D01*
X107745000Y-130269872D01*
X107659110Y-129838075D01*
X107490631Y-129431331D01*
X107246038Y-129065271D01*
X106934729Y-128753962D01*
X106568669Y-128509369D01*
X106161925Y-128340890D01*
X105730128Y-128255000D01*
X105289872Y-128255000D01*
X104858075Y-128340890D01*
X104451331Y-128509369D01*
X104085271Y-128753962D01*
X103773962Y-129065271D01*
X103529369Y-129431331D01*
X103360890Y-129838075D01*
X103275000Y-130269872D01*
X100710000Y-130269872D01*
X100710000Y-122118665D01*
X116985000Y-122118665D01*
X116985000Y-122401335D01*
X117040147Y-122678574D01*
X117148320Y-122939727D01*
X117305363Y-123174759D01*
X117505241Y-123374637D01*
X117740273Y-123531680D01*
X118001426Y-123639853D01*
X118278665Y-123695000D01*
X118561335Y-123695000D01*
X118838574Y-123639853D01*
X119099727Y-123531680D01*
X119334759Y-123374637D01*
X119534637Y-123174759D01*
X119691680Y-122939727D01*
X119799853Y-122678574D01*
X119855000Y-122401335D01*
X119855000Y-122118665D01*
X119799853Y-121841426D01*
X119691680Y-121580273D01*
X119534637Y-121345241D01*
X119334759Y-121145363D01*
X119099727Y-120988320D01*
X118838574Y-120880147D01*
X118561335Y-120825000D01*
X118278665Y-120825000D01*
X118001426Y-120880147D01*
X117740273Y-120988320D01*
X117505241Y-121145363D01*
X117305363Y-121345241D01*
X117148320Y-121580273D01*
X117040147Y-121841426D01*
X116985000Y-122118665D01*
X100710000Y-122118665D01*
X100710000Y-100149039D01*
X107898096Y-100149039D01*
X107938754Y-100283087D01*
X108058963Y-100537420D01*
X108226481Y-100763414D01*
X108434869Y-100952385D01*
X108676119Y-101097070D01*
X108940960Y-101191909D01*
X109163000Y-101070624D01*
X109163000Y-99927000D01*
X109417000Y-99927000D01*
X109417000Y-101070624D01*
X109639040Y-101191909D01*
X109903881Y-101097070D01*
X110145131Y-100952385D01*
X110353519Y-100763414D01*
X110521037Y-100537420D01*
X110641246Y-100283087D01*
X110681904Y-100149039D01*
X110559915Y-99927000D01*
X109417000Y-99927000D01*
X109163000Y-99927000D01*
X108020085Y-99927000D01*
X107898096Y-100149039D01*
X100710000Y-100149039D01*
X100710000Y-84633300D01*
X103180624Y-84633300D01*
X103184301Y-84670632D01*
X103184300Y-90896077D01*
X103180624Y-90933400D01*
X103184300Y-90970722D01*
X103184300Y-90970732D01*
X103195297Y-91082385D01*
X103232401Y-91204701D01*
X103238754Y-91225646D01*
X103309326Y-91357676D01*
X103328161Y-91380626D01*
X103404299Y-91473401D01*
X103433302Y-91497203D01*
X103954926Y-92018828D01*
X103879294Y-92110986D01*
X103741401Y-92368966D01*
X103656487Y-92648889D01*
X103627815Y-92940000D01*
X103656487Y-93231111D01*
X103741401Y-93511034D01*
X103879294Y-93769014D01*
X104064866Y-93995134D01*
X104290986Y-94180706D01*
X104548966Y-94318599D01*
X104828889Y-94403513D01*
X105047050Y-94425000D01*
X105192950Y-94425000D01*
X105411111Y-94403513D01*
X105691034Y-94318599D01*
X105949014Y-94180706D01*
X105988280Y-94148481D01*
X108184657Y-96344860D01*
X108091068Y-96458899D01*
X107957818Y-96708192D01*
X107875764Y-96978691D01*
X107848057Y-97260000D01*
X107875764Y-97541309D01*
X107957818Y-97811808D01*
X108091068Y-98061101D01*
X108270392Y-98279608D01*
X108488899Y-98458932D01*
X108626682Y-98532579D01*
X108434869Y-98647615D01*
X108226481Y-98836586D01*
X108058963Y-99062580D01*
X107938754Y-99316913D01*
X107898096Y-99450961D01*
X108020085Y-99673000D01*
X109163000Y-99673000D01*
X109163000Y-99653000D01*
X109417000Y-99653000D01*
X109417000Y-99673000D01*
X110559915Y-99673000D01*
X110681904Y-99450961D01*
X110641246Y-99316913D01*
X110521037Y-99062580D01*
X110353519Y-98836586D01*
X110145131Y-98647615D01*
X109953318Y-98532579D01*
X110091101Y-98458932D01*
X110309608Y-98279608D01*
X110488932Y-98061101D01*
X110622182Y-97811808D01*
X110704236Y-97541309D01*
X110731943Y-97260000D01*
X110704236Y-96978691D01*
X110634864Y-96750000D01*
X111034699Y-96750000D01*
X117993101Y-103708403D01*
X118016899Y-103737401D01*
X118132624Y-103832374D01*
X118264653Y-103902946D01*
X118407914Y-103946403D01*
X118519567Y-103957400D01*
X118519577Y-103957400D01*
X118556900Y-103961076D01*
X118594223Y-103957400D01*
X121144098Y-103957400D01*
X118452072Y-106649427D01*
X118452072Y-105455000D01*
X118439812Y-105330518D01*
X118403502Y-105210820D01*
X118344537Y-105100506D01*
X118265185Y-105003815D01*
X118168494Y-104924463D01*
X118058180Y-104865498D01*
X117938482Y-104829188D01*
X117814000Y-104816928D01*
X116114000Y-104816928D01*
X115989518Y-104829188D01*
X115869820Y-104865498D01*
X115759506Y-104924463D01*
X115662815Y-105003815D01*
X115583463Y-105100506D01*
X115524498Y-105210820D01*
X115503607Y-105279687D01*
X115479134Y-105249866D01*
X115253014Y-105064294D01*
X114995034Y-104926401D01*
X114715111Y-104841487D01*
X114496950Y-104820000D01*
X114351050Y-104820000D01*
X114132889Y-104841487D01*
X113852966Y-104926401D01*
X113594986Y-105064294D01*
X113368866Y-105249866D01*
X113183294Y-105475986D01*
X113154000Y-105530791D01*
X113124706Y-105475986D01*
X112939134Y-105249866D01*
X112713014Y-105064294D01*
X112455034Y-104926401D01*
X112175111Y-104841487D01*
X111956950Y-104820000D01*
X111811050Y-104820000D01*
X111592889Y-104841487D01*
X111312966Y-104926401D01*
X111054986Y-105064294D01*
X110828866Y-105249866D01*
X110643294Y-105475986D01*
X110614000Y-105530791D01*
X110584706Y-105475986D01*
X110399134Y-105249866D01*
X110173014Y-105064294D01*
X109915034Y-104926401D01*
X109635111Y-104841487D01*
X109416950Y-104820000D01*
X109271050Y-104820000D01*
X109052889Y-104841487D01*
X108772966Y-104926401D01*
X108514986Y-105064294D01*
X108288866Y-105249866D01*
X108103294Y-105475986D01*
X107965401Y-105733966D01*
X107880487Y-106013889D01*
X107851815Y-106305000D01*
X107880487Y-106596111D01*
X107965401Y-106876034D01*
X108103294Y-107134014D01*
X108288866Y-107360134D01*
X108514986Y-107545706D01*
X108569791Y-107575000D01*
X108514986Y-107604294D01*
X108288866Y-107789866D01*
X108103294Y-108015986D01*
X107965401Y-108273966D01*
X107880487Y-108553889D01*
X107851815Y-108845000D01*
X107880487Y-109136111D01*
X107965401Y-109416034D01*
X108103294Y-109674014D01*
X108288866Y-109900134D01*
X108514986Y-110085706D01*
X108772966Y-110223599D01*
X109052889Y-110308513D01*
X109271050Y-110330000D01*
X109416950Y-110330000D01*
X109635111Y-110308513D01*
X109915034Y-110223599D01*
X110173014Y-110085706D01*
X110399134Y-109900134D01*
X110584706Y-109674014D01*
X110614000Y-109619209D01*
X110643294Y-109674014D01*
X110828866Y-109900134D01*
X111054986Y-110085706D01*
X111312966Y-110223599D01*
X111592889Y-110308513D01*
X111811050Y-110330000D01*
X111956950Y-110330000D01*
X112175111Y-110308513D01*
X112455034Y-110223599D01*
X112713014Y-110085706D01*
X112939134Y-109900134D01*
X113124706Y-109674014D01*
X113154000Y-109619209D01*
X113183294Y-109674014D01*
X113368866Y-109900134D01*
X113594986Y-110085706D01*
X113852966Y-110223599D01*
X114132889Y-110308513D01*
X114351050Y-110330000D01*
X114496950Y-110330000D01*
X114715111Y-110308513D01*
X114995034Y-110223599D01*
X115253014Y-110085706D01*
X115479134Y-109900134D01*
X115664706Y-109674014D01*
X115694000Y-109619209D01*
X115723294Y-109674014D01*
X115908866Y-109900134D01*
X116134986Y-110085706D01*
X116392966Y-110223599D01*
X116672889Y-110308513D01*
X116891050Y-110330000D01*
X117036950Y-110330000D01*
X117255111Y-110308513D01*
X117535034Y-110223599D01*
X117793014Y-110085706D01*
X118019134Y-109900134D01*
X118204706Y-109674014D01*
X118245205Y-109598246D01*
X118288286Y-109594003D01*
X118431547Y-109550546D01*
X118563576Y-109479974D01*
X118679301Y-109385001D01*
X118774274Y-109269276D01*
X118844846Y-109137247D01*
X118888303Y-108993986D01*
X118899300Y-108882333D01*
X118902977Y-108845000D01*
X118899300Y-108807667D01*
X118899300Y-108351801D01*
X121235928Y-106015174D01*
X121235928Y-106418000D01*
X121248188Y-106542482D01*
X121284498Y-106662180D01*
X121343463Y-106772494D01*
X121365839Y-106799759D01*
X121037702Y-107127896D01*
X121008699Y-107151699D01*
X120953571Y-107218874D01*
X120913726Y-107267424D01*
X120883484Y-107324003D01*
X120843154Y-107399454D01*
X120799697Y-107542715D01*
X120788700Y-107654368D01*
X120788700Y-107654378D01*
X120785024Y-107691700D01*
X120788700Y-107729022D01*
X120788701Y-116311468D01*
X120785024Y-116348800D01*
X120799698Y-116497785D01*
X120843154Y-116641046D01*
X120913726Y-116773076D01*
X120975980Y-116848932D01*
X121008700Y-116888801D01*
X121037698Y-116912599D01*
X121550312Y-117425214D01*
X121475068Y-117516899D01*
X121341818Y-117766192D01*
X121259764Y-118036691D01*
X121250962Y-118126060D01*
X117216172Y-114091271D01*
X117182301Y-114049999D01*
X117066576Y-113955026D01*
X116934547Y-113884454D01*
X116791286Y-113840997D01*
X116748205Y-113836754D01*
X116707706Y-113760986D01*
X116522134Y-113534866D01*
X116296014Y-113349294D01*
X116038034Y-113211401D01*
X115758111Y-113126487D01*
X115539950Y-113105000D01*
X115394050Y-113105000D01*
X115175889Y-113126487D01*
X114895966Y-113211401D01*
X114637986Y-113349294D01*
X114411866Y-113534866D01*
X114226294Y-113760986D01*
X114197000Y-113815791D01*
X114167706Y-113760986D01*
X113982134Y-113534866D01*
X113756014Y-113349294D01*
X113498034Y-113211401D01*
X113218111Y-113126487D01*
X112999950Y-113105000D01*
X112854050Y-113105000D01*
X112635889Y-113126487D01*
X112355966Y-113211401D01*
X112097986Y-113349294D01*
X111871866Y-113534866D01*
X111847393Y-113564687D01*
X111826502Y-113495820D01*
X111767537Y-113385506D01*
X111688185Y-113288815D01*
X111591494Y-113209463D01*
X111481180Y-113150498D01*
X111361482Y-113114188D01*
X111237000Y-113101928D01*
X109537000Y-113101928D01*
X109412518Y-113114188D01*
X109292820Y-113150498D01*
X109182506Y-113209463D01*
X109085815Y-113288815D01*
X109006463Y-113385506D01*
X108947498Y-113495820D01*
X108911188Y-113615518D01*
X108898928Y-113740000D01*
X108898928Y-115440000D01*
X108911188Y-115564482D01*
X108947498Y-115684180D01*
X109006463Y-115794494D01*
X109085815Y-115891185D01*
X109182506Y-115970537D01*
X109292820Y-116029502D01*
X109412518Y-116065812D01*
X109537000Y-116078072D01*
X111237000Y-116078072D01*
X111361482Y-116065812D01*
X111481180Y-116029502D01*
X111591494Y-115970537D01*
X111688185Y-115891185D01*
X111767537Y-115794494D01*
X111826502Y-115684180D01*
X111847393Y-115615313D01*
X111871866Y-115645134D01*
X112097986Y-115830706D01*
X112355966Y-115968599D01*
X112635889Y-116053513D01*
X112854050Y-116075000D01*
X112999950Y-116075000D01*
X113218111Y-116053513D01*
X113498034Y-115968599D01*
X113756014Y-115830706D01*
X113982134Y-115645134D01*
X114167706Y-115419014D01*
X114197000Y-115364209D01*
X114226294Y-115419014D01*
X114411866Y-115645134D01*
X114637986Y-115830706D01*
X114895966Y-115968599D01*
X115175889Y-116053513D01*
X115394050Y-116075000D01*
X115539950Y-116075000D01*
X115758111Y-116053513D01*
X116038034Y-115968599D01*
X116296014Y-115830706D01*
X116522134Y-115645134D01*
X116566443Y-115591144D01*
X120749901Y-119774603D01*
X120749900Y-127448478D01*
X120746224Y-127485800D01*
X120749900Y-127523122D01*
X120749900Y-127523132D01*
X120760897Y-127634785D01*
X120803002Y-127773589D01*
X120804354Y-127778046D01*
X120824382Y-127815516D01*
X117908998Y-130730901D01*
X117880000Y-130754699D01*
X117856202Y-130783697D01*
X117856201Y-130783698D01*
X117785026Y-130870424D01*
X117714454Y-131002454D01*
X117688560Y-131087818D01*
X117672148Y-131141925D01*
X117670998Y-131145715D01*
X117666059Y-131195860D01*
X117618899Y-131221068D01*
X117400392Y-131400392D01*
X117221068Y-131618899D01*
X117087818Y-131868192D01*
X117005764Y-132138691D01*
X116978057Y-132420000D01*
X117005764Y-132701309D01*
X117087818Y-132971808D01*
X117221068Y-133221101D01*
X117400392Y-133439608D01*
X117618899Y-133618932D01*
X117868192Y-133752182D01*
X118138691Y-133834236D01*
X118349508Y-133855000D01*
X118490492Y-133855000D01*
X118701309Y-133834236D01*
X118971808Y-133752182D01*
X119221101Y-133618932D01*
X119439608Y-133439608D01*
X119618932Y-133221101D01*
X119752182Y-132971808D01*
X119834236Y-132701309D01*
X119861943Y-132420000D01*
X119834236Y-132138691D01*
X119752182Y-131868192D01*
X119618932Y-131618899D01*
X119439608Y-131400392D01*
X119411872Y-131377629D01*
X120519629Y-130269872D01*
X192265000Y-130269872D01*
X192265000Y-130710128D01*
X192350890Y-131141925D01*
X192519369Y-131548669D01*
X192763962Y-131914729D01*
X193075271Y-132226038D01*
X193441331Y-132470631D01*
X193848075Y-132639110D01*
X194279872Y-132725000D01*
X194720128Y-132725000D01*
X195151925Y-132639110D01*
X195558669Y-132470631D01*
X195924729Y-132226038D01*
X196236038Y-131914729D01*
X196480631Y-131548669D01*
X196649110Y-131141925D01*
X196735000Y-130710128D01*
X196735000Y-130269872D01*
X196649110Y-129838075D01*
X196480631Y-129431331D01*
X196236038Y-129065271D01*
X195924729Y-128753962D01*
X195558669Y-128509369D01*
X195151925Y-128340890D01*
X194720128Y-128255000D01*
X194279872Y-128255000D01*
X193848075Y-128340890D01*
X193441331Y-128509369D01*
X193075271Y-128753962D01*
X192763962Y-129065271D01*
X192519369Y-129431331D01*
X192350890Y-129838075D01*
X192265000Y-130269872D01*
X120519629Y-130269872D01*
X121460164Y-129329338D01*
X121489320Y-129399727D01*
X121646363Y-129634759D01*
X121846241Y-129834637D01*
X122081273Y-129991680D01*
X122342426Y-130099853D01*
X122619665Y-130155000D01*
X122902335Y-130155000D01*
X123179574Y-130099853D01*
X123440727Y-129991680D01*
X123675759Y-129834637D01*
X123875637Y-129634759D01*
X124032680Y-129399727D01*
X124140853Y-129138574D01*
X124196000Y-128861335D01*
X124196000Y-128660000D01*
X124771928Y-128660000D01*
X124784188Y-128784482D01*
X124820498Y-128904180D01*
X124879463Y-129014494D01*
X124958815Y-129111185D01*
X125055506Y-129190537D01*
X125165820Y-129249502D01*
X125285518Y-129285812D01*
X125410000Y-129298072D01*
X125874250Y-129295000D01*
X126033000Y-129136250D01*
X126033000Y-128037000D01*
X124933750Y-128037000D01*
X124775000Y-128195750D01*
X124771928Y-128660000D01*
X124196000Y-128660000D01*
X124196000Y-128578665D01*
X124140853Y-128301426D01*
X124032680Y-128040273D01*
X123875637Y-127805241D01*
X123675759Y-127605363D01*
X123473173Y-127470000D01*
X123675759Y-127334637D01*
X123875637Y-127134759D01*
X123979043Y-126980000D01*
X124801029Y-126980000D01*
X124784188Y-127035518D01*
X124771928Y-127160000D01*
X124775000Y-127624250D01*
X124933750Y-127783000D01*
X126033000Y-127783000D01*
X126033000Y-127763000D01*
X126287000Y-127763000D01*
X126287000Y-127783000D01*
X126307000Y-127783000D01*
X126307000Y-128037000D01*
X126287000Y-128037000D01*
X126287000Y-129136250D01*
X126445750Y-129295000D01*
X126910000Y-129298072D01*
X127034482Y-129285812D01*
X127154180Y-129249502D01*
X127264494Y-129190537D01*
X127361185Y-129111185D01*
X127440537Y-129014494D01*
X127499502Y-128904180D01*
X127535812Y-128784482D01*
X127546445Y-128676517D01*
X127624201Y-128792886D01*
X127817114Y-128985799D01*
X128043957Y-129137371D01*
X128296011Y-129241775D01*
X128563589Y-129295000D01*
X128836411Y-129295000D01*
X129103989Y-129241775D01*
X129356043Y-129137371D01*
X129582886Y-128985799D01*
X129775799Y-128792886D01*
X129927371Y-128566043D01*
X129970000Y-128463127D01*
X130012629Y-128566043D01*
X130164201Y-128792886D01*
X130357114Y-128985799D01*
X130583957Y-129137371D01*
X130836011Y-129241775D01*
X131103589Y-129295000D01*
X131376411Y-129295000D01*
X131643989Y-129241775D01*
X131896043Y-129137371D01*
X132122886Y-128985799D01*
X132315799Y-128792886D01*
X132467371Y-128566043D01*
X132571775Y-128313989D01*
X132625000Y-128046411D01*
X132625000Y-127773589D01*
X132580260Y-127548665D01*
X134205000Y-127548665D01*
X134205000Y-127831335D01*
X134260147Y-128108574D01*
X134368320Y-128369727D01*
X134525363Y-128604759D01*
X134725241Y-128804637D01*
X134960273Y-128961680D01*
X135221426Y-129069853D01*
X135498665Y-129125000D01*
X135781335Y-129125000D01*
X136058574Y-129069853D01*
X136319727Y-128961680D01*
X136554759Y-128804637D01*
X136754637Y-128604759D01*
X136911680Y-128369727D01*
X137019853Y-128108574D01*
X137075000Y-127831335D01*
X137075000Y-127690000D01*
X144358057Y-127690000D01*
X144385764Y-127971309D01*
X144467818Y-128241808D01*
X144601068Y-128491101D01*
X144780392Y-128709608D01*
X144998899Y-128888932D01*
X145248192Y-129022182D01*
X145518691Y-129104236D01*
X145729508Y-129125000D01*
X145870492Y-129125000D01*
X146081309Y-129104236D01*
X146351808Y-129022182D01*
X146601101Y-128888932D01*
X146819608Y-128709608D01*
X146998932Y-128491101D01*
X147132182Y-128241808D01*
X147214236Y-127971309D01*
X147241943Y-127690000D01*
X147214236Y-127408691D01*
X147164290Y-127244039D01*
X150088096Y-127244039D01*
X150128754Y-127378087D01*
X150248963Y-127632420D01*
X150416481Y-127858414D01*
X150624869Y-128047385D01*
X150866119Y-128192070D01*
X151130960Y-128286909D01*
X151353000Y-128165624D01*
X151353000Y-127022000D01*
X151607000Y-127022000D01*
X151607000Y-128165624D01*
X151829040Y-128286909D01*
X152093881Y-128192070D01*
X152335131Y-128047385D01*
X152543519Y-127858414D01*
X152711037Y-127632420D01*
X152831246Y-127378087D01*
X152871904Y-127244039D01*
X152749915Y-127022000D01*
X151607000Y-127022000D01*
X151353000Y-127022000D01*
X150210085Y-127022000D01*
X150088096Y-127244039D01*
X147164290Y-127244039D01*
X147132182Y-127138192D01*
X146998932Y-126888899D01*
X146819608Y-126670392D01*
X146601101Y-126491068D01*
X146351808Y-126357818D01*
X146081309Y-126275764D01*
X145870492Y-126255000D01*
X145729508Y-126255000D01*
X145518691Y-126275764D01*
X145248192Y-126357818D01*
X144998899Y-126491068D01*
X144780392Y-126670392D01*
X144601068Y-126888899D01*
X144467818Y-127138192D01*
X144385764Y-127408691D01*
X144358057Y-127690000D01*
X137075000Y-127690000D01*
X137075000Y-127548665D01*
X137019853Y-127271426D01*
X136911680Y-127010273D01*
X136754637Y-126775241D01*
X136554759Y-126575363D01*
X136319727Y-126418320D01*
X136058574Y-126310147D01*
X135781335Y-126255000D01*
X135498665Y-126255000D01*
X135221426Y-126310147D01*
X134960273Y-126418320D01*
X134725241Y-126575363D01*
X134525363Y-126775241D01*
X134368320Y-127010273D01*
X134260147Y-127271426D01*
X134205000Y-127548665D01*
X132580260Y-127548665D01*
X132571775Y-127506011D01*
X132467371Y-127253957D01*
X132315799Y-127027114D01*
X132122886Y-126834201D01*
X131896043Y-126682629D01*
X131643989Y-126578225D01*
X131376411Y-126525000D01*
X131103589Y-126525000D01*
X130958635Y-126553833D01*
X130113804Y-125709003D01*
X130090001Y-125679999D01*
X129974276Y-125585026D01*
X129842247Y-125514454D01*
X129698986Y-125470997D01*
X129587333Y-125460000D01*
X129587322Y-125460000D01*
X129550000Y-125456324D01*
X129512678Y-125460000D01*
X123979043Y-125460000D01*
X123875637Y-125305241D01*
X123675759Y-125105363D01*
X123440727Y-124948320D01*
X123179574Y-124840147D01*
X122902335Y-124785000D01*
X122619665Y-124785000D01*
X122342426Y-124840147D01*
X122269900Y-124870188D01*
X122269900Y-122230192D01*
X122324960Y-122249909D01*
X122547000Y-122128624D01*
X122547000Y-120985000D01*
X122801000Y-120985000D01*
X122801000Y-122128624D01*
X123023040Y-122249909D01*
X123287881Y-122155070D01*
X123529131Y-122010385D01*
X123737519Y-121821414D01*
X123905037Y-121595420D01*
X124025246Y-121341087D01*
X124065904Y-121207039D01*
X123943915Y-120985000D01*
X122801000Y-120985000D01*
X122547000Y-120985000D01*
X122527000Y-120985000D01*
X122527000Y-120731000D01*
X122547000Y-120731000D01*
X122547000Y-120711000D01*
X122801000Y-120711000D01*
X122801000Y-120731000D01*
X123943915Y-120731000D01*
X124065904Y-120508961D01*
X124025246Y-120374913D01*
X123905037Y-120120580D01*
X123772638Y-119941963D01*
X125244504Y-118470098D01*
X125273501Y-118446301D01*
X125368474Y-118330576D01*
X125439046Y-118198547D01*
X125482503Y-118055286D01*
X125493500Y-117943633D01*
X125493500Y-117943625D01*
X125497176Y-117906300D01*
X125493500Y-117868975D01*
X125493500Y-114931401D01*
X129036108Y-111388794D01*
X129095068Y-111499101D01*
X129274392Y-111717608D01*
X129492899Y-111896932D01*
X129625858Y-111968000D01*
X129492899Y-112039068D01*
X129274392Y-112218392D01*
X129095068Y-112436899D01*
X128961818Y-112686192D01*
X128879764Y-112956691D01*
X128852057Y-113238000D01*
X128879764Y-113519309D01*
X128961818Y-113789808D01*
X129095068Y-114039101D01*
X129274392Y-114257608D01*
X129492899Y-114436932D01*
X129625858Y-114508000D01*
X129492899Y-114579068D01*
X129274392Y-114758392D01*
X129095068Y-114976899D01*
X128961818Y-115226192D01*
X128879764Y-115496691D01*
X128852057Y-115778000D01*
X128879764Y-116059309D01*
X128961818Y-116329808D01*
X129095068Y-116579101D01*
X129274392Y-116797608D01*
X129492899Y-116976932D01*
X129625858Y-117048000D01*
X129492899Y-117119068D01*
X129274392Y-117298392D01*
X129095068Y-117516899D01*
X128961818Y-117766192D01*
X128879764Y-118036691D01*
X128852057Y-118318000D01*
X128879764Y-118599309D01*
X128961818Y-118869808D01*
X129095068Y-119119101D01*
X129274392Y-119337608D01*
X129492899Y-119516932D01*
X129625858Y-119588000D01*
X129492899Y-119659068D01*
X129274392Y-119838392D01*
X129095068Y-120056899D01*
X128961818Y-120306192D01*
X128879764Y-120576691D01*
X128852057Y-120858000D01*
X128879764Y-121139309D01*
X128961818Y-121409808D01*
X129095068Y-121659101D01*
X129274392Y-121877608D01*
X129492899Y-122056932D01*
X129742192Y-122190182D01*
X130012691Y-122272236D01*
X130223508Y-122293000D01*
X130364492Y-122293000D01*
X130575309Y-122272236D01*
X130845808Y-122190182D01*
X131095101Y-122056932D01*
X131313608Y-121877608D01*
X131492932Y-121659101D01*
X131626182Y-121409808D01*
X131708236Y-121139309D01*
X131714172Y-121079039D01*
X136142096Y-121079039D01*
X136182754Y-121213087D01*
X136302963Y-121467420D01*
X136470481Y-121693414D01*
X136678869Y-121882385D01*
X136920119Y-122027070D01*
X137184960Y-122121909D01*
X137407000Y-122000624D01*
X137407000Y-120857000D01*
X137661000Y-120857000D01*
X137661000Y-122000624D01*
X137883040Y-122121909D01*
X138147881Y-122027070D01*
X138389131Y-121882385D01*
X138597519Y-121693414D01*
X138765037Y-121467420D01*
X138885246Y-121213087D01*
X138925904Y-121079039D01*
X138803915Y-120857000D01*
X137661000Y-120857000D01*
X137407000Y-120857000D01*
X136264085Y-120857000D01*
X136142096Y-121079039D01*
X131714172Y-121079039D01*
X131735943Y-120858000D01*
X131708236Y-120576691D01*
X131626182Y-120306192D01*
X131492932Y-120056899D01*
X131313608Y-119838392D01*
X131095101Y-119659068D01*
X130962142Y-119588000D01*
X131095101Y-119516932D01*
X131313608Y-119337608D01*
X131492932Y-119119101D01*
X131626182Y-118869808D01*
X131708236Y-118599309D01*
X131735943Y-118318000D01*
X131708236Y-118036691D01*
X131626182Y-117766192D01*
X131492932Y-117516899D01*
X131313608Y-117298392D01*
X131095101Y-117119068D01*
X130962142Y-117048000D01*
X131095101Y-116976932D01*
X131313608Y-116797608D01*
X131492932Y-116579101D01*
X131626182Y-116329808D01*
X131708236Y-116059309D01*
X131735943Y-115778000D01*
X131708236Y-115496691D01*
X131626182Y-115226192D01*
X131492932Y-114976899D01*
X131313608Y-114758392D01*
X131095101Y-114579068D01*
X130962142Y-114508000D01*
X131095101Y-114436932D01*
X131313608Y-114257608D01*
X131492932Y-114039101D01*
X131626182Y-113789808D01*
X131708236Y-113519309D01*
X131735943Y-113238000D01*
X131708236Y-112956691D01*
X131626182Y-112686192D01*
X131492932Y-112436899D01*
X131365859Y-112282060D01*
X136397105Y-117313307D01*
X136335068Y-117388899D01*
X136201818Y-117638192D01*
X136119764Y-117908691D01*
X136092057Y-118190000D01*
X136119764Y-118471309D01*
X136201818Y-118741808D01*
X136335068Y-118991101D01*
X136514392Y-119209608D01*
X136732899Y-119388932D01*
X136870682Y-119462579D01*
X136678869Y-119577615D01*
X136470481Y-119766586D01*
X136302963Y-119992580D01*
X136182754Y-120246913D01*
X136142096Y-120380961D01*
X136264085Y-120603000D01*
X137407000Y-120603000D01*
X137407000Y-120583000D01*
X137661000Y-120583000D01*
X137661000Y-120603000D01*
X138803915Y-120603000D01*
X138925904Y-120380961D01*
X138885246Y-120246913D01*
X138765037Y-119992580D01*
X138597519Y-119766586D01*
X138389131Y-119577615D01*
X138197318Y-119462579D01*
X138335101Y-119388932D01*
X138553608Y-119209608D01*
X138732932Y-118991101D01*
X138866182Y-118741808D01*
X138948236Y-118471309D01*
X138975943Y-118190000D01*
X138948236Y-117908691D01*
X138922758Y-117824700D01*
X142588599Y-117824700D01*
X143464901Y-118701003D01*
X143488699Y-118730001D01*
X143555318Y-118784674D01*
X143604424Y-118824974D01*
X143736453Y-118895546D01*
X143879714Y-118939003D01*
X143929861Y-118943942D01*
X143955068Y-118991101D01*
X144134392Y-119209608D01*
X144352899Y-119388932D01*
X144485858Y-119460000D01*
X144352899Y-119531068D01*
X144134392Y-119710392D01*
X143955068Y-119928899D01*
X143821818Y-120178192D01*
X143739764Y-120448691D01*
X143712057Y-120730000D01*
X143739764Y-121011309D01*
X143821818Y-121281808D01*
X143955068Y-121531101D01*
X144134392Y-121749608D01*
X144352899Y-121928932D01*
X144602192Y-122062182D01*
X144872691Y-122144236D01*
X145083508Y-122165000D01*
X145224492Y-122165000D01*
X145435309Y-122144236D01*
X145705808Y-122062182D01*
X145955101Y-121928932D01*
X146173608Y-121749608D01*
X146352932Y-121531101D01*
X146486182Y-121281808D01*
X146568236Y-121011309D01*
X146595943Y-120730000D01*
X146568236Y-120448691D01*
X146486182Y-120178192D01*
X146352932Y-119928899D01*
X146173608Y-119710392D01*
X145955101Y-119531068D01*
X145822142Y-119460000D01*
X145955101Y-119388932D01*
X146173608Y-119209608D01*
X146352932Y-118991101D01*
X146486182Y-118741808D01*
X146568236Y-118471309D01*
X146595943Y-118190000D01*
X146568236Y-117908691D01*
X146486182Y-117638192D01*
X146352932Y-117388899D01*
X146173608Y-117170392D01*
X145955101Y-116991068D01*
X145822142Y-116920000D01*
X145955101Y-116848932D01*
X146173608Y-116669608D01*
X146352932Y-116451101D01*
X146437843Y-116292244D01*
X149621421Y-119475823D01*
X149649154Y-119567247D01*
X149719726Y-119699276D01*
X149773932Y-119765326D01*
X149814699Y-119815001D01*
X149930424Y-119909974D01*
X150062453Y-119980546D01*
X150205714Y-120024003D01*
X150255861Y-120028942D01*
X150281068Y-120076101D01*
X150460392Y-120294608D01*
X150678899Y-120473932D01*
X150811858Y-120545000D01*
X150678899Y-120616068D01*
X150460392Y-120795392D01*
X150281068Y-121013899D01*
X150147818Y-121263192D01*
X150065764Y-121533691D01*
X150038057Y-121815000D01*
X150065764Y-122096309D01*
X150147818Y-122366808D01*
X150281068Y-122616101D01*
X150460392Y-122834608D01*
X150678899Y-123013932D01*
X150811858Y-123085000D01*
X150678899Y-123156068D01*
X150460392Y-123335392D01*
X150281068Y-123553899D01*
X150147818Y-123803192D01*
X150065764Y-124073691D01*
X150038057Y-124355000D01*
X150065764Y-124636309D01*
X150147818Y-124906808D01*
X150281068Y-125156101D01*
X150460392Y-125374608D01*
X150678899Y-125553932D01*
X150816682Y-125627579D01*
X150624869Y-125742615D01*
X150416481Y-125931586D01*
X150248963Y-126157580D01*
X150128754Y-126411913D01*
X150088096Y-126545961D01*
X150210085Y-126768000D01*
X151353000Y-126768000D01*
X151353000Y-126748000D01*
X151607000Y-126748000D01*
X151607000Y-126768000D01*
X152749915Y-126768000D01*
X152871904Y-126545961D01*
X152831246Y-126411913D01*
X152711037Y-126157580D01*
X152543519Y-125931586D01*
X152335131Y-125742615D01*
X152143318Y-125627579D01*
X152281101Y-125553932D01*
X152499608Y-125374608D01*
X152522370Y-125346872D01*
X153177801Y-126002303D01*
X153201599Y-126031301D01*
X153317324Y-126126274D01*
X153449353Y-126196846D01*
X153592614Y-126240303D01*
X153704267Y-126251300D01*
X153704277Y-126251300D01*
X153741600Y-126254976D01*
X153778923Y-126251300D01*
X165436935Y-126251300D01*
X165387818Y-126343192D01*
X165305764Y-126613691D01*
X165278057Y-126895000D01*
X165305764Y-127176309D01*
X165387818Y-127446808D01*
X165521068Y-127696101D01*
X165700392Y-127914608D01*
X165918899Y-128093932D01*
X166168192Y-128227182D01*
X166438691Y-128309236D01*
X166649508Y-128330000D01*
X166790492Y-128330000D01*
X167001309Y-128309236D01*
X167271808Y-128227182D01*
X167521101Y-128093932D01*
X167739608Y-127914608D01*
X167918932Y-127696101D01*
X167940901Y-127655000D01*
X171767378Y-127655000D01*
X171804700Y-127658676D01*
X171842022Y-127655000D01*
X171842033Y-127655000D01*
X171953686Y-127644003D01*
X172096947Y-127600546D01*
X172228976Y-127529974D01*
X172344701Y-127435001D01*
X172368504Y-127405998D01*
X172530463Y-127244039D01*
X172948096Y-127244039D01*
X172988754Y-127378087D01*
X173108963Y-127632420D01*
X173276481Y-127858414D01*
X173484869Y-128047385D01*
X173726119Y-128192070D01*
X173990960Y-128286909D01*
X174213000Y-128165624D01*
X174213000Y-127022000D01*
X174467000Y-127022000D01*
X174467000Y-128165624D01*
X174689040Y-128286909D01*
X174953881Y-128192070D01*
X175195131Y-128047385D01*
X175403519Y-127858414D01*
X175571037Y-127632420D01*
X175691246Y-127378087D01*
X175731904Y-127244039D01*
X175609915Y-127022000D01*
X174467000Y-127022000D01*
X174213000Y-127022000D01*
X173070085Y-127022000D01*
X172948096Y-127244039D01*
X172530463Y-127244039D01*
X173047539Y-126726963D01*
X173070085Y-126768000D01*
X174213000Y-126768000D01*
X174213000Y-126748000D01*
X174467000Y-126748000D01*
X174467000Y-126768000D01*
X175609915Y-126768000D01*
X175731904Y-126545961D01*
X175726972Y-126529700D01*
X188191242Y-126529700D01*
X188165764Y-126613691D01*
X188138057Y-126895000D01*
X188165764Y-127176309D01*
X188247818Y-127446808D01*
X188381068Y-127696101D01*
X188560392Y-127914608D01*
X188778899Y-128093932D01*
X189028192Y-128227182D01*
X189298691Y-128309236D01*
X189509508Y-128330000D01*
X189650492Y-128330000D01*
X189861309Y-128309236D01*
X190131808Y-128227182D01*
X190381101Y-128093932D01*
X190599608Y-127914608D01*
X190778932Y-127696101D01*
X190912182Y-127446808D01*
X190994236Y-127176309D01*
X191021943Y-126895000D01*
X190994236Y-126613691D01*
X190912182Y-126343192D01*
X190778932Y-126093899D01*
X190703643Y-126002159D01*
X195426404Y-121279398D01*
X195455401Y-121255601D01*
X195550374Y-121139876D01*
X195620946Y-121007847D01*
X195664403Y-120864586D01*
X195675400Y-120752933D01*
X195675400Y-120752925D01*
X195679076Y-120715600D01*
X195675400Y-120678275D01*
X195675400Y-103243065D01*
X195928966Y-103378599D01*
X196208889Y-103463513D01*
X196427050Y-103485000D01*
X196572950Y-103485000D01*
X196791111Y-103463513D01*
X197071034Y-103378599D01*
X197329014Y-103240706D01*
X197555134Y-103055134D01*
X197740706Y-102829014D01*
X197878599Y-102571034D01*
X197963513Y-102291111D01*
X197992185Y-102000000D01*
X197963513Y-101708889D01*
X197878599Y-101428966D01*
X197740706Y-101170986D01*
X197555134Y-100944866D01*
X197329014Y-100759294D01*
X197274209Y-100730000D01*
X197329014Y-100700706D01*
X197555134Y-100515134D01*
X197740706Y-100289014D01*
X197878599Y-100031034D01*
X197963513Y-99751111D01*
X197992185Y-99460000D01*
X197963513Y-99168889D01*
X197878599Y-98888966D01*
X197740706Y-98630986D01*
X197675396Y-98551405D01*
X198643804Y-97582998D01*
X198672801Y-97559201D01*
X198767774Y-97443476D01*
X198838346Y-97311447D01*
X198881803Y-97168186D01*
X198892800Y-97056533D01*
X198892800Y-97056524D01*
X198896476Y-97019201D01*
X198892800Y-96981878D01*
X198892800Y-76978122D01*
X198896476Y-76940799D01*
X198892800Y-76903476D01*
X198892800Y-76903467D01*
X198881803Y-76791814D01*
X198838346Y-76648553D01*
X198810564Y-76596577D01*
X198767774Y-76516523D01*
X198696599Y-76429797D01*
X198672801Y-76400799D01*
X198643803Y-76377001D01*
X197412151Y-75145350D01*
X197439502Y-75094180D01*
X197475812Y-74974482D01*
X197488072Y-74850000D01*
X197488072Y-73150000D01*
X197475812Y-73025518D01*
X197439502Y-72905820D01*
X197380537Y-72795506D01*
X197301185Y-72698815D01*
X197204494Y-72619463D01*
X197094180Y-72560498D01*
X196974482Y-72524188D01*
X196850000Y-72511928D01*
X195150000Y-72511928D01*
X195025518Y-72524188D01*
X194905820Y-72560498D01*
X194795506Y-72619463D01*
X194698815Y-72698815D01*
X194619463Y-72795506D01*
X194588791Y-72852889D01*
X186095404Y-64359503D01*
X186071601Y-64330499D01*
X186009912Y-64279872D01*
X192265000Y-64279872D01*
X192265000Y-64720128D01*
X192350890Y-65151925D01*
X192519369Y-65558669D01*
X192763962Y-65924729D01*
X193075271Y-66236038D01*
X193441331Y-66480631D01*
X193848075Y-66649110D01*
X194279872Y-66735000D01*
X194720128Y-66735000D01*
X195151925Y-66649110D01*
X195558669Y-66480631D01*
X195924729Y-66236038D01*
X196236038Y-65924729D01*
X196480631Y-65558669D01*
X196649110Y-65151925D01*
X196735000Y-64720128D01*
X196735000Y-64279872D01*
X196649110Y-63848075D01*
X196480631Y-63441331D01*
X196236038Y-63075271D01*
X195924729Y-62763962D01*
X195558669Y-62519369D01*
X195151925Y-62350890D01*
X194720128Y-62265000D01*
X194279872Y-62265000D01*
X193848075Y-62350890D01*
X193441331Y-62519369D01*
X193075271Y-62763962D01*
X192763962Y-63075271D01*
X192519369Y-63441331D01*
X192350890Y-63848075D01*
X192265000Y-64279872D01*
X186009912Y-64279872D01*
X185955876Y-64235526D01*
X185823847Y-64164954D01*
X185680586Y-64121497D01*
X185568933Y-64110500D01*
X185568922Y-64110500D01*
X185531600Y-64106824D01*
X185494278Y-64110500D01*
X140644122Y-64110500D01*
X140606799Y-64106824D01*
X140569476Y-64110500D01*
X140569467Y-64110500D01*
X140457814Y-64121497D01*
X140314553Y-64164954D01*
X140182524Y-64235526D01*
X140182522Y-64235527D01*
X140182523Y-64235527D01*
X140095796Y-64306701D01*
X140095792Y-64306705D01*
X140066799Y-64330499D01*
X140043005Y-64359492D01*
X138623366Y-65779133D01*
X138536606Y-65707931D01*
X138276264Y-65568775D01*
X137993777Y-65483084D01*
X137773619Y-65461400D01*
X137626381Y-65461400D01*
X137406223Y-65483084D01*
X137123736Y-65568775D01*
X136863394Y-65707931D01*
X136635203Y-65895203D01*
X136447931Y-66123394D01*
X136430000Y-66156940D01*
X136412069Y-66123394D01*
X136224797Y-65895203D01*
X135996606Y-65707931D01*
X135736264Y-65568775D01*
X135453777Y-65483084D01*
X135233619Y-65461400D01*
X135086381Y-65461400D01*
X134866223Y-65483084D01*
X134583736Y-65568775D01*
X134323394Y-65707931D01*
X134095203Y-65895203D01*
X133907931Y-66123394D01*
X133890000Y-66156940D01*
X133872069Y-66123394D01*
X133684797Y-65895203D01*
X133456606Y-65707931D01*
X133196264Y-65568775D01*
X132913777Y-65483084D01*
X132693619Y-65461400D01*
X132546381Y-65461400D01*
X132326223Y-65483084D01*
X132043736Y-65568775D01*
X131783394Y-65707931D01*
X131555203Y-65895203D01*
X131367931Y-66123394D01*
X131350000Y-66156940D01*
X131332069Y-66123394D01*
X131144797Y-65895203D01*
X130916606Y-65707931D01*
X130656264Y-65568775D01*
X130373777Y-65483084D01*
X130153619Y-65461400D01*
X130006381Y-65461400D01*
X129786223Y-65483084D01*
X129503736Y-65568775D01*
X129243394Y-65707931D01*
X129015203Y-65895203D01*
X128827931Y-66123394D01*
X128804137Y-66167910D01*
X128746817Y-66071512D01*
X128550293Y-65853146D01*
X128314944Y-65677316D01*
X128049814Y-65550778D01*
X127899026Y-65505042D01*
X127667000Y-65626183D01*
X127667000Y-66833000D01*
X127687000Y-66833000D01*
X127687000Y-67087000D01*
X127667000Y-67087000D01*
X127667000Y-67107000D01*
X127413000Y-67107000D01*
X127413000Y-67087000D01*
X125127000Y-67087000D01*
X125127000Y-67107000D01*
X124873000Y-67107000D01*
X124873000Y-67087000D01*
X123665536Y-67087000D01*
X123545037Y-67319027D01*
X123643036Y-67595978D01*
X123793183Y-67848488D01*
X123954692Y-68027947D01*
X123892220Y-68046898D01*
X123781906Y-68105863D01*
X123685215Y-68185215D01*
X123605863Y-68281906D01*
X123546898Y-68392220D01*
X123510588Y-68511918D01*
X123505360Y-68565000D01*
X116387289Y-68565000D01*
X115737730Y-67915441D01*
X115850130Y-67898787D01*
X116116292Y-67803603D01*
X116241514Y-67736671D01*
X116313097Y-67492702D01*
X115500000Y-66679605D01*
X115485858Y-66693748D01*
X115306253Y-66514143D01*
X115320395Y-66500000D01*
X115679605Y-66500000D01*
X116492702Y-67313097D01*
X116736671Y-67241514D01*
X116857571Y-66986004D01*
X116926300Y-66711816D01*
X116931763Y-66600973D01*
X123545037Y-66600973D01*
X123665536Y-66833000D01*
X124873000Y-66833000D01*
X124873000Y-65626183D01*
X125127000Y-65626183D01*
X125127000Y-66833000D01*
X127413000Y-66833000D01*
X127413000Y-65626183D01*
X127180974Y-65505042D01*
X127030186Y-65550778D01*
X126765056Y-65677316D01*
X126529707Y-65853146D01*
X126333183Y-66071512D01*
X126270000Y-66177770D01*
X126206817Y-66071512D01*
X126010293Y-65853146D01*
X125774944Y-65677316D01*
X125509814Y-65550778D01*
X125359026Y-65505042D01*
X125127000Y-65626183D01*
X124873000Y-65626183D01*
X124640974Y-65505042D01*
X124490186Y-65550778D01*
X124225056Y-65677316D01*
X123989707Y-65853146D01*
X123793183Y-66071512D01*
X123643036Y-66324022D01*
X123545037Y-66600973D01*
X116931763Y-66600973D01*
X116940217Y-66429488D01*
X116898787Y-66149870D01*
X116803603Y-65883708D01*
X116736671Y-65758486D01*
X116492702Y-65686903D01*
X115679605Y-66500000D01*
X115320395Y-66500000D01*
X114507298Y-65686903D01*
X114438072Y-65707215D01*
X114438072Y-65700000D01*
X114425812Y-65575518D01*
X114405118Y-65507298D01*
X114686903Y-65507298D01*
X115500000Y-66320395D01*
X116313097Y-65507298D01*
X116241514Y-65263329D01*
X115986004Y-65142429D01*
X115711816Y-65073700D01*
X115429488Y-65059783D01*
X115149870Y-65101213D01*
X114883708Y-65196397D01*
X114758486Y-65263329D01*
X114686903Y-65507298D01*
X114405118Y-65507298D01*
X114389502Y-65455820D01*
X114330537Y-65345506D01*
X114251185Y-65248815D01*
X114154494Y-65169463D01*
X114044180Y-65110498D01*
X113924482Y-65074188D01*
X113800000Y-65061928D01*
X112200000Y-65061928D01*
X112075518Y-65074188D01*
X111955820Y-65110498D01*
X111845506Y-65169463D01*
X111748815Y-65248815D01*
X111669463Y-65345506D01*
X111610498Y-65455820D01*
X111574188Y-65575518D01*
X111561928Y-65700000D01*
X111561928Y-67300000D01*
X111574188Y-67424482D01*
X111610498Y-67544180D01*
X111669463Y-67654494D01*
X111748815Y-67751185D01*
X111845506Y-67830537D01*
X111955820Y-67889502D01*
X112075518Y-67925812D01*
X112200000Y-67938072D01*
X113115783Y-67938072D01*
X115306370Y-70128659D01*
X115335656Y-70164344D01*
X115478028Y-70281186D01*
X115580158Y-70335775D01*
X115640459Y-70368007D01*
X115816708Y-70421472D01*
X116000000Y-70439524D01*
X116045935Y-70435000D01*
X117157103Y-70435000D01*
X117139453Y-70440354D01*
X117007423Y-70510926D01*
X116923783Y-70579568D01*
X116891699Y-70605899D01*
X116867901Y-70634897D01*
X103433298Y-84069501D01*
X103404300Y-84093299D01*
X103380502Y-84122297D01*
X103380501Y-84122298D01*
X103309326Y-84209024D01*
X103238754Y-84341054D01*
X103213213Y-84425254D01*
X103195298Y-84484314D01*
X103187154Y-84567001D01*
X103180624Y-84633300D01*
X100710000Y-84633300D01*
X100710000Y-64279872D01*
X103265000Y-64279872D01*
X103265000Y-64720128D01*
X103350890Y-65151925D01*
X103519369Y-65558669D01*
X103763962Y-65924729D01*
X104075271Y-66236038D01*
X104441331Y-66480631D01*
X104848075Y-66649110D01*
X105279872Y-66735000D01*
X105720128Y-66735000D01*
X106151925Y-66649110D01*
X106558669Y-66480631D01*
X106924729Y-66236038D01*
X107236038Y-65924729D01*
X107480631Y-65558669D01*
X107649110Y-65151925D01*
X107735000Y-64720128D01*
X107735000Y-64279872D01*
X107649110Y-63848075D01*
X107480631Y-63441331D01*
X107236038Y-63075271D01*
X106924729Y-62763962D01*
X106558669Y-62519369D01*
X106151925Y-62350890D01*
X105720128Y-62265000D01*
X105279872Y-62265000D01*
X104848075Y-62350890D01*
X104441331Y-62519369D01*
X104075271Y-62763962D01*
X103763962Y-63075271D01*
X103519369Y-63441331D01*
X103350890Y-63848075D01*
X103265000Y-64279872D01*
X100710000Y-64279872D01*
X100710000Y-60710000D01*
X199290000Y-60710000D01*
X199290001Y-134290000D01*
G36*
X173320392Y-112674608D02*
G01*
X173538899Y-112853932D01*
X173671858Y-112925000D01*
X173538899Y-112996068D01*
X173320392Y-113175392D01*
X173141068Y-113393899D01*
X173115861Y-113441058D01*
X173065714Y-113445997D01*
X172922453Y-113489454D01*
X172790424Y-113560026D01*
X172674699Y-113654999D01*
X172650901Y-113683997D01*
X171774599Y-114560300D01*
X168106972Y-114560300D01*
X168111904Y-114544039D01*
X167989915Y-114322000D01*
X166847000Y-114322000D01*
X166847000Y-114342000D01*
X166593000Y-114342000D01*
X166593000Y-114322000D01*
X165450085Y-114322000D01*
X165328096Y-114544039D01*
X165333028Y-114560300D01*
X154045402Y-114560300D01*
X153169104Y-113684002D01*
X153145301Y-113654999D01*
X153029576Y-113560026D01*
X152897547Y-113489454D01*
X152754286Y-113445997D01*
X152704139Y-113441058D01*
X152678932Y-113393899D01*
X152499608Y-113175392D01*
X152281101Y-112996068D01*
X152148142Y-112925000D01*
X152281101Y-112853932D01*
X152499608Y-112674608D01*
X152522370Y-112646872D01*
X153166801Y-113291303D01*
X153190599Y-113320301D01*
X153219597Y-113344099D01*
X153306324Y-113415274D01*
X153438353Y-113485846D01*
X153581614Y-113529303D01*
X153730600Y-113543977D01*
X153767933Y-113540300D01*
X165449866Y-113540300D01*
X165368754Y-113711913D01*
X165328096Y-113845961D01*
X165450085Y-114068000D01*
X166593000Y-114068000D01*
X166593000Y-114048000D01*
X166847000Y-114048000D01*
X166847000Y-114068000D01*
X167989915Y-114068000D01*
X168111904Y-113845961D01*
X168071246Y-113711913D01*
X167990134Y-113540300D01*
X172052078Y-113540300D01*
X172089400Y-113543976D01*
X172126722Y-113540300D01*
X172126733Y-113540300D01*
X172238386Y-113529303D01*
X172381647Y-113485846D01*
X172513676Y-113415274D01*
X172629401Y-113320301D01*
X172653204Y-113291298D01*
X173297630Y-112646872D01*
X173320392Y-112674608D01*
X173320392Y-112674608D01*
G37*
X173320392Y-112674608D02*
X173538899Y-112853932D01*
X173671858Y-112925000D01*
X173538899Y-112996068D01*
X173320392Y-113175392D01*
X173141068Y-113393899D01*
X173115861Y-113441058D01*
X173065714Y-113445997D01*
X172922453Y-113489454D01*
X172790424Y-113560026D01*
X172674699Y-113654999D01*
X172650901Y-113683997D01*
X171774599Y-114560300D01*
X168106972Y-114560300D01*
X168111904Y-114544039D01*
X167989915Y-114322000D01*
X166847000Y-114322000D01*
X166847000Y-114342000D01*
X166593000Y-114342000D01*
X166593000Y-114322000D01*
X165450085Y-114322000D01*
X165328096Y-114544039D01*
X165333028Y-114560300D01*
X154045402Y-114560300D01*
X153169104Y-113684002D01*
X153145301Y-113654999D01*
X153029576Y-113560026D01*
X152897547Y-113489454D01*
X152754286Y-113445997D01*
X152704139Y-113441058D01*
X152678932Y-113393899D01*
X152499608Y-113175392D01*
X152281101Y-112996068D01*
X152148142Y-112925000D01*
X152281101Y-112853932D01*
X152499608Y-112674608D01*
X152522370Y-112646872D01*
X153166801Y-113291303D01*
X153190599Y-113320301D01*
X153219597Y-113344099D01*
X153306324Y-113415274D01*
X153438353Y-113485846D01*
X153581614Y-113529303D01*
X153730600Y-113543977D01*
X153767933Y-113540300D01*
X165449866Y-113540300D01*
X165368754Y-113711913D01*
X165328096Y-113845961D01*
X165450085Y-114068000D01*
X166593000Y-114068000D01*
X166593000Y-114048000D01*
X166847000Y-114048000D01*
X166847000Y-114068000D01*
X167989915Y-114068000D01*
X168111904Y-113845961D01*
X168071246Y-113711913D01*
X167990134Y-113540300D01*
X172052078Y-113540300D01*
X172089400Y-113543976D01*
X172126722Y-113540300D01*
X172126733Y-113540300D01*
X172238386Y-113529303D01*
X172381647Y-113485846D01*
X172513676Y-113415274D01*
X172629401Y-113320301D01*
X172653204Y-113291298D01*
X173297630Y-112646872D01*
X173320392Y-112674608D01*
G36*
X134906699Y-76314900D02*
G01*
X134844561Y-76314900D01*
X134644602Y-76354674D01*
X134456244Y-76432695D01*
X134286726Y-76545963D01*
X134142563Y-76690126D01*
X134029295Y-76859644D01*
X133951274Y-77048002D01*
X133911500Y-77247961D01*
X133911500Y-77451839D01*
X133951274Y-77651798D01*
X134029295Y-77840156D01*
X134092689Y-77935032D01*
X134025395Y-78035744D01*
X133947374Y-78224102D01*
X133907600Y-78424061D01*
X133907600Y-78627939D01*
X133947374Y-78827898D01*
X134025395Y-79016256D01*
X134138663Y-79185774D01*
X134282826Y-79329937D01*
X134452344Y-79443205D01*
X134640702Y-79521226D01*
X134840661Y-79561000D01*
X135044539Y-79561000D01*
X135244498Y-79521226D01*
X135432856Y-79443205D01*
X135602374Y-79329937D01*
X135746537Y-79185774D01*
X135859805Y-79016256D01*
X135937826Y-78827898D01*
X135977600Y-78627939D01*
X135977600Y-78565801D01*
X136638802Y-77904600D01*
X141802198Y-77904600D01*
X141763700Y-78058184D01*
X141749783Y-78340512D01*
X141791213Y-78620130D01*
X141886397Y-78886292D01*
X141953329Y-79011514D01*
X142197298Y-79083097D01*
X143010395Y-78270000D01*
X142996253Y-78255858D01*
X143175858Y-78076253D01*
X143190000Y-78090395D01*
X143204143Y-78076253D01*
X143383748Y-78255858D01*
X143369605Y-78270000D01*
X144182702Y-79083097D01*
X144426671Y-79011514D01*
X144440324Y-78982659D01*
X144575363Y-79184759D01*
X144775241Y-79384637D01*
X145010273Y-79541680D01*
X145271426Y-79649853D01*
X145548665Y-79705000D01*
X145831335Y-79705000D01*
X146108574Y-79649853D01*
X146369727Y-79541680D01*
X146604759Y-79384637D01*
X146804637Y-79184759D01*
X146961680Y-78949727D01*
X147069853Y-78688574D01*
X147125000Y-78411335D01*
X147125000Y-78128665D01*
X147080430Y-77904600D01*
X148525699Y-77904600D01*
X149391194Y-78770095D01*
X149343563Y-78817726D01*
X149230295Y-78987244D01*
X149152274Y-79175602D01*
X149112500Y-79375561D01*
X149112500Y-79579439D01*
X149152274Y-79779398D01*
X149230295Y-79967756D01*
X149343563Y-80137274D01*
X149487726Y-80281437D01*
X149657244Y-80394705D01*
X149845602Y-80472726D01*
X150045561Y-80512500D01*
X150249439Y-80512500D01*
X150449398Y-80472726D01*
X150637756Y-80394705D01*
X150807274Y-80281437D01*
X150851211Y-80237500D01*
X190889878Y-80237500D01*
X190927200Y-80241176D01*
X190964522Y-80237500D01*
X190964533Y-80237500D01*
X191076186Y-80226503D01*
X191219447Y-80183046D01*
X191351476Y-80112474D01*
X191396168Y-80075796D01*
X191444866Y-80135134D01*
X191670986Y-80320706D01*
X191928966Y-80458599D01*
X192208889Y-80543513D01*
X192427050Y-80565000D01*
X192572950Y-80565000D01*
X192791111Y-80543513D01*
X192915301Y-80505840D01*
X192915300Y-108940898D01*
X190856737Y-110999462D01*
X190778932Y-110853899D01*
X190599608Y-110635392D01*
X190381101Y-110456068D01*
X190248142Y-110385000D01*
X190381101Y-110313932D01*
X190599608Y-110134608D01*
X190778932Y-109916101D01*
X190912182Y-109666808D01*
X190994236Y-109396309D01*
X191021943Y-109115000D01*
X190994236Y-108833691D01*
X190912182Y-108563192D01*
X190778932Y-108313899D01*
X190599608Y-108095392D01*
X190381101Y-107916068D01*
X190248142Y-107845000D01*
X190381101Y-107773932D01*
X190599608Y-107594608D01*
X190778932Y-107376101D01*
X190912182Y-107126808D01*
X190994236Y-106856309D01*
X191021943Y-106575000D01*
X190994236Y-106293691D01*
X190912182Y-106023192D01*
X190778932Y-105773899D01*
X190599608Y-105555392D01*
X190381101Y-105376068D01*
X190248142Y-105305000D01*
X190381101Y-105233932D01*
X190599608Y-105054608D01*
X190778932Y-104836101D01*
X190912182Y-104586808D01*
X190994236Y-104316309D01*
X191021943Y-104035000D01*
X190994236Y-103753691D01*
X190912182Y-103483192D01*
X190778932Y-103233899D01*
X190599608Y-103015392D01*
X190381101Y-102836068D01*
X190248142Y-102765000D01*
X190381101Y-102693932D01*
X190599608Y-102514608D01*
X190778932Y-102296101D01*
X190912182Y-102046808D01*
X190994236Y-101776309D01*
X191021943Y-101495000D01*
X190994236Y-101213691D01*
X190912182Y-100943192D01*
X190778932Y-100693899D01*
X190599608Y-100475392D01*
X190381101Y-100296068D01*
X190248142Y-100225000D01*
X190381101Y-100153932D01*
X190599608Y-99974608D01*
X190778932Y-99756101D01*
X190912182Y-99506808D01*
X190994236Y-99236309D01*
X191021943Y-98955000D01*
X190994236Y-98673691D01*
X190912182Y-98403192D01*
X190778932Y-98153899D01*
X190599608Y-97935392D01*
X190381101Y-97756068D01*
X190248142Y-97685000D01*
X190381101Y-97613932D01*
X190599608Y-97434608D01*
X190778932Y-97216101D01*
X190912182Y-96966808D01*
X190994236Y-96696309D01*
X191021943Y-96415000D01*
X190994236Y-96133691D01*
X190912182Y-95863192D01*
X190778932Y-95613899D01*
X190599608Y-95395392D01*
X190381101Y-95216068D01*
X190248142Y-95145000D01*
X190381101Y-95073932D01*
X190599608Y-94894608D01*
X190778932Y-94676101D01*
X190912182Y-94426808D01*
X190994236Y-94156309D01*
X191021943Y-93875000D01*
X190994236Y-93593691D01*
X190912182Y-93323192D01*
X190778932Y-93073899D01*
X190599608Y-92855392D01*
X190381101Y-92676068D01*
X190131808Y-92542818D01*
X189861309Y-92460764D01*
X189650492Y-92440000D01*
X189509508Y-92440000D01*
X189298691Y-92460764D01*
X189028192Y-92542818D01*
X188785063Y-92672774D01*
X187780311Y-91668022D01*
X187910130Y-91648787D01*
X188176292Y-91553603D01*
X188301514Y-91486671D01*
X188373097Y-91242702D01*
X187560000Y-90429605D01*
X187545858Y-90443748D01*
X187366253Y-90264143D01*
X187380395Y-90250000D01*
X187739605Y-90250000D01*
X188552702Y-91063097D01*
X188796671Y-90991514D01*
X188810324Y-90962659D01*
X188945363Y-91164759D01*
X189145241Y-91364637D01*
X189380273Y-91521680D01*
X189641426Y-91629853D01*
X189918665Y-91685000D01*
X190201335Y-91685000D01*
X190478574Y-91629853D01*
X190739727Y-91521680D01*
X190974759Y-91364637D01*
X191174637Y-91164759D01*
X191331680Y-90929727D01*
X191439853Y-90668574D01*
X191495000Y-90391335D01*
X191495000Y-90108665D01*
X191439853Y-89831426D01*
X191331680Y-89570273D01*
X191174637Y-89335241D01*
X190974759Y-89135363D01*
X190739727Y-88978320D01*
X190478574Y-88870147D01*
X190201335Y-88815000D01*
X189918665Y-88815000D01*
X189641426Y-88870147D01*
X189380273Y-88978320D01*
X189145241Y-89135363D01*
X188945363Y-89335241D01*
X188811308Y-89535869D01*
X188796671Y-89508486D01*
X188552702Y-89436903D01*
X187739605Y-90250000D01*
X187380395Y-90250000D01*
X186567298Y-89436903D01*
X186323329Y-89508486D01*
X186202429Y-89763996D01*
X186137062Y-90024773D01*
X185369587Y-89257298D01*
X186746903Y-89257298D01*
X187560000Y-90070395D01*
X188373097Y-89257298D01*
X188301514Y-89013329D01*
X188046004Y-88892429D01*
X187771816Y-88823700D01*
X187489488Y-88809783D01*
X187209870Y-88851213D01*
X186943708Y-88946397D01*
X186818486Y-89013329D01*
X186746903Y-89257298D01*
X185369587Y-89257298D01*
X184125000Y-88012711D01*
X184125000Y-87758665D01*
X184069853Y-87481426D01*
X183961680Y-87220273D01*
X183804637Y-86985241D01*
X183604759Y-86785363D01*
X183369727Y-86628320D01*
X183108574Y-86520147D01*
X182831335Y-86465000D01*
X182548665Y-86465000D01*
X182271426Y-86520147D01*
X182010273Y-86628320D01*
X181775241Y-86785363D01*
X181575363Y-86985241D01*
X181418320Y-87220273D01*
X181310147Y-87481426D01*
X181255000Y-87758665D01*
X181255000Y-88041335D01*
X181310147Y-88318574D01*
X181418320Y-88579727D01*
X181575363Y-88814759D01*
X181775241Y-89014637D01*
X182010273Y-89171680D01*
X182271426Y-89279853D01*
X182548665Y-89335000D01*
X182802711Y-89335000D01*
X187340403Y-93872692D01*
X187340176Y-93875000D01*
X187358229Y-94058292D01*
X187411693Y-94234540D01*
X187498514Y-94396972D01*
X187615356Y-94539344D01*
X187757728Y-94656186D01*
X187920160Y-94743007D01*
X188096408Y-94796471D01*
X188279700Y-94814524D01*
X188325632Y-94810000D01*
X188490956Y-94810000D01*
X188560392Y-94894608D01*
X188778899Y-95073932D01*
X188911858Y-95145000D01*
X188778899Y-95216068D01*
X188560392Y-95395392D01*
X188381068Y-95613899D01*
X188247818Y-95863192D01*
X188165764Y-96133691D01*
X188138057Y-96415000D01*
X188165764Y-96696309D01*
X188247818Y-96966808D01*
X188381068Y-97216101D01*
X188560392Y-97434608D01*
X188778899Y-97613932D01*
X188911858Y-97685000D01*
X188778899Y-97756068D01*
X188560392Y-97935392D01*
X188537630Y-97963128D01*
X187893204Y-97318702D01*
X187869401Y-97289699D01*
X187753676Y-97194726D01*
X187621647Y-97124154D01*
X187478386Y-97080697D01*
X187366733Y-97069700D01*
X187366722Y-97069700D01*
X187329400Y-97066024D01*
X187292078Y-97069700D01*
X175617185Y-97069700D01*
X175672182Y-96966808D01*
X175754236Y-96696309D01*
X175781943Y-96415000D01*
X175754236Y-96133691D01*
X175672182Y-95863192D01*
X175538932Y-95613899D01*
X175359608Y-95395392D01*
X175246518Y-95302581D01*
X175264482Y-95300812D01*
X175384180Y-95264502D01*
X175494494Y-95205537D01*
X175591185Y-95126185D01*
X175670537Y-95029494D01*
X175729502Y-94919180D01*
X175765812Y-94799482D01*
X175778072Y-94675000D01*
X175778072Y-93075000D01*
X175765812Y-92950518D01*
X175729502Y-92830820D01*
X175670537Y-92720506D01*
X175591185Y-92623815D01*
X175494494Y-92544463D01*
X175384180Y-92485498D01*
X175264482Y-92449188D01*
X175140000Y-92436928D01*
X173540000Y-92436928D01*
X173415518Y-92449188D01*
X173295820Y-92485498D01*
X173185506Y-92544463D01*
X173088815Y-92623815D01*
X173066053Y-92651551D01*
X170098004Y-89683503D01*
X170074201Y-89654499D01*
X169958476Y-89559526D01*
X169826447Y-89488954D01*
X169683186Y-89445497D01*
X169571533Y-89434500D01*
X169571522Y-89434500D01*
X169534200Y-89430824D01*
X169496878Y-89434500D01*
X168005310Y-89434500D01*
X168052182Y-89346808D01*
X168134236Y-89076309D01*
X168161943Y-88795000D01*
X168134236Y-88513691D01*
X168052182Y-88243192D01*
X167918932Y-87993899D01*
X167841872Y-87900000D01*
X171088057Y-87900000D01*
X171115764Y-88181309D01*
X171197818Y-88451808D01*
X171331068Y-88701101D01*
X171510392Y-88919608D01*
X171728899Y-89098932D01*
X171978192Y-89232182D01*
X172248691Y-89314236D01*
X172459508Y-89335000D01*
X172600492Y-89335000D01*
X172811309Y-89314236D01*
X173081808Y-89232182D01*
X173331101Y-89098932D01*
X173549608Y-88919608D01*
X173728932Y-88701101D01*
X173862182Y-88451808D01*
X173944236Y-88181309D01*
X173971943Y-87900000D01*
X173944236Y-87618691D01*
X173862182Y-87348192D01*
X173728932Y-87098899D01*
X173549608Y-86880392D01*
X173331101Y-86701068D01*
X173081808Y-86567818D01*
X172811309Y-86485764D01*
X172600492Y-86465000D01*
X172459508Y-86465000D01*
X172248691Y-86485764D01*
X171978192Y-86567818D01*
X171728899Y-86701068D01*
X171510392Y-86880392D01*
X171331068Y-87098899D01*
X171197818Y-87348192D01*
X171115764Y-87618691D01*
X171088057Y-87900000D01*
X167841872Y-87900000D01*
X167739608Y-87775392D01*
X167521101Y-87596068D01*
X167271808Y-87462818D01*
X167001309Y-87380764D01*
X166790492Y-87360000D01*
X166649508Y-87360000D01*
X166438691Y-87380764D01*
X166168192Y-87462818D01*
X165918899Y-87596068D01*
X165712469Y-87765480D01*
X164576146Y-86629157D01*
X164800512Y-86640217D01*
X165080130Y-86598787D01*
X165346292Y-86503603D01*
X165471514Y-86436671D01*
X165543097Y-86192702D01*
X164730000Y-85379605D01*
X164715858Y-85393748D01*
X164536253Y-85214143D01*
X164550395Y-85200000D01*
X164909605Y-85200000D01*
X165722702Y-86013097D01*
X165966671Y-85941514D01*
X165980324Y-85912659D01*
X166115363Y-86114759D01*
X166315241Y-86314637D01*
X166550273Y-86471680D01*
X166811426Y-86579853D01*
X167088665Y-86635000D01*
X167371335Y-86635000D01*
X167648574Y-86579853D01*
X167909727Y-86471680D01*
X168144759Y-86314637D01*
X168344637Y-86114759D01*
X168501680Y-85879727D01*
X168609853Y-85618574D01*
X168665000Y-85341335D01*
X168665000Y-85087289D01*
X169326790Y-84425500D01*
X171179313Y-84425500D01*
X171143764Y-84542691D01*
X171116057Y-84824000D01*
X171143764Y-85105309D01*
X171225818Y-85375808D01*
X171359068Y-85625101D01*
X171538392Y-85843608D01*
X171756899Y-86022932D01*
X172006192Y-86156182D01*
X172276691Y-86238236D01*
X172487508Y-86259000D01*
X172628492Y-86259000D01*
X172839309Y-86238236D01*
X173109808Y-86156182D01*
X173359101Y-86022932D01*
X173577608Y-85843608D01*
X173756932Y-85625101D01*
X173890182Y-85375808D01*
X173972236Y-85105309D01*
X173999943Y-84824000D01*
X173972236Y-84542691D01*
X173936687Y-84425500D01*
X180997211Y-84425500D01*
X181283000Y-84711289D01*
X181283000Y-84965335D01*
X181338147Y-85242574D01*
X181446320Y-85503727D01*
X181603363Y-85738759D01*
X181803241Y-85938637D01*
X182038273Y-86095680D01*
X182299426Y-86203853D01*
X182576665Y-86259000D01*
X182859335Y-86259000D01*
X183136574Y-86203853D01*
X183397727Y-86095680D01*
X183632759Y-85938637D01*
X183832637Y-85738759D01*
X183989680Y-85503727D01*
X184097853Y-85242574D01*
X184153000Y-84965335D01*
X184153000Y-84682665D01*
X184097853Y-84405426D01*
X183989680Y-84144273D01*
X183832637Y-83909241D01*
X183632759Y-83709363D01*
X183397727Y-83552320D01*
X183136574Y-83444147D01*
X182859335Y-83389000D01*
X182605289Y-83389000D01*
X182516289Y-83300000D01*
X182605289Y-83211000D01*
X182859335Y-83211000D01*
X183136574Y-83155853D01*
X183397727Y-83047680D01*
X183632759Y-82890637D01*
X183832637Y-82690759D01*
X183989680Y-82455727D01*
X184097853Y-82194574D01*
X184153000Y-81917335D01*
X184153000Y-81634665D01*
X184097853Y-81357426D01*
X183989680Y-81096273D01*
X183832637Y-80861241D01*
X183632759Y-80661363D01*
X183397727Y-80504320D01*
X183136574Y-80396147D01*
X182859335Y-80341000D01*
X182576665Y-80341000D01*
X182299426Y-80396147D01*
X182038273Y-80504320D01*
X181803241Y-80661363D01*
X181603363Y-80861241D01*
X181446320Y-81096273D01*
X181338147Y-81357426D01*
X181283000Y-81634665D01*
X181283000Y-81888711D01*
X180755836Y-82415875D01*
X180720157Y-82445156D01*
X180629599Y-82555500D01*
X173768478Y-82555500D01*
X173890182Y-82327808D01*
X173972236Y-82057309D01*
X173999943Y-81776000D01*
X173972236Y-81494691D01*
X173890182Y-81224192D01*
X173756932Y-80974899D01*
X173577608Y-80756392D01*
X173359101Y-80577068D01*
X173109808Y-80443818D01*
X172839309Y-80361764D01*
X172628492Y-80341000D01*
X172487508Y-80341000D01*
X172276691Y-80361764D01*
X172006192Y-80443818D01*
X171756899Y-80577068D01*
X171538392Y-80756392D01*
X171359068Y-80974899D01*
X171225818Y-81224192D01*
X171143764Y-81494691D01*
X171116057Y-81776000D01*
X171143764Y-82057309D01*
X171225818Y-82327808D01*
X171347522Y-82555500D01*
X168985431Y-82555500D01*
X168939499Y-82550976D01*
X168756207Y-82569029D01*
X168729598Y-82577101D01*
X168579960Y-82622493D01*
X168417528Y-82709314D01*
X168275156Y-82826156D01*
X168245874Y-82861836D01*
X167342711Y-83765000D01*
X167088665Y-83765000D01*
X166811426Y-83820147D01*
X166550273Y-83928320D01*
X166315241Y-84085363D01*
X166115363Y-84285241D01*
X165981308Y-84485869D01*
X165966671Y-84458486D01*
X165722702Y-84386903D01*
X164909605Y-85200000D01*
X164550395Y-85200000D01*
X163737298Y-84386903D01*
X163493329Y-84458486D01*
X163372429Y-84713996D01*
X163303700Y-84988184D01*
X163289783Y-85270512D01*
X163302356Y-85355367D01*
X162154287Y-84207298D01*
X163916903Y-84207298D01*
X164730000Y-85020395D01*
X165543097Y-84207298D01*
X165471514Y-83963329D01*
X165216004Y-83842429D01*
X164941816Y-83773700D01*
X164659488Y-83759783D01*
X164379870Y-83801213D01*
X164113708Y-83896397D01*
X163988486Y-83963329D01*
X163916903Y-84207298D01*
X162154287Y-84207298D01*
X159123330Y-81176341D01*
X159094044Y-81140656D01*
X158951672Y-81023814D01*
X158789240Y-80936993D01*
X158612992Y-80883529D01*
X158475632Y-80870000D01*
X158429700Y-80865476D01*
X158383768Y-80870000D01*
X146369044Y-80870000D01*
X146299608Y-80785392D01*
X146081101Y-80606068D01*
X145831808Y-80472818D01*
X145561309Y-80390764D01*
X145350492Y-80370000D01*
X145209508Y-80370000D01*
X144998691Y-80390764D01*
X144728192Y-80472818D01*
X144478899Y-80606068D01*
X144272469Y-80775480D01*
X143373030Y-79876041D01*
X143343744Y-79840356D01*
X143201372Y-79723514D01*
X143167959Y-79705655D01*
X143260512Y-79710217D01*
X143540130Y-79668787D01*
X143806292Y-79573603D01*
X143931514Y-79506671D01*
X144003097Y-79262702D01*
X143190000Y-78449605D01*
X142376903Y-79262702D01*
X142448486Y-79506671D01*
X142581691Y-79569700D01*
X133258024Y-79569700D01*
X133212099Y-79565177D01*
X133166174Y-79569700D01*
X133166168Y-79569700D01*
X133047210Y-79581417D01*
X133028807Y-79583229D01*
X132975343Y-79599447D01*
X132852560Y-79636693D01*
X132690128Y-79723514D01*
X132547756Y-79840356D01*
X132518474Y-79876036D01*
X131555530Y-80838980D01*
X131349101Y-80669568D01*
X131099808Y-80536318D01*
X130829309Y-80454264D01*
X130618492Y-80433500D01*
X130477508Y-80433500D01*
X130266691Y-80454264D01*
X129996192Y-80536318D01*
X129746899Y-80669568D01*
X129528392Y-80848892D01*
X129349068Y-81067399D01*
X129215818Y-81316692D01*
X129133764Y-81587191D01*
X129106057Y-81868500D01*
X129133764Y-82149809D01*
X129215818Y-82420308D01*
X129349068Y-82669601D01*
X129528392Y-82888108D01*
X129746899Y-83067432D01*
X129879858Y-83138500D01*
X129746899Y-83209568D01*
X129528392Y-83388892D01*
X129349068Y-83607399D01*
X129271263Y-83752962D01*
X127981300Y-82462999D01*
X127981300Y-79441464D01*
X128154184Y-79484800D01*
X128436512Y-79498717D01*
X128716130Y-79457287D01*
X128982292Y-79362103D01*
X129107514Y-79295171D01*
X129179097Y-79051202D01*
X128366000Y-78238105D01*
X128351858Y-78252248D01*
X128172253Y-78072643D01*
X128186395Y-78058500D01*
X128545605Y-78058500D01*
X129358702Y-78871597D01*
X129602671Y-78800014D01*
X129616324Y-78771159D01*
X129751363Y-78973259D01*
X129951241Y-79173137D01*
X130186273Y-79330180D01*
X130447426Y-79438353D01*
X130724665Y-79493500D01*
X131007335Y-79493500D01*
X131284574Y-79438353D01*
X131545727Y-79330180D01*
X131780759Y-79173137D01*
X131980637Y-78973259D01*
X132137680Y-78738227D01*
X132245853Y-78477074D01*
X132301000Y-78199835D01*
X132301000Y-77917165D01*
X132245853Y-77639926D01*
X132137680Y-77378773D01*
X131980637Y-77143741D01*
X131780759Y-76943863D01*
X131545727Y-76786820D01*
X131284574Y-76678647D01*
X131007335Y-76623500D01*
X130724665Y-76623500D01*
X130447426Y-76678647D01*
X130186273Y-76786820D01*
X129951241Y-76943863D01*
X129751363Y-77143741D01*
X129617308Y-77344369D01*
X129602671Y-77316986D01*
X129358702Y-77245403D01*
X128545605Y-78058500D01*
X128186395Y-78058500D01*
X128172253Y-78044358D01*
X128351858Y-77864753D01*
X128366000Y-77878895D01*
X129179097Y-77065798D01*
X129107514Y-76821829D01*
X129073206Y-76805596D01*
X129600102Y-76278700D01*
X134942899Y-76278700D01*
X134906699Y-76314900D01*
X134906699Y-76314900D01*
G37*
X134906699Y-76314900D02*
X134844561Y-76314900D01*
X134644602Y-76354674D01*
X134456244Y-76432695D01*
X134286726Y-76545963D01*
X134142563Y-76690126D01*
X134029295Y-76859644D01*
X133951274Y-77048002D01*
X133911500Y-77247961D01*
X133911500Y-77451839D01*
X133951274Y-77651798D01*
X134029295Y-77840156D01*
X134092689Y-77935032D01*
X134025395Y-78035744D01*
X133947374Y-78224102D01*
X133907600Y-78424061D01*
X133907600Y-78627939D01*
X133947374Y-78827898D01*
X134025395Y-79016256D01*
X134138663Y-79185774D01*
X134282826Y-79329937D01*
X134452344Y-79443205D01*
X134640702Y-79521226D01*
X134840661Y-79561000D01*
X135044539Y-79561000D01*
X135244498Y-79521226D01*
X135432856Y-79443205D01*
X135602374Y-79329937D01*
X135746537Y-79185774D01*
X135859805Y-79016256D01*
X135937826Y-78827898D01*
X135977600Y-78627939D01*
X135977600Y-78565801D01*
X136638802Y-77904600D01*
X141802198Y-77904600D01*
X141763700Y-78058184D01*
X141749783Y-78340512D01*
X141791213Y-78620130D01*
X141886397Y-78886292D01*
X141953329Y-79011514D01*
X142197298Y-79083097D01*
X143010395Y-78270000D01*
X142996253Y-78255858D01*
X143175858Y-78076253D01*
X143190000Y-78090395D01*
X143204143Y-78076253D01*
X143383748Y-78255858D01*
X143369605Y-78270000D01*
X144182702Y-79083097D01*
X144426671Y-79011514D01*
X144440324Y-78982659D01*
X144575363Y-79184759D01*
X144775241Y-79384637D01*
X145010273Y-79541680D01*
X145271426Y-79649853D01*
X145548665Y-79705000D01*
X145831335Y-79705000D01*
X146108574Y-79649853D01*
X146369727Y-79541680D01*
X146604759Y-79384637D01*
X146804637Y-79184759D01*
X146961680Y-78949727D01*
X147069853Y-78688574D01*
X147125000Y-78411335D01*
X147125000Y-78128665D01*
X147080430Y-77904600D01*
X148525699Y-77904600D01*
X149391194Y-78770095D01*
X149343563Y-78817726D01*
X149230295Y-78987244D01*
X149152274Y-79175602D01*
X149112500Y-79375561D01*
X149112500Y-79579439D01*
X149152274Y-79779398D01*
X149230295Y-79967756D01*
X149343563Y-80137274D01*
X149487726Y-80281437D01*
X149657244Y-80394705D01*
X149845602Y-80472726D01*
X150045561Y-80512500D01*
X150249439Y-80512500D01*
X150449398Y-80472726D01*
X150637756Y-80394705D01*
X150807274Y-80281437D01*
X150851211Y-80237500D01*
X190889878Y-80237500D01*
X190927200Y-80241176D01*
X190964522Y-80237500D01*
X190964533Y-80237500D01*
X191076186Y-80226503D01*
X191219447Y-80183046D01*
X191351476Y-80112474D01*
X191396168Y-80075796D01*
X191444866Y-80135134D01*
X191670986Y-80320706D01*
X191928966Y-80458599D01*
X192208889Y-80543513D01*
X192427050Y-80565000D01*
X192572950Y-80565000D01*
X192791111Y-80543513D01*
X192915301Y-80505840D01*
X192915300Y-108940898D01*
X190856737Y-110999462D01*
X190778932Y-110853899D01*
X190599608Y-110635392D01*
X190381101Y-110456068D01*
X190248142Y-110385000D01*
X190381101Y-110313932D01*
X190599608Y-110134608D01*
X190778932Y-109916101D01*
X190912182Y-109666808D01*
X190994236Y-109396309D01*
X191021943Y-109115000D01*
X190994236Y-108833691D01*
X190912182Y-108563192D01*
X190778932Y-108313899D01*
X190599608Y-108095392D01*
X190381101Y-107916068D01*
X190248142Y-107845000D01*
X190381101Y-107773932D01*
X190599608Y-107594608D01*
X190778932Y-107376101D01*
X190912182Y-107126808D01*
X190994236Y-106856309D01*
X191021943Y-106575000D01*
X190994236Y-106293691D01*
X190912182Y-106023192D01*
X190778932Y-105773899D01*
X190599608Y-105555392D01*
X190381101Y-105376068D01*
X190248142Y-105305000D01*
X190381101Y-105233932D01*
X190599608Y-105054608D01*
X190778932Y-104836101D01*
X190912182Y-104586808D01*
X190994236Y-104316309D01*
X191021943Y-104035000D01*
X190994236Y-103753691D01*
X190912182Y-103483192D01*
X190778932Y-103233899D01*
X190599608Y-103015392D01*
X190381101Y-102836068D01*
X190248142Y-102765000D01*
X190381101Y-102693932D01*
X190599608Y-102514608D01*
X190778932Y-102296101D01*
X190912182Y-102046808D01*
X190994236Y-101776309D01*
X191021943Y-101495000D01*
X190994236Y-101213691D01*
X190912182Y-100943192D01*
X190778932Y-100693899D01*
X190599608Y-100475392D01*
X190381101Y-100296068D01*
X190248142Y-100225000D01*
X190381101Y-100153932D01*
X190599608Y-99974608D01*
X190778932Y-99756101D01*
X190912182Y-99506808D01*
X190994236Y-99236309D01*
X191021943Y-98955000D01*
X190994236Y-98673691D01*
X190912182Y-98403192D01*
X190778932Y-98153899D01*
X190599608Y-97935392D01*
X190381101Y-97756068D01*
X190248142Y-97685000D01*
X190381101Y-97613932D01*
X190599608Y-97434608D01*
X190778932Y-97216101D01*
X190912182Y-96966808D01*
X190994236Y-96696309D01*
X191021943Y-96415000D01*
X190994236Y-96133691D01*
X190912182Y-95863192D01*
X190778932Y-95613899D01*
X190599608Y-95395392D01*
X190381101Y-95216068D01*
X190248142Y-95145000D01*
X190381101Y-95073932D01*
X190599608Y-94894608D01*
X190778932Y-94676101D01*
X190912182Y-94426808D01*
X190994236Y-94156309D01*
X191021943Y-93875000D01*
X190994236Y-93593691D01*
X190912182Y-93323192D01*
X190778932Y-93073899D01*
X190599608Y-92855392D01*
X190381101Y-92676068D01*
X190131808Y-92542818D01*
X189861309Y-92460764D01*
X189650492Y-92440000D01*
X189509508Y-92440000D01*
X189298691Y-92460764D01*
X189028192Y-92542818D01*
X188785063Y-92672774D01*
X187780311Y-91668022D01*
X187910130Y-91648787D01*
X188176292Y-91553603D01*
X188301514Y-91486671D01*
X188373097Y-91242702D01*
X187560000Y-90429605D01*
X187545858Y-90443748D01*
X187366253Y-90264143D01*
X187380395Y-90250000D01*
X187739605Y-90250000D01*
X188552702Y-91063097D01*
X188796671Y-90991514D01*
X188810324Y-90962659D01*
X188945363Y-91164759D01*
X189145241Y-91364637D01*
X189380273Y-91521680D01*
X189641426Y-91629853D01*
X189918665Y-91685000D01*
X190201335Y-91685000D01*
X190478574Y-91629853D01*
X190739727Y-91521680D01*
X190974759Y-91364637D01*
X191174637Y-91164759D01*
X191331680Y-90929727D01*
X191439853Y-90668574D01*
X191495000Y-90391335D01*
X191495000Y-90108665D01*
X191439853Y-89831426D01*
X191331680Y-89570273D01*
X191174637Y-89335241D01*
X190974759Y-89135363D01*
X190739727Y-88978320D01*
X190478574Y-88870147D01*
X190201335Y-88815000D01*
X189918665Y-88815000D01*
X189641426Y-88870147D01*
X189380273Y-88978320D01*
X189145241Y-89135363D01*
X188945363Y-89335241D01*
X188811308Y-89535869D01*
X188796671Y-89508486D01*
X188552702Y-89436903D01*
X187739605Y-90250000D01*
X187380395Y-90250000D01*
X186567298Y-89436903D01*
X186323329Y-89508486D01*
X186202429Y-89763996D01*
X186137062Y-90024773D01*
X185369587Y-89257298D01*
X186746903Y-89257298D01*
X187560000Y-90070395D01*
X188373097Y-89257298D01*
X188301514Y-89013329D01*
X188046004Y-88892429D01*
X187771816Y-88823700D01*
X187489488Y-88809783D01*
X187209870Y-88851213D01*
X186943708Y-88946397D01*
X186818486Y-89013329D01*
X186746903Y-89257298D01*
X185369587Y-89257298D01*
X184125000Y-88012711D01*
X184125000Y-87758665D01*
X184069853Y-87481426D01*
X183961680Y-87220273D01*
X183804637Y-86985241D01*
X183604759Y-86785363D01*
X183369727Y-86628320D01*
X183108574Y-86520147D01*
X182831335Y-86465000D01*
X182548665Y-86465000D01*
X182271426Y-86520147D01*
X182010273Y-86628320D01*
X181775241Y-86785363D01*
X181575363Y-86985241D01*
X181418320Y-87220273D01*
X181310147Y-87481426D01*
X181255000Y-87758665D01*
X181255000Y-88041335D01*
X181310147Y-88318574D01*
X181418320Y-88579727D01*
X181575363Y-88814759D01*
X181775241Y-89014637D01*
X182010273Y-89171680D01*
X182271426Y-89279853D01*
X182548665Y-89335000D01*
X182802711Y-89335000D01*
X187340403Y-93872692D01*
X187340176Y-93875000D01*
X187358229Y-94058292D01*
X187411693Y-94234540D01*
X187498514Y-94396972D01*
X187615356Y-94539344D01*
X187757728Y-94656186D01*
X187920160Y-94743007D01*
X188096408Y-94796471D01*
X188279700Y-94814524D01*
X188325632Y-94810000D01*
X188490956Y-94810000D01*
X188560392Y-94894608D01*
X188778899Y-95073932D01*
X188911858Y-95145000D01*
X188778899Y-95216068D01*
X188560392Y-95395392D01*
X188381068Y-95613899D01*
X188247818Y-95863192D01*
X188165764Y-96133691D01*
X188138057Y-96415000D01*
X188165764Y-96696309D01*
X188247818Y-96966808D01*
X188381068Y-97216101D01*
X188560392Y-97434608D01*
X188778899Y-97613932D01*
X188911858Y-97685000D01*
X188778899Y-97756068D01*
X188560392Y-97935392D01*
X188537630Y-97963128D01*
X187893204Y-97318702D01*
X187869401Y-97289699D01*
X187753676Y-97194726D01*
X187621647Y-97124154D01*
X187478386Y-97080697D01*
X187366733Y-97069700D01*
X187366722Y-97069700D01*
X187329400Y-97066024D01*
X187292078Y-97069700D01*
X175617185Y-97069700D01*
X175672182Y-96966808D01*
X175754236Y-96696309D01*
X175781943Y-96415000D01*
X175754236Y-96133691D01*
X175672182Y-95863192D01*
X175538932Y-95613899D01*
X175359608Y-95395392D01*
X175246518Y-95302581D01*
X175264482Y-95300812D01*
X175384180Y-95264502D01*
X175494494Y-95205537D01*
X175591185Y-95126185D01*
X175670537Y-95029494D01*
X175729502Y-94919180D01*
X175765812Y-94799482D01*
X175778072Y-94675000D01*
X175778072Y-93075000D01*
X175765812Y-92950518D01*
X175729502Y-92830820D01*
X175670537Y-92720506D01*
X175591185Y-92623815D01*
X175494494Y-92544463D01*
X175384180Y-92485498D01*
X175264482Y-92449188D01*
X175140000Y-92436928D01*
X173540000Y-92436928D01*
X173415518Y-92449188D01*
X173295820Y-92485498D01*
X173185506Y-92544463D01*
X173088815Y-92623815D01*
X173066053Y-92651551D01*
X170098004Y-89683503D01*
X170074201Y-89654499D01*
X169958476Y-89559526D01*
X169826447Y-89488954D01*
X169683186Y-89445497D01*
X169571533Y-89434500D01*
X169571522Y-89434500D01*
X169534200Y-89430824D01*
X169496878Y-89434500D01*
X168005310Y-89434500D01*
X168052182Y-89346808D01*
X168134236Y-89076309D01*
X168161943Y-88795000D01*
X168134236Y-88513691D01*
X168052182Y-88243192D01*
X167918932Y-87993899D01*
X167841872Y-87900000D01*
X171088057Y-87900000D01*
X171115764Y-88181309D01*
X171197818Y-88451808D01*
X171331068Y-88701101D01*
X171510392Y-88919608D01*
X171728899Y-89098932D01*
X171978192Y-89232182D01*
X172248691Y-89314236D01*
X172459508Y-89335000D01*
X172600492Y-89335000D01*
X172811309Y-89314236D01*
X173081808Y-89232182D01*
X173331101Y-89098932D01*
X173549608Y-88919608D01*
X173728932Y-88701101D01*
X173862182Y-88451808D01*
X173944236Y-88181309D01*
X173971943Y-87900000D01*
X173944236Y-87618691D01*
X173862182Y-87348192D01*
X173728932Y-87098899D01*
X173549608Y-86880392D01*
X173331101Y-86701068D01*
X173081808Y-86567818D01*
X172811309Y-86485764D01*
X172600492Y-86465000D01*
X172459508Y-86465000D01*
X172248691Y-86485764D01*
X171978192Y-86567818D01*
X171728899Y-86701068D01*
X171510392Y-86880392D01*
X171331068Y-87098899D01*
X171197818Y-87348192D01*
X171115764Y-87618691D01*
X171088057Y-87900000D01*
X167841872Y-87900000D01*
X167739608Y-87775392D01*
X167521101Y-87596068D01*
X167271808Y-87462818D01*
X167001309Y-87380764D01*
X166790492Y-87360000D01*
X166649508Y-87360000D01*
X166438691Y-87380764D01*
X166168192Y-87462818D01*
X165918899Y-87596068D01*
X165712469Y-87765480D01*
X164576146Y-86629157D01*
X164800512Y-86640217D01*
X165080130Y-86598787D01*
X165346292Y-86503603D01*
X165471514Y-86436671D01*
X165543097Y-86192702D01*
X164730000Y-85379605D01*
X164715858Y-85393748D01*
X164536253Y-85214143D01*
X164550395Y-85200000D01*
X164909605Y-85200000D01*
X165722702Y-86013097D01*
X165966671Y-85941514D01*
X165980324Y-85912659D01*
X166115363Y-86114759D01*
X166315241Y-86314637D01*
X166550273Y-86471680D01*
X166811426Y-86579853D01*
X167088665Y-86635000D01*
X167371335Y-86635000D01*
X167648574Y-86579853D01*
X167909727Y-86471680D01*
X168144759Y-86314637D01*
X168344637Y-86114759D01*
X168501680Y-85879727D01*
X168609853Y-85618574D01*
X168665000Y-85341335D01*
X168665000Y-85087289D01*
X169326790Y-84425500D01*
X171179313Y-84425500D01*
X171143764Y-84542691D01*
X171116057Y-84824000D01*
X171143764Y-85105309D01*
X171225818Y-85375808D01*
X171359068Y-85625101D01*
X171538392Y-85843608D01*
X171756899Y-86022932D01*
X172006192Y-86156182D01*
X172276691Y-86238236D01*
X172487508Y-86259000D01*
X172628492Y-86259000D01*
X172839309Y-86238236D01*
X173109808Y-86156182D01*
X173359101Y-86022932D01*
X173577608Y-85843608D01*
X173756932Y-85625101D01*
X173890182Y-85375808D01*
X173972236Y-85105309D01*
X173999943Y-84824000D01*
X173972236Y-84542691D01*
X173936687Y-84425500D01*
X180997211Y-84425500D01*
X181283000Y-84711289D01*
X181283000Y-84965335D01*
X181338147Y-85242574D01*
X181446320Y-85503727D01*
X181603363Y-85738759D01*
X181803241Y-85938637D01*
X182038273Y-86095680D01*
X182299426Y-86203853D01*
X182576665Y-86259000D01*
X182859335Y-86259000D01*
X183136574Y-86203853D01*
X183397727Y-86095680D01*
X183632759Y-85938637D01*
X183832637Y-85738759D01*
X183989680Y-85503727D01*
X184097853Y-85242574D01*
X184153000Y-84965335D01*
X184153000Y-84682665D01*
X184097853Y-84405426D01*
X183989680Y-84144273D01*
X183832637Y-83909241D01*
X183632759Y-83709363D01*
X183397727Y-83552320D01*
X183136574Y-83444147D01*
X182859335Y-83389000D01*
X182605289Y-83389000D01*
X182516289Y-83300000D01*
X182605289Y-83211000D01*
X182859335Y-83211000D01*
X183136574Y-83155853D01*
X183397727Y-83047680D01*
X183632759Y-82890637D01*
X183832637Y-82690759D01*
X183989680Y-82455727D01*
X184097853Y-82194574D01*
X184153000Y-81917335D01*
X184153000Y-81634665D01*
X184097853Y-81357426D01*
X183989680Y-81096273D01*
X183832637Y-80861241D01*
X183632759Y-80661363D01*
X183397727Y-80504320D01*
X183136574Y-80396147D01*
X182859335Y-80341000D01*
X182576665Y-80341000D01*
X182299426Y-80396147D01*
X182038273Y-80504320D01*
X181803241Y-80661363D01*
X181603363Y-80861241D01*
X181446320Y-81096273D01*
X181338147Y-81357426D01*
X181283000Y-81634665D01*
X181283000Y-81888711D01*
X180755836Y-82415875D01*
X180720157Y-82445156D01*
X180629599Y-82555500D01*
X173768478Y-82555500D01*
X173890182Y-82327808D01*
X173972236Y-82057309D01*
X173999943Y-81776000D01*
X173972236Y-81494691D01*
X173890182Y-81224192D01*
X173756932Y-80974899D01*
X173577608Y-80756392D01*
X173359101Y-80577068D01*
X173109808Y-80443818D01*
X172839309Y-80361764D01*
X172628492Y-80341000D01*
X172487508Y-80341000D01*
X172276691Y-80361764D01*
X172006192Y-80443818D01*
X171756899Y-80577068D01*
X171538392Y-80756392D01*
X171359068Y-80974899D01*
X171225818Y-81224192D01*
X171143764Y-81494691D01*
X171116057Y-81776000D01*
X171143764Y-82057309D01*
X171225818Y-82327808D01*
X171347522Y-82555500D01*
X168985431Y-82555500D01*
X168939499Y-82550976D01*
X168756207Y-82569029D01*
X168729598Y-82577101D01*
X168579960Y-82622493D01*
X168417528Y-82709314D01*
X168275156Y-82826156D01*
X168245874Y-82861836D01*
X167342711Y-83765000D01*
X167088665Y-83765000D01*
X166811426Y-83820147D01*
X166550273Y-83928320D01*
X166315241Y-84085363D01*
X166115363Y-84285241D01*
X165981308Y-84485869D01*
X165966671Y-84458486D01*
X165722702Y-84386903D01*
X164909605Y-85200000D01*
X164550395Y-85200000D01*
X163737298Y-84386903D01*
X163493329Y-84458486D01*
X163372429Y-84713996D01*
X163303700Y-84988184D01*
X163289783Y-85270512D01*
X163302356Y-85355367D01*
X162154287Y-84207298D01*
X163916903Y-84207298D01*
X164730000Y-85020395D01*
X165543097Y-84207298D01*
X165471514Y-83963329D01*
X165216004Y-83842429D01*
X164941816Y-83773700D01*
X164659488Y-83759783D01*
X164379870Y-83801213D01*
X164113708Y-83896397D01*
X163988486Y-83963329D01*
X163916903Y-84207298D01*
X162154287Y-84207298D01*
X159123330Y-81176341D01*
X159094044Y-81140656D01*
X158951672Y-81023814D01*
X158789240Y-80936993D01*
X158612992Y-80883529D01*
X158475632Y-80870000D01*
X158429700Y-80865476D01*
X158383768Y-80870000D01*
X146369044Y-80870000D01*
X146299608Y-80785392D01*
X146081101Y-80606068D01*
X145831808Y-80472818D01*
X145561309Y-80390764D01*
X145350492Y-80370000D01*
X145209508Y-80370000D01*
X144998691Y-80390764D01*
X144728192Y-80472818D01*
X144478899Y-80606068D01*
X144272469Y-80775480D01*
X143373030Y-79876041D01*
X143343744Y-79840356D01*
X143201372Y-79723514D01*
X143167959Y-79705655D01*
X143260512Y-79710217D01*
X143540130Y-79668787D01*
X143806292Y-79573603D01*
X143931514Y-79506671D01*
X144003097Y-79262702D01*
X143190000Y-78449605D01*
X142376903Y-79262702D01*
X142448486Y-79506671D01*
X142581691Y-79569700D01*
X133258024Y-79569700D01*
X133212099Y-79565177D01*
X133166174Y-79569700D01*
X133166168Y-79569700D01*
X133047210Y-79581417D01*
X133028807Y-79583229D01*
X132975343Y-79599447D01*
X132852560Y-79636693D01*
X132690128Y-79723514D01*
X132547756Y-79840356D01*
X132518474Y-79876036D01*
X131555530Y-80838980D01*
X131349101Y-80669568D01*
X131099808Y-80536318D01*
X130829309Y-80454264D01*
X130618492Y-80433500D01*
X130477508Y-80433500D01*
X130266691Y-80454264D01*
X129996192Y-80536318D01*
X129746899Y-80669568D01*
X129528392Y-80848892D01*
X129349068Y-81067399D01*
X129215818Y-81316692D01*
X129133764Y-81587191D01*
X129106057Y-81868500D01*
X129133764Y-82149809D01*
X129215818Y-82420308D01*
X129349068Y-82669601D01*
X129528392Y-82888108D01*
X129746899Y-83067432D01*
X129879858Y-83138500D01*
X129746899Y-83209568D01*
X129528392Y-83388892D01*
X129349068Y-83607399D01*
X129271263Y-83752962D01*
X127981300Y-82462999D01*
X127981300Y-79441464D01*
X128154184Y-79484800D01*
X128436512Y-79498717D01*
X128716130Y-79457287D01*
X128982292Y-79362103D01*
X129107514Y-79295171D01*
X129179097Y-79051202D01*
X128366000Y-78238105D01*
X128351858Y-78252248D01*
X128172253Y-78072643D01*
X128186395Y-78058500D01*
X128545605Y-78058500D01*
X129358702Y-78871597D01*
X129602671Y-78800014D01*
X129616324Y-78771159D01*
X129751363Y-78973259D01*
X129951241Y-79173137D01*
X130186273Y-79330180D01*
X130447426Y-79438353D01*
X130724665Y-79493500D01*
X131007335Y-79493500D01*
X131284574Y-79438353D01*
X131545727Y-79330180D01*
X131780759Y-79173137D01*
X131980637Y-78973259D01*
X132137680Y-78738227D01*
X132245853Y-78477074D01*
X132301000Y-78199835D01*
X132301000Y-77917165D01*
X132245853Y-77639926D01*
X132137680Y-77378773D01*
X131980637Y-77143741D01*
X131780759Y-76943863D01*
X131545727Y-76786820D01*
X131284574Y-76678647D01*
X131007335Y-76623500D01*
X130724665Y-76623500D01*
X130447426Y-76678647D01*
X130186273Y-76786820D01*
X129951241Y-76943863D01*
X129751363Y-77143741D01*
X129617308Y-77344369D01*
X129602671Y-77316986D01*
X129358702Y-77245403D01*
X128545605Y-78058500D01*
X128186395Y-78058500D01*
X128172253Y-78044358D01*
X128351858Y-77864753D01*
X128366000Y-77878895D01*
X129179097Y-77065798D01*
X129107514Y-76821829D01*
X129073206Y-76805596D01*
X129600102Y-76278700D01*
X134942899Y-76278700D01*
X134906699Y-76314900D01*
G36*
X150065764Y-96696309D02*
G01*
X150147818Y-96966808D01*
X150281068Y-97216101D01*
X150460392Y-97434608D01*
X150678899Y-97613932D01*
X150811858Y-97685000D01*
X150678899Y-97756068D01*
X150460392Y-97935392D01*
X150281068Y-98153899D01*
X150147818Y-98403192D01*
X150065764Y-98673691D01*
X150038057Y-98955000D01*
X150065764Y-99236309D01*
X150147818Y-99506808D01*
X150281068Y-99756101D01*
X150394356Y-99894143D01*
X149843698Y-100444801D01*
X149814700Y-100468599D01*
X149790902Y-100497597D01*
X149790901Y-100497598D01*
X149719726Y-100584324D01*
X149649154Y-100716354D01*
X149626980Y-100789454D01*
X149605698Y-100859614D01*
X149604678Y-100869974D01*
X149591024Y-101008600D01*
X149594701Y-101045932D01*
X149594700Y-101607298D01*
X146408723Y-104793276D01*
X146352932Y-104688899D01*
X146173608Y-104470392D01*
X145955101Y-104291068D01*
X145705808Y-104157818D01*
X145435309Y-104075764D01*
X145224492Y-104055000D01*
X145083508Y-104055000D01*
X144872691Y-104075764D01*
X144602192Y-104157818D01*
X144352899Y-104291068D01*
X144134392Y-104470392D01*
X144064956Y-104555000D01*
X138956621Y-104555000D01*
X138923502Y-104445820D01*
X138864537Y-104335506D01*
X138785185Y-104238815D01*
X138688494Y-104159463D01*
X138578180Y-104100498D01*
X138458482Y-104064188D01*
X138334000Y-104051928D01*
X137928073Y-104051928D01*
X138925299Y-103054702D01*
X142284903Y-103054702D01*
X142356486Y-103298671D01*
X142611996Y-103419571D01*
X142886184Y-103488300D01*
X143168512Y-103502217D01*
X143448130Y-103460787D01*
X143714292Y-103365603D01*
X143839514Y-103298671D01*
X143911097Y-103054702D01*
X143098000Y-102241605D01*
X142284903Y-103054702D01*
X138925299Y-103054702D01*
X140284402Y-101695600D01*
X141710449Y-101695600D01*
X141671700Y-101850184D01*
X141657783Y-102132512D01*
X141699213Y-102412130D01*
X141794397Y-102678292D01*
X141861329Y-102803514D01*
X142105298Y-102875097D01*
X142918395Y-102062000D01*
X142904253Y-102047858D01*
X143083858Y-101868253D01*
X143098000Y-101882395D01*
X143112143Y-101868253D01*
X143291748Y-102047858D01*
X143277605Y-102062000D01*
X144090702Y-102875097D01*
X144334671Y-102803514D01*
X144348324Y-102774659D01*
X144483363Y-102976759D01*
X144683241Y-103176637D01*
X144918273Y-103333680D01*
X145179426Y-103441853D01*
X145456665Y-103497000D01*
X145739335Y-103497000D01*
X146016574Y-103441853D01*
X146277727Y-103333680D01*
X146512759Y-103176637D01*
X146712637Y-102976759D01*
X146869680Y-102741727D01*
X146977853Y-102480574D01*
X147033000Y-102203335D01*
X147033000Y-101920665D01*
X146977853Y-101643426D01*
X146869680Y-101382273D01*
X146712637Y-101147241D01*
X146512759Y-100947363D01*
X146277727Y-100790320D01*
X146016574Y-100682147D01*
X145912880Y-100661521D01*
X150048937Y-96525465D01*
X150065764Y-96696309D01*
X150065764Y-96696309D01*
G37*
X150065764Y-96696309D02*
X150147818Y-96966808D01*
X150281068Y-97216101D01*
X150460392Y-97434608D01*
X150678899Y-97613932D01*
X150811858Y-97685000D01*
X150678899Y-97756068D01*
X150460392Y-97935392D01*
X150281068Y-98153899D01*
X150147818Y-98403192D01*
X150065764Y-98673691D01*
X150038057Y-98955000D01*
X150065764Y-99236309D01*
X150147818Y-99506808D01*
X150281068Y-99756101D01*
X150394356Y-99894143D01*
X149843698Y-100444801D01*
X149814700Y-100468599D01*
X149790902Y-100497597D01*
X149790901Y-100497598D01*
X149719726Y-100584324D01*
X149649154Y-100716354D01*
X149626980Y-100789454D01*
X149605698Y-100859614D01*
X149604678Y-100869974D01*
X149591024Y-101008600D01*
X149594701Y-101045932D01*
X149594700Y-101607298D01*
X146408723Y-104793276D01*
X146352932Y-104688899D01*
X146173608Y-104470392D01*
X145955101Y-104291068D01*
X145705808Y-104157818D01*
X145435309Y-104075764D01*
X145224492Y-104055000D01*
X145083508Y-104055000D01*
X144872691Y-104075764D01*
X144602192Y-104157818D01*
X144352899Y-104291068D01*
X144134392Y-104470392D01*
X144064956Y-104555000D01*
X138956621Y-104555000D01*
X138923502Y-104445820D01*
X138864537Y-104335506D01*
X138785185Y-104238815D01*
X138688494Y-104159463D01*
X138578180Y-104100498D01*
X138458482Y-104064188D01*
X138334000Y-104051928D01*
X137928073Y-104051928D01*
X138925299Y-103054702D01*
X142284903Y-103054702D01*
X142356486Y-103298671D01*
X142611996Y-103419571D01*
X142886184Y-103488300D01*
X143168512Y-103502217D01*
X143448130Y-103460787D01*
X143714292Y-103365603D01*
X143839514Y-103298671D01*
X143911097Y-103054702D01*
X143098000Y-102241605D01*
X142284903Y-103054702D01*
X138925299Y-103054702D01*
X140284402Y-101695600D01*
X141710449Y-101695600D01*
X141671700Y-101850184D01*
X141657783Y-102132512D01*
X141699213Y-102412130D01*
X141794397Y-102678292D01*
X141861329Y-102803514D01*
X142105298Y-102875097D01*
X142918395Y-102062000D01*
X142904253Y-102047858D01*
X143083858Y-101868253D01*
X143098000Y-101882395D01*
X143112143Y-101868253D01*
X143291748Y-102047858D01*
X143277605Y-102062000D01*
X144090702Y-102875097D01*
X144334671Y-102803514D01*
X144348324Y-102774659D01*
X144483363Y-102976759D01*
X144683241Y-103176637D01*
X144918273Y-103333680D01*
X145179426Y-103441853D01*
X145456665Y-103497000D01*
X145739335Y-103497000D01*
X146016574Y-103441853D01*
X146277727Y-103333680D01*
X146512759Y-103176637D01*
X146712637Y-102976759D01*
X146869680Y-102741727D01*
X146977853Y-102480574D01*
X147033000Y-102203335D01*
X147033000Y-101920665D01*
X146977853Y-101643426D01*
X146869680Y-101382273D01*
X146712637Y-101147241D01*
X146512759Y-100947363D01*
X146277727Y-100790320D01*
X146016574Y-100682147D01*
X145912880Y-100661521D01*
X150048937Y-96525465D01*
X150065764Y-96696309D01*
G36*
X121211205Y-96430708D02*
G01*
X121234999Y-96459701D01*
X121263992Y-96483495D01*
X121263996Y-96483499D01*
X121320660Y-96530001D01*
X121350724Y-96554674D01*
X121482753Y-96625246D01*
X121568880Y-96651372D01*
X121536096Y-96759461D01*
X121658085Y-96981500D01*
X122801000Y-96981500D01*
X122801000Y-96961500D01*
X123055000Y-96961500D01*
X123055000Y-96981500D01*
X124197915Y-96981500D01*
X124319904Y-96759461D01*
X124295712Y-96679700D01*
X129178504Y-96679700D01*
X129133764Y-96827191D01*
X129106057Y-97108500D01*
X129133764Y-97389809D01*
X129215818Y-97660308D01*
X129349068Y-97909601D01*
X129528392Y-98128108D01*
X129746899Y-98307432D01*
X129996192Y-98440682D01*
X130266691Y-98522736D01*
X130477508Y-98543500D01*
X130618492Y-98543500D01*
X130829309Y-98522736D01*
X131099808Y-98440682D01*
X131349101Y-98307432D01*
X131567608Y-98128108D01*
X131746932Y-97909601D01*
X131880182Y-97660308D01*
X131960952Y-97394039D01*
X136268096Y-97394039D01*
X136308754Y-97528087D01*
X136428963Y-97782420D01*
X136596481Y-98008414D01*
X136804869Y-98197385D01*
X137046119Y-98342070D01*
X137310960Y-98436909D01*
X137533000Y-98315624D01*
X137533000Y-97172000D01*
X137787000Y-97172000D01*
X137787000Y-98315624D01*
X138009040Y-98436909D01*
X138273881Y-98342070D01*
X138515131Y-98197385D01*
X138723519Y-98008414D01*
X138891037Y-97782420D01*
X139011246Y-97528087D01*
X139051904Y-97394039D01*
X138929915Y-97172000D01*
X137787000Y-97172000D01*
X137533000Y-97172000D01*
X136390085Y-97172000D01*
X136268096Y-97394039D01*
X131960952Y-97394039D01*
X131962236Y-97389809D01*
X131989943Y-97108500D01*
X131962236Y-96827191D01*
X131917496Y-96679700D01*
X136273028Y-96679700D01*
X136268096Y-96695961D01*
X136390085Y-96918000D01*
X137533000Y-96918000D01*
X137533000Y-96898000D01*
X137787000Y-96898000D01*
X137787000Y-96918000D01*
X138929915Y-96918000D01*
X139051904Y-96695961D01*
X139046972Y-96679700D01*
X142714599Y-96679700D01*
X143590901Y-97556003D01*
X143614699Y-97585001D01*
X143643697Y-97608799D01*
X143730424Y-97679974D01*
X143862453Y-97750546D01*
X144005714Y-97794003D01*
X144055861Y-97798942D01*
X144081068Y-97846101D01*
X144260392Y-98064608D01*
X144478899Y-98243932D01*
X144728192Y-98377182D01*
X144766190Y-98388709D01*
X144527299Y-98627600D01*
X135332923Y-98627600D01*
X135295600Y-98623924D01*
X135258277Y-98627600D01*
X135258267Y-98627600D01*
X135146614Y-98638597D01*
X135003353Y-98682054D01*
X134871324Y-98752626D01*
X134755599Y-98847599D01*
X134731801Y-98876597D01*
X132176999Y-101431399D01*
X132151680Y-101370273D01*
X131994637Y-101135241D01*
X131794759Y-100935363D01*
X131559727Y-100778320D01*
X131298574Y-100670147D01*
X131021335Y-100615000D01*
X130738665Y-100615000D01*
X130461426Y-100670147D01*
X130200273Y-100778320D01*
X129965241Y-100935363D01*
X129765363Y-101135241D01*
X129631308Y-101335869D01*
X129616671Y-101308486D01*
X129372702Y-101236903D01*
X128559605Y-102050000D01*
X128573748Y-102064143D01*
X128394143Y-102243748D01*
X128380000Y-102229605D01*
X128365858Y-102243748D01*
X128186253Y-102064143D01*
X128200395Y-102050000D01*
X127387298Y-101236903D01*
X127143329Y-101308486D01*
X127022429Y-101563996D01*
X126953700Y-101838184D01*
X126939783Y-102120512D01*
X126981213Y-102400130D01*
X126994541Y-102437400D01*
X118871702Y-102437400D01*
X117530022Y-101095721D01*
X117601906Y-101057298D01*
X127566903Y-101057298D01*
X128380000Y-101870395D01*
X129193097Y-101057298D01*
X129121514Y-100813329D01*
X128866004Y-100692429D01*
X128591816Y-100623700D01*
X128309488Y-100609783D01*
X128029870Y-100651213D01*
X127763708Y-100746397D01*
X127638486Y-100813329D01*
X127566903Y-101057298D01*
X117601906Y-101057298D01*
X117711101Y-100998932D01*
X117929608Y-100819608D01*
X118108932Y-100601101D01*
X118242182Y-100351808D01*
X118324236Y-100081309D01*
X118351943Y-99800000D01*
X118324236Y-99518691D01*
X118242182Y-99248192D01*
X118108932Y-98998899D01*
X117929608Y-98780392D01*
X117711101Y-98601068D01*
X117578142Y-98530000D01*
X117711101Y-98458932D01*
X117929608Y-98279608D01*
X118108932Y-98061101D01*
X118242182Y-97811808D01*
X118324236Y-97541309D01*
X118332486Y-97457539D01*
X121536096Y-97457539D01*
X121576754Y-97591587D01*
X121696963Y-97845920D01*
X121864481Y-98071914D01*
X122072869Y-98260885D01*
X122314119Y-98405570D01*
X122578960Y-98500409D01*
X122801000Y-98379124D01*
X122801000Y-97235500D01*
X123055000Y-97235500D01*
X123055000Y-98379124D01*
X123277040Y-98500409D01*
X123541881Y-98405570D01*
X123783131Y-98260885D01*
X123991519Y-98071914D01*
X124159037Y-97845920D01*
X124279246Y-97591587D01*
X124319904Y-97457539D01*
X124197915Y-97235500D01*
X123055000Y-97235500D01*
X122801000Y-97235500D01*
X121658085Y-97235500D01*
X121536096Y-97457539D01*
X118332486Y-97457539D01*
X118351943Y-97260000D01*
X118324236Y-96978691D01*
X118242182Y-96708192D01*
X118108932Y-96458899D01*
X117929608Y-96240392D01*
X117711101Y-96061068D01*
X117578142Y-95990000D01*
X117711101Y-95918932D01*
X117929608Y-95739608D01*
X118108932Y-95521101D01*
X118242182Y-95271808D01*
X118324236Y-95001309D01*
X118351943Y-94720000D01*
X118324236Y-94438691D01*
X118242182Y-94168192D01*
X118108932Y-93918899D01*
X117929608Y-93700392D01*
X117711101Y-93521068D01*
X117578142Y-93450000D01*
X117711101Y-93378932D01*
X117929608Y-93199608D01*
X117952371Y-93171872D01*
X121211205Y-96430708D01*
X121211205Y-96430708D01*
G37*
X121211205Y-96430708D02*
X121234999Y-96459701D01*
X121263992Y-96483495D01*
X121263996Y-96483499D01*
X121320660Y-96530001D01*
X121350724Y-96554674D01*
X121482753Y-96625246D01*
X121568880Y-96651372D01*
X121536096Y-96759461D01*
X121658085Y-96981500D01*
X122801000Y-96981500D01*
X122801000Y-96961500D01*
X123055000Y-96961500D01*
X123055000Y-96981500D01*
X124197915Y-96981500D01*
X124319904Y-96759461D01*
X124295712Y-96679700D01*
X129178504Y-96679700D01*
X129133764Y-96827191D01*
X129106057Y-97108500D01*
X129133764Y-97389809D01*
X129215818Y-97660308D01*
X129349068Y-97909601D01*
X129528392Y-98128108D01*
X129746899Y-98307432D01*
X129996192Y-98440682D01*
X130266691Y-98522736D01*
X130477508Y-98543500D01*
X130618492Y-98543500D01*
X130829309Y-98522736D01*
X131099808Y-98440682D01*
X131349101Y-98307432D01*
X131567608Y-98128108D01*
X131746932Y-97909601D01*
X131880182Y-97660308D01*
X131960952Y-97394039D01*
X136268096Y-97394039D01*
X136308754Y-97528087D01*
X136428963Y-97782420D01*
X136596481Y-98008414D01*
X136804869Y-98197385D01*
X137046119Y-98342070D01*
X137310960Y-98436909D01*
X137533000Y-98315624D01*
X137533000Y-97172000D01*
X137787000Y-97172000D01*
X137787000Y-98315624D01*
X138009040Y-98436909D01*
X138273881Y-98342070D01*
X138515131Y-98197385D01*
X138723519Y-98008414D01*
X138891037Y-97782420D01*
X139011246Y-97528087D01*
X139051904Y-97394039D01*
X138929915Y-97172000D01*
X137787000Y-97172000D01*
X137533000Y-97172000D01*
X136390085Y-97172000D01*
X136268096Y-97394039D01*
X131960952Y-97394039D01*
X131962236Y-97389809D01*
X131989943Y-97108500D01*
X131962236Y-96827191D01*
X131917496Y-96679700D01*
X136273028Y-96679700D01*
X136268096Y-96695961D01*
X136390085Y-96918000D01*
X137533000Y-96918000D01*
X137533000Y-96898000D01*
X137787000Y-96898000D01*
X137787000Y-96918000D01*
X138929915Y-96918000D01*
X139051904Y-96695961D01*
X139046972Y-96679700D01*
X142714599Y-96679700D01*
X143590901Y-97556003D01*
X143614699Y-97585001D01*
X143643697Y-97608799D01*
X143730424Y-97679974D01*
X143862453Y-97750546D01*
X144005714Y-97794003D01*
X144055861Y-97798942D01*
X144081068Y-97846101D01*
X144260392Y-98064608D01*
X144478899Y-98243932D01*
X144728192Y-98377182D01*
X144766190Y-98388709D01*
X144527299Y-98627600D01*
X135332923Y-98627600D01*
X135295600Y-98623924D01*
X135258277Y-98627600D01*
X135258267Y-98627600D01*
X135146614Y-98638597D01*
X135003353Y-98682054D01*
X134871324Y-98752626D01*
X134755599Y-98847599D01*
X134731801Y-98876597D01*
X132176999Y-101431399D01*
X132151680Y-101370273D01*
X131994637Y-101135241D01*
X131794759Y-100935363D01*
X131559727Y-100778320D01*
X131298574Y-100670147D01*
X131021335Y-100615000D01*
X130738665Y-100615000D01*
X130461426Y-100670147D01*
X130200273Y-100778320D01*
X129965241Y-100935363D01*
X129765363Y-101135241D01*
X129631308Y-101335869D01*
X129616671Y-101308486D01*
X129372702Y-101236903D01*
X128559605Y-102050000D01*
X128573748Y-102064143D01*
X128394143Y-102243748D01*
X128380000Y-102229605D01*
X128365858Y-102243748D01*
X128186253Y-102064143D01*
X128200395Y-102050000D01*
X127387298Y-101236903D01*
X127143329Y-101308486D01*
X127022429Y-101563996D01*
X126953700Y-101838184D01*
X126939783Y-102120512D01*
X126981213Y-102400130D01*
X126994541Y-102437400D01*
X118871702Y-102437400D01*
X117530022Y-101095721D01*
X117601906Y-101057298D01*
X127566903Y-101057298D01*
X128380000Y-101870395D01*
X129193097Y-101057298D01*
X129121514Y-100813329D01*
X128866004Y-100692429D01*
X128591816Y-100623700D01*
X128309488Y-100609783D01*
X128029870Y-100651213D01*
X127763708Y-100746397D01*
X127638486Y-100813329D01*
X127566903Y-101057298D01*
X117601906Y-101057298D01*
X117711101Y-100998932D01*
X117929608Y-100819608D01*
X118108932Y-100601101D01*
X118242182Y-100351808D01*
X118324236Y-100081309D01*
X118351943Y-99800000D01*
X118324236Y-99518691D01*
X118242182Y-99248192D01*
X118108932Y-98998899D01*
X117929608Y-98780392D01*
X117711101Y-98601068D01*
X117578142Y-98530000D01*
X117711101Y-98458932D01*
X117929608Y-98279608D01*
X118108932Y-98061101D01*
X118242182Y-97811808D01*
X118324236Y-97541309D01*
X118332486Y-97457539D01*
X121536096Y-97457539D01*
X121576754Y-97591587D01*
X121696963Y-97845920D01*
X121864481Y-98071914D01*
X122072869Y-98260885D01*
X122314119Y-98405570D01*
X122578960Y-98500409D01*
X122801000Y-98379124D01*
X122801000Y-97235500D01*
X123055000Y-97235500D01*
X123055000Y-98379124D01*
X123277040Y-98500409D01*
X123541881Y-98405570D01*
X123783131Y-98260885D01*
X123991519Y-98071914D01*
X124159037Y-97845920D01*
X124279246Y-97591587D01*
X124319904Y-97457539D01*
X124197915Y-97235500D01*
X123055000Y-97235500D01*
X122801000Y-97235500D01*
X121658085Y-97235500D01*
X121536096Y-97457539D01*
X118332486Y-97457539D01*
X118351943Y-97260000D01*
X118324236Y-96978691D01*
X118242182Y-96708192D01*
X118108932Y-96458899D01*
X117929608Y-96240392D01*
X117711101Y-96061068D01*
X117578142Y-95990000D01*
X117711101Y-95918932D01*
X117929608Y-95739608D01*
X118108932Y-95521101D01*
X118242182Y-95271808D01*
X118324236Y-95001309D01*
X118351943Y-94720000D01*
X118324236Y-94438691D01*
X118242182Y-94168192D01*
X118108932Y-93918899D01*
X117929608Y-93700392D01*
X117711101Y-93521068D01*
X117578142Y-93450000D01*
X117711101Y-93378932D01*
X117929608Y-93199608D01*
X117952371Y-93171872D01*
X121211205Y-96430708D01*
G36*
X121489928Y-82668500D02*
G01*
X121502188Y-82792982D01*
X121538498Y-82912680D01*
X121578354Y-82987244D01*
X120809503Y-83756096D01*
X120780499Y-83779899D01*
X120727318Y-83844701D01*
X120685526Y-83895624D01*
X120668501Y-83927476D01*
X120614954Y-84027654D01*
X120571497Y-84170915D01*
X120560500Y-84282568D01*
X120560500Y-84282578D01*
X120556824Y-84319900D01*
X120560500Y-84357222D01*
X120560501Y-91978268D01*
X120556824Y-92015600D01*
X120560501Y-92052933D01*
X120571498Y-92164586D01*
X120575411Y-92177485D01*
X120614954Y-92307846D01*
X120685526Y-92439876D01*
X120747774Y-92515724D01*
X120780500Y-92555601D01*
X120809498Y-92579399D01*
X121850064Y-93619965D01*
X121729068Y-93767399D01*
X121595818Y-94016692D01*
X121513764Y-94287191D01*
X121487182Y-94557079D01*
X118599104Y-91669003D01*
X118575301Y-91639999D01*
X118459576Y-91545026D01*
X118327547Y-91474454D01*
X118184286Y-91430997D01*
X118134139Y-91426058D01*
X118108932Y-91378899D01*
X117929608Y-91160392D01*
X117711101Y-90981068D01*
X117578142Y-90910000D01*
X117711101Y-90838932D01*
X117929608Y-90659608D01*
X118108932Y-90441101D01*
X118242182Y-90191808D01*
X118324236Y-89921309D01*
X118351943Y-89640000D01*
X118324236Y-89358691D01*
X118242182Y-89088192D01*
X118108932Y-88838899D01*
X117929608Y-88620392D01*
X117711101Y-88441068D01*
X117578142Y-88370000D01*
X117711101Y-88298932D01*
X117929608Y-88119608D01*
X118108932Y-87901101D01*
X118242182Y-87651808D01*
X118324236Y-87381309D01*
X118351943Y-87100000D01*
X118324236Y-86818691D01*
X118242182Y-86548192D01*
X118108932Y-86298899D01*
X117929608Y-86080392D01*
X117711101Y-85901068D01*
X117573318Y-85827421D01*
X117765131Y-85712385D01*
X117973519Y-85523414D01*
X118141037Y-85297420D01*
X118261246Y-85043087D01*
X118301904Y-84909039D01*
X118179915Y-84687000D01*
X117037000Y-84687000D01*
X117037000Y-84707000D01*
X116783000Y-84707000D01*
X116783000Y-84687000D01*
X115640085Y-84687000D01*
X115518096Y-84909039D01*
X115558754Y-85043087D01*
X115678963Y-85297420D01*
X115846481Y-85523414D01*
X116054869Y-85712385D01*
X116246682Y-85827421D01*
X116108899Y-85901068D01*
X115890392Y-86080392D01*
X115711068Y-86298899D01*
X115685861Y-86346058D01*
X115635714Y-86350997D01*
X115492453Y-86394454D01*
X115360424Y-86465026D01*
X115244699Y-86559999D01*
X115220901Y-86588997D01*
X114085399Y-87724500D01*
X110583327Y-87724500D01*
X110622182Y-87651808D01*
X110704236Y-87381309D01*
X110731943Y-87100000D01*
X110704236Y-86818691D01*
X110622182Y-86548192D01*
X110488932Y-86298899D01*
X110309608Y-86080392D01*
X110091101Y-85901068D01*
X110043942Y-85875861D01*
X110039003Y-85825714D01*
X110028840Y-85792211D01*
X110091101Y-85758932D01*
X110309608Y-85579608D01*
X110488932Y-85361101D01*
X110514139Y-85313942D01*
X110564286Y-85309003D01*
X110707547Y-85265546D01*
X110839576Y-85194974D01*
X110955301Y-85100001D01*
X110979104Y-85070998D01*
X111855402Y-84194700D01*
X115523028Y-84194700D01*
X115518096Y-84210961D01*
X115640085Y-84433000D01*
X116783000Y-84433000D01*
X116783000Y-84413000D01*
X117037000Y-84413000D01*
X117037000Y-84433000D01*
X118179915Y-84433000D01*
X118301904Y-84210961D01*
X118286588Y-84160466D01*
X118353247Y-84140246D01*
X118485276Y-84069674D01*
X118601001Y-83974701D01*
X118624804Y-83945697D01*
X121489928Y-81080573D01*
X121489928Y-82668500D01*
X121489928Y-82668500D01*
G37*
X121489928Y-82668500D02*
X121502188Y-82792982D01*
X121538498Y-82912680D01*
X121578354Y-82987244D01*
X120809503Y-83756096D01*
X120780499Y-83779899D01*
X120727318Y-83844701D01*
X120685526Y-83895624D01*
X120668501Y-83927476D01*
X120614954Y-84027654D01*
X120571497Y-84170915D01*
X120560500Y-84282568D01*
X120560500Y-84282578D01*
X120556824Y-84319900D01*
X120560500Y-84357222D01*
X120560501Y-91978268D01*
X120556824Y-92015600D01*
X120560501Y-92052933D01*
X120571498Y-92164586D01*
X120575411Y-92177485D01*
X120614954Y-92307846D01*
X120685526Y-92439876D01*
X120747774Y-92515724D01*
X120780500Y-92555601D01*
X120809498Y-92579399D01*
X121850064Y-93619965D01*
X121729068Y-93767399D01*
X121595818Y-94016692D01*
X121513764Y-94287191D01*
X121487182Y-94557079D01*
X118599104Y-91669003D01*
X118575301Y-91639999D01*
X118459576Y-91545026D01*
X118327547Y-91474454D01*
X118184286Y-91430997D01*
X118134139Y-91426058D01*
X118108932Y-91378899D01*
X117929608Y-91160392D01*
X117711101Y-90981068D01*
X117578142Y-90910000D01*
X117711101Y-90838932D01*
X117929608Y-90659608D01*
X118108932Y-90441101D01*
X118242182Y-90191808D01*
X118324236Y-89921309D01*
X118351943Y-89640000D01*
X118324236Y-89358691D01*
X118242182Y-89088192D01*
X118108932Y-88838899D01*
X117929608Y-88620392D01*
X117711101Y-88441068D01*
X117578142Y-88370000D01*
X117711101Y-88298932D01*
X117929608Y-88119608D01*
X118108932Y-87901101D01*
X118242182Y-87651808D01*
X118324236Y-87381309D01*
X118351943Y-87100000D01*
X118324236Y-86818691D01*
X118242182Y-86548192D01*
X118108932Y-86298899D01*
X117929608Y-86080392D01*
X117711101Y-85901068D01*
X117573318Y-85827421D01*
X117765131Y-85712385D01*
X117973519Y-85523414D01*
X118141037Y-85297420D01*
X118261246Y-85043087D01*
X118301904Y-84909039D01*
X118179915Y-84687000D01*
X117037000Y-84687000D01*
X117037000Y-84707000D01*
X116783000Y-84707000D01*
X116783000Y-84687000D01*
X115640085Y-84687000D01*
X115518096Y-84909039D01*
X115558754Y-85043087D01*
X115678963Y-85297420D01*
X115846481Y-85523414D01*
X116054869Y-85712385D01*
X116246682Y-85827421D01*
X116108899Y-85901068D01*
X115890392Y-86080392D01*
X115711068Y-86298899D01*
X115685861Y-86346058D01*
X115635714Y-86350997D01*
X115492453Y-86394454D01*
X115360424Y-86465026D01*
X115244699Y-86559999D01*
X115220901Y-86588997D01*
X114085399Y-87724500D01*
X110583327Y-87724500D01*
X110622182Y-87651808D01*
X110704236Y-87381309D01*
X110731943Y-87100000D01*
X110704236Y-86818691D01*
X110622182Y-86548192D01*
X110488932Y-86298899D01*
X110309608Y-86080392D01*
X110091101Y-85901068D01*
X110043942Y-85875861D01*
X110039003Y-85825714D01*
X110028840Y-85792211D01*
X110091101Y-85758932D01*
X110309608Y-85579608D01*
X110488932Y-85361101D01*
X110514139Y-85313942D01*
X110564286Y-85309003D01*
X110707547Y-85265546D01*
X110839576Y-85194974D01*
X110955301Y-85100001D01*
X110979104Y-85070998D01*
X111855402Y-84194700D01*
X115523028Y-84194700D01*
X115518096Y-84210961D01*
X115640085Y-84433000D01*
X116783000Y-84433000D01*
X116783000Y-84413000D01*
X117037000Y-84413000D01*
X117037000Y-84433000D01*
X118179915Y-84433000D01*
X118301904Y-84210961D01*
X118286588Y-84160466D01*
X118353247Y-84140246D01*
X118485276Y-84069674D01*
X118601001Y-83974701D01*
X118624804Y-83945697D01*
X121489928Y-81080573D01*
X121489928Y-82668500D01*
G36*
X107404700Y-85093477D02*
G01*
X107401024Y-85130800D01*
X107404700Y-85168122D01*
X107404700Y-85168132D01*
X107415697Y-85279785D01*
X107459154Y-85423046D01*
X107529726Y-85555076D01*
X107569571Y-85603626D01*
X107624699Y-85670801D01*
X107653702Y-85694603D01*
X108166312Y-86207214D01*
X108091068Y-86298899D01*
X107957818Y-86548192D01*
X107875764Y-86818691D01*
X107848057Y-87100000D01*
X107875764Y-87381309D01*
X107957818Y-87651808D01*
X108010819Y-87750966D01*
X107930520Y-87775324D01*
X107918553Y-87778954D01*
X107786523Y-87849526D01*
X107719406Y-87904608D01*
X107670799Y-87944499D01*
X107647001Y-87973497D01*
X106220434Y-89400064D01*
X106175134Y-89344866D01*
X106145313Y-89320393D01*
X106214180Y-89299502D01*
X106324494Y-89240537D01*
X106421185Y-89161185D01*
X106500537Y-89064494D01*
X106559502Y-88954180D01*
X106595812Y-88834482D01*
X106608072Y-88710000D01*
X106605000Y-88145750D01*
X106446250Y-87987000D01*
X105247000Y-87987000D01*
X105247000Y-88007000D01*
X104993000Y-88007000D01*
X104993000Y-87987000D01*
X104973000Y-87987000D01*
X104973000Y-87733000D01*
X104993000Y-87733000D01*
X104993000Y-86533750D01*
X105247000Y-86533750D01*
X105247000Y-87733000D01*
X106446250Y-87733000D01*
X106605000Y-87574250D01*
X106608072Y-87010000D01*
X106595812Y-86885518D01*
X106559502Y-86765820D01*
X106500537Y-86655506D01*
X106421185Y-86558815D01*
X106324494Y-86479463D01*
X106214180Y-86420498D01*
X106094482Y-86384188D01*
X105970000Y-86371928D01*
X105405750Y-86375000D01*
X105247000Y-86533750D01*
X104993000Y-86533750D01*
X104834250Y-86375000D01*
X104704300Y-86374293D01*
X104704300Y-84948101D01*
X107404701Y-82247701D01*
X107404700Y-85093477D01*
X107404700Y-85093477D01*
G37*
X107404700Y-85093477D02*
X107401024Y-85130800D01*
X107404700Y-85168122D01*
X107404700Y-85168132D01*
X107415697Y-85279785D01*
X107459154Y-85423046D01*
X107529726Y-85555076D01*
X107569571Y-85603626D01*
X107624699Y-85670801D01*
X107653702Y-85694603D01*
X108166312Y-86207214D01*
X108091068Y-86298899D01*
X107957818Y-86548192D01*
X107875764Y-86818691D01*
X107848057Y-87100000D01*
X107875764Y-87381309D01*
X107957818Y-87651808D01*
X108010819Y-87750966D01*
X107930520Y-87775324D01*
X107918553Y-87778954D01*
X107786523Y-87849526D01*
X107719406Y-87904608D01*
X107670799Y-87944499D01*
X107647001Y-87973497D01*
X106220434Y-89400064D01*
X106175134Y-89344866D01*
X106145313Y-89320393D01*
X106214180Y-89299502D01*
X106324494Y-89240537D01*
X106421185Y-89161185D01*
X106500537Y-89064494D01*
X106559502Y-88954180D01*
X106595812Y-88834482D01*
X106608072Y-88710000D01*
X106605000Y-88145750D01*
X106446250Y-87987000D01*
X105247000Y-87987000D01*
X105247000Y-88007000D01*
X104993000Y-88007000D01*
X104993000Y-87987000D01*
X104973000Y-87987000D01*
X104973000Y-87733000D01*
X104993000Y-87733000D01*
X104993000Y-86533750D01*
X105247000Y-86533750D01*
X105247000Y-87733000D01*
X106446250Y-87733000D01*
X106605000Y-87574250D01*
X106608072Y-87010000D01*
X106595812Y-86885518D01*
X106559502Y-86765820D01*
X106500537Y-86655506D01*
X106421185Y-86558815D01*
X106324494Y-86479463D01*
X106214180Y-86420498D01*
X106094482Y-86384188D01*
X105970000Y-86371928D01*
X105405750Y-86375000D01*
X105247000Y-86533750D01*
X104993000Y-86533750D01*
X104834250Y-86375000D01*
X104704300Y-86374293D01*
X104704300Y-84948101D01*
X107404701Y-82247701D01*
X107404700Y-85093477D01*
G36*
X118346594Y-82074305D02*
G01*
X118351943Y-82020000D01*
X118324236Y-81738691D01*
X118242182Y-81468192D01*
X118108932Y-81218899D01*
X117939520Y-81012469D01*
X118078660Y-80873329D01*
X118114344Y-80844044D01*
X118231186Y-80701672D01*
X118318007Y-80539240D01*
X118361851Y-80394705D01*
X118371471Y-80362993D01*
X118389524Y-80179701D01*
X118385000Y-80133769D01*
X118385000Y-79704396D01*
X118564637Y-79524759D01*
X118721680Y-79289727D01*
X118829853Y-79028574D01*
X118885000Y-78751335D01*
X118885000Y-78468665D01*
X118829853Y-78191426D01*
X118721680Y-77930273D01*
X118564637Y-77695241D01*
X118364759Y-77495363D01*
X118129727Y-77338320D01*
X117868574Y-77230147D01*
X117591335Y-77175000D01*
X117308665Y-77175000D01*
X117031426Y-77230147D01*
X116770273Y-77338320D01*
X116535241Y-77495363D01*
X116335363Y-77695241D01*
X116201308Y-77895869D01*
X116186671Y-77868486D01*
X115942702Y-77796903D01*
X115129605Y-78610000D01*
X115942702Y-79423097D01*
X116186671Y-79351514D01*
X116200324Y-79322659D01*
X116335363Y-79524759D01*
X116515000Y-79704396D01*
X116515000Y-79792411D01*
X116281336Y-80026075D01*
X116245657Y-80055356D01*
X116128815Y-80197728D01*
X116062707Y-80321408D01*
X116041994Y-80360160D01*
X115988529Y-80536409D01*
X115970476Y-80719700D01*
X115975001Y-80765641D01*
X115975001Y-80930955D01*
X115890392Y-81000392D01*
X115711068Y-81218899D01*
X115577818Y-81468192D01*
X115495764Y-81738691D01*
X115468057Y-82020000D01*
X115495764Y-82301309D01*
X115577818Y-82571808D01*
X115632815Y-82674700D01*
X111577933Y-82674700D01*
X111540600Y-82671023D01*
X111503267Y-82674700D01*
X111391614Y-82685697D01*
X111248353Y-82729154D01*
X111116324Y-82799726D01*
X111000599Y-82894699D01*
X110976801Y-82923697D01*
X110332370Y-83568128D01*
X110309608Y-83540392D01*
X110196518Y-83447581D01*
X110214482Y-83445812D01*
X110334180Y-83409502D01*
X110444494Y-83350537D01*
X110541185Y-83271185D01*
X110620537Y-83174494D01*
X110679502Y-83064180D01*
X110715812Y-82944482D01*
X110728072Y-82820000D01*
X110728072Y-81220000D01*
X110715812Y-81095518D01*
X110679502Y-80975820D01*
X110620537Y-80865506D01*
X110541185Y-80768815D01*
X110444494Y-80689463D01*
X110334180Y-80630498D01*
X110214482Y-80594188D01*
X110090000Y-80581928D01*
X109707373Y-80581928D01*
X110686599Y-79602702D01*
X114136903Y-79602702D01*
X114208486Y-79846671D01*
X114463996Y-79967571D01*
X114738184Y-80036300D01*
X115020512Y-80050217D01*
X115300130Y-80008787D01*
X115566292Y-79913603D01*
X115691514Y-79846671D01*
X115763097Y-79602702D01*
X114950000Y-78789605D01*
X114136903Y-79602702D01*
X110686599Y-79602702D01*
X111608789Y-78680512D01*
X113509783Y-78680512D01*
X113551213Y-78960130D01*
X113646397Y-79226292D01*
X113713329Y-79351514D01*
X113957298Y-79423097D01*
X114770395Y-78610000D01*
X113957298Y-77796903D01*
X113713329Y-77868486D01*
X113592429Y-78123996D01*
X113523700Y-78398184D01*
X113509783Y-78680512D01*
X111608789Y-78680512D01*
X112672003Y-77617298D01*
X114136903Y-77617298D01*
X114950000Y-78430395D01*
X115763097Y-77617298D01*
X115691514Y-77373329D01*
X115436004Y-77252429D01*
X115161816Y-77183700D01*
X114879488Y-77169783D01*
X114599870Y-77211213D01*
X114333708Y-77306397D01*
X114208486Y-77373329D01*
X114136903Y-77617298D01*
X112672003Y-77617298D01*
X117876802Y-72412500D01*
X128008398Y-72412500D01*
X118346594Y-82074305D01*
X118346594Y-82074305D01*
G37*
X118346594Y-82074305D02*
X118351943Y-82020000D01*
X118324236Y-81738691D01*
X118242182Y-81468192D01*
X118108932Y-81218899D01*
X117939520Y-81012469D01*
X118078660Y-80873329D01*
X118114344Y-80844044D01*
X118231186Y-80701672D01*
X118318007Y-80539240D01*
X118361851Y-80394705D01*
X118371471Y-80362993D01*
X118389524Y-80179701D01*
X118385000Y-80133769D01*
X118385000Y-79704396D01*
X118564637Y-79524759D01*
X118721680Y-79289727D01*
X118829853Y-79028574D01*
X118885000Y-78751335D01*
X118885000Y-78468665D01*
X118829853Y-78191426D01*
X118721680Y-77930273D01*
X118564637Y-77695241D01*
X118364759Y-77495363D01*
X118129727Y-77338320D01*
X117868574Y-77230147D01*
X117591335Y-77175000D01*
X117308665Y-77175000D01*
X117031426Y-77230147D01*
X116770273Y-77338320D01*
X116535241Y-77495363D01*
X116335363Y-77695241D01*
X116201308Y-77895869D01*
X116186671Y-77868486D01*
X115942702Y-77796903D01*
X115129605Y-78610000D01*
X115942702Y-79423097D01*
X116186671Y-79351514D01*
X116200324Y-79322659D01*
X116335363Y-79524759D01*
X116515000Y-79704396D01*
X116515000Y-79792411D01*
X116281336Y-80026075D01*
X116245657Y-80055356D01*
X116128815Y-80197728D01*
X116062707Y-80321408D01*
X116041994Y-80360160D01*
X115988529Y-80536409D01*
X115970476Y-80719700D01*
X115975001Y-80765641D01*
X115975001Y-80930955D01*
X115890392Y-81000392D01*
X115711068Y-81218899D01*
X115577818Y-81468192D01*
X115495764Y-81738691D01*
X115468057Y-82020000D01*
X115495764Y-82301309D01*
X115577818Y-82571808D01*
X115632815Y-82674700D01*
X111577933Y-82674700D01*
X111540600Y-82671023D01*
X111503267Y-82674700D01*
X111391614Y-82685697D01*
X111248353Y-82729154D01*
X111116324Y-82799726D01*
X111000599Y-82894699D01*
X110976801Y-82923697D01*
X110332370Y-83568128D01*
X110309608Y-83540392D01*
X110196518Y-83447581D01*
X110214482Y-83445812D01*
X110334180Y-83409502D01*
X110444494Y-83350537D01*
X110541185Y-83271185D01*
X110620537Y-83174494D01*
X110679502Y-83064180D01*
X110715812Y-82944482D01*
X110728072Y-82820000D01*
X110728072Y-81220000D01*
X110715812Y-81095518D01*
X110679502Y-80975820D01*
X110620537Y-80865506D01*
X110541185Y-80768815D01*
X110444494Y-80689463D01*
X110334180Y-80630498D01*
X110214482Y-80594188D01*
X110090000Y-80581928D01*
X109707373Y-80581928D01*
X110686599Y-79602702D01*
X114136903Y-79602702D01*
X114208486Y-79846671D01*
X114463996Y-79967571D01*
X114738184Y-80036300D01*
X115020512Y-80050217D01*
X115300130Y-80008787D01*
X115566292Y-79913603D01*
X115691514Y-79846671D01*
X115763097Y-79602702D01*
X114950000Y-78789605D01*
X114136903Y-79602702D01*
X110686599Y-79602702D01*
X111608789Y-78680512D01*
X113509783Y-78680512D01*
X113551213Y-78960130D01*
X113646397Y-79226292D01*
X113713329Y-79351514D01*
X113957298Y-79423097D01*
X114770395Y-78610000D01*
X113957298Y-77796903D01*
X113713329Y-77868486D01*
X113592429Y-78123996D01*
X113523700Y-78398184D01*
X113509783Y-78680512D01*
X111608789Y-78680512D01*
X112672003Y-77617298D01*
X114136903Y-77617298D01*
X114950000Y-78430395D01*
X115763097Y-77617298D01*
X115691514Y-77373329D01*
X115436004Y-77252429D01*
X115161816Y-77183700D01*
X114879488Y-77169783D01*
X114599870Y-77211213D01*
X114333708Y-77306397D01*
X114208486Y-77373329D01*
X114136903Y-77617298D01*
X112672003Y-77617298D01*
X117876802Y-72412500D01*
X128008398Y-72412500D01*
X118346594Y-82074305D01*
G36*
X192098226Y-72511928D02*
G01*
X191650000Y-72511928D01*
X191525518Y-72524188D01*
X191405820Y-72560498D01*
X191295506Y-72619463D01*
X191198815Y-72698815D01*
X191119463Y-72795506D01*
X191060498Y-72905820D01*
X191024188Y-73025518D01*
X191011928Y-73150000D01*
X191011928Y-74850000D01*
X191024188Y-74974482D01*
X191060498Y-75094180D01*
X191119463Y-75204494D01*
X191198815Y-75301185D01*
X191295506Y-75380537D01*
X191405820Y-75439502D01*
X191474687Y-75460393D01*
X191444866Y-75484866D01*
X191259294Y-75710986D01*
X191121401Y-75968966D01*
X191036487Y-76248889D01*
X191007815Y-76540000D01*
X191036487Y-76831111D01*
X191121401Y-77111034D01*
X191259294Y-77369014D01*
X191444866Y-77595134D01*
X191670986Y-77780706D01*
X191725791Y-77810000D01*
X191670986Y-77839294D01*
X191444866Y-78024866D01*
X191259294Y-78250986D01*
X191218795Y-78326754D01*
X191175714Y-78330997D01*
X191032453Y-78374454D01*
X190900424Y-78445026D01*
X190784699Y-78539999D01*
X190760896Y-78569003D01*
X190612399Y-78717500D01*
X175914001Y-78717500D01*
X178803528Y-75827974D01*
X178829463Y-75876494D01*
X178908815Y-75973185D01*
X179005506Y-76052537D01*
X179051630Y-76077191D01*
X178911082Y-76287537D01*
X178787832Y-76585088D01*
X178725000Y-76900967D01*
X178725000Y-77223033D01*
X178787832Y-77538912D01*
X178911082Y-77836463D01*
X179090013Y-78104252D01*
X179317748Y-78331987D01*
X179585537Y-78510918D01*
X179883088Y-78634168D01*
X180198967Y-78697000D01*
X180521033Y-78697000D01*
X180836912Y-78634168D01*
X181134463Y-78510918D01*
X181402252Y-78331987D01*
X181629987Y-78104252D01*
X181808918Y-77836463D01*
X181932168Y-77538912D01*
X181995000Y-77223033D01*
X181995000Y-76900967D01*
X181932168Y-76585088D01*
X181808918Y-76287537D01*
X181668370Y-76077191D01*
X181714494Y-76052537D01*
X181811185Y-75973185D01*
X181890537Y-75876494D01*
X181949502Y-75766180D01*
X181985812Y-75646482D01*
X181998072Y-75522000D01*
X181998072Y-73876600D01*
X183516499Y-73876600D01*
X184620901Y-74981003D01*
X184644699Y-75010001D01*
X184760424Y-75104974D01*
X184871928Y-75164575D01*
X184871928Y-75370000D01*
X184884188Y-75494482D01*
X184920498Y-75614180D01*
X184979463Y-75724494D01*
X185058815Y-75821185D01*
X185155506Y-75900537D01*
X185265820Y-75959502D01*
X185284127Y-75965056D01*
X185217688Y-76031495D01*
X185049701Y-76282905D01*
X184933989Y-76562257D01*
X184875000Y-76858816D01*
X184875000Y-77161184D01*
X184933989Y-77457743D01*
X185049701Y-77737095D01*
X185217688Y-77988505D01*
X185431495Y-78202312D01*
X185682905Y-78370299D01*
X185962257Y-78486011D01*
X186258816Y-78545000D01*
X186561184Y-78545000D01*
X186857743Y-78486011D01*
X187137095Y-78370299D01*
X187388505Y-78202312D01*
X187602312Y-77988505D01*
X187770299Y-77737095D01*
X187886011Y-77457743D01*
X187945000Y-77161184D01*
X187945000Y-76858816D01*
X187886011Y-76562257D01*
X187770299Y-76282905D01*
X187602312Y-76031495D01*
X187535873Y-75965056D01*
X187554180Y-75959502D01*
X187664494Y-75900537D01*
X187761185Y-75821185D01*
X187840537Y-75724494D01*
X187899502Y-75614180D01*
X187935812Y-75494482D01*
X187948072Y-75370000D01*
X187948072Y-73570000D01*
X187935812Y-73445518D01*
X187899502Y-73325820D01*
X187840537Y-73215506D01*
X187761185Y-73118815D01*
X187664494Y-73039463D01*
X187554180Y-72980498D01*
X187434482Y-72944188D01*
X187310000Y-72931928D01*
X185510000Y-72931928D01*
X185385518Y-72944188D01*
X185265820Y-72980498D01*
X185155506Y-73039463D01*
X185058815Y-73118815D01*
X184990977Y-73201476D01*
X184395104Y-72605603D01*
X184371301Y-72576599D01*
X184255576Y-72481626D01*
X184123547Y-72411054D01*
X183980286Y-72367597D01*
X183868633Y-72356600D01*
X183868622Y-72356600D01*
X183831300Y-72352924D01*
X183793978Y-72356600D01*
X164328922Y-72356600D01*
X164291599Y-72352924D01*
X164254276Y-72356600D01*
X164254267Y-72356600D01*
X164142614Y-72367597D01*
X163999353Y-72411054D01*
X163867324Y-72481626D01*
X163867322Y-72481627D01*
X163867323Y-72481627D01*
X163780596Y-72552801D01*
X163780592Y-72552805D01*
X163751599Y-72576599D01*
X163727805Y-72605592D01*
X161574699Y-74758700D01*
X158632896Y-74758700D01*
X158822298Y-74721026D01*
X159010656Y-74643005D01*
X159180174Y-74529737D01*
X159224111Y-74485800D01*
X160547278Y-74485800D01*
X160584600Y-74489476D01*
X160621922Y-74485800D01*
X160621933Y-74485800D01*
X160733586Y-74474803D01*
X160876847Y-74431346D01*
X161008876Y-74360774D01*
X161124601Y-74265801D01*
X161148404Y-74236797D01*
X164709879Y-70675323D01*
X164803394Y-70752069D01*
X165063736Y-70891225D01*
X165346223Y-70976916D01*
X165566381Y-70998600D01*
X165713619Y-70998600D01*
X165933777Y-70976916D01*
X166216264Y-70891225D01*
X166476606Y-70752069D01*
X166704797Y-70564797D01*
X166892069Y-70336606D01*
X166910000Y-70303060D01*
X166927931Y-70336606D01*
X167115203Y-70564797D01*
X167343394Y-70752069D01*
X167603736Y-70891225D01*
X167886223Y-70976916D01*
X168106381Y-70998600D01*
X168253619Y-70998600D01*
X168473777Y-70976916D01*
X168756264Y-70891225D01*
X169016606Y-70752069D01*
X169244797Y-70564797D01*
X169432069Y-70336606D01*
X169450000Y-70303060D01*
X169467931Y-70336606D01*
X169655203Y-70564797D01*
X169883394Y-70752069D01*
X170143736Y-70891225D01*
X170426223Y-70976916D01*
X170646381Y-70998600D01*
X170793619Y-70998600D01*
X171013777Y-70976916D01*
X171296264Y-70891225D01*
X171556606Y-70752069D01*
X171784797Y-70564797D01*
X171972069Y-70336606D01*
X171990000Y-70303060D01*
X172007931Y-70336606D01*
X172195203Y-70564797D01*
X172423394Y-70752069D01*
X172683736Y-70891225D01*
X172966223Y-70976916D01*
X173186381Y-70998600D01*
X173333619Y-70998600D01*
X173553777Y-70976916D01*
X173836264Y-70891225D01*
X174096606Y-70752069D01*
X174324797Y-70564797D01*
X174512069Y-70336606D01*
X174651225Y-70076264D01*
X174736916Y-69793777D01*
X174765851Y-69500000D01*
X174736916Y-69206223D01*
X174651225Y-68923736D01*
X174512069Y-68663394D01*
X174324797Y-68435203D01*
X174096606Y-68247931D01*
X174063060Y-68230000D01*
X174096606Y-68212069D01*
X174324797Y-68024797D01*
X174512069Y-67796606D01*
X174651225Y-67536264D01*
X174736916Y-67253777D01*
X174765851Y-66960000D01*
X174736916Y-66666223D01*
X174651225Y-66383736D01*
X174512069Y-66123394D01*
X174324797Y-65895203D01*
X174096606Y-65707931D01*
X173951743Y-65630500D01*
X185216799Y-65630500D01*
X192098226Y-72511928D01*
X192098226Y-72511928D01*
G37*
X192098226Y-72511928D02*
X191650000Y-72511928D01*
X191525518Y-72524188D01*
X191405820Y-72560498D01*
X191295506Y-72619463D01*
X191198815Y-72698815D01*
X191119463Y-72795506D01*
X191060498Y-72905820D01*
X191024188Y-73025518D01*
X191011928Y-73150000D01*
X191011928Y-74850000D01*
X191024188Y-74974482D01*
X191060498Y-75094180D01*
X191119463Y-75204494D01*
X191198815Y-75301185D01*
X191295506Y-75380537D01*
X191405820Y-75439502D01*
X191474687Y-75460393D01*
X191444866Y-75484866D01*
X191259294Y-75710986D01*
X191121401Y-75968966D01*
X191036487Y-76248889D01*
X191007815Y-76540000D01*
X191036487Y-76831111D01*
X191121401Y-77111034D01*
X191259294Y-77369014D01*
X191444866Y-77595134D01*
X191670986Y-77780706D01*
X191725791Y-77810000D01*
X191670986Y-77839294D01*
X191444866Y-78024866D01*
X191259294Y-78250986D01*
X191218795Y-78326754D01*
X191175714Y-78330997D01*
X191032453Y-78374454D01*
X190900424Y-78445026D01*
X190784699Y-78539999D01*
X190760896Y-78569003D01*
X190612399Y-78717500D01*
X175914001Y-78717500D01*
X178803528Y-75827974D01*
X178829463Y-75876494D01*
X178908815Y-75973185D01*
X179005506Y-76052537D01*
X179051630Y-76077191D01*
X178911082Y-76287537D01*
X178787832Y-76585088D01*
X178725000Y-76900967D01*
X178725000Y-77223033D01*
X178787832Y-77538912D01*
X178911082Y-77836463D01*
X179090013Y-78104252D01*
X179317748Y-78331987D01*
X179585537Y-78510918D01*
X179883088Y-78634168D01*
X180198967Y-78697000D01*
X180521033Y-78697000D01*
X180836912Y-78634168D01*
X181134463Y-78510918D01*
X181402252Y-78331987D01*
X181629987Y-78104252D01*
X181808918Y-77836463D01*
X181932168Y-77538912D01*
X181995000Y-77223033D01*
X181995000Y-76900967D01*
X181932168Y-76585088D01*
X181808918Y-76287537D01*
X181668370Y-76077191D01*
X181714494Y-76052537D01*
X181811185Y-75973185D01*
X181890537Y-75876494D01*
X181949502Y-75766180D01*
X181985812Y-75646482D01*
X181998072Y-75522000D01*
X181998072Y-73876600D01*
X183516499Y-73876600D01*
X184620901Y-74981003D01*
X184644699Y-75010001D01*
X184760424Y-75104974D01*
X184871928Y-75164575D01*
X184871928Y-75370000D01*
X184884188Y-75494482D01*
X184920498Y-75614180D01*
X184979463Y-75724494D01*
X185058815Y-75821185D01*
X185155506Y-75900537D01*
X185265820Y-75959502D01*
X185284127Y-75965056D01*
X185217688Y-76031495D01*
X185049701Y-76282905D01*
X184933989Y-76562257D01*
X184875000Y-76858816D01*
X184875000Y-77161184D01*
X184933989Y-77457743D01*
X185049701Y-77737095D01*
X185217688Y-77988505D01*
X185431495Y-78202312D01*
X185682905Y-78370299D01*
X185962257Y-78486011D01*
X186258816Y-78545000D01*
X186561184Y-78545000D01*
X186857743Y-78486011D01*
X187137095Y-78370299D01*
X187388505Y-78202312D01*
X187602312Y-77988505D01*
X187770299Y-77737095D01*
X187886011Y-77457743D01*
X187945000Y-77161184D01*
X187945000Y-76858816D01*
X187886011Y-76562257D01*
X187770299Y-76282905D01*
X187602312Y-76031495D01*
X187535873Y-75965056D01*
X187554180Y-75959502D01*
X187664494Y-75900537D01*
X187761185Y-75821185D01*
X187840537Y-75724494D01*
X187899502Y-75614180D01*
X187935812Y-75494482D01*
X187948072Y-75370000D01*
X187948072Y-73570000D01*
X187935812Y-73445518D01*
X187899502Y-73325820D01*
X187840537Y-73215506D01*
X187761185Y-73118815D01*
X187664494Y-73039463D01*
X187554180Y-72980498D01*
X187434482Y-72944188D01*
X187310000Y-72931928D01*
X185510000Y-72931928D01*
X185385518Y-72944188D01*
X185265820Y-72980498D01*
X185155506Y-73039463D01*
X185058815Y-73118815D01*
X184990977Y-73201476D01*
X184395104Y-72605603D01*
X184371301Y-72576599D01*
X184255576Y-72481626D01*
X184123547Y-72411054D01*
X183980286Y-72367597D01*
X183868633Y-72356600D01*
X183868622Y-72356600D01*
X183831300Y-72352924D01*
X183793978Y-72356600D01*
X164328922Y-72356600D01*
X164291599Y-72352924D01*
X164254276Y-72356600D01*
X164254267Y-72356600D01*
X164142614Y-72367597D01*
X163999353Y-72411054D01*
X163867324Y-72481626D01*
X163867322Y-72481627D01*
X163867323Y-72481627D01*
X163780596Y-72552801D01*
X163780592Y-72552805D01*
X163751599Y-72576599D01*
X163727805Y-72605592D01*
X161574699Y-74758700D01*
X158632896Y-74758700D01*
X158822298Y-74721026D01*
X159010656Y-74643005D01*
X159180174Y-74529737D01*
X159224111Y-74485800D01*
X160547278Y-74485800D01*
X160584600Y-74489476D01*
X160621922Y-74485800D01*
X160621933Y-74485800D01*
X160733586Y-74474803D01*
X160876847Y-74431346D01*
X161008876Y-74360774D01*
X161124601Y-74265801D01*
X161148404Y-74236797D01*
X164709879Y-70675323D01*
X164803394Y-70752069D01*
X165063736Y-70891225D01*
X165346223Y-70976916D01*
X165566381Y-70998600D01*
X165713619Y-70998600D01*
X165933777Y-70976916D01*
X166216264Y-70891225D01*
X166476606Y-70752069D01*
X166704797Y-70564797D01*
X166892069Y-70336606D01*
X166910000Y-70303060D01*
X166927931Y-70336606D01*
X167115203Y-70564797D01*
X167343394Y-70752069D01*
X167603736Y-70891225D01*
X167886223Y-70976916D01*
X168106381Y-70998600D01*
X168253619Y-70998600D01*
X168473777Y-70976916D01*
X168756264Y-70891225D01*
X169016606Y-70752069D01*
X169244797Y-70564797D01*
X169432069Y-70336606D01*
X169450000Y-70303060D01*
X169467931Y-70336606D01*
X169655203Y-70564797D01*
X169883394Y-70752069D01*
X170143736Y-70891225D01*
X170426223Y-70976916D01*
X170646381Y-70998600D01*
X170793619Y-70998600D01*
X171013777Y-70976916D01*
X171296264Y-70891225D01*
X171556606Y-70752069D01*
X171784797Y-70564797D01*
X171972069Y-70336606D01*
X171990000Y-70303060D01*
X172007931Y-70336606D01*
X172195203Y-70564797D01*
X172423394Y-70752069D01*
X172683736Y-70891225D01*
X172966223Y-70976916D01*
X173186381Y-70998600D01*
X173333619Y-70998600D01*
X173553777Y-70976916D01*
X173836264Y-70891225D01*
X174096606Y-70752069D01*
X174324797Y-70564797D01*
X174512069Y-70336606D01*
X174651225Y-70076264D01*
X174736916Y-69793777D01*
X174765851Y-69500000D01*
X174736916Y-69206223D01*
X174651225Y-68923736D01*
X174512069Y-68663394D01*
X174324797Y-68435203D01*
X174096606Y-68247931D01*
X174063060Y-68230000D01*
X174096606Y-68212069D01*
X174324797Y-68024797D01*
X174512069Y-67796606D01*
X174651225Y-67536264D01*
X174736916Y-67253777D01*
X174765851Y-66960000D01*
X174736916Y-66666223D01*
X174651225Y-66383736D01*
X174512069Y-66123394D01*
X174324797Y-65895203D01*
X174096606Y-65707931D01*
X173951743Y-65630500D01*
X185216799Y-65630500D01*
X192098226Y-72511928D01*
M02*
