M48
;DRILL file {KiCad (5.0.0-3-g5ebb6b6)} date 2018 December 06, Thursday 20:17:42
;FORMAT={-:-/ absolute / metric / decimal}
FMAT,2
METRIC,TZ
T1C0.610
T2C0.800
T3C0.900
T4C1.000
T5C1.001
T6C1.016
T7C3.200
%
G90
G05
M71
T1
X120.953Y-82.12
X123.92Y-94.778
X127.193Y-94.946
X127.87Y-96.756
X135.763Y-94.742
X135.763Y-98.044
X139.149Y-117.045
X167.434Y-100.965
T2
X139.764Y-97.98
X139.764Y-100.52
X139.764Y-103.06
X139.764Y-105.6
X139.764Y-108.14
X139.764Y-110.68
X139.764Y-113.221
X147.384Y-97.98
X147.384Y-100.52
X147.384Y-103.06
X147.384Y-105.6
X147.384Y-108.14
X147.384Y-110.68
X147.384Y-113.221
X185.89Y-130.42
X188.39Y-130.42
X145.328Y-94.551
X147.828Y-94.551
X180.34Y-80.645
X180.34Y-83.185
X180.34Y-85.725
X180.34Y-88.265
X180.34Y-90.805
X180.34Y-93.345
X180.34Y-95.885
X180.34Y-98.425
X180.34Y-100.965
X180.34Y-103.505
X180.34Y-106.045
X180.34Y-108.585
X180.34Y-111.125
X180.34Y-113.665
X195.58Y-80.645
X195.58Y-83.185
X195.58Y-85.725
X195.58Y-88.265
X195.58Y-90.805
X195.58Y-93.345
X195.58Y-95.885
X195.58Y-98.425
X195.58Y-100.965
X195.58Y-103.505
X195.58Y-106.045
X195.58Y-108.585
X195.58Y-111.125
X195.58Y-113.665
X130.596Y-70.548
X133.096Y-70.548
X157.48Y-75.565
X157.48Y-78.105
X157.48Y-80.645
X157.48Y-83.185
X157.48Y-85.725
X157.48Y-88.265
X157.48Y-90.805
X157.48Y-93.345
X157.48Y-95.885
X157.48Y-98.425
X157.48Y-100.965
X157.48Y-103.505
X157.48Y-106.045
X157.48Y-108.585
X157.48Y-111.125
X157.48Y-113.665
X172.72Y-75.565
X172.72Y-78.105
X172.72Y-80.645
X172.72Y-83.185
X172.72Y-85.725
X172.72Y-88.265
X172.72Y-90.805
X172.72Y-93.345
X172.72Y-95.885
X172.72Y-98.425
X172.72Y-100.965
X172.72Y-103.505
X172.72Y-106.045
X172.72Y-108.585
X172.72Y-111.125
X172.72Y-113.665
X170.22Y-72.39
X172.72Y-72.39
X124.904Y-98.108
X124.904Y-100.647
X124.904Y-103.188
X124.904Y-105.727
X124.904Y-108.267
X124.904Y-110.807
X124.904Y-113.347
X132.524Y-98.108
X132.524Y-100.647
X132.524Y-103.188
X132.524Y-105.727
X132.524Y-108.267
X132.524Y-110.807
X132.524Y-113.347
X139.89Y-74.295
X139.89Y-76.835
X139.89Y-79.375
X139.89Y-81.915
X139.89Y-84.455
X139.89Y-86.995
X139.89Y-89.535
X147.51Y-74.295
X147.51Y-76.835
X147.51Y-79.375
X147.51Y-81.915
X147.51Y-84.455
X147.51Y-86.995
X147.51Y-89.535
X145.42Y-70.76
X147.92Y-70.76
X111.76Y-125.095
X111.76Y-135.255
X118.11Y-125.095
X118.11Y-135.255
X109.23Y-75.41
X109.23Y-77.95
X109.23Y-80.49
X109.23Y-83.03
X109.23Y-85.57
X109.23Y-88.11
X109.23Y-90.65
X109.23Y-93.19
X116.85Y-75.41
X116.85Y-77.95
X116.85Y-80.49
X116.85Y-83.03
X116.85Y-85.57
X116.85Y-88.11
X116.85Y-90.65
X116.85Y-93.19
X114.89Y-72.
X117.39Y-72.
X125.158Y-74.358
X125.158Y-76.898
X125.158Y-79.438
X125.158Y-81.978
X125.158Y-84.519
X125.158Y-87.058
X125.158Y-89.599
X132.778Y-74.358
X132.778Y-76.898
X132.778Y-79.438
X132.778Y-81.978
X132.778Y-84.519
X132.778Y-87.058
X132.778Y-89.599
X110.109Y-112.586
X120.269Y-112.586
X130.532Y-94.678
X133.032Y-94.678
X193.04Y-77.47
X195.54Y-77.47
T3
X125.87Y-118.54
X125.87Y-121.08
T4
X110.3Y-101.727
X110.3Y-104.267
X112.84Y-101.727
X112.84Y-104.267
X115.38Y-101.727
X115.38Y-104.267
X117.92Y-101.727
X117.92Y-104.267
T5
X118.37Y-118.68
X118.37Y-121.22
X111.92Y-118.6
X111.92Y-121.14
T6
X127.Y-125.095
X127.Y-127.635
X129.54Y-125.095
X129.54Y-127.635
X132.08Y-125.095
X132.08Y-127.635
X134.62Y-125.095
X134.62Y-127.635
X137.16Y-125.095
X137.16Y-127.635
X139.7Y-125.095
X139.7Y-127.635
X142.24Y-125.095
X142.24Y-127.635
X144.78Y-125.095
X144.78Y-127.635
X147.32Y-125.095
X147.32Y-127.635
X149.86Y-125.095
X149.86Y-127.635
X152.4Y-125.095
X152.4Y-127.635
X154.94Y-125.095
X154.94Y-127.635
X157.48Y-125.095
X157.48Y-127.635
X160.02Y-125.095
X160.02Y-127.635
X162.56Y-125.095
X162.56Y-127.635
X165.1Y-125.095
X165.1Y-127.635
X167.64Y-125.095
X167.64Y-127.635
X170.18Y-125.095
X170.18Y-127.635
X172.72Y-125.095
X172.72Y-127.635
X175.26Y-125.095
X175.26Y-127.635
T7
X106.55Y-134.22
X195.64Y-68.15
X106.65Y-68.2
X195.64Y-134.12
T0
M30
