G04 #@! TF.GenerationSoftware,KiCad,Pcbnew,(5.1.4-0-10_14)*
G04 #@! TF.CreationDate,2021-03-24T21:25:25+09:00*
G04 #@! TF.ProjectId,Z80-1MSRAM,5a38302d-314d-4535-9241-4d2e6b696361,rev?*
G04 #@! TF.SameCoordinates,Original*
G04 #@! TF.FileFunction,Copper,L1,Top*
G04 #@! TF.FilePolarity,Positive*
%FSLAX46Y46*%
G04 Gerber Fmt 4.6, Leading zero omitted, Abs format (unit mm)*
G04 Created by KiCad (PCBNEW (5.1.4-0-10_14)) date 2021-03-24 21:25:25*
%MOMM*%
%LPD*%
G04 APERTURE LIST*
%ADD10O,1.700000X1.700000*%
%ADD11R,1.700000X1.700000*%
%ADD12C,1.600000*%
%ADD13C,1.500000*%
%ADD14R,1.500000X1.500000*%
%ADD15O,1.600000X1.600000*%
%ADD16R,1.800000X1.800000*%
%ADD17C,1.800000*%
%ADD18R,1.600000X1.600000*%
%ADD19R,1.727200X1.727200*%
%ADD20O,1.727200X1.727200*%
%ADD21R,2.000000X2.000000*%
%ADD22C,2.000000*%
%ADD23C,0.800000*%
%ADD24C,0.250000*%
%ADD25C,0.600000*%
%ADD26C,0.254000*%
G04 APERTURE END LIST*
D10*
X185580000Y-66000000D03*
X183040000Y-66000000D03*
D11*
X180500000Y-66000000D03*
D10*
X185580000Y-62500000D03*
X183040000Y-62500000D03*
D11*
X180500000Y-62500000D03*
D10*
X169160000Y-62500000D03*
X166620000Y-62500000D03*
X164080000Y-62500000D03*
X161540000Y-62500000D03*
D11*
X159000000Y-62500000D03*
X105400000Y-81500000D03*
D10*
X105400000Y-84040000D03*
X105400000Y-86580000D03*
D12*
X129921000Y-114610000D03*
X129921000Y-117110000D03*
D11*
X110327000Y-104480000D03*
D10*
X112867000Y-104480000D03*
X115407000Y-104480000D03*
D13*
X135194000Y-116210000D03*
X137734000Y-116210000D03*
D14*
X132654000Y-116210000D03*
D15*
X109728000Y-121976000D03*
D12*
X119888000Y-121976000D03*
X119888000Y-125024000D03*
D15*
X109728000Y-125024000D03*
X151765000Y-116515000D03*
D12*
X141605000Y-116515000D03*
X155575000Y-116515000D03*
D15*
X165735000Y-116515000D03*
D11*
X116904000Y-96195000D03*
D10*
X116904000Y-98735000D03*
X114364000Y-96195000D03*
X114364000Y-98735000D03*
X111824000Y-96195000D03*
X111824000Y-98735000D03*
X109284000Y-96195000D03*
X109284000Y-98735000D03*
D16*
X125870000Y-114532000D03*
D17*
X125870000Y-117072000D03*
D18*
X139764000Y-93210500D03*
D15*
X147384000Y-108450500D03*
X139764000Y-95750500D03*
X147384000Y-105910500D03*
X139764000Y-98290500D03*
X147384000Y-103370500D03*
X139764000Y-100830500D03*
X147384000Y-100830500D03*
X139764000Y-103370500D03*
X147384000Y-98290500D03*
X139764000Y-105910500D03*
X147384000Y-95750500D03*
X139764000Y-108450500D03*
X147384000Y-93210500D03*
D12*
X109220000Y-109784000D03*
D15*
X119380000Y-109784000D03*
D18*
X180340000Y-75875000D03*
D15*
X195580000Y-108895000D03*
X180340000Y-78415000D03*
X195580000Y-106355000D03*
X180340000Y-80955000D03*
X195580000Y-103815000D03*
X180340000Y-83495000D03*
X195580000Y-101275000D03*
X180340000Y-86035000D03*
X195580000Y-98735000D03*
X180340000Y-88575000D03*
X195580000Y-96195000D03*
X180340000Y-91115000D03*
X195580000Y-93655000D03*
X180340000Y-93655000D03*
X195580000Y-91115000D03*
X180340000Y-96195000D03*
X195580000Y-88575000D03*
X180340000Y-98735000D03*
X195580000Y-86035000D03*
X180340000Y-101275000D03*
X195580000Y-83495000D03*
X180340000Y-103815000D03*
X195580000Y-80955000D03*
X180340000Y-106355000D03*
X195580000Y-78415000D03*
X180340000Y-108895000D03*
X195580000Y-75875000D03*
D19*
X175260000Y-121595000D03*
D20*
X175260000Y-124135000D03*
X172720000Y-121595000D03*
X172720000Y-124135000D03*
X170180000Y-121595000D03*
X170180000Y-124135000D03*
X167640000Y-121595000D03*
X167640000Y-124135000D03*
X165100000Y-121595000D03*
X165100000Y-124135000D03*
X162560000Y-121595000D03*
X162560000Y-124135000D03*
X160020000Y-121595000D03*
X160020000Y-124135000D03*
X157480000Y-121595000D03*
X157480000Y-124135000D03*
X154940000Y-121595000D03*
X154940000Y-124135000D03*
X152400000Y-121595000D03*
X152400000Y-124135000D03*
X149860000Y-121595000D03*
X149860000Y-124135000D03*
X147320000Y-121595000D03*
X147320000Y-124135000D03*
X144780000Y-121595000D03*
X144780000Y-124135000D03*
X142240000Y-121595000D03*
X142240000Y-124135000D03*
X139700000Y-121595000D03*
X139700000Y-124135000D03*
X137160000Y-121595000D03*
X137160000Y-124135000D03*
X134620000Y-121595000D03*
X134620000Y-124135000D03*
X132080000Y-121595000D03*
X132080000Y-124135000D03*
X129540000Y-121595000D03*
X129540000Y-124135000D03*
X127000000Y-121595000D03*
X127000000Y-124135000D03*
D21*
X111920000Y-114592000D03*
D22*
X111920000Y-117132000D03*
D21*
X118370000Y-114672000D03*
D22*
X118370000Y-117212000D03*
D18*
X139890000Y-69525000D03*
D15*
X147510000Y-84765000D03*
X139890000Y-72065000D03*
X147510000Y-82225000D03*
X139890000Y-74605000D03*
X147510000Y-79685000D03*
X139890000Y-77145000D03*
X147510000Y-77145000D03*
X139890000Y-79685000D03*
X147510000Y-74605000D03*
X139890000Y-82225000D03*
X147510000Y-72065000D03*
X139890000Y-84765000D03*
X147510000Y-69525000D03*
D18*
X109230000Y-71910000D03*
D15*
X116850000Y-89690000D03*
X109230000Y-74450000D03*
X116850000Y-87150000D03*
X109230000Y-76990000D03*
X116850000Y-84610000D03*
X109230000Y-79530000D03*
X116850000Y-82070000D03*
X109230000Y-82070000D03*
X116850000Y-79530000D03*
X109230000Y-84610000D03*
X116850000Y-76990000D03*
X109230000Y-87150000D03*
X116850000Y-74450000D03*
X109230000Y-89690000D03*
X116850000Y-71910000D03*
D18*
X125158000Y-69588500D03*
D15*
X132778000Y-84828500D03*
X125158000Y-72128500D03*
X132778000Y-82288500D03*
X125158000Y-74668500D03*
X132778000Y-79748500D03*
X125158000Y-77208500D03*
X132778000Y-77208500D03*
X125158000Y-79748500D03*
X132778000Y-74668500D03*
X125158000Y-82288500D03*
X132778000Y-72128500D03*
X125158000Y-84828500D03*
X132778000Y-69588500D03*
D18*
X124904000Y-93337500D03*
D15*
X132524000Y-108577500D03*
X124904000Y-95877500D03*
X132524000Y-106037500D03*
X124904000Y-98417500D03*
X132524000Y-103497500D03*
X124904000Y-100957500D03*
X132524000Y-100957500D03*
X124904000Y-103497500D03*
X132524000Y-98417500D03*
X124904000Y-106037500D03*
X132524000Y-95877500D03*
X124904000Y-108577500D03*
X132524000Y-93337500D03*
D18*
X157480000Y-70795000D03*
D15*
X172720000Y-108895000D03*
X157480000Y-73335000D03*
X172720000Y-106355000D03*
X157480000Y-75875000D03*
X172720000Y-103815000D03*
X157480000Y-78415000D03*
X172720000Y-101275000D03*
X157480000Y-80955000D03*
X172720000Y-98735000D03*
X157480000Y-83495000D03*
X172720000Y-96195000D03*
X157480000Y-86035000D03*
X172720000Y-93655000D03*
X157480000Y-88575000D03*
X172720000Y-91115000D03*
X157480000Y-91115000D03*
X172720000Y-88575000D03*
X157480000Y-93655000D03*
X172720000Y-86035000D03*
X157480000Y-96195000D03*
X172720000Y-83495000D03*
X157480000Y-98735000D03*
X172720000Y-80955000D03*
X157480000Y-101275000D03*
X172720000Y-78415000D03*
X157480000Y-103815000D03*
X172720000Y-75875000D03*
X157480000Y-106355000D03*
X172720000Y-73335000D03*
X157480000Y-108895000D03*
X172720000Y-70795000D03*
D12*
X147920000Y-65990000D03*
X145420000Y-65990000D03*
X147828000Y-89781500D03*
X145328000Y-89781500D03*
X117390000Y-68500000D03*
X114890000Y-68500000D03*
X133096000Y-65778500D03*
X130596000Y-65778500D03*
X133032000Y-89908500D03*
X130532000Y-89908500D03*
X172720000Y-67620000D03*
X170220000Y-67620000D03*
X195540000Y-72700000D03*
X193040000Y-72700000D03*
D18*
X185420000Y-122865000D03*
D12*
X187920000Y-122865000D03*
D23*
X147309800Y-110664800D03*
X127728400Y-91994000D03*
X156926100Y-115190100D03*
X143015800Y-115727200D03*
X139057500Y-118953300D03*
X131058100Y-85797800D03*
X135877200Y-83470800D03*
D24*
X111920000Y-114592000D02*
X111920000Y-113266700D01*
X132778000Y-79748500D02*
X131652700Y-79748500D01*
X131652700Y-79748500D02*
X131652700Y-80029800D01*
X131652700Y-80029800D02*
X117056500Y-94626000D01*
X117056500Y-94626000D02*
X111730500Y-94626000D01*
X111730500Y-94626000D02*
X110459400Y-95897100D01*
X110459400Y-95897100D02*
X110459400Y-96720600D01*
X110459400Y-96720600D02*
X109715000Y-97465000D01*
X109715000Y-97465000D02*
X108803500Y-97465000D01*
X108803500Y-97465000D02*
X108060500Y-98208000D01*
X108060500Y-98208000D02*
X108060500Y-110235500D01*
X108060500Y-110235500D02*
X111091700Y-113266700D01*
X111091700Y-113266700D02*
X111920000Y-113266700D01*
X131652700Y-84828500D02*
X130074900Y-84828500D01*
X130074900Y-84828500D02*
X122806400Y-92097000D01*
X122806400Y-92097000D02*
X122806400Y-108910300D01*
X122806400Y-108910300D02*
X118370000Y-113346700D01*
X118370000Y-114672000D02*
X118370000Y-113346700D01*
X132778000Y-84828500D02*
X131652700Y-84828500D01*
D25*
X109220000Y-109784000D02*
X109841200Y-109784000D01*
X109841200Y-109784000D02*
X116624400Y-116567200D01*
X116624400Y-116567200D02*
X116624400Y-118712400D01*
X116624400Y-118712400D02*
X119888000Y-121976000D01*
X147510000Y-69525000D02*
X148810300Y-69525000D01*
X172720000Y-70795000D02*
X171419700Y-70795000D01*
X171419700Y-70795000D02*
X170119300Y-69494600D01*
X170119300Y-69494600D02*
X148840700Y-69494600D01*
X148840700Y-69494600D02*
X148810300Y-69525000D01*
X194279700Y-75875000D02*
X189199700Y-70795000D01*
X189199700Y-70795000D02*
X172720000Y-70795000D01*
X172720000Y-121595000D02*
X167640000Y-116515000D01*
X167640000Y-116515000D02*
X165735000Y-116515000D01*
X172720000Y-121595000D02*
X175260000Y-121595000D01*
X147384000Y-93210500D02*
X147384000Y-91910200D01*
X147828000Y-89781500D02*
X147828000Y-91466200D01*
X147828000Y-91466200D02*
X147384000Y-91910200D01*
X139764000Y-93210500D02*
X141064300Y-93210500D01*
X147384000Y-93210500D02*
X146083700Y-93210500D01*
X146083700Y-93210500D02*
X141064300Y-93210500D01*
X132524000Y-93337500D02*
X133824300Y-93337500D01*
X139764000Y-93210500D02*
X133951300Y-93210500D01*
X133951300Y-93210500D02*
X133824300Y-93337500D01*
X185420000Y-122214800D02*
X196885600Y-110749200D01*
X196885600Y-110749200D02*
X196885600Y-79720600D01*
X196885600Y-79720600D02*
X195580000Y-78415000D01*
X185420000Y-122865000D02*
X185420000Y-122214800D01*
X132778000Y-69588500D02*
X131477700Y-69588500D01*
X117390000Y-68500000D02*
X117601800Y-68288200D01*
X117601800Y-68288200D02*
X130177400Y-68288200D01*
X130177400Y-68288200D02*
X131477700Y-69588500D01*
X119888000Y-121976000D02*
X119888000Y-125024000D01*
X195580000Y-75875000D02*
X194279700Y-75875000D01*
X139890000Y-84765000D02*
X138589700Y-84765000D01*
X130532000Y-89908500D02*
X135675500Y-84765000D01*
X135675500Y-84765000D02*
X138589700Y-84765000D01*
X132654000Y-116210000D02*
X133904300Y-116210000D01*
X139764000Y-108450500D02*
X139764000Y-109750800D01*
X139764000Y-109750800D02*
X133904300Y-115610500D01*
X133904300Y-115610500D02*
X133904300Y-116210000D01*
X139819600Y-108450500D02*
X139764000Y-108450500D01*
X139819600Y-108450500D02*
X141064300Y-108450500D01*
X156179700Y-108895000D02*
X155323900Y-109750800D01*
X155323900Y-109750800D02*
X142364600Y-109750800D01*
X142364600Y-109750800D02*
X141064300Y-108450500D01*
X176623900Y-110195300D02*
X177739400Y-110195300D01*
X177739400Y-110195300D02*
X179039700Y-108895000D01*
X158780300Y-108895000D02*
X160080600Y-110195300D01*
X160080600Y-110195300D02*
X176623900Y-110195300D01*
X176623900Y-110195300D02*
X176623900Y-124135000D01*
X180340000Y-108895000D02*
X179039700Y-108895000D01*
X157480000Y-108895000D02*
X158780300Y-108895000D01*
X156829900Y-108895000D02*
X157480000Y-108895000D01*
X156829900Y-108895000D02*
X156179700Y-108895000D01*
X175260000Y-124135000D02*
X176623900Y-124135000D01*
X187920000Y-122865000D02*
X186619600Y-124165400D01*
X186619600Y-124165400D02*
X176654300Y-124165400D01*
X176654300Y-124165400D02*
X176623900Y-124135000D01*
X170220000Y-67620000D02*
X171524400Y-68924400D01*
X171524400Y-68924400D02*
X189264400Y-68924400D01*
X189264400Y-68924400D02*
X193040000Y-72700000D01*
X145420000Y-65990000D02*
X147050000Y-67620000D01*
X147050000Y-67620000D02*
X170220000Y-67620000D01*
X113569500Y-70606900D02*
X113569500Y-71169500D01*
X113569500Y-71169500D02*
X116850000Y-74450000D01*
X114890000Y-68500000D02*
X113569500Y-69820500D01*
X113569500Y-69820500D02*
X113569500Y-70606900D01*
X113569500Y-70606900D02*
X108215300Y-70606900D01*
X108215300Y-70606900D02*
X105400000Y-73422200D01*
X105400000Y-73422200D02*
X105400000Y-81500000D01*
X145420000Y-65990000D02*
X144271200Y-67138800D01*
X144271200Y-67138800D02*
X131956300Y-67138800D01*
X131956300Y-67138800D02*
X130596000Y-65778500D01*
X110530300Y-89690000D02*
X111830600Y-90990300D01*
X111830600Y-90990300D02*
X117695900Y-90990300D01*
X117695900Y-90990300D02*
X123857700Y-84828500D01*
X109230000Y-89690000D02*
X110530300Y-89690000D01*
X125158000Y-84828500D02*
X123857700Y-84828500D01*
X172720000Y-124135000D02*
X175260000Y-124135000D01*
D24*
X139764000Y-95750500D02*
X140889300Y-95750500D01*
X157480000Y-101275000D02*
X156354700Y-101275000D01*
X156354700Y-101275000D02*
X151955500Y-96875800D01*
X151955500Y-96875800D02*
X142014600Y-96875800D01*
X142014600Y-96875800D02*
X140889300Y-95750500D01*
X158042700Y-101275000D02*
X157480000Y-101275000D01*
X158042700Y-101275000D02*
X158605300Y-101275000D01*
X180340000Y-101275000D02*
X179214700Y-101275000D01*
X158605300Y-101275000D02*
X159730600Y-102400300D01*
X159730600Y-102400300D02*
X178089400Y-102400300D01*
X178089400Y-102400300D02*
X179214700Y-101275000D01*
X157480000Y-103815000D02*
X158605300Y-103815000D01*
X158605300Y-103815000D02*
X159741600Y-104951300D01*
X159741600Y-104951300D02*
X173673400Y-104951300D01*
X173673400Y-104951300D02*
X174240100Y-104384600D01*
X174240100Y-104384600D02*
X178645100Y-104384600D01*
X178645100Y-104384600D02*
X179214700Y-103815000D01*
X157480000Y-103815000D02*
X154033800Y-103815000D01*
X154033800Y-103815000D02*
X148509300Y-98290500D01*
X180340000Y-103815000D02*
X179214700Y-103815000D01*
X147384000Y-98290500D02*
X148509300Y-98290500D01*
X180340000Y-106355000D02*
X179214700Y-106355000D01*
X157480000Y-106355000D02*
X158605300Y-106355000D01*
X158605300Y-106355000D02*
X159730600Y-107480300D01*
X159730600Y-107480300D02*
X178089400Y-107480300D01*
X178089400Y-107480300D02*
X179214700Y-106355000D01*
X195580000Y-108895000D02*
X194454700Y-108895000D01*
X172720000Y-108895000D02*
X177804700Y-108895000D01*
X177804700Y-108895000D02*
X178930000Y-107769700D01*
X178930000Y-107769700D02*
X193329400Y-107769700D01*
X193329400Y-107769700D02*
X194454700Y-108895000D01*
X195580000Y-106355000D02*
X194454700Y-106355000D01*
X172720000Y-106355000D02*
X173845300Y-106355000D01*
X173845300Y-106355000D02*
X174970600Y-105229700D01*
X174970600Y-105229700D02*
X193329400Y-105229700D01*
X193329400Y-105229700D02*
X194454700Y-106355000D01*
X195580000Y-103815000D02*
X194454700Y-103815000D01*
X172720000Y-103815000D02*
X177804700Y-103815000D01*
X177804700Y-103815000D02*
X178930000Y-102689700D01*
X178930000Y-102689700D02*
X193329400Y-102689700D01*
X193329400Y-102689700D02*
X194454700Y-103815000D01*
X172720000Y-101275000D02*
X173845300Y-101275000D01*
X195580000Y-101275000D02*
X194454700Y-101275000D01*
X173845300Y-101275000D02*
X174970600Y-100149700D01*
X174970600Y-100149700D02*
X193329400Y-100149700D01*
X193329400Y-100149700D02*
X194454700Y-101275000D01*
X195580000Y-98735000D02*
X194454700Y-98735000D01*
X172720000Y-98735000D02*
X173845300Y-98735000D01*
X173845300Y-98735000D02*
X174970600Y-97609700D01*
X174970600Y-97609700D02*
X193329400Y-97609700D01*
X193329400Y-97609700D02*
X194454700Y-98735000D01*
X195580000Y-91115000D02*
X194454700Y-91115000D01*
X172720000Y-91115000D02*
X173845300Y-91115000D01*
X173845300Y-91115000D02*
X174970600Y-92240300D01*
X174970600Y-92240300D02*
X193329400Y-92240300D01*
X193329400Y-92240300D02*
X194454700Y-91115000D01*
X153588900Y-121595000D02*
X153588900Y-121213700D01*
X153588900Y-121213700D02*
X157651400Y-117151200D01*
X157651400Y-117151200D02*
X157651400Y-114838200D01*
X157651400Y-114838200D02*
X153478000Y-110664800D01*
X153478000Y-110664800D02*
X147309800Y-110664800D01*
X152400000Y-121595000D02*
X153588900Y-121595000D01*
X157480000Y-98735000D02*
X158605300Y-98735000D01*
X158605300Y-98735000D02*
X159738500Y-99868200D01*
X159738500Y-99868200D02*
X173349000Y-99868200D01*
X173349000Y-99868200D02*
X174482200Y-98735000D01*
X174482200Y-98735000D02*
X180340000Y-98735000D01*
X157480000Y-96195000D02*
X158605300Y-96195000D01*
X158605300Y-96195000D02*
X159741600Y-97331300D01*
X159741600Y-97331300D02*
X173673400Y-97331300D01*
X173673400Y-97331300D02*
X174809700Y-96195000D01*
X174809700Y-96195000D02*
X180340000Y-96195000D01*
X157480000Y-93655000D02*
X158605300Y-93655000D01*
X158605300Y-93655000D02*
X159738500Y-92521800D01*
X159738500Y-92521800D02*
X173349000Y-92521800D01*
X173349000Y-92521800D02*
X174482200Y-93655000D01*
X174482200Y-93655000D02*
X180340000Y-93655000D01*
X157480000Y-91115000D02*
X158605300Y-91115000D01*
X158605300Y-91115000D02*
X159738500Y-89981800D01*
X159738500Y-89981800D02*
X173349000Y-89981800D01*
X173349000Y-89981800D02*
X174482200Y-91115000D01*
X174482200Y-91115000D02*
X180340000Y-91115000D01*
X157480000Y-88575000D02*
X158605300Y-88575000D01*
X158605300Y-88575000D02*
X159738500Y-87441800D01*
X159738500Y-87441800D02*
X173349000Y-87441800D01*
X173349000Y-87441800D02*
X174482200Y-88575000D01*
X174482200Y-88575000D02*
X180340000Y-88575000D01*
X127728400Y-91994000D02*
X139335300Y-91994000D01*
X139335300Y-91994000D02*
X143857400Y-87471900D01*
X143857400Y-87471900D02*
X154917800Y-87471900D01*
X154917800Y-87471900D02*
X156354700Y-86035000D01*
X157480000Y-86035000D02*
X156354700Y-86035000D01*
X157761400Y-86035000D02*
X157480000Y-86035000D01*
X157761400Y-86035000D02*
X158605300Y-86035000D01*
X158605300Y-86035000D02*
X159738500Y-84901800D01*
X159738500Y-84901800D02*
X173349000Y-84901800D01*
X173349000Y-84901800D02*
X174482200Y-86035000D01*
X174482200Y-86035000D02*
X180340000Y-86035000D01*
X157480000Y-83495000D02*
X158605300Y-83495000D01*
X158605300Y-83495000D02*
X159738500Y-82361800D01*
X159738500Y-82361800D02*
X173349000Y-82361800D01*
X173349000Y-82361800D02*
X174482200Y-83495000D01*
X174482200Y-83495000D02*
X180340000Y-83495000D01*
X195580000Y-83495000D02*
X194454700Y-83495000D01*
X172720000Y-83495000D02*
X173845300Y-83495000D01*
X173845300Y-83495000D02*
X174970600Y-84620300D01*
X174970600Y-84620300D02*
X193329400Y-84620300D01*
X193329400Y-84620300D02*
X194454700Y-83495000D01*
X195580000Y-86035000D02*
X194454700Y-86035000D01*
X172720000Y-86035000D02*
X173845300Y-86035000D01*
X173845300Y-86035000D02*
X174970600Y-87160300D01*
X174970600Y-87160300D02*
X193329400Y-87160300D01*
X193329400Y-87160300D02*
X194454700Y-86035000D01*
X156926100Y-115190100D02*
X156926100Y-116818100D01*
X156926100Y-116818100D02*
X155558000Y-118186200D01*
X155558000Y-118186200D02*
X136306200Y-118186200D01*
X136306200Y-118186200D02*
X133268900Y-121223500D01*
X133268900Y-121223500D02*
X133268900Y-121595000D01*
X132080000Y-121595000D02*
X133268900Y-121595000D01*
X195580000Y-93655000D02*
X194454700Y-93655000D01*
X172720000Y-93655000D02*
X173845300Y-93655000D01*
X173845300Y-93655000D02*
X174970600Y-94780300D01*
X174970600Y-94780300D02*
X193329400Y-94780300D01*
X193329400Y-94780300D02*
X194454700Y-93655000D01*
X172720000Y-88575000D02*
X173845300Y-88575000D01*
X173845300Y-88575000D02*
X174970600Y-89700300D01*
X174970600Y-89700300D02*
X193329400Y-89700300D01*
X193329400Y-89700300D02*
X194454700Y-88575000D01*
X195580000Y-88575000D02*
X194454700Y-88575000D01*
X130728900Y-121595000D02*
X130728900Y-121223500D01*
X130728900Y-121223500D02*
X134216600Y-117735800D01*
X134216600Y-117735800D02*
X141980900Y-117735800D01*
X141980900Y-117735800D02*
X143015800Y-116700900D01*
X143015800Y-116700900D02*
X143015800Y-115727200D01*
X129540000Y-121595000D02*
X130728900Y-121595000D01*
X180340000Y-78415000D02*
X179214700Y-78415000D01*
X157480000Y-78415000D02*
X158605300Y-78415000D01*
X158605300Y-78415000D02*
X159730600Y-77289700D01*
X159730600Y-77289700D02*
X178089400Y-77289700D01*
X178089400Y-77289700D02*
X179214700Y-78415000D01*
X130728900Y-124135000D02*
X130728900Y-124506500D01*
X130728900Y-124506500D02*
X131578000Y-125355600D01*
X131578000Y-125355600D02*
X187052200Y-125355600D01*
X187052200Y-125355600D02*
X197520400Y-114887400D01*
X197520400Y-114887400D02*
X197520400Y-78757900D01*
X197520400Y-78757900D02*
X196016000Y-77253500D01*
X196016000Y-77253500D02*
X195109800Y-77253500D01*
X195109800Y-77253500D02*
X194454700Y-77908600D01*
X194454700Y-77908600D02*
X194454700Y-80955000D01*
X129540000Y-124135000D02*
X130728900Y-124135000D01*
X195580000Y-80955000D02*
X194454700Y-80955000D01*
X172720000Y-80955000D02*
X173845300Y-80955000D01*
X173845300Y-80955000D02*
X174970600Y-82080300D01*
X174970600Y-82080300D02*
X193329400Y-82080300D01*
X193329400Y-82080300D02*
X194454700Y-80955000D01*
X127000000Y-121595000D02*
X125811100Y-121595000D01*
X105987700Y-86580000D02*
X105987700Y-113138900D01*
X105987700Y-113138900D02*
X118998200Y-126149400D01*
X118998200Y-126149400D02*
X121256700Y-126149400D01*
X121256700Y-126149400D02*
X125811100Y-121595000D01*
X105987700Y-86580000D02*
X106575300Y-86580000D01*
X105400000Y-86580000D02*
X105987700Y-86580000D01*
X157480000Y-75875000D02*
X129026800Y-75875000D01*
X129026800Y-75875000D02*
X126565600Y-78336200D01*
X126565600Y-78336200D02*
X116383600Y-78336200D01*
X116383600Y-78336200D02*
X110366700Y-84353100D01*
X110366700Y-84353100D02*
X110366700Y-85083000D01*
X110366700Y-85083000D02*
X109518100Y-85931600D01*
X109518100Y-85931600D02*
X107223700Y-85931600D01*
X107223700Y-85931600D02*
X106575300Y-86580000D01*
X127000000Y-124135000D02*
X127000000Y-122946100D01*
X132524000Y-106037500D02*
X132524000Y-107162800D01*
X132524000Y-107162800D02*
X132242700Y-107162800D01*
X132242700Y-107162800D02*
X128188900Y-111216600D01*
X128188900Y-111216600D02*
X128188900Y-122128800D01*
X128188900Y-122128800D02*
X127371600Y-122946100D01*
X127371600Y-122946100D02*
X127000000Y-122946100D01*
X124904000Y-95877500D02*
X132524000Y-95877500D01*
X139764000Y-98290500D02*
X143718700Y-98290500D01*
X143718700Y-98290500D02*
X146258700Y-100830500D01*
X147384000Y-100830500D02*
X146258700Y-100830500D01*
X138764700Y-82225000D02*
X133966800Y-82225000D01*
X133966800Y-82225000D02*
X133903300Y-82288500D01*
X132778000Y-82288500D02*
X133903300Y-82288500D01*
X147384000Y-105910500D02*
X146258700Y-105910500D01*
X132524000Y-98417500D02*
X133649300Y-98417500D01*
X133649300Y-98417500D02*
X133649300Y-98980200D01*
X133649300Y-98980200D02*
X139454300Y-104785200D01*
X139454300Y-104785200D02*
X145133400Y-104785200D01*
X145133400Y-104785200D02*
X146258700Y-105910500D01*
X139890000Y-82225000D02*
X138764700Y-82225000D01*
X139890000Y-79685000D02*
X138764700Y-79685000D01*
X138764700Y-79685000D02*
X136288200Y-77208500D01*
X136288200Y-77208500D02*
X132778000Y-77208500D01*
X139764000Y-103370500D02*
X139764000Y-102245200D01*
X124904000Y-93337500D02*
X126029300Y-93337500D01*
X126029300Y-93337500D02*
X127154600Y-94462800D01*
X127154600Y-94462800D02*
X132742300Y-94462800D01*
X132742300Y-94462800D02*
X138638700Y-100359200D01*
X138638700Y-100359200D02*
X138638700Y-101401300D01*
X138638700Y-101401300D02*
X139482600Y-102245200D01*
X139482600Y-102245200D02*
X139764000Y-102245200D01*
X126283300Y-77208500D02*
X130156800Y-73335000D01*
X130156800Y-73335000D02*
X156354700Y-73335000D01*
X125158000Y-77208500D02*
X126283300Y-77208500D01*
X157480000Y-73335000D02*
X156354700Y-73335000D01*
X124904000Y-106037500D02*
X124904000Y-104912200D01*
X172720000Y-73335000D02*
X162555300Y-73335000D01*
X162555300Y-73335000D02*
X158745300Y-77145000D01*
X158745300Y-77145000D02*
X157101100Y-77145000D01*
X157101100Y-77145000D02*
X148355700Y-85890400D01*
X148355700Y-85890400D02*
X138769600Y-85890400D01*
X138769600Y-85890400D02*
X133580000Y-91080000D01*
X133580000Y-91080000D02*
X125097200Y-91080000D01*
X125097200Y-91080000D02*
X123778700Y-92398500D01*
X123778700Y-92398500D02*
X123778700Y-104068300D01*
X123778700Y-104068300D02*
X124622600Y-104912200D01*
X124622600Y-104912200D02*
X124904000Y-104912200D01*
X148671100Y-121595000D02*
X148671100Y-121223400D01*
X148671100Y-121223400D02*
X146401000Y-118953300D01*
X146401000Y-118953300D02*
X139057500Y-118953300D01*
X149860000Y-121595000D02*
X148671100Y-121595000D01*
X147384000Y-95750500D02*
X146258700Y-95750500D01*
X139764000Y-100830500D02*
X139764000Y-99705200D01*
X139764000Y-99705200D02*
X139545100Y-99705200D01*
X139545100Y-99705200D02*
X138625600Y-98785700D01*
X138625600Y-98785700D02*
X138625600Y-95296500D01*
X138625600Y-95296500D02*
X139296900Y-94625200D01*
X139296900Y-94625200D02*
X145133400Y-94625200D01*
X145133400Y-94625200D02*
X146258700Y-95750500D01*
X131058100Y-85797800D02*
X129742500Y-85797800D01*
X129742500Y-85797800D02*
X123312100Y-92228200D01*
X123312100Y-92228200D02*
X123312100Y-110748800D01*
X123312100Y-110748800D02*
X125870000Y-113306700D01*
X125870000Y-114532000D02*
X125870000Y-113306700D01*
X117975300Y-82070000D02*
X118953300Y-81092000D01*
X118953300Y-81092000D02*
X126919500Y-81092000D01*
X126919500Y-81092000D02*
X129389500Y-78622000D01*
X129389500Y-78622000D02*
X136763300Y-78622000D01*
X136763300Y-78622000D02*
X139096300Y-80955000D01*
X139096300Y-80955000D02*
X142574700Y-80955000D01*
X142574700Y-80955000D02*
X146384700Y-84765000D01*
X147510000Y-84765000D02*
X146384700Y-84765000D01*
X116850000Y-82070000D02*
X117975300Y-82070000D01*
X147510000Y-82225000D02*
X146384700Y-82225000D01*
X139890000Y-77145000D02*
X141304700Y-77145000D01*
X141304700Y-77145000D02*
X146384700Y-82225000D01*
X135877200Y-83470800D02*
X130776000Y-83470800D01*
X130776000Y-83470800D02*
X120070500Y-94176300D01*
X120070500Y-94176300D02*
X120070500Y-95205000D01*
X120070500Y-95205000D02*
X117128200Y-98147300D01*
X117128200Y-98147300D02*
X116904000Y-98147300D01*
X114364000Y-98735000D02*
X115539300Y-98735000D01*
X116904000Y-98147300D02*
X116127000Y-98147300D01*
X116127000Y-98147300D02*
X115539300Y-98735000D01*
X116904000Y-98735000D02*
X116904000Y-98147300D01*
X111824000Y-98735000D02*
X114364000Y-98735000D01*
X111824000Y-98735000D02*
X110648700Y-98735000D01*
X109284000Y-98147300D02*
X110061000Y-98147300D01*
X110061000Y-98147300D02*
X110648700Y-98735000D01*
X109284000Y-98735000D02*
X109284000Y-98147300D01*
X155575000Y-116515000D02*
X154061900Y-115001900D01*
X154061900Y-115001900D02*
X136402100Y-115001900D01*
X136402100Y-115001900D02*
X135194000Y-116210000D01*
X180340000Y-80955000D02*
X179214700Y-80955000D01*
X157480000Y-80955000D02*
X158605300Y-80955000D01*
X158605300Y-80955000D02*
X159730600Y-79829700D01*
X159730600Y-79829700D02*
X178089400Y-79829700D01*
X178089400Y-79829700D02*
X179214700Y-80955000D01*
X141605000Y-116515000D02*
X141300000Y-116210000D01*
X141300000Y-116210000D02*
X137734000Y-116210000D01*
X137734000Y-116210000D02*
X136658600Y-117285400D01*
X136658600Y-117285400D02*
X131762500Y-117285400D01*
X131762500Y-117285400D02*
X129921000Y-115443900D01*
X129921000Y-115443900D02*
X129921000Y-114610000D01*
X105400000Y-84040000D02*
X106575300Y-84040000D01*
X116850000Y-76990000D02*
X115724700Y-76990000D01*
X115724700Y-76990000D02*
X115724700Y-77271300D01*
X115724700Y-77271300D02*
X109604400Y-83391600D01*
X109604400Y-83391600D02*
X107223700Y-83391600D01*
X107223700Y-83391600D02*
X106575300Y-84040000D01*
X180500000Y-62500000D02*
X179324700Y-62500000D01*
X166620000Y-62500000D02*
X167795300Y-62500000D01*
X167795300Y-62500000D02*
X167795300Y-62867300D01*
X167795300Y-62867300D02*
X168603300Y-63675300D01*
X168603300Y-63675300D02*
X178149400Y-63675300D01*
X178149400Y-63675300D02*
X179324700Y-62500000D01*
X180500000Y-66000000D02*
X163308000Y-66000000D01*
X163308000Y-66000000D02*
X160175300Y-62867300D01*
X160175300Y-62867300D02*
X160175300Y-62500000D01*
X159000000Y-62500000D02*
X160175300Y-62500000D01*
D26*
G36*
X199290001Y-134290000D02*
G01*
X100710000Y-134290000D01*
X100710000Y-130269872D01*
X103275000Y-130269872D01*
X103275000Y-130710128D01*
X103360890Y-131141925D01*
X103529369Y-131548669D01*
X103773962Y-131914729D01*
X104085271Y-132226038D01*
X104451331Y-132470631D01*
X104858075Y-132639110D01*
X105289872Y-132725000D01*
X105730128Y-132725000D01*
X106161925Y-132639110D01*
X106568669Y-132470631D01*
X106934729Y-132226038D01*
X107246038Y-131914729D01*
X107490631Y-131548669D01*
X107659110Y-131141925D01*
X107745000Y-130710128D01*
X107745000Y-130269872D01*
X192265000Y-130269872D01*
X192265000Y-130710128D01*
X192350890Y-131141925D01*
X192519369Y-131548669D01*
X192763962Y-131914729D01*
X193075271Y-132226038D01*
X193441331Y-132470631D01*
X193848075Y-132639110D01*
X194279872Y-132725000D01*
X194720128Y-132725000D01*
X195151925Y-132639110D01*
X195558669Y-132470631D01*
X195924729Y-132226038D01*
X196236038Y-131914729D01*
X196480631Y-131548669D01*
X196649110Y-131141925D01*
X196735000Y-130710128D01*
X196735000Y-130269872D01*
X196649110Y-129838075D01*
X196480631Y-129431331D01*
X196236038Y-129065271D01*
X195924729Y-128753962D01*
X195558669Y-128509369D01*
X195151925Y-128340890D01*
X194720128Y-128255000D01*
X194279872Y-128255000D01*
X193848075Y-128340890D01*
X193441331Y-128509369D01*
X193075271Y-128753962D01*
X192763962Y-129065271D01*
X192519369Y-129431331D01*
X192350890Y-129838075D01*
X192265000Y-130269872D01*
X107745000Y-130269872D01*
X107659110Y-129838075D01*
X107490631Y-129431331D01*
X107246038Y-129065271D01*
X106934729Y-128753962D01*
X106568669Y-128509369D01*
X106161925Y-128340890D01*
X105730128Y-128255000D01*
X105289872Y-128255000D01*
X104858075Y-128340890D01*
X104451331Y-128509369D01*
X104085271Y-128753962D01*
X103773962Y-129065271D01*
X103529369Y-129431331D01*
X103360890Y-129838075D01*
X103275000Y-130269872D01*
X100710000Y-130269872D01*
X100710000Y-125024000D01*
X108286057Y-125024000D01*
X108313764Y-125305309D01*
X108395818Y-125575808D01*
X108529068Y-125825101D01*
X108708392Y-126043608D01*
X108926899Y-126222932D01*
X109176192Y-126356182D01*
X109446691Y-126438236D01*
X109657508Y-126459000D01*
X109798492Y-126459000D01*
X110009309Y-126438236D01*
X110279808Y-126356182D01*
X110529101Y-126222932D01*
X110747608Y-126043608D01*
X110926932Y-125825101D01*
X111060182Y-125575808D01*
X111142236Y-125305309D01*
X111169943Y-125024000D01*
X111142236Y-124742691D01*
X111060182Y-124472192D01*
X110926932Y-124222899D01*
X110747608Y-124004392D01*
X110529101Y-123825068D01*
X110279808Y-123691818D01*
X110009309Y-123609764D01*
X109798492Y-123589000D01*
X109657508Y-123589000D01*
X109446691Y-123609764D01*
X109176192Y-123691818D01*
X108926899Y-123825068D01*
X108708392Y-124004392D01*
X108529068Y-124222899D01*
X108395818Y-124472192D01*
X108313764Y-124742691D01*
X108286057Y-125024000D01*
X100710000Y-125024000D01*
X100710000Y-121976000D01*
X108286057Y-121976000D01*
X108313764Y-122257309D01*
X108395818Y-122527808D01*
X108529068Y-122777101D01*
X108708392Y-122995608D01*
X108926899Y-123174932D01*
X109176192Y-123308182D01*
X109446691Y-123390236D01*
X109657508Y-123411000D01*
X109798492Y-123411000D01*
X110009309Y-123390236D01*
X110279808Y-123308182D01*
X110529101Y-123174932D01*
X110747608Y-122995608D01*
X110926932Y-122777101D01*
X111060182Y-122527808D01*
X111142236Y-122257309D01*
X111169943Y-121976000D01*
X111142236Y-121694691D01*
X111060182Y-121424192D01*
X110926932Y-121174899D01*
X110747608Y-120956392D01*
X110529101Y-120777068D01*
X110279808Y-120643818D01*
X110009309Y-120561764D01*
X109798492Y-120541000D01*
X109657508Y-120541000D01*
X109446691Y-120561764D01*
X109176192Y-120643818D01*
X108926899Y-120777068D01*
X108708392Y-120956392D01*
X108529068Y-121174899D01*
X108395818Y-121424192D01*
X108313764Y-121694691D01*
X108286057Y-121976000D01*
X100710000Y-121976000D01*
X100710000Y-84040000D01*
X103907815Y-84040000D01*
X103936487Y-84331111D01*
X104021401Y-84611034D01*
X104159294Y-84869014D01*
X104344866Y-85095134D01*
X104570986Y-85280706D01*
X104625791Y-85310000D01*
X104570986Y-85339294D01*
X104344866Y-85524866D01*
X104159294Y-85750986D01*
X104021401Y-86008966D01*
X103936487Y-86288889D01*
X103907815Y-86580000D01*
X103936487Y-86871111D01*
X104021401Y-87151034D01*
X104159294Y-87409014D01*
X104344866Y-87635134D01*
X104570986Y-87820706D01*
X104828966Y-87958599D01*
X105108889Y-88043513D01*
X105227700Y-88055215D01*
X105227701Y-113101567D01*
X105224024Y-113138900D01*
X105238698Y-113287885D01*
X105282154Y-113431146D01*
X105352726Y-113563176D01*
X105409209Y-113632000D01*
X105447700Y-113678901D01*
X105476698Y-113702699D01*
X118434401Y-126660403D01*
X118458199Y-126689401D01*
X118487197Y-126713199D01*
X118573924Y-126784374D01*
X118705953Y-126854946D01*
X118849214Y-126898403D01*
X118998200Y-126913077D01*
X119035533Y-126909400D01*
X121219378Y-126909400D01*
X121256700Y-126913076D01*
X121294022Y-126909400D01*
X121294033Y-126909400D01*
X121405686Y-126898403D01*
X121548947Y-126854946D01*
X121680976Y-126784374D01*
X121796701Y-126689401D01*
X121820504Y-126660397D01*
X125883773Y-122597129D01*
X125935203Y-122659797D01*
X126163394Y-122847069D01*
X126196940Y-122865000D01*
X126163394Y-122882931D01*
X125935203Y-123070203D01*
X125747931Y-123298394D01*
X125608775Y-123558736D01*
X125523084Y-123841223D01*
X125494149Y-124135000D01*
X125523084Y-124428777D01*
X125608775Y-124711264D01*
X125747931Y-124971606D01*
X125935203Y-125199797D01*
X126163394Y-125387069D01*
X126423736Y-125526225D01*
X126706223Y-125611916D01*
X126926381Y-125633600D01*
X127073619Y-125633600D01*
X127293777Y-125611916D01*
X127576264Y-125526225D01*
X127836606Y-125387069D01*
X128064797Y-125199797D01*
X128252069Y-124971606D01*
X128270000Y-124938060D01*
X128287931Y-124971606D01*
X128475203Y-125199797D01*
X128703394Y-125387069D01*
X128963736Y-125526225D01*
X129246223Y-125611916D01*
X129466381Y-125633600D01*
X129613619Y-125633600D01*
X129833777Y-125611916D01*
X130116264Y-125526225D01*
X130376606Y-125387069D01*
X130463421Y-125315822D01*
X131014201Y-125866603D01*
X131037999Y-125895601D01*
X131153724Y-125990574D01*
X131285753Y-126061146D01*
X131429014Y-126104603D01*
X131540667Y-126115600D01*
X131540675Y-126115600D01*
X131578000Y-126119276D01*
X131615325Y-126115600D01*
X187014878Y-126115600D01*
X187052200Y-126119276D01*
X187089522Y-126115600D01*
X187089533Y-126115600D01*
X187201186Y-126104603D01*
X187344447Y-126061146D01*
X187476476Y-125990574D01*
X187592201Y-125895601D01*
X187616004Y-125866597D01*
X198031409Y-115451193D01*
X198060401Y-115427401D01*
X198084195Y-115398408D01*
X198084199Y-115398404D01*
X198142704Y-115327114D01*
X198155374Y-115311676D01*
X198225946Y-115179647D01*
X198269403Y-115036386D01*
X198280400Y-114924733D01*
X198280400Y-114924724D01*
X198284076Y-114887401D01*
X198280400Y-114850078D01*
X198280400Y-78795223D01*
X198284076Y-78757900D01*
X198280400Y-78720577D01*
X198280400Y-78720567D01*
X198269403Y-78608914D01*
X198225946Y-78465653D01*
X198194826Y-78407432D01*
X198155374Y-78333623D01*
X198084199Y-78246897D01*
X198060401Y-78217899D01*
X198031403Y-78194101D01*
X196659243Y-76821942D01*
X196778932Y-76676101D01*
X196912182Y-76426808D01*
X196994236Y-76156309D01*
X197021943Y-75875000D01*
X196994236Y-75593691D01*
X196912182Y-75323192D01*
X196778932Y-75073899D01*
X196599608Y-74855392D01*
X196381101Y-74676068D01*
X196131808Y-74542818D01*
X195861309Y-74460764D01*
X195650492Y-74440000D01*
X195509508Y-74440000D01*
X195298691Y-74460764D01*
X195028192Y-74542818D01*
X194778899Y-74676068D01*
X194572469Y-74845480D01*
X193704711Y-73977722D01*
X193781514Y-73936671D01*
X193853097Y-73692702D01*
X193040000Y-72879605D01*
X193025858Y-72893748D01*
X192846253Y-72714143D01*
X192860395Y-72700000D01*
X193219605Y-72700000D01*
X194032702Y-73513097D01*
X194276671Y-73441514D01*
X194290324Y-73412659D01*
X194425363Y-73614759D01*
X194625241Y-73814637D01*
X194860273Y-73971680D01*
X195121426Y-74079853D01*
X195398665Y-74135000D01*
X195681335Y-74135000D01*
X195958574Y-74079853D01*
X196219727Y-73971680D01*
X196454759Y-73814637D01*
X196654637Y-73614759D01*
X196811680Y-73379727D01*
X196919853Y-73118574D01*
X196975000Y-72841335D01*
X196975000Y-72558665D01*
X196919853Y-72281426D01*
X196811680Y-72020273D01*
X196654637Y-71785241D01*
X196454759Y-71585363D01*
X196219727Y-71428320D01*
X195958574Y-71320147D01*
X195681335Y-71265000D01*
X195398665Y-71265000D01*
X195121426Y-71320147D01*
X194860273Y-71428320D01*
X194625241Y-71585363D01*
X194425363Y-71785241D01*
X194291308Y-71985869D01*
X194276671Y-71958486D01*
X194032702Y-71886903D01*
X193219605Y-72700000D01*
X192860395Y-72700000D01*
X192047298Y-71886903D01*
X191803329Y-71958486D01*
X191765475Y-72038486D01*
X191434287Y-71707298D01*
X192226903Y-71707298D01*
X193040000Y-72520395D01*
X193853097Y-71707298D01*
X193781514Y-71463329D01*
X193526004Y-71342429D01*
X193251816Y-71273700D01*
X192969488Y-71259783D01*
X192689870Y-71301213D01*
X192423708Y-71396397D01*
X192298486Y-71463329D01*
X192226903Y-71707298D01*
X191434287Y-71707298D01*
X189893330Y-70166341D01*
X189864044Y-70130656D01*
X189721672Y-70013814D01*
X189559240Y-69926993D01*
X189382992Y-69873529D01*
X189245632Y-69860000D01*
X189199700Y-69855476D01*
X189153768Y-69860000D01*
X173809044Y-69860000D01*
X173739608Y-69775392D01*
X173521101Y-69596068D01*
X173271808Y-69462818D01*
X173001309Y-69380764D01*
X172790492Y-69360000D01*
X172649508Y-69360000D01*
X172438691Y-69380764D01*
X172168192Y-69462818D01*
X171918899Y-69596068D01*
X171712470Y-69765480D01*
X170858645Y-68911655D01*
X170961514Y-68856671D01*
X171033097Y-68612702D01*
X170220000Y-67799605D01*
X170205858Y-67813748D01*
X170026253Y-67634143D01*
X170040395Y-67620000D01*
X170026253Y-67605858D01*
X170205858Y-67426253D01*
X170220000Y-67440395D01*
X170234143Y-67426253D01*
X170413748Y-67605858D01*
X170399605Y-67620000D01*
X171212702Y-68433097D01*
X171456671Y-68361514D01*
X171470324Y-68332659D01*
X171605363Y-68534759D01*
X171805241Y-68734637D01*
X172040273Y-68891680D01*
X172301426Y-68999853D01*
X172578665Y-69055000D01*
X172861335Y-69055000D01*
X173138574Y-68999853D01*
X173399727Y-68891680D01*
X173634759Y-68734637D01*
X173834637Y-68534759D01*
X173991680Y-68299727D01*
X174099853Y-68038574D01*
X174155000Y-67761335D01*
X174155000Y-67478665D01*
X174099853Y-67201426D01*
X173991680Y-66940273D01*
X173871226Y-66760000D01*
X179011928Y-66760000D01*
X179011928Y-66850000D01*
X179024188Y-66974482D01*
X179060498Y-67094180D01*
X179119463Y-67204494D01*
X179198815Y-67301185D01*
X179295506Y-67380537D01*
X179405820Y-67439502D01*
X179525518Y-67475812D01*
X179650000Y-67488072D01*
X181350000Y-67488072D01*
X181474482Y-67475812D01*
X181594180Y-67439502D01*
X181704494Y-67380537D01*
X181801185Y-67301185D01*
X181880537Y-67204494D01*
X181939502Y-67094180D01*
X181960393Y-67025313D01*
X181984866Y-67055134D01*
X182210986Y-67240706D01*
X182468966Y-67378599D01*
X182748889Y-67463513D01*
X182967050Y-67485000D01*
X183112950Y-67485000D01*
X183331111Y-67463513D01*
X183611034Y-67378599D01*
X183869014Y-67240706D01*
X184095134Y-67055134D01*
X184280706Y-66829014D01*
X184310000Y-66774209D01*
X184339294Y-66829014D01*
X184524866Y-67055134D01*
X184750986Y-67240706D01*
X185008966Y-67378599D01*
X185288889Y-67463513D01*
X185507050Y-67485000D01*
X185652950Y-67485000D01*
X185871111Y-67463513D01*
X186151034Y-67378599D01*
X186409014Y-67240706D01*
X186635134Y-67055134D01*
X186820706Y-66829014D01*
X186958599Y-66571034D01*
X187043513Y-66291111D01*
X187072185Y-66000000D01*
X187043513Y-65708889D01*
X186958599Y-65428966D01*
X186820706Y-65170986D01*
X186635134Y-64944866D01*
X186409014Y-64759294D01*
X186151034Y-64621401D01*
X185871111Y-64536487D01*
X185652950Y-64515000D01*
X185507050Y-64515000D01*
X185288889Y-64536487D01*
X185008966Y-64621401D01*
X184750986Y-64759294D01*
X184524866Y-64944866D01*
X184339294Y-65170986D01*
X184310000Y-65225791D01*
X184280706Y-65170986D01*
X184095134Y-64944866D01*
X183869014Y-64759294D01*
X183611034Y-64621401D01*
X183331111Y-64536487D01*
X183112950Y-64515000D01*
X182967050Y-64515000D01*
X182748889Y-64536487D01*
X182468966Y-64621401D01*
X182210986Y-64759294D01*
X181984866Y-64944866D01*
X181960393Y-64974687D01*
X181939502Y-64905820D01*
X181880537Y-64795506D01*
X181801185Y-64698815D01*
X181704494Y-64619463D01*
X181594180Y-64560498D01*
X181474482Y-64524188D01*
X181350000Y-64511928D01*
X179650000Y-64511928D01*
X179525518Y-64524188D01*
X179405820Y-64560498D01*
X179295506Y-64619463D01*
X179198815Y-64698815D01*
X179119463Y-64795506D01*
X179060498Y-64905820D01*
X179024188Y-65025518D01*
X179011928Y-65150000D01*
X179011928Y-65240000D01*
X163622802Y-65240000D01*
X162209024Y-63826222D01*
X162369014Y-63740706D01*
X162595134Y-63555134D01*
X162780706Y-63329014D01*
X162810000Y-63274209D01*
X162839294Y-63329014D01*
X163024866Y-63555134D01*
X163250986Y-63740706D01*
X163508966Y-63878599D01*
X163788889Y-63963513D01*
X164007050Y-63985000D01*
X164152950Y-63985000D01*
X164371111Y-63963513D01*
X164651034Y-63878599D01*
X164909014Y-63740706D01*
X165135134Y-63555134D01*
X165320706Y-63329014D01*
X165350000Y-63274209D01*
X165379294Y-63329014D01*
X165564866Y-63555134D01*
X165790986Y-63740706D01*
X166048966Y-63878599D01*
X166328889Y-63963513D01*
X166547050Y-63985000D01*
X166692950Y-63985000D01*
X166911111Y-63963513D01*
X167191034Y-63878599D01*
X167449014Y-63740706D01*
X167528595Y-63675396D01*
X168039501Y-64186302D01*
X168063299Y-64215301D01*
X168092297Y-64239099D01*
X168179024Y-64310274D01*
X168311053Y-64380846D01*
X168454314Y-64424303D01*
X168603300Y-64438977D01*
X168640633Y-64435300D01*
X178112078Y-64435300D01*
X178149400Y-64438976D01*
X178186722Y-64435300D01*
X178186733Y-64435300D01*
X178298386Y-64424303D01*
X178441647Y-64380846D01*
X178573676Y-64310274D01*
X178610720Y-64279872D01*
X192265000Y-64279872D01*
X192265000Y-64720128D01*
X192350890Y-65151925D01*
X192519369Y-65558669D01*
X192763962Y-65924729D01*
X193075271Y-66236038D01*
X193441331Y-66480631D01*
X193848075Y-66649110D01*
X194279872Y-66735000D01*
X194720128Y-66735000D01*
X195151925Y-66649110D01*
X195558669Y-66480631D01*
X195924729Y-66236038D01*
X196236038Y-65924729D01*
X196480631Y-65558669D01*
X196649110Y-65151925D01*
X196735000Y-64720128D01*
X196735000Y-64279872D01*
X196649110Y-63848075D01*
X196480631Y-63441331D01*
X196236038Y-63075271D01*
X195924729Y-62763962D01*
X195558669Y-62519369D01*
X195151925Y-62350890D01*
X194720128Y-62265000D01*
X194279872Y-62265000D01*
X193848075Y-62350890D01*
X193441331Y-62519369D01*
X193075271Y-62763962D01*
X192763962Y-63075271D01*
X192519369Y-63441331D01*
X192350890Y-63848075D01*
X192265000Y-64279872D01*
X178610720Y-64279872D01*
X178689401Y-64215301D01*
X178713204Y-64186297D01*
X179153515Y-63745986D01*
X179198815Y-63801185D01*
X179295506Y-63880537D01*
X179405820Y-63939502D01*
X179525518Y-63975812D01*
X179650000Y-63988072D01*
X181350000Y-63988072D01*
X181474482Y-63975812D01*
X181594180Y-63939502D01*
X181704494Y-63880537D01*
X181801185Y-63801185D01*
X181880537Y-63704494D01*
X181939502Y-63594180D01*
X181960393Y-63525313D01*
X181984866Y-63555134D01*
X182210986Y-63740706D01*
X182468966Y-63878599D01*
X182748889Y-63963513D01*
X182967050Y-63985000D01*
X183112950Y-63985000D01*
X183331111Y-63963513D01*
X183611034Y-63878599D01*
X183869014Y-63740706D01*
X184095134Y-63555134D01*
X184280706Y-63329014D01*
X184310000Y-63274209D01*
X184339294Y-63329014D01*
X184524866Y-63555134D01*
X184750986Y-63740706D01*
X185008966Y-63878599D01*
X185288889Y-63963513D01*
X185507050Y-63985000D01*
X185652950Y-63985000D01*
X185871111Y-63963513D01*
X186151034Y-63878599D01*
X186409014Y-63740706D01*
X186635134Y-63555134D01*
X186820706Y-63329014D01*
X186958599Y-63071034D01*
X187043513Y-62791111D01*
X187072185Y-62500000D01*
X187043513Y-62208889D01*
X186958599Y-61928966D01*
X186820706Y-61670986D01*
X186635134Y-61444866D01*
X186409014Y-61259294D01*
X186151034Y-61121401D01*
X185871111Y-61036487D01*
X185652950Y-61015000D01*
X185507050Y-61015000D01*
X185288889Y-61036487D01*
X185008966Y-61121401D01*
X184750986Y-61259294D01*
X184524866Y-61444866D01*
X184339294Y-61670986D01*
X184310000Y-61725791D01*
X184280706Y-61670986D01*
X184095134Y-61444866D01*
X183869014Y-61259294D01*
X183611034Y-61121401D01*
X183331111Y-61036487D01*
X183112950Y-61015000D01*
X182967050Y-61015000D01*
X182748889Y-61036487D01*
X182468966Y-61121401D01*
X182210986Y-61259294D01*
X181984866Y-61444866D01*
X181960393Y-61474687D01*
X181939502Y-61405820D01*
X181880537Y-61295506D01*
X181801185Y-61198815D01*
X181704494Y-61119463D01*
X181594180Y-61060498D01*
X181474482Y-61024188D01*
X181350000Y-61011928D01*
X179650000Y-61011928D01*
X179525518Y-61024188D01*
X179405820Y-61060498D01*
X179295506Y-61119463D01*
X179198815Y-61198815D01*
X179119463Y-61295506D01*
X179060498Y-61405820D01*
X179024188Y-61525518D01*
X179011928Y-61650000D01*
X179011928Y-61805425D01*
X178900424Y-61865026D01*
X178784699Y-61959999D01*
X178760901Y-61988997D01*
X177834599Y-62915300D01*
X170585841Y-62915300D01*
X170623513Y-62791111D01*
X170652185Y-62500000D01*
X170623513Y-62208889D01*
X170538599Y-61928966D01*
X170400706Y-61670986D01*
X170215134Y-61444866D01*
X169989014Y-61259294D01*
X169731034Y-61121401D01*
X169451111Y-61036487D01*
X169232950Y-61015000D01*
X169087050Y-61015000D01*
X168868889Y-61036487D01*
X168588966Y-61121401D01*
X168330986Y-61259294D01*
X168104866Y-61444866D01*
X167919294Y-61670986D01*
X167890000Y-61725791D01*
X167860706Y-61670986D01*
X167675134Y-61444866D01*
X167449014Y-61259294D01*
X167191034Y-61121401D01*
X166911111Y-61036487D01*
X166692950Y-61015000D01*
X166547050Y-61015000D01*
X166328889Y-61036487D01*
X166048966Y-61121401D01*
X165790986Y-61259294D01*
X165564866Y-61444866D01*
X165379294Y-61670986D01*
X165350000Y-61725791D01*
X165320706Y-61670986D01*
X165135134Y-61444866D01*
X164909014Y-61259294D01*
X164651034Y-61121401D01*
X164371111Y-61036487D01*
X164152950Y-61015000D01*
X164007050Y-61015000D01*
X163788889Y-61036487D01*
X163508966Y-61121401D01*
X163250986Y-61259294D01*
X163024866Y-61444866D01*
X162839294Y-61670986D01*
X162810000Y-61725791D01*
X162780706Y-61670986D01*
X162595134Y-61444866D01*
X162369014Y-61259294D01*
X162111034Y-61121401D01*
X161831111Y-61036487D01*
X161612950Y-61015000D01*
X161467050Y-61015000D01*
X161248889Y-61036487D01*
X160968966Y-61121401D01*
X160710986Y-61259294D01*
X160484866Y-61444866D01*
X160460393Y-61474687D01*
X160439502Y-61405820D01*
X160380537Y-61295506D01*
X160301185Y-61198815D01*
X160204494Y-61119463D01*
X160094180Y-61060498D01*
X159974482Y-61024188D01*
X159850000Y-61011928D01*
X158150000Y-61011928D01*
X158025518Y-61024188D01*
X157905820Y-61060498D01*
X157795506Y-61119463D01*
X157698815Y-61198815D01*
X157619463Y-61295506D01*
X157560498Y-61405820D01*
X157524188Y-61525518D01*
X157511928Y-61650000D01*
X157511928Y-63350000D01*
X157524188Y-63474482D01*
X157560498Y-63594180D01*
X157619463Y-63704494D01*
X157698815Y-63801185D01*
X157795506Y-63880537D01*
X157905820Y-63939502D01*
X158025518Y-63975812D01*
X158150000Y-63988072D01*
X159850000Y-63988072D01*
X159974482Y-63975812D01*
X160094180Y-63939502D01*
X160145350Y-63912151D01*
X162744201Y-66511003D01*
X162767999Y-66540001D01*
X162883724Y-66634974D01*
X163015753Y-66705546D01*
X163159014Y-66749003D01*
X163270667Y-66760000D01*
X163270677Y-66760000D01*
X163308000Y-66763676D01*
X163345323Y-66760000D01*
X169180393Y-66760000D01*
X169227296Y-66806903D01*
X168983329Y-66878486D01*
X168862429Y-67133996D01*
X168793700Y-67408184D01*
X168779783Y-67690512D01*
X168821213Y-67970130D01*
X168916397Y-68236292D01*
X168983329Y-68361514D01*
X169227296Y-68433097D01*
X169111023Y-68549370D01*
X169121253Y-68559600D01*
X148886631Y-68559600D01*
X148840699Y-68555076D01*
X148700426Y-68568892D01*
X148657408Y-68573129D01*
X148601792Y-68590000D01*
X148599044Y-68590000D01*
X148529608Y-68505392D01*
X148311101Y-68326068D01*
X148061808Y-68192818D01*
X147791309Y-68110764D01*
X147580492Y-68090000D01*
X147439508Y-68090000D01*
X147228691Y-68110764D01*
X146958192Y-68192818D01*
X146708899Y-68326068D01*
X146490392Y-68505392D01*
X146311068Y-68723899D01*
X146177818Y-68973192D01*
X146095764Y-69243691D01*
X146068057Y-69525000D01*
X146095764Y-69806309D01*
X146177818Y-70076808D01*
X146311068Y-70326101D01*
X146490392Y-70544608D01*
X146708899Y-70723932D01*
X146841858Y-70795000D01*
X146708899Y-70866068D01*
X146490392Y-71045392D01*
X146311068Y-71263899D01*
X146177818Y-71513192D01*
X146095764Y-71783691D01*
X146068057Y-72065000D01*
X146095764Y-72346309D01*
X146165136Y-72575000D01*
X141234864Y-72575000D01*
X141304236Y-72346309D01*
X141331943Y-72065000D01*
X141304236Y-71783691D01*
X141222182Y-71513192D01*
X141088932Y-71263899D01*
X140909608Y-71045392D01*
X140796518Y-70952581D01*
X140814482Y-70950812D01*
X140934180Y-70914502D01*
X141044494Y-70855537D01*
X141141185Y-70776185D01*
X141220537Y-70679494D01*
X141279502Y-70569180D01*
X141315812Y-70449482D01*
X141328072Y-70325000D01*
X141328072Y-68725000D01*
X141315812Y-68600518D01*
X141279502Y-68480820D01*
X141220537Y-68370506D01*
X141141185Y-68273815D01*
X141044494Y-68194463D01*
X140934180Y-68135498D01*
X140814482Y-68099188D01*
X140690000Y-68086928D01*
X139090000Y-68086928D01*
X138965518Y-68099188D01*
X138845820Y-68135498D01*
X138735506Y-68194463D01*
X138638815Y-68273815D01*
X138559463Y-68370506D01*
X138500498Y-68480820D01*
X138464188Y-68600518D01*
X138451928Y-68725000D01*
X138451928Y-70325000D01*
X138464188Y-70449482D01*
X138500498Y-70569180D01*
X138559463Y-70679494D01*
X138638815Y-70776185D01*
X138735506Y-70855537D01*
X138845820Y-70914502D01*
X138965518Y-70950812D01*
X138983482Y-70952581D01*
X138870392Y-71045392D01*
X138691068Y-71263899D01*
X138557818Y-71513192D01*
X138475764Y-71783691D01*
X138448057Y-72065000D01*
X138475764Y-72346309D01*
X138545136Y-72575000D01*
X134142126Y-72575000D01*
X134192236Y-72409809D01*
X134219943Y-72128500D01*
X134192236Y-71847191D01*
X134110182Y-71576692D01*
X133976932Y-71327399D01*
X133797608Y-71108892D01*
X133579101Y-70929568D01*
X133446142Y-70858500D01*
X133579101Y-70787432D01*
X133797608Y-70608108D01*
X133976932Y-70389601D01*
X134110182Y-70140308D01*
X134192236Y-69869809D01*
X134219943Y-69588500D01*
X134192236Y-69307191D01*
X134110182Y-69036692D01*
X133976932Y-68787399D01*
X133797608Y-68568892D01*
X133579101Y-68389568D01*
X133329808Y-68256318D01*
X133059309Y-68174264D01*
X132848492Y-68153500D01*
X132707508Y-68153500D01*
X132496691Y-68174264D01*
X132226192Y-68256318D01*
X131976899Y-68389568D01*
X131770469Y-68558980D01*
X130871030Y-67659541D01*
X130841744Y-67623856D01*
X130699372Y-67507014D01*
X130536940Y-67420193D01*
X130360692Y-67366729D01*
X130223332Y-67353200D01*
X130177400Y-67348676D01*
X130131468Y-67353200D01*
X118256624Y-67353200D01*
X118069727Y-67228320D01*
X117808574Y-67120147D01*
X117531335Y-67065000D01*
X117248665Y-67065000D01*
X116971426Y-67120147D01*
X116710273Y-67228320D01*
X116475241Y-67385363D01*
X116275363Y-67585241D01*
X116141308Y-67785869D01*
X116126671Y-67758486D01*
X115882702Y-67686903D01*
X115069605Y-68500000D01*
X115882702Y-69313097D01*
X116126671Y-69241514D01*
X116140324Y-69212659D01*
X116275363Y-69414759D01*
X116475241Y-69614637D01*
X116710273Y-69771680D01*
X116971426Y-69879853D01*
X117248665Y-69935000D01*
X117531335Y-69935000D01*
X117808574Y-69879853D01*
X118069727Y-69771680D01*
X118304759Y-69614637D01*
X118504637Y-69414759D01*
X118632632Y-69223200D01*
X123719928Y-69223200D01*
X123719928Y-70388500D01*
X123732188Y-70512982D01*
X123768498Y-70632680D01*
X123827463Y-70742994D01*
X123906815Y-70839685D01*
X124003506Y-70919037D01*
X124113820Y-70978002D01*
X124233518Y-71014312D01*
X124251482Y-71016081D01*
X124138392Y-71108892D01*
X123959068Y-71327399D01*
X123825818Y-71576692D01*
X123743764Y-71847191D01*
X123716057Y-72128500D01*
X123743764Y-72409809D01*
X123825818Y-72680308D01*
X123959068Y-72929601D01*
X124138392Y-73148108D01*
X124356899Y-73327432D01*
X124489858Y-73398500D01*
X124356899Y-73469568D01*
X124138392Y-73648892D01*
X123959068Y-73867399D01*
X123825818Y-74116692D01*
X123743764Y-74387191D01*
X123716057Y-74668500D01*
X123743764Y-74949809D01*
X123825818Y-75220308D01*
X123959068Y-75469601D01*
X124138392Y-75688108D01*
X124356899Y-75867432D01*
X124489858Y-75938500D01*
X124356899Y-76009568D01*
X124138392Y-76188892D01*
X123959068Y-76407399D01*
X123825818Y-76656692D01*
X123743764Y-76927191D01*
X123716057Y-77208500D01*
X123743764Y-77489809D01*
X123769970Y-77576200D01*
X118163799Y-77576200D01*
X118182182Y-77541808D01*
X118264236Y-77271309D01*
X118291943Y-76990000D01*
X118264236Y-76708691D01*
X118182182Y-76438192D01*
X118048932Y-76188899D01*
X117869608Y-75970392D01*
X117651101Y-75791068D01*
X117513318Y-75717421D01*
X117705131Y-75602385D01*
X117913519Y-75413414D01*
X118081037Y-75187420D01*
X118201246Y-74933087D01*
X118241904Y-74799039D01*
X118119915Y-74577000D01*
X116977000Y-74577000D01*
X116977000Y-74597000D01*
X116723000Y-74597000D01*
X116723000Y-74577000D01*
X115580085Y-74577000D01*
X115458096Y-74799039D01*
X115498754Y-74933087D01*
X115618963Y-75187420D01*
X115786481Y-75413414D01*
X115994869Y-75602385D01*
X116186682Y-75717421D01*
X116048899Y-75791068D01*
X115830392Y-75970392D01*
X115651068Y-76188899D01*
X115625861Y-76236058D01*
X115575714Y-76240997D01*
X115432453Y-76284454D01*
X115300424Y-76355026D01*
X115184699Y-76449999D01*
X115089726Y-76565724D01*
X115019154Y-76697753D01*
X114975697Y-76841014D01*
X114964281Y-76956917D01*
X110506737Y-81414462D01*
X110428932Y-81268899D01*
X110249608Y-81050392D01*
X110031101Y-80871068D01*
X109898142Y-80800000D01*
X110031101Y-80728932D01*
X110249608Y-80549608D01*
X110428932Y-80331101D01*
X110562182Y-80081808D01*
X110644236Y-79811309D01*
X110671943Y-79530000D01*
X110644236Y-79248691D01*
X110562182Y-78978192D01*
X110428932Y-78728899D01*
X110249608Y-78510392D01*
X110031101Y-78331068D01*
X109898142Y-78260000D01*
X110031101Y-78188932D01*
X110249608Y-78009608D01*
X110428932Y-77791101D01*
X110562182Y-77541808D01*
X110644236Y-77271309D01*
X110671943Y-76990000D01*
X110644236Y-76708691D01*
X110562182Y-76438192D01*
X110428932Y-76188899D01*
X110249608Y-75970392D01*
X110031101Y-75791068D01*
X109898142Y-75720000D01*
X110031101Y-75648932D01*
X110249608Y-75469608D01*
X110428932Y-75251101D01*
X110562182Y-75001808D01*
X110644236Y-74731309D01*
X110671943Y-74450000D01*
X110644236Y-74168691D01*
X110562182Y-73898192D01*
X110428932Y-73648899D01*
X110249608Y-73430392D01*
X110136518Y-73337581D01*
X110154482Y-73335812D01*
X110274180Y-73299502D01*
X110384494Y-73240537D01*
X110481185Y-73161185D01*
X110560537Y-73064494D01*
X110619502Y-72954180D01*
X110655812Y-72834482D01*
X110668072Y-72710000D01*
X110668072Y-71910000D01*
X115408057Y-71910000D01*
X115435764Y-72191309D01*
X115517818Y-72461808D01*
X115651068Y-72711101D01*
X115830392Y-72929608D01*
X116048899Y-73108932D01*
X116186682Y-73182579D01*
X115994869Y-73297615D01*
X115786481Y-73486586D01*
X115618963Y-73712580D01*
X115498754Y-73966913D01*
X115458096Y-74100961D01*
X115580085Y-74323000D01*
X116723000Y-74323000D01*
X116723000Y-74303000D01*
X116977000Y-74303000D01*
X116977000Y-74323000D01*
X118119915Y-74323000D01*
X118241904Y-74100961D01*
X118201246Y-73966913D01*
X118081037Y-73712580D01*
X117913519Y-73486586D01*
X117705131Y-73297615D01*
X117513318Y-73182579D01*
X117651101Y-73108932D01*
X117869608Y-72929608D01*
X118048932Y-72711101D01*
X118182182Y-72461808D01*
X118264236Y-72191309D01*
X118291943Y-71910000D01*
X118264236Y-71628691D01*
X118182182Y-71358192D01*
X118048932Y-71108899D01*
X117869608Y-70890392D01*
X117651101Y-70711068D01*
X117401808Y-70577818D01*
X117131309Y-70495764D01*
X116920492Y-70475000D01*
X116779508Y-70475000D01*
X116568691Y-70495764D01*
X116298192Y-70577818D01*
X116048899Y-70711068D01*
X115830392Y-70890392D01*
X115651068Y-71108899D01*
X115517818Y-71358192D01*
X115435764Y-71628691D01*
X115408057Y-71910000D01*
X110668072Y-71910000D01*
X110668072Y-71110000D01*
X110655812Y-70985518D01*
X110619502Y-70865820D01*
X110560537Y-70755506D01*
X110481185Y-70658815D01*
X110384494Y-70579463D01*
X110274180Y-70520498D01*
X110154482Y-70484188D01*
X110030000Y-70471928D01*
X108430000Y-70471928D01*
X108305518Y-70484188D01*
X108185820Y-70520498D01*
X108075506Y-70579463D01*
X107978815Y-70658815D01*
X107899463Y-70755506D01*
X107840498Y-70865820D01*
X107804188Y-70985518D01*
X107791928Y-71110000D01*
X107791928Y-72710000D01*
X107804188Y-72834482D01*
X107840498Y-72954180D01*
X107899463Y-73064494D01*
X107978815Y-73161185D01*
X108075506Y-73240537D01*
X108185820Y-73299502D01*
X108305518Y-73335812D01*
X108323482Y-73337581D01*
X108210392Y-73430392D01*
X108031068Y-73648899D01*
X107897818Y-73898192D01*
X107815764Y-74168691D01*
X107788057Y-74450000D01*
X107815764Y-74731309D01*
X107897818Y-75001808D01*
X108031068Y-75251101D01*
X108210392Y-75469608D01*
X108428899Y-75648932D01*
X108561858Y-75720000D01*
X108428899Y-75791068D01*
X108210392Y-75970392D01*
X108031068Y-76188899D01*
X107897818Y-76438192D01*
X107815764Y-76708691D01*
X107788057Y-76990000D01*
X107815764Y-77271309D01*
X107897818Y-77541808D01*
X108031068Y-77791101D01*
X108210392Y-78009608D01*
X108428899Y-78188932D01*
X108561858Y-78260000D01*
X108428899Y-78331068D01*
X108210392Y-78510392D01*
X108031068Y-78728899D01*
X107897818Y-78978192D01*
X107815764Y-79248691D01*
X107788057Y-79530000D01*
X107815764Y-79811309D01*
X107897818Y-80081808D01*
X108031068Y-80331101D01*
X108210392Y-80549608D01*
X108428899Y-80728932D01*
X108561858Y-80800000D01*
X108428899Y-80871068D01*
X108210392Y-81050392D01*
X108031068Y-81268899D01*
X107897818Y-81518192D01*
X107815764Y-81788691D01*
X107788057Y-82070000D01*
X107815764Y-82351309D01*
X107897818Y-82621808D01*
X107903052Y-82631600D01*
X107261022Y-82631600D01*
X107223699Y-82627924D01*
X107186376Y-82631600D01*
X107186367Y-82631600D01*
X107074714Y-82642597D01*
X106931453Y-82686054D01*
X106799423Y-82756626D01*
X106723417Y-82819003D01*
X106683699Y-82851599D01*
X106659900Y-82880598D01*
X106500434Y-83040064D01*
X106455134Y-82984866D01*
X106425313Y-82960393D01*
X106494180Y-82939502D01*
X106604494Y-82880537D01*
X106701185Y-82801185D01*
X106780537Y-82704494D01*
X106839502Y-82594180D01*
X106875812Y-82474482D01*
X106888072Y-82350000D01*
X106885000Y-81785750D01*
X106726250Y-81627000D01*
X105527000Y-81627000D01*
X105527000Y-81647000D01*
X105273000Y-81647000D01*
X105273000Y-81627000D01*
X104073750Y-81627000D01*
X103915000Y-81785750D01*
X103911928Y-82350000D01*
X103924188Y-82474482D01*
X103960498Y-82594180D01*
X104019463Y-82704494D01*
X104098815Y-82801185D01*
X104195506Y-82880537D01*
X104305820Y-82939502D01*
X104374687Y-82960393D01*
X104344866Y-82984866D01*
X104159294Y-83210986D01*
X104021401Y-83468966D01*
X103936487Y-83748889D01*
X103907815Y-84040000D01*
X100710000Y-84040000D01*
X100710000Y-80650000D01*
X103911928Y-80650000D01*
X103915000Y-81214250D01*
X104073750Y-81373000D01*
X105273000Y-81373000D01*
X105273000Y-80173750D01*
X105527000Y-80173750D01*
X105527000Y-81373000D01*
X106726250Y-81373000D01*
X106885000Y-81214250D01*
X106888072Y-80650000D01*
X106875812Y-80525518D01*
X106839502Y-80405820D01*
X106780537Y-80295506D01*
X106701185Y-80198815D01*
X106604494Y-80119463D01*
X106494180Y-80060498D01*
X106374482Y-80024188D01*
X106250000Y-80011928D01*
X105685750Y-80015000D01*
X105527000Y-80173750D01*
X105273000Y-80173750D01*
X105114250Y-80015000D01*
X104550000Y-80011928D01*
X104425518Y-80024188D01*
X104305820Y-80060498D01*
X104195506Y-80119463D01*
X104098815Y-80198815D01*
X104019463Y-80295506D01*
X103960498Y-80405820D01*
X103924188Y-80525518D01*
X103911928Y-80650000D01*
X100710000Y-80650000D01*
X100710000Y-69492702D01*
X114076903Y-69492702D01*
X114148486Y-69736671D01*
X114403996Y-69857571D01*
X114678184Y-69926300D01*
X114960512Y-69940217D01*
X115240130Y-69898787D01*
X115506292Y-69803603D01*
X115631514Y-69736671D01*
X115703097Y-69492702D01*
X114890000Y-68679605D01*
X114076903Y-69492702D01*
X100710000Y-69492702D01*
X100710000Y-68570512D01*
X113449783Y-68570512D01*
X113491213Y-68850130D01*
X113586397Y-69116292D01*
X113653329Y-69241514D01*
X113897298Y-69313097D01*
X114710395Y-68500000D01*
X113897298Y-67686903D01*
X113653329Y-67758486D01*
X113532429Y-68013996D01*
X113463700Y-68288184D01*
X113449783Y-68570512D01*
X100710000Y-68570512D01*
X100710000Y-67507298D01*
X114076903Y-67507298D01*
X114890000Y-68320395D01*
X115703097Y-67507298D01*
X115631514Y-67263329D01*
X115376004Y-67142429D01*
X115101816Y-67073700D01*
X114819488Y-67059783D01*
X114539870Y-67101213D01*
X114273708Y-67196397D01*
X114148486Y-67263329D01*
X114076903Y-67507298D01*
X100710000Y-67507298D01*
X100710000Y-66771202D01*
X129782903Y-66771202D01*
X129854486Y-67015171D01*
X130109996Y-67136071D01*
X130384184Y-67204800D01*
X130666512Y-67218717D01*
X130946130Y-67177287D01*
X131212292Y-67082103D01*
X131337514Y-67015171D01*
X131409097Y-66771202D01*
X130596000Y-65958105D01*
X129782903Y-66771202D01*
X100710000Y-66771202D01*
X100710000Y-64279872D01*
X103265000Y-64279872D01*
X103265000Y-64720128D01*
X103350890Y-65151925D01*
X103519369Y-65558669D01*
X103763962Y-65924729D01*
X104075271Y-66236038D01*
X104441331Y-66480631D01*
X104848075Y-66649110D01*
X105279872Y-66735000D01*
X105720128Y-66735000D01*
X106151925Y-66649110D01*
X106558669Y-66480631D01*
X106924729Y-66236038D01*
X107236038Y-65924729D01*
X107286630Y-65849012D01*
X129155783Y-65849012D01*
X129197213Y-66128630D01*
X129292397Y-66394792D01*
X129359329Y-66520014D01*
X129603298Y-66591597D01*
X130416395Y-65778500D01*
X130775605Y-65778500D01*
X131588702Y-66591597D01*
X131832671Y-66520014D01*
X131846324Y-66491159D01*
X131981363Y-66693259D01*
X132181241Y-66893137D01*
X132416273Y-67050180D01*
X132677426Y-67158353D01*
X132954665Y-67213500D01*
X133237335Y-67213500D01*
X133514574Y-67158353D01*
X133775727Y-67050180D01*
X133876715Y-66982702D01*
X144606903Y-66982702D01*
X144678486Y-67226671D01*
X144933996Y-67347571D01*
X145208184Y-67416300D01*
X145490512Y-67430217D01*
X145770130Y-67388787D01*
X146036292Y-67293603D01*
X146161514Y-67226671D01*
X146233097Y-66982702D01*
X145420000Y-66169605D01*
X144606903Y-66982702D01*
X133876715Y-66982702D01*
X134010759Y-66893137D01*
X134210637Y-66693259D01*
X134367680Y-66458227D01*
X134475853Y-66197074D01*
X134503017Y-66060512D01*
X143979783Y-66060512D01*
X144021213Y-66340130D01*
X144116397Y-66606292D01*
X144183329Y-66731514D01*
X144427298Y-66803097D01*
X145240395Y-65990000D01*
X145599605Y-65990000D01*
X146412702Y-66803097D01*
X146656671Y-66731514D01*
X146670324Y-66702659D01*
X146805363Y-66904759D01*
X147005241Y-67104637D01*
X147240273Y-67261680D01*
X147501426Y-67369853D01*
X147778665Y-67425000D01*
X148061335Y-67425000D01*
X148338574Y-67369853D01*
X148599727Y-67261680D01*
X148834759Y-67104637D01*
X149034637Y-66904759D01*
X149191680Y-66669727D01*
X149299853Y-66408574D01*
X149355000Y-66131335D01*
X149355000Y-65848665D01*
X149299853Y-65571426D01*
X149191680Y-65310273D01*
X149034637Y-65075241D01*
X148834759Y-64875363D01*
X148599727Y-64718320D01*
X148338574Y-64610147D01*
X148061335Y-64555000D01*
X147778665Y-64555000D01*
X147501426Y-64610147D01*
X147240273Y-64718320D01*
X147005241Y-64875363D01*
X146805363Y-65075241D01*
X146671308Y-65275869D01*
X146656671Y-65248486D01*
X146412702Y-65176903D01*
X145599605Y-65990000D01*
X145240395Y-65990000D01*
X144427298Y-65176903D01*
X144183329Y-65248486D01*
X144062429Y-65503996D01*
X143993700Y-65778184D01*
X143979783Y-66060512D01*
X134503017Y-66060512D01*
X134531000Y-65919835D01*
X134531000Y-65637165D01*
X134475853Y-65359926D01*
X134367680Y-65098773D01*
X134299877Y-64997298D01*
X144606903Y-64997298D01*
X145420000Y-65810395D01*
X146233097Y-64997298D01*
X146161514Y-64753329D01*
X145906004Y-64632429D01*
X145631816Y-64563700D01*
X145349488Y-64549783D01*
X145069870Y-64591213D01*
X144803708Y-64686397D01*
X144678486Y-64753329D01*
X144606903Y-64997298D01*
X134299877Y-64997298D01*
X134210637Y-64863741D01*
X134010759Y-64663863D01*
X133775727Y-64506820D01*
X133514574Y-64398647D01*
X133237335Y-64343500D01*
X132954665Y-64343500D01*
X132677426Y-64398647D01*
X132416273Y-64506820D01*
X132181241Y-64663863D01*
X131981363Y-64863741D01*
X131847308Y-65064369D01*
X131832671Y-65036986D01*
X131588702Y-64965403D01*
X130775605Y-65778500D01*
X130416395Y-65778500D01*
X129603298Y-64965403D01*
X129359329Y-65036986D01*
X129238429Y-65292496D01*
X129169700Y-65566684D01*
X129155783Y-65849012D01*
X107286630Y-65849012D01*
X107480631Y-65558669D01*
X107649110Y-65151925D01*
X107721937Y-64785798D01*
X129782903Y-64785798D01*
X130596000Y-65598895D01*
X131409097Y-64785798D01*
X131337514Y-64541829D01*
X131082004Y-64420929D01*
X130807816Y-64352200D01*
X130525488Y-64338283D01*
X130245870Y-64379713D01*
X129979708Y-64474897D01*
X129854486Y-64541829D01*
X129782903Y-64785798D01*
X107721937Y-64785798D01*
X107735000Y-64720128D01*
X107735000Y-64279872D01*
X107649110Y-63848075D01*
X107480631Y-63441331D01*
X107236038Y-63075271D01*
X106924729Y-62763962D01*
X106558669Y-62519369D01*
X106151925Y-62350890D01*
X105720128Y-62265000D01*
X105279872Y-62265000D01*
X104848075Y-62350890D01*
X104441331Y-62519369D01*
X104075271Y-62763962D01*
X103763962Y-63075271D01*
X103519369Y-63441331D01*
X103350890Y-63848075D01*
X103265000Y-64279872D01*
X100710000Y-64279872D01*
X100710000Y-60710000D01*
X199290000Y-60710000D01*
X199290001Y-134290000D01*
X199290001Y-134290000D01*
G37*
X199290001Y-134290000D02*
X100710000Y-134290000D01*
X100710000Y-130269872D01*
X103275000Y-130269872D01*
X103275000Y-130710128D01*
X103360890Y-131141925D01*
X103529369Y-131548669D01*
X103773962Y-131914729D01*
X104085271Y-132226038D01*
X104451331Y-132470631D01*
X104858075Y-132639110D01*
X105289872Y-132725000D01*
X105730128Y-132725000D01*
X106161925Y-132639110D01*
X106568669Y-132470631D01*
X106934729Y-132226038D01*
X107246038Y-131914729D01*
X107490631Y-131548669D01*
X107659110Y-131141925D01*
X107745000Y-130710128D01*
X107745000Y-130269872D01*
X192265000Y-130269872D01*
X192265000Y-130710128D01*
X192350890Y-131141925D01*
X192519369Y-131548669D01*
X192763962Y-131914729D01*
X193075271Y-132226038D01*
X193441331Y-132470631D01*
X193848075Y-132639110D01*
X194279872Y-132725000D01*
X194720128Y-132725000D01*
X195151925Y-132639110D01*
X195558669Y-132470631D01*
X195924729Y-132226038D01*
X196236038Y-131914729D01*
X196480631Y-131548669D01*
X196649110Y-131141925D01*
X196735000Y-130710128D01*
X196735000Y-130269872D01*
X196649110Y-129838075D01*
X196480631Y-129431331D01*
X196236038Y-129065271D01*
X195924729Y-128753962D01*
X195558669Y-128509369D01*
X195151925Y-128340890D01*
X194720128Y-128255000D01*
X194279872Y-128255000D01*
X193848075Y-128340890D01*
X193441331Y-128509369D01*
X193075271Y-128753962D01*
X192763962Y-129065271D01*
X192519369Y-129431331D01*
X192350890Y-129838075D01*
X192265000Y-130269872D01*
X107745000Y-130269872D01*
X107659110Y-129838075D01*
X107490631Y-129431331D01*
X107246038Y-129065271D01*
X106934729Y-128753962D01*
X106568669Y-128509369D01*
X106161925Y-128340890D01*
X105730128Y-128255000D01*
X105289872Y-128255000D01*
X104858075Y-128340890D01*
X104451331Y-128509369D01*
X104085271Y-128753962D01*
X103773962Y-129065271D01*
X103529369Y-129431331D01*
X103360890Y-129838075D01*
X103275000Y-130269872D01*
X100710000Y-130269872D01*
X100710000Y-125024000D01*
X108286057Y-125024000D01*
X108313764Y-125305309D01*
X108395818Y-125575808D01*
X108529068Y-125825101D01*
X108708392Y-126043608D01*
X108926899Y-126222932D01*
X109176192Y-126356182D01*
X109446691Y-126438236D01*
X109657508Y-126459000D01*
X109798492Y-126459000D01*
X110009309Y-126438236D01*
X110279808Y-126356182D01*
X110529101Y-126222932D01*
X110747608Y-126043608D01*
X110926932Y-125825101D01*
X111060182Y-125575808D01*
X111142236Y-125305309D01*
X111169943Y-125024000D01*
X111142236Y-124742691D01*
X111060182Y-124472192D01*
X110926932Y-124222899D01*
X110747608Y-124004392D01*
X110529101Y-123825068D01*
X110279808Y-123691818D01*
X110009309Y-123609764D01*
X109798492Y-123589000D01*
X109657508Y-123589000D01*
X109446691Y-123609764D01*
X109176192Y-123691818D01*
X108926899Y-123825068D01*
X108708392Y-124004392D01*
X108529068Y-124222899D01*
X108395818Y-124472192D01*
X108313764Y-124742691D01*
X108286057Y-125024000D01*
X100710000Y-125024000D01*
X100710000Y-121976000D01*
X108286057Y-121976000D01*
X108313764Y-122257309D01*
X108395818Y-122527808D01*
X108529068Y-122777101D01*
X108708392Y-122995608D01*
X108926899Y-123174932D01*
X109176192Y-123308182D01*
X109446691Y-123390236D01*
X109657508Y-123411000D01*
X109798492Y-123411000D01*
X110009309Y-123390236D01*
X110279808Y-123308182D01*
X110529101Y-123174932D01*
X110747608Y-122995608D01*
X110926932Y-122777101D01*
X111060182Y-122527808D01*
X111142236Y-122257309D01*
X111169943Y-121976000D01*
X111142236Y-121694691D01*
X111060182Y-121424192D01*
X110926932Y-121174899D01*
X110747608Y-120956392D01*
X110529101Y-120777068D01*
X110279808Y-120643818D01*
X110009309Y-120561764D01*
X109798492Y-120541000D01*
X109657508Y-120541000D01*
X109446691Y-120561764D01*
X109176192Y-120643818D01*
X108926899Y-120777068D01*
X108708392Y-120956392D01*
X108529068Y-121174899D01*
X108395818Y-121424192D01*
X108313764Y-121694691D01*
X108286057Y-121976000D01*
X100710000Y-121976000D01*
X100710000Y-84040000D01*
X103907815Y-84040000D01*
X103936487Y-84331111D01*
X104021401Y-84611034D01*
X104159294Y-84869014D01*
X104344866Y-85095134D01*
X104570986Y-85280706D01*
X104625791Y-85310000D01*
X104570986Y-85339294D01*
X104344866Y-85524866D01*
X104159294Y-85750986D01*
X104021401Y-86008966D01*
X103936487Y-86288889D01*
X103907815Y-86580000D01*
X103936487Y-86871111D01*
X104021401Y-87151034D01*
X104159294Y-87409014D01*
X104344866Y-87635134D01*
X104570986Y-87820706D01*
X104828966Y-87958599D01*
X105108889Y-88043513D01*
X105227700Y-88055215D01*
X105227701Y-113101567D01*
X105224024Y-113138900D01*
X105238698Y-113287885D01*
X105282154Y-113431146D01*
X105352726Y-113563176D01*
X105409209Y-113632000D01*
X105447700Y-113678901D01*
X105476698Y-113702699D01*
X118434401Y-126660403D01*
X118458199Y-126689401D01*
X118487197Y-126713199D01*
X118573924Y-126784374D01*
X118705953Y-126854946D01*
X118849214Y-126898403D01*
X118998200Y-126913077D01*
X119035533Y-126909400D01*
X121219378Y-126909400D01*
X121256700Y-126913076D01*
X121294022Y-126909400D01*
X121294033Y-126909400D01*
X121405686Y-126898403D01*
X121548947Y-126854946D01*
X121680976Y-126784374D01*
X121796701Y-126689401D01*
X121820504Y-126660397D01*
X125883773Y-122597129D01*
X125935203Y-122659797D01*
X126163394Y-122847069D01*
X126196940Y-122865000D01*
X126163394Y-122882931D01*
X125935203Y-123070203D01*
X125747931Y-123298394D01*
X125608775Y-123558736D01*
X125523084Y-123841223D01*
X125494149Y-124135000D01*
X125523084Y-124428777D01*
X125608775Y-124711264D01*
X125747931Y-124971606D01*
X125935203Y-125199797D01*
X126163394Y-125387069D01*
X126423736Y-125526225D01*
X126706223Y-125611916D01*
X126926381Y-125633600D01*
X127073619Y-125633600D01*
X127293777Y-125611916D01*
X127576264Y-125526225D01*
X127836606Y-125387069D01*
X128064797Y-125199797D01*
X128252069Y-124971606D01*
X128270000Y-124938060D01*
X128287931Y-124971606D01*
X128475203Y-125199797D01*
X128703394Y-125387069D01*
X128963736Y-125526225D01*
X129246223Y-125611916D01*
X129466381Y-125633600D01*
X129613619Y-125633600D01*
X129833777Y-125611916D01*
X130116264Y-125526225D01*
X130376606Y-125387069D01*
X130463421Y-125315822D01*
X131014201Y-125866603D01*
X131037999Y-125895601D01*
X131153724Y-125990574D01*
X131285753Y-126061146D01*
X131429014Y-126104603D01*
X131540667Y-126115600D01*
X131540675Y-126115600D01*
X131578000Y-126119276D01*
X131615325Y-126115600D01*
X187014878Y-126115600D01*
X187052200Y-126119276D01*
X187089522Y-126115600D01*
X187089533Y-126115600D01*
X187201186Y-126104603D01*
X187344447Y-126061146D01*
X187476476Y-125990574D01*
X187592201Y-125895601D01*
X187616004Y-125866597D01*
X198031409Y-115451193D01*
X198060401Y-115427401D01*
X198084195Y-115398408D01*
X198084199Y-115398404D01*
X198142704Y-115327114D01*
X198155374Y-115311676D01*
X198225946Y-115179647D01*
X198269403Y-115036386D01*
X198280400Y-114924733D01*
X198280400Y-114924724D01*
X198284076Y-114887401D01*
X198280400Y-114850078D01*
X198280400Y-78795223D01*
X198284076Y-78757900D01*
X198280400Y-78720577D01*
X198280400Y-78720567D01*
X198269403Y-78608914D01*
X198225946Y-78465653D01*
X198194826Y-78407432D01*
X198155374Y-78333623D01*
X198084199Y-78246897D01*
X198060401Y-78217899D01*
X198031403Y-78194101D01*
X196659243Y-76821942D01*
X196778932Y-76676101D01*
X196912182Y-76426808D01*
X196994236Y-76156309D01*
X197021943Y-75875000D01*
X196994236Y-75593691D01*
X196912182Y-75323192D01*
X196778932Y-75073899D01*
X196599608Y-74855392D01*
X196381101Y-74676068D01*
X196131808Y-74542818D01*
X195861309Y-74460764D01*
X195650492Y-74440000D01*
X195509508Y-74440000D01*
X195298691Y-74460764D01*
X195028192Y-74542818D01*
X194778899Y-74676068D01*
X194572469Y-74845480D01*
X193704711Y-73977722D01*
X193781514Y-73936671D01*
X193853097Y-73692702D01*
X193040000Y-72879605D01*
X193025858Y-72893748D01*
X192846253Y-72714143D01*
X192860395Y-72700000D01*
X193219605Y-72700000D01*
X194032702Y-73513097D01*
X194276671Y-73441514D01*
X194290324Y-73412659D01*
X194425363Y-73614759D01*
X194625241Y-73814637D01*
X194860273Y-73971680D01*
X195121426Y-74079853D01*
X195398665Y-74135000D01*
X195681335Y-74135000D01*
X195958574Y-74079853D01*
X196219727Y-73971680D01*
X196454759Y-73814637D01*
X196654637Y-73614759D01*
X196811680Y-73379727D01*
X196919853Y-73118574D01*
X196975000Y-72841335D01*
X196975000Y-72558665D01*
X196919853Y-72281426D01*
X196811680Y-72020273D01*
X196654637Y-71785241D01*
X196454759Y-71585363D01*
X196219727Y-71428320D01*
X195958574Y-71320147D01*
X195681335Y-71265000D01*
X195398665Y-71265000D01*
X195121426Y-71320147D01*
X194860273Y-71428320D01*
X194625241Y-71585363D01*
X194425363Y-71785241D01*
X194291308Y-71985869D01*
X194276671Y-71958486D01*
X194032702Y-71886903D01*
X193219605Y-72700000D01*
X192860395Y-72700000D01*
X192047298Y-71886903D01*
X191803329Y-71958486D01*
X191765475Y-72038486D01*
X191434287Y-71707298D01*
X192226903Y-71707298D01*
X193040000Y-72520395D01*
X193853097Y-71707298D01*
X193781514Y-71463329D01*
X193526004Y-71342429D01*
X193251816Y-71273700D01*
X192969488Y-71259783D01*
X192689870Y-71301213D01*
X192423708Y-71396397D01*
X192298486Y-71463329D01*
X192226903Y-71707298D01*
X191434287Y-71707298D01*
X189893330Y-70166341D01*
X189864044Y-70130656D01*
X189721672Y-70013814D01*
X189559240Y-69926993D01*
X189382992Y-69873529D01*
X189245632Y-69860000D01*
X189199700Y-69855476D01*
X189153768Y-69860000D01*
X173809044Y-69860000D01*
X173739608Y-69775392D01*
X173521101Y-69596068D01*
X173271808Y-69462818D01*
X173001309Y-69380764D01*
X172790492Y-69360000D01*
X172649508Y-69360000D01*
X172438691Y-69380764D01*
X172168192Y-69462818D01*
X171918899Y-69596068D01*
X171712470Y-69765480D01*
X170858645Y-68911655D01*
X170961514Y-68856671D01*
X171033097Y-68612702D01*
X170220000Y-67799605D01*
X170205858Y-67813748D01*
X170026253Y-67634143D01*
X170040395Y-67620000D01*
X170026253Y-67605858D01*
X170205858Y-67426253D01*
X170220000Y-67440395D01*
X170234143Y-67426253D01*
X170413748Y-67605858D01*
X170399605Y-67620000D01*
X171212702Y-68433097D01*
X171456671Y-68361514D01*
X171470324Y-68332659D01*
X171605363Y-68534759D01*
X171805241Y-68734637D01*
X172040273Y-68891680D01*
X172301426Y-68999853D01*
X172578665Y-69055000D01*
X172861335Y-69055000D01*
X173138574Y-68999853D01*
X173399727Y-68891680D01*
X173634759Y-68734637D01*
X173834637Y-68534759D01*
X173991680Y-68299727D01*
X174099853Y-68038574D01*
X174155000Y-67761335D01*
X174155000Y-67478665D01*
X174099853Y-67201426D01*
X173991680Y-66940273D01*
X173871226Y-66760000D01*
X179011928Y-66760000D01*
X179011928Y-66850000D01*
X179024188Y-66974482D01*
X179060498Y-67094180D01*
X179119463Y-67204494D01*
X179198815Y-67301185D01*
X179295506Y-67380537D01*
X179405820Y-67439502D01*
X179525518Y-67475812D01*
X179650000Y-67488072D01*
X181350000Y-67488072D01*
X181474482Y-67475812D01*
X181594180Y-67439502D01*
X181704494Y-67380537D01*
X181801185Y-67301185D01*
X181880537Y-67204494D01*
X181939502Y-67094180D01*
X181960393Y-67025313D01*
X181984866Y-67055134D01*
X182210986Y-67240706D01*
X182468966Y-67378599D01*
X182748889Y-67463513D01*
X182967050Y-67485000D01*
X183112950Y-67485000D01*
X183331111Y-67463513D01*
X183611034Y-67378599D01*
X183869014Y-67240706D01*
X184095134Y-67055134D01*
X184280706Y-66829014D01*
X184310000Y-66774209D01*
X184339294Y-66829014D01*
X184524866Y-67055134D01*
X184750986Y-67240706D01*
X185008966Y-67378599D01*
X185288889Y-67463513D01*
X185507050Y-67485000D01*
X185652950Y-67485000D01*
X185871111Y-67463513D01*
X186151034Y-67378599D01*
X186409014Y-67240706D01*
X186635134Y-67055134D01*
X186820706Y-66829014D01*
X186958599Y-66571034D01*
X187043513Y-66291111D01*
X187072185Y-66000000D01*
X187043513Y-65708889D01*
X186958599Y-65428966D01*
X186820706Y-65170986D01*
X186635134Y-64944866D01*
X186409014Y-64759294D01*
X186151034Y-64621401D01*
X185871111Y-64536487D01*
X185652950Y-64515000D01*
X185507050Y-64515000D01*
X185288889Y-64536487D01*
X185008966Y-64621401D01*
X184750986Y-64759294D01*
X184524866Y-64944866D01*
X184339294Y-65170986D01*
X184310000Y-65225791D01*
X184280706Y-65170986D01*
X184095134Y-64944866D01*
X183869014Y-64759294D01*
X183611034Y-64621401D01*
X183331111Y-64536487D01*
X183112950Y-64515000D01*
X182967050Y-64515000D01*
X182748889Y-64536487D01*
X182468966Y-64621401D01*
X182210986Y-64759294D01*
X181984866Y-64944866D01*
X181960393Y-64974687D01*
X181939502Y-64905820D01*
X181880537Y-64795506D01*
X181801185Y-64698815D01*
X181704494Y-64619463D01*
X181594180Y-64560498D01*
X181474482Y-64524188D01*
X181350000Y-64511928D01*
X179650000Y-64511928D01*
X179525518Y-64524188D01*
X179405820Y-64560498D01*
X179295506Y-64619463D01*
X179198815Y-64698815D01*
X179119463Y-64795506D01*
X179060498Y-64905820D01*
X179024188Y-65025518D01*
X179011928Y-65150000D01*
X179011928Y-65240000D01*
X163622802Y-65240000D01*
X162209024Y-63826222D01*
X162369014Y-63740706D01*
X162595134Y-63555134D01*
X162780706Y-63329014D01*
X162810000Y-63274209D01*
X162839294Y-63329014D01*
X163024866Y-63555134D01*
X163250986Y-63740706D01*
X163508966Y-63878599D01*
X163788889Y-63963513D01*
X164007050Y-63985000D01*
X164152950Y-63985000D01*
X164371111Y-63963513D01*
X164651034Y-63878599D01*
X164909014Y-63740706D01*
X165135134Y-63555134D01*
X165320706Y-63329014D01*
X165350000Y-63274209D01*
X165379294Y-63329014D01*
X165564866Y-63555134D01*
X165790986Y-63740706D01*
X166048966Y-63878599D01*
X166328889Y-63963513D01*
X166547050Y-63985000D01*
X166692950Y-63985000D01*
X166911111Y-63963513D01*
X167191034Y-63878599D01*
X167449014Y-63740706D01*
X167528595Y-63675396D01*
X168039501Y-64186302D01*
X168063299Y-64215301D01*
X168092297Y-64239099D01*
X168179024Y-64310274D01*
X168311053Y-64380846D01*
X168454314Y-64424303D01*
X168603300Y-64438977D01*
X168640633Y-64435300D01*
X178112078Y-64435300D01*
X178149400Y-64438976D01*
X178186722Y-64435300D01*
X178186733Y-64435300D01*
X178298386Y-64424303D01*
X178441647Y-64380846D01*
X178573676Y-64310274D01*
X178610720Y-64279872D01*
X192265000Y-64279872D01*
X192265000Y-64720128D01*
X192350890Y-65151925D01*
X192519369Y-65558669D01*
X192763962Y-65924729D01*
X193075271Y-66236038D01*
X193441331Y-66480631D01*
X193848075Y-66649110D01*
X194279872Y-66735000D01*
X194720128Y-66735000D01*
X195151925Y-66649110D01*
X195558669Y-66480631D01*
X195924729Y-66236038D01*
X196236038Y-65924729D01*
X196480631Y-65558669D01*
X196649110Y-65151925D01*
X196735000Y-64720128D01*
X196735000Y-64279872D01*
X196649110Y-63848075D01*
X196480631Y-63441331D01*
X196236038Y-63075271D01*
X195924729Y-62763962D01*
X195558669Y-62519369D01*
X195151925Y-62350890D01*
X194720128Y-62265000D01*
X194279872Y-62265000D01*
X193848075Y-62350890D01*
X193441331Y-62519369D01*
X193075271Y-62763962D01*
X192763962Y-63075271D01*
X192519369Y-63441331D01*
X192350890Y-63848075D01*
X192265000Y-64279872D01*
X178610720Y-64279872D01*
X178689401Y-64215301D01*
X178713204Y-64186297D01*
X179153515Y-63745986D01*
X179198815Y-63801185D01*
X179295506Y-63880537D01*
X179405820Y-63939502D01*
X179525518Y-63975812D01*
X179650000Y-63988072D01*
X181350000Y-63988072D01*
X181474482Y-63975812D01*
X181594180Y-63939502D01*
X181704494Y-63880537D01*
X181801185Y-63801185D01*
X181880537Y-63704494D01*
X181939502Y-63594180D01*
X181960393Y-63525313D01*
X181984866Y-63555134D01*
X182210986Y-63740706D01*
X182468966Y-63878599D01*
X182748889Y-63963513D01*
X182967050Y-63985000D01*
X183112950Y-63985000D01*
X183331111Y-63963513D01*
X183611034Y-63878599D01*
X183869014Y-63740706D01*
X184095134Y-63555134D01*
X184280706Y-63329014D01*
X184310000Y-63274209D01*
X184339294Y-63329014D01*
X184524866Y-63555134D01*
X184750986Y-63740706D01*
X185008966Y-63878599D01*
X185288889Y-63963513D01*
X185507050Y-63985000D01*
X185652950Y-63985000D01*
X185871111Y-63963513D01*
X186151034Y-63878599D01*
X186409014Y-63740706D01*
X186635134Y-63555134D01*
X186820706Y-63329014D01*
X186958599Y-63071034D01*
X187043513Y-62791111D01*
X187072185Y-62500000D01*
X187043513Y-62208889D01*
X186958599Y-61928966D01*
X186820706Y-61670986D01*
X186635134Y-61444866D01*
X186409014Y-61259294D01*
X186151034Y-61121401D01*
X185871111Y-61036487D01*
X185652950Y-61015000D01*
X185507050Y-61015000D01*
X185288889Y-61036487D01*
X185008966Y-61121401D01*
X184750986Y-61259294D01*
X184524866Y-61444866D01*
X184339294Y-61670986D01*
X184310000Y-61725791D01*
X184280706Y-61670986D01*
X184095134Y-61444866D01*
X183869014Y-61259294D01*
X183611034Y-61121401D01*
X183331111Y-61036487D01*
X183112950Y-61015000D01*
X182967050Y-61015000D01*
X182748889Y-61036487D01*
X182468966Y-61121401D01*
X182210986Y-61259294D01*
X181984866Y-61444866D01*
X181960393Y-61474687D01*
X181939502Y-61405820D01*
X181880537Y-61295506D01*
X181801185Y-61198815D01*
X181704494Y-61119463D01*
X181594180Y-61060498D01*
X181474482Y-61024188D01*
X181350000Y-61011928D01*
X179650000Y-61011928D01*
X179525518Y-61024188D01*
X179405820Y-61060498D01*
X179295506Y-61119463D01*
X179198815Y-61198815D01*
X179119463Y-61295506D01*
X179060498Y-61405820D01*
X179024188Y-61525518D01*
X179011928Y-61650000D01*
X179011928Y-61805425D01*
X178900424Y-61865026D01*
X178784699Y-61959999D01*
X178760901Y-61988997D01*
X177834599Y-62915300D01*
X170585841Y-62915300D01*
X170623513Y-62791111D01*
X170652185Y-62500000D01*
X170623513Y-62208889D01*
X170538599Y-61928966D01*
X170400706Y-61670986D01*
X170215134Y-61444866D01*
X169989014Y-61259294D01*
X169731034Y-61121401D01*
X169451111Y-61036487D01*
X169232950Y-61015000D01*
X169087050Y-61015000D01*
X168868889Y-61036487D01*
X168588966Y-61121401D01*
X168330986Y-61259294D01*
X168104866Y-61444866D01*
X167919294Y-61670986D01*
X167890000Y-61725791D01*
X167860706Y-61670986D01*
X167675134Y-61444866D01*
X167449014Y-61259294D01*
X167191034Y-61121401D01*
X166911111Y-61036487D01*
X166692950Y-61015000D01*
X166547050Y-61015000D01*
X166328889Y-61036487D01*
X166048966Y-61121401D01*
X165790986Y-61259294D01*
X165564866Y-61444866D01*
X165379294Y-61670986D01*
X165350000Y-61725791D01*
X165320706Y-61670986D01*
X165135134Y-61444866D01*
X164909014Y-61259294D01*
X164651034Y-61121401D01*
X164371111Y-61036487D01*
X164152950Y-61015000D01*
X164007050Y-61015000D01*
X163788889Y-61036487D01*
X163508966Y-61121401D01*
X163250986Y-61259294D01*
X163024866Y-61444866D01*
X162839294Y-61670986D01*
X162810000Y-61725791D01*
X162780706Y-61670986D01*
X162595134Y-61444866D01*
X162369014Y-61259294D01*
X162111034Y-61121401D01*
X161831111Y-61036487D01*
X161612950Y-61015000D01*
X161467050Y-61015000D01*
X161248889Y-61036487D01*
X160968966Y-61121401D01*
X160710986Y-61259294D01*
X160484866Y-61444866D01*
X160460393Y-61474687D01*
X160439502Y-61405820D01*
X160380537Y-61295506D01*
X160301185Y-61198815D01*
X160204494Y-61119463D01*
X160094180Y-61060498D01*
X159974482Y-61024188D01*
X159850000Y-61011928D01*
X158150000Y-61011928D01*
X158025518Y-61024188D01*
X157905820Y-61060498D01*
X157795506Y-61119463D01*
X157698815Y-61198815D01*
X157619463Y-61295506D01*
X157560498Y-61405820D01*
X157524188Y-61525518D01*
X157511928Y-61650000D01*
X157511928Y-63350000D01*
X157524188Y-63474482D01*
X157560498Y-63594180D01*
X157619463Y-63704494D01*
X157698815Y-63801185D01*
X157795506Y-63880537D01*
X157905820Y-63939502D01*
X158025518Y-63975812D01*
X158150000Y-63988072D01*
X159850000Y-63988072D01*
X159974482Y-63975812D01*
X160094180Y-63939502D01*
X160145350Y-63912151D01*
X162744201Y-66511003D01*
X162767999Y-66540001D01*
X162883724Y-66634974D01*
X163015753Y-66705546D01*
X163159014Y-66749003D01*
X163270667Y-66760000D01*
X163270677Y-66760000D01*
X163308000Y-66763676D01*
X163345323Y-66760000D01*
X169180393Y-66760000D01*
X169227296Y-66806903D01*
X168983329Y-66878486D01*
X168862429Y-67133996D01*
X168793700Y-67408184D01*
X168779783Y-67690512D01*
X168821213Y-67970130D01*
X168916397Y-68236292D01*
X168983329Y-68361514D01*
X169227296Y-68433097D01*
X169111023Y-68549370D01*
X169121253Y-68559600D01*
X148886631Y-68559600D01*
X148840699Y-68555076D01*
X148700426Y-68568892D01*
X148657408Y-68573129D01*
X148601792Y-68590000D01*
X148599044Y-68590000D01*
X148529608Y-68505392D01*
X148311101Y-68326068D01*
X148061808Y-68192818D01*
X147791309Y-68110764D01*
X147580492Y-68090000D01*
X147439508Y-68090000D01*
X147228691Y-68110764D01*
X146958192Y-68192818D01*
X146708899Y-68326068D01*
X146490392Y-68505392D01*
X146311068Y-68723899D01*
X146177818Y-68973192D01*
X146095764Y-69243691D01*
X146068057Y-69525000D01*
X146095764Y-69806309D01*
X146177818Y-70076808D01*
X146311068Y-70326101D01*
X146490392Y-70544608D01*
X146708899Y-70723932D01*
X146841858Y-70795000D01*
X146708899Y-70866068D01*
X146490392Y-71045392D01*
X146311068Y-71263899D01*
X146177818Y-71513192D01*
X146095764Y-71783691D01*
X146068057Y-72065000D01*
X146095764Y-72346309D01*
X146165136Y-72575000D01*
X141234864Y-72575000D01*
X141304236Y-72346309D01*
X141331943Y-72065000D01*
X141304236Y-71783691D01*
X141222182Y-71513192D01*
X141088932Y-71263899D01*
X140909608Y-71045392D01*
X140796518Y-70952581D01*
X140814482Y-70950812D01*
X140934180Y-70914502D01*
X141044494Y-70855537D01*
X141141185Y-70776185D01*
X141220537Y-70679494D01*
X141279502Y-70569180D01*
X141315812Y-70449482D01*
X141328072Y-70325000D01*
X141328072Y-68725000D01*
X141315812Y-68600518D01*
X141279502Y-68480820D01*
X141220537Y-68370506D01*
X141141185Y-68273815D01*
X141044494Y-68194463D01*
X140934180Y-68135498D01*
X140814482Y-68099188D01*
X140690000Y-68086928D01*
X139090000Y-68086928D01*
X138965518Y-68099188D01*
X138845820Y-68135498D01*
X138735506Y-68194463D01*
X138638815Y-68273815D01*
X138559463Y-68370506D01*
X138500498Y-68480820D01*
X138464188Y-68600518D01*
X138451928Y-68725000D01*
X138451928Y-70325000D01*
X138464188Y-70449482D01*
X138500498Y-70569180D01*
X138559463Y-70679494D01*
X138638815Y-70776185D01*
X138735506Y-70855537D01*
X138845820Y-70914502D01*
X138965518Y-70950812D01*
X138983482Y-70952581D01*
X138870392Y-71045392D01*
X138691068Y-71263899D01*
X138557818Y-71513192D01*
X138475764Y-71783691D01*
X138448057Y-72065000D01*
X138475764Y-72346309D01*
X138545136Y-72575000D01*
X134142126Y-72575000D01*
X134192236Y-72409809D01*
X134219943Y-72128500D01*
X134192236Y-71847191D01*
X134110182Y-71576692D01*
X133976932Y-71327399D01*
X133797608Y-71108892D01*
X133579101Y-70929568D01*
X133446142Y-70858500D01*
X133579101Y-70787432D01*
X133797608Y-70608108D01*
X133976932Y-70389601D01*
X134110182Y-70140308D01*
X134192236Y-69869809D01*
X134219943Y-69588500D01*
X134192236Y-69307191D01*
X134110182Y-69036692D01*
X133976932Y-68787399D01*
X133797608Y-68568892D01*
X133579101Y-68389568D01*
X133329808Y-68256318D01*
X133059309Y-68174264D01*
X132848492Y-68153500D01*
X132707508Y-68153500D01*
X132496691Y-68174264D01*
X132226192Y-68256318D01*
X131976899Y-68389568D01*
X131770469Y-68558980D01*
X130871030Y-67659541D01*
X130841744Y-67623856D01*
X130699372Y-67507014D01*
X130536940Y-67420193D01*
X130360692Y-67366729D01*
X130223332Y-67353200D01*
X130177400Y-67348676D01*
X130131468Y-67353200D01*
X118256624Y-67353200D01*
X118069727Y-67228320D01*
X117808574Y-67120147D01*
X117531335Y-67065000D01*
X117248665Y-67065000D01*
X116971426Y-67120147D01*
X116710273Y-67228320D01*
X116475241Y-67385363D01*
X116275363Y-67585241D01*
X116141308Y-67785869D01*
X116126671Y-67758486D01*
X115882702Y-67686903D01*
X115069605Y-68500000D01*
X115882702Y-69313097D01*
X116126671Y-69241514D01*
X116140324Y-69212659D01*
X116275363Y-69414759D01*
X116475241Y-69614637D01*
X116710273Y-69771680D01*
X116971426Y-69879853D01*
X117248665Y-69935000D01*
X117531335Y-69935000D01*
X117808574Y-69879853D01*
X118069727Y-69771680D01*
X118304759Y-69614637D01*
X118504637Y-69414759D01*
X118632632Y-69223200D01*
X123719928Y-69223200D01*
X123719928Y-70388500D01*
X123732188Y-70512982D01*
X123768498Y-70632680D01*
X123827463Y-70742994D01*
X123906815Y-70839685D01*
X124003506Y-70919037D01*
X124113820Y-70978002D01*
X124233518Y-71014312D01*
X124251482Y-71016081D01*
X124138392Y-71108892D01*
X123959068Y-71327399D01*
X123825818Y-71576692D01*
X123743764Y-71847191D01*
X123716057Y-72128500D01*
X123743764Y-72409809D01*
X123825818Y-72680308D01*
X123959068Y-72929601D01*
X124138392Y-73148108D01*
X124356899Y-73327432D01*
X124489858Y-73398500D01*
X124356899Y-73469568D01*
X124138392Y-73648892D01*
X123959068Y-73867399D01*
X123825818Y-74116692D01*
X123743764Y-74387191D01*
X123716057Y-74668500D01*
X123743764Y-74949809D01*
X123825818Y-75220308D01*
X123959068Y-75469601D01*
X124138392Y-75688108D01*
X124356899Y-75867432D01*
X124489858Y-75938500D01*
X124356899Y-76009568D01*
X124138392Y-76188892D01*
X123959068Y-76407399D01*
X123825818Y-76656692D01*
X123743764Y-76927191D01*
X123716057Y-77208500D01*
X123743764Y-77489809D01*
X123769970Y-77576200D01*
X118163799Y-77576200D01*
X118182182Y-77541808D01*
X118264236Y-77271309D01*
X118291943Y-76990000D01*
X118264236Y-76708691D01*
X118182182Y-76438192D01*
X118048932Y-76188899D01*
X117869608Y-75970392D01*
X117651101Y-75791068D01*
X117513318Y-75717421D01*
X117705131Y-75602385D01*
X117913519Y-75413414D01*
X118081037Y-75187420D01*
X118201246Y-74933087D01*
X118241904Y-74799039D01*
X118119915Y-74577000D01*
X116977000Y-74577000D01*
X116977000Y-74597000D01*
X116723000Y-74597000D01*
X116723000Y-74577000D01*
X115580085Y-74577000D01*
X115458096Y-74799039D01*
X115498754Y-74933087D01*
X115618963Y-75187420D01*
X115786481Y-75413414D01*
X115994869Y-75602385D01*
X116186682Y-75717421D01*
X116048899Y-75791068D01*
X115830392Y-75970392D01*
X115651068Y-76188899D01*
X115625861Y-76236058D01*
X115575714Y-76240997D01*
X115432453Y-76284454D01*
X115300424Y-76355026D01*
X115184699Y-76449999D01*
X115089726Y-76565724D01*
X115019154Y-76697753D01*
X114975697Y-76841014D01*
X114964281Y-76956917D01*
X110506737Y-81414462D01*
X110428932Y-81268899D01*
X110249608Y-81050392D01*
X110031101Y-80871068D01*
X109898142Y-80800000D01*
X110031101Y-80728932D01*
X110249608Y-80549608D01*
X110428932Y-80331101D01*
X110562182Y-80081808D01*
X110644236Y-79811309D01*
X110671943Y-79530000D01*
X110644236Y-79248691D01*
X110562182Y-78978192D01*
X110428932Y-78728899D01*
X110249608Y-78510392D01*
X110031101Y-78331068D01*
X109898142Y-78260000D01*
X110031101Y-78188932D01*
X110249608Y-78009608D01*
X110428932Y-77791101D01*
X110562182Y-77541808D01*
X110644236Y-77271309D01*
X110671943Y-76990000D01*
X110644236Y-76708691D01*
X110562182Y-76438192D01*
X110428932Y-76188899D01*
X110249608Y-75970392D01*
X110031101Y-75791068D01*
X109898142Y-75720000D01*
X110031101Y-75648932D01*
X110249608Y-75469608D01*
X110428932Y-75251101D01*
X110562182Y-75001808D01*
X110644236Y-74731309D01*
X110671943Y-74450000D01*
X110644236Y-74168691D01*
X110562182Y-73898192D01*
X110428932Y-73648899D01*
X110249608Y-73430392D01*
X110136518Y-73337581D01*
X110154482Y-73335812D01*
X110274180Y-73299502D01*
X110384494Y-73240537D01*
X110481185Y-73161185D01*
X110560537Y-73064494D01*
X110619502Y-72954180D01*
X110655812Y-72834482D01*
X110668072Y-72710000D01*
X110668072Y-71910000D01*
X115408057Y-71910000D01*
X115435764Y-72191309D01*
X115517818Y-72461808D01*
X115651068Y-72711101D01*
X115830392Y-72929608D01*
X116048899Y-73108932D01*
X116186682Y-73182579D01*
X115994869Y-73297615D01*
X115786481Y-73486586D01*
X115618963Y-73712580D01*
X115498754Y-73966913D01*
X115458096Y-74100961D01*
X115580085Y-74323000D01*
X116723000Y-74323000D01*
X116723000Y-74303000D01*
X116977000Y-74303000D01*
X116977000Y-74323000D01*
X118119915Y-74323000D01*
X118241904Y-74100961D01*
X118201246Y-73966913D01*
X118081037Y-73712580D01*
X117913519Y-73486586D01*
X117705131Y-73297615D01*
X117513318Y-73182579D01*
X117651101Y-73108932D01*
X117869608Y-72929608D01*
X118048932Y-72711101D01*
X118182182Y-72461808D01*
X118264236Y-72191309D01*
X118291943Y-71910000D01*
X118264236Y-71628691D01*
X118182182Y-71358192D01*
X118048932Y-71108899D01*
X117869608Y-70890392D01*
X117651101Y-70711068D01*
X117401808Y-70577818D01*
X117131309Y-70495764D01*
X116920492Y-70475000D01*
X116779508Y-70475000D01*
X116568691Y-70495764D01*
X116298192Y-70577818D01*
X116048899Y-70711068D01*
X115830392Y-70890392D01*
X115651068Y-71108899D01*
X115517818Y-71358192D01*
X115435764Y-71628691D01*
X115408057Y-71910000D01*
X110668072Y-71910000D01*
X110668072Y-71110000D01*
X110655812Y-70985518D01*
X110619502Y-70865820D01*
X110560537Y-70755506D01*
X110481185Y-70658815D01*
X110384494Y-70579463D01*
X110274180Y-70520498D01*
X110154482Y-70484188D01*
X110030000Y-70471928D01*
X108430000Y-70471928D01*
X108305518Y-70484188D01*
X108185820Y-70520498D01*
X108075506Y-70579463D01*
X107978815Y-70658815D01*
X107899463Y-70755506D01*
X107840498Y-70865820D01*
X107804188Y-70985518D01*
X107791928Y-71110000D01*
X107791928Y-72710000D01*
X107804188Y-72834482D01*
X107840498Y-72954180D01*
X107899463Y-73064494D01*
X107978815Y-73161185D01*
X108075506Y-73240537D01*
X108185820Y-73299502D01*
X108305518Y-73335812D01*
X108323482Y-73337581D01*
X108210392Y-73430392D01*
X108031068Y-73648899D01*
X107897818Y-73898192D01*
X107815764Y-74168691D01*
X107788057Y-74450000D01*
X107815764Y-74731309D01*
X107897818Y-75001808D01*
X108031068Y-75251101D01*
X108210392Y-75469608D01*
X108428899Y-75648932D01*
X108561858Y-75720000D01*
X108428899Y-75791068D01*
X108210392Y-75970392D01*
X108031068Y-76188899D01*
X107897818Y-76438192D01*
X107815764Y-76708691D01*
X107788057Y-76990000D01*
X107815764Y-77271309D01*
X107897818Y-77541808D01*
X108031068Y-77791101D01*
X108210392Y-78009608D01*
X108428899Y-78188932D01*
X108561858Y-78260000D01*
X108428899Y-78331068D01*
X108210392Y-78510392D01*
X108031068Y-78728899D01*
X107897818Y-78978192D01*
X107815764Y-79248691D01*
X107788057Y-79530000D01*
X107815764Y-79811309D01*
X107897818Y-80081808D01*
X108031068Y-80331101D01*
X108210392Y-80549608D01*
X108428899Y-80728932D01*
X108561858Y-80800000D01*
X108428899Y-80871068D01*
X108210392Y-81050392D01*
X108031068Y-81268899D01*
X107897818Y-81518192D01*
X107815764Y-81788691D01*
X107788057Y-82070000D01*
X107815764Y-82351309D01*
X107897818Y-82621808D01*
X107903052Y-82631600D01*
X107261022Y-82631600D01*
X107223699Y-82627924D01*
X107186376Y-82631600D01*
X107186367Y-82631600D01*
X107074714Y-82642597D01*
X106931453Y-82686054D01*
X106799423Y-82756626D01*
X106723417Y-82819003D01*
X106683699Y-82851599D01*
X106659900Y-82880598D01*
X106500434Y-83040064D01*
X106455134Y-82984866D01*
X106425313Y-82960393D01*
X106494180Y-82939502D01*
X106604494Y-82880537D01*
X106701185Y-82801185D01*
X106780537Y-82704494D01*
X106839502Y-82594180D01*
X106875812Y-82474482D01*
X106888072Y-82350000D01*
X106885000Y-81785750D01*
X106726250Y-81627000D01*
X105527000Y-81627000D01*
X105527000Y-81647000D01*
X105273000Y-81647000D01*
X105273000Y-81627000D01*
X104073750Y-81627000D01*
X103915000Y-81785750D01*
X103911928Y-82350000D01*
X103924188Y-82474482D01*
X103960498Y-82594180D01*
X104019463Y-82704494D01*
X104098815Y-82801185D01*
X104195506Y-82880537D01*
X104305820Y-82939502D01*
X104374687Y-82960393D01*
X104344866Y-82984866D01*
X104159294Y-83210986D01*
X104021401Y-83468966D01*
X103936487Y-83748889D01*
X103907815Y-84040000D01*
X100710000Y-84040000D01*
X100710000Y-80650000D01*
X103911928Y-80650000D01*
X103915000Y-81214250D01*
X104073750Y-81373000D01*
X105273000Y-81373000D01*
X105273000Y-80173750D01*
X105527000Y-80173750D01*
X105527000Y-81373000D01*
X106726250Y-81373000D01*
X106885000Y-81214250D01*
X106888072Y-80650000D01*
X106875812Y-80525518D01*
X106839502Y-80405820D01*
X106780537Y-80295506D01*
X106701185Y-80198815D01*
X106604494Y-80119463D01*
X106494180Y-80060498D01*
X106374482Y-80024188D01*
X106250000Y-80011928D01*
X105685750Y-80015000D01*
X105527000Y-80173750D01*
X105273000Y-80173750D01*
X105114250Y-80015000D01*
X104550000Y-80011928D01*
X104425518Y-80024188D01*
X104305820Y-80060498D01*
X104195506Y-80119463D01*
X104098815Y-80198815D01*
X104019463Y-80295506D01*
X103960498Y-80405820D01*
X103924188Y-80525518D01*
X103911928Y-80650000D01*
X100710000Y-80650000D01*
X100710000Y-69492702D01*
X114076903Y-69492702D01*
X114148486Y-69736671D01*
X114403996Y-69857571D01*
X114678184Y-69926300D01*
X114960512Y-69940217D01*
X115240130Y-69898787D01*
X115506292Y-69803603D01*
X115631514Y-69736671D01*
X115703097Y-69492702D01*
X114890000Y-68679605D01*
X114076903Y-69492702D01*
X100710000Y-69492702D01*
X100710000Y-68570512D01*
X113449783Y-68570512D01*
X113491213Y-68850130D01*
X113586397Y-69116292D01*
X113653329Y-69241514D01*
X113897298Y-69313097D01*
X114710395Y-68500000D01*
X113897298Y-67686903D01*
X113653329Y-67758486D01*
X113532429Y-68013996D01*
X113463700Y-68288184D01*
X113449783Y-68570512D01*
X100710000Y-68570512D01*
X100710000Y-67507298D01*
X114076903Y-67507298D01*
X114890000Y-68320395D01*
X115703097Y-67507298D01*
X115631514Y-67263329D01*
X115376004Y-67142429D01*
X115101816Y-67073700D01*
X114819488Y-67059783D01*
X114539870Y-67101213D01*
X114273708Y-67196397D01*
X114148486Y-67263329D01*
X114076903Y-67507298D01*
X100710000Y-67507298D01*
X100710000Y-66771202D01*
X129782903Y-66771202D01*
X129854486Y-67015171D01*
X130109996Y-67136071D01*
X130384184Y-67204800D01*
X130666512Y-67218717D01*
X130946130Y-67177287D01*
X131212292Y-67082103D01*
X131337514Y-67015171D01*
X131409097Y-66771202D01*
X130596000Y-65958105D01*
X129782903Y-66771202D01*
X100710000Y-66771202D01*
X100710000Y-64279872D01*
X103265000Y-64279872D01*
X103265000Y-64720128D01*
X103350890Y-65151925D01*
X103519369Y-65558669D01*
X103763962Y-65924729D01*
X104075271Y-66236038D01*
X104441331Y-66480631D01*
X104848075Y-66649110D01*
X105279872Y-66735000D01*
X105720128Y-66735000D01*
X106151925Y-66649110D01*
X106558669Y-66480631D01*
X106924729Y-66236038D01*
X107236038Y-65924729D01*
X107286630Y-65849012D01*
X129155783Y-65849012D01*
X129197213Y-66128630D01*
X129292397Y-66394792D01*
X129359329Y-66520014D01*
X129603298Y-66591597D01*
X130416395Y-65778500D01*
X130775605Y-65778500D01*
X131588702Y-66591597D01*
X131832671Y-66520014D01*
X131846324Y-66491159D01*
X131981363Y-66693259D01*
X132181241Y-66893137D01*
X132416273Y-67050180D01*
X132677426Y-67158353D01*
X132954665Y-67213500D01*
X133237335Y-67213500D01*
X133514574Y-67158353D01*
X133775727Y-67050180D01*
X133876715Y-66982702D01*
X144606903Y-66982702D01*
X144678486Y-67226671D01*
X144933996Y-67347571D01*
X145208184Y-67416300D01*
X145490512Y-67430217D01*
X145770130Y-67388787D01*
X146036292Y-67293603D01*
X146161514Y-67226671D01*
X146233097Y-66982702D01*
X145420000Y-66169605D01*
X144606903Y-66982702D01*
X133876715Y-66982702D01*
X134010759Y-66893137D01*
X134210637Y-66693259D01*
X134367680Y-66458227D01*
X134475853Y-66197074D01*
X134503017Y-66060512D01*
X143979783Y-66060512D01*
X144021213Y-66340130D01*
X144116397Y-66606292D01*
X144183329Y-66731514D01*
X144427298Y-66803097D01*
X145240395Y-65990000D01*
X145599605Y-65990000D01*
X146412702Y-66803097D01*
X146656671Y-66731514D01*
X146670324Y-66702659D01*
X146805363Y-66904759D01*
X147005241Y-67104637D01*
X147240273Y-67261680D01*
X147501426Y-67369853D01*
X147778665Y-67425000D01*
X148061335Y-67425000D01*
X148338574Y-67369853D01*
X148599727Y-67261680D01*
X148834759Y-67104637D01*
X149034637Y-66904759D01*
X149191680Y-66669727D01*
X149299853Y-66408574D01*
X149355000Y-66131335D01*
X149355000Y-65848665D01*
X149299853Y-65571426D01*
X149191680Y-65310273D01*
X149034637Y-65075241D01*
X148834759Y-64875363D01*
X148599727Y-64718320D01*
X148338574Y-64610147D01*
X148061335Y-64555000D01*
X147778665Y-64555000D01*
X147501426Y-64610147D01*
X147240273Y-64718320D01*
X147005241Y-64875363D01*
X146805363Y-65075241D01*
X146671308Y-65275869D01*
X146656671Y-65248486D01*
X146412702Y-65176903D01*
X145599605Y-65990000D01*
X145240395Y-65990000D01*
X144427298Y-65176903D01*
X144183329Y-65248486D01*
X144062429Y-65503996D01*
X143993700Y-65778184D01*
X143979783Y-66060512D01*
X134503017Y-66060512D01*
X134531000Y-65919835D01*
X134531000Y-65637165D01*
X134475853Y-65359926D01*
X134367680Y-65098773D01*
X134299877Y-64997298D01*
X144606903Y-64997298D01*
X145420000Y-65810395D01*
X146233097Y-64997298D01*
X146161514Y-64753329D01*
X145906004Y-64632429D01*
X145631816Y-64563700D01*
X145349488Y-64549783D01*
X145069870Y-64591213D01*
X144803708Y-64686397D01*
X144678486Y-64753329D01*
X144606903Y-64997298D01*
X134299877Y-64997298D01*
X134210637Y-64863741D01*
X134010759Y-64663863D01*
X133775727Y-64506820D01*
X133514574Y-64398647D01*
X133237335Y-64343500D01*
X132954665Y-64343500D01*
X132677426Y-64398647D01*
X132416273Y-64506820D01*
X132181241Y-64663863D01*
X131981363Y-64863741D01*
X131847308Y-65064369D01*
X131832671Y-65036986D01*
X131588702Y-64965403D01*
X130775605Y-65778500D01*
X130416395Y-65778500D01*
X129603298Y-64965403D01*
X129359329Y-65036986D01*
X129238429Y-65292496D01*
X129169700Y-65566684D01*
X129155783Y-65849012D01*
X107286630Y-65849012D01*
X107480631Y-65558669D01*
X107649110Y-65151925D01*
X107721937Y-64785798D01*
X129782903Y-64785798D01*
X130596000Y-65598895D01*
X131409097Y-64785798D01*
X131337514Y-64541829D01*
X131082004Y-64420929D01*
X130807816Y-64352200D01*
X130525488Y-64338283D01*
X130245870Y-64379713D01*
X129979708Y-64474897D01*
X129854486Y-64541829D01*
X129782903Y-64785798D01*
X107721937Y-64785798D01*
X107735000Y-64720128D01*
X107735000Y-64279872D01*
X107649110Y-63848075D01*
X107480631Y-63441331D01*
X107236038Y-63075271D01*
X106924729Y-62763962D01*
X106558669Y-62519369D01*
X106151925Y-62350890D01*
X105720128Y-62265000D01*
X105279872Y-62265000D01*
X104848075Y-62350890D01*
X104441331Y-62519369D01*
X104075271Y-62763962D01*
X103763962Y-63075271D01*
X103519369Y-63441331D01*
X103350890Y-63848075D01*
X103265000Y-64279872D01*
X100710000Y-64279872D01*
X100710000Y-60710000D01*
X199290000Y-60710000D01*
X199290001Y-134290000D01*
G36*
X131325068Y-96678601D02*
G01*
X131504392Y-96897108D01*
X131722899Y-97076432D01*
X131855858Y-97147500D01*
X131722899Y-97218568D01*
X131504392Y-97397892D01*
X131325068Y-97616399D01*
X131191818Y-97865692D01*
X131109764Y-98136191D01*
X131082057Y-98417500D01*
X131109764Y-98698809D01*
X131191818Y-98969308D01*
X131325068Y-99218601D01*
X131504392Y-99437108D01*
X131722899Y-99616432D01*
X131855858Y-99687500D01*
X131722899Y-99758568D01*
X131504392Y-99937892D01*
X131325068Y-100156399D01*
X131191818Y-100405692D01*
X131109764Y-100676191D01*
X131082057Y-100957500D01*
X131109764Y-101238809D01*
X131191818Y-101509308D01*
X131325068Y-101758601D01*
X131504392Y-101977108D01*
X131722899Y-102156432D01*
X131855858Y-102227500D01*
X131722899Y-102298568D01*
X131504392Y-102477892D01*
X131325068Y-102696399D01*
X131191818Y-102945692D01*
X131109764Y-103216191D01*
X131082057Y-103497500D01*
X131109764Y-103778809D01*
X131191818Y-104049308D01*
X131325068Y-104298601D01*
X131504392Y-104517108D01*
X131722899Y-104696432D01*
X131855858Y-104767500D01*
X131722899Y-104838568D01*
X131504392Y-105017892D01*
X131325068Y-105236399D01*
X131191818Y-105485692D01*
X131109764Y-105756191D01*
X131082057Y-106037500D01*
X131109764Y-106318809D01*
X131191818Y-106589308D01*
X131325068Y-106838601D01*
X131400357Y-106930341D01*
X127677903Y-110652796D01*
X127648899Y-110676599D01*
X127614102Y-110719000D01*
X127553926Y-110792324D01*
X127512154Y-110870474D01*
X127483354Y-110924354D01*
X127439897Y-111067615D01*
X127428900Y-111179268D01*
X127428900Y-111179278D01*
X127425224Y-111216600D01*
X127428900Y-111253922D01*
X127428901Y-120159073D01*
X127293777Y-120118084D01*
X127073619Y-120096400D01*
X126926381Y-120096400D01*
X126706223Y-120118084D01*
X126423736Y-120203775D01*
X126163394Y-120342931D01*
X125935203Y-120530203D01*
X125747931Y-120758394D01*
X125703273Y-120841943D01*
X125662114Y-120845997D01*
X125518853Y-120889454D01*
X125386824Y-120960026D01*
X125271099Y-121054999D01*
X125247301Y-121083997D01*
X121323000Y-125008299D01*
X121323000Y-124882665D01*
X121267853Y-124605426D01*
X121159680Y-124344273D01*
X121002637Y-124109241D01*
X120823000Y-123929604D01*
X120823000Y-123070396D01*
X121002637Y-122890759D01*
X121159680Y-122655727D01*
X121267853Y-122394574D01*
X121323000Y-122117335D01*
X121323000Y-121834665D01*
X121267853Y-121557426D01*
X121159680Y-121296273D01*
X121002637Y-121061241D01*
X120802759Y-120861363D01*
X120567727Y-120704320D01*
X120306574Y-120596147D01*
X120029335Y-120541000D01*
X119775290Y-120541000D01*
X118049587Y-118815297D01*
X118208967Y-118847000D01*
X118531033Y-118847000D01*
X118846912Y-118784168D01*
X119144463Y-118660918D01*
X119412252Y-118481987D01*
X119639987Y-118254252D01*
X119818918Y-117986463D01*
X119942168Y-117688912D01*
X120005000Y-117373033D01*
X120005000Y-117050967D01*
X119942168Y-116735088D01*
X119818918Y-116437537D01*
X119678370Y-116227191D01*
X119724494Y-116202537D01*
X119821185Y-116123185D01*
X119900537Y-116026494D01*
X119959502Y-115916180D01*
X119995812Y-115796482D01*
X120008072Y-115672000D01*
X120008072Y-113672000D01*
X119995812Y-113547518D01*
X119959502Y-113427820D01*
X119900537Y-113317506D01*
X119821185Y-113220815D01*
X119724494Y-113141463D01*
X119675973Y-113115528D01*
X122552101Y-110239401D01*
X122552101Y-110711467D01*
X122548424Y-110748800D01*
X122552101Y-110786133D01*
X122563098Y-110897786D01*
X122573626Y-110932492D01*
X122606554Y-111041046D01*
X122677126Y-111173076D01*
X122748301Y-111259802D01*
X122772100Y-111288801D01*
X122801098Y-111312599D01*
X124601476Y-113112977D01*
X124518815Y-113180815D01*
X124439463Y-113277506D01*
X124380498Y-113387820D01*
X124344188Y-113507518D01*
X124331928Y-113632000D01*
X124331928Y-115432000D01*
X124344188Y-115556482D01*
X124380498Y-115676180D01*
X124439463Y-115786494D01*
X124518815Y-115883185D01*
X124615506Y-115962537D01*
X124725820Y-116021502D01*
X124744127Y-116027056D01*
X124677688Y-116093495D01*
X124509701Y-116344905D01*
X124393989Y-116624257D01*
X124335000Y-116920816D01*
X124335000Y-117223184D01*
X124393989Y-117519743D01*
X124509701Y-117799095D01*
X124677688Y-118050505D01*
X124891495Y-118264312D01*
X125142905Y-118432299D01*
X125422257Y-118548011D01*
X125718816Y-118607000D01*
X126021184Y-118607000D01*
X126317743Y-118548011D01*
X126597095Y-118432299D01*
X126848505Y-118264312D01*
X127062312Y-118050505D01*
X127230299Y-117799095D01*
X127346011Y-117519743D01*
X127405000Y-117223184D01*
X127405000Y-116920816D01*
X127346011Y-116624257D01*
X127230299Y-116344905D01*
X127062312Y-116093495D01*
X126995873Y-116027056D01*
X127014180Y-116021502D01*
X127124494Y-115962537D01*
X127221185Y-115883185D01*
X127300537Y-115786494D01*
X127359502Y-115676180D01*
X127395812Y-115556482D01*
X127408072Y-115432000D01*
X127408072Y-113632000D01*
X127395812Y-113507518D01*
X127359502Y-113387820D01*
X127300537Y-113277506D01*
X127221185Y-113180815D01*
X127124494Y-113101463D01*
X127014180Y-113042498D01*
X126894482Y-113006188D01*
X126770000Y-112993928D01*
X126564575Y-112993928D01*
X126504974Y-112882424D01*
X126410001Y-112766699D01*
X126381003Y-112742901D01*
X124072100Y-110433999D01*
X124072100Y-109743817D01*
X124290119Y-109874570D01*
X124554960Y-109969409D01*
X124777000Y-109848124D01*
X124777000Y-108704500D01*
X125031000Y-108704500D01*
X125031000Y-109848124D01*
X125253040Y-109969409D01*
X125517881Y-109874570D01*
X125759131Y-109729885D01*
X125967519Y-109540914D01*
X126135037Y-109314920D01*
X126255246Y-109060587D01*
X126295904Y-108926539D01*
X126173915Y-108704500D01*
X125031000Y-108704500D01*
X124777000Y-108704500D01*
X124757000Y-108704500D01*
X124757000Y-108450500D01*
X124777000Y-108450500D01*
X124777000Y-108430500D01*
X125031000Y-108430500D01*
X125031000Y-108450500D01*
X126173915Y-108450500D01*
X126295904Y-108228461D01*
X126255246Y-108094413D01*
X126135037Y-107840080D01*
X125967519Y-107614086D01*
X125759131Y-107425115D01*
X125567318Y-107310079D01*
X125705101Y-107236432D01*
X125923608Y-107057108D01*
X126102932Y-106838601D01*
X126236182Y-106589308D01*
X126318236Y-106318809D01*
X126345943Y-106037500D01*
X126318236Y-105756191D01*
X126236182Y-105485692D01*
X126102932Y-105236399D01*
X125923608Y-105017892D01*
X125705101Y-104838568D01*
X125657942Y-104813361D01*
X125653003Y-104763214D01*
X125642840Y-104729711D01*
X125705101Y-104696432D01*
X125923608Y-104517108D01*
X126102932Y-104298601D01*
X126236182Y-104049308D01*
X126318236Y-103778809D01*
X126345943Y-103497500D01*
X126318236Y-103216191D01*
X126236182Y-102945692D01*
X126102932Y-102696399D01*
X125923608Y-102477892D01*
X125705101Y-102298568D01*
X125572142Y-102227500D01*
X125705101Y-102156432D01*
X125923608Y-101977108D01*
X126102932Y-101758601D01*
X126236182Y-101509308D01*
X126318236Y-101238809D01*
X126345943Y-100957500D01*
X126318236Y-100676191D01*
X126236182Y-100405692D01*
X126102932Y-100156399D01*
X125923608Y-99937892D01*
X125705101Y-99758568D01*
X125572142Y-99687500D01*
X125705101Y-99616432D01*
X125923608Y-99437108D01*
X126102932Y-99218601D01*
X126236182Y-98969308D01*
X126318236Y-98698809D01*
X126345943Y-98417500D01*
X126318236Y-98136191D01*
X126236182Y-97865692D01*
X126102932Y-97616399D01*
X125923608Y-97397892D01*
X125705101Y-97218568D01*
X125572142Y-97147500D01*
X125705101Y-97076432D01*
X125923608Y-96897108D01*
X126102932Y-96678601D01*
X126124901Y-96637500D01*
X131303099Y-96637500D01*
X131325068Y-96678601D01*
X131325068Y-96678601D01*
G37*
X131325068Y-96678601D02*
X131504392Y-96897108D01*
X131722899Y-97076432D01*
X131855858Y-97147500D01*
X131722899Y-97218568D01*
X131504392Y-97397892D01*
X131325068Y-97616399D01*
X131191818Y-97865692D01*
X131109764Y-98136191D01*
X131082057Y-98417500D01*
X131109764Y-98698809D01*
X131191818Y-98969308D01*
X131325068Y-99218601D01*
X131504392Y-99437108D01*
X131722899Y-99616432D01*
X131855858Y-99687500D01*
X131722899Y-99758568D01*
X131504392Y-99937892D01*
X131325068Y-100156399D01*
X131191818Y-100405692D01*
X131109764Y-100676191D01*
X131082057Y-100957500D01*
X131109764Y-101238809D01*
X131191818Y-101509308D01*
X131325068Y-101758601D01*
X131504392Y-101977108D01*
X131722899Y-102156432D01*
X131855858Y-102227500D01*
X131722899Y-102298568D01*
X131504392Y-102477892D01*
X131325068Y-102696399D01*
X131191818Y-102945692D01*
X131109764Y-103216191D01*
X131082057Y-103497500D01*
X131109764Y-103778809D01*
X131191818Y-104049308D01*
X131325068Y-104298601D01*
X131504392Y-104517108D01*
X131722899Y-104696432D01*
X131855858Y-104767500D01*
X131722899Y-104838568D01*
X131504392Y-105017892D01*
X131325068Y-105236399D01*
X131191818Y-105485692D01*
X131109764Y-105756191D01*
X131082057Y-106037500D01*
X131109764Y-106318809D01*
X131191818Y-106589308D01*
X131325068Y-106838601D01*
X131400357Y-106930341D01*
X127677903Y-110652796D01*
X127648899Y-110676599D01*
X127614102Y-110719000D01*
X127553926Y-110792324D01*
X127512154Y-110870474D01*
X127483354Y-110924354D01*
X127439897Y-111067615D01*
X127428900Y-111179268D01*
X127428900Y-111179278D01*
X127425224Y-111216600D01*
X127428900Y-111253922D01*
X127428901Y-120159073D01*
X127293777Y-120118084D01*
X127073619Y-120096400D01*
X126926381Y-120096400D01*
X126706223Y-120118084D01*
X126423736Y-120203775D01*
X126163394Y-120342931D01*
X125935203Y-120530203D01*
X125747931Y-120758394D01*
X125703273Y-120841943D01*
X125662114Y-120845997D01*
X125518853Y-120889454D01*
X125386824Y-120960026D01*
X125271099Y-121054999D01*
X125247301Y-121083997D01*
X121323000Y-125008299D01*
X121323000Y-124882665D01*
X121267853Y-124605426D01*
X121159680Y-124344273D01*
X121002637Y-124109241D01*
X120823000Y-123929604D01*
X120823000Y-123070396D01*
X121002637Y-122890759D01*
X121159680Y-122655727D01*
X121267853Y-122394574D01*
X121323000Y-122117335D01*
X121323000Y-121834665D01*
X121267853Y-121557426D01*
X121159680Y-121296273D01*
X121002637Y-121061241D01*
X120802759Y-120861363D01*
X120567727Y-120704320D01*
X120306574Y-120596147D01*
X120029335Y-120541000D01*
X119775290Y-120541000D01*
X118049587Y-118815297D01*
X118208967Y-118847000D01*
X118531033Y-118847000D01*
X118846912Y-118784168D01*
X119144463Y-118660918D01*
X119412252Y-118481987D01*
X119639987Y-118254252D01*
X119818918Y-117986463D01*
X119942168Y-117688912D01*
X120005000Y-117373033D01*
X120005000Y-117050967D01*
X119942168Y-116735088D01*
X119818918Y-116437537D01*
X119678370Y-116227191D01*
X119724494Y-116202537D01*
X119821185Y-116123185D01*
X119900537Y-116026494D01*
X119959502Y-115916180D01*
X119995812Y-115796482D01*
X120008072Y-115672000D01*
X120008072Y-113672000D01*
X119995812Y-113547518D01*
X119959502Y-113427820D01*
X119900537Y-113317506D01*
X119821185Y-113220815D01*
X119724494Y-113141463D01*
X119675973Y-113115528D01*
X122552101Y-110239401D01*
X122552101Y-110711467D01*
X122548424Y-110748800D01*
X122552101Y-110786133D01*
X122563098Y-110897786D01*
X122573626Y-110932492D01*
X122606554Y-111041046D01*
X122677126Y-111173076D01*
X122748301Y-111259802D01*
X122772100Y-111288801D01*
X122801098Y-111312599D01*
X124601476Y-113112977D01*
X124518815Y-113180815D01*
X124439463Y-113277506D01*
X124380498Y-113387820D01*
X124344188Y-113507518D01*
X124331928Y-113632000D01*
X124331928Y-115432000D01*
X124344188Y-115556482D01*
X124380498Y-115676180D01*
X124439463Y-115786494D01*
X124518815Y-115883185D01*
X124615506Y-115962537D01*
X124725820Y-116021502D01*
X124744127Y-116027056D01*
X124677688Y-116093495D01*
X124509701Y-116344905D01*
X124393989Y-116624257D01*
X124335000Y-116920816D01*
X124335000Y-117223184D01*
X124393989Y-117519743D01*
X124509701Y-117799095D01*
X124677688Y-118050505D01*
X124891495Y-118264312D01*
X125142905Y-118432299D01*
X125422257Y-118548011D01*
X125718816Y-118607000D01*
X126021184Y-118607000D01*
X126317743Y-118548011D01*
X126597095Y-118432299D01*
X126848505Y-118264312D01*
X127062312Y-118050505D01*
X127230299Y-117799095D01*
X127346011Y-117519743D01*
X127405000Y-117223184D01*
X127405000Y-116920816D01*
X127346011Y-116624257D01*
X127230299Y-116344905D01*
X127062312Y-116093495D01*
X126995873Y-116027056D01*
X127014180Y-116021502D01*
X127124494Y-115962537D01*
X127221185Y-115883185D01*
X127300537Y-115786494D01*
X127359502Y-115676180D01*
X127395812Y-115556482D01*
X127408072Y-115432000D01*
X127408072Y-113632000D01*
X127395812Y-113507518D01*
X127359502Y-113387820D01*
X127300537Y-113277506D01*
X127221185Y-113180815D01*
X127124494Y-113101463D01*
X127014180Y-113042498D01*
X126894482Y-113006188D01*
X126770000Y-112993928D01*
X126564575Y-112993928D01*
X126504974Y-112882424D01*
X126410001Y-112766699D01*
X126381003Y-112742901D01*
X124072100Y-110433999D01*
X124072100Y-109743817D01*
X124290119Y-109874570D01*
X124554960Y-109969409D01*
X124777000Y-109848124D01*
X124777000Y-108704500D01*
X125031000Y-108704500D01*
X125031000Y-109848124D01*
X125253040Y-109969409D01*
X125517881Y-109874570D01*
X125759131Y-109729885D01*
X125967519Y-109540914D01*
X126135037Y-109314920D01*
X126255246Y-109060587D01*
X126295904Y-108926539D01*
X126173915Y-108704500D01*
X125031000Y-108704500D01*
X124777000Y-108704500D01*
X124757000Y-108704500D01*
X124757000Y-108450500D01*
X124777000Y-108450500D01*
X124777000Y-108430500D01*
X125031000Y-108430500D01*
X125031000Y-108450500D01*
X126173915Y-108450500D01*
X126295904Y-108228461D01*
X126255246Y-108094413D01*
X126135037Y-107840080D01*
X125967519Y-107614086D01*
X125759131Y-107425115D01*
X125567318Y-107310079D01*
X125705101Y-107236432D01*
X125923608Y-107057108D01*
X126102932Y-106838601D01*
X126236182Y-106589308D01*
X126318236Y-106318809D01*
X126345943Y-106037500D01*
X126318236Y-105756191D01*
X126236182Y-105485692D01*
X126102932Y-105236399D01*
X125923608Y-105017892D01*
X125705101Y-104838568D01*
X125657942Y-104813361D01*
X125653003Y-104763214D01*
X125642840Y-104729711D01*
X125705101Y-104696432D01*
X125923608Y-104517108D01*
X126102932Y-104298601D01*
X126236182Y-104049308D01*
X126318236Y-103778809D01*
X126345943Y-103497500D01*
X126318236Y-103216191D01*
X126236182Y-102945692D01*
X126102932Y-102696399D01*
X125923608Y-102477892D01*
X125705101Y-102298568D01*
X125572142Y-102227500D01*
X125705101Y-102156432D01*
X125923608Y-101977108D01*
X126102932Y-101758601D01*
X126236182Y-101509308D01*
X126318236Y-101238809D01*
X126345943Y-100957500D01*
X126318236Y-100676191D01*
X126236182Y-100405692D01*
X126102932Y-100156399D01*
X125923608Y-99937892D01*
X125705101Y-99758568D01*
X125572142Y-99687500D01*
X125705101Y-99616432D01*
X125923608Y-99437108D01*
X126102932Y-99218601D01*
X126236182Y-98969308D01*
X126318236Y-98698809D01*
X126345943Y-98417500D01*
X126318236Y-98136191D01*
X126236182Y-97865692D01*
X126102932Y-97616399D01*
X125923608Y-97397892D01*
X125705101Y-97218568D01*
X125572142Y-97147500D01*
X125705101Y-97076432D01*
X125923608Y-96897108D01*
X126102932Y-96678601D01*
X126124901Y-96637500D01*
X131303099Y-96637500D01*
X131325068Y-96678601D01*
G36*
X153470000Y-104326002D02*
G01*
X153493799Y-104355001D01*
X153609524Y-104449974D01*
X153741553Y-104520546D01*
X153884814Y-104564003D01*
X153996467Y-104575000D01*
X153996477Y-104575000D01*
X154033800Y-104578676D01*
X154071123Y-104575000D01*
X156259099Y-104575000D01*
X156281068Y-104616101D01*
X156460392Y-104834608D01*
X156678899Y-105013932D01*
X156811858Y-105085000D01*
X156678899Y-105156068D01*
X156460392Y-105335392D01*
X156281068Y-105553899D01*
X156147818Y-105803192D01*
X156065764Y-106073691D01*
X156038057Y-106355000D01*
X156065764Y-106636309D01*
X156147818Y-106906808D01*
X156281068Y-107156101D01*
X156460392Y-107374608D01*
X156678899Y-107553932D01*
X156816682Y-107627579D01*
X156624869Y-107742615D01*
X156416481Y-107931586D01*
X156248963Y-108157580D01*
X156128754Y-108411913D01*
X156088096Y-108545961D01*
X156210085Y-108768000D01*
X157353000Y-108768000D01*
X157353000Y-108748000D01*
X157607000Y-108748000D01*
X157607000Y-108768000D01*
X158749915Y-108768000D01*
X158871904Y-108545961D01*
X158831246Y-108411913D01*
X158711037Y-108157580D01*
X158543519Y-107931586D01*
X158335131Y-107742615D01*
X158143318Y-107627579D01*
X158281101Y-107553932D01*
X158499608Y-107374608D01*
X158522370Y-107346872D01*
X159166801Y-107991303D01*
X159190599Y-108020301D01*
X159219597Y-108044099D01*
X159306324Y-108115274D01*
X159438353Y-108185846D01*
X159581614Y-108229303D01*
X159730600Y-108243977D01*
X159767933Y-108240300D01*
X171442815Y-108240300D01*
X171387818Y-108343192D01*
X171305764Y-108613691D01*
X171278057Y-108895000D01*
X171305764Y-109176309D01*
X171387818Y-109446808D01*
X171521068Y-109696101D01*
X171700392Y-109914608D01*
X171918899Y-110093932D01*
X172168192Y-110227182D01*
X172438691Y-110309236D01*
X172649508Y-110330000D01*
X172790492Y-110330000D01*
X173001309Y-110309236D01*
X173271808Y-110227182D01*
X173521101Y-110093932D01*
X173739608Y-109914608D01*
X173918932Y-109696101D01*
X173940901Y-109655000D01*
X177767378Y-109655000D01*
X177804700Y-109658676D01*
X177842022Y-109655000D01*
X177842033Y-109655000D01*
X177953686Y-109644003D01*
X178096947Y-109600546D01*
X178228976Y-109529974D01*
X178344701Y-109435001D01*
X178368504Y-109405998D01*
X178530463Y-109244039D01*
X178948096Y-109244039D01*
X178988754Y-109378087D01*
X179108963Y-109632420D01*
X179276481Y-109858414D01*
X179484869Y-110047385D01*
X179726119Y-110192070D01*
X179990960Y-110286909D01*
X180213000Y-110165624D01*
X180213000Y-109022000D01*
X180467000Y-109022000D01*
X180467000Y-110165624D01*
X180689040Y-110286909D01*
X180953881Y-110192070D01*
X181195131Y-110047385D01*
X181403519Y-109858414D01*
X181571037Y-109632420D01*
X181691246Y-109378087D01*
X181731904Y-109244039D01*
X181609915Y-109022000D01*
X180467000Y-109022000D01*
X180213000Y-109022000D01*
X179070085Y-109022000D01*
X178948096Y-109244039D01*
X178530463Y-109244039D01*
X179047539Y-108726963D01*
X179070085Y-108768000D01*
X180213000Y-108768000D01*
X180213000Y-108748000D01*
X180467000Y-108748000D01*
X180467000Y-108768000D01*
X181609915Y-108768000D01*
X181731904Y-108545961D01*
X181726972Y-108529700D01*
X193014599Y-108529700D01*
X193890901Y-109406003D01*
X193914699Y-109435001D01*
X193943697Y-109458799D01*
X194030424Y-109529974D01*
X194162453Y-109600546D01*
X194305714Y-109644003D01*
X194355861Y-109648942D01*
X194381068Y-109696101D01*
X194560392Y-109914608D01*
X194778899Y-110093932D01*
X195028192Y-110227182D01*
X195298691Y-110309236D01*
X195509508Y-110330000D01*
X195650492Y-110330000D01*
X195861309Y-110309236D01*
X195950600Y-110282150D01*
X195950600Y-110361910D01*
X184885583Y-121426928D01*
X184620000Y-121426928D01*
X184495518Y-121439188D01*
X184375820Y-121475498D01*
X184265506Y-121534463D01*
X184168815Y-121613815D01*
X184089463Y-121710506D01*
X184030498Y-121820820D01*
X183994188Y-121940518D01*
X183981928Y-122065000D01*
X183981928Y-123665000D01*
X183994188Y-123789482D01*
X184030498Y-123909180D01*
X184089463Y-124019494D01*
X184168815Y-124116185D01*
X184265506Y-124195537D01*
X184375820Y-124254502D01*
X184495518Y-124290812D01*
X184620000Y-124303072D01*
X186220000Y-124303072D01*
X186344482Y-124290812D01*
X186464180Y-124254502D01*
X186574494Y-124195537D01*
X186671185Y-124116185D01*
X186750537Y-124019494D01*
X186809502Y-123909180D01*
X186845812Y-123789482D01*
X186858072Y-123665000D01*
X186858072Y-123657785D01*
X186927298Y-123678097D01*
X187740395Y-122865000D01*
X187726253Y-122850858D01*
X187905858Y-122671253D01*
X187920000Y-122685395D01*
X188733097Y-121872298D01*
X188661514Y-121628329D01*
X188406004Y-121507429D01*
X188131816Y-121438700D01*
X187849488Y-121424783D01*
X187569870Y-121466213D01*
X187446900Y-121510189D01*
X196760400Y-112196690D01*
X196760400Y-114572597D01*
X189175077Y-122157921D01*
X189156671Y-122123486D01*
X188912702Y-122051903D01*
X188099605Y-122865000D01*
X188113748Y-122879143D01*
X187934143Y-123058748D01*
X187920000Y-123044605D01*
X187106903Y-123857702D01*
X187178486Y-124101671D01*
X187214355Y-124118643D01*
X186737399Y-124595600D01*
X176679021Y-124595600D01*
X176714963Y-124494027D01*
X176594464Y-124262000D01*
X175387000Y-124262000D01*
X175387000Y-124282000D01*
X175133000Y-124282000D01*
X175133000Y-124262000D01*
X172847000Y-124262000D01*
X172847000Y-124282000D01*
X172593000Y-124282000D01*
X172593000Y-124262000D01*
X172573000Y-124262000D01*
X172573000Y-124008000D01*
X172593000Y-124008000D01*
X172593000Y-123988000D01*
X172847000Y-123988000D01*
X172847000Y-124008000D01*
X175133000Y-124008000D01*
X175133000Y-123988000D01*
X175387000Y-123988000D01*
X175387000Y-124008000D01*
X176594464Y-124008000D01*
X176714963Y-123775973D01*
X176616964Y-123499022D01*
X176466817Y-123246512D01*
X176305308Y-123067053D01*
X176367780Y-123048102D01*
X176478094Y-122989137D01*
X176574785Y-122909785D01*
X176654137Y-122813094D01*
X176713102Y-122702780D01*
X176749412Y-122583082D01*
X176761672Y-122458600D01*
X176761672Y-120731400D01*
X176749412Y-120606918D01*
X176713102Y-120487220D01*
X176654137Y-120376906D01*
X176574785Y-120280215D01*
X176478094Y-120200863D01*
X176367780Y-120141898D01*
X176248082Y-120105588D01*
X176123600Y-120093328D01*
X174396400Y-120093328D01*
X174271918Y-120105588D01*
X174152220Y-120141898D01*
X174041906Y-120200863D01*
X173945215Y-120280215D01*
X173865863Y-120376906D01*
X173806898Y-120487220D01*
X173791414Y-120538265D01*
X173784797Y-120530203D01*
X173556606Y-120342931D01*
X173296264Y-120203775D01*
X173013777Y-120118084D01*
X172793619Y-120096400D01*
X172646381Y-120096400D01*
X172552897Y-120105608D01*
X168333630Y-115886341D01*
X168304344Y-115850656D01*
X168161972Y-115733814D01*
X167999540Y-115646993D01*
X167823292Y-115593529D01*
X167685932Y-115580000D01*
X167640000Y-115575476D01*
X167594068Y-115580000D01*
X166824044Y-115580000D01*
X166754608Y-115495392D01*
X166536101Y-115316068D01*
X166286808Y-115182818D01*
X166016309Y-115100764D01*
X165805492Y-115080000D01*
X165664508Y-115080000D01*
X165453691Y-115100764D01*
X165183192Y-115182818D01*
X164933899Y-115316068D01*
X164715392Y-115495392D01*
X164536068Y-115713899D01*
X164402818Y-115963192D01*
X164320764Y-116233691D01*
X164293057Y-116515000D01*
X164320764Y-116796309D01*
X164402818Y-117066808D01*
X164536068Y-117316101D01*
X164715392Y-117534608D01*
X164933899Y-117713932D01*
X165183192Y-117847182D01*
X165453691Y-117929236D01*
X165664508Y-117950000D01*
X165805492Y-117950000D01*
X166016309Y-117929236D01*
X166286808Y-117847182D01*
X166536101Y-117713932D01*
X166754608Y-117534608D01*
X166824044Y-117450000D01*
X167252711Y-117450000D01*
X169917695Y-120114984D01*
X169886223Y-120118084D01*
X169603736Y-120203775D01*
X169343394Y-120342931D01*
X169115203Y-120530203D01*
X168927931Y-120758394D01*
X168910000Y-120791940D01*
X168892069Y-120758394D01*
X168704797Y-120530203D01*
X168476606Y-120342931D01*
X168216264Y-120203775D01*
X167933777Y-120118084D01*
X167713619Y-120096400D01*
X167566381Y-120096400D01*
X167346223Y-120118084D01*
X167063736Y-120203775D01*
X166803394Y-120342931D01*
X166575203Y-120530203D01*
X166387931Y-120758394D01*
X166370000Y-120791940D01*
X166352069Y-120758394D01*
X166164797Y-120530203D01*
X165936606Y-120342931D01*
X165676264Y-120203775D01*
X165393777Y-120118084D01*
X165173619Y-120096400D01*
X165026381Y-120096400D01*
X164806223Y-120118084D01*
X164523736Y-120203775D01*
X164263394Y-120342931D01*
X164035203Y-120530203D01*
X163847931Y-120758394D01*
X163830000Y-120791940D01*
X163812069Y-120758394D01*
X163624797Y-120530203D01*
X163396606Y-120342931D01*
X163136264Y-120203775D01*
X162853777Y-120118084D01*
X162633619Y-120096400D01*
X162486381Y-120096400D01*
X162266223Y-120118084D01*
X161983736Y-120203775D01*
X161723394Y-120342931D01*
X161495203Y-120530203D01*
X161307931Y-120758394D01*
X161290000Y-120791940D01*
X161272069Y-120758394D01*
X161084797Y-120530203D01*
X160856606Y-120342931D01*
X160596264Y-120203775D01*
X160313777Y-120118084D01*
X160093619Y-120096400D01*
X159946381Y-120096400D01*
X159726223Y-120118084D01*
X159443736Y-120203775D01*
X159183394Y-120342931D01*
X158955203Y-120530203D01*
X158767931Y-120758394D01*
X158750000Y-120791940D01*
X158732069Y-120758394D01*
X158544797Y-120530203D01*
X158316606Y-120342931D01*
X158056264Y-120203775D01*
X157773777Y-120118084D01*
X157553619Y-120096400D01*
X157406381Y-120096400D01*
X157186223Y-120118084D01*
X156903736Y-120203775D01*
X156643394Y-120342931D01*
X156415203Y-120530203D01*
X156227931Y-120758394D01*
X156210000Y-120791940D01*
X156192069Y-120758394D01*
X156004797Y-120530203D01*
X155776606Y-120342931D01*
X155618813Y-120258589D01*
X158162404Y-117714998D01*
X158191401Y-117691201D01*
X158286374Y-117575476D01*
X158356946Y-117443447D01*
X158400403Y-117300186D01*
X158411400Y-117188533D01*
X158411400Y-117188532D01*
X158415077Y-117151200D01*
X158411400Y-117113867D01*
X158411400Y-114875523D01*
X158415076Y-114838200D01*
X158411400Y-114800877D01*
X158411400Y-114800867D01*
X158400403Y-114689214D01*
X158356946Y-114545953D01*
X158312018Y-114461899D01*
X158286374Y-114413923D01*
X158215199Y-114327197D01*
X158191401Y-114298199D01*
X158162403Y-114274401D01*
X154041804Y-110153803D01*
X154018001Y-110124799D01*
X153902276Y-110029826D01*
X153770247Y-109959254D01*
X153626986Y-109915797D01*
X153515333Y-109904800D01*
X153515322Y-109904800D01*
X153478000Y-109901124D01*
X153440678Y-109904800D01*
X148013511Y-109904800D01*
X147969574Y-109860863D01*
X147878558Y-109800048D01*
X147935808Y-109782682D01*
X148185101Y-109649432D01*
X148403608Y-109470108D01*
X148582932Y-109251601D01*
X148586973Y-109244039D01*
X156088096Y-109244039D01*
X156128754Y-109378087D01*
X156248963Y-109632420D01*
X156416481Y-109858414D01*
X156624869Y-110047385D01*
X156866119Y-110192070D01*
X157130960Y-110286909D01*
X157353000Y-110165624D01*
X157353000Y-109022000D01*
X157607000Y-109022000D01*
X157607000Y-110165624D01*
X157829040Y-110286909D01*
X158093881Y-110192070D01*
X158335131Y-110047385D01*
X158543519Y-109858414D01*
X158711037Y-109632420D01*
X158831246Y-109378087D01*
X158871904Y-109244039D01*
X158749915Y-109022000D01*
X157607000Y-109022000D01*
X157353000Y-109022000D01*
X156210085Y-109022000D01*
X156088096Y-109244039D01*
X148586973Y-109244039D01*
X148716182Y-109002308D01*
X148798236Y-108731809D01*
X148825943Y-108450500D01*
X148798236Y-108169191D01*
X148716182Y-107898692D01*
X148582932Y-107649399D01*
X148403608Y-107430892D01*
X148185101Y-107251568D01*
X148052142Y-107180500D01*
X148185101Y-107109432D01*
X148403608Y-106930108D01*
X148582932Y-106711601D01*
X148716182Y-106462308D01*
X148798236Y-106191809D01*
X148825943Y-105910500D01*
X148798236Y-105629191D01*
X148716182Y-105358692D01*
X148582932Y-105109399D01*
X148403608Y-104890892D01*
X148185101Y-104711568D01*
X148052142Y-104640500D01*
X148185101Y-104569432D01*
X148403608Y-104390108D01*
X148582932Y-104171601D01*
X148716182Y-103922308D01*
X148798236Y-103651809D01*
X148825943Y-103370500D01*
X148798236Y-103089191D01*
X148716182Y-102818692D01*
X148582932Y-102569399D01*
X148403608Y-102350892D01*
X148185101Y-102171568D01*
X148052142Y-102100500D01*
X148185101Y-102029432D01*
X148403608Y-101850108D01*
X148582932Y-101631601D01*
X148716182Y-101382308D01*
X148798236Y-101111809D01*
X148825943Y-100830500D01*
X148798236Y-100549191D01*
X148716182Y-100278692D01*
X148582932Y-100029399D01*
X148403608Y-99810892D01*
X148185101Y-99631568D01*
X148052142Y-99560500D01*
X148185101Y-99489432D01*
X148403608Y-99310108D01*
X148426371Y-99282372D01*
X153470000Y-104326002D01*
X153470000Y-104326002D01*
G37*
X153470000Y-104326002D02*
X153493799Y-104355001D01*
X153609524Y-104449974D01*
X153741553Y-104520546D01*
X153884814Y-104564003D01*
X153996467Y-104575000D01*
X153996477Y-104575000D01*
X154033800Y-104578676D01*
X154071123Y-104575000D01*
X156259099Y-104575000D01*
X156281068Y-104616101D01*
X156460392Y-104834608D01*
X156678899Y-105013932D01*
X156811858Y-105085000D01*
X156678899Y-105156068D01*
X156460392Y-105335392D01*
X156281068Y-105553899D01*
X156147818Y-105803192D01*
X156065764Y-106073691D01*
X156038057Y-106355000D01*
X156065764Y-106636309D01*
X156147818Y-106906808D01*
X156281068Y-107156101D01*
X156460392Y-107374608D01*
X156678899Y-107553932D01*
X156816682Y-107627579D01*
X156624869Y-107742615D01*
X156416481Y-107931586D01*
X156248963Y-108157580D01*
X156128754Y-108411913D01*
X156088096Y-108545961D01*
X156210085Y-108768000D01*
X157353000Y-108768000D01*
X157353000Y-108748000D01*
X157607000Y-108748000D01*
X157607000Y-108768000D01*
X158749915Y-108768000D01*
X158871904Y-108545961D01*
X158831246Y-108411913D01*
X158711037Y-108157580D01*
X158543519Y-107931586D01*
X158335131Y-107742615D01*
X158143318Y-107627579D01*
X158281101Y-107553932D01*
X158499608Y-107374608D01*
X158522370Y-107346872D01*
X159166801Y-107991303D01*
X159190599Y-108020301D01*
X159219597Y-108044099D01*
X159306324Y-108115274D01*
X159438353Y-108185846D01*
X159581614Y-108229303D01*
X159730600Y-108243977D01*
X159767933Y-108240300D01*
X171442815Y-108240300D01*
X171387818Y-108343192D01*
X171305764Y-108613691D01*
X171278057Y-108895000D01*
X171305764Y-109176309D01*
X171387818Y-109446808D01*
X171521068Y-109696101D01*
X171700392Y-109914608D01*
X171918899Y-110093932D01*
X172168192Y-110227182D01*
X172438691Y-110309236D01*
X172649508Y-110330000D01*
X172790492Y-110330000D01*
X173001309Y-110309236D01*
X173271808Y-110227182D01*
X173521101Y-110093932D01*
X173739608Y-109914608D01*
X173918932Y-109696101D01*
X173940901Y-109655000D01*
X177767378Y-109655000D01*
X177804700Y-109658676D01*
X177842022Y-109655000D01*
X177842033Y-109655000D01*
X177953686Y-109644003D01*
X178096947Y-109600546D01*
X178228976Y-109529974D01*
X178344701Y-109435001D01*
X178368504Y-109405998D01*
X178530463Y-109244039D01*
X178948096Y-109244039D01*
X178988754Y-109378087D01*
X179108963Y-109632420D01*
X179276481Y-109858414D01*
X179484869Y-110047385D01*
X179726119Y-110192070D01*
X179990960Y-110286909D01*
X180213000Y-110165624D01*
X180213000Y-109022000D01*
X180467000Y-109022000D01*
X180467000Y-110165624D01*
X180689040Y-110286909D01*
X180953881Y-110192070D01*
X181195131Y-110047385D01*
X181403519Y-109858414D01*
X181571037Y-109632420D01*
X181691246Y-109378087D01*
X181731904Y-109244039D01*
X181609915Y-109022000D01*
X180467000Y-109022000D01*
X180213000Y-109022000D01*
X179070085Y-109022000D01*
X178948096Y-109244039D01*
X178530463Y-109244039D01*
X179047539Y-108726963D01*
X179070085Y-108768000D01*
X180213000Y-108768000D01*
X180213000Y-108748000D01*
X180467000Y-108748000D01*
X180467000Y-108768000D01*
X181609915Y-108768000D01*
X181731904Y-108545961D01*
X181726972Y-108529700D01*
X193014599Y-108529700D01*
X193890901Y-109406003D01*
X193914699Y-109435001D01*
X193943697Y-109458799D01*
X194030424Y-109529974D01*
X194162453Y-109600546D01*
X194305714Y-109644003D01*
X194355861Y-109648942D01*
X194381068Y-109696101D01*
X194560392Y-109914608D01*
X194778899Y-110093932D01*
X195028192Y-110227182D01*
X195298691Y-110309236D01*
X195509508Y-110330000D01*
X195650492Y-110330000D01*
X195861309Y-110309236D01*
X195950600Y-110282150D01*
X195950600Y-110361910D01*
X184885583Y-121426928D01*
X184620000Y-121426928D01*
X184495518Y-121439188D01*
X184375820Y-121475498D01*
X184265506Y-121534463D01*
X184168815Y-121613815D01*
X184089463Y-121710506D01*
X184030498Y-121820820D01*
X183994188Y-121940518D01*
X183981928Y-122065000D01*
X183981928Y-123665000D01*
X183994188Y-123789482D01*
X184030498Y-123909180D01*
X184089463Y-124019494D01*
X184168815Y-124116185D01*
X184265506Y-124195537D01*
X184375820Y-124254502D01*
X184495518Y-124290812D01*
X184620000Y-124303072D01*
X186220000Y-124303072D01*
X186344482Y-124290812D01*
X186464180Y-124254502D01*
X186574494Y-124195537D01*
X186671185Y-124116185D01*
X186750537Y-124019494D01*
X186809502Y-123909180D01*
X186845812Y-123789482D01*
X186858072Y-123665000D01*
X186858072Y-123657785D01*
X186927298Y-123678097D01*
X187740395Y-122865000D01*
X187726253Y-122850858D01*
X187905858Y-122671253D01*
X187920000Y-122685395D01*
X188733097Y-121872298D01*
X188661514Y-121628329D01*
X188406004Y-121507429D01*
X188131816Y-121438700D01*
X187849488Y-121424783D01*
X187569870Y-121466213D01*
X187446900Y-121510189D01*
X196760400Y-112196690D01*
X196760400Y-114572597D01*
X189175077Y-122157921D01*
X189156671Y-122123486D01*
X188912702Y-122051903D01*
X188099605Y-122865000D01*
X188113748Y-122879143D01*
X187934143Y-123058748D01*
X187920000Y-123044605D01*
X187106903Y-123857702D01*
X187178486Y-124101671D01*
X187214355Y-124118643D01*
X186737399Y-124595600D01*
X176679021Y-124595600D01*
X176714963Y-124494027D01*
X176594464Y-124262000D01*
X175387000Y-124262000D01*
X175387000Y-124282000D01*
X175133000Y-124282000D01*
X175133000Y-124262000D01*
X172847000Y-124262000D01*
X172847000Y-124282000D01*
X172593000Y-124282000D01*
X172593000Y-124262000D01*
X172573000Y-124262000D01*
X172573000Y-124008000D01*
X172593000Y-124008000D01*
X172593000Y-123988000D01*
X172847000Y-123988000D01*
X172847000Y-124008000D01*
X175133000Y-124008000D01*
X175133000Y-123988000D01*
X175387000Y-123988000D01*
X175387000Y-124008000D01*
X176594464Y-124008000D01*
X176714963Y-123775973D01*
X176616964Y-123499022D01*
X176466817Y-123246512D01*
X176305308Y-123067053D01*
X176367780Y-123048102D01*
X176478094Y-122989137D01*
X176574785Y-122909785D01*
X176654137Y-122813094D01*
X176713102Y-122702780D01*
X176749412Y-122583082D01*
X176761672Y-122458600D01*
X176761672Y-120731400D01*
X176749412Y-120606918D01*
X176713102Y-120487220D01*
X176654137Y-120376906D01*
X176574785Y-120280215D01*
X176478094Y-120200863D01*
X176367780Y-120141898D01*
X176248082Y-120105588D01*
X176123600Y-120093328D01*
X174396400Y-120093328D01*
X174271918Y-120105588D01*
X174152220Y-120141898D01*
X174041906Y-120200863D01*
X173945215Y-120280215D01*
X173865863Y-120376906D01*
X173806898Y-120487220D01*
X173791414Y-120538265D01*
X173784797Y-120530203D01*
X173556606Y-120342931D01*
X173296264Y-120203775D01*
X173013777Y-120118084D01*
X172793619Y-120096400D01*
X172646381Y-120096400D01*
X172552897Y-120105608D01*
X168333630Y-115886341D01*
X168304344Y-115850656D01*
X168161972Y-115733814D01*
X167999540Y-115646993D01*
X167823292Y-115593529D01*
X167685932Y-115580000D01*
X167640000Y-115575476D01*
X167594068Y-115580000D01*
X166824044Y-115580000D01*
X166754608Y-115495392D01*
X166536101Y-115316068D01*
X166286808Y-115182818D01*
X166016309Y-115100764D01*
X165805492Y-115080000D01*
X165664508Y-115080000D01*
X165453691Y-115100764D01*
X165183192Y-115182818D01*
X164933899Y-115316068D01*
X164715392Y-115495392D01*
X164536068Y-115713899D01*
X164402818Y-115963192D01*
X164320764Y-116233691D01*
X164293057Y-116515000D01*
X164320764Y-116796309D01*
X164402818Y-117066808D01*
X164536068Y-117316101D01*
X164715392Y-117534608D01*
X164933899Y-117713932D01*
X165183192Y-117847182D01*
X165453691Y-117929236D01*
X165664508Y-117950000D01*
X165805492Y-117950000D01*
X166016309Y-117929236D01*
X166286808Y-117847182D01*
X166536101Y-117713932D01*
X166754608Y-117534608D01*
X166824044Y-117450000D01*
X167252711Y-117450000D01*
X169917695Y-120114984D01*
X169886223Y-120118084D01*
X169603736Y-120203775D01*
X169343394Y-120342931D01*
X169115203Y-120530203D01*
X168927931Y-120758394D01*
X168910000Y-120791940D01*
X168892069Y-120758394D01*
X168704797Y-120530203D01*
X168476606Y-120342931D01*
X168216264Y-120203775D01*
X167933777Y-120118084D01*
X167713619Y-120096400D01*
X167566381Y-120096400D01*
X167346223Y-120118084D01*
X167063736Y-120203775D01*
X166803394Y-120342931D01*
X166575203Y-120530203D01*
X166387931Y-120758394D01*
X166370000Y-120791940D01*
X166352069Y-120758394D01*
X166164797Y-120530203D01*
X165936606Y-120342931D01*
X165676264Y-120203775D01*
X165393777Y-120118084D01*
X165173619Y-120096400D01*
X165026381Y-120096400D01*
X164806223Y-120118084D01*
X164523736Y-120203775D01*
X164263394Y-120342931D01*
X164035203Y-120530203D01*
X163847931Y-120758394D01*
X163830000Y-120791940D01*
X163812069Y-120758394D01*
X163624797Y-120530203D01*
X163396606Y-120342931D01*
X163136264Y-120203775D01*
X162853777Y-120118084D01*
X162633619Y-120096400D01*
X162486381Y-120096400D01*
X162266223Y-120118084D01*
X161983736Y-120203775D01*
X161723394Y-120342931D01*
X161495203Y-120530203D01*
X161307931Y-120758394D01*
X161290000Y-120791940D01*
X161272069Y-120758394D01*
X161084797Y-120530203D01*
X160856606Y-120342931D01*
X160596264Y-120203775D01*
X160313777Y-120118084D01*
X160093619Y-120096400D01*
X159946381Y-120096400D01*
X159726223Y-120118084D01*
X159443736Y-120203775D01*
X159183394Y-120342931D01*
X158955203Y-120530203D01*
X158767931Y-120758394D01*
X158750000Y-120791940D01*
X158732069Y-120758394D01*
X158544797Y-120530203D01*
X158316606Y-120342931D01*
X158056264Y-120203775D01*
X157773777Y-120118084D01*
X157553619Y-120096400D01*
X157406381Y-120096400D01*
X157186223Y-120118084D01*
X156903736Y-120203775D01*
X156643394Y-120342931D01*
X156415203Y-120530203D01*
X156227931Y-120758394D01*
X156210000Y-120791940D01*
X156192069Y-120758394D01*
X156004797Y-120530203D01*
X155776606Y-120342931D01*
X155618813Y-120258589D01*
X158162404Y-117714998D01*
X158191401Y-117691201D01*
X158286374Y-117575476D01*
X158356946Y-117443447D01*
X158400403Y-117300186D01*
X158411400Y-117188533D01*
X158411400Y-117188532D01*
X158415077Y-117151200D01*
X158411400Y-117113867D01*
X158411400Y-114875523D01*
X158415076Y-114838200D01*
X158411400Y-114800877D01*
X158411400Y-114800867D01*
X158400403Y-114689214D01*
X158356946Y-114545953D01*
X158312018Y-114461899D01*
X158286374Y-114413923D01*
X158215199Y-114327197D01*
X158191401Y-114298199D01*
X158162403Y-114274401D01*
X154041804Y-110153803D01*
X154018001Y-110124799D01*
X153902276Y-110029826D01*
X153770247Y-109959254D01*
X153626986Y-109915797D01*
X153515333Y-109904800D01*
X153515322Y-109904800D01*
X153478000Y-109901124D01*
X153440678Y-109904800D01*
X148013511Y-109904800D01*
X147969574Y-109860863D01*
X147878558Y-109800048D01*
X147935808Y-109782682D01*
X148185101Y-109649432D01*
X148403608Y-109470108D01*
X148582932Y-109251601D01*
X148586973Y-109244039D01*
X156088096Y-109244039D01*
X156128754Y-109378087D01*
X156248963Y-109632420D01*
X156416481Y-109858414D01*
X156624869Y-110047385D01*
X156866119Y-110192070D01*
X157130960Y-110286909D01*
X157353000Y-110165624D01*
X157353000Y-109022000D01*
X157607000Y-109022000D01*
X157607000Y-110165624D01*
X157829040Y-110286909D01*
X158093881Y-110192070D01*
X158335131Y-110047385D01*
X158543519Y-109858414D01*
X158711037Y-109632420D01*
X158831246Y-109378087D01*
X158871904Y-109244039D01*
X158749915Y-109022000D01*
X157607000Y-109022000D01*
X157353000Y-109022000D01*
X156210085Y-109022000D01*
X156088096Y-109244039D01*
X148586973Y-109244039D01*
X148716182Y-109002308D01*
X148798236Y-108731809D01*
X148825943Y-108450500D01*
X148798236Y-108169191D01*
X148716182Y-107898692D01*
X148582932Y-107649399D01*
X148403608Y-107430892D01*
X148185101Y-107251568D01*
X148052142Y-107180500D01*
X148185101Y-107109432D01*
X148403608Y-106930108D01*
X148582932Y-106711601D01*
X148716182Y-106462308D01*
X148798236Y-106191809D01*
X148825943Y-105910500D01*
X148798236Y-105629191D01*
X148716182Y-105358692D01*
X148582932Y-105109399D01*
X148403608Y-104890892D01*
X148185101Y-104711568D01*
X148052142Y-104640500D01*
X148185101Y-104569432D01*
X148403608Y-104390108D01*
X148582932Y-104171601D01*
X148716182Y-103922308D01*
X148798236Y-103651809D01*
X148825943Y-103370500D01*
X148798236Y-103089191D01*
X148716182Y-102818692D01*
X148582932Y-102569399D01*
X148403608Y-102350892D01*
X148185101Y-102171568D01*
X148052142Y-102100500D01*
X148185101Y-102029432D01*
X148403608Y-101850108D01*
X148582932Y-101631601D01*
X148716182Y-101382308D01*
X148798236Y-101111809D01*
X148825943Y-100830500D01*
X148798236Y-100549191D01*
X148716182Y-100278692D01*
X148582932Y-100029399D01*
X148403608Y-99810892D01*
X148185101Y-99631568D01*
X148052142Y-99560500D01*
X148185101Y-99489432D01*
X148403608Y-99310108D01*
X148426371Y-99282372D01*
X153470000Y-104326002D01*
G36*
X115651068Y-80331101D02*
G01*
X115830392Y-80549608D01*
X116048899Y-80728932D01*
X116181858Y-80800000D01*
X116048899Y-80871068D01*
X115830392Y-81050392D01*
X115651068Y-81268899D01*
X115517818Y-81518192D01*
X115435764Y-81788691D01*
X115408057Y-82070000D01*
X115435764Y-82351309D01*
X115517818Y-82621808D01*
X115651068Y-82871101D01*
X115830392Y-83089608D01*
X116048899Y-83268932D01*
X116181858Y-83340000D01*
X116048899Y-83411068D01*
X115830392Y-83590392D01*
X115651068Y-83808899D01*
X115517818Y-84058192D01*
X115435764Y-84328691D01*
X115408057Y-84610000D01*
X115435764Y-84891309D01*
X115517818Y-85161808D01*
X115651068Y-85411101D01*
X115830392Y-85629608D01*
X116048899Y-85808932D01*
X116181858Y-85880000D01*
X116048899Y-85951068D01*
X115830392Y-86130392D01*
X115651068Y-86348899D01*
X115517818Y-86598192D01*
X115435764Y-86868691D01*
X115408057Y-87150000D01*
X115435764Y-87431309D01*
X115517818Y-87701808D01*
X115651068Y-87951101D01*
X115830392Y-88169608D01*
X116048899Y-88348932D01*
X116181858Y-88420000D01*
X116048899Y-88491068D01*
X115830392Y-88670392D01*
X115651068Y-88888899D01*
X115517818Y-89138192D01*
X115435764Y-89408691D01*
X115408057Y-89690000D01*
X115435764Y-89971309D01*
X115517818Y-90241808D01*
X115651068Y-90491101D01*
X115830392Y-90709608D01*
X116048899Y-90888932D01*
X116298192Y-91022182D01*
X116568691Y-91104236D01*
X116779508Y-91125000D01*
X116920492Y-91125000D01*
X117131309Y-91104236D01*
X117401808Y-91022182D01*
X117651101Y-90888932D01*
X117869608Y-90709608D01*
X118048932Y-90491101D01*
X118182182Y-90241808D01*
X118264236Y-89971309D01*
X118291943Y-89690000D01*
X118264236Y-89408691D01*
X118182182Y-89138192D01*
X118048932Y-88888899D01*
X117869608Y-88670392D01*
X117651101Y-88491068D01*
X117518142Y-88420000D01*
X117651101Y-88348932D01*
X117869608Y-88169608D01*
X118048932Y-87951101D01*
X118182182Y-87701808D01*
X118264236Y-87431309D01*
X118291943Y-87150000D01*
X118264236Y-86868691D01*
X118182182Y-86598192D01*
X118048932Y-86348899D01*
X117869608Y-86130392D01*
X117651101Y-85951068D01*
X117518142Y-85880000D01*
X117651101Y-85808932D01*
X117869608Y-85629608D01*
X118048932Y-85411101D01*
X118182182Y-85161808D01*
X118264236Y-84891309D01*
X118291943Y-84610000D01*
X118264236Y-84328691D01*
X118182182Y-84058192D01*
X118048932Y-83808899D01*
X117869608Y-83590392D01*
X117651101Y-83411068D01*
X117518142Y-83340000D01*
X117651101Y-83268932D01*
X117869608Y-83089608D01*
X118048932Y-82871101D01*
X118074139Y-82823942D01*
X118124286Y-82819003D01*
X118267547Y-82775546D01*
X118399576Y-82704974D01*
X118515301Y-82610001D01*
X118539104Y-82580998D01*
X119268102Y-81852000D01*
X123790840Y-81852000D01*
X123743764Y-82007191D01*
X123716057Y-82288500D01*
X123743764Y-82569809D01*
X123825818Y-82840308D01*
X123959068Y-83089601D01*
X124138392Y-83308108D01*
X124356899Y-83487432D01*
X124494682Y-83561079D01*
X124302869Y-83676115D01*
X124094481Y-83865086D01*
X123926963Y-84091080D01*
X123806754Y-84345413D01*
X123766096Y-84479461D01*
X123888085Y-84701500D01*
X125031000Y-84701500D01*
X125031000Y-84681500D01*
X125285000Y-84681500D01*
X125285000Y-84701500D01*
X125305000Y-84701500D01*
X125305000Y-84955500D01*
X125285000Y-84955500D01*
X125285000Y-84975500D01*
X125031000Y-84975500D01*
X125031000Y-84955500D01*
X123888085Y-84955500D01*
X123766096Y-85177539D01*
X123806754Y-85311587D01*
X123926963Y-85565920D01*
X124094481Y-85791914D01*
X124302869Y-85980885D01*
X124505368Y-86102330D01*
X116741699Y-93866000D01*
X111767823Y-93866000D01*
X111730500Y-93862324D01*
X111693177Y-93866000D01*
X111693167Y-93866000D01*
X111581514Y-93876997D01*
X111438253Y-93920454D01*
X111306224Y-93991026D01*
X111190499Y-94085999D01*
X111166701Y-94114997D01*
X110230767Y-95050932D01*
X110113014Y-94954294D01*
X109855034Y-94816401D01*
X109575111Y-94731487D01*
X109356950Y-94710000D01*
X109211050Y-94710000D01*
X108992889Y-94731487D01*
X108712966Y-94816401D01*
X108454986Y-94954294D01*
X108228866Y-95139866D01*
X108043294Y-95365986D01*
X107905401Y-95623966D01*
X107820487Y-95903889D01*
X107791815Y-96195000D01*
X107820487Y-96486111D01*
X107905401Y-96766034D01*
X108043294Y-97024014D01*
X108100265Y-97093433D01*
X107549502Y-97644197D01*
X107520499Y-97667999D01*
X107481605Y-97715392D01*
X107425526Y-97783724D01*
X107387400Y-97855053D01*
X107354954Y-97915754D01*
X107311497Y-98059015D01*
X107300500Y-98170668D01*
X107300500Y-98170678D01*
X107296824Y-98208000D01*
X107300500Y-98245322D01*
X107300501Y-110198168D01*
X107296824Y-110235500D01*
X107300501Y-110272833D01*
X107311498Y-110384486D01*
X107320046Y-110412666D01*
X107354954Y-110527746D01*
X107425526Y-110659776D01*
X107496701Y-110746502D01*
X107520500Y-110775501D01*
X107549498Y-110799299D01*
X110287332Y-113537134D01*
X110281928Y-113592000D01*
X110281928Y-115592000D01*
X110294188Y-115716482D01*
X110330498Y-115836180D01*
X110389463Y-115946494D01*
X110468815Y-116043185D01*
X110565506Y-116122537D01*
X110611630Y-116147191D01*
X110471082Y-116357537D01*
X110415449Y-116491847D01*
X106747700Y-112824099D01*
X106747700Y-90039039D01*
X107838096Y-90039039D01*
X107878754Y-90173087D01*
X107998963Y-90427420D01*
X108166481Y-90653414D01*
X108374869Y-90842385D01*
X108616119Y-90987070D01*
X108880960Y-91081909D01*
X109103000Y-90960624D01*
X109103000Y-89817000D01*
X109357000Y-89817000D01*
X109357000Y-90960624D01*
X109579040Y-91081909D01*
X109843881Y-90987070D01*
X110085131Y-90842385D01*
X110293519Y-90653414D01*
X110461037Y-90427420D01*
X110581246Y-90173087D01*
X110621904Y-90039039D01*
X110499915Y-89817000D01*
X109357000Y-89817000D01*
X109103000Y-89817000D01*
X107960085Y-89817000D01*
X107838096Y-90039039D01*
X106747700Y-90039039D01*
X106747700Y-87321901D01*
X106867547Y-87285546D01*
X106999576Y-87214974D01*
X107115301Y-87120001D01*
X107139103Y-87090998D01*
X107538502Y-86691600D01*
X107869483Y-86691600D01*
X107815764Y-86868691D01*
X107788057Y-87150000D01*
X107815764Y-87431309D01*
X107897818Y-87701808D01*
X108031068Y-87951101D01*
X108210392Y-88169608D01*
X108428899Y-88348932D01*
X108566682Y-88422579D01*
X108374869Y-88537615D01*
X108166481Y-88726586D01*
X107998963Y-88952580D01*
X107878754Y-89206913D01*
X107838096Y-89340961D01*
X107960085Y-89563000D01*
X109103000Y-89563000D01*
X109103000Y-89543000D01*
X109357000Y-89543000D01*
X109357000Y-89563000D01*
X110499915Y-89563000D01*
X110621904Y-89340961D01*
X110581246Y-89206913D01*
X110461037Y-88952580D01*
X110293519Y-88726586D01*
X110085131Y-88537615D01*
X109893318Y-88422579D01*
X110031101Y-88348932D01*
X110249608Y-88169608D01*
X110428932Y-87951101D01*
X110562182Y-87701808D01*
X110644236Y-87431309D01*
X110671943Y-87150000D01*
X110644236Y-86868691D01*
X110562182Y-86598192D01*
X110428932Y-86348899D01*
X110314743Y-86209759D01*
X110877703Y-85646799D01*
X110906701Y-85623001D01*
X111001674Y-85507276D01*
X111072246Y-85375247D01*
X111115703Y-85231986D01*
X111126700Y-85120333D01*
X111130377Y-85083000D01*
X111126700Y-85045667D01*
X111126700Y-84667901D01*
X115585733Y-80208868D01*
X115651068Y-80331101D01*
X115651068Y-80331101D01*
G37*
X115651068Y-80331101D02*
X115830392Y-80549608D01*
X116048899Y-80728932D01*
X116181858Y-80800000D01*
X116048899Y-80871068D01*
X115830392Y-81050392D01*
X115651068Y-81268899D01*
X115517818Y-81518192D01*
X115435764Y-81788691D01*
X115408057Y-82070000D01*
X115435764Y-82351309D01*
X115517818Y-82621808D01*
X115651068Y-82871101D01*
X115830392Y-83089608D01*
X116048899Y-83268932D01*
X116181858Y-83340000D01*
X116048899Y-83411068D01*
X115830392Y-83590392D01*
X115651068Y-83808899D01*
X115517818Y-84058192D01*
X115435764Y-84328691D01*
X115408057Y-84610000D01*
X115435764Y-84891309D01*
X115517818Y-85161808D01*
X115651068Y-85411101D01*
X115830392Y-85629608D01*
X116048899Y-85808932D01*
X116181858Y-85880000D01*
X116048899Y-85951068D01*
X115830392Y-86130392D01*
X115651068Y-86348899D01*
X115517818Y-86598192D01*
X115435764Y-86868691D01*
X115408057Y-87150000D01*
X115435764Y-87431309D01*
X115517818Y-87701808D01*
X115651068Y-87951101D01*
X115830392Y-88169608D01*
X116048899Y-88348932D01*
X116181858Y-88420000D01*
X116048899Y-88491068D01*
X115830392Y-88670392D01*
X115651068Y-88888899D01*
X115517818Y-89138192D01*
X115435764Y-89408691D01*
X115408057Y-89690000D01*
X115435764Y-89971309D01*
X115517818Y-90241808D01*
X115651068Y-90491101D01*
X115830392Y-90709608D01*
X116048899Y-90888932D01*
X116298192Y-91022182D01*
X116568691Y-91104236D01*
X116779508Y-91125000D01*
X116920492Y-91125000D01*
X117131309Y-91104236D01*
X117401808Y-91022182D01*
X117651101Y-90888932D01*
X117869608Y-90709608D01*
X118048932Y-90491101D01*
X118182182Y-90241808D01*
X118264236Y-89971309D01*
X118291943Y-89690000D01*
X118264236Y-89408691D01*
X118182182Y-89138192D01*
X118048932Y-88888899D01*
X117869608Y-88670392D01*
X117651101Y-88491068D01*
X117518142Y-88420000D01*
X117651101Y-88348932D01*
X117869608Y-88169608D01*
X118048932Y-87951101D01*
X118182182Y-87701808D01*
X118264236Y-87431309D01*
X118291943Y-87150000D01*
X118264236Y-86868691D01*
X118182182Y-86598192D01*
X118048932Y-86348899D01*
X117869608Y-86130392D01*
X117651101Y-85951068D01*
X117518142Y-85880000D01*
X117651101Y-85808932D01*
X117869608Y-85629608D01*
X118048932Y-85411101D01*
X118182182Y-85161808D01*
X118264236Y-84891309D01*
X118291943Y-84610000D01*
X118264236Y-84328691D01*
X118182182Y-84058192D01*
X118048932Y-83808899D01*
X117869608Y-83590392D01*
X117651101Y-83411068D01*
X117518142Y-83340000D01*
X117651101Y-83268932D01*
X117869608Y-83089608D01*
X118048932Y-82871101D01*
X118074139Y-82823942D01*
X118124286Y-82819003D01*
X118267547Y-82775546D01*
X118399576Y-82704974D01*
X118515301Y-82610001D01*
X118539104Y-82580998D01*
X119268102Y-81852000D01*
X123790840Y-81852000D01*
X123743764Y-82007191D01*
X123716057Y-82288500D01*
X123743764Y-82569809D01*
X123825818Y-82840308D01*
X123959068Y-83089601D01*
X124138392Y-83308108D01*
X124356899Y-83487432D01*
X124494682Y-83561079D01*
X124302869Y-83676115D01*
X124094481Y-83865086D01*
X123926963Y-84091080D01*
X123806754Y-84345413D01*
X123766096Y-84479461D01*
X123888085Y-84701500D01*
X125031000Y-84701500D01*
X125031000Y-84681500D01*
X125285000Y-84681500D01*
X125285000Y-84701500D01*
X125305000Y-84701500D01*
X125305000Y-84955500D01*
X125285000Y-84955500D01*
X125285000Y-84975500D01*
X125031000Y-84975500D01*
X125031000Y-84955500D01*
X123888085Y-84955500D01*
X123766096Y-85177539D01*
X123806754Y-85311587D01*
X123926963Y-85565920D01*
X124094481Y-85791914D01*
X124302869Y-85980885D01*
X124505368Y-86102330D01*
X116741699Y-93866000D01*
X111767823Y-93866000D01*
X111730500Y-93862324D01*
X111693177Y-93866000D01*
X111693167Y-93866000D01*
X111581514Y-93876997D01*
X111438253Y-93920454D01*
X111306224Y-93991026D01*
X111190499Y-94085999D01*
X111166701Y-94114997D01*
X110230767Y-95050932D01*
X110113014Y-94954294D01*
X109855034Y-94816401D01*
X109575111Y-94731487D01*
X109356950Y-94710000D01*
X109211050Y-94710000D01*
X108992889Y-94731487D01*
X108712966Y-94816401D01*
X108454986Y-94954294D01*
X108228866Y-95139866D01*
X108043294Y-95365986D01*
X107905401Y-95623966D01*
X107820487Y-95903889D01*
X107791815Y-96195000D01*
X107820487Y-96486111D01*
X107905401Y-96766034D01*
X108043294Y-97024014D01*
X108100265Y-97093433D01*
X107549502Y-97644197D01*
X107520499Y-97667999D01*
X107481605Y-97715392D01*
X107425526Y-97783724D01*
X107387400Y-97855053D01*
X107354954Y-97915754D01*
X107311497Y-98059015D01*
X107300500Y-98170668D01*
X107300500Y-98170678D01*
X107296824Y-98208000D01*
X107300500Y-98245322D01*
X107300501Y-110198168D01*
X107296824Y-110235500D01*
X107300501Y-110272833D01*
X107311498Y-110384486D01*
X107320046Y-110412666D01*
X107354954Y-110527746D01*
X107425526Y-110659776D01*
X107496701Y-110746502D01*
X107520500Y-110775501D01*
X107549498Y-110799299D01*
X110287332Y-113537134D01*
X110281928Y-113592000D01*
X110281928Y-115592000D01*
X110294188Y-115716482D01*
X110330498Y-115836180D01*
X110389463Y-115946494D01*
X110468815Y-116043185D01*
X110565506Y-116122537D01*
X110611630Y-116147191D01*
X110471082Y-116357537D01*
X110415449Y-116491847D01*
X106747700Y-112824099D01*
X106747700Y-90039039D01*
X107838096Y-90039039D01*
X107878754Y-90173087D01*
X107998963Y-90427420D01*
X108166481Y-90653414D01*
X108374869Y-90842385D01*
X108616119Y-90987070D01*
X108880960Y-91081909D01*
X109103000Y-90960624D01*
X109103000Y-89817000D01*
X109357000Y-89817000D01*
X109357000Y-90960624D01*
X109579040Y-91081909D01*
X109843881Y-90987070D01*
X110085131Y-90842385D01*
X110293519Y-90653414D01*
X110461037Y-90427420D01*
X110581246Y-90173087D01*
X110621904Y-90039039D01*
X110499915Y-89817000D01*
X109357000Y-89817000D01*
X109103000Y-89817000D01*
X107960085Y-89817000D01*
X107838096Y-90039039D01*
X106747700Y-90039039D01*
X106747700Y-87321901D01*
X106867547Y-87285546D01*
X106999576Y-87214974D01*
X107115301Y-87120001D01*
X107139103Y-87090998D01*
X107538502Y-86691600D01*
X107869483Y-86691600D01*
X107815764Y-86868691D01*
X107788057Y-87150000D01*
X107815764Y-87431309D01*
X107897818Y-87701808D01*
X108031068Y-87951101D01*
X108210392Y-88169608D01*
X108428899Y-88348932D01*
X108566682Y-88422579D01*
X108374869Y-88537615D01*
X108166481Y-88726586D01*
X107998963Y-88952580D01*
X107878754Y-89206913D01*
X107838096Y-89340961D01*
X107960085Y-89563000D01*
X109103000Y-89563000D01*
X109103000Y-89543000D01*
X109357000Y-89543000D01*
X109357000Y-89563000D01*
X110499915Y-89563000D01*
X110621904Y-89340961D01*
X110581246Y-89206913D01*
X110461037Y-88952580D01*
X110293519Y-88726586D01*
X110085131Y-88537615D01*
X109893318Y-88422579D01*
X110031101Y-88348932D01*
X110249608Y-88169608D01*
X110428932Y-87951101D01*
X110562182Y-87701808D01*
X110644236Y-87431309D01*
X110671943Y-87150000D01*
X110644236Y-86868691D01*
X110562182Y-86598192D01*
X110428932Y-86348899D01*
X110314743Y-86209759D01*
X110877703Y-85646799D01*
X110906701Y-85623001D01*
X111001674Y-85507276D01*
X111072246Y-85375247D01*
X111115703Y-85231986D01*
X111126700Y-85120333D01*
X111130377Y-85083000D01*
X111126700Y-85045667D01*
X111126700Y-84667901D01*
X115585733Y-80208868D01*
X115651068Y-80331101D01*
G36*
X138627556Y-105033258D02*
G01*
X138565068Y-105109399D01*
X138431818Y-105358692D01*
X138349764Y-105629191D01*
X138322057Y-105910500D01*
X138349764Y-106191809D01*
X138431818Y-106462308D01*
X138565068Y-106711601D01*
X138744392Y-106930108D01*
X138962899Y-107109432D01*
X139100682Y-107183079D01*
X138908869Y-107298115D01*
X138700481Y-107487086D01*
X138532963Y-107713080D01*
X138412754Y-107967413D01*
X138372096Y-108101461D01*
X138494085Y-108323500D01*
X139637000Y-108323500D01*
X139637000Y-108303500D01*
X139891000Y-108303500D01*
X139891000Y-108323500D01*
X141033915Y-108323500D01*
X141155904Y-108101461D01*
X141115246Y-107967413D01*
X140995037Y-107713080D01*
X140827519Y-107487086D01*
X140619131Y-107298115D01*
X140427318Y-107183079D01*
X140565101Y-107109432D01*
X140783608Y-106930108D01*
X140962932Y-106711601D01*
X141096182Y-106462308D01*
X141178236Y-106191809D01*
X141205943Y-105910500D01*
X141178236Y-105629191D01*
X141152758Y-105545200D01*
X144818599Y-105545200D01*
X145694901Y-106421503D01*
X145718699Y-106450501D01*
X145783871Y-106503986D01*
X145834424Y-106545474D01*
X145966453Y-106616046D01*
X146109714Y-106659503D01*
X146159861Y-106664442D01*
X146185068Y-106711601D01*
X146364392Y-106930108D01*
X146582899Y-107109432D01*
X146715858Y-107180500D01*
X146582899Y-107251568D01*
X146364392Y-107430892D01*
X146185068Y-107649399D01*
X146051818Y-107898692D01*
X145969764Y-108169191D01*
X145942057Y-108450500D01*
X145969764Y-108731809D01*
X146051818Y-109002308D01*
X146185068Y-109251601D01*
X146364392Y-109470108D01*
X146582899Y-109649432D01*
X146795991Y-109763332D01*
X146650026Y-109860863D01*
X146505863Y-110005026D01*
X146392595Y-110174544D01*
X146314574Y-110362902D01*
X146274800Y-110562861D01*
X146274800Y-110766739D01*
X146314574Y-110966698D01*
X146392595Y-111155056D01*
X146505863Y-111324574D01*
X146650026Y-111468737D01*
X146819544Y-111582005D01*
X147007902Y-111660026D01*
X147207861Y-111699800D01*
X147411739Y-111699800D01*
X147611698Y-111660026D01*
X147800056Y-111582005D01*
X147969574Y-111468737D01*
X148013511Y-111424800D01*
X153163199Y-111424800D01*
X156195444Y-114457045D01*
X156122163Y-114530326D01*
X156008895Y-114699844D01*
X155930874Y-114888202D01*
X155891100Y-115088161D01*
X155891100Y-115114763D01*
X155716335Y-115080000D01*
X155433665Y-115080000D01*
X155251114Y-115116312D01*
X154625704Y-114490903D01*
X154601901Y-114461899D01*
X154486176Y-114366926D01*
X154354147Y-114296354D01*
X154210886Y-114252897D01*
X154099233Y-114241900D01*
X154099222Y-114241900D01*
X154061900Y-114238224D01*
X154024578Y-114241900D01*
X136439422Y-114241900D01*
X136402099Y-114238224D01*
X136364776Y-114241900D01*
X136364767Y-114241900D01*
X136253114Y-114252897D01*
X136109853Y-114296354D01*
X135977824Y-114366926D01*
X135977822Y-114366927D01*
X135977823Y-114366927D01*
X135891096Y-114438101D01*
X135891092Y-114438105D01*
X135862099Y-114461899D01*
X135838305Y-114490892D01*
X135475364Y-114853833D01*
X135330411Y-114825000D01*
X135057589Y-114825000D01*
X134790011Y-114878225D01*
X134537957Y-114982629D01*
X134311114Y-115134201D01*
X134118201Y-115327114D01*
X134040445Y-115443483D01*
X134029812Y-115335518D01*
X133993502Y-115215820D01*
X133934537Y-115105506D01*
X133855185Y-115008815D01*
X133758494Y-114929463D01*
X133648180Y-114870498D01*
X133528482Y-114834188D01*
X133404000Y-114821928D01*
X132939750Y-114825000D01*
X132781000Y-114983750D01*
X132781000Y-116083000D01*
X132801000Y-116083000D01*
X132801000Y-116337000D01*
X132781000Y-116337000D01*
X132781000Y-116357000D01*
X132527000Y-116357000D01*
X132527000Y-116337000D01*
X132507000Y-116337000D01*
X132507000Y-116083000D01*
X132527000Y-116083000D01*
X132527000Y-114983750D01*
X132368250Y-114825000D01*
X131904000Y-114821928D01*
X131779518Y-114834188D01*
X131659820Y-114870498D01*
X131549506Y-114929463D01*
X131452815Y-115008815D01*
X131373463Y-115105506D01*
X131314498Y-115215820D01*
X131278188Y-115335518D01*
X131265928Y-115460000D01*
X131267620Y-115715719D01*
X131052069Y-115500167D01*
X131192680Y-115289727D01*
X131300853Y-115028574D01*
X131356000Y-114751335D01*
X131356000Y-114468665D01*
X131300853Y-114191426D01*
X131192680Y-113930273D01*
X131035637Y-113695241D01*
X130835759Y-113495363D01*
X130600727Y-113338320D01*
X130339574Y-113230147D01*
X130062335Y-113175000D01*
X129779665Y-113175000D01*
X129502426Y-113230147D01*
X129241273Y-113338320D01*
X129006241Y-113495363D01*
X128948900Y-113552704D01*
X128948900Y-111531401D01*
X131247263Y-109233038D01*
X131325068Y-109378601D01*
X131504392Y-109597108D01*
X131722899Y-109776432D01*
X131972192Y-109909682D01*
X132242691Y-109991736D01*
X132453508Y-110012500D01*
X132594492Y-110012500D01*
X132805309Y-109991736D01*
X133075808Y-109909682D01*
X133325101Y-109776432D01*
X133543608Y-109597108D01*
X133722932Y-109378601D01*
X133856182Y-109129308D01*
X133938236Y-108858809D01*
X133944073Y-108799539D01*
X138372096Y-108799539D01*
X138412754Y-108933587D01*
X138532963Y-109187920D01*
X138700481Y-109413914D01*
X138908869Y-109602885D01*
X139150119Y-109747570D01*
X139414960Y-109842409D01*
X139637000Y-109721124D01*
X139637000Y-108577500D01*
X139891000Y-108577500D01*
X139891000Y-109721124D01*
X140113040Y-109842409D01*
X140377881Y-109747570D01*
X140619131Y-109602885D01*
X140827519Y-109413914D01*
X140995037Y-109187920D01*
X141115246Y-108933587D01*
X141155904Y-108799539D01*
X141033915Y-108577500D01*
X139891000Y-108577500D01*
X139637000Y-108577500D01*
X138494085Y-108577500D01*
X138372096Y-108799539D01*
X133944073Y-108799539D01*
X133965943Y-108577500D01*
X133938236Y-108296191D01*
X133856182Y-108025692D01*
X133722932Y-107776399D01*
X133543608Y-107557892D01*
X133325101Y-107378568D01*
X133262840Y-107345289D01*
X133273003Y-107311786D01*
X133277942Y-107261639D01*
X133325101Y-107236432D01*
X133543608Y-107057108D01*
X133722932Y-106838601D01*
X133856182Y-106589308D01*
X133938236Y-106318809D01*
X133965943Y-106037500D01*
X133938236Y-105756191D01*
X133856182Y-105485692D01*
X133722932Y-105236399D01*
X133543608Y-105017892D01*
X133325101Y-104838568D01*
X133192142Y-104767500D01*
X133325101Y-104696432D01*
X133543608Y-104517108D01*
X133722932Y-104298601D01*
X133856182Y-104049308D01*
X133938236Y-103778809D01*
X133965943Y-103497500D01*
X133938236Y-103216191D01*
X133856182Y-102945692D01*
X133722932Y-102696399D01*
X133543608Y-102477892D01*
X133325101Y-102298568D01*
X133192142Y-102227500D01*
X133325101Y-102156432D01*
X133543608Y-101977108D01*
X133722932Y-101758601D01*
X133856182Y-101509308D01*
X133938236Y-101238809D01*
X133965943Y-100957500D01*
X133938236Y-100676191D01*
X133856182Y-100405692D01*
X133722932Y-100156399D01*
X133595859Y-100001560D01*
X138627556Y-105033258D01*
X138627556Y-105033258D01*
G37*
X138627556Y-105033258D02*
X138565068Y-105109399D01*
X138431818Y-105358692D01*
X138349764Y-105629191D01*
X138322057Y-105910500D01*
X138349764Y-106191809D01*
X138431818Y-106462308D01*
X138565068Y-106711601D01*
X138744392Y-106930108D01*
X138962899Y-107109432D01*
X139100682Y-107183079D01*
X138908869Y-107298115D01*
X138700481Y-107487086D01*
X138532963Y-107713080D01*
X138412754Y-107967413D01*
X138372096Y-108101461D01*
X138494085Y-108323500D01*
X139637000Y-108323500D01*
X139637000Y-108303500D01*
X139891000Y-108303500D01*
X139891000Y-108323500D01*
X141033915Y-108323500D01*
X141155904Y-108101461D01*
X141115246Y-107967413D01*
X140995037Y-107713080D01*
X140827519Y-107487086D01*
X140619131Y-107298115D01*
X140427318Y-107183079D01*
X140565101Y-107109432D01*
X140783608Y-106930108D01*
X140962932Y-106711601D01*
X141096182Y-106462308D01*
X141178236Y-106191809D01*
X141205943Y-105910500D01*
X141178236Y-105629191D01*
X141152758Y-105545200D01*
X144818599Y-105545200D01*
X145694901Y-106421503D01*
X145718699Y-106450501D01*
X145783871Y-106503986D01*
X145834424Y-106545474D01*
X145966453Y-106616046D01*
X146109714Y-106659503D01*
X146159861Y-106664442D01*
X146185068Y-106711601D01*
X146364392Y-106930108D01*
X146582899Y-107109432D01*
X146715858Y-107180500D01*
X146582899Y-107251568D01*
X146364392Y-107430892D01*
X146185068Y-107649399D01*
X146051818Y-107898692D01*
X145969764Y-108169191D01*
X145942057Y-108450500D01*
X145969764Y-108731809D01*
X146051818Y-109002308D01*
X146185068Y-109251601D01*
X146364392Y-109470108D01*
X146582899Y-109649432D01*
X146795991Y-109763332D01*
X146650026Y-109860863D01*
X146505863Y-110005026D01*
X146392595Y-110174544D01*
X146314574Y-110362902D01*
X146274800Y-110562861D01*
X146274800Y-110766739D01*
X146314574Y-110966698D01*
X146392595Y-111155056D01*
X146505863Y-111324574D01*
X146650026Y-111468737D01*
X146819544Y-111582005D01*
X147007902Y-111660026D01*
X147207861Y-111699800D01*
X147411739Y-111699800D01*
X147611698Y-111660026D01*
X147800056Y-111582005D01*
X147969574Y-111468737D01*
X148013511Y-111424800D01*
X153163199Y-111424800D01*
X156195444Y-114457045D01*
X156122163Y-114530326D01*
X156008895Y-114699844D01*
X155930874Y-114888202D01*
X155891100Y-115088161D01*
X155891100Y-115114763D01*
X155716335Y-115080000D01*
X155433665Y-115080000D01*
X155251114Y-115116312D01*
X154625704Y-114490903D01*
X154601901Y-114461899D01*
X154486176Y-114366926D01*
X154354147Y-114296354D01*
X154210886Y-114252897D01*
X154099233Y-114241900D01*
X154099222Y-114241900D01*
X154061900Y-114238224D01*
X154024578Y-114241900D01*
X136439422Y-114241900D01*
X136402099Y-114238224D01*
X136364776Y-114241900D01*
X136364767Y-114241900D01*
X136253114Y-114252897D01*
X136109853Y-114296354D01*
X135977824Y-114366926D01*
X135977822Y-114366927D01*
X135977823Y-114366927D01*
X135891096Y-114438101D01*
X135891092Y-114438105D01*
X135862099Y-114461899D01*
X135838305Y-114490892D01*
X135475364Y-114853833D01*
X135330411Y-114825000D01*
X135057589Y-114825000D01*
X134790011Y-114878225D01*
X134537957Y-114982629D01*
X134311114Y-115134201D01*
X134118201Y-115327114D01*
X134040445Y-115443483D01*
X134029812Y-115335518D01*
X133993502Y-115215820D01*
X133934537Y-115105506D01*
X133855185Y-115008815D01*
X133758494Y-114929463D01*
X133648180Y-114870498D01*
X133528482Y-114834188D01*
X133404000Y-114821928D01*
X132939750Y-114825000D01*
X132781000Y-114983750D01*
X132781000Y-116083000D01*
X132801000Y-116083000D01*
X132801000Y-116337000D01*
X132781000Y-116337000D01*
X132781000Y-116357000D01*
X132527000Y-116357000D01*
X132527000Y-116337000D01*
X132507000Y-116337000D01*
X132507000Y-116083000D01*
X132527000Y-116083000D01*
X132527000Y-114983750D01*
X132368250Y-114825000D01*
X131904000Y-114821928D01*
X131779518Y-114834188D01*
X131659820Y-114870498D01*
X131549506Y-114929463D01*
X131452815Y-115008815D01*
X131373463Y-115105506D01*
X131314498Y-115215820D01*
X131278188Y-115335518D01*
X131265928Y-115460000D01*
X131267620Y-115715719D01*
X131052069Y-115500167D01*
X131192680Y-115289727D01*
X131300853Y-115028574D01*
X131356000Y-114751335D01*
X131356000Y-114468665D01*
X131300853Y-114191426D01*
X131192680Y-113930273D01*
X131035637Y-113695241D01*
X130835759Y-113495363D01*
X130600727Y-113338320D01*
X130339574Y-113230147D01*
X130062335Y-113175000D01*
X129779665Y-113175000D01*
X129502426Y-113230147D01*
X129241273Y-113338320D01*
X129006241Y-113495363D01*
X128948900Y-113552704D01*
X128948900Y-111531401D01*
X131247263Y-109233038D01*
X131325068Y-109378601D01*
X131504392Y-109597108D01*
X131722899Y-109776432D01*
X131972192Y-109909682D01*
X132242691Y-109991736D01*
X132453508Y-110012500D01*
X132594492Y-110012500D01*
X132805309Y-109991736D01*
X133075808Y-109909682D01*
X133325101Y-109776432D01*
X133543608Y-109597108D01*
X133722932Y-109378601D01*
X133856182Y-109129308D01*
X133938236Y-108858809D01*
X133944073Y-108799539D01*
X138372096Y-108799539D01*
X138412754Y-108933587D01*
X138532963Y-109187920D01*
X138700481Y-109413914D01*
X138908869Y-109602885D01*
X139150119Y-109747570D01*
X139414960Y-109842409D01*
X139637000Y-109721124D01*
X139637000Y-108577500D01*
X139891000Y-108577500D01*
X139891000Y-109721124D01*
X140113040Y-109842409D01*
X140377881Y-109747570D01*
X140619131Y-109602885D01*
X140827519Y-109413914D01*
X140995037Y-109187920D01*
X141115246Y-108933587D01*
X141155904Y-108799539D01*
X141033915Y-108577500D01*
X139891000Y-108577500D01*
X139637000Y-108577500D01*
X138494085Y-108577500D01*
X138372096Y-108799539D01*
X133944073Y-108799539D01*
X133965943Y-108577500D01*
X133938236Y-108296191D01*
X133856182Y-108025692D01*
X133722932Y-107776399D01*
X133543608Y-107557892D01*
X133325101Y-107378568D01*
X133262840Y-107345289D01*
X133273003Y-107311786D01*
X133277942Y-107261639D01*
X133325101Y-107236432D01*
X133543608Y-107057108D01*
X133722932Y-106838601D01*
X133856182Y-106589308D01*
X133938236Y-106318809D01*
X133965943Y-106037500D01*
X133938236Y-105756191D01*
X133856182Y-105485692D01*
X133722932Y-105236399D01*
X133543608Y-105017892D01*
X133325101Y-104838568D01*
X133192142Y-104767500D01*
X133325101Y-104696432D01*
X133543608Y-104517108D01*
X133722932Y-104298601D01*
X133856182Y-104049308D01*
X133938236Y-103778809D01*
X133965943Y-103497500D01*
X133938236Y-103216191D01*
X133856182Y-102945692D01*
X133722932Y-102696399D01*
X133543608Y-102477892D01*
X133325101Y-102298568D01*
X133192142Y-102227500D01*
X133325101Y-102156432D01*
X133543608Y-101977108D01*
X133722932Y-101758601D01*
X133856182Y-101509308D01*
X133938236Y-101238809D01*
X133965943Y-100957500D01*
X133938236Y-100676191D01*
X133856182Y-100405692D01*
X133722932Y-100156399D01*
X133595859Y-100001560D01*
X138627556Y-105033258D01*
G36*
X156460392Y-87054608D02*
G01*
X156678899Y-87233932D01*
X156811858Y-87305000D01*
X156678899Y-87376068D01*
X156460392Y-87555392D01*
X156281068Y-87773899D01*
X156147818Y-88023192D01*
X156065764Y-88293691D01*
X156038057Y-88575000D01*
X156065764Y-88856309D01*
X156147818Y-89126808D01*
X156281068Y-89376101D01*
X156460392Y-89594608D01*
X156678899Y-89773932D01*
X156811858Y-89845000D01*
X156678899Y-89916068D01*
X156460392Y-90095392D01*
X156281068Y-90313899D01*
X156147818Y-90563192D01*
X156065764Y-90833691D01*
X156038057Y-91115000D01*
X156065764Y-91396309D01*
X156147818Y-91666808D01*
X156281068Y-91916101D01*
X156460392Y-92134608D01*
X156678899Y-92313932D01*
X156811858Y-92385000D01*
X156678899Y-92456068D01*
X156460392Y-92635392D01*
X156281068Y-92853899D01*
X156147818Y-93103192D01*
X156065764Y-93373691D01*
X156038057Y-93655000D01*
X156065764Y-93936309D01*
X156147818Y-94206808D01*
X156281068Y-94456101D01*
X156460392Y-94674608D01*
X156678899Y-94853932D01*
X156811858Y-94925000D01*
X156678899Y-94996068D01*
X156460392Y-95175392D01*
X156281068Y-95393899D01*
X156147818Y-95643192D01*
X156065764Y-95913691D01*
X156038057Y-96195000D01*
X156065764Y-96476309D01*
X156147818Y-96746808D01*
X156281068Y-96996101D01*
X156460392Y-97214608D01*
X156678899Y-97393932D01*
X156811858Y-97465000D01*
X156678899Y-97536068D01*
X156460392Y-97715392D01*
X156281068Y-97933899D01*
X156147818Y-98183192D01*
X156065764Y-98453691D01*
X156038057Y-98735000D01*
X156065764Y-99016309D01*
X156147818Y-99286808D01*
X156281068Y-99536101D01*
X156460392Y-99754608D01*
X156678899Y-99933932D01*
X156811858Y-100005000D01*
X156678899Y-100076068D01*
X156460392Y-100255392D01*
X156437630Y-100283128D01*
X152519304Y-96364803D01*
X152495501Y-96335799D01*
X152379776Y-96240826D01*
X152247747Y-96170254D01*
X152104486Y-96126797D01*
X151992833Y-96115800D01*
X151992822Y-96115800D01*
X151955500Y-96112124D01*
X151918178Y-96115800D01*
X148772758Y-96115800D01*
X148798236Y-96031809D01*
X148825943Y-95750500D01*
X148798236Y-95469191D01*
X148716182Y-95198692D01*
X148582932Y-94949399D01*
X148403608Y-94730892D01*
X148185101Y-94551568D01*
X148052142Y-94480500D01*
X148185101Y-94409432D01*
X148403608Y-94230108D01*
X148582932Y-94011601D01*
X148716182Y-93762308D01*
X148798236Y-93491809D01*
X148825943Y-93210500D01*
X148798236Y-92929191D01*
X148716182Y-92658692D01*
X148582932Y-92409399D01*
X148413519Y-92202969D01*
X148456654Y-92159834D01*
X148492344Y-92130544D01*
X148609186Y-91988172D01*
X148696007Y-91825740D01*
X148749471Y-91649492D01*
X148763000Y-91512132D01*
X148767524Y-91466200D01*
X148763000Y-91420268D01*
X148763000Y-90875896D01*
X148942637Y-90696259D01*
X149099680Y-90461227D01*
X149207853Y-90200074D01*
X149263000Y-89922835D01*
X149263000Y-89640165D01*
X149207853Y-89362926D01*
X149099680Y-89101773D01*
X148942637Y-88866741D01*
X148742759Y-88666863D01*
X148507727Y-88509820D01*
X148246574Y-88401647D01*
X147969335Y-88346500D01*
X147686665Y-88346500D01*
X147409426Y-88401647D01*
X147148273Y-88509820D01*
X146913241Y-88666863D01*
X146713363Y-88866741D01*
X146579308Y-89067369D01*
X146564671Y-89039986D01*
X146320702Y-88968403D01*
X145507605Y-89781500D01*
X146320702Y-90594597D01*
X146564671Y-90523014D01*
X146578324Y-90494159D01*
X146713363Y-90696259D01*
X146893001Y-90875897D01*
X146893001Y-91078911D01*
X146755337Y-91216574D01*
X146719657Y-91245856D01*
X146602815Y-91388228D01*
X146530963Y-91522654D01*
X146515994Y-91550660D01*
X146462529Y-91726909D01*
X146444476Y-91910200D01*
X146449001Y-91956141D01*
X146449001Y-92121455D01*
X146364392Y-92190892D01*
X146294956Y-92275500D01*
X141186621Y-92275500D01*
X141153502Y-92166320D01*
X141094537Y-92056006D01*
X141015185Y-91959315D01*
X140918494Y-91879963D01*
X140808180Y-91820998D01*
X140688482Y-91784688D01*
X140625606Y-91778495D01*
X141629899Y-90774202D01*
X144514903Y-90774202D01*
X144586486Y-91018171D01*
X144841996Y-91139071D01*
X145116184Y-91207800D01*
X145398512Y-91221717D01*
X145678130Y-91180287D01*
X145944292Y-91085103D01*
X146069514Y-91018171D01*
X146141097Y-90774202D01*
X145328000Y-89961105D01*
X144514903Y-90774202D01*
X141629899Y-90774202D01*
X142552089Y-89852012D01*
X143887783Y-89852012D01*
X143929213Y-90131630D01*
X144024397Y-90397792D01*
X144091329Y-90523014D01*
X144335298Y-90594597D01*
X145148395Y-89781500D01*
X144335298Y-88968403D01*
X144091329Y-89039986D01*
X143970429Y-89295496D01*
X143901700Y-89569684D01*
X143887783Y-89852012D01*
X142552089Y-89852012D01*
X143615303Y-88788798D01*
X144514903Y-88788798D01*
X145328000Y-89601895D01*
X146141097Y-88788798D01*
X146069514Y-88544829D01*
X145814004Y-88423929D01*
X145539816Y-88355200D01*
X145257488Y-88341283D01*
X144977870Y-88382713D01*
X144711708Y-88477897D01*
X144586486Y-88544829D01*
X144514903Y-88788798D01*
X143615303Y-88788798D01*
X144172202Y-88231900D01*
X154880478Y-88231900D01*
X154917800Y-88235576D01*
X154955122Y-88231900D01*
X154955133Y-88231900D01*
X155066786Y-88220903D01*
X155210047Y-88177446D01*
X155342076Y-88106874D01*
X155457801Y-88011901D01*
X155481603Y-87982898D01*
X156437630Y-87026872D01*
X156460392Y-87054608D01*
X156460392Y-87054608D01*
G37*
X156460392Y-87054608D02*
X156678899Y-87233932D01*
X156811858Y-87305000D01*
X156678899Y-87376068D01*
X156460392Y-87555392D01*
X156281068Y-87773899D01*
X156147818Y-88023192D01*
X156065764Y-88293691D01*
X156038057Y-88575000D01*
X156065764Y-88856309D01*
X156147818Y-89126808D01*
X156281068Y-89376101D01*
X156460392Y-89594608D01*
X156678899Y-89773932D01*
X156811858Y-89845000D01*
X156678899Y-89916068D01*
X156460392Y-90095392D01*
X156281068Y-90313899D01*
X156147818Y-90563192D01*
X156065764Y-90833691D01*
X156038057Y-91115000D01*
X156065764Y-91396309D01*
X156147818Y-91666808D01*
X156281068Y-91916101D01*
X156460392Y-92134608D01*
X156678899Y-92313932D01*
X156811858Y-92385000D01*
X156678899Y-92456068D01*
X156460392Y-92635392D01*
X156281068Y-92853899D01*
X156147818Y-93103192D01*
X156065764Y-93373691D01*
X156038057Y-93655000D01*
X156065764Y-93936309D01*
X156147818Y-94206808D01*
X156281068Y-94456101D01*
X156460392Y-94674608D01*
X156678899Y-94853932D01*
X156811858Y-94925000D01*
X156678899Y-94996068D01*
X156460392Y-95175392D01*
X156281068Y-95393899D01*
X156147818Y-95643192D01*
X156065764Y-95913691D01*
X156038057Y-96195000D01*
X156065764Y-96476309D01*
X156147818Y-96746808D01*
X156281068Y-96996101D01*
X156460392Y-97214608D01*
X156678899Y-97393932D01*
X156811858Y-97465000D01*
X156678899Y-97536068D01*
X156460392Y-97715392D01*
X156281068Y-97933899D01*
X156147818Y-98183192D01*
X156065764Y-98453691D01*
X156038057Y-98735000D01*
X156065764Y-99016309D01*
X156147818Y-99286808D01*
X156281068Y-99536101D01*
X156460392Y-99754608D01*
X156678899Y-99933932D01*
X156811858Y-100005000D01*
X156678899Y-100076068D01*
X156460392Y-100255392D01*
X156437630Y-100283128D01*
X152519304Y-96364803D01*
X152495501Y-96335799D01*
X152379776Y-96240826D01*
X152247747Y-96170254D01*
X152104486Y-96126797D01*
X151992833Y-96115800D01*
X151992822Y-96115800D01*
X151955500Y-96112124D01*
X151918178Y-96115800D01*
X148772758Y-96115800D01*
X148798236Y-96031809D01*
X148825943Y-95750500D01*
X148798236Y-95469191D01*
X148716182Y-95198692D01*
X148582932Y-94949399D01*
X148403608Y-94730892D01*
X148185101Y-94551568D01*
X148052142Y-94480500D01*
X148185101Y-94409432D01*
X148403608Y-94230108D01*
X148582932Y-94011601D01*
X148716182Y-93762308D01*
X148798236Y-93491809D01*
X148825943Y-93210500D01*
X148798236Y-92929191D01*
X148716182Y-92658692D01*
X148582932Y-92409399D01*
X148413519Y-92202969D01*
X148456654Y-92159834D01*
X148492344Y-92130544D01*
X148609186Y-91988172D01*
X148696007Y-91825740D01*
X148749471Y-91649492D01*
X148763000Y-91512132D01*
X148767524Y-91466200D01*
X148763000Y-91420268D01*
X148763000Y-90875896D01*
X148942637Y-90696259D01*
X149099680Y-90461227D01*
X149207853Y-90200074D01*
X149263000Y-89922835D01*
X149263000Y-89640165D01*
X149207853Y-89362926D01*
X149099680Y-89101773D01*
X148942637Y-88866741D01*
X148742759Y-88666863D01*
X148507727Y-88509820D01*
X148246574Y-88401647D01*
X147969335Y-88346500D01*
X147686665Y-88346500D01*
X147409426Y-88401647D01*
X147148273Y-88509820D01*
X146913241Y-88666863D01*
X146713363Y-88866741D01*
X146579308Y-89067369D01*
X146564671Y-89039986D01*
X146320702Y-88968403D01*
X145507605Y-89781500D01*
X146320702Y-90594597D01*
X146564671Y-90523014D01*
X146578324Y-90494159D01*
X146713363Y-90696259D01*
X146893001Y-90875897D01*
X146893001Y-91078911D01*
X146755337Y-91216574D01*
X146719657Y-91245856D01*
X146602815Y-91388228D01*
X146530963Y-91522654D01*
X146515994Y-91550660D01*
X146462529Y-91726909D01*
X146444476Y-91910200D01*
X146449001Y-91956141D01*
X146449001Y-92121455D01*
X146364392Y-92190892D01*
X146294956Y-92275500D01*
X141186621Y-92275500D01*
X141153502Y-92166320D01*
X141094537Y-92056006D01*
X141015185Y-91959315D01*
X140918494Y-91879963D01*
X140808180Y-91820998D01*
X140688482Y-91784688D01*
X140625606Y-91778495D01*
X141629899Y-90774202D01*
X144514903Y-90774202D01*
X144586486Y-91018171D01*
X144841996Y-91139071D01*
X145116184Y-91207800D01*
X145398512Y-91221717D01*
X145678130Y-91180287D01*
X145944292Y-91085103D01*
X146069514Y-91018171D01*
X146141097Y-90774202D01*
X145328000Y-89961105D01*
X144514903Y-90774202D01*
X141629899Y-90774202D01*
X142552089Y-89852012D01*
X143887783Y-89852012D01*
X143929213Y-90131630D01*
X144024397Y-90397792D01*
X144091329Y-90523014D01*
X144335298Y-90594597D01*
X145148395Y-89781500D01*
X144335298Y-88968403D01*
X144091329Y-89039986D01*
X143970429Y-89295496D01*
X143901700Y-89569684D01*
X143887783Y-89852012D01*
X142552089Y-89852012D01*
X143615303Y-88788798D01*
X144514903Y-88788798D01*
X145328000Y-89601895D01*
X146141097Y-88788798D01*
X146069514Y-88544829D01*
X145814004Y-88423929D01*
X145539816Y-88355200D01*
X145257488Y-88341283D01*
X144977870Y-88382713D01*
X144711708Y-88477897D01*
X144586486Y-88544829D01*
X144514903Y-88788798D01*
X143615303Y-88788798D01*
X144172202Y-88231900D01*
X154880478Y-88231900D01*
X154917800Y-88235576D01*
X154955122Y-88231900D01*
X154955133Y-88231900D01*
X155066786Y-88220903D01*
X155210047Y-88177446D01*
X155342076Y-88106874D01*
X155457801Y-88011901D01*
X155481603Y-87982898D01*
X156437630Y-87026872D01*
X156460392Y-87054608D01*
G36*
X171305764Y-93373691D02*
G01*
X171278057Y-93655000D01*
X171305764Y-93936309D01*
X171387818Y-94206808D01*
X171521068Y-94456101D01*
X171700392Y-94674608D01*
X171918899Y-94853932D01*
X172056682Y-94927579D01*
X171864869Y-95042615D01*
X171656481Y-95231586D01*
X171488963Y-95457580D01*
X171368754Y-95711913D01*
X171328096Y-95845961D01*
X171450085Y-96068000D01*
X172593000Y-96068000D01*
X172593000Y-96048000D01*
X172847000Y-96048000D01*
X172847000Y-96068000D01*
X172867000Y-96068000D01*
X172867000Y-96322000D01*
X172847000Y-96322000D01*
X172847000Y-96342000D01*
X172593000Y-96342000D01*
X172593000Y-96322000D01*
X171450085Y-96322000D01*
X171328096Y-96544039D01*
X171336365Y-96571300D01*
X160056402Y-96571300D01*
X159169104Y-95684002D01*
X159145301Y-95654999D01*
X159029576Y-95560026D01*
X158897547Y-95489454D01*
X158754286Y-95445997D01*
X158704139Y-95441058D01*
X158678932Y-95393899D01*
X158499608Y-95175392D01*
X158281101Y-94996068D01*
X158148142Y-94925000D01*
X158281101Y-94853932D01*
X158499608Y-94674608D01*
X158678932Y-94456101D01*
X158704139Y-94408942D01*
X158754286Y-94404003D01*
X158897547Y-94360546D01*
X159029576Y-94289974D01*
X159145301Y-94195001D01*
X159169104Y-94165998D01*
X160053302Y-93281800D01*
X171333638Y-93281800D01*
X171305764Y-93373691D01*
X171305764Y-93373691D01*
G37*
X171305764Y-93373691D02*
X171278057Y-93655000D01*
X171305764Y-93936309D01*
X171387818Y-94206808D01*
X171521068Y-94456101D01*
X171700392Y-94674608D01*
X171918899Y-94853932D01*
X172056682Y-94927579D01*
X171864869Y-95042615D01*
X171656481Y-95231586D01*
X171488963Y-95457580D01*
X171368754Y-95711913D01*
X171328096Y-95845961D01*
X171450085Y-96068000D01*
X172593000Y-96068000D01*
X172593000Y-96048000D01*
X172847000Y-96048000D01*
X172847000Y-96068000D01*
X172867000Y-96068000D01*
X172867000Y-96322000D01*
X172847000Y-96322000D01*
X172847000Y-96342000D01*
X172593000Y-96342000D01*
X172593000Y-96322000D01*
X171450085Y-96322000D01*
X171328096Y-96544039D01*
X171336365Y-96571300D01*
X160056402Y-96571300D01*
X159169104Y-95684002D01*
X159145301Y-95654999D01*
X159029576Y-95560026D01*
X158897547Y-95489454D01*
X158754286Y-95445997D01*
X158704139Y-95441058D01*
X158678932Y-95393899D01*
X158499608Y-95175392D01*
X158281101Y-94996068D01*
X158148142Y-94925000D01*
X158281101Y-94853932D01*
X158499608Y-94674608D01*
X158678932Y-94456101D01*
X158704139Y-94408942D01*
X158754286Y-94404003D01*
X158897547Y-94360546D01*
X159029576Y-94289974D01*
X159145301Y-94195001D01*
X159169104Y-94165998D01*
X160053302Y-93281800D01*
X171333638Y-93281800D01*
X171305764Y-93373691D01*
G36*
X145675298Y-85130400D02*
G01*
X141276942Y-85130400D01*
X141281904Y-85114039D01*
X141159915Y-84892000D01*
X140017000Y-84892000D01*
X140017000Y-84912000D01*
X139763000Y-84912000D01*
X139763000Y-84892000D01*
X138620085Y-84892000D01*
X138498096Y-85114039D01*
X138516017Y-85173125D01*
X138477353Y-85184854D01*
X138345324Y-85255426D01*
X138229599Y-85350399D01*
X138205801Y-85379397D01*
X134319129Y-89266070D01*
X134303680Y-89228773D01*
X134146637Y-88993741D01*
X133946759Y-88793863D01*
X133711727Y-88636820D01*
X133450574Y-88528647D01*
X133173335Y-88473500D01*
X132890665Y-88473500D01*
X132613426Y-88528647D01*
X132352273Y-88636820D01*
X132117241Y-88793863D01*
X131917363Y-88993741D01*
X131783308Y-89194369D01*
X131768671Y-89166986D01*
X131524702Y-89095403D01*
X130711605Y-89908500D01*
X130725748Y-89922643D01*
X130546143Y-90102248D01*
X130532000Y-90088105D01*
X130517858Y-90102248D01*
X130338253Y-89922643D01*
X130352395Y-89908500D01*
X129539298Y-89095403D01*
X129295329Y-89166986D01*
X129174429Y-89422496D01*
X129105700Y-89696684D01*
X129091783Y-89979012D01*
X129133213Y-90258630D01*
X129155160Y-90320000D01*
X126295101Y-90320000D01*
X127699303Y-88915798D01*
X129718903Y-88915798D01*
X130532000Y-89728895D01*
X131345097Y-88915798D01*
X131273514Y-88671829D01*
X131018004Y-88550929D01*
X130743816Y-88482200D01*
X130461488Y-88468283D01*
X130181870Y-88509713D01*
X129915708Y-88604897D01*
X129790486Y-88671829D01*
X129718903Y-88915798D01*
X127699303Y-88915798D01*
X130057302Y-86557800D01*
X130354389Y-86557800D01*
X130398326Y-86601737D01*
X130567844Y-86715005D01*
X130756202Y-86793026D01*
X130956161Y-86832800D01*
X131160039Y-86832800D01*
X131359998Y-86793026D01*
X131548356Y-86715005D01*
X131717874Y-86601737D01*
X131862037Y-86457574D01*
X131975305Y-86288056D01*
X132053326Y-86099698D01*
X132058974Y-86071302D01*
X132226192Y-86160682D01*
X132496691Y-86242736D01*
X132707508Y-86263500D01*
X132848492Y-86263500D01*
X133059309Y-86242736D01*
X133329808Y-86160682D01*
X133579101Y-86027432D01*
X133797608Y-85848108D01*
X133976932Y-85629601D01*
X134110182Y-85380308D01*
X134192236Y-85109809D01*
X134219943Y-84828500D01*
X134192236Y-84547191D01*
X134110182Y-84276692D01*
X134085652Y-84230800D01*
X135173489Y-84230800D01*
X135217426Y-84274737D01*
X135386944Y-84388005D01*
X135575302Y-84466026D01*
X135775261Y-84505800D01*
X135979139Y-84505800D01*
X136179098Y-84466026D01*
X136367456Y-84388005D01*
X136536974Y-84274737D01*
X136681137Y-84130574D01*
X136794405Y-83961056D01*
X136872426Y-83772698D01*
X136912200Y-83572739D01*
X136912200Y-83368861D01*
X136872426Y-83168902D01*
X136796251Y-82985000D01*
X138669099Y-82985000D01*
X138691068Y-83026101D01*
X138870392Y-83244608D01*
X139088899Y-83423932D01*
X139226682Y-83497579D01*
X139034869Y-83612615D01*
X138826481Y-83801586D01*
X138658963Y-84027580D01*
X138538754Y-84281913D01*
X138498096Y-84415961D01*
X138620085Y-84638000D01*
X139763000Y-84638000D01*
X139763000Y-84618000D01*
X140017000Y-84618000D01*
X140017000Y-84638000D01*
X141159915Y-84638000D01*
X141281904Y-84415961D01*
X141241246Y-84281913D01*
X141121037Y-84027580D01*
X140953519Y-83801586D01*
X140745131Y-83612615D01*
X140553318Y-83497579D01*
X140691101Y-83423932D01*
X140909608Y-83244608D01*
X141088932Y-83026101D01*
X141222182Y-82776808D01*
X141304236Y-82506309D01*
X141331943Y-82225000D01*
X141304236Y-81943691D01*
X141234864Y-81715000D01*
X142259899Y-81715000D01*
X145675298Y-85130400D01*
X145675298Y-85130400D01*
G37*
X145675298Y-85130400D02*
X141276942Y-85130400D01*
X141281904Y-85114039D01*
X141159915Y-84892000D01*
X140017000Y-84892000D01*
X140017000Y-84912000D01*
X139763000Y-84912000D01*
X139763000Y-84892000D01*
X138620085Y-84892000D01*
X138498096Y-85114039D01*
X138516017Y-85173125D01*
X138477353Y-85184854D01*
X138345324Y-85255426D01*
X138229599Y-85350399D01*
X138205801Y-85379397D01*
X134319129Y-89266070D01*
X134303680Y-89228773D01*
X134146637Y-88993741D01*
X133946759Y-88793863D01*
X133711727Y-88636820D01*
X133450574Y-88528647D01*
X133173335Y-88473500D01*
X132890665Y-88473500D01*
X132613426Y-88528647D01*
X132352273Y-88636820D01*
X132117241Y-88793863D01*
X131917363Y-88993741D01*
X131783308Y-89194369D01*
X131768671Y-89166986D01*
X131524702Y-89095403D01*
X130711605Y-89908500D01*
X130725748Y-89922643D01*
X130546143Y-90102248D01*
X130532000Y-90088105D01*
X130517858Y-90102248D01*
X130338253Y-89922643D01*
X130352395Y-89908500D01*
X129539298Y-89095403D01*
X129295329Y-89166986D01*
X129174429Y-89422496D01*
X129105700Y-89696684D01*
X129091783Y-89979012D01*
X129133213Y-90258630D01*
X129155160Y-90320000D01*
X126295101Y-90320000D01*
X127699303Y-88915798D01*
X129718903Y-88915798D01*
X130532000Y-89728895D01*
X131345097Y-88915798D01*
X131273514Y-88671829D01*
X131018004Y-88550929D01*
X130743816Y-88482200D01*
X130461488Y-88468283D01*
X130181870Y-88509713D01*
X129915708Y-88604897D01*
X129790486Y-88671829D01*
X129718903Y-88915798D01*
X127699303Y-88915798D01*
X130057302Y-86557800D01*
X130354389Y-86557800D01*
X130398326Y-86601737D01*
X130567844Y-86715005D01*
X130756202Y-86793026D01*
X130956161Y-86832800D01*
X131160039Y-86832800D01*
X131359998Y-86793026D01*
X131548356Y-86715005D01*
X131717874Y-86601737D01*
X131862037Y-86457574D01*
X131975305Y-86288056D01*
X132053326Y-86099698D01*
X132058974Y-86071302D01*
X132226192Y-86160682D01*
X132496691Y-86242736D01*
X132707508Y-86263500D01*
X132848492Y-86263500D01*
X133059309Y-86242736D01*
X133329808Y-86160682D01*
X133579101Y-86027432D01*
X133797608Y-85848108D01*
X133976932Y-85629601D01*
X134110182Y-85380308D01*
X134192236Y-85109809D01*
X134219943Y-84828500D01*
X134192236Y-84547191D01*
X134110182Y-84276692D01*
X134085652Y-84230800D01*
X135173489Y-84230800D01*
X135217426Y-84274737D01*
X135386944Y-84388005D01*
X135575302Y-84466026D01*
X135775261Y-84505800D01*
X135979139Y-84505800D01*
X136179098Y-84466026D01*
X136367456Y-84388005D01*
X136536974Y-84274737D01*
X136681137Y-84130574D01*
X136794405Y-83961056D01*
X136872426Y-83772698D01*
X136912200Y-83572739D01*
X136912200Y-83368861D01*
X136872426Y-83168902D01*
X136796251Y-82985000D01*
X138669099Y-82985000D01*
X138691068Y-83026101D01*
X138870392Y-83244608D01*
X139088899Y-83423932D01*
X139226682Y-83497579D01*
X139034869Y-83612615D01*
X138826481Y-83801586D01*
X138658963Y-84027580D01*
X138538754Y-84281913D01*
X138498096Y-84415961D01*
X138620085Y-84638000D01*
X139763000Y-84638000D01*
X139763000Y-84618000D01*
X140017000Y-84618000D01*
X140017000Y-84638000D01*
X141159915Y-84638000D01*
X141281904Y-84415961D01*
X141241246Y-84281913D01*
X141121037Y-84027580D01*
X140953519Y-83801586D01*
X140745131Y-83612615D01*
X140553318Y-83497579D01*
X140691101Y-83423932D01*
X140909608Y-83244608D01*
X141088932Y-83026101D01*
X141222182Y-82776808D01*
X141304236Y-82506309D01*
X141331943Y-82225000D01*
X141304236Y-81943691D01*
X141234864Y-81715000D01*
X142259899Y-81715000D01*
X145675298Y-85130400D01*
M02*
