G04 #@! TF.GenerationSoftware,KiCad,Pcbnew,(5.0.0-3-g5ebb6b6)*
G04 #@! TF.CreationDate,2018-12-06T20:17:27+09:00*
G04 #@! TF.ProjectId,Z80-1MSRAM,5A38302D314D5352414D2E6B69636164,rev?*
G04 #@! TF.SameCoordinates,Original*
G04 #@! TF.FileFunction,Legend,Top*
G04 #@! TF.FilePolarity,Positive*
%FSLAX46Y46*%
G04 Gerber Fmt 4.6, Leading zero omitted, Abs format (unit mm)*
G04 Created by KiCad (PCBNEW (5.0.0-3-g5ebb6b6)) date 2018 December 06, Thursday 20:17:27*
%MOMM*%
%LPD*%
G01*
G04 APERTURE LIST*
%ADD10C,0.150000*%
%ADD11C,0.300000*%
%ADD12C,0.120000*%
G04 APERTURE END LIST*
D10*
X110736523Y-106862571D02*
X110879380Y-106910190D01*
X110927000Y-106957809D01*
X110974619Y-107053047D01*
X110974619Y-107195904D01*
X110927000Y-107291142D01*
X110879380Y-107338761D01*
X110784142Y-107386380D01*
X110403190Y-107386380D01*
X110403190Y-106386380D01*
X110736523Y-106386380D01*
X110831761Y-106434000D01*
X110879380Y-106481619D01*
X110927000Y-106576857D01*
X110927000Y-106672095D01*
X110879380Y-106767333D01*
X110831761Y-106814952D01*
X110736523Y-106862571D01*
X110403190Y-106862571D01*
X111355571Y-107100666D02*
X111831761Y-107100666D01*
X111260333Y-107386380D02*
X111593666Y-106386380D01*
X111927000Y-107386380D01*
X112260333Y-107386380D02*
X112260333Y-106386380D01*
X112831761Y-107386380D01*
X112831761Y-106386380D01*
X113307952Y-107386380D02*
X113307952Y-106386380D01*
X113879380Y-107386380D02*
X113450809Y-106814952D01*
X113879380Y-106386380D02*
X113307952Y-106957809D01*
X115022238Y-107100666D02*
X115498428Y-107100666D01*
X114927000Y-107386380D02*
X115260333Y-106386380D01*
X115593666Y-107386380D01*
X115927000Y-107386380D02*
X115927000Y-106386380D01*
X116165095Y-106386380D01*
X116307952Y-106434000D01*
X116403190Y-106529238D01*
X116450809Y-106624476D01*
X116498428Y-106814952D01*
X116498428Y-106957809D01*
X116450809Y-107148285D01*
X116403190Y-107243523D01*
X116307952Y-107338761D01*
X116165095Y-107386380D01*
X115927000Y-107386380D01*
X116927000Y-107386380D02*
X116927000Y-106386380D01*
X117165095Y-106386380D01*
X117307952Y-106434000D01*
X117403190Y-106529238D01*
X117450809Y-106624476D01*
X117498428Y-106814952D01*
X117498428Y-106957809D01*
X117450809Y-107148285D01*
X117403190Y-107243523D01*
X117307952Y-107338761D01*
X117165095Y-107386380D01*
X116927000Y-107386380D01*
X118498428Y-107386380D02*
X118165095Y-106910190D01*
X117927000Y-107386380D02*
X117927000Y-106386380D01*
X118307952Y-106386380D01*
X118403190Y-106434000D01*
X118450809Y-106481619D01*
X118498428Y-106576857D01*
X118498428Y-106719714D01*
X118450809Y-106814952D01*
X118403190Y-106862571D01*
X118307952Y-106910190D01*
X117927000Y-106910190D01*
X117911190Y-123261428D02*
X117768333Y-123213809D01*
X117720714Y-123166190D01*
X117673095Y-123070952D01*
X117673095Y-122928095D01*
X117720714Y-122832857D01*
X117768333Y-122785238D01*
X117863571Y-122737619D01*
X118244523Y-122737619D01*
X118244523Y-123737619D01*
X117911190Y-123737619D01*
X117815952Y-123690000D01*
X117768333Y-123642380D01*
X117720714Y-123547142D01*
X117720714Y-123451904D01*
X117768333Y-123356666D01*
X117815952Y-123309047D01*
X117911190Y-123261428D01*
X118244523Y-123261428D01*
X117292142Y-123023333D02*
X116815952Y-123023333D01*
X117387380Y-122737619D02*
X117054047Y-123737619D01*
X116720714Y-122737619D01*
X116387380Y-122737619D02*
X116387380Y-123737619D01*
X115815952Y-122737619D01*
X115815952Y-123737619D01*
X115339761Y-122737619D02*
X115339761Y-123737619D01*
X114768333Y-122737619D02*
X115196904Y-123309047D01*
X114768333Y-123737619D02*
X115339761Y-123166190D01*
X113577857Y-122737619D02*
X113577857Y-123737619D01*
X113006428Y-122737619D01*
X113006428Y-123737619D01*
X112387380Y-122737619D02*
X112482619Y-122785238D01*
X112530238Y-122832857D01*
X112577857Y-122928095D01*
X112577857Y-123213809D01*
X112530238Y-123309047D01*
X112482619Y-123356666D01*
X112387380Y-123404285D01*
X112244523Y-123404285D01*
X112149285Y-123356666D01*
X112101666Y-123309047D01*
X112054047Y-123213809D01*
X112054047Y-122928095D01*
X112101666Y-122832857D01*
X112149285Y-122785238D01*
X112244523Y-122737619D01*
X112387380Y-122737619D01*
X111625476Y-122832857D02*
X111577857Y-122785238D01*
X111625476Y-122737619D01*
X111673095Y-122785238D01*
X111625476Y-122832857D01*
X111625476Y-122737619D01*
X118452380Y-130199047D02*
X118452380Y-130770476D01*
X118452380Y-130484761D02*
X117452380Y-130484761D01*
X117595238Y-130580000D01*
X117690476Y-130675238D01*
X117738095Y-130770476D01*
X118452380Y-129770476D02*
X117452380Y-129770476D01*
X118071428Y-129675238D02*
X118452380Y-129389523D01*
X117785714Y-129389523D02*
X118166666Y-129770476D01*
X112162380Y-129949047D02*
X112162380Y-130520476D01*
X112162380Y-130234761D02*
X111162380Y-130234761D01*
X111305238Y-130330000D01*
X111400476Y-130425238D01*
X111448095Y-130520476D01*
X112162380Y-129520476D02*
X111162380Y-129520476D01*
X111781428Y-129425238D02*
X112162380Y-129139523D01*
X111495714Y-129139523D02*
X111876666Y-129520476D01*
X114942952Y-112974380D02*
X114371523Y-112974380D01*
X114657238Y-112974380D02*
X114657238Y-111974380D01*
X114562000Y-112117238D01*
X114466761Y-112212476D01*
X114371523Y-112260095D01*
X115371523Y-112974380D02*
X115371523Y-111974380D01*
X115466761Y-112593428D02*
X115752476Y-112974380D01*
X115752476Y-112307714D02*
X115371523Y-112688666D01*
X110529642Y-98591666D02*
X110577261Y-98639285D01*
X110624880Y-98782142D01*
X110624880Y-98877380D01*
X110577261Y-99020238D01*
X110482023Y-99115476D01*
X110386785Y-99163095D01*
X110196309Y-99210714D01*
X110053452Y-99210714D01*
X109862976Y-99163095D01*
X109767738Y-99115476D01*
X109672500Y-99020238D01*
X109624880Y-98877380D01*
X109624880Y-98782142D01*
X109672500Y-98639285D01*
X109720119Y-98591666D01*
X109624880Y-97972619D02*
X109624880Y-97877380D01*
X109672500Y-97782142D01*
X109720119Y-97734523D01*
X109815357Y-97686904D01*
X110005833Y-97639285D01*
X110243928Y-97639285D01*
X110434404Y-97686904D01*
X110529642Y-97734523D01*
X110577261Y-97782142D01*
X110624880Y-97877380D01*
X110624880Y-97972619D01*
X110577261Y-98067857D01*
X110529642Y-98115476D01*
X110434404Y-98163095D01*
X110243928Y-98210714D01*
X110005833Y-98210714D01*
X109815357Y-98163095D01*
X109720119Y-98115476D01*
X109672500Y-98067857D01*
X109624880Y-97972619D01*
X112656952Y-98932928D02*
X112609333Y-99028166D01*
X112561714Y-99075785D01*
X112466476Y-99123404D01*
X112418857Y-99123404D01*
X112323619Y-99075785D01*
X112276000Y-99028166D01*
X112228380Y-98932928D01*
X112228380Y-98742452D01*
X112276000Y-98647214D01*
X112323619Y-98599595D01*
X112418857Y-98551976D01*
X112466476Y-98551976D01*
X112561714Y-98599595D01*
X112609333Y-98647214D01*
X112656952Y-98742452D01*
X112656952Y-98932928D01*
X112704571Y-99028166D01*
X112752190Y-99075785D01*
X112847428Y-99123404D01*
X113037904Y-99123404D01*
X113133142Y-99075785D01*
X113180761Y-99028166D01*
X113228380Y-98932928D01*
X113228380Y-98742452D01*
X113180761Y-98647214D01*
X113133142Y-98599595D01*
X113037904Y-98551976D01*
X112847428Y-98551976D01*
X112752190Y-98599595D01*
X112704571Y-98647214D01*
X112656952Y-98742452D01*
X112228380Y-97932928D02*
X112228380Y-97837690D01*
X112276000Y-97742452D01*
X112323619Y-97694833D01*
X112418857Y-97647214D01*
X112609333Y-97599595D01*
X112847428Y-97599595D01*
X113037904Y-97647214D01*
X113133142Y-97694833D01*
X113180761Y-97742452D01*
X113228380Y-97837690D01*
X113228380Y-97932928D01*
X113180761Y-98028166D01*
X113133142Y-98075785D01*
X113037904Y-98123404D01*
X112847428Y-98171023D01*
X112609333Y-98171023D01*
X112418857Y-98123404D01*
X112323619Y-98075785D01*
X112276000Y-98028166D01*
X112228380Y-97932928D01*
X115101714Y-98710714D02*
X115768380Y-98710714D01*
X114720761Y-98948809D02*
X115435047Y-99186904D01*
X115435047Y-98567857D01*
X114768380Y-97996428D02*
X114768380Y-97901190D01*
X114816000Y-97805952D01*
X114863619Y-97758333D01*
X114958857Y-97710714D01*
X115149333Y-97663095D01*
X115387428Y-97663095D01*
X115577904Y-97710714D01*
X115673142Y-97758333D01*
X115720761Y-97805952D01*
X115768380Y-97901190D01*
X115768380Y-97996428D01*
X115720761Y-98091666D01*
X115673142Y-98139285D01*
X115577904Y-98186904D01*
X115387428Y-98234523D01*
X115149333Y-98234523D01*
X114958857Y-98186904D01*
X114863619Y-98139285D01*
X114816000Y-98091666D01*
X114768380Y-97996428D01*
X117498880Y-99012309D02*
X117498880Y-98917071D01*
X117546500Y-98821833D01*
X117594119Y-98774214D01*
X117689357Y-98726595D01*
X117879833Y-98678976D01*
X118117928Y-98678976D01*
X118308404Y-98726595D01*
X118403642Y-98774214D01*
X118451261Y-98821833D01*
X118498880Y-98917071D01*
X118498880Y-99012309D01*
X118451261Y-99107547D01*
X118403642Y-99155166D01*
X118308404Y-99202785D01*
X118117928Y-99250404D01*
X117879833Y-99250404D01*
X117689357Y-99202785D01*
X117594119Y-99155166D01*
X117546500Y-99107547D01*
X117498880Y-99012309D01*
X117498880Y-98059928D02*
X117498880Y-97964690D01*
X117546500Y-97869452D01*
X117594119Y-97821833D01*
X117689357Y-97774214D01*
X117879833Y-97726595D01*
X118117928Y-97726595D01*
X118308404Y-97774214D01*
X118403642Y-97821833D01*
X118451261Y-97869452D01*
X118498880Y-97964690D01*
X118498880Y-98059928D01*
X118451261Y-98155166D01*
X118403642Y-98202785D01*
X118308404Y-98250404D01*
X118117928Y-98298023D01*
X117879833Y-98298023D01*
X117689357Y-98250404D01*
X117594119Y-98202785D01*
X117546500Y-98155166D01*
X117498880Y-98059928D01*
D11*
X144394928Y-100913928D02*
X144394928Y-101913928D01*
X142894928Y-101271071D01*
X143894928Y-103128214D02*
X142894928Y-103128214D01*
X144466357Y-102771071D02*
X143394928Y-102413928D01*
X143394928Y-103342500D01*
X142894928Y-103913928D02*
X144394928Y-103913928D01*
X143680642Y-103913928D02*
X143680642Y-104771071D01*
X142894928Y-104771071D02*
X144394928Y-104771071D01*
X143037785Y-106342500D02*
X142966357Y-106271071D01*
X142894928Y-106056785D01*
X142894928Y-105913928D01*
X142966357Y-105699642D01*
X143109214Y-105556785D01*
X143252071Y-105485357D01*
X143537785Y-105413928D01*
X143752071Y-105413928D01*
X144037785Y-105485357D01*
X144180642Y-105556785D01*
X144323500Y-105699642D01*
X144394928Y-105913928D01*
X144394928Y-106056785D01*
X144323500Y-106271071D01*
X144252071Y-106342500D01*
X144394928Y-106842500D02*
X144394928Y-107842500D01*
X142894928Y-107199642D01*
X143894928Y-109056785D02*
X142894928Y-109056785D01*
X144466357Y-108699642D02*
X143394928Y-108342500D01*
X143394928Y-109271071D01*
D10*
X127250476Y-116867619D02*
X127440952Y-116867619D01*
X127536190Y-116820000D01*
X127583809Y-116772380D01*
X127679047Y-116629523D01*
X127726666Y-116439047D01*
X127726666Y-116058095D01*
X127679047Y-115962857D01*
X127631428Y-115915238D01*
X127536190Y-115867619D01*
X127345714Y-115867619D01*
X127250476Y-115915238D01*
X127202857Y-115962857D01*
X127155238Y-116058095D01*
X127155238Y-116296190D01*
X127202857Y-116391428D01*
X127250476Y-116439047D01*
X127345714Y-116486666D01*
X127536190Y-116486666D01*
X127631428Y-116439047D01*
X127679047Y-116391428D01*
X127726666Y-116296190D01*
X126298095Y-116534285D02*
X126298095Y-115867619D01*
X126536190Y-116915238D02*
X126774285Y-116200952D01*
X126155238Y-116200952D01*
X125774285Y-115867619D02*
X125774285Y-116867619D01*
X125679047Y-116248571D02*
X125393333Y-115867619D01*
X125393333Y-116534285D02*
X125774285Y-116153333D01*
X124631428Y-116391428D02*
X124488571Y-116343809D01*
X124440952Y-116296190D01*
X124393333Y-116200952D01*
X124393333Y-116058095D01*
X124440952Y-115962857D01*
X124488571Y-115915238D01*
X124583809Y-115867619D01*
X124964761Y-115867619D01*
X124964761Y-116867619D01*
X124631428Y-116867619D01*
X124536190Y-116820000D01*
X124488571Y-116772380D01*
X124440952Y-116677142D01*
X124440952Y-116581904D01*
X124488571Y-116486666D01*
X124536190Y-116439047D01*
X124631428Y-116391428D01*
X124964761Y-116391428D01*
X123492380Y-118091904D02*
X122492380Y-118091904D01*
X123492380Y-117520476D02*
X122920952Y-117949047D01*
X122492380Y-117520476D02*
X123063809Y-118091904D01*
D11*
X177571471Y-126624542D02*
X178714328Y-125981685D01*
X178714328Y-127267400D01*
X177571471Y-126624542D01*
D10*
X119486190Y-116957619D02*
X119390952Y-116957619D01*
X119295714Y-116910000D01*
X119248095Y-116862380D01*
X119200476Y-116767142D01*
X119152857Y-116576666D01*
X119152857Y-116338571D01*
X119200476Y-116148095D01*
X119248095Y-116052857D01*
X119295714Y-116005238D01*
X119390952Y-115957619D01*
X119486190Y-115957619D01*
X119581428Y-116005238D01*
X119629047Y-116052857D01*
X119676666Y-116148095D01*
X119724285Y-116338571D01*
X119724285Y-116576666D01*
X119676666Y-116767142D01*
X119629047Y-116862380D01*
X119581428Y-116910000D01*
X119486190Y-116957619D01*
X118771904Y-116862380D02*
X118724285Y-116910000D01*
X118629047Y-116957619D01*
X118390952Y-116957619D01*
X118295714Y-116910000D01*
X118248095Y-116862380D01*
X118200476Y-116767142D01*
X118200476Y-116671904D01*
X118248095Y-116529047D01*
X118819523Y-115957619D01*
X118200476Y-115957619D01*
X117771904Y-115957619D02*
X117771904Y-116957619D01*
X117343333Y-115957619D02*
X117343333Y-116481428D01*
X117390952Y-116576666D01*
X117486190Y-116624285D01*
X117629047Y-116624285D01*
X117724285Y-116576666D01*
X117771904Y-116529047D01*
X112856190Y-117037619D02*
X112760952Y-117037619D01*
X112665714Y-116990000D01*
X112618095Y-116942380D01*
X112570476Y-116847142D01*
X112522857Y-116656666D01*
X112522857Y-116418571D01*
X112570476Y-116228095D01*
X112618095Y-116132857D01*
X112665714Y-116085238D01*
X112760952Y-116037619D01*
X112856190Y-116037619D01*
X112951428Y-116085238D01*
X112999047Y-116132857D01*
X113046666Y-116228095D01*
X113094285Y-116418571D01*
X113094285Y-116656666D01*
X113046666Y-116847142D01*
X112999047Y-116942380D01*
X112951428Y-116990000D01*
X112856190Y-117037619D01*
X111570476Y-116037619D02*
X112141904Y-116037619D01*
X111856190Y-116037619D02*
X111856190Y-117037619D01*
X111951428Y-116894761D01*
X112046666Y-116799523D01*
X112141904Y-116751904D01*
X111141904Y-116037619D02*
X111141904Y-117037619D01*
X110713333Y-116037619D02*
X110713333Y-116561428D01*
X110760952Y-116656666D01*
X110856190Y-116704285D01*
X110999047Y-116704285D01*
X111094285Y-116656666D01*
X111141904Y-116609047D01*
D11*
X140559285Y-117889571D02*
X140559285Y-116389571D01*
X141416428Y-117889571D02*
X140773571Y-117032428D01*
X141416428Y-116389571D02*
X140559285Y-117246714D01*
X141916428Y-116389571D02*
X142916428Y-116389571D01*
X141916428Y-117889571D01*
X142916428Y-117889571D01*
X143702142Y-117032428D02*
X143559285Y-116961000D01*
X143487857Y-116889571D01*
X143416428Y-116746714D01*
X143416428Y-116675285D01*
X143487857Y-116532428D01*
X143559285Y-116461000D01*
X143702142Y-116389571D01*
X143987857Y-116389571D01*
X144130714Y-116461000D01*
X144202142Y-116532428D01*
X144273571Y-116675285D01*
X144273571Y-116746714D01*
X144202142Y-116889571D01*
X144130714Y-116961000D01*
X143987857Y-117032428D01*
X143702142Y-117032428D01*
X143559285Y-117103857D01*
X143487857Y-117175285D01*
X143416428Y-117318142D01*
X143416428Y-117603857D01*
X143487857Y-117746714D01*
X143559285Y-117818142D01*
X143702142Y-117889571D01*
X143987857Y-117889571D01*
X144130714Y-117818142D01*
X144202142Y-117746714D01*
X144273571Y-117603857D01*
X144273571Y-117318142D01*
X144202142Y-117175285D01*
X144130714Y-117103857D01*
X143987857Y-117032428D01*
X145202142Y-116389571D02*
X145345000Y-116389571D01*
X145487857Y-116461000D01*
X145559285Y-116532428D01*
X145630714Y-116675285D01*
X145702142Y-116961000D01*
X145702142Y-117318142D01*
X145630714Y-117603857D01*
X145559285Y-117746714D01*
X145487857Y-117818142D01*
X145345000Y-117889571D01*
X145202142Y-117889571D01*
X145059285Y-117818142D01*
X144987857Y-117746714D01*
X144916428Y-117603857D01*
X144845000Y-117318142D01*
X144845000Y-116961000D01*
X144916428Y-116675285D01*
X144987857Y-116532428D01*
X145059285Y-116461000D01*
X145202142Y-116389571D01*
X146345000Y-117318142D02*
X147487857Y-117318142D01*
X148987857Y-117889571D02*
X148130714Y-117889571D01*
X148559285Y-117889571D02*
X148559285Y-116389571D01*
X148416428Y-116603857D01*
X148273571Y-116746714D01*
X148130714Y-116818142D01*
X149630714Y-117889571D02*
X149630714Y-116389571D01*
X150130714Y-117461000D01*
X150630714Y-116389571D01*
X150630714Y-117889571D01*
X151273571Y-117818142D02*
X151487857Y-117889571D01*
X151845000Y-117889571D01*
X151987857Y-117818142D01*
X152059285Y-117746714D01*
X152130714Y-117603857D01*
X152130714Y-117461000D01*
X152059285Y-117318142D01*
X151987857Y-117246714D01*
X151845000Y-117175285D01*
X151559285Y-117103857D01*
X151416428Y-117032428D01*
X151345000Y-116961000D01*
X151273571Y-116818142D01*
X151273571Y-116675285D01*
X151345000Y-116532428D01*
X151416428Y-116461000D01*
X151559285Y-116389571D01*
X151916428Y-116389571D01*
X152130714Y-116461000D01*
X153630714Y-117889571D02*
X153130714Y-117175285D01*
X152773571Y-117889571D02*
X152773571Y-116389571D01*
X153345000Y-116389571D01*
X153487857Y-116461000D01*
X153559285Y-116532428D01*
X153630714Y-116675285D01*
X153630714Y-116889571D01*
X153559285Y-117032428D01*
X153487857Y-117103857D01*
X153345000Y-117175285D01*
X152773571Y-117175285D01*
X154202142Y-117461000D02*
X154916428Y-117461000D01*
X154059285Y-117889571D02*
X154559285Y-116389571D01*
X155059285Y-117889571D01*
X155559285Y-117889571D02*
X155559285Y-116389571D01*
X156059285Y-117461000D01*
X156559285Y-116389571D01*
X156559285Y-117889571D01*
X158416428Y-117746714D02*
X158487857Y-117818142D01*
X158416428Y-117889571D01*
X158345000Y-117818142D01*
X158416428Y-117746714D01*
X158416428Y-117889571D01*
X158416428Y-116961000D02*
X158487857Y-117032428D01*
X158416428Y-117103857D01*
X158345000Y-117032428D01*
X158416428Y-116961000D01*
X158416428Y-117103857D01*
X160130714Y-116389571D02*
X161130714Y-116389571D01*
X160130714Y-117889571D01*
X161130714Y-117889571D01*
X161916428Y-117032428D02*
X161773571Y-116961000D01*
X161702142Y-116889571D01*
X161630714Y-116746714D01*
X161630714Y-116675285D01*
X161702142Y-116532428D01*
X161773571Y-116461000D01*
X161916428Y-116389571D01*
X162202142Y-116389571D01*
X162345000Y-116461000D01*
X162416428Y-116532428D01*
X162487857Y-116675285D01*
X162487857Y-116746714D01*
X162416428Y-116889571D01*
X162345000Y-116961000D01*
X162202142Y-117032428D01*
X161916428Y-117032428D01*
X161773571Y-117103857D01*
X161702142Y-117175285D01*
X161630714Y-117318142D01*
X161630714Y-117603857D01*
X161702142Y-117746714D01*
X161773571Y-117818142D01*
X161916428Y-117889571D01*
X162202142Y-117889571D01*
X162345000Y-117818142D01*
X162416428Y-117746714D01*
X162487857Y-117603857D01*
X162487857Y-117318142D01*
X162416428Y-117175285D01*
X162345000Y-117103857D01*
X162202142Y-117032428D01*
X163416428Y-116389571D02*
X163559285Y-116389571D01*
X163702142Y-116461000D01*
X163773571Y-116532428D01*
X163845000Y-116675285D01*
X163916428Y-116961000D01*
X163916428Y-117318142D01*
X163845000Y-117603857D01*
X163773571Y-117746714D01*
X163702142Y-117818142D01*
X163559285Y-117889571D01*
X163416428Y-117889571D01*
X163273571Y-117818142D01*
X163202142Y-117746714D01*
X163130714Y-117603857D01*
X163059285Y-117318142D01*
X163059285Y-116961000D01*
X163130714Y-116675285D01*
X163202142Y-116532428D01*
X163273571Y-116461000D01*
X163416428Y-116389571D01*
X166487857Y-117889571D02*
X165630714Y-117889571D01*
X166059285Y-117889571D02*
X166059285Y-116389571D01*
X165916428Y-116603857D01*
X165773571Y-116746714D01*
X165630714Y-116818142D01*
X167059285Y-116532428D02*
X167130714Y-116461000D01*
X167273571Y-116389571D01*
X167630714Y-116389571D01*
X167773571Y-116461000D01*
X167845000Y-116532428D01*
X167916428Y-116675285D01*
X167916428Y-116818142D01*
X167845000Y-117032428D01*
X166987857Y-117889571D01*
X167916428Y-117889571D01*
X168773571Y-117032428D02*
X168630714Y-116961000D01*
X168559285Y-116889571D01*
X168487857Y-116746714D01*
X168487857Y-116675285D01*
X168559285Y-116532428D01*
X168630714Y-116461000D01*
X168773571Y-116389571D01*
X169059285Y-116389571D01*
X169202142Y-116461000D01*
X169273571Y-116532428D01*
X169345000Y-116675285D01*
X169345000Y-116746714D01*
X169273571Y-116889571D01*
X169202142Y-116961000D01*
X169059285Y-117032428D01*
X168773571Y-117032428D01*
X168630714Y-117103857D01*
X168559285Y-117175285D01*
X168487857Y-117318142D01*
X168487857Y-117603857D01*
X168559285Y-117746714D01*
X168630714Y-117818142D01*
X168773571Y-117889571D01*
X169059285Y-117889571D01*
X169202142Y-117818142D01*
X169273571Y-117746714D01*
X169345000Y-117603857D01*
X169345000Y-117318142D01*
X169273571Y-117175285D01*
X169202142Y-117103857D01*
X169059285Y-117032428D01*
X169987857Y-117889571D02*
X169987857Y-116389571D01*
X170130714Y-117318142D02*
X170559285Y-117889571D01*
X170559285Y-116889571D02*
X169987857Y-117461000D01*
X171702142Y-117103857D02*
X171916428Y-117175285D01*
X171987857Y-117246714D01*
X172059285Y-117389571D01*
X172059285Y-117603857D01*
X171987857Y-117746714D01*
X171916428Y-117818142D01*
X171773571Y-117889571D01*
X171202142Y-117889571D01*
X171202142Y-116389571D01*
X171702142Y-116389571D01*
X171845000Y-116461000D01*
X171916428Y-116532428D01*
X171987857Y-116675285D01*
X171987857Y-116818142D01*
X171916428Y-116961000D01*
X171845000Y-117032428D01*
X171702142Y-117103857D01*
X171202142Y-117103857D01*
X174702142Y-117889571D02*
X174202142Y-117175285D01*
X173845000Y-117889571D02*
X173845000Y-116389571D01*
X174416428Y-116389571D01*
X174559285Y-116461000D01*
X174630714Y-116532428D01*
X174702142Y-116675285D01*
X174702142Y-116889571D01*
X174630714Y-117032428D01*
X174559285Y-117103857D01*
X174416428Y-117175285D01*
X173845000Y-117175285D01*
X175273571Y-117461000D02*
X175987857Y-117461000D01*
X175130714Y-117889571D02*
X175630714Y-116389571D01*
X176130714Y-117889571D01*
X176630714Y-117889571D02*
X176630714Y-116389571D01*
X177130714Y-117461000D01*
X177630714Y-116389571D01*
X177630714Y-117889571D01*
X179416428Y-116318142D02*
X178130714Y-118246714D01*
X180773571Y-117889571D02*
X180273571Y-117175285D01*
X179916428Y-117889571D02*
X179916428Y-116389571D01*
X180487857Y-116389571D01*
X180630714Y-116461000D01*
X180702142Y-116532428D01*
X180773571Y-116675285D01*
X180773571Y-116889571D01*
X180702142Y-117032428D01*
X180630714Y-117103857D01*
X180487857Y-117175285D01*
X179916428Y-117175285D01*
X181702142Y-116389571D02*
X181987857Y-116389571D01*
X182130714Y-116461000D01*
X182273571Y-116603857D01*
X182345000Y-116889571D01*
X182345000Y-117389571D01*
X182273571Y-117675285D01*
X182130714Y-117818142D01*
X181987857Y-117889571D01*
X181702142Y-117889571D01*
X181559285Y-117818142D01*
X181416428Y-117675285D01*
X181345000Y-117389571D01*
X181345000Y-116889571D01*
X181416428Y-116603857D01*
X181559285Y-116461000D01*
X181702142Y-116389571D01*
X182987857Y-117889571D02*
X182987857Y-116389571D01*
X183487857Y-117461000D01*
X183987857Y-116389571D01*
X183987857Y-117889571D01*
X186345000Y-117103857D02*
X186559285Y-117175285D01*
X186630714Y-117246714D01*
X186702142Y-117389571D01*
X186702142Y-117603857D01*
X186630714Y-117746714D01*
X186559285Y-117818142D01*
X186416428Y-117889571D01*
X185845000Y-117889571D01*
X185845000Y-116389571D01*
X186345000Y-116389571D01*
X186487857Y-116461000D01*
X186559285Y-116532428D01*
X186630714Y-116675285D01*
X186630714Y-116818142D01*
X186559285Y-116961000D01*
X186487857Y-117032428D01*
X186345000Y-117103857D01*
X185845000Y-117103857D01*
X187630714Y-116389571D02*
X187916428Y-116389571D01*
X188059285Y-116461000D01*
X188202142Y-116603857D01*
X188273571Y-116889571D01*
X188273571Y-117389571D01*
X188202142Y-117675285D01*
X188059285Y-117818142D01*
X187916428Y-117889571D01*
X187630714Y-117889571D01*
X187487857Y-117818142D01*
X187345000Y-117675285D01*
X187273571Y-117389571D01*
X187273571Y-116889571D01*
X187345000Y-116603857D01*
X187487857Y-116461000D01*
X187630714Y-116389571D01*
X188845000Y-117461000D02*
X189559285Y-117461000D01*
X188702142Y-117889571D02*
X189202142Y-116389571D01*
X189702142Y-117889571D01*
X191059285Y-117889571D02*
X190559285Y-117175285D01*
X190202142Y-117889571D02*
X190202142Y-116389571D01*
X190773571Y-116389571D01*
X190916428Y-116461000D01*
X190987857Y-116532428D01*
X191059285Y-116675285D01*
X191059285Y-116889571D01*
X190987857Y-117032428D01*
X190916428Y-117103857D01*
X190773571Y-117175285D01*
X190202142Y-117175285D01*
X191702142Y-117889571D02*
X191702142Y-116389571D01*
X192059285Y-116389571D01*
X192273571Y-116461000D01*
X192416428Y-116603857D01*
X192487857Y-116746714D01*
X192559285Y-117032428D01*
X192559285Y-117246714D01*
X192487857Y-117532428D01*
X192416428Y-117675285D01*
X192273571Y-117818142D01*
X192059285Y-117889571D01*
X191702142Y-117889571D01*
X188487857Y-120439571D02*
X187987857Y-119725285D01*
X187630714Y-120439571D02*
X187630714Y-118939571D01*
X188202142Y-118939571D01*
X188345000Y-119011000D01*
X188416428Y-119082428D01*
X188487857Y-119225285D01*
X188487857Y-119439571D01*
X188416428Y-119582428D01*
X188345000Y-119653857D01*
X188202142Y-119725285D01*
X187630714Y-119725285D01*
X189130714Y-119653857D02*
X189630714Y-119653857D01*
X189845000Y-120439571D02*
X189130714Y-120439571D01*
X189130714Y-118939571D01*
X189845000Y-118939571D01*
X190273571Y-118939571D02*
X190773571Y-120439571D01*
X191273571Y-118939571D01*
X191702142Y-119082428D02*
X191773571Y-119011000D01*
X191916428Y-118939571D01*
X192273571Y-118939571D01*
X192416428Y-119011000D01*
X192487857Y-119082428D01*
X192559285Y-119225285D01*
X192559285Y-119368142D01*
X192487857Y-119582428D01*
X191630714Y-120439571D01*
X192559285Y-120439571D01*
X181916428Y-122989571D02*
X181916428Y-121489571D01*
X182773571Y-122989571D02*
X182130714Y-122132428D01*
X182773571Y-121489571D02*
X181916428Y-122346714D01*
X183416428Y-121489571D02*
X183416428Y-122703857D01*
X183487857Y-122846714D01*
X183559285Y-122918142D01*
X183702142Y-122989571D01*
X183987857Y-122989571D01*
X184130714Y-122918142D01*
X184202142Y-122846714D01*
X184273571Y-122703857D01*
X184273571Y-121489571D01*
X184987857Y-122989571D02*
X184987857Y-121489571D01*
X185845000Y-122989571D01*
X185845000Y-121489571D01*
X186559285Y-122989571D02*
X186559285Y-121489571D01*
X187273571Y-122418142D02*
X188416428Y-122418142D01*
X189130714Y-122989571D02*
X189130714Y-121489571D01*
X189987857Y-122989571D01*
X189987857Y-121489571D01*
X190702142Y-122203857D02*
X191202142Y-122203857D01*
X191416428Y-122989571D02*
X190702142Y-122989571D01*
X190702142Y-121489571D01*
X191416428Y-121489571D01*
X191845000Y-121489571D02*
X192702142Y-121489571D01*
X192273571Y-122989571D02*
X192273571Y-121489571D01*
X144331428Y-77545928D02*
X144331428Y-78545928D01*
X142831428Y-77903071D01*
X143831428Y-79760214D02*
X142831428Y-79760214D01*
X144402857Y-79403071D02*
X143331428Y-79045928D01*
X143331428Y-79974500D01*
X142831428Y-80545928D02*
X144331428Y-80545928D01*
X143617142Y-80545928D02*
X143617142Y-81403071D01*
X142831428Y-81403071D02*
X144331428Y-81403071D01*
X142974285Y-82974500D02*
X142902857Y-82903071D01*
X142831428Y-82688785D01*
X142831428Y-82545928D01*
X142902857Y-82331642D01*
X143045714Y-82188785D01*
X143188571Y-82117357D01*
X143474285Y-82045928D01*
X143688571Y-82045928D01*
X143974285Y-82117357D01*
X144117142Y-82188785D01*
X144260000Y-82331642D01*
X144331428Y-82545928D01*
X144331428Y-82688785D01*
X144260000Y-82903071D01*
X144188571Y-82974500D01*
X144331428Y-83903071D02*
X144331428Y-84045928D01*
X144260000Y-84188785D01*
X144188571Y-84260214D01*
X144045714Y-84331642D01*
X143760000Y-84403071D01*
X143402857Y-84403071D01*
X143117142Y-84331642D01*
X142974285Y-84260214D01*
X142902857Y-84188785D01*
X142831428Y-84045928D01*
X142831428Y-83903071D01*
X142902857Y-83760214D01*
X142974285Y-83688785D01*
X143117142Y-83617357D01*
X143402857Y-83545928D01*
X143760000Y-83545928D01*
X144045714Y-83617357D01*
X144188571Y-83688785D01*
X144260000Y-83760214D01*
X144331428Y-83903071D01*
X144188571Y-84974500D02*
X144260000Y-85045928D01*
X144331428Y-85188785D01*
X144331428Y-85545928D01*
X144260000Y-85688785D01*
X144188571Y-85760214D01*
X144045714Y-85831642D01*
X143902857Y-85831642D01*
X143688571Y-85760214D01*
X142831428Y-84903071D01*
X142831428Y-85831642D01*
X129789928Y-100850428D02*
X129789928Y-101850428D01*
X128289928Y-101207571D01*
X129289928Y-103064714D02*
X128289928Y-103064714D01*
X129861357Y-102707571D02*
X128789928Y-102350428D01*
X128789928Y-103279000D01*
X128289928Y-103850428D02*
X129789928Y-103850428D01*
X129075642Y-103850428D02*
X129075642Y-104707571D01*
X128289928Y-104707571D02*
X129789928Y-104707571D01*
X128432785Y-106279000D02*
X128361357Y-106207571D01*
X128289928Y-105993285D01*
X128289928Y-105850428D01*
X128361357Y-105636142D01*
X128504214Y-105493285D01*
X128647071Y-105421857D01*
X128932785Y-105350428D01*
X129147071Y-105350428D01*
X129432785Y-105421857D01*
X129575642Y-105493285D01*
X129718500Y-105636142D01*
X129789928Y-105850428D01*
X129789928Y-105993285D01*
X129718500Y-106207571D01*
X129647071Y-106279000D01*
X129789928Y-107207571D02*
X129789928Y-107350428D01*
X129718500Y-107493285D01*
X129647071Y-107564714D01*
X129504214Y-107636142D01*
X129218500Y-107707571D01*
X128861357Y-107707571D01*
X128575642Y-107636142D01*
X128432785Y-107564714D01*
X128361357Y-107493285D01*
X128289928Y-107350428D01*
X128289928Y-107207571D01*
X128361357Y-107064714D01*
X128432785Y-106993285D01*
X128575642Y-106921857D01*
X128861357Y-106850428D01*
X129218500Y-106850428D01*
X129504214Y-106921857D01*
X129647071Y-106993285D01*
X129718500Y-107064714D01*
X129789928Y-107207571D01*
X129789928Y-108636142D02*
X129789928Y-108779000D01*
X129718500Y-108921857D01*
X129647071Y-108993285D01*
X129504214Y-109064714D01*
X129218500Y-109136142D01*
X128861357Y-109136142D01*
X128575642Y-109064714D01*
X128432785Y-108993285D01*
X128361357Y-108921857D01*
X128289928Y-108779000D01*
X128289928Y-108636142D01*
X128361357Y-108493285D01*
X128432785Y-108421857D01*
X128575642Y-108350428D01*
X128861357Y-108279000D01*
X129218500Y-108279000D01*
X129504214Y-108350428D01*
X129647071Y-108421857D01*
X129718500Y-108493285D01*
X129789928Y-108636142D01*
X129662928Y-77863428D02*
X129662928Y-78863428D01*
X128162928Y-78220571D01*
X129162928Y-80077714D02*
X128162928Y-80077714D01*
X129734357Y-79720571D02*
X128662928Y-79363428D01*
X128662928Y-80292000D01*
X128162928Y-80863428D02*
X129662928Y-80863428D01*
X128948642Y-80863428D02*
X128948642Y-81720571D01*
X128162928Y-81720571D02*
X129662928Y-81720571D01*
X128305785Y-83292000D02*
X128234357Y-83220571D01*
X128162928Y-83006285D01*
X128162928Y-82863428D01*
X128234357Y-82649142D01*
X128377214Y-82506285D01*
X128520071Y-82434857D01*
X128805785Y-82363428D01*
X129020071Y-82363428D01*
X129305785Y-82434857D01*
X129448642Y-82506285D01*
X129591500Y-82649142D01*
X129662928Y-82863428D01*
X129662928Y-83006285D01*
X129591500Y-83220571D01*
X129520071Y-83292000D01*
X129662928Y-84220571D02*
X129662928Y-84363428D01*
X129591500Y-84506285D01*
X129520071Y-84577714D01*
X129377214Y-84649142D01*
X129091500Y-84720571D01*
X128734357Y-84720571D01*
X128448642Y-84649142D01*
X128305785Y-84577714D01*
X128234357Y-84506285D01*
X128162928Y-84363428D01*
X128162928Y-84220571D01*
X128234357Y-84077714D01*
X128305785Y-84006285D01*
X128448642Y-83934857D01*
X128734357Y-83863428D01*
X129091500Y-83863428D01*
X129377214Y-83934857D01*
X129520071Y-84006285D01*
X129591500Y-84077714D01*
X129662928Y-84220571D01*
X129162928Y-86006285D02*
X128162928Y-86006285D01*
X129734357Y-85649142D02*
X128662928Y-85292000D01*
X128662928Y-86220571D01*
X113978428Y-78990642D02*
X113978428Y-79990642D01*
X112478428Y-79347785D01*
X113478428Y-81204928D02*
X112478428Y-81204928D01*
X114049857Y-80847785D02*
X112978428Y-80490642D01*
X112978428Y-81419214D01*
X112478428Y-81990642D02*
X113978428Y-81990642D01*
X113264142Y-81990642D02*
X113264142Y-82847785D01*
X112478428Y-82847785D02*
X113978428Y-82847785D01*
X112621285Y-84419214D02*
X112549857Y-84347785D01*
X112478428Y-84133500D01*
X112478428Y-83990642D01*
X112549857Y-83776357D01*
X112692714Y-83633500D01*
X112835571Y-83562071D01*
X113121285Y-83490642D01*
X113335571Y-83490642D01*
X113621285Y-83562071D01*
X113764142Y-83633500D01*
X113907000Y-83776357D01*
X113978428Y-83990642D01*
X113978428Y-84133500D01*
X113907000Y-84347785D01*
X113835571Y-84419214D01*
X112478428Y-85847785D02*
X112478428Y-84990642D01*
X112478428Y-85419214D02*
X113978428Y-85419214D01*
X113764142Y-85276357D01*
X113621285Y-85133500D01*
X113549857Y-84990642D01*
X113978428Y-86347785D02*
X113978428Y-87276357D01*
X113407000Y-86776357D01*
X113407000Y-86990642D01*
X113335571Y-87133500D01*
X113264142Y-87204928D01*
X113121285Y-87276357D01*
X112764142Y-87276357D01*
X112621285Y-87204928D01*
X112549857Y-87133500D01*
X112478428Y-86990642D01*
X112478428Y-86562071D01*
X112549857Y-86419214D01*
X112621285Y-86347785D01*
X112478428Y-87990642D02*
X112478428Y-88276357D01*
X112549857Y-88419214D01*
X112621285Y-88490642D01*
X112835571Y-88633500D01*
X113121285Y-88704928D01*
X113692714Y-88704928D01*
X113835571Y-88633500D01*
X113907000Y-88562071D01*
X113978428Y-88419214D01*
X113978428Y-88133500D01*
X113907000Y-87990642D01*
X113835571Y-87919214D01*
X113692714Y-87847785D01*
X113335571Y-87847785D01*
X113192714Y-87919214D01*
X113121285Y-87990642D01*
X113049857Y-88133500D01*
X113049857Y-88419214D01*
X113121285Y-88562071D01*
X113192714Y-88633500D01*
X113335571Y-88704928D01*
X167323428Y-90694285D02*
X167323428Y-90408571D01*
X167252000Y-90265714D01*
X167180571Y-90194285D01*
X166966285Y-90051428D01*
X166680571Y-89980000D01*
X166109142Y-89980000D01*
X165966285Y-90051428D01*
X165894857Y-90122857D01*
X165823428Y-90265714D01*
X165823428Y-90551428D01*
X165894857Y-90694285D01*
X165966285Y-90765714D01*
X166109142Y-90837142D01*
X166466285Y-90837142D01*
X166609142Y-90765714D01*
X166680571Y-90694285D01*
X166752000Y-90551428D01*
X166752000Y-90265714D01*
X166680571Y-90122857D01*
X166609142Y-90051428D01*
X166466285Y-89980000D01*
X167180571Y-91408571D02*
X167252000Y-91480000D01*
X167323428Y-91622857D01*
X167323428Y-91980000D01*
X167252000Y-92122857D01*
X167180571Y-92194285D01*
X167037714Y-92265714D01*
X166894857Y-92265714D01*
X166680571Y-92194285D01*
X165823428Y-91337142D01*
X165823428Y-92265714D01*
X166680571Y-93122857D02*
X166752000Y-92980000D01*
X166823428Y-92908571D01*
X166966285Y-92837142D01*
X167037714Y-92837142D01*
X167180571Y-92908571D01*
X167252000Y-92980000D01*
X167323428Y-93122857D01*
X167323428Y-93408571D01*
X167252000Y-93551428D01*
X167180571Y-93622857D01*
X167037714Y-93694285D01*
X166966285Y-93694285D01*
X166823428Y-93622857D01*
X166752000Y-93551428D01*
X166680571Y-93408571D01*
X166680571Y-93122857D01*
X166609142Y-92980000D01*
X166537714Y-92908571D01*
X166394857Y-92837142D01*
X166109142Y-92837142D01*
X165966285Y-92908571D01*
X165894857Y-92980000D01*
X165823428Y-93122857D01*
X165823428Y-93408571D01*
X165894857Y-93551428D01*
X165966285Y-93622857D01*
X166109142Y-93694285D01*
X166394857Y-93694285D01*
X166537714Y-93622857D01*
X166609142Y-93551428D01*
X166680571Y-93408571D01*
X165823428Y-95122857D02*
X165823428Y-94265714D01*
X165823428Y-94694285D02*
X167323428Y-94694285D01*
X167109142Y-94551428D01*
X166966285Y-94408571D01*
X166894857Y-94265714D01*
X167180571Y-95694285D02*
X167252000Y-95765714D01*
X167323428Y-95908571D01*
X167323428Y-96265714D01*
X167252000Y-96408571D01*
X167180571Y-96480000D01*
X167037714Y-96551428D01*
X166894857Y-96551428D01*
X166680571Y-96480000D01*
X165823428Y-95622857D01*
X165823428Y-96551428D01*
X166680571Y-97408571D02*
X166752000Y-97265714D01*
X166823428Y-97194285D01*
X166966285Y-97122857D01*
X167037714Y-97122857D01*
X167180571Y-97194285D01*
X167252000Y-97265714D01*
X167323428Y-97408571D01*
X167323428Y-97694285D01*
X167252000Y-97837142D01*
X167180571Y-97908571D01*
X167037714Y-97980000D01*
X166966285Y-97980000D01*
X166823428Y-97908571D01*
X166752000Y-97837142D01*
X166680571Y-97694285D01*
X166680571Y-97408571D01*
X166609142Y-97265714D01*
X166537714Y-97194285D01*
X166394857Y-97122857D01*
X166109142Y-97122857D01*
X165966285Y-97194285D01*
X165894857Y-97265714D01*
X165823428Y-97408571D01*
X165823428Y-97694285D01*
X165894857Y-97837142D01*
X165966285Y-97908571D01*
X166109142Y-97980000D01*
X166394857Y-97980000D01*
X166537714Y-97908571D01*
X166609142Y-97837142D01*
X166680571Y-97694285D01*
X163273428Y-88837142D02*
X163273428Y-87980000D01*
X163273428Y-88408571D02*
X164773428Y-88408571D01*
X164559142Y-88265714D01*
X164416285Y-88122857D01*
X164344857Y-87980000D01*
X164630571Y-89408571D02*
X164702000Y-89480000D01*
X164773428Y-89622857D01*
X164773428Y-89980000D01*
X164702000Y-90122857D01*
X164630571Y-90194285D01*
X164487714Y-90265714D01*
X164344857Y-90265714D01*
X164130571Y-90194285D01*
X163273428Y-89337142D01*
X163273428Y-90265714D01*
X164130571Y-91122857D02*
X164202000Y-90980000D01*
X164273428Y-90908571D01*
X164416285Y-90837142D01*
X164487714Y-90837142D01*
X164630571Y-90908571D01*
X164702000Y-90980000D01*
X164773428Y-91122857D01*
X164773428Y-91408571D01*
X164702000Y-91551428D01*
X164630571Y-91622857D01*
X164487714Y-91694285D01*
X164416285Y-91694285D01*
X164273428Y-91622857D01*
X164202000Y-91551428D01*
X164130571Y-91408571D01*
X164130571Y-91122857D01*
X164059142Y-90980000D01*
X163987714Y-90908571D01*
X163844857Y-90837142D01*
X163559142Y-90837142D01*
X163416285Y-90908571D01*
X163344857Y-90980000D01*
X163273428Y-91122857D01*
X163273428Y-91408571D01*
X163344857Y-91551428D01*
X163416285Y-91622857D01*
X163559142Y-91694285D01*
X163844857Y-91694285D01*
X163987714Y-91622857D01*
X164059142Y-91551428D01*
X164130571Y-91408571D01*
X163273428Y-92337142D02*
X164773428Y-92337142D01*
X163844857Y-92480000D02*
X163273428Y-92908571D01*
X164273428Y-92908571D02*
X163702000Y-92337142D01*
X163344857Y-94622857D02*
X163273428Y-94837142D01*
X163273428Y-95194285D01*
X163344857Y-95337142D01*
X163416285Y-95408571D01*
X163559142Y-95480000D01*
X163702000Y-95480000D01*
X163844857Y-95408571D01*
X163916285Y-95337142D01*
X163987714Y-95194285D01*
X164059142Y-94908571D01*
X164130571Y-94765714D01*
X164202000Y-94694285D01*
X164344857Y-94622857D01*
X164487714Y-94622857D01*
X164630571Y-94694285D01*
X164702000Y-94765714D01*
X164773428Y-94908571D01*
X164773428Y-95265714D01*
X164702000Y-95480000D01*
X163273428Y-96980000D02*
X163987714Y-96480000D01*
X163273428Y-96122857D02*
X164773428Y-96122857D01*
X164773428Y-96694285D01*
X164702000Y-96837142D01*
X164630571Y-96908571D01*
X164487714Y-96980000D01*
X164273428Y-96980000D01*
X164130571Y-96908571D01*
X164059142Y-96837142D01*
X163987714Y-96694285D01*
X163987714Y-96122857D01*
X163702000Y-97551428D02*
X163702000Y-98265714D01*
X163273428Y-97408571D02*
X164773428Y-97908571D01*
X163273428Y-98408571D01*
X163273428Y-98908571D02*
X164773428Y-98908571D01*
X163702000Y-99408571D01*
X164773428Y-99908571D01*
X163273428Y-99908571D01*
X190040571Y-92853285D02*
X190112000Y-92924714D01*
X190183428Y-93067571D01*
X190183428Y-93424714D01*
X190112000Y-93567571D01*
X190040571Y-93639000D01*
X189897714Y-93710428D01*
X189754857Y-93710428D01*
X189540571Y-93639000D01*
X188683428Y-92781857D01*
X188683428Y-93710428D01*
X189540571Y-94567571D02*
X189612000Y-94424714D01*
X189683428Y-94353285D01*
X189826285Y-94281857D01*
X189897714Y-94281857D01*
X190040571Y-94353285D01*
X190112000Y-94424714D01*
X190183428Y-94567571D01*
X190183428Y-94853285D01*
X190112000Y-94996142D01*
X190040571Y-95067571D01*
X189897714Y-95139000D01*
X189826285Y-95139000D01*
X189683428Y-95067571D01*
X189612000Y-94996142D01*
X189540571Y-94853285D01*
X189540571Y-94567571D01*
X189469142Y-94424714D01*
X189397714Y-94353285D01*
X189254857Y-94281857D01*
X188969142Y-94281857D01*
X188826285Y-94353285D01*
X188754857Y-94424714D01*
X188683428Y-94567571D01*
X188683428Y-94853285D01*
X188754857Y-94996142D01*
X188826285Y-95067571D01*
X188969142Y-95139000D01*
X189254857Y-95139000D01*
X189397714Y-95067571D01*
X189469142Y-94996142D01*
X189540571Y-94853285D01*
X190040571Y-95710428D02*
X190112000Y-95781857D01*
X190183428Y-95924714D01*
X190183428Y-96281857D01*
X190112000Y-96424714D01*
X190040571Y-96496142D01*
X189897714Y-96567571D01*
X189754857Y-96567571D01*
X189540571Y-96496142D01*
X188683428Y-95639000D01*
X188683428Y-96567571D01*
X190183428Y-97924714D02*
X190183428Y-97210428D01*
X189469142Y-97139000D01*
X189540571Y-97210428D01*
X189612000Y-97353285D01*
X189612000Y-97710428D01*
X189540571Y-97853285D01*
X189469142Y-97924714D01*
X189326285Y-97996142D01*
X188969142Y-97996142D01*
X188826285Y-97924714D01*
X188754857Y-97853285D01*
X188683428Y-97710428D01*
X188683428Y-97353285D01*
X188754857Y-97210428D01*
X188826285Y-97139000D01*
X190183428Y-99281857D02*
X190183428Y-98996142D01*
X190112000Y-98853285D01*
X190040571Y-98781857D01*
X189826285Y-98639000D01*
X189540571Y-98567571D01*
X188969142Y-98567571D01*
X188826285Y-98639000D01*
X188754857Y-98710428D01*
X188683428Y-98853285D01*
X188683428Y-99139000D01*
X188754857Y-99281857D01*
X188826285Y-99353285D01*
X188969142Y-99424714D01*
X189326285Y-99424714D01*
X189469142Y-99353285D01*
X189540571Y-99281857D01*
X189612000Y-99139000D01*
X189612000Y-98853285D01*
X189540571Y-98710428D01*
X189469142Y-98639000D01*
X189326285Y-98567571D01*
X186133428Y-94960428D02*
X186847714Y-94460428D01*
X186133428Y-94103285D02*
X187633428Y-94103285D01*
X187633428Y-94674714D01*
X187562000Y-94817571D01*
X187490571Y-94889000D01*
X187347714Y-94960428D01*
X187133428Y-94960428D01*
X186990571Y-94889000D01*
X186919142Y-94817571D01*
X186847714Y-94674714D01*
X186847714Y-94103285D01*
X187633428Y-95889000D02*
X187633428Y-96174714D01*
X187562000Y-96317571D01*
X187419142Y-96460428D01*
X187133428Y-96531857D01*
X186633428Y-96531857D01*
X186347714Y-96460428D01*
X186204857Y-96317571D01*
X186133428Y-96174714D01*
X186133428Y-95889000D01*
X186204857Y-95746142D01*
X186347714Y-95603285D01*
X186633428Y-95531857D01*
X187133428Y-95531857D01*
X187419142Y-95603285D01*
X187562000Y-95746142D01*
X187633428Y-95889000D01*
X186133428Y-97174714D02*
X187633428Y-97174714D01*
X186562000Y-97674714D01*
X187633428Y-98174714D01*
X186133428Y-98174714D01*
D12*
G04 #@! TO.C,J2*
X108970000Y-100397000D02*
X108970000Y-105597000D01*
X116650000Y-100397000D02*
X108970000Y-100397000D01*
X119250000Y-105597000D02*
X108970000Y-105597000D01*
X116650000Y-100397000D02*
X116650000Y-102997000D01*
X116650000Y-102997000D02*
X119250000Y-102997000D01*
X119250000Y-102997000D02*
X119250000Y-105597000D01*
X117920000Y-100397000D02*
X119250000Y-100397000D01*
X119250000Y-100397000D02*
X119250000Y-101727000D01*
G04 #@! TO.C,D3*
X126948608Y-121482335D02*
G75*
G03X127105516Y-118250000I-1078608J1672335D01*
G01*
X124791392Y-121482335D02*
G75*
G02X124634484Y-118250000I1078608J1672335D01*
G01*
X126949837Y-120851130D02*
G75*
G03X126950000Y-118769039I-1079837J1041130D01*
G01*
X124790163Y-120851130D02*
G75*
G02X124790000Y-118769039I1079837J1041130D01*
G01*
X127106000Y-118250000D02*
X126950000Y-118250000D01*
X124790000Y-118250000D02*
X124634000Y-118250000D01*
G04 #@! TO.C,U2*
X144574000Y-96650500D02*
G75*
G02X142574000Y-96650500I-1000000J0D01*
G01*
X142574000Y-96650500D02*
X140924000Y-96650500D01*
X140924000Y-96650500D02*
X140924000Y-114550500D01*
X140924000Y-114550500D02*
X146224000Y-114550500D01*
X146224000Y-114550500D02*
X146224000Y-96650500D01*
X146224000Y-96650500D02*
X144574000Y-96650500D01*
X138434000Y-96590500D02*
X138434000Y-114610500D01*
X138434000Y-114610500D02*
X148714000Y-114610500D01*
X148714000Y-114610500D02*
X148714000Y-96590500D01*
X148714000Y-96590500D02*
X138434000Y-96590500D01*
G04 #@! TO.C,R3*
X111919000Y-111216000D02*
X111919000Y-113956000D01*
X111919000Y-113956000D02*
X118459000Y-113956000D01*
X118459000Y-113956000D02*
X118459000Y-111216000D01*
X118459000Y-111216000D02*
X111919000Y-111216000D01*
X111149000Y-112586000D02*
X111919000Y-112586000D01*
X119229000Y-112586000D02*
X118459000Y-112586000D01*
G04 #@! TO.C,U7*
X186960000Y-79255000D02*
X181380000Y-79255000D01*
X181380000Y-79255000D02*
X181380000Y-115055000D01*
X181380000Y-115055000D02*
X194540000Y-115055000D01*
X194540000Y-115055000D02*
X194540000Y-79255000D01*
X194540000Y-79255000D02*
X188960000Y-79255000D01*
X178950000Y-79255000D02*
X178950000Y-115055000D01*
X178950000Y-115055000D02*
X196970000Y-115055000D01*
X196970000Y-115055000D02*
X196970000Y-79255000D01*
X196970000Y-79255000D02*
X178950000Y-79255000D01*
X188960000Y-79255000D02*
G75*
G02X186960000Y-79255000I-1000000J0D01*
G01*
D10*
G04 #@! TO.C,J1*
X165354000Y-126619000D02*
X165354000Y-126111000D01*
X164846000Y-126619000D02*
X164846000Y-126111000D01*
X162814000Y-126619000D02*
X162814000Y-126111000D01*
X162306000Y-126619000D02*
X162306000Y-126111000D01*
X167386000Y-126619000D02*
X167386000Y-126111000D01*
X167894000Y-126619000D02*
X167894000Y-126111000D01*
X169926000Y-126619000D02*
X169926000Y-126111000D01*
X170434000Y-126619000D02*
X170434000Y-126111000D01*
X172466000Y-126619000D02*
X172466000Y-126111000D01*
X172974000Y-126619000D02*
X172974000Y-126111000D01*
X175006000Y-126619000D02*
X175006000Y-126111000D01*
X175514000Y-126619000D02*
X175514000Y-126111000D01*
X134874000Y-126619000D02*
X134874000Y-126111000D01*
X134366000Y-126619000D02*
X134366000Y-126111000D01*
X132334000Y-126619000D02*
X132334000Y-126111000D01*
X131826000Y-126619000D02*
X131826000Y-126111000D01*
X136906000Y-126619000D02*
X136906000Y-126111000D01*
X137414000Y-126619000D02*
X137414000Y-126111000D01*
X139446000Y-126619000D02*
X139446000Y-126111000D01*
X139954000Y-126619000D02*
X139954000Y-126111000D01*
X129794000Y-126619000D02*
X129794000Y-126111000D01*
X129286000Y-126619000D02*
X129286000Y-126111000D01*
X127254000Y-126619000D02*
X127254000Y-126111000D01*
X126746000Y-126619000D02*
X126746000Y-126111000D01*
X145034000Y-126619000D02*
X145034000Y-126111000D01*
X144526000Y-126619000D02*
X144526000Y-126111000D01*
X142494000Y-126619000D02*
X142494000Y-126111000D01*
X141986000Y-126619000D02*
X141986000Y-126111000D01*
X147066000Y-126619000D02*
X147066000Y-126111000D01*
X147574000Y-126619000D02*
X147574000Y-126111000D01*
X149606000Y-126619000D02*
X149606000Y-126111000D01*
X150114000Y-126619000D02*
X150114000Y-126111000D01*
X160274000Y-126619000D02*
X160274000Y-126111000D01*
X159766000Y-126619000D02*
X159766000Y-126111000D01*
X157734000Y-126619000D02*
X157734000Y-126111000D01*
X157226000Y-126619000D02*
X157226000Y-126111000D01*
X152146000Y-126619000D02*
X152146000Y-126111000D01*
X152654000Y-126619000D02*
X152654000Y-126111000D01*
X154686000Y-126619000D02*
X154686000Y-126111000D01*
X155194000Y-126619000D02*
X155194000Y-126111000D01*
X129794000Y-129159000D02*
X129794000Y-128651000D01*
X129286000Y-129159000D02*
X129286000Y-128651000D01*
X127254000Y-129159000D02*
X127254000Y-128651000D01*
X126746000Y-129159000D02*
X126746000Y-128651000D01*
X131826000Y-129159000D02*
X131826000Y-128651000D01*
X132334000Y-129159000D02*
X132334000Y-128651000D01*
X134366000Y-129159000D02*
X134366000Y-128651000D01*
X134874000Y-129159000D02*
X134874000Y-128651000D01*
X150114000Y-129159000D02*
X150114000Y-128651000D01*
X149606000Y-129159000D02*
X149606000Y-128651000D01*
X147574000Y-129159000D02*
X147574000Y-128651000D01*
X147066000Y-129159000D02*
X147066000Y-128651000D01*
X152146000Y-129159000D02*
X152146000Y-128651000D01*
X152654000Y-129159000D02*
X152654000Y-128651000D01*
X154686000Y-129159000D02*
X154686000Y-128651000D01*
X155194000Y-129159000D02*
X155194000Y-128651000D01*
X145034000Y-129159000D02*
X145034000Y-128651000D01*
X144526000Y-129159000D02*
X144526000Y-128651000D01*
X142494000Y-129159000D02*
X142494000Y-128651000D01*
X141986000Y-129159000D02*
X141986000Y-128651000D01*
X136906000Y-129159000D02*
X136906000Y-128651000D01*
X137414000Y-129159000D02*
X137414000Y-128651000D01*
X139446000Y-129159000D02*
X139446000Y-128651000D01*
X139954000Y-129159000D02*
X139954000Y-128651000D01*
X160274000Y-129159000D02*
X160274000Y-128651000D01*
X159766000Y-129159000D02*
X159766000Y-128651000D01*
X157734000Y-129159000D02*
X157734000Y-128651000D01*
X157226000Y-129159000D02*
X157226000Y-128651000D01*
X162306000Y-129159000D02*
X162306000Y-128651000D01*
X162814000Y-129159000D02*
X162814000Y-128651000D01*
X164846000Y-129159000D02*
X164846000Y-128651000D01*
X165354000Y-129159000D02*
X165354000Y-128651000D01*
X175514000Y-129159000D02*
X175514000Y-128651000D01*
X175006000Y-129159000D02*
X175006000Y-128651000D01*
X172974000Y-129159000D02*
X172974000Y-128651000D01*
X172466000Y-129159000D02*
X172466000Y-128651000D01*
X167386000Y-129159000D02*
X167386000Y-128651000D01*
X167894000Y-129159000D02*
X167894000Y-128651000D01*
X169926000Y-129159000D02*
X169926000Y-128651000D01*
X170434000Y-129159000D02*
X170434000Y-128651000D01*
X176810000Y-125095000D02*
X176810000Y-123945000D01*
X176810000Y-123945000D02*
X175260000Y-123945000D01*
X175387000Y-131699000D02*
X175387000Y-137668000D01*
X175387000Y-137668000D02*
X175133000Y-137668000D01*
X175133000Y-137668000D02*
X175133000Y-131826000D01*
X175133000Y-131826000D02*
X175260000Y-131826000D01*
X175260000Y-131826000D02*
X175260000Y-137668000D01*
X135890000Y-129159000D02*
X135890000Y-131699000D01*
X135890000Y-129159000D02*
X133350000Y-129159000D01*
X133350000Y-129159000D02*
X133350000Y-131699000D01*
X134874000Y-131699000D02*
X134874000Y-137795000D01*
X134874000Y-137795000D02*
X134366000Y-137795000D01*
X134366000Y-137795000D02*
X134366000Y-131699000D01*
X133350000Y-131699000D02*
X135890000Y-131699000D01*
X130810000Y-131699000D02*
X133350000Y-131699000D01*
X131826000Y-137795000D02*
X131826000Y-131699000D01*
X132334000Y-137795000D02*
X131826000Y-137795000D01*
X132334000Y-131699000D02*
X132334000Y-137795000D01*
X130810000Y-129159000D02*
X130810000Y-131699000D01*
X133350000Y-129159000D02*
X130810000Y-129159000D01*
X133350000Y-129159000D02*
X133350000Y-131699000D01*
X128270000Y-129159000D02*
X128270000Y-131699000D01*
X128270000Y-129159000D02*
X125730000Y-129159000D01*
X127254000Y-131699000D02*
X127254000Y-137795000D01*
X127254000Y-137795000D02*
X126746000Y-137795000D01*
X126746000Y-137795000D02*
X126746000Y-131699000D01*
X125730000Y-131699000D02*
X128270000Y-131699000D01*
X128270000Y-131699000D02*
X130810000Y-131699000D01*
X129286000Y-137795000D02*
X129286000Y-131699000D01*
X129794000Y-137795000D02*
X129286000Y-137795000D01*
X129794000Y-131699000D02*
X129794000Y-137795000D01*
X128270000Y-129159000D02*
X128270000Y-131699000D01*
X130810000Y-129159000D02*
X128270000Y-129159000D01*
X130810000Y-129159000D02*
X130810000Y-131699000D01*
X125730000Y-129159000D02*
X125730000Y-131699000D01*
X156210000Y-129159000D02*
X156210000Y-131699000D01*
X156210000Y-129159000D02*
X153670000Y-129159000D01*
X153670000Y-129159000D02*
X153670000Y-131699000D01*
X155194000Y-131699000D02*
X155194000Y-137795000D01*
X155194000Y-137795000D02*
X154686000Y-137795000D01*
X154686000Y-137795000D02*
X154686000Y-131699000D01*
X153670000Y-131699000D02*
X156210000Y-131699000D01*
X151130000Y-131699000D02*
X153670000Y-131699000D01*
X152146000Y-137795000D02*
X152146000Y-131699000D01*
X152654000Y-137795000D02*
X152146000Y-137795000D01*
X152654000Y-131699000D02*
X152654000Y-137795000D01*
X151130000Y-129159000D02*
X151130000Y-131699000D01*
X153670000Y-129159000D02*
X151130000Y-129159000D01*
X153670000Y-129159000D02*
X153670000Y-131699000D01*
X148590000Y-129159000D02*
X148590000Y-131699000D01*
X148590000Y-129159000D02*
X146050000Y-129159000D01*
X146050000Y-129159000D02*
X146050000Y-131699000D01*
X147574000Y-131699000D02*
X147574000Y-137795000D01*
X147574000Y-137795000D02*
X147066000Y-137795000D01*
X147066000Y-137795000D02*
X147066000Y-131699000D01*
X146050000Y-131699000D02*
X148590000Y-131699000D01*
X148590000Y-131699000D02*
X151130000Y-131699000D01*
X149606000Y-137795000D02*
X149606000Y-131699000D01*
X150114000Y-137795000D02*
X149606000Y-137795000D01*
X150114000Y-131699000D02*
X150114000Y-137795000D01*
X148590000Y-129159000D02*
X148590000Y-131699000D01*
X151130000Y-129159000D02*
X148590000Y-129159000D01*
X151130000Y-129159000D02*
X151130000Y-131699000D01*
X140970000Y-129159000D02*
X140970000Y-131699000D01*
X140970000Y-129159000D02*
X138430000Y-129159000D01*
X138430000Y-129159000D02*
X138430000Y-131699000D01*
X139954000Y-131699000D02*
X139954000Y-137795000D01*
X139954000Y-137795000D02*
X139446000Y-137795000D01*
X139446000Y-137795000D02*
X139446000Y-131699000D01*
X138430000Y-131699000D02*
X140970000Y-131699000D01*
X135890000Y-131699000D02*
X138430000Y-131699000D01*
X136906000Y-137795000D02*
X136906000Y-131699000D01*
X137414000Y-137795000D02*
X136906000Y-137795000D01*
X137414000Y-131699000D02*
X137414000Y-137795000D01*
X135890000Y-129159000D02*
X135890000Y-131699000D01*
X138430000Y-129159000D02*
X135890000Y-129159000D01*
X138430000Y-129159000D02*
X138430000Y-131699000D01*
X143510000Y-129159000D02*
X143510000Y-131699000D01*
X143510000Y-129159000D02*
X140970000Y-129159000D01*
X140970000Y-129159000D02*
X140970000Y-131699000D01*
X142494000Y-131699000D02*
X142494000Y-137795000D01*
X142494000Y-137795000D02*
X141986000Y-137795000D01*
X141986000Y-137795000D02*
X141986000Y-131699000D01*
X140970000Y-131699000D02*
X143510000Y-131699000D01*
X143510000Y-131699000D02*
X146050000Y-131699000D01*
X144526000Y-137795000D02*
X144526000Y-131699000D01*
X145034000Y-137795000D02*
X144526000Y-137795000D01*
X145034000Y-131699000D02*
X145034000Y-137795000D01*
X143510000Y-129159000D02*
X143510000Y-131699000D01*
X146050000Y-129159000D02*
X143510000Y-129159000D01*
X146050000Y-129159000D02*
X146050000Y-131699000D01*
X166370000Y-129159000D02*
X166370000Y-131699000D01*
X166370000Y-129159000D02*
X163830000Y-129159000D01*
X163830000Y-129159000D02*
X163830000Y-131699000D01*
X165354000Y-131699000D02*
X165354000Y-137795000D01*
X165354000Y-137795000D02*
X164846000Y-137795000D01*
X164846000Y-137795000D02*
X164846000Y-131699000D01*
X163830000Y-131699000D02*
X166370000Y-131699000D01*
X161290000Y-131699000D02*
X163830000Y-131699000D01*
X162306000Y-137795000D02*
X162306000Y-131699000D01*
X162814000Y-137795000D02*
X162306000Y-137795000D01*
X162814000Y-131699000D02*
X162814000Y-137795000D01*
X161290000Y-129159000D02*
X161290000Y-131699000D01*
X163830000Y-129159000D02*
X161290000Y-129159000D01*
X163830000Y-129159000D02*
X163830000Y-131699000D01*
X158750000Y-129159000D02*
X158750000Y-131699000D01*
X158750000Y-129159000D02*
X156210000Y-129159000D01*
X156210000Y-129159000D02*
X156210000Y-131699000D01*
X157734000Y-131699000D02*
X157734000Y-137795000D01*
X157734000Y-137795000D02*
X157226000Y-137795000D01*
X157226000Y-137795000D02*
X157226000Y-131699000D01*
X156210000Y-131699000D02*
X158750000Y-131699000D01*
X158750000Y-131699000D02*
X161290000Y-131699000D01*
X159766000Y-137795000D02*
X159766000Y-131699000D01*
X160274000Y-137795000D02*
X159766000Y-137795000D01*
X160274000Y-131699000D02*
X160274000Y-137795000D01*
X158750000Y-129159000D02*
X158750000Y-131699000D01*
X161290000Y-129159000D02*
X158750000Y-129159000D01*
X161290000Y-129159000D02*
X161290000Y-131699000D01*
X171450000Y-129159000D02*
X171450000Y-131699000D01*
X171450000Y-129159000D02*
X168910000Y-129159000D01*
X168910000Y-129159000D02*
X168910000Y-131699000D01*
X170434000Y-131699000D02*
X170434000Y-137795000D01*
X170434000Y-137795000D02*
X169926000Y-137795000D01*
X169926000Y-137795000D02*
X169926000Y-131699000D01*
X168910000Y-131699000D02*
X171450000Y-131699000D01*
X166370000Y-131699000D02*
X168910000Y-131699000D01*
X167386000Y-137795000D02*
X167386000Y-131699000D01*
X167894000Y-137795000D02*
X167386000Y-137795000D01*
X167894000Y-131699000D02*
X167894000Y-137795000D01*
X166370000Y-129159000D02*
X166370000Y-131699000D01*
X168910000Y-129159000D02*
X166370000Y-129159000D01*
X168910000Y-129159000D02*
X168910000Y-131699000D01*
X173990000Y-129159000D02*
X173990000Y-131699000D01*
X173990000Y-129159000D02*
X171450000Y-129159000D01*
X171450000Y-129159000D02*
X171450000Y-131699000D01*
X172974000Y-131699000D02*
X172974000Y-137795000D01*
X172974000Y-137795000D02*
X172466000Y-137795000D01*
X172466000Y-137795000D02*
X172466000Y-131699000D01*
X171450000Y-131699000D02*
X173990000Y-131699000D01*
X173990000Y-131699000D02*
X176530000Y-131699000D01*
X175006000Y-137795000D02*
X175006000Y-131699000D01*
X175514000Y-137795000D02*
X175006000Y-137795000D01*
X175514000Y-131699000D02*
X175514000Y-137795000D01*
X173990000Y-129159000D02*
X173990000Y-131699000D01*
X176530000Y-129159000D02*
X173990000Y-129159000D01*
X176530000Y-129159000D02*
X176530000Y-131699000D01*
G04 #@! TO.C,D1*
X110606000Y-118401000D02*
X110806000Y-118401000D01*
X113200000Y-118401000D02*
X113020000Y-118401000D01*
X112889643Y-121628744D02*
G75*
G03X113206000Y-118401000I-1003643J1727744D01*
G01*
X113019068Y-120953006D02*
G75*
G03X113020000Y-118850000I-1133068J1052006D01*
G01*
X110579274Y-118413780D02*
G75*
G03X110926000Y-121651000I1306726J-1497220D01*
G01*
X110806747Y-118887111D02*
G75*
G03X110826000Y-120935000I1079253J-1013889D01*
G01*
G04 #@! TO.C,D2*
X117056000Y-118481000D02*
X117256000Y-118481000D01*
X119650000Y-118481000D02*
X119470000Y-118481000D01*
X119339643Y-121708744D02*
G75*
G03X119656000Y-118481000I-1003643J1727744D01*
G01*
X119469068Y-121033006D02*
G75*
G03X119470000Y-118930000I-1133068J1052006D01*
G01*
X117029274Y-118493780D02*
G75*
G03X117376000Y-121731000I1306726J-1497220D01*
G01*
X117256747Y-118967111D02*
G75*
G03X117276000Y-121015000I1079253J-1013889D01*
G01*
D12*
G04 #@! TO.C,U1*
X142700000Y-72905000D02*
X140930000Y-72905000D01*
X140930000Y-72905000D02*
X140930000Y-90925000D01*
X140930000Y-90925000D02*
X146470000Y-90925000D01*
X146470000Y-90925000D02*
X146470000Y-72905000D01*
X146470000Y-72905000D02*
X144700000Y-72905000D01*
X138500000Y-72905000D02*
X138500000Y-90925000D01*
X138500000Y-90925000D02*
X148900000Y-90925000D01*
X148900000Y-90925000D02*
X148900000Y-72905000D01*
X148900000Y-72905000D02*
X138500000Y-72905000D01*
X144700000Y-72905000D02*
G75*
G02X142700000Y-72905000I-1000000J0D01*
G01*
G04 #@! TO.C,U3*
X112040000Y-74020000D02*
X110270000Y-74020000D01*
X110270000Y-74020000D02*
X110270000Y-94580000D01*
X110270000Y-94580000D02*
X115810000Y-94580000D01*
X115810000Y-94580000D02*
X115810000Y-74020000D01*
X115810000Y-74020000D02*
X114040000Y-74020000D01*
X107840000Y-74020000D02*
X107840000Y-94580000D01*
X107840000Y-94580000D02*
X118240000Y-94580000D01*
X118240000Y-94580000D02*
X118240000Y-74020000D01*
X118240000Y-74020000D02*
X107840000Y-74020000D01*
X114040000Y-74020000D02*
G75*
G02X112040000Y-74020000I-1000000J0D01*
G01*
G04 #@! TO.C,U4*
X127968000Y-72968500D02*
X126198000Y-72968500D01*
X126198000Y-72968500D02*
X126198000Y-90988500D01*
X126198000Y-90988500D02*
X131738000Y-90988500D01*
X131738000Y-90988500D02*
X131738000Y-72968500D01*
X131738000Y-72968500D02*
X129968000Y-72968500D01*
X123768000Y-72968500D02*
X123768000Y-90988500D01*
X123768000Y-90988500D02*
X134168000Y-90988500D01*
X134168000Y-90988500D02*
X134168000Y-72968500D01*
X134168000Y-72968500D02*
X123768000Y-72968500D01*
X129968000Y-72968500D02*
G75*
G02X127968000Y-72968500I-1000000J0D01*
G01*
G04 #@! TO.C,U5*
X127714000Y-96717500D02*
X125944000Y-96717500D01*
X125944000Y-96717500D02*
X125944000Y-114737500D01*
X125944000Y-114737500D02*
X131484000Y-114737500D01*
X131484000Y-114737500D02*
X131484000Y-96717500D01*
X131484000Y-96717500D02*
X129714000Y-96717500D01*
X123514000Y-96717500D02*
X123514000Y-114737500D01*
X123514000Y-114737500D02*
X133914000Y-114737500D01*
X133914000Y-114737500D02*
X133914000Y-96717500D01*
X133914000Y-96717500D02*
X123514000Y-96717500D01*
X129714000Y-96717500D02*
G75*
G02X127714000Y-96717500I-1000000J0D01*
G01*
G04 #@! TO.C,U6*
X164100000Y-74175000D02*
X158520000Y-74175000D01*
X158520000Y-74175000D02*
X158520000Y-115055000D01*
X158520000Y-115055000D02*
X171680000Y-115055000D01*
X171680000Y-115055000D02*
X171680000Y-74175000D01*
X171680000Y-74175000D02*
X166100000Y-74175000D01*
X156090000Y-74175000D02*
X156090000Y-115055000D01*
X156090000Y-115055000D02*
X174110000Y-115055000D01*
X174110000Y-115055000D02*
X174110000Y-74175000D01*
X174110000Y-74175000D02*
X156090000Y-74175000D01*
X166100000Y-74175000D02*
G75*
G02X164100000Y-74175000I-1000000J0D01*
G01*
G04 #@! TO.C,C1*
X148730000Y-72070000D02*
X144610000Y-72070000D01*
X148730000Y-69450000D02*
X144610000Y-69450000D01*
X148730000Y-72070000D02*
X148730000Y-71510000D01*
X148730000Y-70010000D02*
X148730000Y-69450000D01*
X144610000Y-72070000D02*
X144610000Y-71510000D01*
X144610000Y-70010000D02*
X144610000Y-69450000D01*
G04 #@! TO.C,C2*
X148638000Y-95861500D02*
X144518000Y-95861500D01*
X148638000Y-93241500D02*
X144518000Y-93241500D01*
X148638000Y-95861500D02*
X148638000Y-95301500D01*
X148638000Y-93801500D02*
X148638000Y-93241500D01*
X144518000Y-95861500D02*
X144518000Y-95301500D01*
X144518000Y-93801500D02*
X144518000Y-93241500D01*
G04 #@! TO.C,C3*
X118200000Y-73310000D02*
X114080000Y-73310000D01*
X118200000Y-70690000D02*
X114080000Y-70690000D01*
X118200000Y-73310000D02*
X118200000Y-72750000D01*
X118200000Y-71250000D02*
X118200000Y-70690000D01*
X114080000Y-73310000D02*
X114080000Y-72750000D01*
X114080000Y-71250000D02*
X114080000Y-70690000D01*
G04 #@! TO.C,C4*
X133906000Y-71858500D02*
X129786000Y-71858500D01*
X133906000Y-69238500D02*
X129786000Y-69238500D01*
X133906000Y-71858500D02*
X133906000Y-71298500D01*
X133906000Y-69798500D02*
X133906000Y-69238500D01*
X129786000Y-71858500D02*
X129786000Y-71298500D01*
X129786000Y-69798500D02*
X129786000Y-69238500D01*
G04 #@! TO.C,C5*
X133842000Y-95988500D02*
X129722000Y-95988500D01*
X133842000Y-93368500D02*
X129722000Y-93368500D01*
X133842000Y-95988500D02*
X133842000Y-95428500D01*
X133842000Y-93928500D02*
X133842000Y-93368500D01*
X129722000Y-95988500D02*
X129722000Y-95428500D01*
X129722000Y-93928500D02*
X129722000Y-93368500D01*
G04 #@! TO.C,C6*
X173530000Y-73700000D02*
X169410000Y-73700000D01*
X173530000Y-71080000D02*
X169410000Y-71080000D01*
X173530000Y-73700000D02*
X173530000Y-73140000D01*
X173530000Y-71640000D02*
X173530000Y-71080000D01*
X169410000Y-73700000D02*
X169410000Y-73140000D01*
X169410000Y-71640000D02*
X169410000Y-71080000D01*
G04 #@! TO.C,C7*
X196350000Y-78780000D02*
X192230000Y-78780000D01*
X196350000Y-76160000D02*
X192230000Y-76160000D01*
X196350000Y-78780000D02*
X196350000Y-78220000D01*
X196350000Y-76720000D02*
X196350000Y-76160000D01*
X192230000Y-78780000D02*
X192230000Y-78220000D01*
X192230000Y-76720000D02*
X192230000Y-76160000D01*
G04 #@! TO.C,R1*
X110450000Y-133385000D02*
X113070000Y-133385000D01*
X113070000Y-133385000D02*
X113070000Y-126965000D01*
X113070000Y-126965000D02*
X110450000Y-126965000D01*
X110450000Y-126965000D02*
X110450000Y-133385000D01*
X111760000Y-134275000D02*
X111760000Y-133385000D01*
X111760000Y-126075000D02*
X111760000Y-126965000D01*
G04 #@! TO.C,R2*
X116800000Y-133385000D02*
X119420000Y-133385000D01*
X119420000Y-133385000D02*
X119420000Y-126965000D01*
X119420000Y-126965000D02*
X116800000Y-126965000D01*
X116800000Y-126965000D02*
X116800000Y-133385000D01*
X118110000Y-134275000D02*
X118110000Y-133385000D01*
X118110000Y-126075000D02*
X118110000Y-126965000D01*
G04 #@! TO.C,C8*
X189760000Y-130420000D02*
G75*
G03X189760000Y-130420000I-2620000J0D01*
G01*
X187140000Y-127840000D02*
X187140000Y-133000000D01*
X187180000Y-127840000D02*
X187180000Y-133000000D01*
X187220000Y-127841000D02*
X187220000Y-132999000D01*
X187260000Y-127842000D02*
X187260000Y-132998000D01*
X187300000Y-127844000D02*
X187300000Y-132996000D01*
X187340000Y-127847000D02*
X187340000Y-132993000D01*
X187380000Y-127851000D02*
X187380000Y-129380000D01*
X187380000Y-131460000D02*
X187380000Y-132989000D01*
X187420000Y-127855000D02*
X187420000Y-129380000D01*
X187420000Y-131460000D02*
X187420000Y-132985000D01*
X187460000Y-127859000D02*
X187460000Y-129380000D01*
X187460000Y-131460000D02*
X187460000Y-132981000D01*
X187500000Y-127864000D02*
X187500000Y-129380000D01*
X187500000Y-131460000D02*
X187500000Y-132976000D01*
X187540000Y-127870000D02*
X187540000Y-129380000D01*
X187540000Y-131460000D02*
X187540000Y-132970000D01*
X187580000Y-127877000D02*
X187580000Y-129380000D01*
X187580000Y-131460000D02*
X187580000Y-132963000D01*
X187620000Y-127884000D02*
X187620000Y-129380000D01*
X187620000Y-131460000D02*
X187620000Y-132956000D01*
X187660000Y-127892000D02*
X187660000Y-129380000D01*
X187660000Y-131460000D02*
X187660000Y-132948000D01*
X187700000Y-127900000D02*
X187700000Y-129380000D01*
X187700000Y-131460000D02*
X187700000Y-132940000D01*
X187740000Y-127909000D02*
X187740000Y-129380000D01*
X187740000Y-131460000D02*
X187740000Y-132931000D01*
X187780000Y-127919000D02*
X187780000Y-129380000D01*
X187780000Y-131460000D02*
X187780000Y-132921000D01*
X187820000Y-127929000D02*
X187820000Y-129380000D01*
X187820000Y-131460000D02*
X187820000Y-132911000D01*
X187861000Y-127940000D02*
X187861000Y-129380000D01*
X187861000Y-131460000D02*
X187861000Y-132900000D01*
X187901000Y-127952000D02*
X187901000Y-129380000D01*
X187901000Y-131460000D02*
X187901000Y-132888000D01*
X187941000Y-127965000D02*
X187941000Y-129380000D01*
X187941000Y-131460000D02*
X187941000Y-132875000D01*
X187981000Y-127978000D02*
X187981000Y-129380000D01*
X187981000Y-131460000D02*
X187981000Y-132862000D01*
X188021000Y-127992000D02*
X188021000Y-129380000D01*
X188021000Y-131460000D02*
X188021000Y-132848000D01*
X188061000Y-128006000D02*
X188061000Y-129380000D01*
X188061000Y-131460000D02*
X188061000Y-132834000D01*
X188101000Y-128022000D02*
X188101000Y-129380000D01*
X188101000Y-131460000D02*
X188101000Y-132818000D01*
X188141000Y-128038000D02*
X188141000Y-129380000D01*
X188141000Y-131460000D02*
X188141000Y-132802000D01*
X188181000Y-128055000D02*
X188181000Y-129380000D01*
X188181000Y-131460000D02*
X188181000Y-132785000D01*
X188221000Y-128072000D02*
X188221000Y-129380000D01*
X188221000Y-131460000D02*
X188221000Y-132768000D01*
X188261000Y-128091000D02*
X188261000Y-129380000D01*
X188261000Y-131460000D02*
X188261000Y-132749000D01*
X188301000Y-128110000D02*
X188301000Y-129380000D01*
X188301000Y-131460000D02*
X188301000Y-132730000D01*
X188341000Y-128130000D02*
X188341000Y-129380000D01*
X188341000Y-131460000D02*
X188341000Y-132710000D01*
X188381000Y-128152000D02*
X188381000Y-129380000D01*
X188381000Y-131460000D02*
X188381000Y-132688000D01*
X188421000Y-128173000D02*
X188421000Y-129380000D01*
X188421000Y-131460000D02*
X188421000Y-132667000D01*
X188461000Y-128196000D02*
X188461000Y-129380000D01*
X188461000Y-131460000D02*
X188461000Y-132644000D01*
X188501000Y-128220000D02*
X188501000Y-129380000D01*
X188501000Y-131460000D02*
X188501000Y-132620000D01*
X188541000Y-128245000D02*
X188541000Y-129380000D01*
X188541000Y-131460000D02*
X188541000Y-132595000D01*
X188581000Y-128271000D02*
X188581000Y-129380000D01*
X188581000Y-131460000D02*
X188581000Y-132569000D01*
X188621000Y-128298000D02*
X188621000Y-129380000D01*
X188621000Y-131460000D02*
X188621000Y-132542000D01*
X188661000Y-128325000D02*
X188661000Y-129380000D01*
X188661000Y-131460000D02*
X188661000Y-132515000D01*
X188701000Y-128355000D02*
X188701000Y-129380000D01*
X188701000Y-131460000D02*
X188701000Y-132485000D01*
X188741000Y-128385000D02*
X188741000Y-129380000D01*
X188741000Y-131460000D02*
X188741000Y-132455000D01*
X188781000Y-128416000D02*
X188781000Y-129380000D01*
X188781000Y-131460000D02*
X188781000Y-132424000D01*
X188821000Y-128449000D02*
X188821000Y-129380000D01*
X188821000Y-131460000D02*
X188821000Y-132391000D01*
X188861000Y-128483000D02*
X188861000Y-129380000D01*
X188861000Y-131460000D02*
X188861000Y-132357000D01*
X188901000Y-128519000D02*
X188901000Y-129380000D01*
X188901000Y-131460000D02*
X188901000Y-132321000D01*
X188941000Y-128556000D02*
X188941000Y-129380000D01*
X188941000Y-131460000D02*
X188941000Y-132284000D01*
X188981000Y-128594000D02*
X188981000Y-129380000D01*
X188981000Y-131460000D02*
X188981000Y-132246000D01*
X189021000Y-128635000D02*
X189021000Y-129380000D01*
X189021000Y-131460000D02*
X189021000Y-132205000D01*
X189061000Y-128677000D02*
X189061000Y-129380000D01*
X189061000Y-131460000D02*
X189061000Y-132163000D01*
X189101000Y-128721000D02*
X189101000Y-129380000D01*
X189101000Y-131460000D02*
X189101000Y-132119000D01*
X189141000Y-128767000D02*
X189141000Y-129380000D01*
X189141000Y-131460000D02*
X189141000Y-132073000D01*
X189181000Y-128815000D02*
X189181000Y-129380000D01*
X189181000Y-131460000D02*
X189181000Y-132025000D01*
X189221000Y-128866000D02*
X189221000Y-129380000D01*
X189221000Y-131460000D02*
X189221000Y-131974000D01*
X189261000Y-128920000D02*
X189261000Y-129380000D01*
X189261000Y-131460000D02*
X189261000Y-131920000D01*
X189301000Y-128977000D02*
X189301000Y-129380000D01*
X189301000Y-131460000D02*
X189301000Y-131863000D01*
X189341000Y-129037000D02*
X189341000Y-129380000D01*
X189341000Y-131460000D02*
X189341000Y-131803000D01*
X189381000Y-129101000D02*
X189381000Y-129380000D01*
X189381000Y-131460000D02*
X189381000Y-131739000D01*
X189421000Y-129169000D02*
X189421000Y-129380000D01*
X189421000Y-131460000D02*
X189421000Y-131671000D01*
X189461000Y-129242000D02*
X189461000Y-131598000D01*
X189501000Y-129322000D02*
X189501000Y-131518000D01*
X189541000Y-129409000D02*
X189541000Y-131431000D01*
X189581000Y-129505000D02*
X189581000Y-131335000D01*
X189621000Y-129615000D02*
X189621000Y-131225000D01*
X189661000Y-129743000D02*
X189661000Y-131097000D01*
X189701000Y-129902000D02*
X189701000Y-130938000D01*
X189741000Y-130136000D02*
X189741000Y-130704000D01*
X184335225Y-128945000D02*
X184835225Y-128945000D01*
X184585225Y-128695000D02*
X184585225Y-129195000D01*
G04 #@! TO.C,J2*
D10*
X119702380Y-103330333D02*
X120416666Y-103330333D01*
X120559523Y-103377952D01*
X120654761Y-103473190D01*
X120702380Y-103616047D01*
X120702380Y-103711285D01*
X119797619Y-102901761D02*
X119750000Y-102854142D01*
X119702380Y-102758904D01*
X119702380Y-102520809D01*
X119750000Y-102425571D01*
X119797619Y-102377952D01*
X119892857Y-102330333D01*
X119988095Y-102330333D01*
X120130952Y-102377952D01*
X120702380Y-102949380D01*
X120702380Y-102330333D01*
G04 #@! TO.C,D3*
X123402380Y-121008095D02*
X122402380Y-121008095D01*
X122402380Y-120770000D01*
X122450000Y-120627142D01*
X122545238Y-120531904D01*
X122640476Y-120484285D01*
X122830952Y-120436666D01*
X122973809Y-120436666D01*
X123164285Y-120484285D01*
X123259523Y-120531904D01*
X123354761Y-120627142D01*
X123402380Y-120770000D01*
X123402380Y-121008095D01*
X122402380Y-120103333D02*
X122402380Y-119484285D01*
X122783333Y-119817619D01*
X122783333Y-119674761D01*
X122830952Y-119579523D01*
X122878571Y-119531904D01*
X122973809Y-119484285D01*
X123211904Y-119484285D01*
X123307142Y-119531904D01*
X123354761Y-119579523D01*
X123402380Y-119674761D01*
X123402380Y-119960476D01*
X123354761Y-120055714D01*
X123307142Y-120103333D01*
G04 #@! TO.C,U2*
X138832095Y-95202880D02*
X138832095Y-96012404D01*
X138879714Y-96107642D01*
X138927333Y-96155261D01*
X139022571Y-96202880D01*
X139213047Y-96202880D01*
X139308285Y-96155261D01*
X139355904Y-96107642D01*
X139403523Y-96012404D01*
X139403523Y-95202880D01*
X139832095Y-95298119D02*
X139879714Y-95250500D01*
X139974952Y-95202880D01*
X140213047Y-95202880D01*
X140308285Y-95250500D01*
X140355904Y-95298119D01*
X140403523Y-95393357D01*
X140403523Y-95488595D01*
X140355904Y-95631452D01*
X139784476Y-96202880D01*
X140403523Y-96202880D01*
G04 #@! TO.C,R3*
X115022333Y-110668380D02*
X114689000Y-110192190D01*
X114450904Y-110668380D02*
X114450904Y-109668380D01*
X114831857Y-109668380D01*
X114927095Y-109716000D01*
X114974714Y-109763619D01*
X115022333Y-109858857D01*
X115022333Y-110001714D01*
X114974714Y-110096952D01*
X114927095Y-110144571D01*
X114831857Y-110192190D01*
X114450904Y-110192190D01*
X115355666Y-109668380D02*
X115974714Y-109668380D01*
X115641380Y-110049333D01*
X115784238Y-110049333D01*
X115879476Y-110096952D01*
X115927095Y-110144571D01*
X115974714Y-110239809D01*
X115974714Y-110477904D01*
X115927095Y-110573142D01*
X115879476Y-110620761D01*
X115784238Y-110668380D01*
X115498523Y-110668380D01*
X115403285Y-110620761D01*
X115355666Y-110573142D01*
G04 #@! TO.C,U7*
X179070095Y-77430380D02*
X179070095Y-78239904D01*
X179117714Y-78335142D01*
X179165333Y-78382761D01*
X179260571Y-78430380D01*
X179451047Y-78430380D01*
X179546285Y-78382761D01*
X179593904Y-78335142D01*
X179641523Y-78239904D01*
X179641523Y-77430380D01*
X180022476Y-77430380D02*
X180689142Y-77430380D01*
X180260571Y-78430380D01*
G04 #@! TO.C,J1*
X177252380Y-124793333D02*
X177966666Y-124793333D01*
X178109523Y-124840952D01*
X178204761Y-124936190D01*
X178252380Y-125079047D01*
X178252380Y-125174285D01*
X178252380Y-123793333D02*
X178252380Y-124364761D01*
X178252380Y-124079047D02*
X177252380Y-124079047D01*
X177395238Y-124174285D01*
X177490476Y-124269523D01*
X177538095Y-124364761D01*
G04 #@! TO.C,D1*
X109312380Y-121248095D02*
X108312380Y-121248095D01*
X108312380Y-121010000D01*
X108360000Y-120867142D01*
X108455238Y-120771904D01*
X108550476Y-120724285D01*
X108740952Y-120676666D01*
X108883809Y-120676666D01*
X109074285Y-120724285D01*
X109169523Y-120771904D01*
X109264761Y-120867142D01*
X109312380Y-121010000D01*
X109312380Y-121248095D01*
X109312380Y-119724285D02*
X109312380Y-120295714D01*
X109312380Y-120010000D02*
X108312380Y-120010000D01*
X108455238Y-120105238D01*
X108550476Y-120200476D01*
X108598095Y-120295714D01*
X109832380Y-118226904D02*
X108832380Y-118226904D01*
X109832380Y-117655476D02*
X109260952Y-118084047D01*
X108832380Y-117655476D02*
X109403809Y-118226904D01*
G04 #@! TO.C,D2*
X115762380Y-121328095D02*
X114762380Y-121328095D01*
X114762380Y-121090000D01*
X114810000Y-120947142D01*
X114905238Y-120851904D01*
X115000476Y-120804285D01*
X115190952Y-120756666D01*
X115333809Y-120756666D01*
X115524285Y-120804285D01*
X115619523Y-120851904D01*
X115714761Y-120947142D01*
X115762380Y-121090000D01*
X115762380Y-121328095D01*
X114857619Y-120375714D02*
X114810000Y-120328095D01*
X114762380Y-120232857D01*
X114762380Y-119994761D01*
X114810000Y-119899523D01*
X114857619Y-119851904D01*
X114952857Y-119804285D01*
X115048095Y-119804285D01*
X115190952Y-119851904D01*
X115762380Y-120423333D01*
X115762380Y-119804285D01*
X116192380Y-118181904D02*
X115192380Y-118181904D01*
X116192380Y-117610476D02*
X115620952Y-118039047D01*
X115192380Y-117610476D02*
X115763809Y-118181904D01*
G04 #@! TO.C,U1*
X139128095Y-71207380D02*
X139128095Y-72016904D01*
X139175714Y-72112142D01*
X139223333Y-72159761D01*
X139318571Y-72207380D01*
X139509047Y-72207380D01*
X139604285Y-72159761D01*
X139651904Y-72112142D01*
X139699523Y-72016904D01*
X139699523Y-71207380D01*
X140699523Y-72207380D02*
X140128095Y-72207380D01*
X140413809Y-72207380D02*
X140413809Y-71207380D01*
X140318571Y-71350238D01*
X140223333Y-71445476D01*
X140128095Y-71493095D01*
G04 #@! TO.C,U3*
X107706095Y-72449380D02*
X107706095Y-73258904D01*
X107753714Y-73354142D01*
X107801333Y-73401761D01*
X107896571Y-73449380D01*
X108087047Y-73449380D01*
X108182285Y-73401761D01*
X108229904Y-73354142D01*
X108277523Y-73258904D01*
X108277523Y-72449380D01*
X108658476Y-72449380D02*
X109277523Y-72449380D01*
X108944190Y-72830333D01*
X109087047Y-72830333D01*
X109182285Y-72877952D01*
X109229904Y-72925571D01*
X109277523Y-73020809D01*
X109277523Y-73258904D01*
X109229904Y-73354142D01*
X109182285Y-73401761D01*
X109087047Y-73449380D01*
X108801333Y-73449380D01*
X108706095Y-73401761D01*
X108658476Y-73354142D01*
G04 #@! TO.C,U4*
X123634095Y-71524880D02*
X123634095Y-72334404D01*
X123681714Y-72429642D01*
X123729333Y-72477261D01*
X123824571Y-72524880D01*
X124015047Y-72524880D01*
X124110285Y-72477261D01*
X124157904Y-72429642D01*
X124205523Y-72334404D01*
X124205523Y-71524880D01*
X125110285Y-71858214D02*
X125110285Y-72524880D01*
X124872190Y-71477261D02*
X124634095Y-72191547D01*
X125253142Y-72191547D01*
G04 #@! TO.C,U5*
X124142095Y-95019880D02*
X124142095Y-95829404D01*
X124189714Y-95924642D01*
X124237333Y-95972261D01*
X124332571Y-96019880D01*
X124523047Y-96019880D01*
X124618285Y-95972261D01*
X124665904Y-95924642D01*
X124713523Y-95829404D01*
X124713523Y-95019880D01*
X125665904Y-95019880D02*
X125189714Y-95019880D01*
X125142095Y-95496071D01*
X125189714Y-95448452D01*
X125284952Y-95400833D01*
X125523047Y-95400833D01*
X125618285Y-95448452D01*
X125665904Y-95496071D01*
X125713523Y-95591309D01*
X125713523Y-95829404D01*
X125665904Y-95924642D01*
X125618285Y-95972261D01*
X125523047Y-96019880D01*
X125284952Y-96019880D01*
X125189714Y-95972261D01*
X125142095Y-95924642D01*
G04 #@! TO.C,U6*
X155956095Y-72604380D02*
X155956095Y-73413904D01*
X156003714Y-73509142D01*
X156051333Y-73556761D01*
X156146571Y-73604380D01*
X156337047Y-73604380D01*
X156432285Y-73556761D01*
X156479904Y-73509142D01*
X156527523Y-73413904D01*
X156527523Y-72604380D01*
X157432285Y-72604380D02*
X157241809Y-72604380D01*
X157146571Y-72652000D01*
X157098952Y-72699619D01*
X157003714Y-72842476D01*
X156956095Y-73032952D01*
X156956095Y-73413904D01*
X157003714Y-73509142D01*
X157051333Y-73556761D01*
X157146571Y-73604380D01*
X157337047Y-73604380D01*
X157432285Y-73556761D01*
X157479904Y-73509142D01*
X157527523Y-73413904D01*
X157527523Y-73175809D01*
X157479904Y-73080571D01*
X157432285Y-73032952D01*
X157337047Y-72985333D01*
X157146571Y-72985333D01*
X157051333Y-73032952D01*
X157003714Y-73080571D01*
X156956095Y-73175809D01*
G04 #@! TO.C,C1*
X147724833Y-68619642D02*
X147677214Y-68667261D01*
X147534357Y-68714880D01*
X147439119Y-68714880D01*
X147296261Y-68667261D01*
X147201023Y-68572023D01*
X147153404Y-68476785D01*
X147105785Y-68286309D01*
X147105785Y-68143452D01*
X147153404Y-67952976D01*
X147201023Y-67857738D01*
X147296261Y-67762500D01*
X147439119Y-67714880D01*
X147534357Y-67714880D01*
X147677214Y-67762500D01*
X147724833Y-67810119D01*
X148677214Y-68714880D02*
X148105785Y-68714880D01*
X148391500Y-68714880D02*
X148391500Y-67714880D01*
X148296261Y-67857738D01*
X148201023Y-67952976D01*
X148105785Y-68000595D01*
G04 #@! TO.C,C2*
X147597833Y-92749642D02*
X147550214Y-92797261D01*
X147407357Y-92844880D01*
X147312119Y-92844880D01*
X147169261Y-92797261D01*
X147074023Y-92702023D01*
X147026404Y-92606785D01*
X146978785Y-92416309D01*
X146978785Y-92273452D01*
X147026404Y-92082976D01*
X147074023Y-91987738D01*
X147169261Y-91892500D01*
X147312119Y-91844880D01*
X147407357Y-91844880D01*
X147550214Y-91892500D01*
X147597833Y-91940119D01*
X147978785Y-91940119D02*
X148026404Y-91892500D01*
X148121642Y-91844880D01*
X148359738Y-91844880D01*
X148454976Y-91892500D01*
X148502595Y-91940119D01*
X148550214Y-92035357D01*
X148550214Y-92130595D01*
X148502595Y-92273452D01*
X147931166Y-92844880D01*
X148550214Y-92844880D01*
G04 #@! TO.C,C3*
X117371833Y-69826142D02*
X117324214Y-69873761D01*
X117181357Y-69921380D01*
X117086119Y-69921380D01*
X116943261Y-69873761D01*
X116848023Y-69778523D01*
X116800404Y-69683285D01*
X116752785Y-69492809D01*
X116752785Y-69349952D01*
X116800404Y-69159476D01*
X116848023Y-69064238D01*
X116943261Y-68969000D01*
X117086119Y-68921380D01*
X117181357Y-68921380D01*
X117324214Y-68969000D01*
X117371833Y-69016619D01*
X117705166Y-68921380D02*
X118324214Y-68921380D01*
X117990880Y-69302333D01*
X118133738Y-69302333D01*
X118228976Y-69349952D01*
X118276595Y-69397571D01*
X118324214Y-69492809D01*
X118324214Y-69730904D01*
X118276595Y-69826142D01*
X118228976Y-69873761D01*
X118133738Y-69921380D01*
X117848023Y-69921380D01*
X117752785Y-69873761D01*
X117705166Y-69826142D01*
G04 #@! TO.C,C4*
X133119833Y-68619642D02*
X133072214Y-68667261D01*
X132929357Y-68714880D01*
X132834119Y-68714880D01*
X132691261Y-68667261D01*
X132596023Y-68572023D01*
X132548404Y-68476785D01*
X132500785Y-68286309D01*
X132500785Y-68143452D01*
X132548404Y-67952976D01*
X132596023Y-67857738D01*
X132691261Y-67762500D01*
X132834119Y-67714880D01*
X132929357Y-67714880D01*
X133072214Y-67762500D01*
X133119833Y-67810119D01*
X133976976Y-68048214D02*
X133976976Y-68714880D01*
X133738880Y-67667261D02*
X133500785Y-68381547D01*
X134119833Y-68381547D01*
G04 #@! TO.C,C5*
X132801833Y-92813142D02*
X132754214Y-92860761D01*
X132611357Y-92908380D01*
X132516119Y-92908380D01*
X132373261Y-92860761D01*
X132278023Y-92765523D01*
X132230404Y-92670285D01*
X132182785Y-92479809D01*
X132182785Y-92336952D01*
X132230404Y-92146476D01*
X132278023Y-92051238D01*
X132373261Y-91956000D01*
X132516119Y-91908380D01*
X132611357Y-91908380D01*
X132754214Y-91956000D01*
X132801833Y-92003619D01*
X133706595Y-91908380D02*
X133230404Y-91908380D01*
X133182785Y-92384571D01*
X133230404Y-92336952D01*
X133325642Y-92289333D01*
X133563738Y-92289333D01*
X133658976Y-92336952D01*
X133706595Y-92384571D01*
X133754214Y-92479809D01*
X133754214Y-92717904D01*
X133706595Y-92813142D01*
X133658976Y-92860761D01*
X133563738Y-92908380D01*
X133325642Y-92908380D01*
X133230404Y-92860761D01*
X133182785Y-92813142D01*
G04 #@! TO.C,C6*
X172553333Y-70461142D02*
X172505714Y-70508761D01*
X172362857Y-70556380D01*
X172267619Y-70556380D01*
X172124761Y-70508761D01*
X172029523Y-70413523D01*
X171981904Y-70318285D01*
X171934285Y-70127809D01*
X171934285Y-69984952D01*
X171981904Y-69794476D01*
X172029523Y-69699238D01*
X172124761Y-69604000D01*
X172267619Y-69556380D01*
X172362857Y-69556380D01*
X172505714Y-69604000D01*
X172553333Y-69651619D01*
X173410476Y-69556380D02*
X173220000Y-69556380D01*
X173124761Y-69604000D01*
X173077142Y-69651619D01*
X172981904Y-69794476D01*
X172934285Y-69984952D01*
X172934285Y-70365904D01*
X172981904Y-70461142D01*
X173029523Y-70508761D01*
X173124761Y-70556380D01*
X173315238Y-70556380D01*
X173410476Y-70508761D01*
X173458095Y-70461142D01*
X173505714Y-70365904D01*
X173505714Y-70127809D01*
X173458095Y-70032571D01*
X173410476Y-69984952D01*
X173315238Y-69937333D01*
X173124761Y-69937333D01*
X173029523Y-69984952D01*
X172981904Y-70032571D01*
X172934285Y-70127809D01*
G04 #@! TO.C,C7*
X195159333Y-75795142D02*
X195111714Y-75842761D01*
X194968857Y-75890380D01*
X194873619Y-75890380D01*
X194730761Y-75842761D01*
X194635523Y-75747523D01*
X194587904Y-75652285D01*
X194540285Y-75461809D01*
X194540285Y-75318952D01*
X194587904Y-75128476D01*
X194635523Y-75033238D01*
X194730761Y-74938000D01*
X194873619Y-74890380D01*
X194968857Y-74890380D01*
X195111714Y-74938000D01*
X195159333Y-74985619D01*
X195492666Y-74890380D02*
X196159333Y-74890380D01*
X195730761Y-75890380D01*
G04 #@! TO.C,R1*
X109922380Y-129726666D02*
X109446190Y-130060000D01*
X109922380Y-130298095D02*
X108922380Y-130298095D01*
X108922380Y-129917142D01*
X108970000Y-129821904D01*
X109017619Y-129774285D01*
X109112857Y-129726666D01*
X109255714Y-129726666D01*
X109350952Y-129774285D01*
X109398571Y-129821904D01*
X109446190Y-129917142D01*
X109446190Y-130298095D01*
X109922380Y-128774285D02*
X109922380Y-129345714D01*
X109922380Y-129060000D02*
X108922380Y-129060000D01*
X109065238Y-129155238D01*
X109160476Y-129250476D01*
X109208095Y-129345714D01*
G04 #@! TO.C,R2*
X116282380Y-129636666D02*
X115806190Y-129970000D01*
X116282380Y-130208095D02*
X115282380Y-130208095D01*
X115282380Y-129827142D01*
X115330000Y-129731904D01*
X115377619Y-129684285D01*
X115472857Y-129636666D01*
X115615714Y-129636666D01*
X115710952Y-129684285D01*
X115758571Y-129731904D01*
X115806190Y-129827142D01*
X115806190Y-130208095D01*
X115377619Y-129255714D02*
X115330000Y-129208095D01*
X115282380Y-129112857D01*
X115282380Y-128874761D01*
X115330000Y-128779523D01*
X115377619Y-128731904D01*
X115472857Y-128684285D01*
X115568095Y-128684285D01*
X115710952Y-128731904D01*
X116282380Y-129303333D01*
X116282380Y-128684285D01*
G04 #@! TO.C,C8*
X186973333Y-127027142D02*
X186925714Y-127074761D01*
X186782857Y-127122380D01*
X186687619Y-127122380D01*
X186544761Y-127074761D01*
X186449523Y-126979523D01*
X186401904Y-126884285D01*
X186354285Y-126693809D01*
X186354285Y-126550952D01*
X186401904Y-126360476D01*
X186449523Y-126265238D01*
X186544761Y-126170000D01*
X186687619Y-126122380D01*
X186782857Y-126122380D01*
X186925714Y-126170000D01*
X186973333Y-126217619D01*
X187544761Y-126550952D02*
X187449523Y-126503333D01*
X187401904Y-126455714D01*
X187354285Y-126360476D01*
X187354285Y-126312857D01*
X187401904Y-126217619D01*
X187449523Y-126170000D01*
X187544761Y-126122380D01*
X187735238Y-126122380D01*
X187830476Y-126170000D01*
X187878095Y-126217619D01*
X187925714Y-126312857D01*
X187925714Y-126360476D01*
X187878095Y-126455714D01*
X187830476Y-126503333D01*
X187735238Y-126550952D01*
X187544761Y-126550952D01*
X187449523Y-126598571D01*
X187401904Y-126646190D01*
X187354285Y-126741428D01*
X187354285Y-126931904D01*
X187401904Y-127027142D01*
X187449523Y-127074761D01*
X187544761Y-127122380D01*
X187735238Y-127122380D01*
X187830476Y-127074761D01*
X187878095Y-127027142D01*
X187925714Y-126931904D01*
X187925714Y-126741428D01*
X187878095Y-126646190D01*
X187830476Y-126598571D01*
X187735238Y-126550952D01*
G04 #@! TD*
M02*
