G04 #@! TF.GenerationSoftware,KiCad,Pcbnew,(5.0.0-3-g5ebb6b6)*
G04 #@! TF.CreationDate,2019-03-14T20:31:58+09:00*
G04 #@! TF.ProjectId,Z80-1MSRAM,5A38302D314D5352414D2E6B69636164,rev?*
G04 #@! TF.SameCoordinates,Original*
G04 #@! TF.FileFunction,Copper,L1,Top,Signal*
G04 #@! TF.FilePolarity,Positive*
%FSLAX46Y46*%
G04 Gerber Fmt 4.6, Leading zero omitted, Abs format (unit mm)*
G04 Created by KiCad (PCBNEW (5.0.0-3-g5ebb6b6)) date *
%MOMM*%
%LPD*%
G01*
G04 APERTURE LIST*
G04 #@! TA.AperFunction,ComponentPad*
%ADD10R,1.700000X1.700000*%
G04 #@! TD*
G04 #@! TA.AperFunction,ComponentPad*
%ADD11O,1.700000X1.700000*%
G04 #@! TD*
G04 #@! TA.AperFunction,ComponentPad*
%ADD12C,1.500000*%
G04 #@! TD*
G04 #@! TA.AperFunction,ComponentPad*
%ADD13R,1.500000X1.500000*%
G04 #@! TD*
G04 #@! TA.AperFunction,ComponentPad*
%ADD14O,1.600000X1.600000*%
G04 #@! TD*
G04 #@! TA.AperFunction,ComponentPad*
%ADD15C,1.600000*%
G04 #@! TD*
G04 #@! TA.AperFunction,ComponentPad*
%ADD16R,1.800000X1.800000*%
G04 #@! TD*
G04 #@! TA.AperFunction,ComponentPad*
%ADD17C,1.800000*%
G04 #@! TD*
G04 #@! TA.AperFunction,ComponentPad*
%ADD18R,1.600000X1.600000*%
G04 #@! TD*
G04 #@! TA.AperFunction,ComponentPad*
%ADD19R,1.727200X1.727200*%
G04 #@! TD*
G04 #@! TA.AperFunction,ComponentPad*
%ADD20O,1.727200X1.727200*%
G04 #@! TD*
G04 #@! TA.AperFunction,ComponentPad*
%ADD21R,2.000000X2.000000*%
G04 #@! TD*
G04 #@! TA.AperFunction,ComponentPad*
%ADD22C,2.000000*%
G04 #@! TD*
G04 #@! TA.AperFunction,ViaPad*
%ADD23C,0.800000*%
G04 #@! TD*
G04 #@! TA.AperFunction,Conductor*
%ADD24C,0.250000*%
G04 #@! TD*
G04 #@! TA.AperFunction,Conductor*
%ADD25C,0.600000*%
G04 #@! TD*
G04 #@! TA.AperFunction,Conductor*
%ADD26C,0.254000*%
G04 #@! TD*
G04 APERTURE END LIST*
D10*
G04 #@! TO.P,JP1,1*
G04 #@! TO.N,Net-(JP1-Pad1)*
X110327000Y-107980000D03*
D11*
G04 #@! TO.P,JP1,2*
G04 #@! TO.N,ADDR_SEL*
X112867000Y-107980000D03*
G04 #@! TO.P,JP1,3*
G04 #@! TO.N,A7*
X115407000Y-107980000D03*
G04 #@! TD*
D12*
G04 #@! TO.P,Q1,2*
G04 #@! TO.N,Net-(JP1-Pad1)*
X135194000Y-119710000D03*
G04 #@! TO.P,Q1,3*
G04 #@! TO.N,Net-(Q1-Pad3)*
X137734000Y-119710000D03*
D13*
G04 #@! TO.P,Q1,1*
G04 #@! TO.N,GND*
X132654000Y-119710000D03*
G04 #@! TD*
D14*
G04 #@! TO.P,R1,2*
G04 #@! TO.N,Net-(D1-Pad2)*
X109728000Y-125476000D03*
D15*
G04 #@! TO.P,R1,1*
G04 #@! TO.N,VCC*
X119888000Y-125476000D03*
G04 #@! TD*
G04 #@! TO.P,R2,1*
G04 #@! TO.N,VCC*
X119888000Y-128524000D03*
D14*
G04 #@! TO.P,R2,2*
G04 #@! TO.N,Net-(D2-Pad2)*
X109728000Y-128524000D03*
G04 #@! TD*
G04 #@! TO.P,R4,2*
G04 #@! TO.N,A7*
X151765000Y-120015000D03*
D15*
G04 #@! TO.P,R4,1*
G04 #@! TO.N,Net-(Q1-Pad3)*
X141605000Y-120015000D03*
G04 #@! TD*
G04 #@! TO.P,R5,1*
G04 #@! TO.N,Net-(JP1-Pad1)*
X155575000Y-120015000D03*
D14*
G04 #@! TO.P,R5,2*
G04 #@! TO.N,VCC*
X165735000Y-120015000D03*
G04 #@! TD*
D10*
G04 #@! TO.P,J2,1*
G04 #@! TO.N,Net-(J2-Pad1)*
X116904000Y-99695000D03*
D11*
G04 #@! TO.P,J2,2*
G04 #@! TO.N,Net-(J2-Pad2)*
X116904000Y-102235000D03*
G04 #@! TO.P,J2,3*
G04 #@! TO.N,Net-(J2-Pad3)*
X114364000Y-99695000D03*
G04 #@! TO.P,J2,4*
G04 #@! TO.N,Net-(J2-Pad2)*
X114364000Y-102235000D03*
G04 #@! TO.P,J2,5*
G04 #@! TO.N,Net-(J2-Pad5)*
X111824000Y-99695000D03*
G04 #@! TO.P,J2,6*
G04 #@! TO.N,Net-(J2-Pad2)*
X111824000Y-102235000D03*
G04 #@! TO.P,J2,7*
G04 #@! TO.N,Net-(J2-Pad7)*
X109284000Y-99695000D03*
G04 #@! TO.P,J2,8*
G04 #@! TO.N,Net-(J2-Pad2)*
X109284000Y-102235000D03*
G04 #@! TD*
D16*
G04 #@! TO.P,D3,1*
G04 #@! TO.N,Net-(D3-Pad1)*
X125870000Y-118032000D03*
D17*
G04 #@! TO.P,D3,2*
G04 #@! TO.N,Net-(D3-Pad2)*
X125870000Y-120572000D03*
G04 #@! TD*
D18*
G04 #@! TO.P,U2,1*
G04 #@! TO.N,VCC*
X139764000Y-96710500D03*
D14*
G04 #@! TO.P,U2,8*
G04 #@! TO.N,Net-(U2-Pad8)*
X147384000Y-111950500D03*
G04 #@! TO.P,U2,2*
G04 #@! TO.N,/D0*
X139764000Y-99250500D03*
G04 #@! TO.P,U2,9*
G04 #@! TO.N,/DA1*
X147384000Y-109410500D03*
G04 #@! TO.P,U2,3*
G04 #@! TO.N,Net-(U1-Pad1)*
X139764000Y-101790500D03*
G04 #@! TO.P,U2,10*
G04 #@! TO.N,VCC*
X147384000Y-106870500D03*
G04 #@! TO.P,U2,4*
G04 #@! TO.N,Net-(U2-Pad13)*
X139764000Y-104330500D03*
G04 #@! TO.P,U2,11*
G04 #@! TO.N,Net-(U1-Pad1)*
X147384000Y-104330500D03*
G04 #@! TO.P,U2,5*
G04 #@! TO.N,/DA0*
X139764000Y-106870500D03*
G04 #@! TO.P,U2,12*
G04 #@! TO.N,/D1*
X147384000Y-101790500D03*
G04 #@! TO.P,U2,6*
G04 #@! TO.N,Net-(U2-Pad6)*
X139764000Y-109410500D03*
G04 #@! TO.P,U2,13*
G04 #@! TO.N,Net-(U2-Pad13)*
X147384000Y-99250500D03*
G04 #@! TO.P,U2,7*
G04 #@! TO.N,GND*
X139764000Y-111950500D03*
G04 #@! TO.P,U2,14*
G04 #@! TO.N,VCC*
X147384000Y-96710500D03*
G04 #@! TD*
D15*
G04 #@! TO.P,R3,1*
G04 #@! TO.N,VCC*
X109220000Y-113284000D03*
D14*
G04 #@! TO.P,R3,2*
G04 #@! TO.N,Net-(D3-Pad2)*
X119380000Y-113284000D03*
G04 #@! TD*
D18*
G04 #@! TO.P,U7,1*
G04 #@! TO.N,/A14*
X180340000Y-79375000D03*
D14*
G04 #@! TO.P,U7,15*
G04 #@! TO.N,/D3*
X195580000Y-112395000D03*
G04 #@! TO.P,U7,2*
G04 #@! TO.N,/A12*
X180340000Y-81915000D03*
G04 #@! TO.P,U7,16*
G04 #@! TO.N,/D4*
X195580000Y-109855000D03*
G04 #@! TO.P,U7,3*
G04 #@! TO.N,A7*
X180340000Y-84455000D03*
G04 #@! TO.P,U7,17*
G04 #@! TO.N,/D5*
X195580000Y-107315000D03*
G04 #@! TO.P,U7,4*
G04 #@! TO.N,/A6*
X180340000Y-86995000D03*
G04 #@! TO.P,U7,18*
G04 #@! TO.N,/D6*
X195580000Y-104775000D03*
G04 #@! TO.P,U7,5*
G04 #@! TO.N,/A5*
X180340000Y-89535000D03*
G04 #@! TO.P,U7,19*
G04 #@! TO.N,/D7*
X195580000Y-102235000D03*
G04 #@! TO.P,U7,6*
G04 #@! TO.N,/A4*
X180340000Y-92075000D03*
G04 #@! TO.P,U7,20*
G04 #@! TO.N,Net-(U1-Pad13)*
X195580000Y-99695000D03*
G04 #@! TO.P,U7,7*
G04 #@! TO.N,/A3*
X180340000Y-94615000D03*
G04 #@! TO.P,U7,21*
G04 #@! TO.N,/A10*
X195580000Y-97155000D03*
G04 #@! TO.P,U7,8*
G04 #@! TO.N,/A2*
X180340000Y-97155000D03*
G04 #@! TO.P,U7,22*
G04 #@! TO.N,~MEMRD*
X195580000Y-94615000D03*
G04 #@! TO.P,U7,9*
G04 #@! TO.N,/A1*
X180340000Y-99695000D03*
G04 #@! TO.P,U7,23*
G04 #@! TO.N,/A11*
X195580000Y-92075000D03*
G04 #@! TO.P,U7,10*
G04 #@! TO.N,/A0*
X180340000Y-102235000D03*
G04 #@! TO.P,U7,24*
G04 #@! TO.N,/A9*
X195580000Y-89535000D03*
G04 #@! TO.P,U7,11*
G04 #@! TO.N,/D0*
X180340000Y-104775000D03*
G04 #@! TO.P,U7,25*
G04 #@! TO.N,/A8*
X195580000Y-86995000D03*
G04 #@! TO.P,U7,12*
G04 #@! TO.N,/D1*
X180340000Y-107315000D03*
G04 #@! TO.P,U7,26*
G04 #@! TO.N,/A13*
X195580000Y-84455000D03*
G04 #@! TO.P,U7,13*
G04 #@! TO.N,/D2*
X180340000Y-109855000D03*
G04 #@! TO.P,U7,27*
G04 #@! TO.N,VCC*
X195580000Y-81915000D03*
G04 #@! TO.P,U7,14*
G04 #@! TO.N,GND*
X180340000Y-112395000D03*
G04 #@! TO.P,U7,28*
G04 #@! TO.N,VCC*
X195580000Y-79375000D03*
G04 #@! TD*
D19*
G04 #@! TO.P,J1,1*
G04 #@! TO.N,VCC*
X175260000Y-125095000D03*
D20*
G04 #@! TO.P,J1,2*
G04 #@! TO.N,GND*
X175260000Y-127635000D03*
G04 #@! TO.P,J1,3*
G04 #@! TO.N,VCC*
X172720000Y-125095000D03*
G04 #@! TO.P,J1,4*
G04 #@! TO.N,GND*
X172720000Y-127635000D03*
G04 #@! TO.P,J1,5*
G04 #@! TO.N,Net-(J1-Pad5)*
X170180000Y-125095000D03*
G04 #@! TO.P,J1,6*
G04 #@! TO.N,Net-(J1-Pad6)*
X170180000Y-127635000D03*
G04 #@! TO.P,J1,7*
G04 #@! TO.N,Net-(J1-Pad7)*
X167640000Y-125095000D03*
G04 #@! TO.P,J1,8*
G04 #@! TO.N,Net-(J1-Pad8)*
X167640000Y-127635000D03*
G04 #@! TO.P,J1,9*
G04 #@! TO.N,/D0*
X165100000Y-125095000D03*
G04 #@! TO.P,J1,10*
G04 #@! TO.N,/D1*
X165100000Y-127635000D03*
G04 #@! TO.P,J1,11*
G04 #@! TO.N,/D2*
X162560000Y-125095000D03*
G04 #@! TO.P,J1,12*
G04 #@! TO.N,/D3*
X162560000Y-127635000D03*
G04 #@! TO.P,J1,13*
G04 #@! TO.N,/D4*
X160020000Y-125095000D03*
G04 #@! TO.P,J1,14*
G04 #@! TO.N,/D5*
X160020000Y-127635000D03*
G04 #@! TO.P,J1,15*
G04 #@! TO.N,/D6*
X157480000Y-125095000D03*
G04 #@! TO.P,J1,16*
G04 #@! TO.N,/D7*
X157480000Y-127635000D03*
G04 #@! TO.P,J1,17*
G04 #@! TO.N,Net-(J1-Pad17)*
X154940000Y-125095000D03*
G04 #@! TO.P,J1,18*
G04 #@! TO.N,~MEMRD*
X154940000Y-127635000D03*
G04 #@! TO.P,J1,19*
G04 #@! TO.N,~IOWR*
X152400000Y-125095000D03*
G04 #@! TO.P,J1,20*
G04 #@! TO.N,~MEMWR*
X152400000Y-127635000D03*
G04 #@! TO.P,J1,21*
G04 #@! TO.N,RES*
X149860000Y-125095000D03*
G04 #@! TO.P,J1,22*
G04 #@! TO.N,Net-(J1-Pad22)*
X149860000Y-127635000D03*
G04 #@! TO.P,J1,23*
G04 #@! TO.N,Net-(J1-Pad23)*
X147320000Y-125095000D03*
G04 #@! TO.P,J1,24*
G04 #@! TO.N,Net-(J1-Pad24)*
X147320000Y-127635000D03*
G04 #@! TO.P,J1,25*
G04 #@! TO.N,/A0*
X144780000Y-125095000D03*
G04 #@! TO.P,J1,26*
G04 #@! TO.N,/A1*
X144780000Y-127635000D03*
G04 #@! TO.P,J1,27*
G04 #@! TO.N,/A2*
X142240000Y-125095000D03*
G04 #@! TO.P,J1,28*
G04 #@! TO.N,/A3*
X142240000Y-127635000D03*
G04 #@! TO.P,J1,29*
G04 #@! TO.N,/A4*
X139700000Y-125095000D03*
G04 #@! TO.P,J1,30*
G04 #@! TO.N,/A5*
X139700000Y-127635000D03*
G04 #@! TO.P,J1,31*
G04 #@! TO.N,/A6*
X137160000Y-125095000D03*
G04 #@! TO.P,J1,32*
G04 #@! TO.N,A7*
X137160000Y-127635000D03*
G04 #@! TO.P,J1,33*
G04 #@! TO.N,/A8*
X134620000Y-125095000D03*
G04 #@! TO.P,J1,34*
G04 #@! TO.N,/A9*
X134620000Y-127635000D03*
G04 #@! TO.P,J1,35*
G04 #@! TO.N,/A10*
X132080000Y-125095000D03*
G04 #@! TO.P,J1,36*
G04 #@! TO.N,/A11*
X132080000Y-127635000D03*
G04 #@! TO.P,J1,37*
G04 #@! TO.N,/A12*
X129540000Y-125095000D03*
G04 #@! TO.P,J1,38*
G04 #@! TO.N,/A13*
X129540000Y-127635000D03*
G04 #@! TO.P,J1,39*
G04 #@! TO.N,/A14*
X127000000Y-125095000D03*
G04 #@! TO.P,J1,40*
G04 #@! TO.N,/A15*
X127000000Y-127635000D03*
G04 #@! TD*
D21*
G04 #@! TO.P,D1,1*
G04 #@! TO.N,Net-(D1-Pad1)*
X111920000Y-118092000D03*
D22*
G04 #@! TO.P,D1,2*
G04 #@! TO.N,Net-(D1-Pad2)*
X111920000Y-120632000D03*
G04 #@! TD*
D21*
G04 #@! TO.P,D2,1*
G04 #@! TO.N,Net-(D2-Pad1)*
X118370000Y-118172000D03*
D22*
G04 #@! TO.P,D2,2*
G04 #@! TO.N,Net-(D2-Pad2)*
X118370000Y-120712000D03*
G04 #@! TD*
D18*
G04 #@! TO.P,U1,1*
G04 #@! TO.N,Net-(U1-Pad1)*
X139890000Y-73025000D03*
D14*
G04 #@! TO.P,U1,8*
G04 #@! TO.N,Net-(U1-Pad8)*
X147510000Y-88265000D03*
G04 #@! TO.P,U1,2*
G04 #@! TO.N,~IOWR*
X139890000Y-75565000D03*
G04 #@! TO.P,U1,9*
G04 #@! TO.N,Net-(U1-Pad4)*
X147510000Y-85725000D03*
G04 #@! TO.P,U1,3*
G04 #@! TO.N,Net-(J2-Pad2)*
X139890000Y-78105000D03*
G04 #@! TO.P,U1,10*
G04 #@! TO.N,Net-(U1-Pad10)*
X147510000Y-83185000D03*
G04 #@! TO.P,U1,4*
G04 #@! TO.N,Net-(U1-Pad4)*
X139890000Y-80645000D03*
G04 #@! TO.P,U1,11*
G04 #@! TO.N,Net-(U1-Pad10)*
X147510000Y-80645000D03*
G04 #@! TO.P,U1,5*
G04 #@! TO.N,/DA0*
X139890000Y-83185000D03*
G04 #@! TO.P,U1,12*
G04 #@! TO.N,Net-(U1-Pad10)*
X147510000Y-78105000D03*
G04 #@! TO.P,U1,6*
G04 #@! TO.N,/DA1*
X139890000Y-85725000D03*
G04 #@! TO.P,U1,13*
G04 #@! TO.N,Net-(U1-Pad13)*
X147510000Y-75565000D03*
G04 #@! TO.P,U1,7*
G04 #@! TO.N,GND*
X139890000Y-88265000D03*
G04 #@! TO.P,U1,14*
G04 #@! TO.N,VCC*
X147510000Y-73025000D03*
G04 #@! TD*
D18*
G04 #@! TO.P,U3,1*
G04 #@! TO.N,ADDR_SEL*
X109230000Y-75410000D03*
D14*
G04 #@! TO.P,U3,9*
G04 #@! TO.N,Net-(U3-Pad9)*
X116850000Y-93190000D03*
G04 #@! TO.P,U3,2*
G04 #@! TO.N,/A5*
X109230000Y-77950000D03*
G04 #@! TO.P,U3,10*
G04 #@! TO.N,Net-(U3-Pad10)*
X116850000Y-90650000D03*
G04 #@! TO.P,U3,3*
G04 #@! TO.N,/A6*
X109230000Y-80490000D03*
G04 #@! TO.P,U3,11*
G04 #@! TO.N,Net-(U3-Pad11)*
X116850000Y-88110000D03*
G04 #@! TO.P,U3,4*
G04 #@! TO.N,Net-(J2-Pad1)*
X109230000Y-83030000D03*
G04 #@! TO.P,U3,12*
G04 #@! TO.N,Net-(U1-Pad8)*
X116850000Y-85570000D03*
G04 #@! TO.P,U3,5*
G04 #@! TO.N,Net-(J2-Pad3)*
X109230000Y-85570000D03*
G04 #@! TO.P,U3,13*
G04 #@! TO.N,/A15*
X116850000Y-83030000D03*
G04 #@! TO.P,U3,6*
G04 #@! TO.N,Net-(J2-Pad5)*
X109230000Y-88110000D03*
G04 #@! TO.P,U3,14*
G04 #@! TO.N,/A14*
X116850000Y-80490000D03*
G04 #@! TO.P,U3,7*
G04 #@! TO.N,Net-(J2-Pad7)*
X109230000Y-90650000D03*
G04 #@! TO.P,U3,15*
G04 #@! TO.N,GND*
X116850000Y-77950000D03*
G04 #@! TO.P,U3,8*
X109230000Y-93190000D03*
G04 #@! TO.P,U3,16*
G04 #@! TO.N,VCC*
X116850000Y-75410000D03*
G04 #@! TD*
D18*
G04 #@! TO.P,U4,1*
G04 #@! TO.N,/DA1*
X125158000Y-73088500D03*
D14*
G04 #@! TO.P,U4,8*
G04 #@! TO.N,Net-(D2-Pad1)*
X132778000Y-88328500D03*
G04 #@! TO.P,U4,2*
G04 #@! TO.N,Net-(U4-Pad2)*
X125158000Y-75628500D03*
G04 #@! TO.P,U4,9*
G04 #@! TO.N,/DA1*
X132778000Y-85788500D03*
G04 #@! TO.P,U4,3*
G04 #@! TO.N,Net-(U4-Pad3)*
X125158000Y-78168500D03*
G04 #@! TO.P,U4,10*
G04 #@! TO.N,Net-(D1-Pad1)*
X132778000Y-83248500D03*
G04 #@! TO.P,U4,4*
G04 #@! TO.N,/MEMA16*
X125158000Y-80708500D03*
G04 #@! TO.P,U4,11*
G04 #@! TO.N,/DA0*
X132778000Y-80708500D03*
G04 #@! TO.P,U4,5*
G04 #@! TO.N,RES*
X125158000Y-83248500D03*
G04 #@! TO.P,U4,12*
G04 #@! TO.N,Net-(D3-Pad1)*
X132778000Y-78168500D03*
G04 #@! TO.P,U4,6*
G04 #@! TO.N,Net-(U2-Pad13)*
X125158000Y-85788500D03*
G04 #@! TO.P,U4,13*
G04 #@! TO.N,Net-(U1-Pad4)*
X132778000Y-75628500D03*
G04 #@! TO.P,U4,7*
G04 #@! TO.N,GND*
X125158000Y-88328500D03*
G04 #@! TO.P,U4,14*
G04 #@! TO.N,VCC*
X132778000Y-73088500D03*
G04 #@! TD*
D18*
G04 #@! TO.P,U5,1*
G04 #@! TO.N,/DA0*
X124904000Y-96837500D03*
D14*
G04 #@! TO.P,U5,8*
G04 #@! TO.N,Net-(U5-Pad5)*
X132524000Y-112077500D03*
G04 #@! TO.P,U5,2*
G04 #@! TO.N,/A15*
X124904000Y-99377500D03*
G04 #@! TO.P,U5,9*
X132524000Y-109537500D03*
G04 #@! TO.P,U5,3*
G04 #@! TO.N,Net-(U5-Pad3)*
X124904000Y-101917500D03*
G04 #@! TO.P,U5,10*
G04 #@! TO.N,Net-(U4-Pad2)*
X132524000Y-106997500D03*
G04 #@! TO.P,U5,4*
G04 #@! TO.N,Net-(U5-Pad3)*
X124904000Y-104457500D03*
G04 #@! TO.P,U5,11*
G04 #@! TO.N,Net-(U4-Pad3)*
X132524000Y-104457500D03*
G04 #@! TO.P,U5,5*
G04 #@! TO.N,Net-(U5-Pad5)*
X124904000Y-106997500D03*
G04 #@! TO.P,U5,12*
G04 #@! TO.N,/DA1*
X132524000Y-101917500D03*
G04 #@! TO.P,U5,6*
G04 #@! TO.N,/MEMA15*
X124904000Y-109537500D03*
G04 #@! TO.P,U5,13*
G04 #@! TO.N,/A15*
X132524000Y-99377500D03*
G04 #@! TO.P,U5,7*
G04 #@! TO.N,GND*
X124904000Y-112077500D03*
G04 #@! TO.P,U5,14*
G04 #@! TO.N,VCC*
X132524000Y-96837500D03*
G04 #@! TD*
D18*
G04 #@! TO.P,U6,1*
G04 #@! TO.N,N/C*
X157480000Y-74295000D03*
D14*
G04 #@! TO.P,U6,17*
G04 #@! TO.N,/D3*
X172720000Y-112395000D03*
G04 #@! TO.P,U6,2*
G04 #@! TO.N,/MEMA16*
X157480000Y-76835000D03*
G04 #@! TO.P,U6,18*
G04 #@! TO.N,/D4*
X172720000Y-109855000D03*
G04 #@! TO.P,U6,3*
G04 #@! TO.N,/A14*
X157480000Y-79375000D03*
G04 #@! TO.P,U6,19*
G04 #@! TO.N,/D5*
X172720000Y-107315000D03*
G04 #@! TO.P,U6,4*
G04 #@! TO.N,/A12*
X157480000Y-81915000D03*
G04 #@! TO.P,U6,20*
G04 #@! TO.N,/D6*
X172720000Y-104775000D03*
G04 #@! TO.P,U6,5*
G04 #@! TO.N,A7*
X157480000Y-84455000D03*
G04 #@! TO.P,U6,21*
G04 #@! TO.N,/D7*
X172720000Y-102235000D03*
G04 #@! TO.P,U6,6*
G04 #@! TO.N,/A6*
X157480000Y-86995000D03*
G04 #@! TO.P,U6,22*
G04 #@! TO.N,GND*
X172720000Y-99695000D03*
G04 #@! TO.P,U6,7*
G04 #@! TO.N,/A5*
X157480000Y-89535000D03*
G04 #@! TO.P,U6,23*
G04 #@! TO.N,/A10*
X172720000Y-97155000D03*
G04 #@! TO.P,U6,8*
G04 #@! TO.N,/A4*
X157480000Y-92075000D03*
G04 #@! TO.P,U6,24*
G04 #@! TO.N,~MEMRD*
X172720000Y-94615000D03*
G04 #@! TO.P,U6,9*
G04 #@! TO.N,/A3*
X157480000Y-94615000D03*
G04 #@! TO.P,U6,25*
G04 #@! TO.N,/A11*
X172720000Y-92075000D03*
G04 #@! TO.P,U6,10*
G04 #@! TO.N,/A2*
X157480000Y-97155000D03*
G04 #@! TO.P,U6,26*
G04 #@! TO.N,/A9*
X172720000Y-89535000D03*
G04 #@! TO.P,U6,11*
G04 #@! TO.N,/A1*
X157480000Y-99695000D03*
G04 #@! TO.P,U6,27*
G04 #@! TO.N,/A8*
X172720000Y-86995000D03*
G04 #@! TO.P,U6,12*
G04 #@! TO.N,/A0*
X157480000Y-102235000D03*
G04 #@! TO.P,U6,28*
G04 #@! TO.N,/A13*
X172720000Y-84455000D03*
G04 #@! TO.P,U6,13*
G04 #@! TO.N,/D0*
X157480000Y-104775000D03*
G04 #@! TO.P,U6,29*
G04 #@! TO.N,~MEMWR*
X172720000Y-81915000D03*
G04 #@! TO.P,U6,14*
G04 #@! TO.N,/D1*
X157480000Y-107315000D03*
G04 #@! TO.P,U6,30*
G04 #@! TO.N,Net-(U1-Pad13)*
X172720000Y-79375000D03*
G04 #@! TO.P,U6,15*
G04 #@! TO.N,/D2*
X157480000Y-109855000D03*
G04 #@! TO.P,U6,31*
G04 #@! TO.N,/MEMA15*
X172720000Y-76835000D03*
G04 #@! TO.P,U6,16*
G04 #@! TO.N,GND*
X157480000Y-112395000D03*
G04 #@! TO.P,U6,32*
G04 #@! TO.N,VCC*
X172720000Y-74295000D03*
G04 #@! TD*
D15*
G04 #@! TO.P,C1,1*
G04 #@! TO.N,VCC*
X147920000Y-69490000D03*
G04 #@! TO.P,C1,2*
G04 #@! TO.N,GND*
X145420000Y-69490000D03*
G04 #@! TD*
G04 #@! TO.P,C2,1*
G04 #@! TO.N,VCC*
X147828000Y-93281500D03*
G04 #@! TO.P,C2,2*
G04 #@! TO.N,GND*
X145328000Y-93281500D03*
G04 #@! TD*
G04 #@! TO.P,C3,1*
G04 #@! TO.N,VCC*
X117390000Y-72000000D03*
G04 #@! TO.P,C3,2*
G04 #@! TO.N,GND*
X114890000Y-72000000D03*
G04 #@! TD*
G04 #@! TO.P,C4,1*
G04 #@! TO.N,VCC*
X133096000Y-69278500D03*
G04 #@! TO.P,C4,2*
G04 #@! TO.N,GND*
X130596000Y-69278500D03*
G04 #@! TD*
G04 #@! TO.P,C5,1*
G04 #@! TO.N,VCC*
X133032000Y-93408500D03*
G04 #@! TO.P,C5,2*
G04 #@! TO.N,GND*
X130532000Y-93408500D03*
G04 #@! TD*
G04 #@! TO.P,C6,1*
G04 #@! TO.N,VCC*
X172720000Y-71120000D03*
G04 #@! TO.P,C6,2*
G04 #@! TO.N,GND*
X170220000Y-71120000D03*
G04 #@! TD*
G04 #@! TO.P,C7,1*
G04 #@! TO.N,VCC*
X195540000Y-76200000D03*
G04 #@! TO.P,C7,2*
G04 #@! TO.N,GND*
X193040000Y-76200000D03*
G04 #@! TD*
D18*
G04 #@! TO.P,C8,1*
G04 #@! TO.N,VCC*
X185420000Y-126365000D03*
D15*
G04 #@! TO.P,C8,2*
G04 #@! TO.N,GND*
X187920000Y-126365000D03*
G04 #@! TD*
D23*
G04 #@! TO.N,Net-(D1-Pad1)*
X114952600Y-84444600D03*
G04 #@! TO.N,Net-(D2-Pad1)*
X133935100Y-104676500D03*
G04 #@! TO.N,GND*
X115189000Y-113665000D03*
X145923000Y-90678000D03*
X187325000Y-81915000D03*
X120142000Y-92964000D03*
X184912000Y-118491000D03*
X136398000Y-113665000D03*
G04 #@! TO.N,/D2*
X171243100Y-112895900D03*
G04 #@! TO.N,~IOWR*
X139956700Y-114157000D03*
G04 #@! TO.N,/A8*
X154779100Y-88148600D03*
G04 #@! TO.N,/A9*
X154051006Y-120777000D03*
G04 #@! TO.N,/A10*
X151422600Y-103133800D03*
G04 #@! TO.N,/A11*
X154432000Y-121793000D03*
G04 #@! TO.N,RES*
X138801000Y-115312700D03*
G04 #@! TO.N,Net-(U2-Pad13)*
X130035900Y-90666400D03*
G04 #@! TO.N,Net-(D3-Pad1)*
X132510100Y-113709500D03*
G04 #@! TD*
D24*
G04 #@! TO.N,Net-(D1-Pad1)*
X132778000Y-83248500D02*
X131652700Y-83248500D01*
X131652700Y-83248500D02*
X130456600Y-84444600D01*
X130456600Y-84444600D02*
X114952600Y-84444600D01*
G04 #@! TO.N,Net-(D2-Pad1)*
X118370000Y-116846700D02*
X118253500Y-116730200D01*
X118253500Y-116730200D02*
X118253500Y-112021600D01*
X118253500Y-112021600D02*
X124547600Y-105727500D01*
X124547600Y-105727500D02*
X132884100Y-105727500D01*
X132884100Y-105727500D02*
X133935100Y-104676500D01*
X118370000Y-118172000D02*
X118370000Y-116846700D01*
D25*
G04 #@! TO.N,VCC*
X132778000Y-73088500D02*
X134078300Y-73088500D01*
X147510000Y-73025000D02*
X146209700Y-73025000D01*
X146209700Y-73025000D02*
X144909300Y-71724600D01*
X144909300Y-71724600D02*
X135442200Y-71724600D01*
X135442200Y-71724600D02*
X134078300Y-73088500D01*
X112056300Y-113284000D02*
X120463600Y-104876700D01*
X120463600Y-104876700D02*
X120463600Y-98946200D01*
X120463600Y-98946200D02*
X123872700Y-95537100D01*
X123872700Y-95537100D02*
X129923300Y-95537100D01*
X129923300Y-95537100D02*
X131223700Y-96837500D01*
X132524000Y-96837500D02*
X133824300Y-96837500D01*
X139764000Y-96710500D02*
X133951300Y-96710500D01*
X133951300Y-96710500D02*
X133824300Y-96837500D01*
X147384000Y-96710500D02*
X139764000Y-96710500D01*
X194279700Y-79375000D02*
X189199700Y-74295000D01*
X189199700Y-74295000D02*
X172720000Y-74295000D01*
X132778000Y-73088500D02*
X131477700Y-73088500D01*
X131477700Y-73088500D02*
X130177300Y-71788100D01*
X130177300Y-71788100D02*
X117601900Y-71788100D01*
X117601900Y-71788100D02*
X117390000Y-72000000D01*
X109220000Y-113284000D02*
X112056300Y-113284000D01*
X112056300Y-113284000D02*
X116624400Y-117852100D01*
X116624400Y-117852100D02*
X116624400Y-122212400D01*
X116624400Y-122212400D02*
X119888000Y-125476000D01*
X132524000Y-96837500D02*
X131223700Y-96837500D01*
X172720000Y-125095000D02*
X167640000Y-120015000D01*
X167640000Y-120015000D02*
X165735000Y-120015000D01*
X172720000Y-125095000D02*
X175260000Y-125095000D01*
X195580000Y-79375000D02*
X194279700Y-79375000D01*
G04 #@! TO.N,GND*
X180239100Y-125064600D02*
X179194300Y-125064600D01*
X179194300Y-125064600D02*
X176623900Y-127635000D01*
X187920000Y-126365000D02*
X186619600Y-125064600D01*
X186619600Y-125064600D02*
X180239100Y-125064600D01*
X180239100Y-113796200D02*
X180239100Y-125064600D01*
X180239100Y-113796200D02*
X180340000Y-113695300D01*
X158780300Y-112395000D02*
X160181500Y-113796200D01*
X160181500Y-113796200D02*
X180239100Y-113796200D01*
X175260000Y-127635000D02*
X176623900Y-127635000D01*
X157480000Y-112395000D02*
X158780300Y-112395000D01*
X130596000Y-69278500D02*
X131907700Y-70590200D01*
X131907700Y-70590200D02*
X144319800Y-70590200D01*
X144319800Y-70590200D02*
X145420000Y-69490000D01*
X114890000Y-72000000D02*
X117611500Y-69278500D01*
X117611500Y-69278500D02*
X130596000Y-69278500D01*
X170220000Y-71120000D02*
X147050000Y-71120000D01*
X147050000Y-71120000D02*
X145420000Y-69490000D01*
X156179700Y-112395000D02*
X155323900Y-113250800D01*
X155323900Y-113250800D02*
X139764000Y-113250800D01*
X145328000Y-93281500D02*
X144138100Y-92091600D01*
X144138100Y-92091600D02*
X131848900Y-92091600D01*
X131848900Y-92091600D02*
X130532000Y-93408500D01*
X139764000Y-113250800D02*
X139548000Y-113250800D01*
X139548000Y-113250800D02*
X133904300Y-118894500D01*
X133904300Y-118894500D02*
X133904300Y-119710000D01*
X157480000Y-112395000D02*
X156179700Y-112395000D01*
X132654000Y-119710000D02*
X133904300Y-119710000D01*
X139764000Y-111950500D02*
X139764000Y-113250800D01*
X193040000Y-76200000D02*
X189547500Y-72707500D01*
X189547500Y-72707500D02*
X171807500Y-72707500D01*
X171807500Y-72707500D02*
X170220000Y-71120000D01*
X180340000Y-112395000D02*
X180340000Y-113695300D01*
X172720000Y-127635000D02*
X175260000Y-127635000D01*
D24*
G04 #@! TO.N,/D0*
X140889300Y-99250500D02*
X142014600Y-100375800D01*
X142014600Y-100375800D02*
X147743200Y-100375800D01*
X147743200Y-100375800D02*
X150697300Y-103329900D01*
X150697300Y-103329900D02*
X150697300Y-103434200D01*
X150697300Y-103434200D02*
X152038100Y-104775000D01*
X152038100Y-104775000D02*
X157480000Y-104775000D01*
X139764000Y-99250500D02*
X140889300Y-99250500D01*
X158042700Y-104775000D02*
X157480000Y-104775000D01*
X158042700Y-104775000D02*
X158605300Y-104775000D01*
X180340000Y-104775000D02*
X179214700Y-104775000D01*
X158605300Y-104775000D02*
X159730600Y-105900300D01*
X159730600Y-105900300D02*
X178089400Y-105900300D01*
X178089400Y-105900300D02*
X179214700Y-104775000D01*
G04 #@! TO.N,/D1*
X148509300Y-101790500D02*
X148509300Y-101883100D01*
X148509300Y-101883100D02*
X153941200Y-107315000D01*
X153941200Y-107315000D02*
X157480000Y-107315000D01*
X147384000Y-101790500D02*
X148509300Y-101790500D01*
X158028200Y-107315000D02*
X157480000Y-107315000D01*
X180340000Y-107315000D02*
X179214700Y-107315000D01*
X158028200Y-107315000D02*
X158605300Y-107315000D01*
X179214700Y-107315000D02*
X178089400Y-108440300D01*
X178089400Y-108440300D02*
X159730600Y-108440300D01*
X159730600Y-108440300D02*
X158605300Y-107315000D01*
G04 #@! TO.N,/D2*
X171243100Y-110980700D02*
X173659900Y-110980700D01*
X173659900Y-110980700D02*
X174785600Y-109855000D01*
X174785600Y-109855000D02*
X179214700Y-109855000D01*
X158605300Y-109855000D02*
X159731000Y-110980700D01*
X159731000Y-110980700D02*
X171243100Y-110980700D01*
X171243100Y-110980700D02*
X171243100Y-112895900D01*
X180340000Y-109855000D02*
X179214700Y-109855000D01*
X157480000Y-109855000D02*
X158605300Y-109855000D01*
G04 #@! TO.N,/D3*
X195580000Y-112395000D02*
X194454700Y-112395000D01*
X172720000Y-112395000D02*
X173845300Y-112395000D01*
X173845300Y-112395000D02*
X174970600Y-111269700D01*
X174970600Y-111269700D02*
X193329400Y-111269700D01*
X193329400Y-111269700D02*
X194454700Y-112395000D01*
G04 #@! TO.N,/D4*
X172720000Y-109855000D02*
X173845300Y-109855000D01*
X173845300Y-109855000D02*
X174295700Y-109404600D01*
X174295700Y-109404600D02*
X178499300Y-109404600D01*
X178499300Y-109404600D02*
X179174200Y-108729700D01*
X179174200Y-108729700D02*
X193329400Y-108729700D01*
X193329400Y-108729700D02*
X194454700Y-109855000D01*
X195580000Y-109855000D02*
X194454700Y-109855000D01*
G04 #@! TO.N,/D5*
X195580000Y-107315000D02*
X194454700Y-107315000D01*
X172720000Y-107315000D02*
X177804700Y-107315000D01*
X177804700Y-107315000D02*
X178930000Y-106189700D01*
X178930000Y-106189700D02*
X193329400Y-106189700D01*
X193329400Y-106189700D02*
X194454700Y-107315000D01*
G04 #@! TO.N,/D6*
X195580000Y-104775000D02*
X194454700Y-104775000D01*
X172720000Y-104775000D02*
X177804700Y-104775000D01*
X177804700Y-104775000D02*
X178930000Y-103649700D01*
X178930000Y-103649700D02*
X193329400Y-103649700D01*
X193329400Y-103649700D02*
X194454700Y-104775000D01*
G04 #@! TO.N,/D7*
X195580000Y-102235000D02*
X194454700Y-102235000D01*
X172720000Y-102235000D02*
X173845300Y-102235000D01*
X173845300Y-102235000D02*
X174970600Y-101109700D01*
X174970600Y-101109700D02*
X193329400Y-101109700D01*
X193329400Y-101109700D02*
X194454700Y-102235000D01*
G04 #@! TO.N,~MEMRD*
X172720000Y-94615000D02*
X173845300Y-94615000D01*
X195580000Y-94615000D02*
X194454700Y-94615000D01*
X194454700Y-94615000D02*
X193329400Y-95740300D01*
X193329400Y-95740300D02*
X174970600Y-95740300D01*
X174970600Y-95740300D02*
X173845300Y-94615000D01*
G04 #@! TO.N,~IOWR*
X152400000Y-125095000D02*
X153263599Y-124231401D01*
X152006300Y-114157000D02*
X140522385Y-114157000D01*
X154084014Y-124231401D02*
X157191700Y-121123715D01*
X140522385Y-114157000D02*
X139956700Y-114157000D01*
X153263599Y-124231401D02*
X154084014Y-124231401D01*
X157191700Y-121123715D02*
X157191700Y-119342400D01*
X157191700Y-119342400D02*
X152006300Y-114157000D01*
G04 #@! TO.N,/A0*
X180340000Y-102235000D02*
X179214700Y-102235000D01*
X157480000Y-102235000D02*
X158605300Y-102235000D01*
X158605300Y-102235000D02*
X159730600Y-103360300D01*
X159730600Y-103360300D02*
X178089400Y-103360300D01*
X178089400Y-103360300D02*
X179214700Y-102235000D01*
G04 #@! TO.N,/A1*
X157480000Y-99695000D02*
X158605300Y-99695000D01*
X158605300Y-99695000D02*
X159741600Y-100831300D01*
X159741600Y-100831300D02*
X173951700Y-100831300D01*
X173951700Y-100831300D02*
X175088000Y-99695000D01*
X175088000Y-99695000D02*
X180340000Y-99695000D01*
G04 #@! TO.N,/A2*
X157480000Y-97155000D02*
X158605300Y-97155000D01*
X158605300Y-97155000D02*
X159738500Y-96021800D01*
X159738500Y-96021800D02*
X173349000Y-96021800D01*
X173349000Y-96021800D02*
X174482200Y-97155000D01*
X174482200Y-97155000D02*
X180340000Y-97155000D01*
G04 #@! TO.N,/A3*
X157480000Y-94615000D02*
X158605300Y-94615000D01*
X158605300Y-94615000D02*
X159738500Y-93481800D01*
X159738500Y-93481800D02*
X173349000Y-93481800D01*
X173349000Y-93481800D02*
X174482200Y-94615000D01*
X174482200Y-94615000D02*
X180340000Y-94615000D01*
G04 #@! TO.N,/A4*
X157480000Y-92075000D02*
X158605300Y-92075000D01*
X158605300Y-92075000D02*
X159738500Y-90941800D01*
X159738500Y-90941800D02*
X173349000Y-90941800D01*
X173349000Y-90941800D02*
X174482200Y-92075000D01*
X174482200Y-92075000D02*
X180340000Y-92075000D01*
G04 #@! TO.N,/A5*
X109230000Y-77950000D02*
X109230000Y-79075300D01*
X157480000Y-89535000D02*
X120810300Y-89535000D01*
X120810300Y-89535000D02*
X118125400Y-86850100D01*
X118125400Y-86850100D02*
X114850300Y-86850100D01*
X114850300Y-86850100D02*
X109760200Y-81760000D01*
X109760200Y-81760000D02*
X108895700Y-81760000D01*
X108895700Y-81760000D02*
X108104700Y-80969000D01*
X108104700Y-80969000D02*
X108104700Y-79919200D01*
X108104700Y-79919200D02*
X108948600Y-79075300D01*
X108948600Y-79075300D02*
X109230000Y-79075300D01*
X180340000Y-89535000D02*
X174482200Y-89535000D01*
X174482200Y-89535000D02*
X173349000Y-88401800D01*
X173349000Y-88401800D02*
X171317900Y-88401800D01*
X171317900Y-88401800D02*
X170184700Y-89535000D01*
X170184700Y-89535000D02*
X157480000Y-89535000D01*
G04 #@! TO.N,/A6*
X110355300Y-80490000D02*
X111769900Y-81904600D01*
X111769900Y-81904600D02*
X134060000Y-81904600D01*
X134060000Y-81904600D02*
X136673700Y-84518300D01*
X136673700Y-84518300D02*
X141936000Y-84518300D01*
X141936000Y-84518300D02*
X144412700Y-86995000D01*
X144412700Y-86995000D02*
X157480000Y-86995000D01*
X157480000Y-86995000D02*
X158605300Y-86995000D01*
X158605300Y-86995000D02*
X159738500Y-85861800D01*
X159738500Y-85861800D02*
X173349000Y-85861800D01*
X173349000Y-85861800D02*
X174482200Y-86995000D01*
X174482200Y-86995000D02*
X180340000Y-86995000D01*
X109230000Y-80490000D02*
X110355300Y-80490000D01*
G04 #@! TO.N,/A8*
X172720000Y-86995000D02*
X171594700Y-86995000D01*
X172720000Y-86995000D02*
X173845300Y-86995000D01*
X173845300Y-86995000D02*
X174970600Y-88120300D01*
X174970600Y-88120300D02*
X193329400Y-88120300D01*
X193329400Y-88120300D02*
X194454700Y-86995000D01*
X171594700Y-86995000D02*
X170441100Y-88148600D01*
X170441100Y-88148600D02*
X154779100Y-88148600D01*
X195580000Y-86995000D02*
X194454700Y-86995000D01*
G04 #@! TO.N,/A9*
X195580000Y-89535000D02*
X194454700Y-89535000D01*
X172720000Y-89535000D02*
X173845300Y-89535000D01*
X173845300Y-89535000D02*
X174970600Y-90660300D01*
X174970600Y-90660300D02*
X193329400Y-90660300D01*
X193329400Y-90660300D02*
X194454700Y-89535000D01*
X142264800Y-122548900D02*
X145924100Y-118889600D01*
X134620000Y-127635000D02*
X135808900Y-126446100D01*
X137495700Y-126446100D02*
X138397300Y-125544500D01*
X154051006Y-120211315D02*
X154051006Y-120777000D01*
X145924100Y-118889600D02*
X152729291Y-118889600D01*
X138397300Y-125544500D02*
X138397300Y-124643400D01*
X135808900Y-126446100D02*
X137495700Y-126446100D01*
X138397300Y-124643400D02*
X140491800Y-122548900D01*
X140491800Y-122548900D02*
X142264800Y-122548900D01*
X152729291Y-118889600D02*
X154051006Y-120211315D01*
G04 #@! TO.N,/A10*
X172720000Y-97155000D02*
X171594700Y-97155000D01*
X171594700Y-97155000D02*
X170469400Y-98280300D01*
X170469400Y-98280300D02*
X156276100Y-98280300D01*
X156276100Y-98280300D02*
X151422600Y-103133800D01*
X173001400Y-97155000D02*
X172720000Y-97155000D01*
X173001400Y-97155000D02*
X173845300Y-97155000D01*
X195580000Y-97155000D02*
X194454700Y-97155000D01*
X173845300Y-97155000D02*
X174970600Y-98280300D01*
X174970600Y-98280300D02*
X193329400Y-98280300D01*
X193329400Y-98280300D02*
X194454700Y-97155000D01*
G04 #@! TO.N,/A11*
X195580000Y-92075000D02*
X194454700Y-92075000D01*
X172720000Y-92075000D02*
X173845300Y-92075000D01*
X173845300Y-92075000D02*
X174970600Y-93200300D01*
X174970600Y-93200300D02*
X193329400Y-93200300D01*
X193329400Y-93200300D02*
X194454700Y-92075000D01*
X153866315Y-121793000D02*
X154432000Y-121793000D01*
X145969000Y-124763600D02*
X148939600Y-121793000D01*
X148939600Y-121793000D02*
X153866315Y-121793000D01*
X143510000Y-128114300D02*
X143510000Y-127201700D01*
X142800400Y-128823900D02*
X143510000Y-128114300D01*
X144265700Y-126446000D02*
X145132300Y-126446000D01*
X133268900Y-128823900D02*
X142800400Y-128823900D01*
X145969000Y-125609300D02*
X145969000Y-124763600D01*
X145132300Y-126446000D02*
X145969000Y-125609300D01*
X143510000Y-127201700D02*
X144265700Y-126446000D01*
X132080000Y-127635000D02*
X133268900Y-128823900D01*
G04 #@! TO.N,/A12*
X180340000Y-81915000D02*
X179214700Y-81915000D01*
X157480000Y-81915000D02*
X158605300Y-81915000D01*
X158605300Y-81915000D02*
X159730600Y-83040300D01*
X159730600Y-83040300D02*
X178089400Y-83040300D01*
X178089400Y-83040300D02*
X179214700Y-81915000D01*
G04 #@! TO.N,/A13*
X195580000Y-84455000D02*
X194454700Y-84455000D01*
X172720000Y-84455000D02*
X173845300Y-84455000D01*
X173845300Y-84455000D02*
X174970600Y-85580300D01*
X174970600Y-85580300D02*
X193329400Y-85580300D01*
X193329400Y-85580300D02*
X194454700Y-84455000D01*
G04 #@! TO.N,/A14*
X157480000Y-79375000D02*
X158605300Y-79375000D01*
X173845400Y-79375000D02*
X173845400Y-76282300D01*
X173845400Y-76282300D02*
X173272700Y-75709600D01*
X173272700Y-75709600D02*
X160983200Y-75709600D01*
X160983200Y-75709600D02*
X158443200Y-73169600D01*
X158443200Y-73169600D02*
X151150600Y-73169600D01*
X151150600Y-73169600D02*
X150087400Y-74232800D01*
X150087400Y-74232800D02*
X124232500Y-74232800D01*
X124232500Y-74232800D02*
X117975300Y-80490000D01*
X158605300Y-79375000D02*
X159778900Y-80548600D01*
X159778900Y-80548600D02*
X173170700Y-80548600D01*
X173170700Y-80548600D02*
X173845400Y-79873900D01*
X173845400Y-79873900D02*
X173845400Y-79375000D01*
X179777400Y-79375000D02*
X173845400Y-79375000D01*
X116850000Y-80490000D02*
X117975300Y-80490000D01*
X180340000Y-79375000D02*
X179777400Y-79375000D01*
G04 #@! TO.N,/A15*
X127000000Y-127635000D02*
X127000000Y-126446100D01*
X132524000Y-109537500D02*
X132524000Y-110662800D01*
X132524000Y-110662800D02*
X132805300Y-110662800D01*
X132805300Y-110662800D02*
X133654100Y-111511600D01*
X133654100Y-111511600D02*
X133654100Y-115067500D01*
X133654100Y-115067500D02*
X128188900Y-120532700D01*
X128188900Y-120532700D02*
X128188900Y-125628800D01*
X128188900Y-125628800D02*
X127371600Y-126446100D01*
X127371600Y-126446100D02*
X127000000Y-126446100D01*
X124904000Y-99377500D02*
X132524000Y-99377500D01*
G04 #@! TO.N,Net-(U1-Pad1)*
X139764000Y-101790500D02*
X140889300Y-101790500D01*
X140889300Y-101790500D02*
X143429300Y-104330500D01*
X143429300Y-104330500D02*
X146258700Y-104330500D01*
X147384000Y-104330500D02*
X146258700Y-104330500D01*
G04 #@! TO.N,/DA1*
X146258700Y-109410500D02*
X142448700Y-105600500D01*
X142448700Y-105600500D02*
X137332300Y-105600500D01*
X137332300Y-105600500D02*
X133649300Y-101917500D01*
X139890000Y-85725000D02*
X138764700Y-85725000D01*
X132778000Y-85788500D02*
X138701200Y-85788500D01*
X138701200Y-85788500D02*
X138764700Y-85725000D01*
X132524000Y-101917500D02*
X133649300Y-101917500D01*
X147384000Y-109410500D02*
X146258700Y-109410500D01*
G04 #@! TO.N,/DA0*
X124904000Y-96837500D02*
X124904000Y-97962800D01*
X124904000Y-97962800D02*
X124622700Y-97962800D01*
X124622700Y-97962800D02*
X123753100Y-98832400D01*
X123753100Y-98832400D02*
X123753100Y-99883300D01*
X123753100Y-99883300D02*
X124517300Y-100647500D01*
X124517300Y-100647500D02*
X127924500Y-100647500D01*
X127924500Y-100647500D02*
X130383400Y-103106400D01*
X130383400Y-103106400D02*
X133390800Y-103106400D01*
X133390800Y-103106400D02*
X137154900Y-106870500D01*
X137154900Y-106870500D02*
X139764000Y-106870500D01*
X139890000Y-83185000D02*
X138764700Y-83185000D01*
X132778000Y-80708500D02*
X136288200Y-80708500D01*
X136288200Y-80708500D02*
X138764700Y-83185000D01*
G04 #@! TO.N,/MEMA16*
X125158000Y-80708500D02*
X126283300Y-80708500D01*
X157480000Y-76835000D02*
X130156800Y-76835000D01*
X130156800Y-76835000D02*
X126283300Y-80708500D01*
G04 #@! TO.N,Net-(U5-Pad5)*
X124904000Y-106997500D02*
X126029300Y-106997500D01*
X126029300Y-106997500D02*
X131109300Y-112077500D01*
X131109300Y-112077500D02*
X132524000Y-112077500D01*
G04 #@! TO.N,Net-(D3-Pad2)*
X119380000Y-113284000D02*
X119380000Y-114409300D01*
X125870000Y-120572000D02*
X119707300Y-114409300D01*
X119707300Y-114409300D02*
X119380000Y-114409300D01*
G04 #@! TO.N,RES*
X149860000Y-125095000D02*
X152309998Y-122645002D01*
X152498900Y-115312700D02*
X139366685Y-115312700D01*
X156740600Y-119554400D02*
X152498900Y-115312700D01*
X139366685Y-115312700D02*
X138801000Y-115312700D01*
X156740600Y-120938404D02*
X156740600Y-119554400D01*
X155034002Y-122645002D02*
X156740600Y-120938404D01*
X152309998Y-122645002D02*
X155034002Y-122645002D01*
G04 #@! TO.N,Net-(U2-Pad13)*
X147384000Y-98125200D02*
X147665400Y-98125200D01*
X147665400Y-98125200D02*
X148509300Y-97281300D01*
X148509300Y-97281300D02*
X148509300Y-95992000D01*
X148509300Y-95992000D02*
X146578000Y-94060700D01*
X146578000Y-94060700D02*
X146578000Y-92935700D01*
X146578000Y-92935700D02*
X144308700Y-90666400D01*
X144308700Y-90666400D02*
X130035900Y-90666400D01*
X147384000Y-99250500D02*
X147384000Y-98125200D01*
X146258700Y-99250500D02*
X145124100Y-98115900D01*
X145124100Y-98115900D02*
X139305400Y-98115900D01*
X139305400Y-98115900D02*
X138638700Y-98782600D01*
X138638700Y-98782600D02*
X138638700Y-102361300D01*
X138638700Y-102361300D02*
X139482600Y-103205200D01*
X139482600Y-103205200D02*
X139764000Y-103205200D01*
X139764000Y-104330500D02*
X139764000Y-103205200D01*
X147384000Y-99250500D02*
X146258700Y-99250500D01*
G04 #@! TO.N,Net-(D3-Pad1)*
X127095300Y-118032000D02*
X131417800Y-113709500D01*
X131417800Y-113709500D02*
X132510100Y-113709500D01*
X125870000Y-118032000D02*
X127095300Y-118032000D01*
G04 #@! TO.N,Net-(U1-Pad13)*
X172720000Y-79375000D02*
X161896300Y-79375000D01*
X161896300Y-79375000D02*
X158086300Y-75565000D01*
X158086300Y-75565000D02*
X147510000Y-75565000D01*
G04 #@! TO.N,Net-(J2-Pad1)*
X116904000Y-99695000D02*
X116904000Y-98519700D01*
X109230000Y-83030000D02*
X109230000Y-84155300D01*
X109230000Y-84155300D02*
X109511300Y-84155300D01*
X109511300Y-84155300D02*
X115539400Y-90183400D01*
X115539400Y-90183400D02*
X115539400Y-97155100D01*
X115539400Y-97155100D02*
X116904000Y-98519700D01*
G04 #@! TO.N,Net-(U1-Pad8)*
X116850000Y-85570000D02*
X117975300Y-85570000D01*
X117975300Y-85570000D02*
X119400300Y-86995000D01*
X119400300Y-86995000D02*
X141274200Y-86995000D01*
X141274200Y-86995000D02*
X142544200Y-88265000D01*
X142544200Y-88265000D02*
X147510000Y-88265000D01*
G04 #@! TO.N,Net-(J2-Pad3)*
X109230000Y-85570000D02*
X109230000Y-86695300D01*
X109230000Y-86695300D02*
X109511300Y-86695300D01*
X109511300Y-86695300D02*
X114364000Y-91548000D01*
X114364000Y-91548000D02*
X114364000Y-99695000D01*
G04 #@! TO.N,Net-(J2-Pad5)*
X109230000Y-88110000D02*
X109230000Y-89235300D01*
X109230000Y-89235300D02*
X109511300Y-89235300D01*
X109511300Y-89235300D02*
X111824000Y-91548000D01*
X111824000Y-91548000D02*
X111824000Y-99695000D01*
G04 #@! TO.N,Net-(U1-Pad4)*
X139890000Y-80645000D02*
X141015300Y-80645000D01*
X141015300Y-80645000D02*
X146095300Y-85725000D01*
X146095300Y-85725000D02*
X147510000Y-85725000D01*
G04 #@! TO.N,Net-(J2-Pad2)*
X114364000Y-102235000D02*
X116904000Y-102235000D01*
X111824000Y-102235000D02*
X114364000Y-102235000D01*
X109284000Y-102235000D02*
X111824000Y-102235000D01*
G04 #@! TO.N,Net-(JP1-Pad1)*
X155575000Y-120015000D02*
X153967300Y-118407300D01*
X153967300Y-118407300D02*
X136496700Y-118407300D01*
X136496700Y-118407300D02*
X135194000Y-119710000D01*
G04 #@! TO.N,A7*
X138348900Y-127635000D02*
X138348900Y-127263400D01*
X138348900Y-127263400D02*
X139166200Y-126446100D01*
X139166200Y-126446100D02*
X140031300Y-126446100D01*
X140031300Y-126446100D02*
X140970000Y-125507400D01*
X140970000Y-125507400D02*
X140970000Y-124652000D01*
X140970000Y-124652000D02*
X145607000Y-120015000D01*
X145607000Y-120015000D02*
X150639700Y-120015000D01*
X137160000Y-127635000D02*
X138348900Y-127635000D01*
X151765000Y-120015000D02*
X150639700Y-120015000D01*
G04 #@! TO.N,Net-(Q1-Pad3)*
X141605000Y-120015000D02*
X138039000Y-120015000D01*
X138039000Y-120015000D02*
X137734000Y-119710000D01*
G04 #@! TO.N,ADDR_SEL*
X112867000Y-107980000D02*
X112867000Y-106804700D01*
X109230000Y-75410000D02*
X109230000Y-76535300D01*
X109230000Y-76535300D02*
X108948700Y-76535300D01*
X108948700Y-76535300D02*
X107643200Y-77840800D01*
X107643200Y-77840800D02*
X107643200Y-102315500D01*
X107643200Y-102315500D02*
X112132400Y-106804700D01*
X112132400Y-106804700D02*
X112867000Y-106804700D01*
G04 #@! TD*
D26*
G04 #@! TO.N,GND*
G36*
X199950001Y-137667738D02*
X102310000Y-137541261D01*
X102310000Y-133775431D01*
X104315000Y-133775431D01*
X104315000Y-134664569D01*
X104655259Y-135486026D01*
X105283974Y-136114741D01*
X106105431Y-136455000D01*
X106994569Y-136455000D01*
X107816026Y-136114741D01*
X108444741Y-135486026D01*
X108785000Y-134664569D01*
X108785000Y-133775431D01*
X108743579Y-133675431D01*
X193405000Y-133675431D01*
X193405000Y-134564569D01*
X193745259Y-135386026D01*
X194373974Y-136014741D01*
X195195431Y-136355000D01*
X196084569Y-136355000D01*
X196906026Y-136014741D01*
X197534741Y-135386026D01*
X197875000Y-134564569D01*
X197875000Y-133675431D01*
X197534741Y-132853974D01*
X196906026Y-132225259D01*
X196084569Y-131885000D01*
X195195431Y-131885000D01*
X194373974Y-132225259D01*
X193745259Y-132853974D01*
X193405000Y-133675431D01*
X108743579Y-133675431D01*
X108444741Y-132953974D01*
X107816026Y-132325259D01*
X106994569Y-131985000D01*
X106105431Y-131985000D01*
X105283974Y-132325259D01*
X104655259Y-132953974D01*
X104315000Y-133775431D01*
X102310000Y-133775431D01*
X102310000Y-128524000D01*
X108264887Y-128524000D01*
X108376260Y-129083909D01*
X108693423Y-129558577D01*
X109168091Y-129875740D01*
X109586667Y-129959000D01*
X109869333Y-129959000D01*
X110287909Y-129875740D01*
X110762577Y-129558577D01*
X111079740Y-129083909D01*
X111191113Y-128524000D01*
X111134336Y-128238561D01*
X118453000Y-128238561D01*
X118453000Y-128809439D01*
X118671466Y-129336862D01*
X119075138Y-129740534D01*
X119602561Y-129959000D01*
X120173439Y-129959000D01*
X120700862Y-129740534D01*
X121104534Y-129336862D01*
X121323000Y-128809439D01*
X121323000Y-128238561D01*
X121104534Y-127711138D01*
X120700862Y-127307466D01*
X120173439Y-127089000D01*
X119602561Y-127089000D01*
X119075138Y-127307466D01*
X118671466Y-127711138D01*
X118453000Y-128238561D01*
X111134336Y-128238561D01*
X111079740Y-127964091D01*
X110762577Y-127489423D01*
X110287909Y-127172260D01*
X109869333Y-127089000D01*
X109586667Y-127089000D01*
X109168091Y-127172260D01*
X108693423Y-127489423D01*
X108376260Y-127964091D01*
X108264887Y-128524000D01*
X102310000Y-128524000D01*
X102310000Y-125476000D01*
X108264887Y-125476000D01*
X108376260Y-126035909D01*
X108693423Y-126510577D01*
X109168091Y-126827740D01*
X109586667Y-126911000D01*
X109869333Y-126911000D01*
X110287909Y-126827740D01*
X110762577Y-126510577D01*
X111079740Y-126035909D01*
X111191113Y-125476000D01*
X111079740Y-124916091D01*
X110762577Y-124441423D01*
X110287909Y-124124260D01*
X109869333Y-124041000D01*
X109586667Y-124041000D01*
X109168091Y-124124260D01*
X108693423Y-124441423D01*
X108376260Y-124916091D01*
X108264887Y-125476000D01*
X102310000Y-125476000D01*
X102310000Y-117092000D01*
X110272560Y-117092000D01*
X110272560Y-119092000D01*
X110321843Y-119339765D01*
X110462191Y-119549809D01*
X110598723Y-119641038D01*
X110533914Y-119705847D01*
X110285000Y-120306778D01*
X110285000Y-120957222D01*
X110533914Y-121558153D01*
X110993847Y-122018086D01*
X111594778Y-122267000D01*
X112245222Y-122267000D01*
X112846153Y-122018086D01*
X113306086Y-121558153D01*
X113555000Y-120957222D01*
X113555000Y-120306778D01*
X113306086Y-119705847D01*
X113241277Y-119641038D01*
X113377809Y-119549809D01*
X113518157Y-119339765D01*
X113567440Y-119092000D01*
X113567440Y-117092000D01*
X113518157Y-116844235D01*
X113377809Y-116634191D01*
X113167765Y-116493843D01*
X112920000Y-116444560D01*
X110920000Y-116444560D01*
X110672235Y-116493843D01*
X110462191Y-116634191D01*
X110321843Y-116844235D01*
X110272560Y-117092000D01*
X102310000Y-117092000D01*
X102310000Y-77840800D01*
X106868312Y-77840800D01*
X106883200Y-77915647D01*
X106883201Y-102240648D01*
X106868312Y-102315500D01*
X106883201Y-102390352D01*
X106915954Y-102555011D01*
X106927297Y-102612037D01*
X107041484Y-102782929D01*
X107095272Y-102863429D01*
X107158728Y-102905829D01*
X110735458Y-106482560D01*
X109477000Y-106482560D01*
X109229235Y-106531843D01*
X109019191Y-106672191D01*
X108878843Y-106882235D01*
X108829560Y-107130000D01*
X108829560Y-108830000D01*
X108878843Y-109077765D01*
X109019191Y-109287809D01*
X109229235Y-109428157D01*
X109477000Y-109477440D01*
X111177000Y-109477440D01*
X111424765Y-109428157D01*
X111634809Y-109287809D01*
X111775157Y-109077765D01*
X111784184Y-109032381D01*
X111796375Y-109050625D01*
X112287582Y-109378839D01*
X112720744Y-109465000D01*
X113013256Y-109465000D01*
X113446418Y-109378839D01*
X113937625Y-109050625D01*
X114137000Y-108752239D01*
X114336375Y-109050625D01*
X114714638Y-109303373D01*
X111669011Y-112349000D01*
X110314396Y-112349000D01*
X110032862Y-112067466D01*
X109505439Y-111849000D01*
X108934561Y-111849000D01*
X108407138Y-112067466D01*
X108003466Y-112471138D01*
X107785000Y-112998561D01*
X107785000Y-113569439D01*
X108003466Y-114096862D01*
X108407138Y-114500534D01*
X108934561Y-114719000D01*
X109505439Y-114719000D01*
X110032862Y-114500534D01*
X110314396Y-114219000D01*
X111669011Y-114219000D01*
X115689400Y-118239390D01*
X115689401Y-122120310D01*
X115671083Y-122212400D01*
X115743650Y-122577218D01*
X115743651Y-122577219D01*
X115950304Y-122886497D01*
X116028370Y-122938659D01*
X118453000Y-125363290D01*
X118453000Y-125761439D01*
X118671466Y-126288862D01*
X119075138Y-126692534D01*
X119602561Y-126911000D01*
X120173439Y-126911000D01*
X120700862Y-126692534D01*
X121104534Y-126288862D01*
X121323000Y-125761439D01*
X121323000Y-125190561D01*
X121104534Y-124663138D01*
X120700862Y-124259466D01*
X120173439Y-124041000D01*
X119775290Y-124041000D01*
X118081289Y-122347000D01*
X118695222Y-122347000D01*
X119296153Y-122098086D01*
X119756086Y-121638153D01*
X120005000Y-121037222D01*
X120005000Y-120386778D01*
X119756086Y-119785847D01*
X119691277Y-119721038D01*
X119827809Y-119629809D01*
X119968157Y-119419765D01*
X120017440Y-119172000D01*
X120017440Y-117172000D01*
X119968157Y-116924235D01*
X119827809Y-116714191D01*
X119617765Y-116573843D01*
X119370000Y-116524560D01*
X119068797Y-116524560D01*
X119013500Y-116441803D01*
X119013500Y-115078456D01*
X119083463Y-115125204D01*
X119305148Y-115169300D01*
X119380000Y-115184189D01*
X119402844Y-115179645D01*
X124380360Y-120157162D01*
X124335000Y-120266670D01*
X124335000Y-120877330D01*
X124568690Y-121441507D01*
X125000493Y-121873310D01*
X125564670Y-122107000D01*
X126175330Y-122107000D01*
X126739507Y-121873310D01*
X127171310Y-121441507D01*
X127405000Y-120877330D01*
X127405000Y-120266670D01*
X127171310Y-119702493D01*
X127002092Y-119533275D01*
X127017765Y-119530157D01*
X127227809Y-119389809D01*
X127368157Y-119179765D01*
X127417440Y-118932000D01*
X127417440Y-118730797D01*
X127643229Y-118579929D01*
X127685631Y-118516470D01*
X131732602Y-114469500D01*
X131806389Y-114469500D01*
X131923820Y-114586931D01*
X132304226Y-114744500D01*
X132715974Y-114744500D01*
X132894101Y-114670718D01*
X132894101Y-114752697D01*
X127704430Y-119942369D01*
X127640971Y-119984771D01*
X127472996Y-120236164D01*
X127428900Y-120457849D01*
X127428900Y-120457853D01*
X127414012Y-120532700D01*
X127428900Y-120607547D01*
X127428901Y-123652355D01*
X127147598Y-123596400D01*
X126852402Y-123596400D01*
X126415275Y-123683350D01*
X125919570Y-124014570D01*
X125588350Y-124510275D01*
X125472041Y-125095000D01*
X125588350Y-125679725D01*
X125919570Y-126175430D01*
X126203281Y-126365000D01*
X125919570Y-126554570D01*
X125588350Y-127050275D01*
X125472041Y-127635000D01*
X125588350Y-128219725D01*
X125919570Y-128715430D01*
X126415275Y-129046650D01*
X126852402Y-129133600D01*
X127147598Y-129133600D01*
X127584725Y-129046650D01*
X128080430Y-128715430D01*
X128270000Y-128431719D01*
X128459570Y-128715430D01*
X128955275Y-129046650D01*
X129392402Y-129133600D01*
X129687598Y-129133600D01*
X130124725Y-129046650D01*
X130620430Y-128715430D01*
X130810000Y-128431719D01*
X130999570Y-128715430D01*
X131495275Y-129046650D01*
X131932402Y-129133600D01*
X132227598Y-129133600D01*
X132457974Y-129087775D01*
X132678571Y-129308373D01*
X132720971Y-129371829D01*
X132972363Y-129539804D01*
X133194048Y-129583900D01*
X133194052Y-129583900D01*
X133268900Y-129598788D01*
X133343748Y-129583900D01*
X142725553Y-129583900D01*
X142800400Y-129598788D01*
X142875247Y-129583900D01*
X142875252Y-129583900D01*
X143096937Y-129539804D01*
X143348329Y-129371829D01*
X143390731Y-129308370D01*
X143869876Y-128829225D01*
X144195275Y-129046650D01*
X144632402Y-129133600D01*
X144927598Y-129133600D01*
X145364725Y-129046650D01*
X145860430Y-128715430D01*
X146050000Y-128431719D01*
X146239570Y-128715430D01*
X146735275Y-129046650D01*
X147172402Y-129133600D01*
X147467598Y-129133600D01*
X147904725Y-129046650D01*
X148400430Y-128715430D01*
X148590000Y-128431719D01*
X148779570Y-128715430D01*
X149275275Y-129046650D01*
X149712402Y-129133600D01*
X150007598Y-129133600D01*
X150444725Y-129046650D01*
X150940430Y-128715430D01*
X151130000Y-128431719D01*
X151319570Y-128715430D01*
X151815275Y-129046650D01*
X152252402Y-129133600D01*
X152547598Y-129133600D01*
X152984725Y-129046650D01*
X153480430Y-128715430D01*
X153670000Y-128431719D01*
X153859570Y-128715430D01*
X154355275Y-129046650D01*
X154792402Y-129133600D01*
X155087598Y-129133600D01*
X155524725Y-129046650D01*
X156020430Y-128715430D01*
X156210000Y-128431719D01*
X156399570Y-128715430D01*
X156895275Y-129046650D01*
X157332402Y-129133600D01*
X157627598Y-129133600D01*
X158064725Y-129046650D01*
X158560430Y-128715430D01*
X158750000Y-128431719D01*
X158939570Y-128715430D01*
X159435275Y-129046650D01*
X159872402Y-129133600D01*
X160167598Y-129133600D01*
X160604725Y-129046650D01*
X161100430Y-128715430D01*
X161290000Y-128431719D01*
X161479570Y-128715430D01*
X161975275Y-129046650D01*
X162412402Y-129133600D01*
X162707598Y-129133600D01*
X163144725Y-129046650D01*
X163640430Y-128715430D01*
X163830000Y-128431719D01*
X164019570Y-128715430D01*
X164515275Y-129046650D01*
X164952402Y-129133600D01*
X165247598Y-129133600D01*
X165684725Y-129046650D01*
X166180430Y-128715430D01*
X166370000Y-128431719D01*
X166559570Y-128715430D01*
X167055275Y-129046650D01*
X167492402Y-129133600D01*
X167787598Y-129133600D01*
X168224725Y-129046650D01*
X168720430Y-128715430D01*
X168910000Y-128431719D01*
X169099570Y-128715430D01*
X169595275Y-129046650D01*
X170032402Y-129133600D01*
X170327598Y-129133600D01*
X170764725Y-129046650D01*
X171260430Y-128715430D01*
X171461854Y-128413979D01*
X171513179Y-128523490D01*
X171945053Y-128917688D01*
X172360974Y-129089958D01*
X172593000Y-128968817D01*
X172593000Y-127762000D01*
X172847000Y-127762000D01*
X172847000Y-128968817D01*
X173079026Y-129089958D01*
X173494947Y-128917688D01*
X173926821Y-128523490D01*
X173990000Y-128388687D01*
X174053179Y-128523490D01*
X174485053Y-128917688D01*
X174900974Y-129089958D01*
X175133000Y-128968817D01*
X175133000Y-127762000D01*
X175387000Y-127762000D01*
X175387000Y-128968817D01*
X175619026Y-129089958D01*
X176034947Y-128917688D01*
X176466821Y-128523490D01*
X176714968Y-127994027D01*
X176594469Y-127762000D01*
X175387000Y-127762000D01*
X175133000Y-127762000D01*
X172847000Y-127762000D01*
X172593000Y-127762000D01*
X172573000Y-127762000D01*
X172573000Y-127508000D01*
X172593000Y-127508000D01*
X172593000Y-127488000D01*
X172847000Y-127488000D01*
X172847000Y-127508000D01*
X175133000Y-127508000D01*
X175133000Y-127488000D01*
X175387000Y-127488000D01*
X175387000Y-127508000D01*
X176594469Y-127508000D01*
X176714968Y-127275973D01*
X176466821Y-126746510D01*
X176279050Y-126575119D01*
X176371365Y-126556757D01*
X176581409Y-126416409D01*
X176721757Y-126206365D01*
X176771040Y-125958600D01*
X176771040Y-125565000D01*
X183972560Y-125565000D01*
X183972560Y-127165000D01*
X184021843Y-127412765D01*
X184162191Y-127622809D01*
X184372235Y-127763157D01*
X184620000Y-127812440D01*
X186220000Y-127812440D01*
X186467765Y-127763157D01*
X186677809Y-127622809D01*
X186818157Y-127412765D01*
X186826117Y-127372745D01*
X187091861Y-127372745D01*
X187165995Y-127618864D01*
X187703223Y-127811965D01*
X188273454Y-127784778D01*
X188674005Y-127618864D01*
X188748139Y-127372745D01*
X187920000Y-126544605D01*
X187091861Y-127372745D01*
X186826117Y-127372745D01*
X186864693Y-127178813D01*
X186912255Y-127193139D01*
X187740395Y-126365000D01*
X188099605Y-126365000D01*
X188927745Y-127193139D01*
X189173864Y-127119005D01*
X189366965Y-126581777D01*
X189339778Y-126011546D01*
X189173864Y-125610995D01*
X188927745Y-125536861D01*
X188099605Y-126365000D01*
X187740395Y-126365000D01*
X186912255Y-125536861D01*
X186864693Y-125551187D01*
X186826118Y-125357255D01*
X187091861Y-125357255D01*
X187920000Y-126185395D01*
X188748139Y-125357255D01*
X188674005Y-125111136D01*
X188136777Y-124918035D01*
X187566546Y-124945222D01*
X187165995Y-125111136D01*
X187091861Y-125357255D01*
X186826118Y-125357255D01*
X186818157Y-125317235D01*
X186677809Y-125107191D01*
X186467765Y-124966843D01*
X186220000Y-124917560D01*
X184620000Y-124917560D01*
X184372235Y-124966843D01*
X184162191Y-125107191D01*
X184021843Y-125317235D01*
X183972560Y-125565000D01*
X176771040Y-125565000D01*
X176771040Y-124231400D01*
X176721757Y-123983635D01*
X176581409Y-123773591D01*
X176371365Y-123633243D01*
X176123600Y-123583960D01*
X174396400Y-123583960D01*
X174148635Y-123633243D01*
X173938591Y-123773591D01*
X173798243Y-123983635D01*
X173793068Y-124009651D01*
X173304725Y-123683350D01*
X172867598Y-123596400D01*
X172572402Y-123596400D01*
X172548453Y-123601164D01*
X168366261Y-119418972D01*
X168314097Y-119340903D01*
X168004819Y-119134250D01*
X167732086Y-119080000D01*
X167640000Y-119061683D01*
X167547914Y-119080000D01*
X166836112Y-119080000D01*
X166769577Y-118980423D01*
X166294909Y-118663260D01*
X165876333Y-118580000D01*
X165593667Y-118580000D01*
X165175091Y-118663260D01*
X164700423Y-118980423D01*
X164383260Y-119455091D01*
X164271887Y-120015000D01*
X164383260Y-120574909D01*
X164700423Y-121049577D01*
X165175091Y-121366740D01*
X165593667Y-121450000D01*
X165876333Y-121450000D01*
X166294909Y-121366740D01*
X166769577Y-121049577D01*
X166836112Y-120950000D01*
X167252711Y-120950000D01*
X169921225Y-123618515D01*
X169595275Y-123683350D01*
X169099570Y-124014570D01*
X168910000Y-124298281D01*
X168720430Y-124014570D01*
X168224725Y-123683350D01*
X167787598Y-123596400D01*
X167492402Y-123596400D01*
X167055275Y-123683350D01*
X166559570Y-124014570D01*
X166370000Y-124298281D01*
X166180430Y-124014570D01*
X165684725Y-123683350D01*
X165247598Y-123596400D01*
X164952402Y-123596400D01*
X164515275Y-123683350D01*
X164019570Y-124014570D01*
X163830000Y-124298281D01*
X163640430Y-124014570D01*
X163144725Y-123683350D01*
X162707598Y-123596400D01*
X162412402Y-123596400D01*
X161975275Y-123683350D01*
X161479570Y-124014570D01*
X161290000Y-124298281D01*
X161100430Y-124014570D01*
X160604725Y-123683350D01*
X160167598Y-123596400D01*
X159872402Y-123596400D01*
X159435275Y-123683350D01*
X158939570Y-124014570D01*
X158750000Y-124298281D01*
X158560430Y-124014570D01*
X158064725Y-123683350D01*
X157627598Y-123596400D01*
X157332402Y-123596400D01*
X156895275Y-123683350D01*
X156399570Y-124014570D01*
X156210000Y-124298281D01*
X156020430Y-124014570D01*
X155633911Y-123756306D01*
X157676173Y-121714044D01*
X157739629Y-121671644D01*
X157796102Y-121587126D01*
X157907604Y-121420253D01*
X157933930Y-121287903D01*
X157951700Y-121198567D01*
X157951700Y-121198563D01*
X157966588Y-121123715D01*
X157951700Y-121048867D01*
X157951700Y-119417246D01*
X157966588Y-119342399D01*
X157951700Y-119267552D01*
X157951700Y-119267548D01*
X157907604Y-119045863D01*
X157739629Y-118794471D01*
X157676173Y-118752071D01*
X152596631Y-113672530D01*
X152554229Y-113609071D01*
X152302837Y-113441096D01*
X152081152Y-113397000D01*
X152081147Y-113397000D01*
X152006300Y-113382112D01*
X151931453Y-113397000D01*
X140660411Y-113397000D01*
X140542980Y-113279569D01*
X140384514Y-113213930D01*
X140619134Y-113102889D01*
X140995041Y-112687923D01*
X141155904Y-112299539D01*
X141033915Y-112077500D01*
X139891000Y-112077500D01*
X139891000Y-112097500D01*
X139637000Y-112097500D01*
X139637000Y-112077500D01*
X138494085Y-112077500D01*
X138372096Y-112299539D01*
X138532959Y-112687923D01*
X138908866Y-113102889D01*
X139342071Y-113307918D01*
X139079269Y-113570720D01*
X138921700Y-113951126D01*
X138921700Y-114277700D01*
X138595126Y-114277700D01*
X138214720Y-114435269D01*
X137923569Y-114726420D01*
X137766000Y-115106826D01*
X137766000Y-115518574D01*
X137923569Y-115898980D01*
X138214720Y-116190131D01*
X138595126Y-116347700D01*
X139006874Y-116347700D01*
X139387280Y-116190131D01*
X139504711Y-116072700D01*
X152184099Y-116072700D01*
X153758699Y-117647300D01*
X136571546Y-117647300D01*
X136496699Y-117632412D01*
X136421852Y-117647300D01*
X136421848Y-117647300D01*
X136200163Y-117691396D01*
X135948771Y-117859371D01*
X135906371Y-117922827D01*
X135494034Y-118335165D01*
X135469494Y-118325000D01*
X134918506Y-118325000D01*
X134409460Y-118535853D01*
X134039000Y-118906313D01*
X134039000Y-118833691D01*
X133942327Y-118600302D01*
X133763699Y-118421673D01*
X133530310Y-118325000D01*
X132939750Y-118325000D01*
X132781000Y-118483750D01*
X132781000Y-119583000D01*
X132801000Y-119583000D01*
X132801000Y-119837000D01*
X132781000Y-119837000D01*
X132781000Y-120936250D01*
X132939750Y-121095000D01*
X133530310Y-121095000D01*
X133763699Y-120998327D01*
X133942327Y-120819698D01*
X134039000Y-120586309D01*
X134039000Y-120513687D01*
X134409460Y-120884147D01*
X134918506Y-121095000D01*
X135469494Y-121095000D01*
X135978540Y-120884147D01*
X136368147Y-120494540D01*
X136464000Y-120263130D01*
X136559853Y-120494540D01*
X136949460Y-120884147D01*
X137458506Y-121095000D01*
X138009494Y-121095000D01*
X138518540Y-120884147D01*
X138627687Y-120775000D01*
X140366570Y-120775000D01*
X140388466Y-120827862D01*
X140792138Y-121231534D01*
X141319561Y-121450000D01*
X141890439Y-121450000D01*
X142417862Y-121231534D01*
X142821534Y-120827862D01*
X143040000Y-120300439D01*
X143040000Y-119729561D01*
X142821534Y-119202138D01*
X142786696Y-119167300D01*
X144571598Y-119167300D01*
X141949999Y-121788900D01*
X140566646Y-121788900D01*
X140491799Y-121774012D01*
X140416952Y-121788900D01*
X140416948Y-121788900D01*
X140195263Y-121832996D01*
X140195261Y-121832997D01*
X140195262Y-121832997D01*
X140007326Y-121958571D01*
X140007324Y-121958573D01*
X139943871Y-122000971D01*
X139901473Y-122064424D01*
X138067127Y-123898772D01*
X137744725Y-123683350D01*
X137307598Y-123596400D01*
X137012402Y-123596400D01*
X136575275Y-123683350D01*
X136079570Y-124014570D01*
X135890000Y-124298281D01*
X135700430Y-124014570D01*
X135204725Y-123683350D01*
X134767598Y-123596400D01*
X134472402Y-123596400D01*
X134035275Y-123683350D01*
X133539570Y-124014570D01*
X133350000Y-124298281D01*
X133160430Y-124014570D01*
X132664725Y-123683350D01*
X132227598Y-123596400D01*
X131932402Y-123596400D01*
X131495275Y-123683350D01*
X130999570Y-124014570D01*
X130810000Y-124298281D01*
X130620430Y-124014570D01*
X130124725Y-123683350D01*
X129687598Y-123596400D01*
X129392402Y-123596400D01*
X128955275Y-123683350D01*
X128948900Y-123687610D01*
X128948900Y-120847501D01*
X129800651Y-119995750D01*
X131269000Y-119995750D01*
X131269000Y-120586309D01*
X131365673Y-120819698D01*
X131544301Y-120998327D01*
X131777690Y-121095000D01*
X132368250Y-121095000D01*
X132527000Y-120936250D01*
X132527000Y-119837000D01*
X131427750Y-119837000D01*
X131269000Y-119995750D01*
X129800651Y-119995750D01*
X130962710Y-118833691D01*
X131269000Y-118833691D01*
X131269000Y-119424250D01*
X131427750Y-119583000D01*
X132527000Y-119583000D01*
X132527000Y-118483750D01*
X132368250Y-118325000D01*
X131777690Y-118325000D01*
X131544301Y-118421673D01*
X131365673Y-118600302D01*
X131269000Y-118833691D01*
X130962710Y-118833691D01*
X134138573Y-115657829D01*
X134202029Y-115615429D01*
X134370004Y-115364037D01*
X134414100Y-115142352D01*
X134414100Y-115142347D01*
X134428988Y-115067500D01*
X134414100Y-114992653D01*
X134414100Y-111586446D01*
X134428988Y-111511599D01*
X134414100Y-111436752D01*
X134414100Y-111436748D01*
X134370004Y-111215063D01*
X134324707Y-111147272D01*
X134244429Y-111027126D01*
X134244427Y-111027124D01*
X134202029Y-110963671D01*
X134138576Y-110921273D01*
X133651023Y-110433721D01*
X133875740Y-110097409D01*
X133987113Y-109537500D01*
X133875740Y-108977591D01*
X133558577Y-108502923D01*
X133206242Y-108267500D01*
X133558577Y-108032077D01*
X133875740Y-107557409D01*
X133987113Y-106997500D01*
X133875740Y-106437591D01*
X133624627Y-106061774D01*
X133974902Y-105711500D01*
X134140974Y-105711500D01*
X134521380Y-105553931D01*
X134642455Y-105432856D01*
X136564571Y-107354973D01*
X136606971Y-107418429D01*
X136858363Y-107586404D01*
X137080048Y-107630500D01*
X137080052Y-107630500D01*
X137154899Y-107645388D01*
X137229746Y-107630500D01*
X138545957Y-107630500D01*
X138729423Y-107905077D01*
X139081758Y-108140500D01*
X138729423Y-108375923D01*
X138412260Y-108850591D01*
X138300887Y-109410500D01*
X138412260Y-109970409D01*
X138729423Y-110445077D01*
X139113108Y-110701447D01*
X138908866Y-110798111D01*
X138532959Y-111213077D01*
X138372096Y-111601461D01*
X138494085Y-111823500D01*
X139637000Y-111823500D01*
X139637000Y-111803500D01*
X139891000Y-111803500D01*
X139891000Y-111823500D01*
X141033915Y-111823500D01*
X141155904Y-111601461D01*
X140995041Y-111213077D01*
X140619134Y-110798111D01*
X140414892Y-110701447D01*
X140798577Y-110445077D01*
X141115740Y-109970409D01*
X141227113Y-109410500D01*
X141115740Y-108850591D01*
X140798577Y-108375923D01*
X140446242Y-108140500D01*
X140798577Y-107905077D01*
X141115740Y-107430409D01*
X141227113Y-106870500D01*
X141125668Y-106360500D01*
X142133899Y-106360500D01*
X145668371Y-109894973D01*
X145710771Y-109958429D01*
X145774227Y-110000829D01*
X145962162Y-110126404D01*
X146010305Y-110135980D01*
X146163214Y-110166396D01*
X146349423Y-110445077D01*
X146701758Y-110680500D01*
X146349423Y-110915923D01*
X146032260Y-111390591D01*
X145920887Y-111950500D01*
X146032260Y-112510409D01*
X146349423Y-112985077D01*
X146824091Y-113302240D01*
X147242667Y-113385500D01*
X147525333Y-113385500D01*
X147943909Y-113302240D01*
X148418577Y-112985077D01*
X148579633Y-112744039D01*
X156088096Y-112744039D01*
X156248959Y-113132423D01*
X156624866Y-113547389D01*
X157130959Y-113786914D01*
X157353000Y-113665629D01*
X157353000Y-112522000D01*
X157607000Y-112522000D01*
X157607000Y-113665629D01*
X157829041Y-113786914D01*
X158335134Y-113547389D01*
X158711041Y-113132423D01*
X158871904Y-112744039D01*
X158749915Y-112522000D01*
X157607000Y-112522000D01*
X157353000Y-112522000D01*
X156210085Y-112522000D01*
X156088096Y-112744039D01*
X148579633Y-112744039D01*
X148735740Y-112510409D01*
X148847113Y-111950500D01*
X148735740Y-111390591D01*
X148418577Y-110915923D01*
X148066242Y-110680500D01*
X148418577Y-110445077D01*
X148735740Y-109970409D01*
X148847113Y-109410500D01*
X148735740Y-108850591D01*
X148418577Y-108375923D01*
X148066242Y-108140500D01*
X148418577Y-107905077D01*
X148735740Y-107430409D01*
X148847113Y-106870500D01*
X148735740Y-106310591D01*
X148418577Y-105835923D01*
X148066242Y-105600500D01*
X148418577Y-105365077D01*
X148735740Y-104890409D01*
X148847113Y-104330500D01*
X148735740Y-103770591D01*
X148418577Y-103295923D01*
X148066242Y-103060500D01*
X148393339Y-102841940D01*
X153350870Y-107799472D01*
X153393271Y-107862929D01*
X153456727Y-107905329D01*
X153644662Y-108030904D01*
X153692805Y-108040480D01*
X153866348Y-108075000D01*
X153866352Y-108075000D01*
X153941200Y-108089888D01*
X154016048Y-108075000D01*
X156261957Y-108075000D01*
X156445423Y-108349577D01*
X156797758Y-108585000D01*
X156445423Y-108820423D01*
X156128260Y-109295091D01*
X156016887Y-109855000D01*
X156128260Y-110414909D01*
X156445423Y-110889577D01*
X156829108Y-111145947D01*
X156624866Y-111242611D01*
X156248959Y-111657577D01*
X156088096Y-112045961D01*
X156210085Y-112268000D01*
X157353000Y-112268000D01*
X157353000Y-112248000D01*
X157607000Y-112248000D01*
X157607000Y-112268000D01*
X158749915Y-112268000D01*
X158871904Y-112045961D01*
X158711041Y-111657577D01*
X158335134Y-111242611D01*
X158130892Y-111145947D01*
X158514577Y-110889577D01*
X158534804Y-110859305D01*
X159140671Y-111465173D01*
X159183071Y-111528629D01*
X159434463Y-111696604D01*
X159656148Y-111740700D01*
X159656152Y-111740700D01*
X159730999Y-111755588D01*
X159805846Y-111740700D01*
X170483100Y-111740700D01*
X170483101Y-112192188D01*
X170365669Y-112309620D01*
X170208100Y-112690026D01*
X170208100Y-113101774D01*
X170365669Y-113482180D01*
X170656820Y-113773331D01*
X171037226Y-113930900D01*
X171448974Y-113930900D01*
X171829380Y-113773331D01*
X171977784Y-113624927D01*
X172160091Y-113746740D01*
X172578667Y-113830000D01*
X172861333Y-113830000D01*
X173279909Y-113746740D01*
X173754577Y-113429577D01*
X173940786Y-113150896D01*
X174141837Y-113110904D01*
X174393229Y-112942929D01*
X174435631Y-112879470D01*
X174571062Y-112744039D01*
X178948096Y-112744039D01*
X179108959Y-113132423D01*
X179484866Y-113547389D01*
X179990959Y-113786914D01*
X180213000Y-113665629D01*
X180213000Y-112522000D01*
X180467000Y-112522000D01*
X180467000Y-113665629D01*
X180689041Y-113786914D01*
X181195134Y-113547389D01*
X181571041Y-113132423D01*
X181731904Y-112744039D01*
X181609915Y-112522000D01*
X180467000Y-112522000D01*
X180213000Y-112522000D01*
X179070085Y-112522000D01*
X178948096Y-112744039D01*
X174571062Y-112744039D01*
X175285402Y-112029700D01*
X178954831Y-112029700D01*
X178948096Y-112045961D01*
X179070085Y-112268000D01*
X180213000Y-112268000D01*
X180213000Y-112248000D01*
X180467000Y-112248000D01*
X180467000Y-112268000D01*
X181609915Y-112268000D01*
X181731904Y-112045961D01*
X181725169Y-112029700D01*
X193014599Y-112029700D01*
X193864371Y-112879473D01*
X193906771Y-112942929D01*
X194158163Y-113110904D01*
X194359214Y-113150896D01*
X194545423Y-113429577D01*
X195020091Y-113746740D01*
X195438667Y-113830000D01*
X195721333Y-113830000D01*
X196139909Y-113746740D01*
X196614577Y-113429577D01*
X196931740Y-112954909D01*
X197043113Y-112395000D01*
X196931740Y-111835091D01*
X196614577Y-111360423D01*
X196262242Y-111125000D01*
X196614577Y-110889577D01*
X196931740Y-110414909D01*
X197043113Y-109855000D01*
X196931740Y-109295091D01*
X196614577Y-108820423D01*
X196262242Y-108585000D01*
X196614577Y-108349577D01*
X196931740Y-107874909D01*
X197043113Y-107315000D01*
X196931740Y-106755091D01*
X196614577Y-106280423D01*
X196262242Y-106045000D01*
X196614577Y-105809577D01*
X196931740Y-105334909D01*
X197043113Y-104775000D01*
X196931740Y-104215091D01*
X196614577Y-103740423D01*
X196262242Y-103505000D01*
X196614577Y-103269577D01*
X196931740Y-102794909D01*
X197043113Y-102235000D01*
X196931740Y-101675091D01*
X196614577Y-101200423D01*
X196262242Y-100965000D01*
X196614577Y-100729577D01*
X196931740Y-100254909D01*
X197043113Y-99695000D01*
X196931740Y-99135091D01*
X196614577Y-98660423D01*
X196262242Y-98425000D01*
X196614577Y-98189577D01*
X196931740Y-97714909D01*
X197043113Y-97155000D01*
X196931740Y-96595091D01*
X196614577Y-96120423D01*
X196262242Y-95885000D01*
X196614577Y-95649577D01*
X196931740Y-95174909D01*
X197043113Y-94615000D01*
X196931740Y-94055091D01*
X196614577Y-93580423D01*
X196262242Y-93345000D01*
X196614577Y-93109577D01*
X196931740Y-92634909D01*
X197043113Y-92075000D01*
X196931740Y-91515091D01*
X196614577Y-91040423D01*
X196262242Y-90805000D01*
X196614577Y-90569577D01*
X196931740Y-90094909D01*
X197043113Y-89535000D01*
X196931740Y-88975091D01*
X196614577Y-88500423D01*
X196262242Y-88265000D01*
X196614577Y-88029577D01*
X196931740Y-87554909D01*
X197043113Y-86995000D01*
X196931740Y-86435091D01*
X196614577Y-85960423D01*
X196262242Y-85725000D01*
X196614577Y-85489577D01*
X196931740Y-85014909D01*
X197043113Y-84455000D01*
X196931740Y-83895091D01*
X196614577Y-83420423D01*
X196262242Y-83185000D01*
X196614577Y-82949577D01*
X196931740Y-82474909D01*
X197043113Y-81915000D01*
X196931740Y-81355091D01*
X196614577Y-80880423D01*
X196262242Y-80645000D01*
X196614577Y-80409577D01*
X196931740Y-79934909D01*
X197043113Y-79375000D01*
X196931740Y-78815091D01*
X196614577Y-78340423D01*
X196139909Y-78023260D01*
X195721333Y-77940000D01*
X195438667Y-77940000D01*
X195020091Y-78023260D01*
X194558605Y-78331615D01*
X193713995Y-77487005D01*
X193794005Y-77453864D01*
X193868139Y-77207745D01*
X193040000Y-76379605D01*
X193025858Y-76393748D01*
X192846253Y-76214143D01*
X192860395Y-76200000D01*
X193219605Y-76200000D01*
X194047745Y-77028139D01*
X194293864Y-76954005D01*
X194296290Y-76947254D01*
X194323466Y-77012862D01*
X194727138Y-77416534D01*
X195254561Y-77635000D01*
X195825439Y-77635000D01*
X196352862Y-77416534D01*
X196756534Y-77012862D01*
X196975000Y-76485439D01*
X196975000Y-75914561D01*
X196756534Y-75387138D01*
X196352862Y-74983466D01*
X195825439Y-74765000D01*
X195254561Y-74765000D01*
X194727138Y-74983466D01*
X194323466Y-75387138D01*
X194296475Y-75452299D01*
X194293864Y-75445995D01*
X194047745Y-75371861D01*
X193219605Y-76200000D01*
X192860395Y-76200000D01*
X192032255Y-75371861D01*
X191786136Y-75445995D01*
X191756218Y-75529229D01*
X191419244Y-75192255D01*
X192211861Y-75192255D01*
X193040000Y-76020395D01*
X193868139Y-75192255D01*
X193794005Y-74946136D01*
X193256777Y-74753035D01*
X192686546Y-74780222D01*
X192285995Y-74946136D01*
X192211861Y-75192255D01*
X191419244Y-75192255D01*
X189925961Y-73698972D01*
X189873797Y-73620903D01*
X189564519Y-73414250D01*
X189291786Y-73360000D01*
X189199700Y-73341683D01*
X189107614Y-73360000D01*
X173821112Y-73360000D01*
X173754577Y-73260423D01*
X173279909Y-72943260D01*
X172861333Y-72860000D01*
X172578667Y-72860000D01*
X172160091Y-72943260D01*
X171685423Y-73260423D01*
X171368260Y-73735091D01*
X171256887Y-74295000D01*
X171368260Y-74854909D01*
X171431530Y-74949600D01*
X161298003Y-74949600D01*
X159033531Y-72685130D01*
X158991129Y-72621671D01*
X158739737Y-72453696D01*
X158518052Y-72409600D01*
X158518047Y-72409600D01*
X158443200Y-72394712D01*
X158368353Y-72409600D01*
X151225447Y-72409600D01*
X151150600Y-72394712D01*
X151075753Y-72409600D01*
X151075748Y-72409600D01*
X150854063Y-72453696D01*
X150602671Y-72621671D01*
X150560271Y-72685127D01*
X149772599Y-73472800D01*
X148884040Y-73472800D01*
X148973113Y-73025000D01*
X148861740Y-72465091D01*
X148636333Y-72127745D01*
X169391861Y-72127745D01*
X169465995Y-72373864D01*
X170003223Y-72566965D01*
X170573454Y-72539778D01*
X170974005Y-72373864D01*
X171048139Y-72127745D01*
X170220000Y-71299605D01*
X169391861Y-72127745D01*
X148636333Y-72127745D01*
X148544577Y-71990423D01*
X148069909Y-71673260D01*
X147651333Y-71590000D01*
X147368667Y-71590000D01*
X146950091Y-71673260D01*
X146488605Y-71981615D01*
X145635561Y-71128572D01*
X145583397Y-71050503D01*
X145399472Y-70927608D01*
X145773454Y-70909778D01*
X146174005Y-70743864D01*
X146248139Y-70497745D01*
X145420000Y-69669605D01*
X144591861Y-70497745D01*
X144665995Y-70743864D01*
X144793238Y-70789600D01*
X135534286Y-70789600D01*
X135442200Y-70771283D01*
X135350114Y-70789600D01*
X135077381Y-70843850D01*
X134768103Y-71050503D01*
X134715941Y-71128569D01*
X133799395Y-72045115D01*
X133337909Y-71736760D01*
X132919333Y-71653500D01*
X132636667Y-71653500D01*
X132218091Y-71736760D01*
X131756605Y-72045115D01*
X130903561Y-71192072D01*
X130851397Y-71114003D01*
X130542119Y-70907350D01*
X130269386Y-70853100D01*
X130177300Y-70834783D01*
X130085214Y-70853100D01*
X118272496Y-70853100D01*
X118202862Y-70783466D01*
X117675439Y-70565000D01*
X117104561Y-70565000D01*
X116577138Y-70783466D01*
X116173466Y-71187138D01*
X116146475Y-71252299D01*
X116143864Y-71245995D01*
X115897745Y-71171861D01*
X115069605Y-72000000D01*
X115897745Y-72828139D01*
X116143864Y-72754005D01*
X116146290Y-72747254D01*
X116173466Y-72812862D01*
X116577138Y-73216534D01*
X117104561Y-73435000D01*
X117675439Y-73435000D01*
X118202862Y-73216534D01*
X118606534Y-72812862D01*
X118643715Y-72723100D01*
X123710560Y-72723100D01*
X123710560Y-73667506D01*
X123684571Y-73684871D01*
X123642171Y-73748327D01*
X117904804Y-79485695D01*
X117884577Y-79455423D01*
X117500892Y-79199053D01*
X117705134Y-79102389D01*
X118081041Y-78687423D01*
X118241904Y-78299039D01*
X118119915Y-78077000D01*
X116977000Y-78077000D01*
X116977000Y-78097000D01*
X116723000Y-78097000D01*
X116723000Y-78077000D01*
X115580085Y-78077000D01*
X115458096Y-78299039D01*
X115618959Y-78687423D01*
X115994866Y-79102389D01*
X116199108Y-79199053D01*
X115815423Y-79455423D01*
X115498260Y-79930091D01*
X115386887Y-80490000D01*
X115498260Y-81049909D01*
X115561530Y-81144600D01*
X112084702Y-81144600D01*
X110945631Y-80005530D01*
X110903229Y-79942071D01*
X110651837Y-79774096D01*
X110450786Y-79734104D01*
X110264577Y-79455423D01*
X109968614Y-79257667D01*
X109985896Y-79170786D01*
X110264577Y-78984577D01*
X110581740Y-78509909D01*
X110693113Y-77950000D01*
X110581740Y-77390091D01*
X110264577Y-76915423D01*
X110143894Y-76834785D01*
X110277765Y-76808157D01*
X110487809Y-76667809D01*
X110628157Y-76457765D01*
X110677440Y-76210000D01*
X110677440Y-75410000D01*
X115386887Y-75410000D01*
X115498260Y-75969909D01*
X115815423Y-76444577D01*
X116199108Y-76700947D01*
X115994866Y-76797611D01*
X115618959Y-77212577D01*
X115458096Y-77600961D01*
X115580085Y-77823000D01*
X116723000Y-77823000D01*
X116723000Y-77803000D01*
X116977000Y-77803000D01*
X116977000Y-77823000D01*
X118119915Y-77823000D01*
X118241904Y-77600961D01*
X118081041Y-77212577D01*
X117705134Y-76797611D01*
X117500892Y-76700947D01*
X117884577Y-76444577D01*
X118201740Y-75969909D01*
X118313113Y-75410000D01*
X118201740Y-74850091D01*
X117884577Y-74375423D01*
X117409909Y-74058260D01*
X116991333Y-73975000D01*
X116708667Y-73975000D01*
X116290091Y-74058260D01*
X115815423Y-74375423D01*
X115498260Y-74850091D01*
X115386887Y-75410000D01*
X110677440Y-75410000D01*
X110677440Y-74610000D01*
X110628157Y-74362235D01*
X110487809Y-74152191D01*
X110277765Y-74011843D01*
X110030000Y-73962560D01*
X108430000Y-73962560D01*
X108182235Y-74011843D01*
X107972191Y-74152191D01*
X107831843Y-74362235D01*
X107782560Y-74610000D01*
X107782560Y-76210000D01*
X107831843Y-76457765D01*
X107879744Y-76529454D01*
X107158730Y-77250469D01*
X107095271Y-77292871D01*
X106927296Y-77544264D01*
X106883200Y-77765949D01*
X106883200Y-77765953D01*
X106868312Y-77840800D01*
X102310000Y-77840800D01*
X102310000Y-73007745D01*
X114061861Y-73007745D01*
X114135995Y-73253864D01*
X114673223Y-73446965D01*
X115243454Y-73419778D01*
X115644005Y-73253864D01*
X115718139Y-73007745D01*
X114890000Y-72179605D01*
X114061861Y-73007745D01*
X102310000Y-73007745D01*
X102310000Y-71783223D01*
X113443035Y-71783223D01*
X113470222Y-72353454D01*
X113636136Y-72754005D01*
X113882255Y-72828139D01*
X114710395Y-72000000D01*
X113882255Y-71171861D01*
X113636136Y-71245995D01*
X113443035Y-71783223D01*
X102310000Y-71783223D01*
X102310000Y-70992255D01*
X114061861Y-70992255D01*
X114890000Y-71820395D01*
X115718139Y-70992255D01*
X115644005Y-70746136D01*
X115106777Y-70553035D01*
X114536546Y-70580222D01*
X114135995Y-70746136D01*
X114061861Y-70992255D01*
X102310000Y-70992255D01*
X102310000Y-67755431D01*
X104415000Y-67755431D01*
X104415000Y-68644569D01*
X104755259Y-69466026D01*
X105383974Y-70094741D01*
X106205431Y-70435000D01*
X107094569Y-70435000D01*
X107453694Y-70286245D01*
X129767861Y-70286245D01*
X129841995Y-70532364D01*
X130379223Y-70725465D01*
X130949454Y-70698278D01*
X131350005Y-70532364D01*
X131424139Y-70286245D01*
X130596000Y-69458105D01*
X129767861Y-70286245D01*
X107453694Y-70286245D01*
X107916026Y-70094741D01*
X108544741Y-69466026D01*
X108712208Y-69061723D01*
X129149035Y-69061723D01*
X129176222Y-69631954D01*
X129342136Y-70032505D01*
X129588255Y-70106639D01*
X130416395Y-69278500D01*
X130775605Y-69278500D01*
X131603745Y-70106639D01*
X131849864Y-70032505D01*
X131852290Y-70025754D01*
X131879466Y-70091362D01*
X132283138Y-70495034D01*
X132810561Y-70713500D01*
X133381439Y-70713500D01*
X133908862Y-70495034D01*
X134312534Y-70091362D01*
X134531000Y-69563939D01*
X134531000Y-69273223D01*
X143973035Y-69273223D01*
X144000222Y-69843454D01*
X144166136Y-70244005D01*
X144412255Y-70318139D01*
X145240395Y-69490000D01*
X145599605Y-69490000D01*
X146427745Y-70318139D01*
X146673864Y-70244005D01*
X146676290Y-70237254D01*
X146703466Y-70302862D01*
X147107138Y-70706534D01*
X147634561Y-70925000D01*
X148205439Y-70925000D01*
X148258013Y-70903223D01*
X168773035Y-70903223D01*
X168800222Y-71473454D01*
X168966136Y-71874005D01*
X169212255Y-71948139D01*
X170040395Y-71120000D01*
X170399605Y-71120000D01*
X171227745Y-71948139D01*
X171473864Y-71874005D01*
X171476290Y-71867254D01*
X171503466Y-71932862D01*
X171907138Y-72336534D01*
X172434561Y-72555000D01*
X173005439Y-72555000D01*
X173532862Y-72336534D01*
X173936534Y-71932862D01*
X174155000Y-71405439D01*
X174155000Y-70834561D01*
X173936534Y-70307138D01*
X173532862Y-69903466D01*
X173005439Y-69685000D01*
X172434561Y-69685000D01*
X171907138Y-69903466D01*
X171503466Y-70307138D01*
X171476475Y-70372299D01*
X171473864Y-70365995D01*
X171227745Y-70291861D01*
X170399605Y-71120000D01*
X170040395Y-71120000D01*
X169212255Y-70291861D01*
X168966136Y-70365995D01*
X168773035Y-70903223D01*
X148258013Y-70903223D01*
X148732862Y-70706534D01*
X149136534Y-70302862D01*
X149215486Y-70112255D01*
X169391861Y-70112255D01*
X170220000Y-70940395D01*
X171048139Y-70112255D01*
X170974005Y-69866136D01*
X170436777Y-69673035D01*
X169866546Y-69700222D01*
X169465995Y-69866136D01*
X169391861Y-70112255D01*
X149215486Y-70112255D01*
X149355000Y-69775439D01*
X149355000Y-69204561D01*
X149136534Y-68677138D01*
X148732862Y-68273466D01*
X148205439Y-68055000D01*
X147634561Y-68055000D01*
X147107138Y-68273466D01*
X146703466Y-68677138D01*
X146676475Y-68742299D01*
X146673864Y-68735995D01*
X146427745Y-68661861D01*
X145599605Y-69490000D01*
X145240395Y-69490000D01*
X144412255Y-68661861D01*
X144166136Y-68735995D01*
X143973035Y-69273223D01*
X134531000Y-69273223D01*
X134531000Y-68993061D01*
X134319417Y-68482255D01*
X144591861Y-68482255D01*
X145420000Y-69310395D01*
X146248139Y-68482255D01*
X146174005Y-68236136D01*
X145636777Y-68043035D01*
X145066546Y-68070222D01*
X144665995Y-68236136D01*
X144591861Y-68482255D01*
X134319417Y-68482255D01*
X134312534Y-68465638D01*
X133908862Y-68061966D01*
X133381439Y-67843500D01*
X132810561Y-67843500D01*
X132283138Y-68061966D01*
X131879466Y-68465638D01*
X131852475Y-68530799D01*
X131849864Y-68524495D01*
X131603745Y-68450361D01*
X130775605Y-69278500D01*
X130416395Y-69278500D01*
X129588255Y-68450361D01*
X129342136Y-68524495D01*
X129149035Y-69061723D01*
X108712208Y-69061723D01*
X108885000Y-68644569D01*
X108885000Y-68270755D01*
X129767861Y-68270755D01*
X130596000Y-69098895D01*
X131424139Y-68270755D01*
X131350005Y-68024636D01*
X130812777Y-67831535D01*
X130242546Y-67858722D01*
X129841995Y-68024636D01*
X129767861Y-68270755D01*
X108885000Y-68270755D01*
X108885000Y-67755431D01*
X108864290Y-67705431D01*
X193405000Y-67705431D01*
X193405000Y-68594569D01*
X193745259Y-69416026D01*
X194373974Y-70044741D01*
X195195431Y-70385000D01*
X196084569Y-70385000D01*
X196906026Y-70044741D01*
X197534741Y-69416026D01*
X197875000Y-68594569D01*
X197875000Y-67705431D01*
X197534741Y-66883974D01*
X196906026Y-66255259D01*
X196084569Y-65915000D01*
X195195431Y-65915000D01*
X194373974Y-66255259D01*
X193745259Y-66883974D01*
X193405000Y-67705431D01*
X108864290Y-67705431D01*
X108544741Y-66933974D01*
X107916026Y-66305259D01*
X107094569Y-65965000D01*
X106205431Y-65965000D01*
X105383974Y-66305259D01*
X104755259Y-66933974D01*
X104415000Y-67755431D01*
X102310000Y-67755431D01*
X102310000Y-64210000D01*
X199950000Y-64210000D01*
X199950001Y-137667738D01*
X199950001Y-137667738D01*
G37*
X199950001Y-137667738D02*
X102310000Y-137541261D01*
X102310000Y-133775431D01*
X104315000Y-133775431D01*
X104315000Y-134664569D01*
X104655259Y-135486026D01*
X105283974Y-136114741D01*
X106105431Y-136455000D01*
X106994569Y-136455000D01*
X107816026Y-136114741D01*
X108444741Y-135486026D01*
X108785000Y-134664569D01*
X108785000Y-133775431D01*
X108743579Y-133675431D01*
X193405000Y-133675431D01*
X193405000Y-134564569D01*
X193745259Y-135386026D01*
X194373974Y-136014741D01*
X195195431Y-136355000D01*
X196084569Y-136355000D01*
X196906026Y-136014741D01*
X197534741Y-135386026D01*
X197875000Y-134564569D01*
X197875000Y-133675431D01*
X197534741Y-132853974D01*
X196906026Y-132225259D01*
X196084569Y-131885000D01*
X195195431Y-131885000D01*
X194373974Y-132225259D01*
X193745259Y-132853974D01*
X193405000Y-133675431D01*
X108743579Y-133675431D01*
X108444741Y-132953974D01*
X107816026Y-132325259D01*
X106994569Y-131985000D01*
X106105431Y-131985000D01*
X105283974Y-132325259D01*
X104655259Y-132953974D01*
X104315000Y-133775431D01*
X102310000Y-133775431D01*
X102310000Y-128524000D01*
X108264887Y-128524000D01*
X108376260Y-129083909D01*
X108693423Y-129558577D01*
X109168091Y-129875740D01*
X109586667Y-129959000D01*
X109869333Y-129959000D01*
X110287909Y-129875740D01*
X110762577Y-129558577D01*
X111079740Y-129083909D01*
X111191113Y-128524000D01*
X111134336Y-128238561D01*
X118453000Y-128238561D01*
X118453000Y-128809439D01*
X118671466Y-129336862D01*
X119075138Y-129740534D01*
X119602561Y-129959000D01*
X120173439Y-129959000D01*
X120700862Y-129740534D01*
X121104534Y-129336862D01*
X121323000Y-128809439D01*
X121323000Y-128238561D01*
X121104534Y-127711138D01*
X120700862Y-127307466D01*
X120173439Y-127089000D01*
X119602561Y-127089000D01*
X119075138Y-127307466D01*
X118671466Y-127711138D01*
X118453000Y-128238561D01*
X111134336Y-128238561D01*
X111079740Y-127964091D01*
X110762577Y-127489423D01*
X110287909Y-127172260D01*
X109869333Y-127089000D01*
X109586667Y-127089000D01*
X109168091Y-127172260D01*
X108693423Y-127489423D01*
X108376260Y-127964091D01*
X108264887Y-128524000D01*
X102310000Y-128524000D01*
X102310000Y-125476000D01*
X108264887Y-125476000D01*
X108376260Y-126035909D01*
X108693423Y-126510577D01*
X109168091Y-126827740D01*
X109586667Y-126911000D01*
X109869333Y-126911000D01*
X110287909Y-126827740D01*
X110762577Y-126510577D01*
X111079740Y-126035909D01*
X111191113Y-125476000D01*
X111079740Y-124916091D01*
X110762577Y-124441423D01*
X110287909Y-124124260D01*
X109869333Y-124041000D01*
X109586667Y-124041000D01*
X109168091Y-124124260D01*
X108693423Y-124441423D01*
X108376260Y-124916091D01*
X108264887Y-125476000D01*
X102310000Y-125476000D01*
X102310000Y-117092000D01*
X110272560Y-117092000D01*
X110272560Y-119092000D01*
X110321843Y-119339765D01*
X110462191Y-119549809D01*
X110598723Y-119641038D01*
X110533914Y-119705847D01*
X110285000Y-120306778D01*
X110285000Y-120957222D01*
X110533914Y-121558153D01*
X110993847Y-122018086D01*
X111594778Y-122267000D01*
X112245222Y-122267000D01*
X112846153Y-122018086D01*
X113306086Y-121558153D01*
X113555000Y-120957222D01*
X113555000Y-120306778D01*
X113306086Y-119705847D01*
X113241277Y-119641038D01*
X113377809Y-119549809D01*
X113518157Y-119339765D01*
X113567440Y-119092000D01*
X113567440Y-117092000D01*
X113518157Y-116844235D01*
X113377809Y-116634191D01*
X113167765Y-116493843D01*
X112920000Y-116444560D01*
X110920000Y-116444560D01*
X110672235Y-116493843D01*
X110462191Y-116634191D01*
X110321843Y-116844235D01*
X110272560Y-117092000D01*
X102310000Y-117092000D01*
X102310000Y-77840800D01*
X106868312Y-77840800D01*
X106883200Y-77915647D01*
X106883201Y-102240648D01*
X106868312Y-102315500D01*
X106883201Y-102390352D01*
X106915954Y-102555011D01*
X106927297Y-102612037D01*
X107041484Y-102782929D01*
X107095272Y-102863429D01*
X107158728Y-102905829D01*
X110735458Y-106482560D01*
X109477000Y-106482560D01*
X109229235Y-106531843D01*
X109019191Y-106672191D01*
X108878843Y-106882235D01*
X108829560Y-107130000D01*
X108829560Y-108830000D01*
X108878843Y-109077765D01*
X109019191Y-109287809D01*
X109229235Y-109428157D01*
X109477000Y-109477440D01*
X111177000Y-109477440D01*
X111424765Y-109428157D01*
X111634809Y-109287809D01*
X111775157Y-109077765D01*
X111784184Y-109032381D01*
X111796375Y-109050625D01*
X112287582Y-109378839D01*
X112720744Y-109465000D01*
X113013256Y-109465000D01*
X113446418Y-109378839D01*
X113937625Y-109050625D01*
X114137000Y-108752239D01*
X114336375Y-109050625D01*
X114714638Y-109303373D01*
X111669011Y-112349000D01*
X110314396Y-112349000D01*
X110032862Y-112067466D01*
X109505439Y-111849000D01*
X108934561Y-111849000D01*
X108407138Y-112067466D01*
X108003466Y-112471138D01*
X107785000Y-112998561D01*
X107785000Y-113569439D01*
X108003466Y-114096862D01*
X108407138Y-114500534D01*
X108934561Y-114719000D01*
X109505439Y-114719000D01*
X110032862Y-114500534D01*
X110314396Y-114219000D01*
X111669011Y-114219000D01*
X115689400Y-118239390D01*
X115689401Y-122120310D01*
X115671083Y-122212400D01*
X115743650Y-122577218D01*
X115743651Y-122577219D01*
X115950304Y-122886497D01*
X116028370Y-122938659D01*
X118453000Y-125363290D01*
X118453000Y-125761439D01*
X118671466Y-126288862D01*
X119075138Y-126692534D01*
X119602561Y-126911000D01*
X120173439Y-126911000D01*
X120700862Y-126692534D01*
X121104534Y-126288862D01*
X121323000Y-125761439D01*
X121323000Y-125190561D01*
X121104534Y-124663138D01*
X120700862Y-124259466D01*
X120173439Y-124041000D01*
X119775290Y-124041000D01*
X118081289Y-122347000D01*
X118695222Y-122347000D01*
X119296153Y-122098086D01*
X119756086Y-121638153D01*
X120005000Y-121037222D01*
X120005000Y-120386778D01*
X119756086Y-119785847D01*
X119691277Y-119721038D01*
X119827809Y-119629809D01*
X119968157Y-119419765D01*
X120017440Y-119172000D01*
X120017440Y-117172000D01*
X119968157Y-116924235D01*
X119827809Y-116714191D01*
X119617765Y-116573843D01*
X119370000Y-116524560D01*
X119068797Y-116524560D01*
X119013500Y-116441803D01*
X119013500Y-115078456D01*
X119083463Y-115125204D01*
X119305148Y-115169300D01*
X119380000Y-115184189D01*
X119402844Y-115179645D01*
X124380360Y-120157162D01*
X124335000Y-120266670D01*
X124335000Y-120877330D01*
X124568690Y-121441507D01*
X125000493Y-121873310D01*
X125564670Y-122107000D01*
X126175330Y-122107000D01*
X126739507Y-121873310D01*
X127171310Y-121441507D01*
X127405000Y-120877330D01*
X127405000Y-120266670D01*
X127171310Y-119702493D01*
X127002092Y-119533275D01*
X127017765Y-119530157D01*
X127227809Y-119389809D01*
X127368157Y-119179765D01*
X127417440Y-118932000D01*
X127417440Y-118730797D01*
X127643229Y-118579929D01*
X127685631Y-118516470D01*
X131732602Y-114469500D01*
X131806389Y-114469500D01*
X131923820Y-114586931D01*
X132304226Y-114744500D01*
X132715974Y-114744500D01*
X132894101Y-114670718D01*
X132894101Y-114752697D01*
X127704430Y-119942369D01*
X127640971Y-119984771D01*
X127472996Y-120236164D01*
X127428900Y-120457849D01*
X127428900Y-120457853D01*
X127414012Y-120532700D01*
X127428900Y-120607547D01*
X127428901Y-123652355D01*
X127147598Y-123596400D01*
X126852402Y-123596400D01*
X126415275Y-123683350D01*
X125919570Y-124014570D01*
X125588350Y-124510275D01*
X125472041Y-125095000D01*
X125588350Y-125679725D01*
X125919570Y-126175430D01*
X126203281Y-126365000D01*
X125919570Y-126554570D01*
X125588350Y-127050275D01*
X125472041Y-127635000D01*
X125588350Y-128219725D01*
X125919570Y-128715430D01*
X126415275Y-129046650D01*
X126852402Y-129133600D01*
X127147598Y-129133600D01*
X127584725Y-129046650D01*
X128080430Y-128715430D01*
X128270000Y-128431719D01*
X128459570Y-128715430D01*
X128955275Y-129046650D01*
X129392402Y-129133600D01*
X129687598Y-129133600D01*
X130124725Y-129046650D01*
X130620430Y-128715430D01*
X130810000Y-128431719D01*
X130999570Y-128715430D01*
X131495275Y-129046650D01*
X131932402Y-129133600D01*
X132227598Y-129133600D01*
X132457974Y-129087775D01*
X132678571Y-129308373D01*
X132720971Y-129371829D01*
X132972363Y-129539804D01*
X133194048Y-129583900D01*
X133194052Y-129583900D01*
X133268900Y-129598788D01*
X133343748Y-129583900D01*
X142725553Y-129583900D01*
X142800400Y-129598788D01*
X142875247Y-129583900D01*
X142875252Y-129583900D01*
X143096937Y-129539804D01*
X143348329Y-129371829D01*
X143390731Y-129308370D01*
X143869876Y-128829225D01*
X144195275Y-129046650D01*
X144632402Y-129133600D01*
X144927598Y-129133600D01*
X145364725Y-129046650D01*
X145860430Y-128715430D01*
X146050000Y-128431719D01*
X146239570Y-128715430D01*
X146735275Y-129046650D01*
X147172402Y-129133600D01*
X147467598Y-129133600D01*
X147904725Y-129046650D01*
X148400430Y-128715430D01*
X148590000Y-128431719D01*
X148779570Y-128715430D01*
X149275275Y-129046650D01*
X149712402Y-129133600D01*
X150007598Y-129133600D01*
X150444725Y-129046650D01*
X150940430Y-128715430D01*
X151130000Y-128431719D01*
X151319570Y-128715430D01*
X151815275Y-129046650D01*
X152252402Y-129133600D01*
X152547598Y-129133600D01*
X152984725Y-129046650D01*
X153480430Y-128715430D01*
X153670000Y-128431719D01*
X153859570Y-128715430D01*
X154355275Y-129046650D01*
X154792402Y-129133600D01*
X155087598Y-129133600D01*
X155524725Y-129046650D01*
X156020430Y-128715430D01*
X156210000Y-128431719D01*
X156399570Y-128715430D01*
X156895275Y-129046650D01*
X157332402Y-129133600D01*
X157627598Y-129133600D01*
X158064725Y-129046650D01*
X158560430Y-128715430D01*
X158750000Y-128431719D01*
X158939570Y-128715430D01*
X159435275Y-129046650D01*
X159872402Y-129133600D01*
X160167598Y-129133600D01*
X160604725Y-129046650D01*
X161100430Y-128715430D01*
X161290000Y-128431719D01*
X161479570Y-128715430D01*
X161975275Y-129046650D01*
X162412402Y-129133600D01*
X162707598Y-129133600D01*
X163144725Y-129046650D01*
X163640430Y-128715430D01*
X163830000Y-128431719D01*
X164019570Y-128715430D01*
X164515275Y-129046650D01*
X164952402Y-129133600D01*
X165247598Y-129133600D01*
X165684725Y-129046650D01*
X166180430Y-128715430D01*
X166370000Y-128431719D01*
X166559570Y-128715430D01*
X167055275Y-129046650D01*
X167492402Y-129133600D01*
X167787598Y-129133600D01*
X168224725Y-129046650D01*
X168720430Y-128715430D01*
X168910000Y-128431719D01*
X169099570Y-128715430D01*
X169595275Y-129046650D01*
X170032402Y-129133600D01*
X170327598Y-129133600D01*
X170764725Y-129046650D01*
X171260430Y-128715430D01*
X171461854Y-128413979D01*
X171513179Y-128523490D01*
X171945053Y-128917688D01*
X172360974Y-129089958D01*
X172593000Y-128968817D01*
X172593000Y-127762000D01*
X172847000Y-127762000D01*
X172847000Y-128968817D01*
X173079026Y-129089958D01*
X173494947Y-128917688D01*
X173926821Y-128523490D01*
X173990000Y-128388687D01*
X174053179Y-128523490D01*
X174485053Y-128917688D01*
X174900974Y-129089958D01*
X175133000Y-128968817D01*
X175133000Y-127762000D01*
X175387000Y-127762000D01*
X175387000Y-128968817D01*
X175619026Y-129089958D01*
X176034947Y-128917688D01*
X176466821Y-128523490D01*
X176714968Y-127994027D01*
X176594469Y-127762000D01*
X175387000Y-127762000D01*
X175133000Y-127762000D01*
X172847000Y-127762000D01*
X172593000Y-127762000D01*
X172573000Y-127762000D01*
X172573000Y-127508000D01*
X172593000Y-127508000D01*
X172593000Y-127488000D01*
X172847000Y-127488000D01*
X172847000Y-127508000D01*
X175133000Y-127508000D01*
X175133000Y-127488000D01*
X175387000Y-127488000D01*
X175387000Y-127508000D01*
X176594469Y-127508000D01*
X176714968Y-127275973D01*
X176466821Y-126746510D01*
X176279050Y-126575119D01*
X176371365Y-126556757D01*
X176581409Y-126416409D01*
X176721757Y-126206365D01*
X176771040Y-125958600D01*
X176771040Y-125565000D01*
X183972560Y-125565000D01*
X183972560Y-127165000D01*
X184021843Y-127412765D01*
X184162191Y-127622809D01*
X184372235Y-127763157D01*
X184620000Y-127812440D01*
X186220000Y-127812440D01*
X186467765Y-127763157D01*
X186677809Y-127622809D01*
X186818157Y-127412765D01*
X186826117Y-127372745D01*
X187091861Y-127372745D01*
X187165995Y-127618864D01*
X187703223Y-127811965D01*
X188273454Y-127784778D01*
X188674005Y-127618864D01*
X188748139Y-127372745D01*
X187920000Y-126544605D01*
X187091861Y-127372745D01*
X186826117Y-127372745D01*
X186864693Y-127178813D01*
X186912255Y-127193139D01*
X187740395Y-126365000D01*
X188099605Y-126365000D01*
X188927745Y-127193139D01*
X189173864Y-127119005D01*
X189366965Y-126581777D01*
X189339778Y-126011546D01*
X189173864Y-125610995D01*
X188927745Y-125536861D01*
X188099605Y-126365000D01*
X187740395Y-126365000D01*
X186912255Y-125536861D01*
X186864693Y-125551187D01*
X186826118Y-125357255D01*
X187091861Y-125357255D01*
X187920000Y-126185395D01*
X188748139Y-125357255D01*
X188674005Y-125111136D01*
X188136777Y-124918035D01*
X187566546Y-124945222D01*
X187165995Y-125111136D01*
X187091861Y-125357255D01*
X186826118Y-125357255D01*
X186818157Y-125317235D01*
X186677809Y-125107191D01*
X186467765Y-124966843D01*
X186220000Y-124917560D01*
X184620000Y-124917560D01*
X184372235Y-124966843D01*
X184162191Y-125107191D01*
X184021843Y-125317235D01*
X183972560Y-125565000D01*
X176771040Y-125565000D01*
X176771040Y-124231400D01*
X176721757Y-123983635D01*
X176581409Y-123773591D01*
X176371365Y-123633243D01*
X176123600Y-123583960D01*
X174396400Y-123583960D01*
X174148635Y-123633243D01*
X173938591Y-123773591D01*
X173798243Y-123983635D01*
X173793068Y-124009651D01*
X173304725Y-123683350D01*
X172867598Y-123596400D01*
X172572402Y-123596400D01*
X172548453Y-123601164D01*
X168366261Y-119418972D01*
X168314097Y-119340903D01*
X168004819Y-119134250D01*
X167732086Y-119080000D01*
X167640000Y-119061683D01*
X167547914Y-119080000D01*
X166836112Y-119080000D01*
X166769577Y-118980423D01*
X166294909Y-118663260D01*
X165876333Y-118580000D01*
X165593667Y-118580000D01*
X165175091Y-118663260D01*
X164700423Y-118980423D01*
X164383260Y-119455091D01*
X164271887Y-120015000D01*
X164383260Y-120574909D01*
X164700423Y-121049577D01*
X165175091Y-121366740D01*
X165593667Y-121450000D01*
X165876333Y-121450000D01*
X166294909Y-121366740D01*
X166769577Y-121049577D01*
X166836112Y-120950000D01*
X167252711Y-120950000D01*
X169921225Y-123618515D01*
X169595275Y-123683350D01*
X169099570Y-124014570D01*
X168910000Y-124298281D01*
X168720430Y-124014570D01*
X168224725Y-123683350D01*
X167787598Y-123596400D01*
X167492402Y-123596400D01*
X167055275Y-123683350D01*
X166559570Y-124014570D01*
X166370000Y-124298281D01*
X166180430Y-124014570D01*
X165684725Y-123683350D01*
X165247598Y-123596400D01*
X164952402Y-123596400D01*
X164515275Y-123683350D01*
X164019570Y-124014570D01*
X163830000Y-124298281D01*
X163640430Y-124014570D01*
X163144725Y-123683350D01*
X162707598Y-123596400D01*
X162412402Y-123596400D01*
X161975275Y-123683350D01*
X161479570Y-124014570D01*
X161290000Y-124298281D01*
X161100430Y-124014570D01*
X160604725Y-123683350D01*
X160167598Y-123596400D01*
X159872402Y-123596400D01*
X159435275Y-123683350D01*
X158939570Y-124014570D01*
X158750000Y-124298281D01*
X158560430Y-124014570D01*
X158064725Y-123683350D01*
X157627598Y-123596400D01*
X157332402Y-123596400D01*
X156895275Y-123683350D01*
X156399570Y-124014570D01*
X156210000Y-124298281D01*
X156020430Y-124014570D01*
X155633911Y-123756306D01*
X157676173Y-121714044D01*
X157739629Y-121671644D01*
X157796102Y-121587126D01*
X157907604Y-121420253D01*
X157933930Y-121287903D01*
X157951700Y-121198567D01*
X157951700Y-121198563D01*
X157966588Y-121123715D01*
X157951700Y-121048867D01*
X157951700Y-119417246D01*
X157966588Y-119342399D01*
X157951700Y-119267552D01*
X157951700Y-119267548D01*
X157907604Y-119045863D01*
X157739629Y-118794471D01*
X157676173Y-118752071D01*
X152596631Y-113672530D01*
X152554229Y-113609071D01*
X152302837Y-113441096D01*
X152081152Y-113397000D01*
X152081147Y-113397000D01*
X152006300Y-113382112D01*
X151931453Y-113397000D01*
X140660411Y-113397000D01*
X140542980Y-113279569D01*
X140384514Y-113213930D01*
X140619134Y-113102889D01*
X140995041Y-112687923D01*
X141155904Y-112299539D01*
X141033915Y-112077500D01*
X139891000Y-112077500D01*
X139891000Y-112097500D01*
X139637000Y-112097500D01*
X139637000Y-112077500D01*
X138494085Y-112077500D01*
X138372096Y-112299539D01*
X138532959Y-112687923D01*
X138908866Y-113102889D01*
X139342071Y-113307918D01*
X139079269Y-113570720D01*
X138921700Y-113951126D01*
X138921700Y-114277700D01*
X138595126Y-114277700D01*
X138214720Y-114435269D01*
X137923569Y-114726420D01*
X137766000Y-115106826D01*
X137766000Y-115518574D01*
X137923569Y-115898980D01*
X138214720Y-116190131D01*
X138595126Y-116347700D01*
X139006874Y-116347700D01*
X139387280Y-116190131D01*
X139504711Y-116072700D01*
X152184099Y-116072700D01*
X153758699Y-117647300D01*
X136571546Y-117647300D01*
X136496699Y-117632412D01*
X136421852Y-117647300D01*
X136421848Y-117647300D01*
X136200163Y-117691396D01*
X135948771Y-117859371D01*
X135906371Y-117922827D01*
X135494034Y-118335165D01*
X135469494Y-118325000D01*
X134918506Y-118325000D01*
X134409460Y-118535853D01*
X134039000Y-118906313D01*
X134039000Y-118833691D01*
X133942327Y-118600302D01*
X133763699Y-118421673D01*
X133530310Y-118325000D01*
X132939750Y-118325000D01*
X132781000Y-118483750D01*
X132781000Y-119583000D01*
X132801000Y-119583000D01*
X132801000Y-119837000D01*
X132781000Y-119837000D01*
X132781000Y-120936250D01*
X132939750Y-121095000D01*
X133530310Y-121095000D01*
X133763699Y-120998327D01*
X133942327Y-120819698D01*
X134039000Y-120586309D01*
X134039000Y-120513687D01*
X134409460Y-120884147D01*
X134918506Y-121095000D01*
X135469494Y-121095000D01*
X135978540Y-120884147D01*
X136368147Y-120494540D01*
X136464000Y-120263130D01*
X136559853Y-120494540D01*
X136949460Y-120884147D01*
X137458506Y-121095000D01*
X138009494Y-121095000D01*
X138518540Y-120884147D01*
X138627687Y-120775000D01*
X140366570Y-120775000D01*
X140388466Y-120827862D01*
X140792138Y-121231534D01*
X141319561Y-121450000D01*
X141890439Y-121450000D01*
X142417862Y-121231534D01*
X142821534Y-120827862D01*
X143040000Y-120300439D01*
X143040000Y-119729561D01*
X142821534Y-119202138D01*
X142786696Y-119167300D01*
X144571598Y-119167300D01*
X141949999Y-121788900D01*
X140566646Y-121788900D01*
X140491799Y-121774012D01*
X140416952Y-121788900D01*
X140416948Y-121788900D01*
X140195263Y-121832996D01*
X140195261Y-121832997D01*
X140195262Y-121832997D01*
X140007326Y-121958571D01*
X140007324Y-121958573D01*
X139943871Y-122000971D01*
X139901473Y-122064424D01*
X138067127Y-123898772D01*
X137744725Y-123683350D01*
X137307598Y-123596400D01*
X137012402Y-123596400D01*
X136575275Y-123683350D01*
X136079570Y-124014570D01*
X135890000Y-124298281D01*
X135700430Y-124014570D01*
X135204725Y-123683350D01*
X134767598Y-123596400D01*
X134472402Y-123596400D01*
X134035275Y-123683350D01*
X133539570Y-124014570D01*
X133350000Y-124298281D01*
X133160430Y-124014570D01*
X132664725Y-123683350D01*
X132227598Y-123596400D01*
X131932402Y-123596400D01*
X131495275Y-123683350D01*
X130999570Y-124014570D01*
X130810000Y-124298281D01*
X130620430Y-124014570D01*
X130124725Y-123683350D01*
X129687598Y-123596400D01*
X129392402Y-123596400D01*
X128955275Y-123683350D01*
X128948900Y-123687610D01*
X128948900Y-120847501D01*
X129800651Y-119995750D01*
X131269000Y-119995750D01*
X131269000Y-120586309D01*
X131365673Y-120819698D01*
X131544301Y-120998327D01*
X131777690Y-121095000D01*
X132368250Y-121095000D01*
X132527000Y-120936250D01*
X132527000Y-119837000D01*
X131427750Y-119837000D01*
X131269000Y-119995750D01*
X129800651Y-119995750D01*
X130962710Y-118833691D01*
X131269000Y-118833691D01*
X131269000Y-119424250D01*
X131427750Y-119583000D01*
X132527000Y-119583000D01*
X132527000Y-118483750D01*
X132368250Y-118325000D01*
X131777690Y-118325000D01*
X131544301Y-118421673D01*
X131365673Y-118600302D01*
X131269000Y-118833691D01*
X130962710Y-118833691D01*
X134138573Y-115657829D01*
X134202029Y-115615429D01*
X134370004Y-115364037D01*
X134414100Y-115142352D01*
X134414100Y-115142347D01*
X134428988Y-115067500D01*
X134414100Y-114992653D01*
X134414100Y-111586446D01*
X134428988Y-111511599D01*
X134414100Y-111436752D01*
X134414100Y-111436748D01*
X134370004Y-111215063D01*
X134324707Y-111147272D01*
X134244429Y-111027126D01*
X134244427Y-111027124D01*
X134202029Y-110963671D01*
X134138576Y-110921273D01*
X133651023Y-110433721D01*
X133875740Y-110097409D01*
X133987113Y-109537500D01*
X133875740Y-108977591D01*
X133558577Y-108502923D01*
X133206242Y-108267500D01*
X133558577Y-108032077D01*
X133875740Y-107557409D01*
X133987113Y-106997500D01*
X133875740Y-106437591D01*
X133624627Y-106061774D01*
X133974902Y-105711500D01*
X134140974Y-105711500D01*
X134521380Y-105553931D01*
X134642455Y-105432856D01*
X136564571Y-107354973D01*
X136606971Y-107418429D01*
X136858363Y-107586404D01*
X137080048Y-107630500D01*
X137080052Y-107630500D01*
X137154899Y-107645388D01*
X137229746Y-107630500D01*
X138545957Y-107630500D01*
X138729423Y-107905077D01*
X139081758Y-108140500D01*
X138729423Y-108375923D01*
X138412260Y-108850591D01*
X138300887Y-109410500D01*
X138412260Y-109970409D01*
X138729423Y-110445077D01*
X139113108Y-110701447D01*
X138908866Y-110798111D01*
X138532959Y-111213077D01*
X138372096Y-111601461D01*
X138494085Y-111823500D01*
X139637000Y-111823500D01*
X139637000Y-111803500D01*
X139891000Y-111803500D01*
X139891000Y-111823500D01*
X141033915Y-111823500D01*
X141155904Y-111601461D01*
X140995041Y-111213077D01*
X140619134Y-110798111D01*
X140414892Y-110701447D01*
X140798577Y-110445077D01*
X141115740Y-109970409D01*
X141227113Y-109410500D01*
X141115740Y-108850591D01*
X140798577Y-108375923D01*
X140446242Y-108140500D01*
X140798577Y-107905077D01*
X141115740Y-107430409D01*
X141227113Y-106870500D01*
X141125668Y-106360500D01*
X142133899Y-106360500D01*
X145668371Y-109894973D01*
X145710771Y-109958429D01*
X145774227Y-110000829D01*
X145962162Y-110126404D01*
X146010305Y-110135980D01*
X146163214Y-110166396D01*
X146349423Y-110445077D01*
X146701758Y-110680500D01*
X146349423Y-110915923D01*
X146032260Y-111390591D01*
X145920887Y-111950500D01*
X146032260Y-112510409D01*
X146349423Y-112985077D01*
X146824091Y-113302240D01*
X147242667Y-113385500D01*
X147525333Y-113385500D01*
X147943909Y-113302240D01*
X148418577Y-112985077D01*
X148579633Y-112744039D01*
X156088096Y-112744039D01*
X156248959Y-113132423D01*
X156624866Y-113547389D01*
X157130959Y-113786914D01*
X157353000Y-113665629D01*
X157353000Y-112522000D01*
X157607000Y-112522000D01*
X157607000Y-113665629D01*
X157829041Y-113786914D01*
X158335134Y-113547389D01*
X158711041Y-113132423D01*
X158871904Y-112744039D01*
X158749915Y-112522000D01*
X157607000Y-112522000D01*
X157353000Y-112522000D01*
X156210085Y-112522000D01*
X156088096Y-112744039D01*
X148579633Y-112744039D01*
X148735740Y-112510409D01*
X148847113Y-111950500D01*
X148735740Y-111390591D01*
X148418577Y-110915923D01*
X148066242Y-110680500D01*
X148418577Y-110445077D01*
X148735740Y-109970409D01*
X148847113Y-109410500D01*
X148735740Y-108850591D01*
X148418577Y-108375923D01*
X148066242Y-108140500D01*
X148418577Y-107905077D01*
X148735740Y-107430409D01*
X148847113Y-106870500D01*
X148735740Y-106310591D01*
X148418577Y-105835923D01*
X148066242Y-105600500D01*
X148418577Y-105365077D01*
X148735740Y-104890409D01*
X148847113Y-104330500D01*
X148735740Y-103770591D01*
X148418577Y-103295923D01*
X148066242Y-103060500D01*
X148393339Y-102841940D01*
X153350870Y-107799472D01*
X153393271Y-107862929D01*
X153456727Y-107905329D01*
X153644662Y-108030904D01*
X153692805Y-108040480D01*
X153866348Y-108075000D01*
X153866352Y-108075000D01*
X153941200Y-108089888D01*
X154016048Y-108075000D01*
X156261957Y-108075000D01*
X156445423Y-108349577D01*
X156797758Y-108585000D01*
X156445423Y-108820423D01*
X156128260Y-109295091D01*
X156016887Y-109855000D01*
X156128260Y-110414909D01*
X156445423Y-110889577D01*
X156829108Y-111145947D01*
X156624866Y-111242611D01*
X156248959Y-111657577D01*
X156088096Y-112045961D01*
X156210085Y-112268000D01*
X157353000Y-112268000D01*
X157353000Y-112248000D01*
X157607000Y-112248000D01*
X157607000Y-112268000D01*
X158749915Y-112268000D01*
X158871904Y-112045961D01*
X158711041Y-111657577D01*
X158335134Y-111242611D01*
X158130892Y-111145947D01*
X158514577Y-110889577D01*
X158534804Y-110859305D01*
X159140671Y-111465173D01*
X159183071Y-111528629D01*
X159434463Y-111696604D01*
X159656148Y-111740700D01*
X159656152Y-111740700D01*
X159730999Y-111755588D01*
X159805846Y-111740700D01*
X170483100Y-111740700D01*
X170483101Y-112192188D01*
X170365669Y-112309620D01*
X170208100Y-112690026D01*
X170208100Y-113101774D01*
X170365669Y-113482180D01*
X170656820Y-113773331D01*
X171037226Y-113930900D01*
X171448974Y-113930900D01*
X171829380Y-113773331D01*
X171977784Y-113624927D01*
X172160091Y-113746740D01*
X172578667Y-113830000D01*
X172861333Y-113830000D01*
X173279909Y-113746740D01*
X173754577Y-113429577D01*
X173940786Y-113150896D01*
X174141837Y-113110904D01*
X174393229Y-112942929D01*
X174435631Y-112879470D01*
X174571062Y-112744039D01*
X178948096Y-112744039D01*
X179108959Y-113132423D01*
X179484866Y-113547389D01*
X179990959Y-113786914D01*
X180213000Y-113665629D01*
X180213000Y-112522000D01*
X180467000Y-112522000D01*
X180467000Y-113665629D01*
X180689041Y-113786914D01*
X181195134Y-113547389D01*
X181571041Y-113132423D01*
X181731904Y-112744039D01*
X181609915Y-112522000D01*
X180467000Y-112522000D01*
X180213000Y-112522000D01*
X179070085Y-112522000D01*
X178948096Y-112744039D01*
X174571062Y-112744039D01*
X175285402Y-112029700D01*
X178954831Y-112029700D01*
X178948096Y-112045961D01*
X179070085Y-112268000D01*
X180213000Y-112268000D01*
X180213000Y-112248000D01*
X180467000Y-112248000D01*
X180467000Y-112268000D01*
X181609915Y-112268000D01*
X181731904Y-112045961D01*
X181725169Y-112029700D01*
X193014599Y-112029700D01*
X193864371Y-112879473D01*
X193906771Y-112942929D01*
X194158163Y-113110904D01*
X194359214Y-113150896D01*
X194545423Y-113429577D01*
X195020091Y-113746740D01*
X195438667Y-113830000D01*
X195721333Y-113830000D01*
X196139909Y-113746740D01*
X196614577Y-113429577D01*
X196931740Y-112954909D01*
X197043113Y-112395000D01*
X196931740Y-111835091D01*
X196614577Y-111360423D01*
X196262242Y-111125000D01*
X196614577Y-110889577D01*
X196931740Y-110414909D01*
X197043113Y-109855000D01*
X196931740Y-109295091D01*
X196614577Y-108820423D01*
X196262242Y-108585000D01*
X196614577Y-108349577D01*
X196931740Y-107874909D01*
X197043113Y-107315000D01*
X196931740Y-106755091D01*
X196614577Y-106280423D01*
X196262242Y-106045000D01*
X196614577Y-105809577D01*
X196931740Y-105334909D01*
X197043113Y-104775000D01*
X196931740Y-104215091D01*
X196614577Y-103740423D01*
X196262242Y-103505000D01*
X196614577Y-103269577D01*
X196931740Y-102794909D01*
X197043113Y-102235000D01*
X196931740Y-101675091D01*
X196614577Y-101200423D01*
X196262242Y-100965000D01*
X196614577Y-100729577D01*
X196931740Y-100254909D01*
X197043113Y-99695000D01*
X196931740Y-99135091D01*
X196614577Y-98660423D01*
X196262242Y-98425000D01*
X196614577Y-98189577D01*
X196931740Y-97714909D01*
X197043113Y-97155000D01*
X196931740Y-96595091D01*
X196614577Y-96120423D01*
X196262242Y-95885000D01*
X196614577Y-95649577D01*
X196931740Y-95174909D01*
X197043113Y-94615000D01*
X196931740Y-94055091D01*
X196614577Y-93580423D01*
X196262242Y-93345000D01*
X196614577Y-93109577D01*
X196931740Y-92634909D01*
X197043113Y-92075000D01*
X196931740Y-91515091D01*
X196614577Y-91040423D01*
X196262242Y-90805000D01*
X196614577Y-90569577D01*
X196931740Y-90094909D01*
X197043113Y-89535000D01*
X196931740Y-88975091D01*
X196614577Y-88500423D01*
X196262242Y-88265000D01*
X196614577Y-88029577D01*
X196931740Y-87554909D01*
X197043113Y-86995000D01*
X196931740Y-86435091D01*
X196614577Y-85960423D01*
X196262242Y-85725000D01*
X196614577Y-85489577D01*
X196931740Y-85014909D01*
X197043113Y-84455000D01*
X196931740Y-83895091D01*
X196614577Y-83420423D01*
X196262242Y-83185000D01*
X196614577Y-82949577D01*
X196931740Y-82474909D01*
X197043113Y-81915000D01*
X196931740Y-81355091D01*
X196614577Y-80880423D01*
X196262242Y-80645000D01*
X196614577Y-80409577D01*
X196931740Y-79934909D01*
X197043113Y-79375000D01*
X196931740Y-78815091D01*
X196614577Y-78340423D01*
X196139909Y-78023260D01*
X195721333Y-77940000D01*
X195438667Y-77940000D01*
X195020091Y-78023260D01*
X194558605Y-78331615D01*
X193713995Y-77487005D01*
X193794005Y-77453864D01*
X193868139Y-77207745D01*
X193040000Y-76379605D01*
X193025858Y-76393748D01*
X192846253Y-76214143D01*
X192860395Y-76200000D01*
X193219605Y-76200000D01*
X194047745Y-77028139D01*
X194293864Y-76954005D01*
X194296290Y-76947254D01*
X194323466Y-77012862D01*
X194727138Y-77416534D01*
X195254561Y-77635000D01*
X195825439Y-77635000D01*
X196352862Y-77416534D01*
X196756534Y-77012862D01*
X196975000Y-76485439D01*
X196975000Y-75914561D01*
X196756534Y-75387138D01*
X196352862Y-74983466D01*
X195825439Y-74765000D01*
X195254561Y-74765000D01*
X194727138Y-74983466D01*
X194323466Y-75387138D01*
X194296475Y-75452299D01*
X194293864Y-75445995D01*
X194047745Y-75371861D01*
X193219605Y-76200000D01*
X192860395Y-76200000D01*
X192032255Y-75371861D01*
X191786136Y-75445995D01*
X191756218Y-75529229D01*
X191419244Y-75192255D01*
X192211861Y-75192255D01*
X193040000Y-76020395D01*
X193868139Y-75192255D01*
X193794005Y-74946136D01*
X193256777Y-74753035D01*
X192686546Y-74780222D01*
X192285995Y-74946136D01*
X192211861Y-75192255D01*
X191419244Y-75192255D01*
X189925961Y-73698972D01*
X189873797Y-73620903D01*
X189564519Y-73414250D01*
X189291786Y-73360000D01*
X189199700Y-73341683D01*
X189107614Y-73360000D01*
X173821112Y-73360000D01*
X173754577Y-73260423D01*
X173279909Y-72943260D01*
X172861333Y-72860000D01*
X172578667Y-72860000D01*
X172160091Y-72943260D01*
X171685423Y-73260423D01*
X171368260Y-73735091D01*
X171256887Y-74295000D01*
X171368260Y-74854909D01*
X171431530Y-74949600D01*
X161298003Y-74949600D01*
X159033531Y-72685130D01*
X158991129Y-72621671D01*
X158739737Y-72453696D01*
X158518052Y-72409600D01*
X158518047Y-72409600D01*
X158443200Y-72394712D01*
X158368353Y-72409600D01*
X151225447Y-72409600D01*
X151150600Y-72394712D01*
X151075753Y-72409600D01*
X151075748Y-72409600D01*
X150854063Y-72453696D01*
X150602671Y-72621671D01*
X150560271Y-72685127D01*
X149772599Y-73472800D01*
X148884040Y-73472800D01*
X148973113Y-73025000D01*
X148861740Y-72465091D01*
X148636333Y-72127745D01*
X169391861Y-72127745D01*
X169465995Y-72373864D01*
X170003223Y-72566965D01*
X170573454Y-72539778D01*
X170974005Y-72373864D01*
X171048139Y-72127745D01*
X170220000Y-71299605D01*
X169391861Y-72127745D01*
X148636333Y-72127745D01*
X148544577Y-71990423D01*
X148069909Y-71673260D01*
X147651333Y-71590000D01*
X147368667Y-71590000D01*
X146950091Y-71673260D01*
X146488605Y-71981615D01*
X145635561Y-71128572D01*
X145583397Y-71050503D01*
X145399472Y-70927608D01*
X145773454Y-70909778D01*
X146174005Y-70743864D01*
X146248139Y-70497745D01*
X145420000Y-69669605D01*
X144591861Y-70497745D01*
X144665995Y-70743864D01*
X144793238Y-70789600D01*
X135534286Y-70789600D01*
X135442200Y-70771283D01*
X135350114Y-70789600D01*
X135077381Y-70843850D01*
X134768103Y-71050503D01*
X134715941Y-71128569D01*
X133799395Y-72045115D01*
X133337909Y-71736760D01*
X132919333Y-71653500D01*
X132636667Y-71653500D01*
X132218091Y-71736760D01*
X131756605Y-72045115D01*
X130903561Y-71192072D01*
X130851397Y-71114003D01*
X130542119Y-70907350D01*
X130269386Y-70853100D01*
X130177300Y-70834783D01*
X130085214Y-70853100D01*
X118272496Y-70853100D01*
X118202862Y-70783466D01*
X117675439Y-70565000D01*
X117104561Y-70565000D01*
X116577138Y-70783466D01*
X116173466Y-71187138D01*
X116146475Y-71252299D01*
X116143864Y-71245995D01*
X115897745Y-71171861D01*
X115069605Y-72000000D01*
X115897745Y-72828139D01*
X116143864Y-72754005D01*
X116146290Y-72747254D01*
X116173466Y-72812862D01*
X116577138Y-73216534D01*
X117104561Y-73435000D01*
X117675439Y-73435000D01*
X118202862Y-73216534D01*
X118606534Y-72812862D01*
X118643715Y-72723100D01*
X123710560Y-72723100D01*
X123710560Y-73667506D01*
X123684571Y-73684871D01*
X123642171Y-73748327D01*
X117904804Y-79485695D01*
X117884577Y-79455423D01*
X117500892Y-79199053D01*
X117705134Y-79102389D01*
X118081041Y-78687423D01*
X118241904Y-78299039D01*
X118119915Y-78077000D01*
X116977000Y-78077000D01*
X116977000Y-78097000D01*
X116723000Y-78097000D01*
X116723000Y-78077000D01*
X115580085Y-78077000D01*
X115458096Y-78299039D01*
X115618959Y-78687423D01*
X115994866Y-79102389D01*
X116199108Y-79199053D01*
X115815423Y-79455423D01*
X115498260Y-79930091D01*
X115386887Y-80490000D01*
X115498260Y-81049909D01*
X115561530Y-81144600D01*
X112084702Y-81144600D01*
X110945631Y-80005530D01*
X110903229Y-79942071D01*
X110651837Y-79774096D01*
X110450786Y-79734104D01*
X110264577Y-79455423D01*
X109968614Y-79257667D01*
X109985896Y-79170786D01*
X110264577Y-78984577D01*
X110581740Y-78509909D01*
X110693113Y-77950000D01*
X110581740Y-77390091D01*
X110264577Y-76915423D01*
X110143894Y-76834785D01*
X110277765Y-76808157D01*
X110487809Y-76667809D01*
X110628157Y-76457765D01*
X110677440Y-76210000D01*
X110677440Y-75410000D01*
X115386887Y-75410000D01*
X115498260Y-75969909D01*
X115815423Y-76444577D01*
X116199108Y-76700947D01*
X115994866Y-76797611D01*
X115618959Y-77212577D01*
X115458096Y-77600961D01*
X115580085Y-77823000D01*
X116723000Y-77823000D01*
X116723000Y-77803000D01*
X116977000Y-77803000D01*
X116977000Y-77823000D01*
X118119915Y-77823000D01*
X118241904Y-77600961D01*
X118081041Y-77212577D01*
X117705134Y-76797611D01*
X117500892Y-76700947D01*
X117884577Y-76444577D01*
X118201740Y-75969909D01*
X118313113Y-75410000D01*
X118201740Y-74850091D01*
X117884577Y-74375423D01*
X117409909Y-74058260D01*
X116991333Y-73975000D01*
X116708667Y-73975000D01*
X116290091Y-74058260D01*
X115815423Y-74375423D01*
X115498260Y-74850091D01*
X115386887Y-75410000D01*
X110677440Y-75410000D01*
X110677440Y-74610000D01*
X110628157Y-74362235D01*
X110487809Y-74152191D01*
X110277765Y-74011843D01*
X110030000Y-73962560D01*
X108430000Y-73962560D01*
X108182235Y-74011843D01*
X107972191Y-74152191D01*
X107831843Y-74362235D01*
X107782560Y-74610000D01*
X107782560Y-76210000D01*
X107831843Y-76457765D01*
X107879744Y-76529454D01*
X107158730Y-77250469D01*
X107095271Y-77292871D01*
X106927296Y-77544264D01*
X106883200Y-77765949D01*
X106883200Y-77765953D01*
X106868312Y-77840800D01*
X102310000Y-77840800D01*
X102310000Y-73007745D01*
X114061861Y-73007745D01*
X114135995Y-73253864D01*
X114673223Y-73446965D01*
X115243454Y-73419778D01*
X115644005Y-73253864D01*
X115718139Y-73007745D01*
X114890000Y-72179605D01*
X114061861Y-73007745D01*
X102310000Y-73007745D01*
X102310000Y-71783223D01*
X113443035Y-71783223D01*
X113470222Y-72353454D01*
X113636136Y-72754005D01*
X113882255Y-72828139D01*
X114710395Y-72000000D01*
X113882255Y-71171861D01*
X113636136Y-71245995D01*
X113443035Y-71783223D01*
X102310000Y-71783223D01*
X102310000Y-70992255D01*
X114061861Y-70992255D01*
X114890000Y-71820395D01*
X115718139Y-70992255D01*
X115644005Y-70746136D01*
X115106777Y-70553035D01*
X114536546Y-70580222D01*
X114135995Y-70746136D01*
X114061861Y-70992255D01*
X102310000Y-70992255D01*
X102310000Y-67755431D01*
X104415000Y-67755431D01*
X104415000Y-68644569D01*
X104755259Y-69466026D01*
X105383974Y-70094741D01*
X106205431Y-70435000D01*
X107094569Y-70435000D01*
X107453694Y-70286245D01*
X129767861Y-70286245D01*
X129841995Y-70532364D01*
X130379223Y-70725465D01*
X130949454Y-70698278D01*
X131350005Y-70532364D01*
X131424139Y-70286245D01*
X130596000Y-69458105D01*
X129767861Y-70286245D01*
X107453694Y-70286245D01*
X107916026Y-70094741D01*
X108544741Y-69466026D01*
X108712208Y-69061723D01*
X129149035Y-69061723D01*
X129176222Y-69631954D01*
X129342136Y-70032505D01*
X129588255Y-70106639D01*
X130416395Y-69278500D01*
X130775605Y-69278500D01*
X131603745Y-70106639D01*
X131849864Y-70032505D01*
X131852290Y-70025754D01*
X131879466Y-70091362D01*
X132283138Y-70495034D01*
X132810561Y-70713500D01*
X133381439Y-70713500D01*
X133908862Y-70495034D01*
X134312534Y-70091362D01*
X134531000Y-69563939D01*
X134531000Y-69273223D01*
X143973035Y-69273223D01*
X144000222Y-69843454D01*
X144166136Y-70244005D01*
X144412255Y-70318139D01*
X145240395Y-69490000D01*
X145599605Y-69490000D01*
X146427745Y-70318139D01*
X146673864Y-70244005D01*
X146676290Y-70237254D01*
X146703466Y-70302862D01*
X147107138Y-70706534D01*
X147634561Y-70925000D01*
X148205439Y-70925000D01*
X148258013Y-70903223D01*
X168773035Y-70903223D01*
X168800222Y-71473454D01*
X168966136Y-71874005D01*
X169212255Y-71948139D01*
X170040395Y-71120000D01*
X170399605Y-71120000D01*
X171227745Y-71948139D01*
X171473864Y-71874005D01*
X171476290Y-71867254D01*
X171503466Y-71932862D01*
X171907138Y-72336534D01*
X172434561Y-72555000D01*
X173005439Y-72555000D01*
X173532862Y-72336534D01*
X173936534Y-71932862D01*
X174155000Y-71405439D01*
X174155000Y-70834561D01*
X173936534Y-70307138D01*
X173532862Y-69903466D01*
X173005439Y-69685000D01*
X172434561Y-69685000D01*
X171907138Y-69903466D01*
X171503466Y-70307138D01*
X171476475Y-70372299D01*
X171473864Y-70365995D01*
X171227745Y-70291861D01*
X170399605Y-71120000D01*
X170040395Y-71120000D01*
X169212255Y-70291861D01*
X168966136Y-70365995D01*
X168773035Y-70903223D01*
X148258013Y-70903223D01*
X148732862Y-70706534D01*
X149136534Y-70302862D01*
X149215486Y-70112255D01*
X169391861Y-70112255D01*
X170220000Y-70940395D01*
X171048139Y-70112255D01*
X170974005Y-69866136D01*
X170436777Y-69673035D01*
X169866546Y-69700222D01*
X169465995Y-69866136D01*
X169391861Y-70112255D01*
X149215486Y-70112255D01*
X149355000Y-69775439D01*
X149355000Y-69204561D01*
X149136534Y-68677138D01*
X148732862Y-68273466D01*
X148205439Y-68055000D01*
X147634561Y-68055000D01*
X147107138Y-68273466D01*
X146703466Y-68677138D01*
X146676475Y-68742299D01*
X146673864Y-68735995D01*
X146427745Y-68661861D01*
X145599605Y-69490000D01*
X145240395Y-69490000D01*
X144412255Y-68661861D01*
X144166136Y-68735995D01*
X143973035Y-69273223D01*
X134531000Y-69273223D01*
X134531000Y-68993061D01*
X134319417Y-68482255D01*
X144591861Y-68482255D01*
X145420000Y-69310395D01*
X146248139Y-68482255D01*
X146174005Y-68236136D01*
X145636777Y-68043035D01*
X145066546Y-68070222D01*
X144665995Y-68236136D01*
X144591861Y-68482255D01*
X134319417Y-68482255D01*
X134312534Y-68465638D01*
X133908862Y-68061966D01*
X133381439Y-67843500D01*
X132810561Y-67843500D01*
X132283138Y-68061966D01*
X131879466Y-68465638D01*
X131852475Y-68530799D01*
X131849864Y-68524495D01*
X131603745Y-68450361D01*
X130775605Y-69278500D01*
X130416395Y-69278500D01*
X129588255Y-68450361D01*
X129342136Y-68524495D01*
X129149035Y-69061723D01*
X108712208Y-69061723D01*
X108885000Y-68644569D01*
X108885000Y-68270755D01*
X129767861Y-68270755D01*
X130596000Y-69098895D01*
X131424139Y-68270755D01*
X131350005Y-68024636D01*
X130812777Y-67831535D01*
X130242546Y-67858722D01*
X129841995Y-68024636D01*
X129767861Y-68270755D01*
X108885000Y-68270755D01*
X108885000Y-67755431D01*
X108864290Y-67705431D01*
X193405000Y-67705431D01*
X193405000Y-68594569D01*
X193745259Y-69416026D01*
X194373974Y-70044741D01*
X195195431Y-70385000D01*
X196084569Y-70385000D01*
X196906026Y-70044741D01*
X197534741Y-69416026D01*
X197875000Y-68594569D01*
X197875000Y-67705431D01*
X197534741Y-66883974D01*
X196906026Y-66255259D01*
X196084569Y-65915000D01*
X195195431Y-65915000D01*
X194373974Y-66255259D01*
X193745259Y-66883974D01*
X193405000Y-67705431D01*
X108864290Y-67705431D01*
X108544741Y-66933974D01*
X107916026Y-66305259D01*
X107094569Y-65965000D01*
X106205431Y-65965000D01*
X105383974Y-66305259D01*
X104755259Y-66933974D01*
X104415000Y-67755431D01*
X102310000Y-67755431D01*
X102310000Y-64210000D01*
X199950000Y-64210000D01*
X199950001Y-137667738D01*
G36*
X123869423Y-108032077D02*
X124221758Y-108267500D01*
X123869423Y-108502923D01*
X123552260Y-108977591D01*
X123440887Y-109537500D01*
X123552260Y-110097409D01*
X123869423Y-110572077D01*
X124253108Y-110828447D01*
X124048866Y-110925111D01*
X123672959Y-111340077D01*
X123512096Y-111728461D01*
X123634085Y-111950500D01*
X124777000Y-111950500D01*
X124777000Y-111930500D01*
X125031000Y-111930500D01*
X125031000Y-111950500D01*
X126173915Y-111950500D01*
X126295904Y-111728461D01*
X126135041Y-111340077D01*
X125759134Y-110925111D01*
X125554892Y-110828447D01*
X125938577Y-110572077D01*
X126255740Y-110097409D01*
X126367113Y-109537500D01*
X126255740Y-108977591D01*
X125938577Y-108502923D01*
X125586242Y-108267500D01*
X125938577Y-108032077D01*
X125958804Y-108001805D01*
X130518971Y-112561973D01*
X130561371Y-112625429D01*
X130812763Y-112793404D01*
X131034448Y-112837500D01*
X131034453Y-112837500D01*
X131109300Y-112852388D01*
X131184147Y-112837500D01*
X131305957Y-112837500D01*
X131376353Y-112942856D01*
X131342952Y-112949500D01*
X131342948Y-112949500D01*
X131121263Y-112993596D01*
X130869871Y-113161571D01*
X130827471Y-113225027D01*
X127288091Y-116764408D01*
X127227809Y-116674191D01*
X127017765Y-116533843D01*
X126770000Y-116484560D01*
X124970000Y-116484560D01*
X124722235Y-116533843D01*
X124512191Y-116674191D01*
X124371843Y-116884235D01*
X124322560Y-117132000D01*
X124322560Y-117949758D01*
X120525448Y-114152647D01*
X120731740Y-113843909D01*
X120843113Y-113284000D01*
X120731740Y-112724091D01*
X120532923Y-112426539D01*
X123512096Y-112426539D01*
X123672959Y-112814923D01*
X124048866Y-113229889D01*
X124554959Y-113469414D01*
X124777000Y-113348129D01*
X124777000Y-112204500D01*
X125031000Y-112204500D01*
X125031000Y-113348129D01*
X125253041Y-113469414D01*
X125759134Y-113229889D01*
X126135041Y-112814923D01*
X126295904Y-112426539D01*
X126173915Y-112204500D01*
X125031000Y-112204500D01*
X124777000Y-112204500D01*
X123634085Y-112204500D01*
X123512096Y-112426539D01*
X120532923Y-112426539D01*
X120414577Y-112249423D01*
X119939909Y-111932260D01*
X119521333Y-111849000D01*
X119500901Y-111849000D01*
X123648484Y-107701418D01*
X123869423Y-108032077D01*
X123869423Y-108032077D01*
G37*
X123869423Y-108032077D02*
X124221758Y-108267500D01*
X123869423Y-108502923D01*
X123552260Y-108977591D01*
X123440887Y-109537500D01*
X123552260Y-110097409D01*
X123869423Y-110572077D01*
X124253108Y-110828447D01*
X124048866Y-110925111D01*
X123672959Y-111340077D01*
X123512096Y-111728461D01*
X123634085Y-111950500D01*
X124777000Y-111950500D01*
X124777000Y-111930500D01*
X125031000Y-111930500D01*
X125031000Y-111950500D01*
X126173915Y-111950500D01*
X126295904Y-111728461D01*
X126135041Y-111340077D01*
X125759134Y-110925111D01*
X125554892Y-110828447D01*
X125938577Y-110572077D01*
X126255740Y-110097409D01*
X126367113Y-109537500D01*
X126255740Y-108977591D01*
X125938577Y-108502923D01*
X125586242Y-108267500D01*
X125938577Y-108032077D01*
X125958804Y-108001805D01*
X130518971Y-112561973D01*
X130561371Y-112625429D01*
X130812763Y-112793404D01*
X131034448Y-112837500D01*
X131034453Y-112837500D01*
X131109300Y-112852388D01*
X131184147Y-112837500D01*
X131305957Y-112837500D01*
X131376353Y-112942856D01*
X131342952Y-112949500D01*
X131342948Y-112949500D01*
X131121263Y-112993596D01*
X130869871Y-113161571D01*
X130827471Y-113225027D01*
X127288091Y-116764408D01*
X127227809Y-116674191D01*
X127017765Y-116533843D01*
X126770000Y-116484560D01*
X124970000Y-116484560D01*
X124722235Y-116533843D01*
X124512191Y-116674191D01*
X124371843Y-116884235D01*
X124322560Y-117132000D01*
X124322560Y-117949758D01*
X120525448Y-114152647D01*
X120731740Y-113843909D01*
X120843113Y-113284000D01*
X120731740Y-112724091D01*
X120532923Y-112426539D01*
X123512096Y-112426539D01*
X123672959Y-112814923D01*
X124048866Y-113229889D01*
X124554959Y-113469414D01*
X124777000Y-113348129D01*
X124777000Y-112204500D01*
X125031000Y-112204500D01*
X125031000Y-113348129D01*
X125253041Y-113469414D01*
X125759134Y-113229889D01*
X126135041Y-112814923D01*
X126295904Y-112426539D01*
X126173915Y-112204500D01*
X125031000Y-112204500D01*
X124777000Y-112204500D01*
X123634085Y-112204500D01*
X123512096Y-112426539D01*
X120532923Y-112426539D01*
X120414577Y-112249423D01*
X119939909Y-111932260D01*
X119521333Y-111849000D01*
X119500901Y-111849000D01*
X123648484Y-107701418D01*
X123869423Y-108032077D01*
G36*
X123456560Y-97637500D02*
X123505843Y-97885265D01*
X123553744Y-97956954D01*
X123268630Y-98242069D01*
X123205171Y-98284471D01*
X123037196Y-98535864D01*
X122993100Y-98757549D01*
X122993100Y-98757553D01*
X122978212Y-98832400D01*
X122993100Y-98907248D01*
X122993101Y-99808449D01*
X122978212Y-99883300D01*
X123037197Y-100179837D01*
X123087359Y-100254909D01*
X123205172Y-100431229D01*
X123268628Y-100473629D01*
X123792718Y-100997720D01*
X123552260Y-101357591D01*
X123440887Y-101917500D01*
X123552260Y-102477409D01*
X123869423Y-102952077D01*
X124221758Y-103187500D01*
X123869423Y-103422923D01*
X123552260Y-103897591D01*
X123440887Y-104457500D01*
X123552260Y-105017409D01*
X123804855Y-105395443D01*
X117769028Y-111431271D01*
X117705572Y-111473671D01*
X117663172Y-111537127D01*
X117663171Y-111537128D01*
X117537597Y-111725063D01*
X117478612Y-112021600D01*
X117493501Y-112096452D01*
X117493500Y-116524560D01*
X117370000Y-116524560D01*
X117122235Y-116573843D01*
X116912191Y-116714191D01*
X116870771Y-116776181D01*
X113378589Y-113284000D01*
X121059628Y-105602961D01*
X121137697Y-105550797D01*
X121344350Y-105241519D01*
X121398600Y-104968786D01*
X121398600Y-104968785D01*
X121416917Y-104876700D01*
X121398600Y-104784614D01*
X121398600Y-99333489D01*
X123456560Y-97275530D01*
X123456560Y-97637500D01*
X123456560Y-97637500D01*
G37*
X123456560Y-97637500D02*
X123505843Y-97885265D01*
X123553744Y-97956954D01*
X123268630Y-98242069D01*
X123205171Y-98284471D01*
X123037196Y-98535864D01*
X122993100Y-98757549D01*
X122993100Y-98757553D01*
X122978212Y-98832400D01*
X122993100Y-98907248D01*
X122993101Y-99808449D01*
X122978212Y-99883300D01*
X123037197Y-100179837D01*
X123087359Y-100254909D01*
X123205172Y-100431229D01*
X123268628Y-100473629D01*
X123792718Y-100997720D01*
X123552260Y-101357591D01*
X123440887Y-101917500D01*
X123552260Y-102477409D01*
X123869423Y-102952077D01*
X124221758Y-103187500D01*
X123869423Y-103422923D01*
X123552260Y-103897591D01*
X123440887Y-104457500D01*
X123552260Y-105017409D01*
X123804855Y-105395443D01*
X117769028Y-111431271D01*
X117705572Y-111473671D01*
X117663172Y-111537127D01*
X117663171Y-111537128D01*
X117537597Y-111725063D01*
X117478612Y-112021600D01*
X117493501Y-112096452D01*
X117493500Y-116524560D01*
X117370000Y-116524560D01*
X117122235Y-116573843D01*
X116912191Y-116714191D01*
X116870771Y-116776181D01*
X113378589Y-113284000D01*
X121059628Y-105602961D01*
X121137697Y-105550797D01*
X121344350Y-105241519D01*
X121398600Y-104968786D01*
X121398600Y-104968785D01*
X121416917Y-104876700D01*
X121398600Y-104784614D01*
X121398600Y-99333489D01*
X123456560Y-97275530D01*
X123456560Y-97637500D01*
G36*
X120219970Y-90019472D02*
X120262371Y-90082929D01*
X120513763Y-90250904D01*
X120735448Y-90295000D01*
X120735453Y-90295000D01*
X120810300Y-90309888D01*
X120885147Y-90295000D01*
X129069463Y-90295000D01*
X129000900Y-90460526D01*
X129000900Y-90872274D01*
X129158469Y-91252680D01*
X129449620Y-91543831D01*
X129830026Y-91701400D01*
X130241774Y-91701400D01*
X130622180Y-91543831D01*
X130739611Y-91426400D01*
X143993899Y-91426400D01*
X144588943Y-92021444D01*
X144573995Y-92027636D01*
X144499861Y-92273755D01*
X145328000Y-93101895D01*
X145342143Y-93087753D01*
X145521748Y-93267358D01*
X145507605Y-93281500D01*
X145521748Y-93295643D01*
X145342142Y-93475248D01*
X145328000Y-93461105D01*
X144499861Y-94289245D01*
X144573995Y-94535364D01*
X145111223Y-94728465D01*
X145681454Y-94701278D01*
X146002987Y-94568094D01*
X146030071Y-94608629D01*
X146093530Y-94651031D01*
X146810404Y-95367905D01*
X146349423Y-95675923D01*
X146282888Y-95775500D01*
X141184587Y-95775500D01*
X141162157Y-95662735D01*
X141021809Y-95452691D01*
X140811765Y-95312343D01*
X140564000Y-95263060D01*
X138964000Y-95263060D01*
X138716235Y-95312343D01*
X138506191Y-95452691D01*
X138365843Y-95662735D01*
X138343413Y-95775500D01*
X134043385Y-95775500D01*
X133951299Y-95757183D01*
X133859214Y-95775500D01*
X133586481Y-95829750D01*
X133579582Y-95834360D01*
X133558577Y-95802923D01*
X133083909Y-95485760D01*
X132665333Y-95402500D01*
X132382667Y-95402500D01*
X131964091Y-95485760D01*
X131502605Y-95794115D01*
X130649561Y-94941072D01*
X130597397Y-94863003D01*
X130568074Y-94843410D01*
X130885454Y-94828278D01*
X131286005Y-94662364D01*
X131360139Y-94416245D01*
X130532000Y-93588105D01*
X129703861Y-94416245D01*
X129759843Y-94602100D01*
X123964780Y-94602100D01*
X123872699Y-94583784D01*
X123780618Y-94602100D01*
X123780614Y-94602100D01*
X123507881Y-94656350D01*
X123198603Y-94863003D01*
X123146441Y-94941069D01*
X119867570Y-98219941D01*
X119789504Y-98272103D01*
X119737342Y-98350169D01*
X119737341Y-98350170D01*
X119582850Y-98581382D01*
X119510283Y-98946200D01*
X119528601Y-99038290D01*
X119528600Y-104489411D01*
X116730373Y-107287638D01*
X116477625Y-106909375D01*
X115986418Y-106581161D01*
X115553256Y-106495000D01*
X115260744Y-106495000D01*
X114827582Y-106581161D01*
X114336375Y-106909375D01*
X114137000Y-107207761D01*
X113937625Y-106909375D01*
X113620571Y-106697526D01*
X113582904Y-106508163D01*
X113414929Y-106256771D01*
X113163537Y-106088796D01*
X112941852Y-106044700D01*
X112867000Y-106029811D01*
X112792148Y-106044700D01*
X112447202Y-106044700D01*
X109967077Y-103564576D01*
X110354625Y-103305625D01*
X110554000Y-103007239D01*
X110753375Y-103305625D01*
X111244582Y-103633839D01*
X111677744Y-103720000D01*
X111970256Y-103720000D01*
X112403418Y-103633839D01*
X112894625Y-103305625D01*
X113094000Y-103007239D01*
X113293375Y-103305625D01*
X113784582Y-103633839D01*
X114217744Y-103720000D01*
X114510256Y-103720000D01*
X114943418Y-103633839D01*
X115434625Y-103305625D01*
X115634000Y-103007239D01*
X115833375Y-103305625D01*
X116324582Y-103633839D01*
X116757744Y-103720000D01*
X117050256Y-103720000D01*
X117483418Y-103633839D01*
X117974625Y-103305625D01*
X118302839Y-102814418D01*
X118418092Y-102235000D01*
X118302839Y-101655582D01*
X117974625Y-101164375D01*
X117956381Y-101152184D01*
X118001765Y-101143157D01*
X118211809Y-101002809D01*
X118352157Y-100792765D01*
X118401440Y-100545000D01*
X118401440Y-98845000D01*
X118352157Y-98597235D01*
X118211809Y-98387191D01*
X118001765Y-98246843D01*
X117754000Y-98197560D01*
X117602797Y-98197560D01*
X117494329Y-98035227D01*
X117451929Y-97971771D01*
X117388473Y-97929371D01*
X116299400Y-96840299D01*
X116299400Y-94543592D01*
X116708667Y-94625000D01*
X116991333Y-94625000D01*
X117409909Y-94541740D01*
X117884577Y-94224577D01*
X118201740Y-93749909D01*
X118312770Y-93191723D01*
X129085035Y-93191723D01*
X129112222Y-93761954D01*
X129278136Y-94162505D01*
X129524255Y-94236639D01*
X130352395Y-93408500D01*
X130711605Y-93408500D01*
X131539745Y-94236639D01*
X131785864Y-94162505D01*
X131788290Y-94155754D01*
X131815466Y-94221362D01*
X132219138Y-94625034D01*
X132746561Y-94843500D01*
X133317439Y-94843500D01*
X133844862Y-94625034D01*
X134248534Y-94221362D01*
X134467000Y-93693939D01*
X134467000Y-93123061D01*
X134442836Y-93064723D01*
X143881035Y-93064723D01*
X143908222Y-93634954D01*
X144074136Y-94035505D01*
X144320255Y-94109639D01*
X145148395Y-93281500D01*
X144320255Y-92453361D01*
X144074136Y-92527495D01*
X143881035Y-93064723D01*
X134442836Y-93064723D01*
X134248534Y-92595638D01*
X133844862Y-92191966D01*
X133317439Y-91973500D01*
X132746561Y-91973500D01*
X132219138Y-92191966D01*
X131815466Y-92595638D01*
X131788475Y-92660799D01*
X131785864Y-92654495D01*
X131539745Y-92580361D01*
X130711605Y-93408500D01*
X130352395Y-93408500D01*
X129524255Y-92580361D01*
X129278136Y-92654495D01*
X129085035Y-93191723D01*
X118312770Y-93191723D01*
X118313113Y-93190000D01*
X118201740Y-92630091D01*
X118048503Y-92400755D01*
X129703861Y-92400755D01*
X130532000Y-93228895D01*
X131360139Y-92400755D01*
X131286005Y-92154636D01*
X130748777Y-91961535D01*
X130178546Y-91988722D01*
X129777995Y-92154636D01*
X129703861Y-92400755D01*
X118048503Y-92400755D01*
X117884577Y-92155423D01*
X117532242Y-91920000D01*
X117884577Y-91684577D01*
X118201740Y-91209909D01*
X118313113Y-90650000D01*
X118201740Y-90090091D01*
X117884577Y-89615423D01*
X117532242Y-89380000D01*
X117884577Y-89144577D01*
X118201740Y-88669909D01*
X118312679Y-88112181D01*
X120219970Y-90019472D01*
X120219970Y-90019472D01*
G37*
X120219970Y-90019472D02*
X120262371Y-90082929D01*
X120513763Y-90250904D01*
X120735448Y-90295000D01*
X120735453Y-90295000D01*
X120810300Y-90309888D01*
X120885147Y-90295000D01*
X129069463Y-90295000D01*
X129000900Y-90460526D01*
X129000900Y-90872274D01*
X129158469Y-91252680D01*
X129449620Y-91543831D01*
X129830026Y-91701400D01*
X130241774Y-91701400D01*
X130622180Y-91543831D01*
X130739611Y-91426400D01*
X143993899Y-91426400D01*
X144588943Y-92021444D01*
X144573995Y-92027636D01*
X144499861Y-92273755D01*
X145328000Y-93101895D01*
X145342143Y-93087753D01*
X145521748Y-93267358D01*
X145507605Y-93281500D01*
X145521748Y-93295643D01*
X145342142Y-93475248D01*
X145328000Y-93461105D01*
X144499861Y-94289245D01*
X144573995Y-94535364D01*
X145111223Y-94728465D01*
X145681454Y-94701278D01*
X146002987Y-94568094D01*
X146030071Y-94608629D01*
X146093530Y-94651031D01*
X146810404Y-95367905D01*
X146349423Y-95675923D01*
X146282888Y-95775500D01*
X141184587Y-95775500D01*
X141162157Y-95662735D01*
X141021809Y-95452691D01*
X140811765Y-95312343D01*
X140564000Y-95263060D01*
X138964000Y-95263060D01*
X138716235Y-95312343D01*
X138506191Y-95452691D01*
X138365843Y-95662735D01*
X138343413Y-95775500D01*
X134043385Y-95775500D01*
X133951299Y-95757183D01*
X133859214Y-95775500D01*
X133586481Y-95829750D01*
X133579582Y-95834360D01*
X133558577Y-95802923D01*
X133083909Y-95485760D01*
X132665333Y-95402500D01*
X132382667Y-95402500D01*
X131964091Y-95485760D01*
X131502605Y-95794115D01*
X130649561Y-94941072D01*
X130597397Y-94863003D01*
X130568074Y-94843410D01*
X130885454Y-94828278D01*
X131286005Y-94662364D01*
X131360139Y-94416245D01*
X130532000Y-93588105D01*
X129703861Y-94416245D01*
X129759843Y-94602100D01*
X123964780Y-94602100D01*
X123872699Y-94583784D01*
X123780618Y-94602100D01*
X123780614Y-94602100D01*
X123507881Y-94656350D01*
X123198603Y-94863003D01*
X123146441Y-94941069D01*
X119867570Y-98219941D01*
X119789504Y-98272103D01*
X119737342Y-98350169D01*
X119737341Y-98350170D01*
X119582850Y-98581382D01*
X119510283Y-98946200D01*
X119528601Y-99038290D01*
X119528600Y-104489411D01*
X116730373Y-107287638D01*
X116477625Y-106909375D01*
X115986418Y-106581161D01*
X115553256Y-106495000D01*
X115260744Y-106495000D01*
X114827582Y-106581161D01*
X114336375Y-106909375D01*
X114137000Y-107207761D01*
X113937625Y-106909375D01*
X113620571Y-106697526D01*
X113582904Y-106508163D01*
X113414929Y-106256771D01*
X113163537Y-106088796D01*
X112941852Y-106044700D01*
X112867000Y-106029811D01*
X112792148Y-106044700D01*
X112447202Y-106044700D01*
X109967077Y-103564576D01*
X110354625Y-103305625D01*
X110554000Y-103007239D01*
X110753375Y-103305625D01*
X111244582Y-103633839D01*
X111677744Y-103720000D01*
X111970256Y-103720000D01*
X112403418Y-103633839D01*
X112894625Y-103305625D01*
X113094000Y-103007239D01*
X113293375Y-103305625D01*
X113784582Y-103633839D01*
X114217744Y-103720000D01*
X114510256Y-103720000D01*
X114943418Y-103633839D01*
X115434625Y-103305625D01*
X115634000Y-103007239D01*
X115833375Y-103305625D01*
X116324582Y-103633839D01*
X116757744Y-103720000D01*
X117050256Y-103720000D01*
X117483418Y-103633839D01*
X117974625Y-103305625D01*
X118302839Y-102814418D01*
X118418092Y-102235000D01*
X118302839Y-101655582D01*
X117974625Y-101164375D01*
X117956381Y-101152184D01*
X118001765Y-101143157D01*
X118211809Y-101002809D01*
X118352157Y-100792765D01*
X118401440Y-100545000D01*
X118401440Y-98845000D01*
X118352157Y-98597235D01*
X118211809Y-98387191D01*
X118001765Y-98246843D01*
X117754000Y-98197560D01*
X117602797Y-98197560D01*
X117494329Y-98035227D01*
X117451929Y-97971771D01*
X117388473Y-97929371D01*
X116299400Y-96840299D01*
X116299400Y-94543592D01*
X116708667Y-94625000D01*
X116991333Y-94625000D01*
X117409909Y-94541740D01*
X117884577Y-94224577D01*
X118201740Y-93749909D01*
X118312770Y-93191723D01*
X129085035Y-93191723D01*
X129112222Y-93761954D01*
X129278136Y-94162505D01*
X129524255Y-94236639D01*
X130352395Y-93408500D01*
X130711605Y-93408500D01*
X131539745Y-94236639D01*
X131785864Y-94162505D01*
X131788290Y-94155754D01*
X131815466Y-94221362D01*
X132219138Y-94625034D01*
X132746561Y-94843500D01*
X133317439Y-94843500D01*
X133844862Y-94625034D01*
X134248534Y-94221362D01*
X134467000Y-93693939D01*
X134467000Y-93123061D01*
X134442836Y-93064723D01*
X143881035Y-93064723D01*
X143908222Y-93634954D01*
X144074136Y-94035505D01*
X144320255Y-94109639D01*
X145148395Y-93281500D01*
X144320255Y-92453361D01*
X144074136Y-92527495D01*
X143881035Y-93064723D01*
X134442836Y-93064723D01*
X134248534Y-92595638D01*
X133844862Y-92191966D01*
X133317439Y-91973500D01*
X132746561Y-91973500D01*
X132219138Y-92191966D01*
X131815466Y-92595638D01*
X131788475Y-92660799D01*
X131785864Y-92654495D01*
X131539745Y-92580361D01*
X130711605Y-93408500D01*
X130352395Y-93408500D01*
X129524255Y-92580361D01*
X129278136Y-92654495D01*
X129085035Y-93191723D01*
X118312770Y-93191723D01*
X118313113Y-93190000D01*
X118201740Y-92630091D01*
X118048503Y-92400755D01*
X129703861Y-92400755D01*
X130532000Y-93228895D01*
X131360139Y-92400755D01*
X131286005Y-92154636D01*
X130748777Y-91961535D01*
X130178546Y-91988722D01*
X129777995Y-92154636D01*
X129703861Y-92400755D01*
X118048503Y-92400755D01*
X117884577Y-92155423D01*
X117532242Y-91920000D01*
X117884577Y-91684577D01*
X118201740Y-91209909D01*
X118313113Y-90650000D01*
X118201740Y-90090091D01*
X117884577Y-89615423D01*
X117532242Y-89380000D01*
X117884577Y-89144577D01*
X118201740Y-88669909D01*
X118312679Y-88112181D01*
X120219970Y-90019472D01*
G36*
X156445423Y-90569577D02*
X156797758Y-90805000D01*
X156445423Y-91040423D01*
X156128260Y-91515091D01*
X156016887Y-92075000D01*
X156128260Y-92634909D01*
X156445423Y-93109577D01*
X156797758Y-93345000D01*
X156445423Y-93580423D01*
X156128260Y-94055091D01*
X156016887Y-94615000D01*
X156128260Y-95174909D01*
X156445423Y-95649577D01*
X156797758Y-95885000D01*
X156445423Y-96120423D01*
X156128260Y-96595091D01*
X156016887Y-97155000D01*
X156093801Y-97541673D01*
X155979563Y-97564396D01*
X155728171Y-97732371D01*
X155685771Y-97795827D01*
X151382799Y-102098800D01*
X151216726Y-102098800D01*
X150836320Y-102256369D01*
X150767445Y-102325244D01*
X148542225Y-100100024D01*
X148735740Y-99810409D01*
X148847113Y-99250500D01*
X148735740Y-98690591D01*
X148511063Y-98354338D01*
X148993773Y-97871629D01*
X149057229Y-97829229D01*
X149141620Y-97702929D01*
X149225204Y-97577838D01*
X149239610Y-97505412D01*
X149269300Y-97356152D01*
X149269300Y-97356148D01*
X149284188Y-97281300D01*
X149269300Y-97206452D01*
X149269300Y-96066848D01*
X149284188Y-95992000D01*
X149269300Y-95917152D01*
X149269300Y-95917148D01*
X149225204Y-95695463D01*
X149225204Y-95695462D01*
X149099629Y-95507527D01*
X149057229Y-95444071D01*
X148993773Y-95401671D01*
X148251440Y-94659338D01*
X148640862Y-94498034D01*
X149044534Y-94094362D01*
X149263000Y-93566939D01*
X149263000Y-92996061D01*
X149044534Y-92468638D01*
X148640862Y-92064966D01*
X148113439Y-91846500D01*
X147542561Y-91846500D01*
X147015138Y-92064966D01*
X146898603Y-92181501D01*
X145012101Y-90295000D01*
X156261957Y-90295000D01*
X156445423Y-90569577D01*
X156445423Y-90569577D01*
G37*
X156445423Y-90569577D02*
X156797758Y-90805000D01*
X156445423Y-91040423D01*
X156128260Y-91515091D01*
X156016887Y-92075000D01*
X156128260Y-92634909D01*
X156445423Y-93109577D01*
X156797758Y-93345000D01*
X156445423Y-93580423D01*
X156128260Y-94055091D01*
X156016887Y-94615000D01*
X156128260Y-95174909D01*
X156445423Y-95649577D01*
X156797758Y-95885000D01*
X156445423Y-96120423D01*
X156128260Y-96595091D01*
X156016887Y-97155000D01*
X156093801Y-97541673D01*
X155979563Y-97564396D01*
X155728171Y-97732371D01*
X155685771Y-97795827D01*
X151382799Y-102098800D01*
X151216726Y-102098800D01*
X150836320Y-102256369D01*
X150767445Y-102325244D01*
X148542225Y-100100024D01*
X148735740Y-99810409D01*
X148847113Y-99250500D01*
X148735740Y-98690591D01*
X148511063Y-98354338D01*
X148993773Y-97871629D01*
X149057229Y-97829229D01*
X149141620Y-97702929D01*
X149225204Y-97577838D01*
X149239610Y-97505412D01*
X149269300Y-97356152D01*
X149269300Y-97356148D01*
X149284188Y-97281300D01*
X149269300Y-97206452D01*
X149269300Y-96066848D01*
X149284188Y-95992000D01*
X149269300Y-95917152D01*
X149269300Y-95917148D01*
X149225204Y-95695463D01*
X149225204Y-95695462D01*
X149099629Y-95507527D01*
X149057229Y-95444071D01*
X148993773Y-95401671D01*
X148251440Y-94659338D01*
X148640862Y-94498034D01*
X149044534Y-94094362D01*
X149263000Y-93566939D01*
X149263000Y-92996061D01*
X149044534Y-92468638D01*
X148640862Y-92064966D01*
X148113439Y-91846500D01*
X147542561Y-91846500D01*
X147015138Y-92064966D01*
X146898603Y-92181501D01*
X145012101Y-90295000D01*
X156261957Y-90295000D01*
X156445423Y-90569577D01*
G36*
X171685423Y-98189577D02*
X172069108Y-98445947D01*
X171864866Y-98542611D01*
X171488959Y-98957577D01*
X171328096Y-99345961D01*
X171450085Y-99568000D01*
X172593000Y-99568000D01*
X172593000Y-99548000D01*
X172847000Y-99548000D01*
X172847000Y-99568000D01*
X172867000Y-99568000D01*
X172867000Y-99822000D01*
X172847000Y-99822000D01*
X172847000Y-99842000D01*
X172593000Y-99842000D01*
X172593000Y-99822000D01*
X171450085Y-99822000D01*
X171328096Y-100044039D01*
X171339387Y-100071300D01*
X160056402Y-100071300D01*
X159195631Y-99210530D01*
X159153229Y-99147071D01*
X158993435Y-99040300D01*
X170394553Y-99040300D01*
X170469400Y-99055188D01*
X170544247Y-99040300D01*
X170544252Y-99040300D01*
X170765937Y-98996204D01*
X171017329Y-98828229D01*
X171059731Y-98764770D01*
X171665196Y-98159305D01*
X171685423Y-98189577D01*
X171685423Y-98189577D01*
G37*
X171685423Y-98189577D02*
X172069108Y-98445947D01*
X171864866Y-98542611D01*
X171488959Y-98957577D01*
X171328096Y-99345961D01*
X171450085Y-99568000D01*
X172593000Y-99568000D01*
X172593000Y-99548000D01*
X172847000Y-99548000D01*
X172847000Y-99568000D01*
X172867000Y-99568000D01*
X172867000Y-99822000D01*
X172847000Y-99822000D01*
X172847000Y-99842000D01*
X172593000Y-99842000D01*
X172593000Y-99822000D01*
X171450085Y-99822000D01*
X171328096Y-100044039D01*
X171339387Y-100071300D01*
X160056402Y-100071300D01*
X159195631Y-99210530D01*
X159153229Y-99147071D01*
X158993435Y-99040300D01*
X170394553Y-99040300D01*
X170469400Y-99055188D01*
X170544247Y-99040300D01*
X170544252Y-99040300D01*
X170765937Y-98996204D01*
X171017329Y-98828229D01*
X171059731Y-98764770D01*
X171665196Y-98159305D01*
X171685423Y-98189577D01*
G36*
X111064000Y-91862802D02*
X111064001Y-98416821D01*
X110753375Y-98624375D01*
X110554000Y-98922761D01*
X110354625Y-98624375D01*
X109863418Y-98296161D01*
X109430256Y-98210000D01*
X109137744Y-98210000D01*
X108704582Y-98296161D01*
X108403200Y-98497538D01*
X108403200Y-94355799D01*
X108880959Y-94581914D01*
X109103000Y-94460629D01*
X109103000Y-93317000D01*
X109357000Y-93317000D01*
X109357000Y-94460629D01*
X109579041Y-94581914D01*
X110085134Y-94342389D01*
X110461041Y-93927423D01*
X110621904Y-93539039D01*
X110499915Y-93317000D01*
X109357000Y-93317000D01*
X109103000Y-93317000D01*
X109083000Y-93317000D01*
X109083000Y-93063000D01*
X109103000Y-93063000D01*
X109103000Y-93043000D01*
X109357000Y-93043000D01*
X109357000Y-93063000D01*
X110499915Y-93063000D01*
X110621904Y-92840961D01*
X110461041Y-92452577D01*
X110085134Y-92037611D01*
X109880892Y-91940947D01*
X110264577Y-91684577D01*
X110513394Y-91312196D01*
X111064000Y-91862802D01*
X111064000Y-91862802D01*
G37*
X111064000Y-91862802D02*
X111064001Y-98416821D01*
X110753375Y-98624375D01*
X110554000Y-98922761D01*
X110354625Y-98624375D01*
X109863418Y-98296161D01*
X109430256Y-98210000D01*
X109137744Y-98210000D01*
X108704582Y-98296161D01*
X108403200Y-98497538D01*
X108403200Y-94355799D01*
X108880959Y-94581914D01*
X109103000Y-94460629D01*
X109103000Y-93317000D01*
X109357000Y-93317000D01*
X109357000Y-94460629D01*
X109579041Y-94581914D01*
X110085134Y-94342389D01*
X110461041Y-93927423D01*
X110621904Y-93539039D01*
X110499915Y-93317000D01*
X109357000Y-93317000D01*
X109103000Y-93317000D01*
X109083000Y-93317000D01*
X109083000Y-93063000D01*
X109103000Y-93063000D01*
X109103000Y-93043000D01*
X109357000Y-93043000D01*
X109357000Y-93063000D01*
X110499915Y-93063000D01*
X110621904Y-92840961D01*
X110461041Y-92452577D01*
X110085134Y-92037611D01*
X109880892Y-91940947D01*
X110264577Y-91684577D01*
X110513394Y-91312196D01*
X111064000Y-91862802D01*
G36*
X138498096Y-87915961D02*
X138620085Y-88138000D01*
X139763000Y-88138000D01*
X139763000Y-88118000D01*
X140017000Y-88118000D01*
X140017000Y-88138000D01*
X141159915Y-88138000D01*
X141224622Y-88020223D01*
X141953871Y-88749473D01*
X141970928Y-88775000D01*
X141215236Y-88775000D01*
X141281904Y-88614039D01*
X141159915Y-88392000D01*
X140017000Y-88392000D01*
X140017000Y-88412000D01*
X139763000Y-88412000D01*
X139763000Y-88392000D01*
X138620085Y-88392000D01*
X138498096Y-88614039D01*
X138564764Y-88775000D01*
X134152298Y-88775000D01*
X134241113Y-88328500D01*
X134129740Y-87768591D01*
X134120659Y-87755000D01*
X138564764Y-87755000D01*
X138498096Y-87915961D01*
X138498096Y-87915961D01*
G37*
X138498096Y-87915961D02*
X138620085Y-88138000D01*
X139763000Y-88138000D01*
X139763000Y-88118000D01*
X140017000Y-88118000D01*
X140017000Y-88138000D01*
X141159915Y-88138000D01*
X141224622Y-88020223D01*
X141953871Y-88749473D01*
X141970928Y-88775000D01*
X141215236Y-88775000D01*
X141281904Y-88614039D01*
X141159915Y-88392000D01*
X140017000Y-88392000D01*
X140017000Y-88412000D01*
X139763000Y-88412000D01*
X139763000Y-88392000D01*
X138620085Y-88392000D01*
X138498096Y-88614039D01*
X138564764Y-88775000D01*
X134152298Y-88775000D01*
X134241113Y-88328500D01*
X134129740Y-87768591D01*
X134120659Y-87755000D01*
X138564764Y-87755000D01*
X138498096Y-87915961D01*
G36*
X123766096Y-87979461D02*
X123888085Y-88201500D01*
X125031000Y-88201500D01*
X125031000Y-88181500D01*
X125285000Y-88181500D01*
X125285000Y-88201500D01*
X126427915Y-88201500D01*
X126549904Y-87979461D01*
X126456936Y-87755000D01*
X131435341Y-87755000D01*
X131426260Y-87768591D01*
X131314887Y-88328500D01*
X131403702Y-88775000D01*
X126509537Y-88775000D01*
X126549904Y-88677539D01*
X126427915Y-88455500D01*
X125285000Y-88455500D01*
X125285000Y-88475500D01*
X125031000Y-88475500D01*
X125031000Y-88455500D01*
X123888085Y-88455500D01*
X123766096Y-88677539D01*
X123806463Y-88775000D01*
X121125102Y-88775000D01*
X120105102Y-87755000D01*
X123859064Y-87755000D01*
X123766096Y-87979461D01*
X123766096Y-87979461D01*
G37*
X123766096Y-87979461D02*
X123888085Y-88201500D01*
X125031000Y-88201500D01*
X125031000Y-88181500D01*
X125285000Y-88181500D01*
X125285000Y-88201500D01*
X126427915Y-88201500D01*
X126549904Y-87979461D01*
X126456936Y-87755000D01*
X131435341Y-87755000D01*
X131426260Y-87768591D01*
X131314887Y-88328500D01*
X131403702Y-88775000D01*
X126509537Y-88775000D01*
X126549904Y-88677539D01*
X126427915Y-88455500D01*
X125285000Y-88455500D01*
X125285000Y-88475500D01*
X125031000Y-88475500D01*
X125031000Y-88455500D01*
X123888085Y-88455500D01*
X123766096Y-88677539D01*
X123806463Y-88775000D01*
X121125102Y-88775000D01*
X120105102Y-87755000D01*
X123859064Y-87755000D01*
X123766096Y-87979461D01*
G36*
X193553441Y-79971031D02*
X193605603Y-80049097D01*
X193683669Y-80101259D01*
X193914881Y-80255750D01*
X194279700Y-80328317D01*
X194371786Y-80310000D01*
X194478888Y-80310000D01*
X194545423Y-80409577D01*
X194897758Y-80645000D01*
X194545423Y-80880423D01*
X194228260Y-81355091D01*
X194116887Y-81915000D01*
X194228260Y-82474909D01*
X194545423Y-82949577D01*
X194897758Y-83185000D01*
X194545423Y-83420423D01*
X194359214Y-83699104D01*
X194158163Y-83739096D01*
X193906771Y-83907071D01*
X193864371Y-83970527D01*
X193014599Y-84820300D01*
X181730450Y-84820300D01*
X181803113Y-84455000D01*
X181691740Y-83895091D01*
X181374577Y-83420423D01*
X181022242Y-83185000D01*
X181374577Y-82949577D01*
X181691740Y-82474909D01*
X181803113Y-81915000D01*
X181691740Y-81355091D01*
X181374577Y-80880423D01*
X181253894Y-80799785D01*
X181387765Y-80773157D01*
X181597809Y-80632809D01*
X181738157Y-80422765D01*
X181787440Y-80175000D01*
X181787440Y-78575000D01*
X181738157Y-78327235D01*
X181597809Y-78117191D01*
X181387765Y-77976843D01*
X181140000Y-77927560D01*
X179540000Y-77927560D01*
X179292235Y-77976843D01*
X179082191Y-78117191D01*
X178941843Y-78327235D01*
X178892560Y-78575000D01*
X178892560Y-78615000D01*
X174605400Y-78615000D01*
X174605400Y-76357146D01*
X174620288Y-76282299D01*
X174605400Y-76207452D01*
X174605400Y-76207448D01*
X174561304Y-75985763D01*
X174393329Y-75734371D01*
X174329873Y-75691971D01*
X173867901Y-75230000D01*
X188812411Y-75230000D01*
X193553441Y-79971031D01*
X193553441Y-79971031D01*
G37*
X193553441Y-79971031D02*
X193605603Y-80049097D01*
X193683669Y-80101259D01*
X193914881Y-80255750D01*
X194279700Y-80328317D01*
X194371786Y-80310000D01*
X194478888Y-80310000D01*
X194545423Y-80409577D01*
X194897758Y-80645000D01*
X194545423Y-80880423D01*
X194228260Y-81355091D01*
X194116887Y-81915000D01*
X194228260Y-82474909D01*
X194545423Y-82949577D01*
X194897758Y-83185000D01*
X194545423Y-83420423D01*
X194359214Y-83699104D01*
X194158163Y-83739096D01*
X193906771Y-83907071D01*
X193864371Y-83970527D01*
X193014599Y-84820300D01*
X181730450Y-84820300D01*
X181803113Y-84455000D01*
X181691740Y-83895091D01*
X181374577Y-83420423D01*
X181022242Y-83185000D01*
X181374577Y-82949577D01*
X181691740Y-82474909D01*
X181803113Y-81915000D01*
X181691740Y-81355091D01*
X181374577Y-80880423D01*
X181253894Y-80799785D01*
X181387765Y-80773157D01*
X181597809Y-80632809D01*
X181738157Y-80422765D01*
X181787440Y-80175000D01*
X181787440Y-78575000D01*
X181738157Y-78327235D01*
X181597809Y-78117191D01*
X181387765Y-77976843D01*
X181140000Y-77927560D01*
X179540000Y-77927560D01*
X179292235Y-77976843D01*
X179082191Y-78117191D01*
X178941843Y-78327235D01*
X178892560Y-78575000D01*
X178892560Y-78615000D01*
X174605400Y-78615000D01*
X174605400Y-76357146D01*
X174620288Y-76282299D01*
X174605400Y-76207452D01*
X174605400Y-76207448D01*
X174561304Y-75985763D01*
X174393329Y-75734371D01*
X174329873Y-75691971D01*
X173867901Y-75230000D01*
X188812411Y-75230000D01*
X193553441Y-79971031D01*
G04 #@! TD*
M02*
