G04 #@! TF.GenerationSoftware,KiCad,Pcbnew,(5.0.0-3-g5ebb6b6)*
G04 #@! TF.CreationDate,2019-01-10T21:12:22+09:00*
G04 #@! TF.ProjectId,Z80-1MSRAM,5A38302D314D5352414D2E6B69636164,rev?*
G04 #@! TF.SameCoordinates,Original*
G04 #@! TF.FileFunction,Copper,L2,Bot,Signal*
G04 #@! TF.FilePolarity,Positive*
%FSLAX46Y46*%
G04 Gerber Fmt 4.6, Leading zero omitted, Abs format (unit mm)*
G04 Created by KiCad (PCBNEW (5.0.0-3-g5ebb6b6)) date *
%MOMM*%
%LPD*%
G01*
G04 APERTURE LIST*
G04 #@! TA.AperFunction,ComponentPad*
%ADD10R,1.700000X1.700000*%
G04 #@! TD*
G04 #@! TA.AperFunction,ComponentPad*
%ADD11O,1.700000X1.700000*%
G04 #@! TD*
G04 #@! TA.AperFunction,ComponentPad*
%ADD12R,1.800000X1.800000*%
G04 #@! TD*
G04 #@! TA.AperFunction,ComponentPad*
%ADD13C,1.800000*%
G04 #@! TD*
G04 #@! TA.AperFunction,ComponentPad*
%ADD14R,1.600000X1.600000*%
G04 #@! TD*
G04 #@! TA.AperFunction,ComponentPad*
%ADD15O,1.600000X1.600000*%
G04 #@! TD*
G04 #@! TA.AperFunction,ComponentPad*
%ADD16C,1.600000*%
G04 #@! TD*
G04 #@! TA.AperFunction,ComponentPad*
%ADD17R,1.727200X1.727200*%
G04 #@! TD*
G04 #@! TA.AperFunction,ComponentPad*
%ADD18O,1.727200X1.727200*%
G04 #@! TD*
G04 #@! TA.AperFunction,ComponentPad*
%ADD19R,2.000000X2.000000*%
G04 #@! TD*
G04 #@! TA.AperFunction,ComponentPad*
%ADD20C,2.000000*%
G04 #@! TD*
G04 #@! TA.AperFunction,ViaPad*
%ADD21C,0.889000*%
G04 #@! TD*
G04 #@! TA.AperFunction,Conductor*
%ADD22C,0.203200*%
G04 #@! TD*
G04 #@! TA.AperFunction,Conductor*
%ADD23C,0.609600*%
G04 #@! TD*
G04 #@! TA.AperFunction,Conductor*
%ADD24C,0.254000*%
G04 #@! TD*
G04 APERTURE END LIST*
D10*
G04 #@! TO.P,J2,1*
G04 #@! TO.N,Net-(J2-Pad1)*
X117920000Y-101727000D03*
D11*
G04 #@! TO.P,J2,2*
G04 #@! TO.N,Net-(J2-Pad2)*
X117920000Y-104267000D03*
G04 #@! TO.P,J2,3*
G04 #@! TO.N,Net-(J2-Pad3)*
X115380000Y-101727000D03*
G04 #@! TO.P,J2,4*
G04 #@! TO.N,Net-(J2-Pad2)*
X115380000Y-104267000D03*
G04 #@! TO.P,J2,5*
G04 #@! TO.N,Net-(J2-Pad5)*
X112840000Y-101727000D03*
G04 #@! TO.P,J2,6*
G04 #@! TO.N,Net-(J2-Pad2)*
X112840000Y-104267000D03*
G04 #@! TO.P,J2,7*
G04 #@! TO.N,Net-(J2-Pad7)*
X110300000Y-101727000D03*
G04 #@! TO.P,J2,8*
G04 #@! TO.N,Net-(J2-Pad2)*
X110300000Y-104267000D03*
G04 #@! TD*
D12*
G04 #@! TO.P,D3,1*
G04 #@! TO.N,Net-(D3-Pad1)*
X125870000Y-118540000D03*
D13*
G04 #@! TO.P,D3,2*
G04 #@! TO.N,Net-(D3-Pad2)*
X125870000Y-121080000D03*
G04 #@! TD*
D14*
G04 #@! TO.P,U2,1*
G04 #@! TO.N,VCC*
X139764000Y-97980500D03*
D15*
G04 #@! TO.P,U2,8*
G04 #@! TO.N,Net-(U2-Pad8)*
X147384000Y-113220500D03*
G04 #@! TO.P,U2,2*
G04 #@! TO.N,/D0*
X139764000Y-100520500D03*
G04 #@! TO.P,U2,9*
G04 #@! TO.N,/DA1*
X147384000Y-110680500D03*
G04 #@! TO.P,U2,3*
G04 #@! TO.N,Net-(U1-Pad1)*
X139764000Y-103060500D03*
G04 #@! TO.P,U2,10*
G04 #@! TO.N,VCC*
X147384000Y-108140500D03*
G04 #@! TO.P,U2,4*
G04 #@! TO.N,Net-(U2-Pad13)*
X139764000Y-105600500D03*
G04 #@! TO.P,U2,11*
G04 #@! TO.N,Net-(U1-Pad1)*
X147384000Y-105600500D03*
G04 #@! TO.P,U2,5*
G04 #@! TO.N,/DA0*
X139764000Y-108140500D03*
G04 #@! TO.P,U2,12*
G04 #@! TO.N,/D1*
X147384000Y-103060500D03*
G04 #@! TO.P,U2,6*
G04 #@! TO.N,Net-(U2-Pad6)*
X139764000Y-110680500D03*
G04 #@! TO.P,U2,13*
G04 #@! TO.N,Net-(U2-Pad13)*
X147384000Y-100520500D03*
G04 #@! TO.P,U2,7*
G04 #@! TO.N,GND*
X139764000Y-113220500D03*
G04 #@! TO.P,U2,14*
G04 #@! TO.N,VCC*
X147384000Y-97980500D03*
G04 #@! TD*
D16*
G04 #@! TO.P,R3,1*
G04 #@! TO.N,VCC*
X110109000Y-112586000D03*
D15*
G04 #@! TO.P,R3,2*
G04 #@! TO.N,Net-(D3-Pad2)*
X120269000Y-112586000D03*
G04 #@! TD*
D14*
G04 #@! TO.P,U7,1*
G04 #@! TO.N,/A14*
X180340000Y-80645000D03*
D15*
G04 #@! TO.P,U7,15*
G04 #@! TO.N,/D3*
X195580000Y-113665000D03*
G04 #@! TO.P,U7,2*
G04 #@! TO.N,/A12*
X180340000Y-83185000D03*
G04 #@! TO.P,U7,16*
G04 #@! TO.N,/D4*
X195580000Y-111125000D03*
G04 #@! TO.P,U7,3*
G04 #@! TO.N,/A7*
X180340000Y-85725000D03*
G04 #@! TO.P,U7,17*
G04 #@! TO.N,/D5*
X195580000Y-108585000D03*
G04 #@! TO.P,U7,4*
G04 #@! TO.N,/A6*
X180340000Y-88265000D03*
G04 #@! TO.P,U7,18*
G04 #@! TO.N,/D6*
X195580000Y-106045000D03*
G04 #@! TO.P,U7,5*
G04 #@! TO.N,/A5*
X180340000Y-90805000D03*
G04 #@! TO.P,U7,19*
G04 #@! TO.N,/D7*
X195580000Y-103505000D03*
G04 #@! TO.P,U7,6*
G04 #@! TO.N,/A4*
X180340000Y-93345000D03*
G04 #@! TO.P,U7,20*
G04 #@! TO.N,Net-(U1-Pad13)*
X195580000Y-100965000D03*
G04 #@! TO.P,U7,7*
G04 #@! TO.N,/A3*
X180340000Y-95885000D03*
G04 #@! TO.P,U7,21*
G04 #@! TO.N,/A10*
X195580000Y-98425000D03*
G04 #@! TO.P,U7,8*
G04 #@! TO.N,/A2*
X180340000Y-98425000D03*
G04 #@! TO.P,U7,22*
G04 #@! TO.N,~MEMRD*
X195580000Y-95885000D03*
G04 #@! TO.P,U7,9*
G04 #@! TO.N,/A1*
X180340000Y-100965000D03*
G04 #@! TO.P,U7,23*
G04 #@! TO.N,/A11*
X195580000Y-93345000D03*
G04 #@! TO.P,U7,10*
G04 #@! TO.N,/A0*
X180340000Y-103505000D03*
G04 #@! TO.P,U7,24*
G04 #@! TO.N,/A9*
X195580000Y-90805000D03*
G04 #@! TO.P,U7,11*
G04 #@! TO.N,/D0*
X180340000Y-106045000D03*
G04 #@! TO.P,U7,25*
G04 #@! TO.N,/A8*
X195580000Y-88265000D03*
G04 #@! TO.P,U7,12*
G04 #@! TO.N,/D1*
X180340000Y-108585000D03*
G04 #@! TO.P,U7,26*
G04 #@! TO.N,/A13*
X195580000Y-85725000D03*
G04 #@! TO.P,U7,13*
G04 #@! TO.N,/D2*
X180340000Y-111125000D03*
G04 #@! TO.P,U7,27*
G04 #@! TO.N,VCC*
X195580000Y-83185000D03*
G04 #@! TO.P,U7,14*
G04 #@! TO.N,GND*
X180340000Y-113665000D03*
G04 #@! TO.P,U7,28*
G04 #@! TO.N,VCC*
X195580000Y-80645000D03*
G04 #@! TD*
D17*
G04 #@! TO.P,J1,1*
G04 #@! TO.N,VCC*
X175260000Y-125095000D03*
D18*
G04 #@! TO.P,J1,2*
G04 #@! TO.N,GND*
X175260000Y-127635000D03*
G04 #@! TO.P,J1,3*
G04 #@! TO.N,VCC*
X172720000Y-125095000D03*
G04 #@! TO.P,J1,4*
G04 #@! TO.N,GND*
X172720000Y-127635000D03*
G04 #@! TO.P,J1,5*
G04 #@! TO.N,Net-(J1-Pad5)*
X170180000Y-125095000D03*
G04 #@! TO.P,J1,6*
G04 #@! TO.N,Net-(J1-Pad6)*
X170180000Y-127635000D03*
G04 #@! TO.P,J1,7*
G04 #@! TO.N,Net-(J1-Pad7)*
X167640000Y-125095000D03*
G04 #@! TO.P,J1,8*
G04 #@! TO.N,Net-(J1-Pad8)*
X167640000Y-127635000D03*
G04 #@! TO.P,J1,9*
G04 #@! TO.N,/D0*
X165100000Y-125095000D03*
G04 #@! TO.P,J1,10*
G04 #@! TO.N,/D1*
X165100000Y-127635000D03*
G04 #@! TO.P,J1,11*
G04 #@! TO.N,/D2*
X162560000Y-125095000D03*
G04 #@! TO.P,J1,12*
G04 #@! TO.N,/D3*
X162560000Y-127635000D03*
G04 #@! TO.P,J1,13*
G04 #@! TO.N,/D4*
X160020000Y-125095000D03*
G04 #@! TO.P,J1,14*
G04 #@! TO.N,/D5*
X160020000Y-127635000D03*
G04 #@! TO.P,J1,15*
G04 #@! TO.N,/D6*
X157480000Y-125095000D03*
G04 #@! TO.P,J1,16*
G04 #@! TO.N,/D7*
X157480000Y-127635000D03*
G04 #@! TO.P,J1,17*
G04 #@! TO.N,Net-(J1-Pad17)*
X154940000Y-125095000D03*
G04 #@! TO.P,J1,18*
G04 #@! TO.N,~MEMRD*
X154940000Y-127635000D03*
G04 #@! TO.P,J1,19*
G04 #@! TO.N,~IOWR*
X152400000Y-125095000D03*
G04 #@! TO.P,J1,20*
G04 #@! TO.N,~MEMWR*
X152400000Y-127635000D03*
G04 #@! TO.P,J1,21*
G04 #@! TO.N,RES*
X149860000Y-125095000D03*
G04 #@! TO.P,J1,22*
G04 #@! TO.N,Net-(J1-Pad22)*
X149860000Y-127635000D03*
G04 #@! TO.P,J1,23*
G04 #@! TO.N,Net-(J1-Pad23)*
X147320000Y-125095000D03*
G04 #@! TO.P,J1,24*
G04 #@! TO.N,Net-(J1-Pad24)*
X147320000Y-127635000D03*
G04 #@! TO.P,J1,25*
G04 #@! TO.N,/A0*
X144780000Y-125095000D03*
G04 #@! TO.P,J1,26*
G04 #@! TO.N,/A1*
X144780000Y-127635000D03*
G04 #@! TO.P,J1,27*
G04 #@! TO.N,/A2*
X142240000Y-125095000D03*
G04 #@! TO.P,J1,28*
G04 #@! TO.N,/A3*
X142240000Y-127635000D03*
G04 #@! TO.P,J1,29*
G04 #@! TO.N,/A4*
X139700000Y-125095000D03*
G04 #@! TO.P,J1,30*
G04 #@! TO.N,/A5*
X139700000Y-127635000D03*
G04 #@! TO.P,J1,31*
G04 #@! TO.N,/A6*
X137160000Y-125095000D03*
G04 #@! TO.P,J1,32*
G04 #@! TO.N,/A7*
X137160000Y-127635000D03*
G04 #@! TO.P,J1,33*
G04 #@! TO.N,/A8*
X134620000Y-125095000D03*
G04 #@! TO.P,J1,34*
G04 #@! TO.N,/A9*
X134620000Y-127635000D03*
G04 #@! TO.P,J1,35*
G04 #@! TO.N,/A10*
X132080000Y-125095000D03*
G04 #@! TO.P,J1,36*
G04 #@! TO.N,/A11*
X132080000Y-127635000D03*
G04 #@! TO.P,J1,37*
G04 #@! TO.N,/A12*
X129540000Y-125095000D03*
G04 #@! TO.P,J1,38*
G04 #@! TO.N,/A13*
X129540000Y-127635000D03*
G04 #@! TO.P,J1,39*
G04 #@! TO.N,/A14*
X127000000Y-125095000D03*
G04 #@! TO.P,J1,40*
G04 #@! TO.N,/A15*
X127000000Y-127635000D03*
G04 #@! TD*
D19*
G04 #@! TO.P,D1,1*
G04 #@! TO.N,Net-(D1-Pad1)*
X111920000Y-118600000D03*
D20*
G04 #@! TO.P,D1,2*
G04 #@! TO.N,Net-(D1-Pad2)*
X111920000Y-121140000D03*
G04 #@! TD*
D19*
G04 #@! TO.P,D2,1*
G04 #@! TO.N,Net-(D2-Pad1)*
X118370000Y-118680000D03*
D20*
G04 #@! TO.P,D2,2*
G04 #@! TO.N,Net-(D2-Pad2)*
X118370000Y-121220000D03*
G04 #@! TD*
D14*
G04 #@! TO.P,U1,1*
G04 #@! TO.N,Net-(U1-Pad1)*
X139890000Y-74295000D03*
D15*
G04 #@! TO.P,U1,8*
G04 #@! TO.N,Net-(U1-Pad8)*
X147510000Y-89535000D03*
G04 #@! TO.P,U1,2*
G04 #@! TO.N,~IOWR*
X139890000Y-76835000D03*
G04 #@! TO.P,U1,9*
G04 #@! TO.N,Net-(U1-Pad4)*
X147510000Y-86995000D03*
G04 #@! TO.P,U1,3*
G04 #@! TO.N,Net-(J2-Pad2)*
X139890000Y-79375000D03*
G04 #@! TO.P,U1,10*
G04 #@! TO.N,Net-(U1-Pad10)*
X147510000Y-84455000D03*
G04 #@! TO.P,U1,4*
G04 #@! TO.N,Net-(U1-Pad4)*
X139890000Y-81915000D03*
G04 #@! TO.P,U1,11*
G04 #@! TO.N,Net-(U1-Pad10)*
X147510000Y-81915000D03*
G04 #@! TO.P,U1,5*
G04 #@! TO.N,/DA0*
X139890000Y-84455000D03*
G04 #@! TO.P,U1,12*
G04 #@! TO.N,Net-(U1-Pad10)*
X147510000Y-79375000D03*
G04 #@! TO.P,U1,6*
G04 #@! TO.N,/DA1*
X139890000Y-86995000D03*
G04 #@! TO.P,U1,13*
G04 #@! TO.N,Net-(U1-Pad13)*
X147510000Y-76835000D03*
G04 #@! TO.P,U1,7*
G04 #@! TO.N,GND*
X139890000Y-89535000D03*
G04 #@! TO.P,U1,14*
G04 #@! TO.N,VCC*
X147510000Y-74295000D03*
G04 #@! TD*
D14*
G04 #@! TO.P,U3,1*
G04 #@! TO.N,GND*
X109230000Y-75410000D03*
D15*
G04 #@! TO.P,U3,9*
G04 #@! TO.N,Net-(U3-Pad9)*
X116850000Y-93190000D03*
G04 #@! TO.P,U3,2*
G04 #@! TO.N,/A6*
X109230000Y-77950000D03*
G04 #@! TO.P,U3,10*
G04 #@! TO.N,Net-(U3-Pad10)*
X116850000Y-90650000D03*
G04 #@! TO.P,U3,3*
G04 #@! TO.N,/A7*
X109230000Y-80490000D03*
G04 #@! TO.P,U3,11*
G04 #@! TO.N,Net-(U3-Pad11)*
X116850000Y-88110000D03*
G04 #@! TO.P,U3,4*
G04 #@! TO.N,Net-(J2-Pad1)*
X109230000Y-83030000D03*
G04 #@! TO.P,U3,12*
G04 #@! TO.N,Net-(U1-Pad8)*
X116850000Y-85570000D03*
G04 #@! TO.P,U3,5*
G04 #@! TO.N,Net-(J2-Pad3)*
X109230000Y-85570000D03*
G04 #@! TO.P,U3,13*
G04 #@! TO.N,/A15*
X116850000Y-83030000D03*
G04 #@! TO.P,U3,6*
G04 #@! TO.N,Net-(J2-Pad5)*
X109230000Y-88110000D03*
G04 #@! TO.P,U3,14*
G04 #@! TO.N,/A14*
X116850000Y-80490000D03*
G04 #@! TO.P,U3,7*
G04 #@! TO.N,Net-(J2-Pad7)*
X109230000Y-90650000D03*
G04 #@! TO.P,U3,15*
G04 #@! TO.N,GND*
X116850000Y-77950000D03*
G04 #@! TO.P,U3,8*
X109230000Y-93190000D03*
G04 #@! TO.P,U3,16*
G04 #@! TO.N,VCC*
X116850000Y-75410000D03*
G04 #@! TD*
D14*
G04 #@! TO.P,U4,1*
G04 #@! TO.N,/DA1*
X125158000Y-74358500D03*
D15*
G04 #@! TO.P,U4,8*
G04 #@! TO.N,Net-(D2-Pad1)*
X132778000Y-89598500D03*
G04 #@! TO.P,U4,2*
G04 #@! TO.N,Net-(U4-Pad2)*
X125158000Y-76898500D03*
G04 #@! TO.P,U4,9*
G04 #@! TO.N,/DA1*
X132778000Y-87058500D03*
G04 #@! TO.P,U4,3*
G04 #@! TO.N,Net-(U4-Pad3)*
X125158000Y-79438500D03*
G04 #@! TO.P,U4,10*
G04 #@! TO.N,Net-(D1-Pad1)*
X132778000Y-84518500D03*
G04 #@! TO.P,U4,4*
G04 #@! TO.N,/MEMA16*
X125158000Y-81978500D03*
G04 #@! TO.P,U4,11*
G04 #@! TO.N,/DA0*
X132778000Y-81978500D03*
G04 #@! TO.P,U4,5*
G04 #@! TO.N,RES*
X125158000Y-84518500D03*
G04 #@! TO.P,U4,12*
G04 #@! TO.N,Net-(D3-Pad1)*
X132778000Y-79438500D03*
G04 #@! TO.P,U4,6*
G04 #@! TO.N,Net-(U2-Pad13)*
X125158000Y-87058500D03*
G04 #@! TO.P,U4,13*
G04 #@! TO.N,Net-(U1-Pad4)*
X132778000Y-76898500D03*
G04 #@! TO.P,U4,7*
G04 #@! TO.N,GND*
X125158000Y-89598500D03*
G04 #@! TO.P,U4,14*
G04 #@! TO.N,VCC*
X132778000Y-74358500D03*
G04 #@! TD*
D14*
G04 #@! TO.P,U5,1*
G04 #@! TO.N,/DA0*
X124904000Y-98107500D03*
D15*
G04 #@! TO.P,U5,8*
G04 #@! TO.N,Net-(U5-Pad5)*
X132524000Y-113347500D03*
G04 #@! TO.P,U5,2*
G04 #@! TO.N,/A15*
X124904000Y-100647500D03*
G04 #@! TO.P,U5,9*
X132524000Y-110807500D03*
G04 #@! TO.P,U5,3*
G04 #@! TO.N,Net-(U5-Pad3)*
X124904000Y-103187500D03*
G04 #@! TO.P,U5,10*
G04 #@! TO.N,Net-(U4-Pad2)*
X132524000Y-108267500D03*
G04 #@! TO.P,U5,4*
G04 #@! TO.N,Net-(U5-Pad3)*
X124904000Y-105727500D03*
G04 #@! TO.P,U5,11*
G04 #@! TO.N,Net-(U4-Pad3)*
X132524000Y-105727500D03*
G04 #@! TO.P,U5,5*
G04 #@! TO.N,Net-(U5-Pad5)*
X124904000Y-108267500D03*
G04 #@! TO.P,U5,12*
G04 #@! TO.N,/DA1*
X132524000Y-103187500D03*
G04 #@! TO.P,U5,6*
G04 #@! TO.N,/MEMA15*
X124904000Y-110807500D03*
G04 #@! TO.P,U5,13*
G04 #@! TO.N,/A15*
X132524000Y-100647500D03*
G04 #@! TO.P,U5,7*
G04 #@! TO.N,GND*
X124904000Y-113347500D03*
G04 #@! TO.P,U5,14*
G04 #@! TO.N,VCC*
X132524000Y-98107500D03*
G04 #@! TD*
D14*
G04 #@! TO.P,U6,1*
G04 #@! TO.N,N/C*
X157480000Y-75565000D03*
D15*
G04 #@! TO.P,U6,17*
G04 #@! TO.N,/D3*
X172720000Y-113665000D03*
G04 #@! TO.P,U6,2*
G04 #@! TO.N,/MEMA16*
X157480000Y-78105000D03*
G04 #@! TO.P,U6,18*
G04 #@! TO.N,/D4*
X172720000Y-111125000D03*
G04 #@! TO.P,U6,3*
G04 #@! TO.N,/A14*
X157480000Y-80645000D03*
G04 #@! TO.P,U6,19*
G04 #@! TO.N,/D5*
X172720000Y-108585000D03*
G04 #@! TO.P,U6,4*
G04 #@! TO.N,/A12*
X157480000Y-83185000D03*
G04 #@! TO.P,U6,20*
G04 #@! TO.N,/D6*
X172720000Y-106045000D03*
G04 #@! TO.P,U6,5*
G04 #@! TO.N,/A7*
X157480000Y-85725000D03*
G04 #@! TO.P,U6,21*
G04 #@! TO.N,/D7*
X172720000Y-103505000D03*
G04 #@! TO.P,U6,6*
G04 #@! TO.N,/A6*
X157480000Y-88265000D03*
G04 #@! TO.P,U6,22*
G04 #@! TO.N,GND*
X172720000Y-100965000D03*
G04 #@! TO.P,U6,7*
G04 #@! TO.N,/A5*
X157480000Y-90805000D03*
G04 #@! TO.P,U6,23*
G04 #@! TO.N,/A10*
X172720000Y-98425000D03*
G04 #@! TO.P,U6,8*
G04 #@! TO.N,/A4*
X157480000Y-93345000D03*
G04 #@! TO.P,U6,24*
G04 #@! TO.N,~MEMRD*
X172720000Y-95885000D03*
G04 #@! TO.P,U6,9*
G04 #@! TO.N,/A3*
X157480000Y-95885000D03*
G04 #@! TO.P,U6,25*
G04 #@! TO.N,/A11*
X172720000Y-93345000D03*
G04 #@! TO.P,U6,10*
G04 #@! TO.N,/A2*
X157480000Y-98425000D03*
G04 #@! TO.P,U6,26*
G04 #@! TO.N,/A9*
X172720000Y-90805000D03*
G04 #@! TO.P,U6,11*
G04 #@! TO.N,/A1*
X157480000Y-100965000D03*
G04 #@! TO.P,U6,27*
G04 #@! TO.N,/A8*
X172720000Y-88265000D03*
G04 #@! TO.P,U6,12*
G04 #@! TO.N,/A0*
X157480000Y-103505000D03*
G04 #@! TO.P,U6,28*
G04 #@! TO.N,/A13*
X172720000Y-85725000D03*
G04 #@! TO.P,U6,13*
G04 #@! TO.N,/D0*
X157480000Y-106045000D03*
G04 #@! TO.P,U6,29*
G04 #@! TO.N,~MEMWR*
X172720000Y-83185000D03*
G04 #@! TO.P,U6,14*
G04 #@! TO.N,/D1*
X157480000Y-108585000D03*
G04 #@! TO.P,U6,30*
G04 #@! TO.N,Net-(U1-Pad13)*
X172720000Y-80645000D03*
G04 #@! TO.P,U6,15*
G04 #@! TO.N,/D2*
X157480000Y-111125000D03*
G04 #@! TO.P,U6,31*
G04 #@! TO.N,/MEMA15*
X172720000Y-78105000D03*
G04 #@! TO.P,U6,16*
G04 #@! TO.N,GND*
X157480000Y-113665000D03*
G04 #@! TO.P,U6,32*
G04 #@! TO.N,VCC*
X172720000Y-75565000D03*
G04 #@! TD*
D16*
G04 #@! TO.P,C1,1*
G04 #@! TO.N,VCC*
X147920000Y-70760000D03*
G04 #@! TO.P,C1,2*
G04 #@! TO.N,GND*
X145420000Y-70760000D03*
G04 #@! TD*
G04 #@! TO.P,C2,1*
G04 #@! TO.N,VCC*
X147828000Y-94551500D03*
G04 #@! TO.P,C2,2*
G04 #@! TO.N,GND*
X145328000Y-94551500D03*
G04 #@! TD*
G04 #@! TO.P,C3,1*
G04 #@! TO.N,VCC*
X117390000Y-72000000D03*
G04 #@! TO.P,C3,2*
G04 #@! TO.N,GND*
X114890000Y-72000000D03*
G04 #@! TD*
G04 #@! TO.P,C4,1*
G04 #@! TO.N,VCC*
X133096000Y-70548500D03*
G04 #@! TO.P,C4,2*
G04 #@! TO.N,GND*
X130596000Y-70548500D03*
G04 #@! TD*
G04 #@! TO.P,C5,1*
G04 #@! TO.N,VCC*
X133032000Y-94678500D03*
G04 #@! TO.P,C5,2*
G04 #@! TO.N,GND*
X130532000Y-94678500D03*
G04 #@! TD*
G04 #@! TO.P,C6,1*
G04 #@! TO.N,VCC*
X172720000Y-72390000D03*
G04 #@! TO.P,C6,2*
G04 #@! TO.N,GND*
X170220000Y-72390000D03*
G04 #@! TD*
G04 #@! TO.P,C7,1*
G04 #@! TO.N,VCC*
X195540000Y-77470000D03*
G04 #@! TO.P,C7,2*
G04 #@! TO.N,GND*
X193040000Y-77470000D03*
G04 #@! TD*
G04 #@! TO.P,R1,1*
G04 #@! TO.N,VCC*
X111760000Y-135255000D03*
D15*
G04 #@! TO.P,R1,2*
G04 #@! TO.N,Net-(D1-Pad2)*
X111760000Y-125095000D03*
G04 #@! TD*
D16*
G04 #@! TO.P,R2,1*
G04 #@! TO.N,VCC*
X118110000Y-135255000D03*
D15*
G04 #@! TO.P,R2,2*
G04 #@! TO.N,Net-(D2-Pad2)*
X118110000Y-125095000D03*
G04 #@! TD*
D14*
G04 #@! TO.P,C8,1*
G04 #@! TO.N,VCC*
X185890000Y-130420000D03*
D16*
G04 #@! TO.P,C8,2*
G04 #@! TO.N,GND*
X188390000Y-130420000D03*
G04 #@! TD*
D21*
G04 #@! TO.N,Net-(D1-Pad1)*
X123920400Y-94778300D03*
G04 #@! TO.N,Net-(D2-Pad1)*
X127192700Y-94946300D03*
G04 #@! TO.N,VCC*
X135763000Y-98044000D03*
X135763000Y-94742000D03*
G04 #@! TO.N,GND*
X167434500Y-100965000D03*
X116205000Y-108585000D03*
X128270000Y-88265000D03*
X175260000Y-120015000D03*
G04 #@! TO.N,~IOWR*
X139149100Y-117045300D03*
G04 #@! TO.N,Net-(U4-Pad2)*
X120953500Y-82120300D03*
G04 #@! TO.N,/MEMA15*
X127870200Y-96756000D03*
G04 #@! TD*
D22*
G04 #@! TO.N,Net-(D1-Pad1)*
X111920000Y-117294900D02*
X123108000Y-106106900D01*
X123108000Y-106106900D02*
X123108000Y-95590700D01*
X123108000Y-95590700D02*
X123920400Y-94778300D01*
X111920000Y-118600000D02*
X111920000Y-117294900D01*
G04 #@! TO.N,Net-(D2-Pad1)*
X118370000Y-118680000D02*
X118370000Y-111967600D01*
X118370000Y-111967600D02*
X123717900Y-106619700D01*
X123717900Y-106619700D02*
X123717900Y-102740400D01*
X123717900Y-102740400D02*
X124512700Y-101945600D01*
X124512700Y-101945600D02*
X125168900Y-101945600D01*
X125168900Y-101945600D02*
X126997400Y-100117100D01*
X126997400Y-100117100D02*
X126997400Y-95141600D01*
X126997400Y-95141600D02*
X127192700Y-94946300D01*
D23*
G04 #@! TO.N,VCC*
X147510000Y-74295000D02*
X148868100Y-75653100D01*
X148868100Y-75653100D02*
X148868100Y-93511400D01*
X148868100Y-93511400D02*
X147828000Y-94551500D01*
X147384000Y-96672200D02*
X147828000Y-96228200D01*
X147828000Y-96228200D02*
X147828000Y-94551500D01*
X147510000Y-74295000D02*
X147510000Y-72986700D01*
X147920000Y-70760000D02*
X147920000Y-72576700D01*
X147920000Y-72576700D02*
X147510000Y-72986700D01*
X111760000Y-135255000D02*
X110109000Y-133604000D01*
X110109000Y-133604000D02*
X110109000Y-112586000D01*
X132778000Y-74358500D02*
X132778000Y-73050200D01*
X132778000Y-73050200D02*
X133096000Y-72732200D01*
X133096000Y-72732200D02*
X133096000Y-70548500D01*
X116850000Y-75410000D02*
X116850000Y-74101700D01*
X116850000Y-74101700D02*
X117390000Y-73561700D01*
X117390000Y-73561700D02*
X117390000Y-72000000D01*
X172720000Y-75565000D02*
X172720000Y-72390000D01*
X147384000Y-97980500D02*
X147384000Y-96672200D01*
X132524000Y-98107500D02*
X132524000Y-96799200D01*
X133032000Y-94678500D02*
X133032000Y-96291200D01*
X133032000Y-96291200D02*
X132524000Y-96799200D01*
X135763000Y-98044000D02*
X135763000Y-97415383D01*
X135763000Y-97415383D02*
X135763000Y-96520000D01*
X135763000Y-96520000D02*
X135763000Y-95631000D01*
X135763000Y-95631000D02*
X135763000Y-94742000D01*
X147384000Y-108140500D02*
X148717000Y-106807500D01*
X148717000Y-106807500D02*
X148717000Y-99313500D01*
X148717000Y-99313500D02*
X147384000Y-97980500D01*
G04 #@! TO.N,GND*
X157480000Y-113665000D02*
X167434500Y-103710500D01*
X167434500Y-103710500D02*
X167434500Y-100965000D01*
X125158000Y-89598500D02*
X126466300Y-89598500D01*
X126466300Y-89598500D02*
X126466300Y-90612800D01*
X126466300Y-90612800D02*
X130532000Y-94678500D01*
X118158300Y-77950000D02*
X122931000Y-82722700D01*
X122931000Y-82722700D02*
X122931000Y-87371500D01*
X122931000Y-87371500D02*
X125158000Y-89598500D01*
X110538300Y-75410000D02*
X110538300Y-91881700D01*
X110538300Y-91881700D02*
X109230000Y-93190000D01*
X114890000Y-75410000D02*
X110538300Y-75410000D01*
X130596000Y-70548500D02*
X125559800Y-70548500D01*
X125559800Y-70548500D02*
X118158300Y-77950000D01*
X114890000Y-75410000D02*
X114890000Y-75990000D01*
X114890000Y-75990000D02*
X116850000Y-77950000D01*
X114890000Y-72000000D02*
X114890000Y-75410000D01*
X109230000Y-75410000D02*
X110538300Y-75410000D01*
X116850000Y-77950000D02*
X118158300Y-77950000D01*
X180340000Y-122555000D02*
X175260000Y-127635000D01*
X180340000Y-114770000D02*
X180340000Y-122555000D01*
X188390000Y-130420000D02*
X180525000Y-122555000D01*
X180525000Y-122555000D02*
X180340000Y-122555000D01*
X180340000Y-113665000D02*
X180340000Y-114770000D01*
X172720000Y-100965000D02*
X177351000Y-105596000D01*
X177351000Y-105596000D02*
X177351000Y-110676000D01*
X177351000Y-110676000D02*
X180340000Y-113665000D01*
X139764000Y-113220500D02*
X145328000Y-107656500D01*
X145328000Y-107656500D02*
X145328000Y-94551500D01*
X141198300Y-89535000D02*
X141198300Y-90421800D01*
X141198300Y-90421800D02*
X145328000Y-94551500D01*
X139890000Y-89535000D02*
X141198300Y-89535000D01*
D22*
G04 #@! TO.N,/D0*
X165100000Y-125095000D02*
X165100000Y-123926300D01*
X180340000Y-106045000D02*
X179234900Y-106045000D01*
X179234900Y-106045000D02*
X179234900Y-105906900D01*
X179234900Y-105906900D02*
X173175200Y-99847200D01*
X173175200Y-99847200D02*
X172274800Y-99847200D01*
X172274800Y-99847200D02*
X171614900Y-100507100D01*
X171614900Y-100507100D02*
X171614900Y-103999300D01*
X171614900Y-103999300D02*
X172390600Y-104775000D01*
X172390600Y-104775000D02*
X173030700Y-104775000D01*
X173030700Y-104775000D02*
X173854600Y-105598900D01*
X173854600Y-105598900D02*
X173854600Y-115171700D01*
X173854600Y-115171700D02*
X165100000Y-123926300D01*
G04 #@! TO.N,/D3*
X162560000Y-127635000D02*
X162560000Y-126466300D01*
X172720000Y-113665000D02*
X172720000Y-114770100D01*
X172720000Y-114770100D02*
X163830000Y-123660100D01*
X163830000Y-123660100D02*
X163830000Y-125559500D01*
X163830000Y-125559500D02*
X162923200Y-126466300D01*
X162923200Y-126466300D02*
X162560000Y-126466300D01*
G04 #@! TO.N,/D4*
X160020000Y-125095000D02*
X160020000Y-123926300D01*
X172720000Y-111125000D02*
X172720000Y-112230100D01*
X172720000Y-112230100D02*
X171716200Y-112230100D01*
X171716200Y-112230100D02*
X160020000Y-123926300D01*
G04 #@! TO.N,/D5*
X160020000Y-127635000D02*
X160020000Y-126466300D01*
X172720000Y-108585000D02*
X172720000Y-109690100D01*
X172720000Y-109690100D02*
X172581900Y-109690100D01*
X172581900Y-109690100D02*
X158801300Y-123470700D01*
X158801300Y-123470700D02*
X158801300Y-125610800D01*
X158801300Y-125610800D02*
X159656800Y-126466300D01*
X159656800Y-126466300D02*
X160020000Y-126466300D01*
G04 #@! TO.N,/D6*
X172720000Y-106045000D02*
X172720000Y-107150100D01*
X172720000Y-107150100D02*
X172581900Y-107150100D01*
X172581900Y-107150100D02*
X157480000Y-122252000D01*
X157480000Y-122252000D02*
X157480000Y-125095000D01*
G04 #@! TO.N,/D7*
X157480000Y-127635000D02*
X158648700Y-127635000D01*
X172720000Y-103505000D02*
X174273300Y-105058300D01*
X174273300Y-105058300D02*
X174273300Y-115865000D01*
X174273300Y-115865000D02*
X166370000Y-123768300D01*
X166370000Y-123768300D02*
X166370000Y-125552900D01*
X166370000Y-125552900D02*
X165456700Y-126466200D01*
X165456700Y-126466200D02*
X164584200Y-126466200D01*
X164584200Y-126466200D02*
X163830000Y-127220400D01*
X163830000Y-127220400D02*
X163830000Y-128088300D01*
X163830000Y-128088300D02*
X163062300Y-128856000D01*
X163062300Y-128856000D02*
X159506500Y-128856000D01*
X159506500Y-128856000D02*
X158648700Y-127998200D01*
X158648700Y-127998200D02*
X158648700Y-127635000D01*
G04 #@! TO.N,~MEMRD*
X154940000Y-127635000D02*
X154940000Y-126466300D01*
X172720000Y-95885000D02*
X172720000Y-96990100D01*
X172720000Y-96990100D02*
X172581900Y-96990100D01*
X172581900Y-96990100D02*
X171208100Y-98363900D01*
X171208100Y-98363900D02*
X171208100Y-107935300D01*
X171208100Y-107935300D02*
X156210000Y-122933400D01*
X156210000Y-122933400D02*
X156210000Y-125559500D01*
X156210000Y-125559500D02*
X155303200Y-126466300D01*
X155303200Y-126466300D02*
X154940000Y-126466300D01*
G04 #@! TO.N,~IOWR*
X139890000Y-76835000D02*
X138784900Y-76835000D01*
X138784900Y-76835000D02*
X134911400Y-80708500D01*
X134911400Y-80708500D02*
X132437000Y-80708500D01*
X132437000Y-80708500D02*
X131648800Y-81496700D01*
X131648800Y-81496700D02*
X131648800Y-82468200D01*
X131648800Y-82468200D02*
X132429100Y-83248500D01*
X132429100Y-83248500D02*
X133156200Y-83248500D01*
X133156200Y-83248500D02*
X137697300Y-87789600D01*
X137697300Y-87789600D02*
X137697300Y-115593500D01*
X137697300Y-115593500D02*
X139149100Y-117045300D01*
G04 #@! TO.N,~MEMWR*
X172720000Y-84290100D02*
X172858100Y-84290100D01*
X172858100Y-84290100D02*
X173831700Y-85263700D01*
X173831700Y-85263700D02*
X173831700Y-91268600D01*
X173831700Y-91268600D02*
X173025300Y-92075000D01*
X173025300Y-92075000D02*
X172408200Y-92075000D01*
X172408200Y-92075000D02*
X168997300Y-95485900D01*
X168997300Y-95485900D02*
X168997300Y-105649900D01*
X168997300Y-105649900D02*
X151209400Y-123437800D01*
X151209400Y-123437800D02*
X151209400Y-125638900D01*
X151209400Y-125638900D02*
X152036800Y-126466300D01*
X152036800Y-126466300D02*
X152400000Y-126466300D01*
X152400000Y-127635000D02*
X152400000Y-126466300D01*
X172720000Y-83185000D02*
X172720000Y-84290100D01*
G04 #@! TO.N,/A0*
X144780000Y-123926300D02*
X155841800Y-112864500D01*
X155841800Y-112864500D02*
X155841800Y-106019300D01*
X155841800Y-106019300D02*
X157251000Y-104610100D01*
X157251000Y-104610100D02*
X157480000Y-104610100D01*
X157480000Y-103505000D02*
X157480000Y-104610100D01*
X144780000Y-125095000D02*
X144780000Y-123926300D01*
G04 #@! TO.N,/A1*
X144780000Y-127635000D02*
X144780000Y-126466300D01*
X157480000Y-100965000D02*
X157480000Y-102070100D01*
X157480000Y-102070100D02*
X157341900Y-102070100D01*
X157341900Y-102070100D02*
X155028300Y-104383700D01*
X155028300Y-104383700D02*
X155028300Y-112250000D01*
X155028300Y-112250000D02*
X143589400Y-123688900D01*
X143589400Y-123688900D02*
X143589400Y-125638900D01*
X143589400Y-125638900D02*
X144416800Y-126466300D01*
X144416800Y-126466300D02*
X144780000Y-126466300D01*
G04 #@! TO.N,/A2*
X157480000Y-99530100D02*
X157341900Y-99530100D01*
X157341900Y-99530100D02*
X154214900Y-102657100D01*
X154214900Y-102657100D02*
X154214900Y-111951400D01*
X154214900Y-111951400D02*
X142240000Y-123926300D01*
X142240000Y-125095000D02*
X142240000Y-123926300D01*
X157480000Y-98425000D02*
X157480000Y-99530100D01*
G04 #@! TO.N,/A3*
X157480000Y-96990100D02*
X157341900Y-96990100D01*
X157341900Y-96990100D02*
X152791700Y-101540300D01*
X152791700Y-101540300D02*
X152791700Y-112798600D01*
X152791700Y-112798600D02*
X141049400Y-124540900D01*
X141049400Y-124540900D02*
X141049400Y-125638900D01*
X141049400Y-125638900D02*
X141876800Y-126466300D01*
X141876800Y-126466300D02*
X142240000Y-126466300D01*
X142240000Y-127635000D02*
X142240000Y-126466300D01*
X157480000Y-95885000D02*
X157480000Y-96990100D01*
G04 #@! TO.N,/A4*
X139700000Y-125095000D02*
X139700000Y-123926300D01*
X139700000Y-123926300D02*
X152384800Y-111241500D01*
X152384800Y-111241500D02*
X152384800Y-99407200D01*
X152384800Y-99407200D02*
X157341900Y-94450100D01*
X157341900Y-94450100D02*
X157480000Y-94450100D01*
X157480000Y-93345000D02*
X157480000Y-94450100D01*
G04 #@! TO.N,/A5*
X139700000Y-126466300D02*
X139336800Y-126466300D01*
X139336800Y-126466300D02*
X138509400Y-125638900D01*
X138509400Y-125638900D02*
X138509400Y-124384800D01*
X138509400Y-124384800D02*
X151978000Y-110916200D01*
X151978000Y-110916200D02*
X151978000Y-97274000D01*
X151978000Y-97274000D02*
X157341900Y-91910100D01*
X157341900Y-91910100D02*
X157480000Y-91910100D01*
X139700000Y-127635000D02*
X139700000Y-126466300D01*
X157480000Y-90805000D02*
X157480000Y-91910100D01*
G04 #@! TO.N,/A6*
X137160000Y-123926300D02*
X138243100Y-123926300D01*
X138243100Y-123926300D02*
X151571200Y-110598200D01*
X151571200Y-110598200D02*
X151571200Y-95140800D01*
X151571200Y-95140800D02*
X157341900Y-89370100D01*
X157341900Y-89370100D02*
X157480000Y-89370100D01*
X137160000Y-125095000D02*
X137160000Y-123926300D01*
X157480000Y-88265000D02*
X157480000Y-89370100D01*
G04 #@! TO.N,/A7*
X137160000Y-127635000D02*
X137160000Y-126466300D01*
X157480000Y-85725000D02*
X157480000Y-86830100D01*
X157480000Y-86830100D02*
X157341900Y-86830100D01*
X157341900Y-86830100D02*
X150669000Y-93503000D01*
X150669000Y-93503000D02*
X150669000Y-108962000D01*
X150669000Y-108962000D02*
X147680500Y-111950500D01*
X147680500Y-111950500D02*
X147052500Y-111950500D01*
X147052500Y-111950500D02*
X135979300Y-123023700D01*
X135979300Y-123023700D02*
X135979300Y-125648800D01*
X135979300Y-125648800D02*
X136796800Y-126466300D01*
X136796800Y-126466300D02*
X137160000Y-126466300D01*
G04 #@! TO.N,/A8*
X134620000Y-125095000D02*
X134620000Y-126263700D01*
X172720000Y-88265000D02*
X172720000Y-89370100D01*
X172720000Y-89370100D02*
X172581900Y-89370100D01*
X172581900Y-89370100D02*
X165758700Y-96193300D01*
X165758700Y-96193300D02*
X165758700Y-104437500D01*
X165758700Y-104437500D02*
X157801200Y-112395000D01*
X157801200Y-112395000D02*
X157164200Y-112395000D01*
X157164200Y-112395000D02*
X146050000Y-123509200D01*
X146050000Y-123509200D02*
X146050000Y-128059300D01*
X146050000Y-128059300D02*
X145263900Y-128845400D01*
X145263900Y-128845400D02*
X136660300Y-128845400D01*
X136660300Y-128845400D02*
X135890000Y-128075100D01*
X135890000Y-128075100D02*
X135890000Y-127170500D01*
X135890000Y-127170500D02*
X134983200Y-126263700D01*
X134983200Y-126263700D02*
X134620000Y-126263700D01*
G04 #@! TO.N,/A9*
X172720000Y-90805000D02*
X168461400Y-95063600D01*
X168461400Y-95063600D02*
X168461400Y-104256200D01*
X168461400Y-104256200D02*
X148590000Y-124127600D01*
X148590000Y-124127600D02*
X148590000Y-128087500D01*
X148590000Y-128087500D02*
X147425300Y-129252200D01*
X147425300Y-129252200D02*
X136237200Y-129252200D01*
X136237200Y-129252200D02*
X134620000Y-127635000D01*
G04 #@! TO.N,/A11*
X132080000Y-127635000D02*
X133248700Y-127635000D01*
X172720000Y-93345000D02*
X172720000Y-94450100D01*
X172720000Y-94450100D02*
X172581900Y-94450100D01*
X172581900Y-94450100D02*
X170801300Y-96230700D01*
X170801300Y-96230700D02*
X170801300Y-105797500D01*
X170801300Y-105797500D02*
X153670000Y-122928800D01*
X153670000Y-122928800D02*
X153670000Y-128025500D01*
X153670000Y-128025500D02*
X152035200Y-129660300D01*
X152035200Y-129660300D02*
X134910800Y-129660300D01*
X134910800Y-129660300D02*
X133248700Y-127998200D01*
X133248700Y-127998200D02*
X133248700Y-127635000D01*
G04 #@! TO.N,/A12*
X130708700Y-125095000D02*
X130708700Y-124778000D01*
X130708700Y-124778000D02*
X137644000Y-117842700D01*
X137644000Y-117842700D02*
X139459700Y-117842700D01*
X139459700Y-117842700D02*
X139898700Y-117403700D01*
X139898700Y-117403700D02*
X139898700Y-116601900D01*
X139898700Y-116601900D02*
X147090100Y-109410500D01*
X147090100Y-109410500D02*
X147714300Y-109410500D01*
X147714300Y-109410500D02*
X149478900Y-107645900D01*
X149478900Y-107645900D02*
X149478900Y-92153100D01*
X149478900Y-92153100D02*
X157341900Y-84290100D01*
X157341900Y-84290100D02*
X157480000Y-84290100D01*
X129540000Y-125095000D02*
X130708700Y-125095000D01*
X157480000Y-83185000D02*
X157480000Y-84290100D01*
G04 #@! TO.N,/A14*
X180340000Y-80645000D02*
X179234900Y-80645000D01*
X157480000Y-80645000D02*
X158585100Y-80645000D01*
X158585100Y-80645000D02*
X159690200Y-79539900D01*
X159690200Y-79539900D02*
X178129800Y-79539900D01*
X178129800Y-79539900D02*
X179234900Y-80645000D01*
X127000000Y-125095000D02*
X127000000Y-123926300D01*
X116850000Y-80490000D02*
X116850000Y-81595100D01*
X116850000Y-81595100D02*
X116988100Y-81595100D01*
X116988100Y-81595100D02*
X119700000Y-84307000D01*
X119700000Y-84307000D02*
X119700000Y-86376000D01*
X119700000Y-86376000D02*
X128648400Y-95324400D01*
X128648400Y-95324400D02*
X128648400Y-111924500D01*
X128648400Y-111924500D02*
X127484200Y-113088700D01*
X127484200Y-113088700D02*
X127484200Y-123442100D01*
X127484200Y-123442100D02*
X127000000Y-123926300D01*
G04 #@! TO.N,/A15*
X124904000Y-99542400D02*
X124284200Y-99542400D01*
X124284200Y-99542400D02*
X123798800Y-99057000D01*
X123798800Y-99057000D02*
X123798800Y-95960100D01*
X123798800Y-95960100D02*
X124670000Y-95088900D01*
X124670000Y-95088900D02*
X124670000Y-94467800D01*
X124670000Y-94467800D02*
X117955100Y-87752900D01*
X117955100Y-87752900D02*
X117955100Y-85101900D01*
X117955100Y-85101900D02*
X116988300Y-84135100D01*
X116988300Y-84135100D02*
X116850000Y-84135100D01*
X127000000Y-126466300D02*
X127363200Y-126466300D01*
X127363200Y-126466300D02*
X128270000Y-125559500D01*
X128270000Y-125559500D02*
X128270000Y-114814100D01*
X128270000Y-114814100D02*
X132524000Y-110560100D01*
X124904000Y-100647500D02*
X124904000Y-99542400D01*
X116850000Y-83030000D02*
X116850000Y-84135100D01*
X127000000Y-127635000D02*
X127000000Y-126466300D01*
X132524000Y-110254900D02*
X132524000Y-109702400D01*
X132524000Y-110807500D02*
X132524000Y-110560100D01*
X132524000Y-110254900D02*
X132524000Y-110560100D01*
X132524000Y-100647500D02*
X131372300Y-101799200D01*
X131372300Y-101799200D02*
X131372300Y-103670500D01*
X131372300Y-103670500D02*
X132159300Y-104457500D01*
X132159300Y-104457500D02*
X132894300Y-104457500D01*
X132894300Y-104457500D02*
X133692700Y-105255900D01*
X133692700Y-105255900D02*
X133692700Y-108762700D01*
X133692700Y-108762700D02*
X132753000Y-109702400D01*
X132753000Y-109702400D02*
X132524000Y-109702400D01*
G04 #@! TO.N,Net-(U1-Pad1)*
X139764000Y-103060500D02*
X139764000Y-101955400D01*
X139890000Y-74295000D02*
X139890000Y-75400100D01*
X139890000Y-75400100D02*
X140028100Y-75400100D01*
X140028100Y-75400100D02*
X140998300Y-76370300D01*
X140998300Y-76370300D02*
X140998300Y-87452900D01*
X140998300Y-87452900D02*
X140023700Y-88427500D01*
X140023700Y-88427500D02*
X139426500Y-88427500D01*
X139426500Y-88427500D02*
X138612100Y-89241900D01*
X138612100Y-89241900D02*
X138612100Y-101032500D01*
X138612100Y-101032500D02*
X139535000Y-101955400D01*
X139535000Y-101955400D02*
X139764000Y-101955400D01*
G04 #@! TO.N,/DA1*
X132778000Y-88163600D02*
X132970300Y-88163600D01*
X132970300Y-88163600D02*
X134183100Y-89376400D01*
X134183100Y-89376400D02*
X134183100Y-100561400D01*
X134183100Y-100561400D02*
X132662100Y-102082400D01*
X132662100Y-102082400D02*
X132524000Y-102082400D01*
X132778000Y-87058500D02*
X132778000Y-88163600D01*
X132524000Y-103187500D02*
X132524000Y-102082400D01*
X132778000Y-85953400D02*
X132639700Y-85953400D01*
X132639700Y-85953400D02*
X127076500Y-80390200D01*
X127076500Y-80390200D02*
X127076500Y-77243800D01*
X127076500Y-77243800D02*
X125296300Y-75463600D01*
X125296300Y-75463600D02*
X125158000Y-75463600D01*
X125158000Y-74358500D02*
X125158000Y-75463600D01*
X132778000Y-87058500D02*
X132778000Y-85953400D01*
G04 #@! TO.N,/DA0*
X138453100Y-86548400D02*
X139441400Y-85560100D01*
X139441400Y-85560100D02*
X139890000Y-85560100D01*
X139764000Y-107035400D02*
X139625900Y-107035400D01*
X139625900Y-107035400D02*
X138189200Y-105598700D01*
X138189200Y-105598700D02*
X138189200Y-86812300D01*
X138189200Y-86812300D02*
X138453100Y-86548400D01*
X133883100Y-81978500D02*
X138453100Y-86548400D01*
X132778000Y-81978500D02*
X133883100Y-81978500D01*
X139890000Y-84455000D02*
X139890000Y-85560100D01*
X139764000Y-108140500D02*
X139764000Y-107035400D01*
G04 #@! TO.N,Net-(U4-Pad2)*
X132524000Y-107162400D02*
X132385900Y-107162400D01*
X132385900Y-107162400D02*
X129426800Y-104203300D01*
X129426800Y-104203300D02*
X129426800Y-95526600D01*
X129426800Y-95526600D02*
X120953500Y-87053300D01*
X120953500Y-87053300D02*
X120953500Y-82120300D01*
X132524000Y-108267500D02*
X132524000Y-107162400D01*
G04 #@! TO.N,Net-(U4-Pad3)*
X125158000Y-79438500D02*
X125158000Y-80543600D01*
X132524000Y-105727500D02*
X130915400Y-104118900D01*
X130915400Y-104118900D02*
X130915400Y-97545100D01*
X130915400Y-97545100D02*
X131672800Y-96787700D01*
X131672800Y-96787700D02*
X131672800Y-86829400D01*
X131672800Y-86829400D02*
X125387000Y-80543600D01*
X125387000Y-80543600D02*
X125158000Y-80543600D01*
G04 #@! TO.N,/MEMA16*
X157480000Y-78105000D02*
X156374900Y-78105000D01*
X156374900Y-78105000D02*
X156374900Y-77552500D01*
X156374900Y-77552500D02*
X148228000Y-69405600D01*
X148228000Y-69405600D02*
X132656600Y-69405600D01*
X132656600Y-69405600D02*
X131781700Y-70280500D01*
X131781700Y-70280500D02*
X131781700Y-70933600D01*
X131781700Y-70933600D02*
X129773500Y-72941800D01*
X129773500Y-72941800D02*
X124542400Y-72941800D01*
X124542400Y-72941800D02*
X124052600Y-73431600D01*
X124052600Y-73431600D02*
X124052600Y-80873100D01*
X124052600Y-80873100D02*
X125158000Y-81978500D01*
G04 #@! TO.N,Net-(U5-Pad3)*
X124904000Y-105727500D02*
X124904000Y-103187500D01*
G04 #@! TO.N,/MEMA15*
X124904000Y-109702400D02*
X125133000Y-109702400D01*
X125133000Y-109702400D02*
X127870200Y-106965200D01*
X127870200Y-106965200D02*
X127870200Y-96756000D01*
X124904000Y-110807500D02*
X124904000Y-109702400D01*
G04 #@! TO.N,Net-(D3-Pad2)*
X120269000Y-112586000D02*
X120269000Y-115479000D01*
X120269000Y-115479000D02*
X125870000Y-121080000D01*
G04 #@! TO.N,Net-(U1-Pad13)*
X173825100Y-80645000D02*
X173825100Y-80783100D01*
X173825100Y-80783100D02*
X180037000Y-86995000D01*
X180037000Y-86995000D02*
X180733900Y-86995000D01*
X180733900Y-86995000D02*
X194474900Y-100736000D01*
X194474900Y-100736000D02*
X194474900Y-100965000D01*
X195580000Y-100965000D02*
X194474900Y-100965000D01*
X172720000Y-80645000D02*
X173825100Y-80645000D01*
G04 #@! TO.N,Net-(U1-Pad10)*
X147510000Y-81915000D02*
X147510000Y-84455000D01*
X147510000Y-79375000D02*
X147510000Y-81915000D01*
G04 #@! TD*
D24*
G04 #@! TO.N,GND*
G36*
X199950001Y-137668000D02*
X102310000Y-137668000D01*
X102310000Y-133775431D01*
X104315000Y-133775431D01*
X104315000Y-134664569D01*
X104655259Y-135486026D01*
X105283974Y-136114741D01*
X106105431Y-136455000D01*
X106994569Y-136455000D01*
X107816026Y-136114741D01*
X108444741Y-135486026D01*
X108785000Y-134664569D01*
X108785000Y-133775431D01*
X108444741Y-132953974D01*
X107816026Y-132325259D01*
X106994569Y-131985000D01*
X106105431Y-131985000D01*
X105283974Y-132325259D01*
X104655259Y-132953974D01*
X104315000Y-133775431D01*
X102310000Y-133775431D01*
X102310000Y-112300561D01*
X108674000Y-112300561D01*
X108674000Y-112871439D01*
X108892466Y-113398862D01*
X109169201Y-113675597D01*
X109169200Y-133511446D01*
X109150790Y-133604000D01*
X109169200Y-133696554D01*
X109169200Y-133696558D01*
X109223728Y-133970690D01*
X109223729Y-133970691D01*
X109223729Y-133970692D01*
X109379012Y-134203089D01*
X109431443Y-134281557D01*
X109509910Y-134333988D01*
X110325000Y-135149078D01*
X110325000Y-135540439D01*
X110543466Y-136067862D01*
X110947138Y-136471534D01*
X111474561Y-136690000D01*
X112045439Y-136690000D01*
X112572862Y-136471534D01*
X112976534Y-136067862D01*
X113195000Y-135540439D01*
X113195000Y-134969561D01*
X116675000Y-134969561D01*
X116675000Y-135540439D01*
X116893466Y-136067862D01*
X117297138Y-136471534D01*
X117824561Y-136690000D01*
X118395439Y-136690000D01*
X118922862Y-136471534D01*
X119326534Y-136067862D01*
X119545000Y-135540439D01*
X119545000Y-134969561D01*
X119326534Y-134442138D01*
X118922862Y-134038466D01*
X118395439Y-133820000D01*
X117824561Y-133820000D01*
X117297138Y-134038466D01*
X116893466Y-134442138D01*
X116675000Y-134969561D01*
X113195000Y-134969561D01*
X112976534Y-134442138D01*
X112572862Y-134038466D01*
X112045439Y-133820000D01*
X111654078Y-133820000D01*
X111509509Y-133675431D01*
X193405000Y-133675431D01*
X193405000Y-134564569D01*
X193745259Y-135386026D01*
X194373974Y-136014741D01*
X195195431Y-136355000D01*
X196084569Y-136355000D01*
X196906026Y-136014741D01*
X197534741Y-135386026D01*
X197875000Y-134564569D01*
X197875000Y-133675431D01*
X197534741Y-132853974D01*
X196906026Y-132225259D01*
X196084569Y-131885000D01*
X195195431Y-131885000D01*
X194373974Y-132225259D01*
X193745259Y-132853974D01*
X193405000Y-133675431D01*
X111509509Y-133675431D01*
X111048800Y-133214723D01*
X111048800Y-126345651D01*
X111200091Y-126446740D01*
X111618667Y-126530000D01*
X111901333Y-126530000D01*
X112319909Y-126446740D01*
X112794577Y-126129577D01*
X113111740Y-125654909D01*
X113223113Y-125095000D01*
X116646887Y-125095000D01*
X116758260Y-125654909D01*
X117075423Y-126129577D01*
X117550091Y-126446740D01*
X117968667Y-126530000D01*
X118251333Y-126530000D01*
X118669909Y-126446740D01*
X119144577Y-126129577D01*
X119461740Y-125654909D01*
X119573113Y-125095000D01*
X119461740Y-124535091D01*
X119144577Y-124060423D01*
X118669909Y-123743260D01*
X118251333Y-123660000D01*
X117968667Y-123660000D01*
X117550091Y-123743260D01*
X117075423Y-124060423D01*
X116758260Y-124535091D01*
X116646887Y-125095000D01*
X113223113Y-125095000D01*
X113111740Y-124535091D01*
X112794577Y-124060423D01*
X112319909Y-123743260D01*
X111901333Y-123660000D01*
X111618667Y-123660000D01*
X111200091Y-123743260D01*
X111048800Y-123844349D01*
X111048800Y-122548848D01*
X111594778Y-122775000D01*
X112245222Y-122775000D01*
X112846153Y-122526086D01*
X113306086Y-122066153D01*
X113555000Y-121465222D01*
X113555000Y-120814778D01*
X113306086Y-120213847D01*
X113241277Y-120149038D01*
X113377809Y-120057809D01*
X113518157Y-119847765D01*
X113567440Y-119600000D01*
X113567440Y-117600000D01*
X113518157Y-117352235D01*
X113377809Y-117142191D01*
X113219918Y-117036691D01*
X117633401Y-112623208D01*
X117633400Y-117032560D01*
X117370000Y-117032560D01*
X117122235Y-117081843D01*
X116912191Y-117222191D01*
X116771843Y-117432235D01*
X116722560Y-117680000D01*
X116722560Y-119680000D01*
X116771843Y-119927765D01*
X116912191Y-120137809D01*
X117048723Y-120229038D01*
X116983914Y-120293847D01*
X116735000Y-120894778D01*
X116735000Y-121545222D01*
X116983914Y-122146153D01*
X117443847Y-122606086D01*
X118044778Y-122855000D01*
X118695222Y-122855000D01*
X119296153Y-122606086D01*
X119756086Y-122146153D01*
X120005000Y-121545222D01*
X120005000Y-120894778D01*
X119756086Y-120293847D01*
X119691277Y-120229038D01*
X119827809Y-120137809D01*
X119968157Y-119927765D01*
X120017440Y-119680000D01*
X120017440Y-117680000D01*
X119968157Y-117432235D01*
X119827809Y-117222191D01*
X119617765Y-117081843D01*
X119370000Y-117032560D01*
X119106600Y-117032560D01*
X119106600Y-113429276D01*
X119234423Y-113620577D01*
X119532400Y-113819679D01*
X119532401Y-115406455D01*
X119517971Y-115479000D01*
X119575139Y-115766406D01*
X119696849Y-115948558D01*
X119696852Y-115948561D01*
X119737943Y-116010058D01*
X119799440Y-116051149D01*
X124390052Y-120641762D01*
X124335000Y-120774670D01*
X124335000Y-121385330D01*
X124568690Y-121949507D01*
X125000493Y-122381310D01*
X125564670Y-122615000D01*
X126175330Y-122615000D01*
X126739507Y-122381310D01*
X126747601Y-122373216D01*
X126747601Y-123136989D01*
X126530440Y-123354151D01*
X126468943Y-123395242D01*
X126427852Y-123456739D01*
X126427849Y-123456742D01*
X126306139Y-123638894D01*
X126279212Y-123774264D01*
X125919570Y-124014570D01*
X125588350Y-124510275D01*
X125472041Y-125095000D01*
X125588350Y-125679725D01*
X125919570Y-126175430D01*
X126203281Y-126365000D01*
X125919570Y-126554570D01*
X125588350Y-127050275D01*
X125472041Y-127635000D01*
X125588350Y-128219725D01*
X125919570Y-128715430D01*
X126415275Y-129046650D01*
X126852402Y-129133600D01*
X127147598Y-129133600D01*
X127584725Y-129046650D01*
X128080430Y-128715430D01*
X128270000Y-128431719D01*
X128459570Y-128715430D01*
X128955275Y-129046650D01*
X129392402Y-129133600D01*
X129687598Y-129133600D01*
X130124725Y-129046650D01*
X130620430Y-128715430D01*
X130810000Y-128431719D01*
X130999570Y-128715430D01*
X131495275Y-129046650D01*
X131932402Y-129133600D01*
X132227598Y-129133600D01*
X132664725Y-129046650D01*
X133018833Y-128810042D01*
X134338649Y-130129858D01*
X134379742Y-130191358D01*
X134623393Y-130354161D01*
X134838256Y-130396900D01*
X134838259Y-130396900D01*
X134910799Y-130411329D01*
X134983340Y-130396900D01*
X151962660Y-130396900D01*
X152035200Y-130411329D01*
X152107740Y-130396900D01*
X152107744Y-130396900D01*
X152322607Y-130354161D01*
X152566258Y-130191358D01*
X152607351Y-130129858D01*
X153117209Y-129620000D01*
X184442560Y-129620000D01*
X184442560Y-131220000D01*
X184491843Y-131467765D01*
X184632191Y-131677809D01*
X184842235Y-131818157D01*
X185090000Y-131867440D01*
X186690000Y-131867440D01*
X186937765Y-131818157D01*
X187147809Y-131677809D01*
X187288157Y-131467765D01*
X187296117Y-131427745D01*
X187561861Y-131427745D01*
X187635995Y-131673864D01*
X188173223Y-131866965D01*
X188743454Y-131839778D01*
X189144005Y-131673864D01*
X189218139Y-131427745D01*
X188390000Y-130599605D01*
X187561861Y-131427745D01*
X187296117Y-131427745D01*
X187334693Y-131233813D01*
X187382255Y-131248139D01*
X188210395Y-130420000D01*
X188569605Y-130420000D01*
X189397745Y-131248139D01*
X189643864Y-131174005D01*
X189836965Y-130636777D01*
X189809778Y-130066546D01*
X189643864Y-129665995D01*
X189397745Y-129591861D01*
X188569605Y-130420000D01*
X188210395Y-130420000D01*
X187382255Y-129591861D01*
X187334693Y-129606187D01*
X187296118Y-129412255D01*
X187561861Y-129412255D01*
X188390000Y-130240395D01*
X189218139Y-129412255D01*
X189144005Y-129166136D01*
X188606777Y-128973035D01*
X188036546Y-129000222D01*
X187635995Y-129166136D01*
X187561861Y-129412255D01*
X187296118Y-129412255D01*
X187288157Y-129372235D01*
X187147809Y-129162191D01*
X186937765Y-129021843D01*
X186690000Y-128972560D01*
X185090000Y-128972560D01*
X184842235Y-129021843D01*
X184632191Y-129162191D01*
X184491843Y-129372235D01*
X184442560Y-129620000D01*
X153117209Y-129620000D01*
X153956807Y-128780402D01*
X154355275Y-129046650D01*
X154792402Y-129133600D01*
X155087598Y-129133600D01*
X155524725Y-129046650D01*
X156020430Y-128715430D01*
X156210000Y-128431719D01*
X156399570Y-128715430D01*
X156895275Y-129046650D01*
X157332402Y-129133600D01*
X157627598Y-129133600D01*
X158064725Y-129046650D01*
X158418833Y-128810042D01*
X158934349Y-129325558D01*
X158975442Y-129387058D01*
X159219093Y-129549861D01*
X159433956Y-129592600D01*
X159433960Y-129592600D01*
X159506499Y-129607029D01*
X159579038Y-129592600D01*
X162989760Y-129592600D01*
X163062300Y-129607029D01*
X163134840Y-129592600D01*
X163134844Y-129592600D01*
X163349707Y-129549861D01*
X163593358Y-129387058D01*
X163634451Y-129325558D01*
X164154453Y-128805556D01*
X164515275Y-129046650D01*
X164952402Y-129133600D01*
X165247598Y-129133600D01*
X165684725Y-129046650D01*
X166180430Y-128715430D01*
X166370000Y-128431719D01*
X166559570Y-128715430D01*
X167055275Y-129046650D01*
X167492402Y-129133600D01*
X167787598Y-129133600D01*
X168224725Y-129046650D01*
X168720430Y-128715430D01*
X168910000Y-128431719D01*
X169099570Y-128715430D01*
X169595275Y-129046650D01*
X170032402Y-129133600D01*
X170327598Y-129133600D01*
X170764725Y-129046650D01*
X171260430Y-128715430D01*
X171461854Y-128413979D01*
X171513179Y-128523490D01*
X171945053Y-128917688D01*
X172360974Y-129089958D01*
X172593000Y-128968817D01*
X172593000Y-127762000D01*
X172847000Y-127762000D01*
X172847000Y-128968817D01*
X173079026Y-129089958D01*
X173494947Y-128917688D01*
X173926821Y-128523490D01*
X173990000Y-128388687D01*
X174053179Y-128523490D01*
X174485053Y-128917688D01*
X174900974Y-129089958D01*
X175133000Y-128968817D01*
X175133000Y-127762000D01*
X175387000Y-127762000D01*
X175387000Y-128968817D01*
X175619026Y-129089958D01*
X176034947Y-128917688D01*
X176466821Y-128523490D01*
X176714968Y-127994027D01*
X176594469Y-127762000D01*
X175387000Y-127762000D01*
X175133000Y-127762000D01*
X172847000Y-127762000D01*
X172593000Y-127762000D01*
X172573000Y-127762000D01*
X172573000Y-127508000D01*
X172593000Y-127508000D01*
X172593000Y-127488000D01*
X172847000Y-127488000D01*
X172847000Y-127508000D01*
X175133000Y-127508000D01*
X175133000Y-127488000D01*
X175387000Y-127488000D01*
X175387000Y-127508000D01*
X176594469Y-127508000D01*
X176714968Y-127275973D01*
X176466821Y-126746510D01*
X176279050Y-126575119D01*
X176371365Y-126556757D01*
X176581409Y-126416409D01*
X176721757Y-126206365D01*
X176771040Y-125958600D01*
X176771040Y-124231400D01*
X176721757Y-123983635D01*
X176581409Y-123773591D01*
X176371365Y-123633243D01*
X176123600Y-123583960D01*
X174396400Y-123583960D01*
X174148635Y-123633243D01*
X173938591Y-123773591D01*
X173798243Y-123983635D01*
X173793068Y-124009651D01*
X173304725Y-123683350D01*
X172867598Y-123596400D01*
X172572402Y-123596400D01*
X172135275Y-123683350D01*
X171639570Y-124014570D01*
X171450000Y-124298281D01*
X171260430Y-124014570D01*
X170764725Y-123683350D01*
X170327598Y-123596400D01*
X170032402Y-123596400D01*
X169595275Y-123683350D01*
X169099570Y-124014570D01*
X168910000Y-124298281D01*
X168720430Y-124014570D01*
X168224725Y-123683350D01*
X167787598Y-123596400D01*
X167583609Y-123596400D01*
X174742861Y-116437149D01*
X174804358Y-116396058D01*
X174845449Y-116334561D01*
X174845451Y-116334559D01*
X174967161Y-116152407D01*
X174971589Y-116130144D01*
X175009900Y-115937544D01*
X175009900Y-115937541D01*
X175024329Y-115865001D01*
X175009900Y-115792460D01*
X175009900Y-114014039D01*
X178948096Y-114014039D01*
X179108959Y-114402423D01*
X179484866Y-114817389D01*
X179990959Y-115056914D01*
X180213000Y-114935629D01*
X180213000Y-113792000D01*
X180467000Y-113792000D01*
X180467000Y-114935629D01*
X180689041Y-115056914D01*
X181195134Y-114817389D01*
X181571041Y-114402423D01*
X181731904Y-114014039D01*
X181609915Y-113792000D01*
X180467000Y-113792000D01*
X180213000Y-113792000D01*
X179070085Y-113792000D01*
X178948096Y-114014039D01*
X175009900Y-114014039D01*
X175009900Y-105130840D01*
X175024329Y-105058300D01*
X175009900Y-104985757D01*
X175009900Y-104985756D01*
X174967161Y-104770893D01*
X174868008Y-104622500D01*
X174845451Y-104588741D01*
X174845449Y-104588739D01*
X174804358Y-104527242D01*
X174742861Y-104486151D01*
X174113198Y-103856488D01*
X174183113Y-103505000D01*
X174071740Y-102945091D01*
X173754577Y-102470423D01*
X173370892Y-102214053D01*
X173575134Y-102117389D01*
X173951041Y-101702423D01*
X173962075Y-101675784D01*
X178521756Y-106235466D01*
X178541039Y-106332407D01*
X178632000Y-106468539D01*
X178703842Y-106576058D01*
X178947493Y-106738861D01*
X179097732Y-106768746D01*
X179305423Y-107079577D01*
X179657758Y-107315000D01*
X179305423Y-107550423D01*
X178988260Y-108025091D01*
X178876887Y-108585000D01*
X178988260Y-109144909D01*
X179305423Y-109619577D01*
X179657758Y-109855000D01*
X179305423Y-110090423D01*
X178988260Y-110565091D01*
X178876887Y-111125000D01*
X178988260Y-111684909D01*
X179305423Y-112159577D01*
X179689108Y-112415947D01*
X179484866Y-112512611D01*
X179108959Y-112927577D01*
X178948096Y-113315961D01*
X179070085Y-113538000D01*
X180213000Y-113538000D01*
X180213000Y-113518000D01*
X180467000Y-113518000D01*
X180467000Y-113538000D01*
X181609915Y-113538000D01*
X181731904Y-113315961D01*
X181571041Y-112927577D01*
X181195134Y-112512611D01*
X180990892Y-112415947D01*
X181374577Y-112159577D01*
X181691740Y-111684909D01*
X181803113Y-111125000D01*
X181691740Y-110565091D01*
X181374577Y-110090423D01*
X181022242Y-109855000D01*
X181374577Y-109619577D01*
X181691740Y-109144909D01*
X181803113Y-108585000D01*
X181691740Y-108025091D01*
X181374577Y-107550423D01*
X181022242Y-107315000D01*
X181374577Y-107079577D01*
X181691740Y-106604909D01*
X181803113Y-106045000D01*
X181691740Y-105485091D01*
X181374577Y-105010423D01*
X181022242Y-104775000D01*
X181374577Y-104539577D01*
X181691740Y-104064909D01*
X181803113Y-103505000D01*
X181691740Y-102945091D01*
X181374577Y-102470423D01*
X181022242Y-102235000D01*
X181374577Y-101999577D01*
X181691740Y-101524909D01*
X181803113Y-100965000D01*
X181691740Y-100405091D01*
X181374577Y-99930423D01*
X181022242Y-99695000D01*
X181374577Y-99459577D01*
X181691740Y-98984909D01*
X181803113Y-98425000D01*
X181691740Y-97865091D01*
X181374577Y-97390423D01*
X181022242Y-97155000D01*
X181374577Y-96919577D01*
X181691740Y-96444909D01*
X181803113Y-95885000D01*
X181691740Y-95325091D01*
X181374577Y-94850423D01*
X181022242Y-94615000D01*
X181374577Y-94379577D01*
X181691740Y-93904909D01*
X181803113Y-93345000D01*
X181691740Y-92785091D01*
X181374577Y-92310423D01*
X181022242Y-92075000D01*
X181374577Y-91839577D01*
X181691740Y-91364909D01*
X181803113Y-90805000D01*
X181691740Y-90245091D01*
X181374577Y-89770423D01*
X181022242Y-89535000D01*
X181374577Y-89299577D01*
X181623792Y-88926601D01*
X193739185Y-101041995D01*
X193781039Y-101252407D01*
X193943842Y-101496058D01*
X194187493Y-101658861D01*
X194337732Y-101688745D01*
X194545423Y-101999577D01*
X194897758Y-102235000D01*
X194545423Y-102470423D01*
X194228260Y-102945091D01*
X194116887Y-103505000D01*
X194228260Y-104064909D01*
X194545423Y-104539577D01*
X194897758Y-104775000D01*
X194545423Y-105010423D01*
X194228260Y-105485091D01*
X194116887Y-106045000D01*
X194228260Y-106604909D01*
X194545423Y-107079577D01*
X194897758Y-107315000D01*
X194545423Y-107550423D01*
X194228260Y-108025091D01*
X194116887Y-108585000D01*
X194228260Y-109144909D01*
X194545423Y-109619577D01*
X194897758Y-109855000D01*
X194545423Y-110090423D01*
X194228260Y-110565091D01*
X194116887Y-111125000D01*
X194228260Y-111684909D01*
X194545423Y-112159577D01*
X194897758Y-112395000D01*
X194545423Y-112630423D01*
X194228260Y-113105091D01*
X194116887Y-113665000D01*
X194228260Y-114224909D01*
X194545423Y-114699577D01*
X195020091Y-115016740D01*
X195438667Y-115100000D01*
X195721333Y-115100000D01*
X196139909Y-115016740D01*
X196614577Y-114699577D01*
X196931740Y-114224909D01*
X197043113Y-113665000D01*
X196931740Y-113105091D01*
X196614577Y-112630423D01*
X196262242Y-112395000D01*
X196614577Y-112159577D01*
X196931740Y-111684909D01*
X197043113Y-111125000D01*
X196931740Y-110565091D01*
X196614577Y-110090423D01*
X196262242Y-109855000D01*
X196614577Y-109619577D01*
X196931740Y-109144909D01*
X197043113Y-108585000D01*
X196931740Y-108025091D01*
X196614577Y-107550423D01*
X196262242Y-107315000D01*
X196614577Y-107079577D01*
X196931740Y-106604909D01*
X197043113Y-106045000D01*
X196931740Y-105485091D01*
X196614577Y-105010423D01*
X196262242Y-104775000D01*
X196614577Y-104539577D01*
X196931740Y-104064909D01*
X197043113Y-103505000D01*
X196931740Y-102945091D01*
X196614577Y-102470423D01*
X196262242Y-102235000D01*
X196614577Y-101999577D01*
X196931740Y-101524909D01*
X197043113Y-100965000D01*
X196931740Y-100405091D01*
X196614577Y-99930423D01*
X196262242Y-99695000D01*
X196614577Y-99459577D01*
X196931740Y-98984909D01*
X197043113Y-98425000D01*
X196931740Y-97865091D01*
X196614577Y-97390423D01*
X196262242Y-97155000D01*
X196614577Y-96919577D01*
X196931740Y-96444909D01*
X197043113Y-95885000D01*
X196931740Y-95325091D01*
X196614577Y-94850423D01*
X196262242Y-94615000D01*
X196614577Y-94379577D01*
X196931740Y-93904909D01*
X197043113Y-93345000D01*
X196931740Y-92785091D01*
X196614577Y-92310423D01*
X196262242Y-92075000D01*
X196614577Y-91839577D01*
X196931740Y-91364909D01*
X197043113Y-90805000D01*
X196931740Y-90245091D01*
X196614577Y-89770423D01*
X196262242Y-89535000D01*
X196614577Y-89299577D01*
X196931740Y-88824909D01*
X197043113Y-88265000D01*
X196931740Y-87705091D01*
X196614577Y-87230423D01*
X196262242Y-86995000D01*
X196614577Y-86759577D01*
X196931740Y-86284909D01*
X197043113Y-85725000D01*
X196931740Y-85165091D01*
X196614577Y-84690423D01*
X196262242Y-84455000D01*
X196614577Y-84219577D01*
X196931740Y-83744909D01*
X197043113Y-83185000D01*
X196931740Y-82625091D01*
X196614577Y-82150423D01*
X196262242Y-81915000D01*
X196614577Y-81679577D01*
X196931740Y-81204909D01*
X197043113Y-80645000D01*
X196931740Y-80085091D01*
X196614577Y-79610423D01*
X196139909Y-79293260D01*
X195721333Y-79210000D01*
X195438667Y-79210000D01*
X195020091Y-79293260D01*
X194545423Y-79610423D01*
X194228260Y-80085091D01*
X194116887Y-80645000D01*
X194228260Y-81204909D01*
X194545423Y-81679577D01*
X194897758Y-81915000D01*
X194545423Y-82150423D01*
X194228260Y-82625091D01*
X194116887Y-83185000D01*
X194228260Y-83744909D01*
X194545423Y-84219577D01*
X194897758Y-84455000D01*
X194545423Y-84690423D01*
X194228260Y-85165091D01*
X194116887Y-85725000D01*
X194228260Y-86284909D01*
X194545423Y-86759577D01*
X194897758Y-86995000D01*
X194545423Y-87230423D01*
X194228260Y-87705091D01*
X194116887Y-88265000D01*
X194228260Y-88824909D01*
X194545423Y-89299577D01*
X194897758Y-89535000D01*
X194545423Y-89770423D01*
X194228260Y-90245091D01*
X194116887Y-90805000D01*
X194228260Y-91364909D01*
X194545423Y-91839577D01*
X194897758Y-92075000D01*
X194545423Y-92310423D01*
X194228260Y-92785091D01*
X194116887Y-93345000D01*
X194228260Y-93904909D01*
X194545423Y-94379577D01*
X194897758Y-94615000D01*
X194545423Y-94850423D01*
X194228260Y-95325091D01*
X194116887Y-95885000D01*
X194228260Y-96444909D01*
X194545423Y-96919577D01*
X194897758Y-97155000D01*
X194545423Y-97390423D01*
X194228260Y-97865091D01*
X194116887Y-98425000D01*
X194228260Y-98984909D01*
X194545423Y-99459577D01*
X194897758Y-99695000D01*
X194644699Y-99864089D01*
X181440911Y-86660302D01*
X181691740Y-86284909D01*
X181803113Y-85725000D01*
X181691740Y-85165091D01*
X181374577Y-84690423D01*
X181022242Y-84455000D01*
X181374577Y-84219577D01*
X181691740Y-83744909D01*
X181803113Y-83185000D01*
X181691740Y-82625091D01*
X181374577Y-82150423D01*
X181253894Y-82069785D01*
X181387765Y-82043157D01*
X181597809Y-81902809D01*
X181738157Y-81692765D01*
X181787440Y-81445000D01*
X181787440Y-79845000D01*
X181738157Y-79597235D01*
X181597809Y-79387191D01*
X181387765Y-79246843D01*
X181140000Y-79197560D01*
X179540000Y-79197560D01*
X179292235Y-79246843D01*
X179082191Y-79387191D01*
X179056800Y-79425191D01*
X178701951Y-79070342D01*
X178660858Y-79008842D01*
X178417207Y-78846039D01*
X178202344Y-78803300D01*
X178202340Y-78803300D01*
X178129800Y-78788871D01*
X178057260Y-78803300D01*
X173979270Y-78803300D01*
X174071740Y-78664909D01*
X174108969Y-78477745D01*
X192211861Y-78477745D01*
X192285995Y-78723864D01*
X192823223Y-78916965D01*
X193393454Y-78889778D01*
X193794005Y-78723864D01*
X193868139Y-78477745D01*
X193040000Y-77649605D01*
X192211861Y-78477745D01*
X174108969Y-78477745D01*
X174183113Y-78105000D01*
X174071740Y-77545091D01*
X173876721Y-77253223D01*
X191593035Y-77253223D01*
X191620222Y-77823454D01*
X191786136Y-78224005D01*
X192032255Y-78298139D01*
X192860395Y-77470000D01*
X193219605Y-77470000D01*
X194047745Y-78298139D01*
X194293864Y-78224005D01*
X194296290Y-78217254D01*
X194323466Y-78282862D01*
X194727138Y-78686534D01*
X195254561Y-78905000D01*
X195825439Y-78905000D01*
X196352862Y-78686534D01*
X196756534Y-78282862D01*
X196975000Y-77755439D01*
X196975000Y-77184561D01*
X196756534Y-76657138D01*
X196352862Y-76253466D01*
X195825439Y-76035000D01*
X195254561Y-76035000D01*
X194727138Y-76253466D01*
X194323466Y-76657138D01*
X194296475Y-76722299D01*
X194293864Y-76715995D01*
X194047745Y-76641861D01*
X193219605Y-77470000D01*
X192860395Y-77470000D01*
X192032255Y-76641861D01*
X191786136Y-76715995D01*
X191593035Y-77253223D01*
X173876721Y-77253223D01*
X173754577Y-77070423D01*
X173402242Y-76835000D01*
X173754577Y-76599577D01*
X173846332Y-76462255D01*
X192211861Y-76462255D01*
X193040000Y-77290395D01*
X193868139Y-76462255D01*
X193794005Y-76216136D01*
X193256777Y-76023035D01*
X192686546Y-76050222D01*
X192285995Y-76216136D01*
X192211861Y-76462255D01*
X173846332Y-76462255D01*
X174071740Y-76124909D01*
X174183113Y-75565000D01*
X174071740Y-75005091D01*
X173754577Y-74530423D01*
X173659800Y-74467095D01*
X173659800Y-73479596D01*
X173936534Y-73202862D01*
X174155000Y-72675439D01*
X174155000Y-72104561D01*
X173936534Y-71577138D01*
X173532862Y-71173466D01*
X173005439Y-70955000D01*
X172434561Y-70955000D01*
X171907138Y-71173466D01*
X171503466Y-71577138D01*
X171476475Y-71642299D01*
X171473864Y-71635995D01*
X171227745Y-71561861D01*
X170399605Y-72390000D01*
X171227745Y-73218139D01*
X171473864Y-73144005D01*
X171476290Y-73137254D01*
X171503466Y-73202862D01*
X171780201Y-73479597D01*
X171780200Y-74467095D01*
X171685423Y-74530423D01*
X171368260Y-75005091D01*
X171256887Y-75565000D01*
X171368260Y-76124909D01*
X171685423Y-76599577D01*
X172037758Y-76835000D01*
X171685423Y-77070423D01*
X171368260Y-77545091D01*
X171256887Y-78105000D01*
X171368260Y-78664909D01*
X171460730Y-78803300D01*
X159762738Y-78803300D01*
X159690199Y-78788871D01*
X159617660Y-78803300D01*
X159617656Y-78803300D01*
X159402793Y-78846039D01*
X159159142Y-79008842D01*
X159118049Y-79070342D01*
X158539968Y-79648423D01*
X158514577Y-79610423D01*
X158162242Y-79375000D01*
X158514577Y-79139577D01*
X158831740Y-78664909D01*
X158943113Y-78105000D01*
X158831740Y-77545091D01*
X158514577Y-77070423D01*
X158393894Y-76989785D01*
X158527765Y-76963157D01*
X158737809Y-76822809D01*
X158878157Y-76612765D01*
X158927440Y-76365000D01*
X158927440Y-74765000D01*
X158878157Y-74517235D01*
X158737809Y-74307191D01*
X158527765Y-74166843D01*
X158280000Y-74117560D01*
X156680000Y-74117560D01*
X156432235Y-74166843D01*
X156222191Y-74307191D01*
X156081843Y-74517235D01*
X156032560Y-74765000D01*
X156032560Y-76168451D01*
X153261854Y-73397745D01*
X169391861Y-73397745D01*
X169465995Y-73643864D01*
X170003223Y-73836965D01*
X170573454Y-73809778D01*
X170974005Y-73643864D01*
X171048139Y-73397745D01*
X170220000Y-72569605D01*
X169391861Y-73397745D01*
X153261854Y-73397745D01*
X152037332Y-72173223D01*
X168773035Y-72173223D01*
X168800222Y-72743454D01*
X168966136Y-73144005D01*
X169212255Y-73218139D01*
X170040395Y-72390000D01*
X169212255Y-71561861D01*
X168966136Y-71635995D01*
X168773035Y-72173223D01*
X152037332Y-72173223D01*
X151246364Y-71382255D01*
X169391861Y-71382255D01*
X170220000Y-72210395D01*
X171048139Y-71382255D01*
X170974005Y-71136136D01*
X170436777Y-70943035D01*
X169866546Y-70970222D01*
X169465995Y-71136136D01*
X169391861Y-71382255D01*
X151246364Y-71382255D01*
X148800151Y-68936042D01*
X148759058Y-68874542D01*
X148515407Y-68711739D01*
X148300544Y-68669000D01*
X148300540Y-68669000D01*
X148228000Y-68654571D01*
X148155460Y-68669000D01*
X132729138Y-68669000D01*
X132656599Y-68654571D01*
X132584060Y-68669000D01*
X132584056Y-68669000D01*
X132369193Y-68711739D01*
X132125542Y-68874542D01*
X132084449Y-68936042D01*
X131566814Y-69453678D01*
X131539014Y-69425878D01*
X131424139Y-69540753D01*
X131350005Y-69294636D01*
X130812777Y-69101535D01*
X130242546Y-69128722D01*
X129841995Y-69294636D01*
X129767861Y-69540755D01*
X130596000Y-70368895D01*
X130610142Y-70354752D01*
X130789748Y-70534358D01*
X130775605Y-70548500D01*
X130789748Y-70562642D01*
X130610143Y-70742248D01*
X130596000Y-70728105D01*
X129767861Y-71556245D01*
X129841995Y-71802364D01*
X129863498Y-71810093D01*
X129468391Y-72205200D01*
X124614940Y-72205200D01*
X124542400Y-72190771D01*
X124469859Y-72205200D01*
X124469856Y-72205200D01*
X124254993Y-72247939D01*
X124072841Y-72369649D01*
X124072839Y-72369651D01*
X124011342Y-72410742D01*
X123970250Y-72472240D01*
X123583042Y-72859449D01*
X123521542Y-72900542D01*
X123358739Y-73144194D01*
X123316000Y-73359057D01*
X123316000Y-73359060D01*
X123301571Y-73431600D01*
X123316000Y-73504140D01*
X123316001Y-80800555D01*
X123301571Y-80873100D01*
X123358739Y-81160506D01*
X123480449Y-81342658D01*
X123480452Y-81342661D01*
X123521543Y-81404158D01*
X123583040Y-81445249D01*
X123764802Y-81627012D01*
X123694887Y-81978500D01*
X123806260Y-82538409D01*
X124123423Y-83013077D01*
X124475758Y-83248500D01*
X124123423Y-83483923D01*
X123806260Y-83958591D01*
X123694887Y-84518500D01*
X123806260Y-85078409D01*
X124123423Y-85553077D01*
X124475758Y-85788500D01*
X124123423Y-86023923D01*
X123806260Y-86498591D01*
X123694887Y-87058500D01*
X123806260Y-87618409D01*
X124123423Y-88093077D01*
X124507108Y-88349447D01*
X124302866Y-88446111D01*
X123926959Y-88861077D01*
X123890650Y-88948741D01*
X121690100Y-86748191D01*
X121690100Y-82910344D01*
X121868656Y-82731788D01*
X122033000Y-82335026D01*
X122033000Y-81905574D01*
X121868656Y-81508812D01*
X121564988Y-81205144D01*
X121168226Y-81040800D01*
X120738774Y-81040800D01*
X120342012Y-81205144D01*
X120038344Y-81508812D01*
X119874000Y-81905574D01*
X119874000Y-82335026D01*
X120038344Y-82731788D01*
X120216901Y-82910345D01*
X120216901Y-83766482D01*
X120169561Y-83734851D01*
X117914501Y-81479792D01*
X118201740Y-81049909D01*
X118313113Y-80490000D01*
X118201740Y-79930091D01*
X117884577Y-79455423D01*
X117500892Y-79199053D01*
X117705134Y-79102389D01*
X118081041Y-78687423D01*
X118241904Y-78299039D01*
X118119915Y-78077000D01*
X116977000Y-78077000D01*
X116977000Y-78097000D01*
X116723000Y-78097000D01*
X116723000Y-78077000D01*
X115580085Y-78077000D01*
X115458096Y-78299039D01*
X115618959Y-78687423D01*
X115994866Y-79102389D01*
X116199108Y-79199053D01*
X115815423Y-79455423D01*
X115498260Y-79930091D01*
X115386887Y-80490000D01*
X115498260Y-81049909D01*
X115815423Y-81524577D01*
X116126254Y-81732268D01*
X116135993Y-81781225D01*
X115815423Y-81995423D01*
X115498260Y-82470091D01*
X115386887Y-83030000D01*
X115498260Y-83589909D01*
X115815423Y-84064577D01*
X116126254Y-84272268D01*
X116135993Y-84321225D01*
X115815423Y-84535423D01*
X115498260Y-85010091D01*
X115386887Y-85570000D01*
X115498260Y-86129909D01*
X115815423Y-86604577D01*
X116167758Y-86840000D01*
X115815423Y-87075423D01*
X115498260Y-87550091D01*
X115386887Y-88110000D01*
X115498260Y-88669909D01*
X115815423Y-89144577D01*
X116167758Y-89380000D01*
X115815423Y-89615423D01*
X115498260Y-90090091D01*
X115386887Y-90650000D01*
X115498260Y-91209909D01*
X115815423Y-91684577D01*
X116167758Y-91920000D01*
X115815423Y-92155423D01*
X115498260Y-92630091D01*
X115386887Y-93190000D01*
X115498260Y-93749909D01*
X115815423Y-94224577D01*
X116290091Y-94541740D01*
X116708667Y-94625000D01*
X116991333Y-94625000D01*
X117409909Y-94541740D01*
X117884577Y-94224577D01*
X118201740Y-93749909D01*
X118313113Y-93190000D01*
X118201740Y-92630091D01*
X117884577Y-92155423D01*
X117532242Y-91920000D01*
X117884577Y-91684577D01*
X118201740Y-91209909D01*
X118313113Y-90650000D01*
X118201740Y-90090091D01*
X117884577Y-89615423D01*
X117532242Y-89380000D01*
X117884577Y-89144577D01*
X118053002Y-88892511D01*
X123166273Y-94005783D01*
X123005244Y-94166812D01*
X122840900Y-94563574D01*
X122840900Y-94816091D01*
X122638440Y-95018551D01*
X122576943Y-95059642D01*
X122535852Y-95121139D01*
X122535849Y-95121142D01*
X122414139Y-95303294D01*
X122356971Y-95590700D01*
X122371401Y-95663245D01*
X122371400Y-105801791D01*
X111450440Y-116722751D01*
X111388943Y-116763842D01*
X111347852Y-116825339D01*
X111347849Y-116825342D01*
X111262845Y-116952560D01*
X111048800Y-116952560D01*
X111048800Y-113675596D01*
X111325534Y-113398862D01*
X111544000Y-112871439D01*
X111544000Y-112300561D01*
X111325534Y-111773138D01*
X110921862Y-111369466D01*
X110394439Y-111151000D01*
X109823561Y-111151000D01*
X109296138Y-111369466D01*
X108892466Y-111773138D01*
X108674000Y-112300561D01*
X102310000Y-112300561D01*
X102310000Y-101727000D01*
X108785908Y-101727000D01*
X108901161Y-102306418D01*
X109229375Y-102797625D01*
X109527761Y-102997000D01*
X109229375Y-103196375D01*
X108901161Y-103687582D01*
X108785908Y-104267000D01*
X108901161Y-104846418D01*
X109229375Y-105337625D01*
X109720582Y-105665839D01*
X110153744Y-105752000D01*
X110446256Y-105752000D01*
X110879418Y-105665839D01*
X111370625Y-105337625D01*
X111570000Y-105039239D01*
X111769375Y-105337625D01*
X112260582Y-105665839D01*
X112693744Y-105752000D01*
X112986256Y-105752000D01*
X113419418Y-105665839D01*
X113910625Y-105337625D01*
X114110000Y-105039239D01*
X114309375Y-105337625D01*
X114800582Y-105665839D01*
X115233744Y-105752000D01*
X115526256Y-105752000D01*
X115959418Y-105665839D01*
X116450625Y-105337625D01*
X116650000Y-105039239D01*
X116849375Y-105337625D01*
X117340582Y-105665839D01*
X117773744Y-105752000D01*
X118066256Y-105752000D01*
X118499418Y-105665839D01*
X118990625Y-105337625D01*
X119318839Y-104846418D01*
X119434092Y-104267000D01*
X119318839Y-103687582D01*
X118990625Y-103196375D01*
X118972381Y-103184184D01*
X119017765Y-103175157D01*
X119227809Y-103034809D01*
X119368157Y-102824765D01*
X119417440Y-102577000D01*
X119417440Y-100877000D01*
X119368157Y-100629235D01*
X119227809Y-100419191D01*
X119017765Y-100278843D01*
X118770000Y-100229560D01*
X117070000Y-100229560D01*
X116822235Y-100278843D01*
X116612191Y-100419191D01*
X116471843Y-100629235D01*
X116462816Y-100674619D01*
X116450625Y-100656375D01*
X115959418Y-100328161D01*
X115526256Y-100242000D01*
X115233744Y-100242000D01*
X114800582Y-100328161D01*
X114309375Y-100656375D01*
X114110000Y-100954761D01*
X113910625Y-100656375D01*
X113419418Y-100328161D01*
X112986256Y-100242000D01*
X112693744Y-100242000D01*
X112260582Y-100328161D01*
X111769375Y-100656375D01*
X111570000Y-100954761D01*
X111370625Y-100656375D01*
X110879418Y-100328161D01*
X110446256Y-100242000D01*
X110153744Y-100242000D01*
X109720582Y-100328161D01*
X109229375Y-100656375D01*
X108901161Y-101147582D01*
X108785908Y-101727000D01*
X102310000Y-101727000D01*
X102310000Y-93539039D01*
X107838096Y-93539039D01*
X107998959Y-93927423D01*
X108374866Y-94342389D01*
X108880959Y-94581914D01*
X109103000Y-94460629D01*
X109103000Y-93317000D01*
X109357000Y-93317000D01*
X109357000Y-94460629D01*
X109579041Y-94581914D01*
X110085134Y-94342389D01*
X110461041Y-93927423D01*
X110621904Y-93539039D01*
X110499915Y-93317000D01*
X109357000Y-93317000D01*
X109103000Y-93317000D01*
X107960085Y-93317000D01*
X107838096Y-93539039D01*
X102310000Y-93539039D01*
X102310000Y-77950000D01*
X107766887Y-77950000D01*
X107878260Y-78509909D01*
X108195423Y-78984577D01*
X108547758Y-79220000D01*
X108195423Y-79455423D01*
X107878260Y-79930091D01*
X107766887Y-80490000D01*
X107878260Y-81049909D01*
X108195423Y-81524577D01*
X108547758Y-81760000D01*
X108195423Y-81995423D01*
X107878260Y-82470091D01*
X107766887Y-83030000D01*
X107878260Y-83589909D01*
X108195423Y-84064577D01*
X108547758Y-84300000D01*
X108195423Y-84535423D01*
X107878260Y-85010091D01*
X107766887Y-85570000D01*
X107878260Y-86129909D01*
X108195423Y-86604577D01*
X108547758Y-86840000D01*
X108195423Y-87075423D01*
X107878260Y-87550091D01*
X107766887Y-88110000D01*
X107878260Y-88669909D01*
X108195423Y-89144577D01*
X108547758Y-89380000D01*
X108195423Y-89615423D01*
X107878260Y-90090091D01*
X107766887Y-90650000D01*
X107878260Y-91209909D01*
X108195423Y-91684577D01*
X108579108Y-91940947D01*
X108374866Y-92037611D01*
X107998959Y-92452577D01*
X107838096Y-92840961D01*
X107960085Y-93063000D01*
X109103000Y-93063000D01*
X109103000Y-93043000D01*
X109357000Y-93043000D01*
X109357000Y-93063000D01*
X110499915Y-93063000D01*
X110621904Y-92840961D01*
X110461041Y-92452577D01*
X110085134Y-92037611D01*
X109880892Y-91940947D01*
X110264577Y-91684577D01*
X110581740Y-91209909D01*
X110693113Y-90650000D01*
X110581740Y-90090091D01*
X110264577Y-89615423D01*
X109912242Y-89380000D01*
X110264577Y-89144577D01*
X110581740Y-88669909D01*
X110693113Y-88110000D01*
X110581740Y-87550091D01*
X110264577Y-87075423D01*
X109912242Y-86840000D01*
X110264577Y-86604577D01*
X110581740Y-86129909D01*
X110693113Y-85570000D01*
X110581740Y-85010091D01*
X110264577Y-84535423D01*
X109912242Y-84300000D01*
X110264577Y-84064577D01*
X110581740Y-83589909D01*
X110693113Y-83030000D01*
X110581740Y-82470091D01*
X110264577Y-81995423D01*
X109912242Y-81760000D01*
X110264577Y-81524577D01*
X110581740Y-81049909D01*
X110693113Y-80490000D01*
X110581740Y-79930091D01*
X110264577Y-79455423D01*
X109912242Y-79220000D01*
X110264577Y-78984577D01*
X110581740Y-78509909D01*
X110693113Y-77950000D01*
X110581740Y-77390091D01*
X110264577Y-76915423D01*
X110158082Y-76844265D01*
X110389698Y-76748327D01*
X110568327Y-76569699D01*
X110665000Y-76336310D01*
X110665000Y-75695750D01*
X110506250Y-75537000D01*
X109357000Y-75537000D01*
X109357000Y-75557000D01*
X109103000Y-75557000D01*
X109103000Y-75537000D01*
X107953750Y-75537000D01*
X107795000Y-75695750D01*
X107795000Y-76336310D01*
X107891673Y-76569699D01*
X108070302Y-76748327D01*
X108301918Y-76844265D01*
X108195423Y-76915423D01*
X107878260Y-77390091D01*
X107766887Y-77950000D01*
X102310000Y-77950000D01*
X102310000Y-74483690D01*
X107795000Y-74483690D01*
X107795000Y-75124250D01*
X107953750Y-75283000D01*
X109103000Y-75283000D01*
X109103000Y-74133750D01*
X109357000Y-74133750D01*
X109357000Y-75283000D01*
X110506250Y-75283000D01*
X110665000Y-75124250D01*
X110665000Y-74483690D01*
X110568327Y-74250301D01*
X110389698Y-74071673D01*
X110156309Y-73975000D01*
X109515750Y-73975000D01*
X109357000Y-74133750D01*
X109103000Y-74133750D01*
X108944250Y-73975000D01*
X108303691Y-73975000D01*
X108070302Y-74071673D01*
X107891673Y-74250301D01*
X107795000Y-74483690D01*
X102310000Y-74483690D01*
X102310000Y-73007745D01*
X114061861Y-73007745D01*
X114135995Y-73253864D01*
X114673223Y-73446965D01*
X115243454Y-73419778D01*
X115644005Y-73253864D01*
X115718139Y-73007745D01*
X114890000Y-72179605D01*
X114061861Y-73007745D01*
X102310000Y-73007745D01*
X102310000Y-71783223D01*
X113443035Y-71783223D01*
X113470222Y-72353454D01*
X113636136Y-72754005D01*
X113882255Y-72828139D01*
X114710395Y-72000000D01*
X115069605Y-72000000D01*
X115897745Y-72828139D01*
X116143864Y-72754005D01*
X116146290Y-72747254D01*
X116173466Y-72812862D01*
X116450200Y-73089596D01*
X116450200Y-73172423D01*
X116250909Y-73371714D01*
X116172444Y-73424143D01*
X116120015Y-73502608D01*
X116120012Y-73502611D01*
X115964729Y-73735008D01*
X115891790Y-74101700D01*
X115910201Y-74194258D01*
X115910201Y-74312095D01*
X115815423Y-74375423D01*
X115498260Y-74850091D01*
X115386887Y-75410000D01*
X115498260Y-75969909D01*
X115815423Y-76444577D01*
X116199108Y-76700947D01*
X115994866Y-76797611D01*
X115618959Y-77212577D01*
X115458096Y-77600961D01*
X115580085Y-77823000D01*
X116723000Y-77823000D01*
X116723000Y-77803000D01*
X116977000Y-77803000D01*
X116977000Y-77823000D01*
X118119915Y-77823000D01*
X118241904Y-77600961D01*
X118081041Y-77212577D01*
X117705134Y-76797611D01*
X117500892Y-76700947D01*
X117884577Y-76444577D01*
X118201740Y-75969909D01*
X118313113Y-75410000D01*
X118201740Y-74850091D01*
X117892899Y-74387878D01*
X117989090Y-74291687D01*
X118067557Y-74239257D01*
X118244129Y-73975000D01*
X118275271Y-73928393D01*
X118275271Y-73928392D01*
X118275272Y-73928391D01*
X118329800Y-73654259D01*
X118329800Y-73654255D01*
X118348210Y-73561701D01*
X118329800Y-73469147D01*
X118329800Y-73089596D01*
X118606534Y-72812862D01*
X118825000Y-72285439D01*
X118825000Y-71714561D01*
X118606534Y-71187138D01*
X118202862Y-70783466D01*
X117675439Y-70565000D01*
X117104561Y-70565000D01*
X116577138Y-70783466D01*
X116173466Y-71187138D01*
X116146475Y-71252299D01*
X116143864Y-71245995D01*
X115897745Y-71171861D01*
X115069605Y-72000000D01*
X114710395Y-72000000D01*
X113882255Y-71171861D01*
X113636136Y-71245995D01*
X113443035Y-71783223D01*
X102310000Y-71783223D01*
X102310000Y-70992255D01*
X114061861Y-70992255D01*
X114890000Y-71820395D01*
X115718139Y-70992255D01*
X115644005Y-70746136D01*
X115106777Y-70553035D01*
X114536546Y-70580222D01*
X114135995Y-70746136D01*
X114061861Y-70992255D01*
X102310000Y-70992255D01*
X102310000Y-67755431D01*
X104415000Y-67755431D01*
X104415000Y-68644569D01*
X104755259Y-69466026D01*
X105383974Y-70094741D01*
X106205431Y-70435000D01*
X107094569Y-70435000D01*
X107343901Y-70331723D01*
X129149035Y-70331723D01*
X129176222Y-70901954D01*
X129342136Y-71302505D01*
X129588255Y-71376639D01*
X130416395Y-70548500D01*
X129588255Y-69720361D01*
X129342136Y-69794495D01*
X129149035Y-70331723D01*
X107343901Y-70331723D01*
X107916026Y-70094741D01*
X108544741Y-69466026D01*
X108885000Y-68644569D01*
X108885000Y-67755431D01*
X108864290Y-67705431D01*
X193405000Y-67705431D01*
X193405000Y-68594569D01*
X193745259Y-69416026D01*
X194373974Y-70044741D01*
X195195431Y-70385000D01*
X196084569Y-70385000D01*
X196906026Y-70044741D01*
X197534741Y-69416026D01*
X197875000Y-68594569D01*
X197875000Y-67705431D01*
X197534741Y-66883974D01*
X196906026Y-66255259D01*
X196084569Y-65915000D01*
X195195431Y-65915000D01*
X194373974Y-66255259D01*
X193745259Y-66883974D01*
X193405000Y-67705431D01*
X108864290Y-67705431D01*
X108544741Y-66933974D01*
X107916026Y-66305259D01*
X107094569Y-65965000D01*
X106205431Y-65965000D01*
X105383974Y-66305259D01*
X104755259Y-66933974D01*
X104415000Y-67755431D01*
X102310000Y-67755431D01*
X102310000Y-64210000D01*
X199950000Y-64210000D01*
X199950001Y-137668000D01*
X199950001Y-137668000D01*
G37*
X199950001Y-137668000D02*
X102310000Y-137668000D01*
X102310000Y-133775431D01*
X104315000Y-133775431D01*
X104315000Y-134664569D01*
X104655259Y-135486026D01*
X105283974Y-136114741D01*
X106105431Y-136455000D01*
X106994569Y-136455000D01*
X107816026Y-136114741D01*
X108444741Y-135486026D01*
X108785000Y-134664569D01*
X108785000Y-133775431D01*
X108444741Y-132953974D01*
X107816026Y-132325259D01*
X106994569Y-131985000D01*
X106105431Y-131985000D01*
X105283974Y-132325259D01*
X104655259Y-132953974D01*
X104315000Y-133775431D01*
X102310000Y-133775431D01*
X102310000Y-112300561D01*
X108674000Y-112300561D01*
X108674000Y-112871439D01*
X108892466Y-113398862D01*
X109169201Y-113675597D01*
X109169200Y-133511446D01*
X109150790Y-133604000D01*
X109169200Y-133696554D01*
X109169200Y-133696558D01*
X109223728Y-133970690D01*
X109223729Y-133970691D01*
X109223729Y-133970692D01*
X109379012Y-134203089D01*
X109431443Y-134281557D01*
X109509910Y-134333988D01*
X110325000Y-135149078D01*
X110325000Y-135540439D01*
X110543466Y-136067862D01*
X110947138Y-136471534D01*
X111474561Y-136690000D01*
X112045439Y-136690000D01*
X112572862Y-136471534D01*
X112976534Y-136067862D01*
X113195000Y-135540439D01*
X113195000Y-134969561D01*
X116675000Y-134969561D01*
X116675000Y-135540439D01*
X116893466Y-136067862D01*
X117297138Y-136471534D01*
X117824561Y-136690000D01*
X118395439Y-136690000D01*
X118922862Y-136471534D01*
X119326534Y-136067862D01*
X119545000Y-135540439D01*
X119545000Y-134969561D01*
X119326534Y-134442138D01*
X118922862Y-134038466D01*
X118395439Y-133820000D01*
X117824561Y-133820000D01*
X117297138Y-134038466D01*
X116893466Y-134442138D01*
X116675000Y-134969561D01*
X113195000Y-134969561D01*
X112976534Y-134442138D01*
X112572862Y-134038466D01*
X112045439Y-133820000D01*
X111654078Y-133820000D01*
X111509509Y-133675431D01*
X193405000Y-133675431D01*
X193405000Y-134564569D01*
X193745259Y-135386026D01*
X194373974Y-136014741D01*
X195195431Y-136355000D01*
X196084569Y-136355000D01*
X196906026Y-136014741D01*
X197534741Y-135386026D01*
X197875000Y-134564569D01*
X197875000Y-133675431D01*
X197534741Y-132853974D01*
X196906026Y-132225259D01*
X196084569Y-131885000D01*
X195195431Y-131885000D01*
X194373974Y-132225259D01*
X193745259Y-132853974D01*
X193405000Y-133675431D01*
X111509509Y-133675431D01*
X111048800Y-133214723D01*
X111048800Y-126345651D01*
X111200091Y-126446740D01*
X111618667Y-126530000D01*
X111901333Y-126530000D01*
X112319909Y-126446740D01*
X112794577Y-126129577D01*
X113111740Y-125654909D01*
X113223113Y-125095000D01*
X116646887Y-125095000D01*
X116758260Y-125654909D01*
X117075423Y-126129577D01*
X117550091Y-126446740D01*
X117968667Y-126530000D01*
X118251333Y-126530000D01*
X118669909Y-126446740D01*
X119144577Y-126129577D01*
X119461740Y-125654909D01*
X119573113Y-125095000D01*
X119461740Y-124535091D01*
X119144577Y-124060423D01*
X118669909Y-123743260D01*
X118251333Y-123660000D01*
X117968667Y-123660000D01*
X117550091Y-123743260D01*
X117075423Y-124060423D01*
X116758260Y-124535091D01*
X116646887Y-125095000D01*
X113223113Y-125095000D01*
X113111740Y-124535091D01*
X112794577Y-124060423D01*
X112319909Y-123743260D01*
X111901333Y-123660000D01*
X111618667Y-123660000D01*
X111200091Y-123743260D01*
X111048800Y-123844349D01*
X111048800Y-122548848D01*
X111594778Y-122775000D01*
X112245222Y-122775000D01*
X112846153Y-122526086D01*
X113306086Y-122066153D01*
X113555000Y-121465222D01*
X113555000Y-120814778D01*
X113306086Y-120213847D01*
X113241277Y-120149038D01*
X113377809Y-120057809D01*
X113518157Y-119847765D01*
X113567440Y-119600000D01*
X113567440Y-117600000D01*
X113518157Y-117352235D01*
X113377809Y-117142191D01*
X113219918Y-117036691D01*
X117633401Y-112623208D01*
X117633400Y-117032560D01*
X117370000Y-117032560D01*
X117122235Y-117081843D01*
X116912191Y-117222191D01*
X116771843Y-117432235D01*
X116722560Y-117680000D01*
X116722560Y-119680000D01*
X116771843Y-119927765D01*
X116912191Y-120137809D01*
X117048723Y-120229038D01*
X116983914Y-120293847D01*
X116735000Y-120894778D01*
X116735000Y-121545222D01*
X116983914Y-122146153D01*
X117443847Y-122606086D01*
X118044778Y-122855000D01*
X118695222Y-122855000D01*
X119296153Y-122606086D01*
X119756086Y-122146153D01*
X120005000Y-121545222D01*
X120005000Y-120894778D01*
X119756086Y-120293847D01*
X119691277Y-120229038D01*
X119827809Y-120137809D01*
X119968157Y-119927765D01*
X120017440Y-119680000D01*
X120017440Y-117680000D01*
X119968157Y-117432235D01*
X119827809Y-117222191D01*
X119617765Y-117081843D01*
X119370000Y-117032560D01*
X119106600Y-117032560D01*
X119106600Y-113429276D01*
X119234423Y-113620577D01*
X119532400Y-113819679D01*
X119532401Y-115406455D01*
X119517971Y-115479000D01*
X119575139Y-115766406D01*
X119696849Y-115948558D01*
X119696852Y-115948561D01*
X119737943Y-116010058D01*
X119799440Y-116051149D01*
X124390052Y-120641762D01*
X124335000Y-120774670D01*
X124335000Y-121385330D01*
X124568690Y-121949507D01*
X125000493Y-122381310D01*
X125564670Y-122615000D01*
X126175330Y-122615000D01*
X126739507Y-122381310D01*
X126747601Y-122373216D01*
X126747601Y-123136989D01*
X126530440Y-123354151D01*
X126468943Y-123395242D01*
X126427852Y-123456739D01*
X126427849Y-123456742D01*
X126306139Y-123638894D01*
X126279212Y-123774264D01*
X125919570Y-124014570D01*
X125588350Y-124510275D01*
X125472041Y-125095000D01*
X125588350Y-125679725D01*
X125919570Y-126175430D01*
X126203281Y-126365000D01*
X125919570Y-126554570D01*
X125588350Y-127050275D01*
X125472041Y-127635000D01*
X125588350Y-128219725D01*
X125919570Y-128715430D01*
X126415275Y-129046650D01*
X126852402Y-129133600D01*
X127147598Y-129133600D01*
X127584725Y-129046650D01*
X128080430Y-128715430D01*
X128270000Y-128431719D01*
X128459570Y-128715430D01*
X128955275Y-129046650D01*
X129392402Y-129133600D01*
X129687598Y-129133600D01*
X130124725Y-129046650D01*
X130620430Y-128715430D01*
X130810000Y-128431719D01*
X130999570Y-128715430D01*
X131495275Y-129046650D01*
X131932402Y-129133600D01*
X132227598Y-129133600D01*
X132664725Y-129046650D01*
X133018833Y-128810042D01*
X134338649Y-130129858D01*
X134379742Y-130191358D01*
X134623393Y-130354161D01*
X134838256Y-130396900D01*
X134838259Y-130396900D01*
X134910799Y-130411329D01*
X134983340Y-130396900D01*
X151962660Y-130396900D01*
X152035200Y-130411329D01*
X152107740Y-130396900D01*
X152107744Y-130396900D01*
X152322607Y-130354161D01*
X152566258Y-130191358D01*
X152607351Y-130129858D01*
X153117209Y-129620000D01*
X184442560Y-129620000D01*
X184442560Y-131220000D01*
X184491843Y-131467765D01*
X184632191Y-131677809D01*
X184842235Y-131818157D01*
X185090000Y-131867440D01*
X186690000Y-131867440D01*
X186937765Y-131818157D01*
X187147809Y-131677809D01*
X187288157Y-131467765D01*
X187296117Y-131427745D01*
X187561861Y-131427745D01*
X187635995Y-131673864D01*
X188173223Y-131866965D01*
X188743454Y-131839778D01*
X189144005Y-131673864D01*
X189218139Y-131427745D01*
X188390000Y-130599605D01*
X187561861Y-131427745D01*
X187296117Y-131427745D01*
X187334693Y-131233813D01*
X187382255Y-131248139D01*
X188210395Y-130420000D01*
X188569605Y-130420000D01*
X189397745Y-131248139D01*
X189643864Y-131174005D01*
X189836965Y-130636777D01*
X189809778Y-130066546D01*
X189643864Y-129665995D01*
X189397745Y-129591861D01*
X188569605Y-130420000D01*
X188210395Y-130420000D01*
X187382255Y-129591861D01*
X187334693Y-129606187D01*
X187296118Y-129412255D01*
X187561861Y-129412255D01*
X188390000Y-130240395D01*
X189218139Y-129412255D01*
X189144005Y-129166136D01*
X188606777Y-128973035D01*
X188036546Y-129000222D01*
X187635995Y-129166136D01*
X187561861Y-129412255D01*
X187296118Y-129412255D01*
X187288157Y-129372235D01*
X187147809Y-129162191D01*
X186937765Y-129021843D01*
X186690000Y-128972560D01*
X185090000Y-128972560D01*
X184842235Y-129021843D01*
X184632191Y-129162191D01*
X184491843Y-129372235D01*
X184442560Y-129620000D01*
X153117209Y-129620000D01*
X153956807Y-128780402D01*
X154355275Y-129046650D01*
X154792402Y-129133600D01*
X155087598Y-129133600D01*
X155524725Y-129046650D01*
X156020430Y-128715430D01*
X156210000Y-128431719D01*
X156399570Y-128715430D01*
X156895275Y-129046650D01*
X157332402Y-129133600D01*
X157627598Y-129133600D01*
X158064725Y-129046650D01*
X158418833Y-128810042D01*
X158934349Y-129325558D01*
X158975442Y-129387058D01*
X159219093Y-129549861D01*
X159433956Y-129592600D01*
X159433960Y-129592600D01*
X159506499Y-129607029D01*
X159579038Y-129592600D01*
X162989760Y-129592600D01*
X163062300Y-129607029D01*
X163134840Y-129592600D01*
X163134844Y-129592600D01*
X163349707Y-129549861D01*
X163593358Y-129387058D01*
X163634451Y-129325558D01*
X164154453Y-128805556D01*
X164515275Y-129046650D01*
X164952402Y-129133600D01*
X165247598Y-129133600D01*
X165684725Y-129046650D01*
X166180430Y-128715430D01*
X166370000Y-128431719D01*
X166559570Y-128715430D01*
X167055275Y-129046650D01*
X167492402Y-129133600D01*
X167787598Y-129133600D01*
X168224725Y-129046650D01*
X168720430Y-128715430D01*
X168910000Y-128431719D01*
X169099570Y-128715430D01*
X169595275Y-129046650D01*
X170032402Y-129133600D01*
X170327598Y-129133600D01*
X170764725Y-129046650D01*
X171260430Y-128715430D01*
X171461854Y-128413979D01*
X171513179Y-128523490D01*
X171945053Y-128917688D01*
X172360974Y-129089958D01*
X172593000Y-128968817D01*
X172593000Y-127762000D01*
X172847000Y-127762000D01*
X172847000Y-128968817D01*
X173079026Y-129089958D01*
X173494947Y-128917688D01*
X173926821Y-128523490D01*
X173990000Y-128388687D01*
X174053179Y-128523490D01*
X174485053Y-128917688D01*
X174900974Y-129089958D01*
X175133000Y-128968817D01*
X175133000Y-127762000D01*
X175387000Y-127762000D01*
X175387000Y-128968817D01*
X175619026Y-129089958D01*
X176034947Y-128917688D01*
X176466821Y-128523490D01*
X176714968Y-127994027D01*
X176594469Y-127762000D01*
X175387000Y-127762000D01*
X175133000Y-127762000D01*
X172847000Y-127762000D01*
X172593000Y-127762000D01*
X172573000Y-127762000D01*
X172573000Y-127508000D01*
X172593000Y-127508000D01*
X172593000Y-127488000D01*
X172847000Y-127488000D01*
X172847000Y-127508000D01*
X175133000Y-127508000D01*
X175133000Y-127488000D01*
X175387000Y-127488000D01*
X175387000Y-127508000D01*
X176594469Y-127508000D01*
X176714968Y-127275973D01*
X176466821Y-126746510D01*
X176279050Y-126575119D01*
X176371365Y-126556757D01*
X176581409Y-126416409D01*
X176721757Y-126206365D01*
X176771040Y-125958600D01*
X176771040Y-124231400D01*
X176721757Y-123983635D01*
X176581409Y-123773591D01*
X176371365Y-123633243D01*
X176123600Y-123583960D01*
X174396400Y-123583960D01*
X174148635Y-123633243D01*
X173938591Y-123773591D01*
X173798243Y-123983635D01*
X173793068Y-124009651D01*
X173304725Y-123683350D01*
X172867598Y-123596400D01*
X172572402Y-123596400D01*
X172135275Y-123683350D01*
X171639570Y-124014570D01*
X171450000Y-124298281D01*
X171260430Y-124014570D01*
X170764725Y-123683350D01*
X170327598Y-123596400D01*
X170032402Y-123596400D01*
X169595275Y-123683350D01*
X169099570Y-124014570D01*
X168910000Y-124298281D01*
X168720430Y-124014570D01*
X168224725Y-123683350D01*
X167787598Y-123596400D01*
X167583609Y-123596400D01*
X174742861Y-116437149D01*
X174804358Y-116396058D01*
X174845449Y-116334561D01*
X174845451Y-116334559D01*
X174967161Y-116152407D01*
X174971589Y-116130144D01*
X175009900Y-115937544D01*
X175009900Y-115937541D01*
X175024329Y-115865001D01*
X175009900Y-115792460D01*
X175009900Y-114014039D01*
X178948096Y-114014039D01*
X179108959Y-114402423D01*
X179484866Y-114817389D01*
X179990959Y-115056914D01*
X180213000Y-114935629D01*
X180213000Y-113792000D01*
X180467000Y-113792000D01*
X180467000Y-114935629D01*
X180689041Y-115056914D01*
X181195134Y-114817389D01*
X181571041Y-114402423D01*
X181731904Y-114014039D01*
X181609915Y-113792000D01*
X180467000Y-113792000D01*
X180213000Y-113792000D01*
X179070085Y-113792000D01*
X178948096Y-114014039D01*
X175009900Y-114014039D01*
X175009900Y-105130840D01*
X175024329Y-105058300D01*
X175009900Y-104985757D01*
X175009900Y-104985756D01*
X174967161Y-104770893D01*
X174868008Y-104622500D01*
X174845451Y-104588741D01*
X174845449Y-104588739D01*
X174804358Y-104527242D01*
X174742861Y-104486151D01*
X174113198Y-103856488D01*
X174183113Y-103505000D01*
X174071740Y-102945091D01*
X173754577Y-102470423D01*
X173370892Y-102214053D01*
X173575134Y-102117389D01*
X173951041Y-101702423D01*
X173962075Y-101675784D01*
X178521756Y-106235466D01*
X178541039Y-106332407D01*
X178632000Y-106468539D01*
X178703842Y-106576058D01*
X178947493Y-106738861D01*
X179097732Y-106768746D01*
X179305423Y-107079577D01*
X179657758Y-107315000D01*
X179305423Y-107550423D01*
X178988260Y-108025091D01*
X178876887Y-108585000D01*
X178988260Y-109144909D01*
X179305423Y-109619577D01*
X179657758Y-109855000D01*
X179305423Y-110090423D01*
X178988260Y-110565091D01*
X178876887Y-111125000D01*
X178988260Y-111684909D01*
X179305423Y-112159577D01*
X179689108Y-112415947D01*
X179484866Y-112512611D01*
X179108959Y-112927577D01*
X178948096Y-113315961D01*
X179070085Y-113538000D01*
X180213000Y-113538000D01*
X180213000Y-113518000D01*
X180467000Y-113518000D01*
X180467000Y-113538000D01*
X181609915Y-113538000D01*
X181731904Y-113315961D01*
X181571041Y-112927577D01*
X181195134Y-112512611D01*
X180990892Y-112415947D01*
X181374577Y-112159577D01*
X181691740Y-111684909D01*
X181803113Y-111125000D01*
X181691740Y-110565091D01*
X181374577Y-110090423D01*
X181022242Y-109855000D01*
X181374577Y-109619577D01*
X181691740Y-109144909D01*
X181803113Y-108585000D01*
X181691740Y-108025091D01*
X181374577Y-107550423D01*
X181022242Y-107315000D01*
X181374577Y-107079577D01*
X181691740Y-106604909D01*
X181803113Y-106045000D01*
X181691740Y-105485091D01*
X181374577Y-105010423D01*
X181022242Y-104775000D01*
X181374577Y-104539577D01*
X181691740Y-104064909D01*
X181803113Y-103505000D01*
X181691740Y-102945091D01*
X181374577Y-102470423D01*
X181022242Y-102235000D01*
X181374577Y-101999577D01*
X181691740Y-101524909D01*
X181803113Y-100965000D01*
X181691740Y-100405091D01*
X181374577Y-99930423D01*
X181022242Y-99695000D01*
X181374577Y-99459577D01*
X181691740Y-98984909D01*
X181803113Y-98425000D01*
X181691740Y-97865091D01*
X181374577Y-97390423D01*
X181022242Y-97155000D01*
X181374577Y-96919577D01*
X181691740Y-96444909D01*
X181803113Y-95885000D01*
X181691740Y-95325091D01*
X181374577Y-94850423D01*
X181022242Y-94615000D01*
X181374577Y-94379577D01*
X181691740Y-93904909D01*
X181803113Y-93345000D01*
X181691740Y-92785091D01*
X181374577Y-92310423D01*
X181022242Y-92075000D01*
X181374577Y-91839577D01*
X181691740Y-91364909D01*
X181803113Y-90805000D01*
X181691740Y-90245091D01*
X181374577Y-89770423D01*
X181022242Y-89535000D01*
X181374577Y-89299577D01*
X181623792Y-88926601D01*
X193739185Y-101041995D01*
X193781039Y-101252407D01*
X193943842Y-101496058D01*
X194187493Y-101658861D01*
X194337732Y-101688745D01*
X194545423Y-101999577D01*
X194897758Y-102235000D01*
X194545423Y-102470423D01*
X194228260Y-102945091D01*
X194116887Y-103505000D01*
X194228260Y-104064909D01*
X194545423Y-104539577D01*
X194897758Y-104775000D01*
X194545423Y-105010423D01*
X194228260Y-105485091D01*
X194116887Y-106045000D01*
X194228260Y-106604909D01*
X194545423Y-107079577D01*
X194897758Y-107315000D01*
X194545423Y-107550423D01*
X194228260Y-108025091D01*
X194116887Y-108585000D01*
X194228260Y-109144909D01*
X194545423Y-109619577D01*
X194897758Y-109855000D01*
X194545423Y-110090423D01*
X194228260Y-110565091D01*
X194116887Y-111125000D01*
X194228260Y-111684909D01*
X194545423Y-112159577D01*
X194897758Y-112395000D01*
X194545423Y-112630423D01*
X194228260Y-113105091D01*
X194116887Y-113665000D01*
X194228260Y-114224909D01*
X194545423Y-114699577D01*
X195020091Y-115016740D01*
X195438667Y-115100000D01*
X195721333Y-115100000D01*
X196139909Y-115016740D01*
X196614577Y-114699577D01*
X196931740Y-114224909D01*
X197043113Y-113665000D01*
X196931740Y-113105091D01*
X196614577Y-112630423D01*
X196262242Y-112395000D01*
X196614577Y-112159577D01*
X196931740Y-111684909D01*
X197043113Y-111125000D01*
X196931740Y-110565091D01*
X196614577Y-110090423D01*
X196262242Y-109855000D01*
X196614577Y-109619577D01*
X196931740Y-109144909D01*
X197043113Y-108585000D01*
X196931740Y-108025091D01*
X196614577Y-107550423D01*
X196262242Y-107315000D01*
X196614577Y-107079577D01*
X196931740Y-106604909D01*
X197043113Y-106045000D01*
X196931740Y-105485091D01*
X196614577Y-105010423D01*
X196262242Y-104775000D01*
X196614577Y-104539577D01*
X196931740Y-104064909D01*
X197043113Y-103505000D01*
X196931740Y-102945091D01*
X196614577Y-102470423D01*
X196262242Y-102235000D01*
X196614577Y-101999577D01*
X196931740Y-101524909D01*
X197043113Y-100965000D01*
X196931740Y-100405091D01*
X196614577Y-99930423D01*
X196262242Y-99695000D01*
X196614577Y-99459577D01*
X196931740Y-98984909D01*
X197043113Y-98425000D01*
X196931740Y-97865091D01*
X196614577Y-97390423D01*
X196262242Y-97155000D01*
X196614577Y-96919577D01*
X196931740Y-96444909D01*
X197043113Y-95885000D01*
X196931740Y-95325091D01*
X196614577Y-94850423D01*
X196262242Y-94615000D01*
X196614577Y-94379577D01*
X196931740Y-93904909D01*
X197043113Y-93345000D01*
X196931740Y-92785091D01*
X196614577Y-92310423D01*
X196262242Y-92075000D01*
X196614577Y-91839577D01*
X196931740Y-91364909D01*
X197043113Y-90805000D01*
X196931740Y-90245091D01*
X196614577Y-89770423D01*
X196262242Y-89535000D01*
X196614577Y-89299577D01*
X196931740Y-88824909D01*
X197043113Y-88265000D01*
X196931740Y-87705091D01*
X196614577Y-87230423D01*
X196262242Y-86995000D01*
X196614577Y-86759577D01*
X196931740Y-86284909D01*
X197043113Y-85725000D01*
X196931740Y-85165091D01*
X196614577Y-84690423D01*
X196262242Y-84455000D01*
X196614577Y-84219577D01*
X196931740Y-83744909D01*
X197043113Y-83185000D01*
X196931740Y-82625091D01*
X196614577Y-82150423D01*
X196262242Y-81915000D01*
X196614577Y-81679577D01*
X196931740Y-81204909D01*
X197043113Y-80645000D01*
X196931740Y-80085091D01*
X196614577Y-79610423D01*
X196139909Y-79293260D01*
X195721333Y-79210000D01*
X195438667Y-79210000D01*
X195020091Y-79293260D01*
X194545423Y-79610423D01*
X194228260Y-80085091D01*
X194116887Y-80645000D01*
X194228260Y-81204909D01*
X194545423Y-81679577D01*
X194897758Y-81915000D01*
X194545423Y-82150423D01*
X194228260Y-82625091D01*
X194116887Y-83185000D01*
X194228260Y-83744909D01*
X194545423Y-84219577D01*
X194897758Y-84455000D01*
X194545423Y-84690423D01*
X194228260Y-85165091D01*
X194116887Y-85725000D01*
X194228260Y-86284909D01*
X194545423Y-86759577D01*
X194897758Y-86995000D01*
X194545423Y-87230423D01*
X194228260Y-87705091D01*
X194116887Y-88265000D01*
X194228260Y-88824909D01*
X194545423Y-89299577D01*
X194897758Y-89535000D01*
X194545423Y-89770423D01*
X194228260Y-90245091D01*
X194116887Y-90805000D01*
X194228260Y-91364909D01*
X194545423Y-91839577D01*
X194897758Y-92075000D01*
X194545423Y-92310423D01*
X194228260Y-92785091D01*
X194116887Y-93345000D01*
X194228260Y-93904909D01*
X194545423Y-94379577D01*
X194897758Y-94615000D01*
X194545423Y-94850423D01*
X194228260Y-95325091D01*
X194116887Y-95885000D01*
X194228260Y-96444909D01*
X194545423Y-96919577D01*
X194897758Y-97155000D01*
X194545423Y-97390423D01*
X194228260Y-97865091D01*
X194116887Y-98425000D01*
X194228260Y-98984909D01*
X194545423Y-99459577D01*
X194897758Y-99695000D01*
X194644699Y-99864089D01*
X181440911Y-86660302D01*
X181691740Y-86284909D01*
X181803113Y-85725000D01*
X181691740Y-85165091D01*
X181374577Y-84690423D01*
X181022242Y-84455000D01*
X181374577Y-84219577D01*
X181691740Y-83744909D01*
X181803113Y-83185000D01*
X181691740Y-82625091D01*
X181374577Y-82150423D01*
X181253894Y-82069785D01*
X181387765Y-82043157D01*
X181597809Y-81902809D01*
X181738157Y-81692765D01*
X181787440Y-81445000D01*
X181787440Y-79845000D01*
X181738157Y-79597235D01*
X181597809Y-79387191D01*
X181387765Y-79246843D01*
X181140000Y-79197560D01*
X179540000Y-79197560D01*
X179292235Y-79246843D01*
X179082191Y-79387191D01*
X179056800Y-79425191D01*
X178701951Y-79070342D01*
X178660858Y-79008842D01*
X178417207Y-78846039D01*
X178202344Y-78803300D01*
X178202340Y-78803300D01*
X178129800Y-78788871D01*
X178057260Y-78803300D01*
X173979270Y-78803300D01*
X174071740Y-78664909D01*
X174108969Y-78477745D01*
X192211861Y-78477745D01*
X192285995Y-78723864D01*
X192823223Y-78916965D01*
X193393454Y-78889778D01*
X193794005Y-78723864D01*
X193868139Y-78477745D01*
X193040000Y-77649605D01*
X192211861Y-78477745D01*
X174108969Y-78477745D01*
X174183113Y-78105000D01*
X174071740Y-77545091D01*
X173876721Y-77253223D01*
X191593035Y-77253223D01*
X191620222Y-77823454D01*
X191786136Y-78224005D01*
X192032255Y-78298139D01*
X192860395Y-77470000D01*
X193219605Y-77470000D01*
X194047745Y-78298139D01*
X194293864Y-78224005D01*
X194296290Y-78217254D01*
X194323466Y-78282862D01*
X194727138Y-78686534D01*
X195254561Y-78905000D01*
X195825439Y-78905000D01*
X196352862Y-78686534D01*
X196756534Y-78282862D01*
X196975000Y-77755439D01*
X196975000Y-77184561D01*
X196756534Y-76657138D01*
X196352862Y-76253466D01*
X195825439Y-76035000D01*
X195254561Y-76035000D01*
X194727138Y-76253466D01*
X194323466Y-76657138D01*
X194296475Y-76722299D01*
X194293864Y-76715995D01*
X194047745Y-76641861D01*
X193219605Y-77470000D01*
X192860395Y-77470000D01*
X192032255Y-76641861D01*
X191786136Y-76715995D01*
X191593035Y-77253223D01*
X173876721Y-77253223D01*
X173754577Y-77070423D01*
X173402242Y-76835000D01*
X173754577Y-76599577D01*
X173846332Y-76462255D01*
X192211861Y-76462255D01*
X193040000Y-77290395D01*
X193868139Y-76462255D01*
X193794005Y-76216136D01*
X193256777Y-76023035D01*
X192686546Y-76050222D01*
X192285995Y-76216136D01*
X192211861Y-76462255D01*
X173846332Y-76462255D01*
X174071740Y-76124909D01*
X174183113Y-75565000D01*
X174071740Y-75005091D01*
X173754577Y-74530423D01*
X173659800Y-74467095D01*
X173659800Y-73479596D01*
X173936534Y-73202862D01*
X174155000Y-72675439D01*
X174155000Y-72104561D01*
X173936534Y-71577138D01*
X173532862Y-71173466D01*
X173005439Y-70955000D01*
X172434561Y-70955000D01*
X171907138Y-71173466D01*
X171503466Y-71577138D01*
X171476475Y-71642299D01*
X171473864Y-71635995D01*
X171227745Y-71561861D01*
X170399605Y-72390000D01*
X171227745Y-73218139D01*
X171473864Y-73144005D01*
X171476290Y-73137254D01*
X171503466Y-73202862D01*
X171780201Y-73479597D01*
X171780200Y-74467095D01*
X171685423Y-74530423D01*
X171368260Y-75005091D01*
X171256887Y-75565000D01*
X171368260Y-76124909D01*
X171685423Y-76599577D01*
X172037758Y-76835000D01*
X171685423Y-77070423D01*
X171368260Y-77545091D01*
X171256887Y-78105000D01*
X171368260Y-78664909D01*
X171460730Y-78803300D01*
X159762738Y-78803300D01*
X159690199Y-78788871D01*
X159617660Y-78803300D01*
X159617656Y-78803300D01*
X159402793Y-78846039D01*
X159159142Y-79008842D01*
X159118049Y-79070342D01*
X158539968Y-79648423D01*
X158514577Y-79610423D01*
X158162242Y-79375000D01*
X158514577Y-79139577D01*
X158831740Y-78664909D01*
X158943113Y-78105000D01*
X158831740Y-77545091D01*
X158514577Y-77070423D01*
X158393894Y-76989785D01*
X158527765Y-76963157D01*
X158737809Y-76822809D01*
X158878157Y-76612765D01*
X158927440Y-76365000D01*
X158927440Y-74765000D01*
X158878157Y-74517235D01*
X158737809Y-74307191D01*
X158527765Y-74166843D01*
X158280000Y-74117560D01*
X156680000Y-74117560D01*
X156432235Y-74166843D01*
X156222191Y-74307191D01*
X156081843Y-74517235D01*
X156032560Y-74765000D01*
X156032560Y-76168451D01*
X153261854Y-73397745D01*
X169391861Y-73397745D01*
X169465995Y-73643864D01*
X170003223Y-73836965D01*
X170573454Y-73809778D01*
X170974005Y-73643864D01*
X171048139Y-73397745D01*
X170220000Y-72569605D01*
X169391861Y-73397745D01*
X153261854Y-73397745D01*
X152037332Y-72173223D01*
X168773035Y-72173223D01*
X168800222Y-72743454D01*
X168966136Y-73144005D01*
X169212255Y-73218139D01*
X170040395Y-72390000D01*
X169212255Y-71561861D01*
X168966136Y-71635995D01*
X168773035Y-72173223D01*
X152037332Y-72173223D01*
X151246364Y-71382255D01*
X169391861Y-71382255D01*
X170220000Y-72210395D01*
X171048139Y-71382255D01*
X170974005Y-71136136D01*
X170436777Y-70943035D01*
X169866546Y-70970222D01*
X169465995Y-71136136D01*
X169391861Y-71382255D01*
X151246364Y-71382255D01*
X148800151Y-68936042D01*
X148759058Y-68874542D01*
X148515407Y-68711739D01*
X148300544Y-68669000D01*
X148300540Y-68669000D01*
X148228000Y-68654571D01*
X148155460Y-68669000D01*
X132729138Y-68669000D01*
X132656599Y-68654571D01*
X132584060Y-68669000D01*
X132584056Y-68669000D01*
X132369193Y-68711739D01*
X132125542Y-68874542D01*
X132084449Y-68936042D01*
X131566814Y-69453678D01*
X131539014Y-69425878D01*
X131424139Y-69540753D01*
X131350005Y-69294636D01*
X130812777Y-69101535D01*
X130242546Y-69128722D01*
X129841995Y-69294636D01*
X129767861Y-69540755D01*
X130596000Y-70368895D01*
X130610142Y-70354752D01*
X130789748Y-70534358D01*
X130775605Y-70548500D01*
X130789748Y-70562642D01*
X130610143Y-70742248D01*
X130596000Y-70728105D01*
X129767861Y-71556245D01*
X129841995Y-71802364D01*
X129863498Y-71810093D01*
X129468391Y-72205200D01*
X124614940Y-72205200D01*
X124542400Y-72190771D01*
X124469859Y-72205200D01*
X124469856Y-72205200D01*
X124254993Y-72247939D01*
X124072841Y-72369649D01*
X124072839Y-72369651D01*
X124011342Y-72410742D01*
X123970250Y-72472240D01*
X123583042Y-72859449D01*
X123521542Y-72900542D01*
X123358739Y-73144194D01*
X123316000Y-73359057D01*
X123316000Y-73359060D01*
X123301571Y-73431600D01*
X123316000Y-73504140D01*
X123316001Y-80800555D01*
X123301571Y-80873100D01*
X123358739Y-81160506D01*
X123480449Y-81342658D01*
X123480452Y-81342661D01*
X123521543Y-81404158D01*
X123583040Y-81445249D01*
X123764802Y-81627012D01*
X123694887Y-81978500D01*
X123806260Y-82538409D01*
X124123423Y-83013077D01*
X124475758Y-83248500D01*
X124123423Y-83483923D01*
X123806260Y-83958591D01*
X123694887Y-84518500D01*
X123806260Y-85078409D01*
X124123423Y-85553077D01*
X124475758Y-85788500D01*
X124123423Y-86023923D01*
X123806260Y-86498591D01*
X123694887Y-87058500D01*
X123806260Y-87618409D01*
X124123423Y-88093077D01*
X124507108Y-88349447D01*
X124302866Y-88446111D01*
X123926959Y-88861077D01*
X123890650Y-88948741D01*
X121690100Y-86748191D01*
X121690100Y-82910344D01*
X121868656Y-82731788D01*
X122033000Y-82335026D01*
X122033000Y-81905574D01*
X121868656Y-81508812D01*
X121564988Y-81205144D01*
X121168226Y-81040800D01*
X120738774Y-81040800D01*
X120342012Y-81205144D01*
X120038344Y-81508812D01*
X119874000Y-81905574D01*
X119874000Y-82335026D01*
X120038344Y-82731788D01*
X120216901Y-82910345D01*
X120216901Y-83766482D01*
X120169561Y-83734851D01*
X117914501Y-81479792D01*
X118201740Y-81049909D01*
X118313113Y-80490000D01*
X118201740Y-79930091D01*
X117884577Y-79455423D01*
X117500892Y-79199053D01*
X117705134Y-79102389D01*
X118081041Y-78687423D01*
X118241904Y-78299039D01*
X118119915Y-78077000D01*
X116977000Y-78077000D01*
X116977000Y-78097000D01*
X116723000Y-78097000D01*
X116723000Y-78077000D01*
X115580085Y-78077000D01*
X115458096Y-78299039D01*
X115618959Y-78687423D01*
X115994866Y-79102389D01*
X116199108Y-79199053D01*
X115815423Y-79455423D01*
X115498260Y-79930091D01*
X115386887Y-80490000D01*
X115498260Y-81049909D01*
X115815423Y-81524577D01*
X116126254Y-81732268D01*
X116135993Y-81781225D01*
X115815423Y-81995423D01*
X115498260Y-82470091D01*
X115386887Y-83030000D01*
X115498260Y-83589909D01*
X115815423Y-84064577D01*
X116126254Y-84272268D01*
X116135993Y-84321225D01*
X115815423Y-84535423D01*
X115498260Y-85010091D01*
X115386887Y-85570000D01*
X115498260Y-86129909D01*
X115815423Y-86604577D01*
X116167758Y-86840000D01*
X115815423Y-87075423D01*
X115498260Y-87550091D01*
X115386887Y-88110000D01*
X115498260Y-88669909D01*
X115815423Y-89144577D01*
X116167758Y-89380000D01*
X115815423Y-89615423D01*
X115498260Y-90090091D01*
X115386887Y-90650000D01*
X115498260Y-91209909D01*
X115815423Y-91684577D01*
X116167758Y-91920000D01*
X115815423Y-92155423D01*
X115498260Y-92630091D01*
X115386887Y-93190000D01*
X115498260Y-93749909D01*
X115815423Y-94224577D01*
X116290091Y-94541740D01*
X116708667Y-94625000D01*
X116991333Y-94625000D01*
X117409909Y-94541740D01*
X117884577Y-94224577D01*
X118201740Y-93749909D01*
X118313113Y-93190000D01*
X118201740Y-92630091D01*
X117884577Y-92155423D01*
X117532242Y-91920000D01*
X117884577Y-91684577D01*
X118201740Y-91209909D01*
X118313113Y-90650000D01*
X118201740Y-90090091D01*
X117884577Y-89615423D01*
X117532242Y-89380000D01*
X117884577Y-89144577D01*
X118053002Y-88892511D01*
X123166273Y-94005783D01*
X123005244Y-94166812D01*
X122840900Y-94563574D01*
X122840900Y-94816091D01*
X122638440Y-95018551D01*
X122576943Y-95059642D01*
X122535852Y-95121139D01*
X122535849Y-95121142D01*
X122414139Y-95303294D01*
X122356971Y-95590700D01*
X122371401Y-95663245D01*
X122371400Y-105801791D01*
X111450440Y-116722751D01*
X111388943Y-116763842D01*
X111347852Y-116825339D01*
X111347849Y-116825342D01*
X111262845Y-116952560D01*
X111048800Y-116952560D01*
X111048800Y-113675596D01*
X111325534Y-113398862D01*
X111544000Y-112871439D01*
X111544000Y-112300561D01*
X111325534Y-111773138D01*
X110921862Y-111369466D01*
X110394439Y-111151000D01*
X109823561Y-111151000D01*
X109296138Y-111369466D01*
X108892466Y-111773138D01*
X108674000Y-112300561D01*
X102310000Y-112300561D01*
X102310000Y-101727000D01*
X108785908Y-101727000D01*
X108901161Y-102306418D01*
X109229375Y-102797625D01*
X109527761Y-102997000D01*
X109229375Y-103196375D01*
X108901161Y-103687582D01*
X108785908Y-104267000D01*
X108901161Y-104846418D01*
X109229375Y-105337625D01*
X109720582Y-105665839D01*
X110153744Y-105752000D01*
X110446256Y-105752000D01*
X110879418Y-105665839D01*
X111370625Y-105337625D01*
X111570000Y-105039239D01*
X111769375Y-105337625D01*
X112260582Y-105665839D01*
X112693744Y-105752000D01*
X112986256Y-105752000D01*
X113419418Y-105665839D01*
X113910625Y-105337625D01*
X114110000Y-105039239D01*
X114309375Y-105337625D01*
X114800582Y-105665839D01*
X115233744Y-105752000D01*
X115526256Y-105752000D01*
X115959418Y-105665839D01*
X116450625Y-105337625D01*
X116650000Y-105039239D01*
X116849375Y-105337625D01*
X117340582Y-105665839D01*
X117773744Y-105752000D01*
X118066256Y-105752000D01*
X118499418Y-105665839D01*
X118990625Y-105337625D01*
X119318839Y-104846418D01*
X119434092Y-104267000D01*
X119318839Y-103687582D01*
X118990625Y-103196375D01*
X118972381Y-103184184D01*
X119017765Y-103175157D01*
X119227809Y-103034809D01*
X119368157Y-102824765D01*
X119417440Y-102577000D01*
X119417440Y-100877000D01*
X119368157Y-100629235D01*
X119227809Y-100419191D01*
X119017765Y-100278843D01*
X118770000Y-100229560D01*
X117070000Y-100229560D01*
X116822235Y-100278843D01*
X116612191Y-100419191D01*
X116471843Y-100629235D01*
X116462816Y-100674619D01*
X116450625Y-100656375D01*
X115959418Y-100328161D01*
X115526256Y-100242000D01*
X115233744Y-100242000D01*
X114800582Y-100328161D01*
X114309375Y-100656375D01*
X114110000Y-100954761D01*
X113910625Y-100656375D01*
X113419418Y-100328161D01*
X112986256Y-100242000D01*
X112693744Y-100242000D01*
X112260582Y-100328161D01*
X111769375Y-100656375D01*
X111570000Y-100954761D01*
X111370625Y-100656375D01*
X110879418Y-100328161D01*
X110446256Y-100242000D01*
X110153744Y-100242000D01*
X109720582Y-100328161D01*
X109229375Y-100656375D01*
X108901161Y-101147582D01*
X108785908Y-101727000D01*
X102310000Y-101727000D01*
X102310000Y-93539039D01*
X107838096Y-93539039D01*
X107998959Y-93927423D01*
X108374866Y-94342389D01*
X108880959Y-94581914D01*
X109103000Y-94460629D01*
X109103000Y-93317000D01*
X109357000Y-93317000D01*
X109357000Y-94460629D01*
X109579041Y-94581914D01*
X110085134Y-94342389D01*
X110461041Y-93927423D01*
X110621904Y-93539039D01*
X110499915Y-93317000D01*
X109357000Y-93317000D01*
X109103000Y-93317000D01*
X107960085Y-93317000D01*
X107838096Y-93539039D01*
X102310000Y-93539039D01*
X102310000Y-77950000D01*
X107766887Y-77950000D01*
X107878260Y-78509909D01*
X108195423Y-78984577D01*
X108547758Y-79220000D01*
X108195423Y-79455423D01*
X107878260Y-79930091D01*
X107766887Y-80490000D01*
X107878260Y-81049909D01*
X108195423Y-81524577D01*
X108547758Y-81760000D01*
X108195423Y-81995423D01*
X107878260Y-82470091D01*
X107766887Y-83030000D01*
X107878260Y-83589909D01*
X108195423Y-84064577D01*
X108547758Y-84300000D01*
X108195423Y-84535423D01*
X107878260Y-85010091D01*
X107766887Y-85570000D01*
X107878260Y-86129909D01*
X108195423Y-86604577D01*
X108547758Y-86840000D01*
X108195423Y-87075423D01*
X107878260Y-87550091D01*
X107766887Y-88110000D01*
X107878260Y-88669909D01*
X108195423Y-89144577D01*
X108547758Y-89380000D01*
X108195423Y-89615423D01*
X107878260Y-90090091D01*
X107766887Y-90650000D01*
X107878260Y-91209909D01*
X108195423Y-91684577D01*
X108579108Y-91940947D01*
X108374866Y-92037611D01*
X107998959Y-92452577D01*
X107838096Y-92840961D01*
X107960085Y-93063000D01*
X109103000Y-93063000D01*
X109103000Y-93043000D01*
X109357000Y-93043000D01*
X109357000Y-93063000D01*
X110499915Y-93063000D01*
X110621904Y-92840961D01*
X110461041Y-92452577D01*
X110085134Y-92037611D01*
X109880892Y-91940947D01*
X110264577Y-91684577D01*
X110581740Y-91209909D01*
X110693113Y-90650000D01*
X110581740Y-90090091D01*
X110264577Y-89615423D01*
X109912242Y-89380000D01*
X110264577Y-89144577D01*
X110581740Y-88669909D01*
X110693113Y-88110000D01*
X110581740Y-87550091D01*
X110264577Y-87075423D01*
X109912242Y-86840000D01*
X110264577Y-86604577D01*
X110581740Y-86129909D01*
X110693113Y-85570000D01*
X110581740Y-85010091D01*
X110264577Y-84535423D01*
X109912242Y-84300000D01*
X110264577Y-84064577D01*
X110581740Y-83589909D01*
X110693113Y-83030000D01*
X110581740Y-82470091D01*
X110264577Y-81995423D01*
X109912242Y-81760000D01*
X110264577Y-81524577D01*
X110581740Y-81049909D01*
X110693113Y-80490000D01*
X110581740Y-79930091D01*
X110264577Y-79455423D01*
X109912242Y-79220000D01*
X110264577Y-78984577D01*
X110581740Y-78509909D01*
X110693113Y-77950000D01*
X110581740Y-77390091D01*
X110264577Y-76915423D01*
X110158082Y-76844265D01*
X110389698Y-76748327D01*
X110568327Y-76569699D01*
X110665000Y-76336310D01*
X110665000Y-75695750D01*
X110506250Y-75537000D01*
X109357000Y-75537000D01*
X109357000Y-75557000D01*
X109103000Y-75557000D01*
X109103000Y-75537000D01*
X107953750Y-75537000D01*
X107795000Y-75695750D01*
X107795000Y-76336310D01*
X107891673Y-76569699D01*
X108070302Y-76748327D01*
X108301918Y-76844265D01*
X108195423Y-76915423D01*
X107878260Y-77390091D01*
X107766887Y-77950000D01*
X102310000Y-77950000D01*
X102310000Y-74483690D01*
X107795000Y-74483690D01*
X107795000Y-75124250D01*
X107953750Y-75283000D01*
X109103000Y-75283000D01*
X109103000Y-74133750D01*
X109357000Y-74133750D01*
X109357000Y-75283000D01*
X110506250Y-75283000D01*
X110665000Y-75124250D01*
X110665000Y-74483690D01*
X110568327Y-74250301D01*
X110389698Y-74071673D01*
X110156309Y-73975000D01*
X109515750Y-73975000D01*
X109357000Y-74133750D01*
X109103000Y-74133750D01*
X108944250Y-73975000D01*
X108303691Y-73975000D01*
X108070302Y-74071673D01*
X107891673Y-74250301D01*
X107795000Y-74483690D01*
X102310000Y-74483690D01*
X102310000Y-73007745D01*
X114061861Y-73007745D01*
X114135995Y-73253864D01*
X114673223Y-73446965D01*
X115243454Y-73419778D01*
X115644005Y-73253864D01*
X115718139Y-73007745D01*
X114890000Y-72179605D01*
X114061861Y-73007745D01*
X102310000Y-73007745D01*
X102310000Y-71783223D01*
X113443035Y-71783223D01*
X113470222Y-72353454D01*
X113636136Y-72754005D01*
X113882255Y-72828139D01*
X114710395Y-72000000D01*
X115069605Y-72000000D01*
X115897745Y-72828139D01*
X116143864Y-72754005D01*
X116146290Y-72747254D01*
X116173466Y-72812862D01*
X116450200Y-73089596D01*
X116450200Y-73172423D01*
X116250909Y-73371714D01*
X116172444Y-73424143D01*
X116120015Y-73502608D01*
X116120012Y-73502611D01*
X115964729Y-73735008D01*
X115891790Y-74101700D01*
X115910201Y-74194258D01*
X115910201Y-74312095D01*
X115815423Y-74375423D01*
X115498260Y-74850091D01*
X115386887Y-75410000D01*
X115498260Y-75969909D01*
X115815423Y-76444577D01*
X116199108Y-76700947D01*
X115994866Y-76797611D01*
X115618959Y-77212577D01*
X115458096Y-77600961D01*
X115580085Y-77823000D01*
X116723000Y-77823000D01*
X116723000Y-77803000D01*
X116977000Y-77803000D01*
X116977000Y-77823000D01*
X118119915Y-77823000D01*
X118241904Y-77600961D01*
X118081041Y-77212577D01*
X117705134Y-76797611D01*
X117500892Y-76700947D01*
X117884577Y-76444577D01*
X118201740Y-75969909D01*
X118313113Y-75410000D01*
X118201740Y-74850091D01*
X117892899Y-74387878D01*
X117989090Y-74291687D01*
X118067557Y-74239257D01*
X118244129Y-73975000D01*
X118275271Y-73928393D01*
X118275271Y-73928392D01*
X118275272Y-73928391D01*
X118329800Y-73654259D01*
X118329800Y-73654255D01*
X118348210Y-73561701D01*
X118329800Y-73469147D01*
X118329800Y-73089596D01*
X118606534Y-72812862D01*
X118825000Y-72285439D01*
X118825000Y-71714561D01*
X118606534Y-71187138D01*
X118202862Y-70783466D01*
X117675439Y-70565000D01*
X117104561Y-70565000D01*
X116577138Y-70783466D01*
X116173466Y-71187138D01*
X116146475Y-71252299D01*
X116143864Y-71245995D01*
X115897745Y-71171861D01*
X115069605Y-72000000D01*
X114710395Y-72000000D01*
X113882255Y-71171861D01*
X113636136Y-71245995D01*
X113443035Y-71783223D01*
X102310000Y-71783223D01*
X102310000Y-70992255D01*
X114061861Y-70992255D01*
X114890000Y-71820395D01*
X115718139Y-70992255D01*
X115644005Y-70746136D01*
X115106777Y-70553035D01*
X114536546Y-70580222D01*
X114135995Y-70746136D01*
X114061861Y-70992255D01*
X102310000Y-70992255D01*
X102310000Y-67755431D01*
X104415000Y-67755431D01*
X104415000Y-68644569D01*
X104755259Y-69466026D01*
X105383974Y-70094741D01*
X106205431Y-70435000D01*
X107094569Y-70435000D01*
X107343901Y-70331723D01*
X129149035Y-70331723D01*
X129176222Y-70901954D01*
X129342136Y-71302505D01*
X129588255Y-71376639D01*
X130416395Y-70548500D01*
X129588255Y-69720361D01*
X129342136Y-69794495D01*
X129149035Y-70331723D01*
X107343901Y-70331723D01*
X107916026Y-70094741D01*
X108544741Y-69466026D01*
X108885000Y-68644569D01*
X108885000Y-67755431D01*
X108864290Y-67705431D01*
X193405000Y-67705431D01*
X193405000Y-68594569D01*
X193745259Y-69416026D01*
X194373974Y-70044741D01*
X195195431Y-70385000D01*
X196084569Y-70385000D01*
X196906026Y-70044741D01*
X197534741Y-69416026D01*
X197875000Y-68594569D01*
X197875000Y-67705431D01*
X197534741Y-66883974D01*
X196906026Y-66255259D01*
X196084569Y-65915000D01*
X195195431Y-65915000D01*
X194373974Y-66255259D01*
X193745259Y-66883974D01*
X193405000Y-67705431D01*
X108864290Y-67705431D01*
X108544741Y-66933974D01*
X107916026Y-66305259D01*
X107094569Y-65965000D01*
X106205431Y-65965000D01*
X105383974Y-66305259D01*
X104755259Y-66933974D01*
X104415000Y-67755431D01*
X102310000Y-67755431D01*
X102310000Y-64210000D01*
X199950000Y-64210000D01*
X199950001Y-137668000D01*
G36*
X123440887Y-108267500D02*
X123552260Y-108827409D01*
X123869423Y-109302077D01*
X124189993Y-109516275D01*
X124180254Y-109565232D01*
X123869423Y-109772923D01*
X123552260Y-110247591D01*
X123440887Y-110807500D01*
X123552260Y-111367409D01*
X123869423Y-111842077D01*
X124253108Y-112098447D01*
X124048866Y-112195111D01*
X123672959Y-112610077D01*
X123512096Y-112998461D01*
X123634085Y-113220500D01*
X124777000Y-113220500D01*
X124777000Y-113200500D01*
X125031000Y-113200500D01*
X125031000Y-113220500D01*
X126173915Y-113220500D01*
X126295904Y-112998461D01*
X126135041Y-112610077D01*
X125759134Y-112195111D01*
X125554892Y-112098447D01*
X125938577Y-111842077D01*
X126255740Y-111367409D01*
X126367113Y-110807500D01*
X126255740Y-110247591D01*
X126004911Y-109872198D01*
X127911801Y-107965308D01*
X127911801Y-111619390D01*
X127014642Y-112516549D01*
X126953142Y-112557642D01*
X126790339Y-112801294D01*
X126747600Y-113016157D01*
X126747600Y-113016160D01*
X126733171Y-113088700D01*
X126747600Y-113161240D01*
X126747600Y-116992560D01*
X124970000Y-116992560D01*
X124722235Y-117041843D01*
X124512191Y-117182191D01*
X124371843Y-117392235D01*
X124322560Y-117640000D01*
X124322560Y-118490850D01*
X121005600Y-115173891D01*
X121005600Y-113819679D01*
X121189891Y-113696539D01*
X123512096Y-113696539D01*
X123672959Y-114084923D01*
X124048866Y-114499889D01*
X124554959Y-114739414D01*
X124777000Y-114618129D01*
X124777000Y-113474500D01*
X125031000Y-113474500D01*
X125031000Y-114618129D01*
X125253041Y-114739414D01*
X125759134Y-114499889D01*
X126135041Y-114084923D01*
X126295904Y-113696539D01*
X126173915Y-113474500D01*
X125031000Y-113474500D01*
X124777000Y-113474500D01*
X123634085Y-113474500D01*
X123512096Y-113696539D01*
X121189891Y-113696539D01*
X121303577Y-113620577D01*
X121620740Y-113145909D01*
X121732113Y-112586000D01*
X121620740Y-112026091D01*
X121303577Y-111551423D01*
X120828909Y-111234260D01*
X120410333Y-111151000D01*
X120228309Y-111151000D01*
X123522598Y-107856712D01*
X123440887Y-108267500D01*
X123440887Y-108267500D01*
G37*
X123440887Y-108267500D02*
X123552260Y-108827409D01*
X123869423Y-109302077D01*
X124189993Y-109516275D01*
X124180254Y-109565232D01*
X123869423Y-109772923D01*
X123552260Y-110247591D01*
X123440887Y-110807500D01*
X123552260Y-111367409D01*
X123869423Y-111842077D01*
X124253108Y-112098447D01*
X124048866Y-112195111D01*
X123672959Y-112610077D01*
X123512096Y-112998461D01*
X123634085Y-113220500D01*
X124777000Y-113220500D01*
X124777000Y-113200500D01*
X125031000Y-113200500D01*
X125031000Y-113220500D01*
X126173915Y-113220500D01*
X126295904Y-112998461D01*
X126135041Y-112610077D01*
X125759134Y-112195111D01*
X125554892Y-112098447D01*
X125938577Y-111842077D01*
X126255740Y-111367409D01*
X126367113Y-110807500D01*
X126255740Y-110247591D01*
X126004911Y-109872198D01*
X127911801Y-107965308D01*
X127911801Y-111619390D01*
X127014642Y-112516549D01*
X126953142Y-112557642D01*
X126790339Y-112801294D01*
X126747600Y-113016157D01*
X126747600Y-113016160D01*
X126733171Y-113088700D01*
X126747600Y-113161240D01*
X126747600Y-116992560D01*
X124970000Y-116992560D01*
X124722235Y-117041843D01*
X124512191Y-117182191D01*
X124371843Y-117392235D01*
X124322560Y-117640000D01*
X124322560Y-118490850D01*
X121005600Y-115173891D01*
X121005600Y-113819679D01*
X121189891Y-113696539D01*
X123512096Y-113696539D01*
X123672959Y-114084923D01*
X124048866Y-114499889D01*
X124554959Y-114739414D01*
X124777000Y-114618129D01*
X124777000Y-113474500D01*
X125031000Y-113474500D01*
X125031000Y-114618129D01*
X125253041Y-114739414D01*
X125759134Y-114499889D01*
X126135041Y-114084923D01*
X126295904Y-113696539D01*
X126173915Y-113474500D01*
X125031000Y-113474500D01*
X124777000Y-113474500D01*
X123634085Y-113474500D01*
X123512096Y-113696539D01*
X121189891Y-113696539D01*
X121303577Y-113620577D01*
X121620740Y-113145909D01*
X121732113Y-112586000D01*
X121620740Y-112026091D01*
X121303577Y-111551423D01*
X120828909Y-111234260D01*
X120410333Y-111151000D01*
X120228309Y-111151000D01*
X123522598Y-107856712D01*
X123440887Y-108267500D01*
G36*
X143973035Y-70543223D02*
X144000222Y-71113454D01*
X144166136Y-71514005D01*
X144412255Y-71588139D01*
X145240395Y-70760000D01*
X145226252Y-70745858D01*
X145405858Y-70566252D01*
X145420000Y-70580395D01*
X145434142Y-70566252D01*
X145613748Y-70745858D01*
X145599605Y-70760000D01*
X146427745Y-71588139D01*
X146673864Y-71514005D01*
X146676290Y-71507254D01*
X146703466Y-71572862D01*
X146980201Y-71849597D01*
X146980201Y-72187422D01*
X146910909Y-72256714D01*
X146832444Y-72309143D01*
X146780015Y-72387608D01*
X146780012Y-72387611D01*
X146624729Y-72620008D01*
X146551790Y-72986700D01*
X146570201Y-73079258D01*
X146570201Y-73197095D01*
X146475423Y-73260423D01*
X146158260Y-73735091D01*
X146046887Y-74295000D01*
X146158260Y-74854909D01*
X146475423Y-75329577D01*
X146827758Y-75565000D01*
X146475423Y-75800423D01*
X146158260Y-76275091D01*
X146046887Y-76835000D01*
X146158260Y-77394909D01*
X146475423Y-77869577D01*
X146827758Y-78105000D01*
X146475423Y-78340423D01*
X146158260Y-78815091D01*
X146046887Y-79375000D01*
X146158260Y-79934909D01*
X146475423Y-80409577D01*
X146773400Y-80608679D01*
X146773401Y-80681321D01*
X146475423Y-80880423D01*
X146158260Y-81355091D01*
X146046887Y-81915000D01*
X146158260Y-82474909D01*
X146475423Y-82949577D01*
X146773400Y-83148679D01*
X146773401Y-83221321D01*
X146475423Y-83420423D01*
X146158260Y-83895091D01*
X146046887Y-84455000D01*
X146158260Y-85014909D01*
X146475423Y-85489577D01*
X146827758Y-85725000D01*
X146475423Y-85960423D01*
X146158260Y-86435091D01*
X146046887Y-86995000D01*
X146158260Y-87554909D01*
X146475423Y-88029577D01*
X146827758Y-88265000D01*
X146475423Y-88500423D01*
X146158260Y-88975091D01*
X146046887Y-89535000D01*
X146158260Y-90094909D01*
X146475423Y-90569577D01*
X146950091Y-90886740D01*
X147368667Y-90970000D01*
X147651333Y-90970000D01*
X147928301Y-90914908D01*
X147928301Y-93116500D01*
X147542561Y-93116500D01*
X147015138Y-93334966D01*
X146611466Y-93738638D01*
X146584475Y-93803799D01*
X146581864Y-93797495D01*
X146335745Y-93723361D01*
X145507605Y-94551500D01*
X146335745Y-95379639D01*
X146581864Y-95305505D01*
X146584290Y-95298754D01*
X146611466Y-95364362D01*
X146888200Y-95641096D01*
X146888200Y-95838923D01*
X146784909Y-95942214D01*
X146706444Y-95994643D01*
X146654015Y-96073108D01*
X146654012Y-96073111D01*
X146498729Y-96305508D01*
X146425790Y-96672200D01*
X146444201Y-96764758D01*
X146444201Y-96882595D01*
X146349423Y-96945923D01*
X146032260Y-97420591D01*
X145920887Y-97980500D01*
X146032260Y-98540409D01*
X146349423Y-99015077D01*
X146701758Y-99250500D01*
X146349423Y-99485923D01*
X146032260Y-99960591D01*
X145920887Y-100520500D01*
X146032260Y-101080409D01*
X146349423Y-101555077D01*
X146701758Y-101790500D01*
X146349423Y-102025923D01*
X146032260Y-102500591D01*
X145920887Y-103060500D01*
X146032260Y-103620409D01*
X146349423Y-104095077D01*
X146701758Y-104330500D01*
X146349423Y-104565923D01*
X146032260Y-105040591D01*
X145920887Y-105600500D01*
X146032260Y-106160409D01*
X146349423Y-106635077D01*
X146701758Y-106870500D01*
X146349423Y-107105923D01*
X146032260Y-107580591D01*
X145920887Y-108140500D01*
X146032260Y-108700409D01*
X146323144Y-109135747D01*
X139455230Y-116003661D01*
X139363826Y-115965800D01*
X139111310Y-115965800D01*
X138433900Y-115288391D01*
X138433900Y-113718757D01*
X138532959Y-113957923D01*
X138908866Y-114372889D01*
X139414959Y-114612414D01*
X139637000Y-114491129D01*
X139637000Y-113347500D01*
X139891000Y-113347500D01*
X139891000Y-114491129D01*
X140113041Y-114612414D01*
X140619134Y-114372889D01*
X140995041Y-113957923D01*
X141155904Y-113569539D01*
X141033915Y-113347500D01*
X139891000Y-113347500D01*
X139637000Y-113347500D01*
X139617000Y-113347500D01*
X139617000Y-113093500D01*
X139637000Y-113093500D01*
X139637000Y-113073500D01*
X139891000Y-113073500D01*
X139891000Y-113093500D01*
X141033915Y-113093500D01*
X141155904Y-112871461D01*
X140995041Y-112483077D01*
X140619134Y-112068111D01*
X140414892Y-111971447D01*
X140798577Y-111715077D01*
X141115740Y-111240409D01*
X141227113Y-110680500D01*
X141115740Y-110120591D01*
X140798577Y-109645923D01*
X140446242Y-109410500D01*
X140798577Y-109175077D01*
X141115740Y-108700409D01*
X141227113Y-108140500D01*
X141115740Y-107580591D01*
X140798577Y-107105923D01*
X140487746Y-106898232D01*
X140478007Y-106849275D01*
X140798577Y-106635077D01*
X141115740Y-106160409D01*
X141227113Y-105600500D01*
X141115740Y-105040591D01*
X140798577Y-104565923D01*
X140446242Y-104330500D01*
X140798577Y-104095077D01*
X141115740Y-103620409D01*
X141227113Y-103060500D01*
X141115740Y-102500591D01*
X140798577Y-102025923D01*
X140487746Y-101818232D01*
X140478007Y-101769275D01*
X140798577Y-101555077D01*
X141115740Y-101080409D01*
X141227113Y-100520500D01*
X141115740Y-99960591D01*
X140798577Y-99485923D01*
X140677894Y-99405285D01*
X140811765Y-99378657D01*
X141021809Y-99238309D01*
X141162157Y-99028265D01*
X141211440Y-98780500D01*
X141211440Y-97180500D01*
X141162157Y-96932735D01*
X141021809Y-96722691D01*
X140811765Y-96582343D01*
X140564000Y-96533060D01*
X139348700Y-96533060D01*
X139348700Y-95559245D01*
X144499861Y-95559245D01*
X144573995Y-95805364D01*
X145111223Y-95998465D01*
X145681454Y-95971278D01*
X146082005Y-95805364D01*
X146156139Y-95559245D01*
X145328000Y-94731105D01*
X144499861Y-95559245D01*
X139348700Y-95559245D01*
X139348700Y-94334723D01*
X143881035Y-94334723D01*
X143908222Y-94904954D01*
X144074136Y-95305505D01*
X144320255Y-95379639D01*
X145148395Y-94551500D01*
X144320255Y-93723361D01*
X144074136Y-93797495D01*
X143881035Y-94334723D01*
X139348700Y-94334723D01*
X139348700Y-93543755D01*
X144499861Y-93543755D01*
X145328000Y-94371895D01*
X146156139Y-93543755D01*
X146082005Y-93297636D01*
X145544777Y-93104535D01*
X144974546Y-93131722D01*
X144573995Y-93297636D01*
X144499861Y-93543755D01*
X139348700Y-93543755D01*
X139348700Y-90835921D01*
X139540959Y-90926914D01*
X139763000Y-90805629D01*
X139763000Y-89662000D01*
X140017000Y-89662000D01*
X140017000Y-90805629D01*
X140239041Y-90926914D01*
X140745134Y-90687389D01*
X141121041Y-90272423D01*
X141281904Y-89884039D01*
X141159915Y-89662000D01*
X140017000Y-89662000D01*
X139763000Y-89662000D01*
X139743000Y-89662000D01*
X139743000Y-89408000D01*
X139763000Y-89408000D01*
X139763000Y-89388000D01*
X140017000Y-89388000D01*
X140017000Y-89408000D01*
X141159915Y-89408000D01*
X141281904Y-89185961D01*
X141121041Y-88797577D01*
X140918699Y-88574210D01*
X141467860Y-88025050D01*
X141529358Y-87983958D01*
X141570449Y-87922461D01*
X141570451Y-87922459D01*
X141692161Y-87740307D01*
X141704859Y-87676471D01*
X141734900Y-87525444D01*
X141734900Y-87525441D01*
X141749329Y-87452900D01*
X141734900Y-87380360D01*
X141734900Y-76442840D01*
X141749329Y-76370300D01*
X141734900Y-76297757D01*
X141734900Y-76297756D01*
X141692161Y-76082893D01*
X141652165Y-76023035D01*
X141570451Y-75900741D01*
X141570449Y-75900739D01*
X141529358Y-75839242D01*
X141467861Y-75798151D01*
X141177734Y-75508024D01*
X141288157Y-75342765D01*
X141337440Y-75095000D01*
X141337440Y-73495000D01*
X141288157Y-73247235D01*
X141147809Y-73037191D01*
X140937765Y-72896843D01*
X140690000Y-72847560D01*
X139090000Y-72847560D01*
X138842235Y-72896843D01*
X138632191Y-73037191D01*
X138491843Y-73247235D01*
X138442560Y-73495000D01*
X138442560Y-75095000D01*
X138491843Y-75342765D01*
X138632191Y-75552809D01*
X138842235Y-75693157D01*
X138976106Y-75719785D01*
X138855423Y-75800423D01*
X138647732Y-76111255D01*
X138497493Y-76141139D01*
X138315341Y-76262849D01*
X138315339Y-76262851D01*
X138253842Y-76303942D01*
X138212751Y-76365439D01*
X134606291Y-79971900D01*
X134135013Y-79971900D01*
X134241113Y-79438500D01*
X134129740Y-78878591D01*
X133812577Y-78403923D01*
X133460242Y-78168500D01*
X133812577Y-77933077D01*
X134129740Y-77458409D01*
X134241113Y-76898500D01*
X134129740Y-76338591D01*
X133812577Y-75863923D01*
X133460242Y-75628500D01*
X133812577Y-75393077D01*
X134129740Y-74918409D01*
X134241113Y-74358500D01*
X134129740Y-73798591D01*
X133821743Y-73337641D01*
X133981272Y-73098891D01*
X134035800Y-72824759D01*
X134035800Y-72824754D01*
X134054210Y-72732200D01*
X134035800Y-72639646D01*
X134035800Y-71767745D01*
X144591861Y-71767745D01*
X144665995Y-72013864D01*
X145203223Y-72206965D01*
X145773454Y-72179778D01*
X146174005Y-72013864D01*
X146248139Y-71767745D01*
X145420000Y-70939605D01*
X144591861Y-71767745D01*
X134035800Y-71767745D01*
X134035800Y-71638096D01*
X134312534Y-71361362D01*
X134531000Y-70833939D01*
X134531000Y-70263061D01*
X134480938Y-70142200D01*
X144117179Y-70142200D01*
X143973035Y-70543223D01*
X143973035Y-70543223D01*
G37*
X143973035Y-70543223D02*
X144000222Y-71113454D01*
X144166136Y-71514005D01*
X144412255Y-71588139D01*
X145240395Y-70760000D01*
X145226252Y-70745858D01*
X145405858Y-70566252D01*
X145420000Y-70580395D01*
X145434142Y-70566252D01*
X145613748Y-70745858D01*
X145599605Y-70760000D01*
X146427745Y-71588139D01*
X146673864Y-71514005D01*
X146676290Y-71507254D01*
X146703466Y-71572862D01*
X146980201Y-71849597D01*
X146980201Y-72187422D01*
X146910909Y-72256714D01*
X146832444Y-72309143D01*
X146780015Y-72387608D01*
X146780012Y-72387611D01*
X146624729Y-72620008D01*
X146551790Y-72986700D01*
X146570201Y-73079258D01*
X146570201Y-73197095D01*
X146475423Y-73260423D01*
X146158260Y-73735091D01*
X146046887Y-74295000D01*
X146158260Y-74854909D01*
X146475423Y-75329577D01*
X146827758Y-75565000D01*
X146475423Y-75800423D01*
X146158260Y-76275091D01*
X146046887Y-76835000D01*
X146158260Y-77394909D01*
X146475423Y-77869577D01*
X146827758Y-78105000D01*
X146475423Y-78340423D01*
X146158260Y-78815091D01*
X146046887Y-79375000D01*
X146158260Y-79934909D01*
X146475423Y-80409577D01*
X146773400Y-80608679D01*
X146773401Y-80681321D01*
X146475423Y-80880423D01*
X146158260Y-81355091D01*
X146046887Y-81915000D01*
X146158260Y-82474909D01*
X146475423Y-82949577D01*
X146773400Y-83148679D01*
X146773401Y-83221321D01*
X146475423Y-83420423D01*
X146158260Y-83895091D01*
X146046887Y-84455000D01*
X146158260Y-85014909D01*
X146475423Y-85489577D01*
X146827758Y-85725000D01*
X146475423Y-85960423D01*
X146158260Y-86435091D01*
X146046887Y-86995000D01*
X146158260Y-87554909D01*
X146475423Y-88029577D01*
X146827758Y-88265000D01*
X146475423Y-88500423D01*
X146158260Y-88975091D01*
X146046887Y-89535000D01*
X146158260Y-90094909D01*
X146475423Y-90569577D01*
X146950091Y-90886740D01*
X147368667Y-90970000D01*
X147651333Y-90970000D01*
X147928301Y-90914908D01*
X147928301Y-93116500D01*
X147542561Y-93116500D01*
X147015138Y-93334966D01*
X146611466Y-93738638D01*
X146584475Y-93803799D01*
X146581864Y-93797495D01*
X146335745Y-93723361D01*
X145507605Y-94551500D01*
X146335745Y-95379639D01*
X146581864Y-95305505D01*
X146584290Y-95298754D01*
X146611466Y-95364362D01*
X146888200Y-95641096D01*
X146888200Y-95838923D01*
X146784909Y-95942214D01*
X146706444Y-95994643D01*
X146654015Y-96073108D01*
X146654012Y-96073111D01*
X146498729Y-96305508D01*
X146425790Y-96672200D01*
X146444201Y-96764758D01*
X146444201Y-96882595D01*
X146349423Y-96945923D01*
X146032260Y-97420591D01*
X145920887Y-97980500D01*
X146032260Y-98540409D01*
X146349423Y-99015077D01*
X146701758Y-99250500D01*
X146349423Y-99485923D01*
X146032260Y-99960591D01*
X145920887Y-100520500D01*
X146032260Y-101080409D01*
X146349423Y-101555077D01*
X146701758Y-101790500D01*
X146349423Y-102025923D01*
X146032260Y-102500591D01*
X145920887Y-103060500D01*
X146032260Y-103620409D01*
X146349423Y-104095077D01*
X146701758Y-104330500D01*
X146349423Y-104565923D01*
X146032260Y-105040591D01*
X145920887Y-105600500D01*
X146032260Y-106160409D01*
X146349423Y-106635077D01*
X146701758Y-106870500D01*
X146349423Y-107105923D01*
X146032260Y-107580591D01*
X145920887Y-108140500D01*
X146032260Y-108700409D01*
X146323144Y-109135747D01*
X139455230Y-116003661D01*
X139363826Y-115965800D01*
X139111310Y-115965800D01*
X138433900Y-115288391D01*
X138433900Y-113718757D01*
X138532959Y-113957923D01*
X138908866Y-114372889D01*
X139414959Y-114612414D01*
X139637000Y-114491129D01*
X139637000Y-113347500D01*
X139891000Y-113347500D01*
X139891000Y-114491129D01*
X140113041Y-114612414D01*
X140619134Y-114372889D01*
X140995041Y-113957923D01*
X141155904Y-113569539D01*
X141033915Y-113347500D01*
X139891000Y-113347500D01*
X139637000Y-113347500D01*
X139617000Y-113347500D01*
X139617000Y-113093500D01*
X139637000Y-113093500D01*
X139637000Y-113073500D01*
X139891000Y-113073500D01*
X139891000Y-113093500D01*
X141033915Y-113093500D01*
X141155904Y-112871461D01*
X140995041Y-112483077D01*
X140619134Y-112068111D01*
X140414892Y-111971447D01*
X140798577Y-111715077D01*
X141115740Y-111240409D01*
X141227113Y-110680500D01*
X141115740Y-110120591D01*
X140798577Y-109645923D01*
X140446242Y-109410500D01*
X140798577Y-109175077D01*
X141115740Y-108700409D01*
X141227113Y-108140500D01*
X141115740Y-107580591D01*
X140798577Y-107105923D01*
X140487746Y-106898232D01*
X140478007Y-106849275D01*
X140798577Y-106635077D01*
X141115740Y-106160409D01*
X141227113Y-105600500D01*
X141115740Y-105040591D01*
X140798577Y-104565923D01*
X140446242Y-104330500D01*
X140798577Y-104095077D01*
X141115740Y-103620409D01*
X141227113Y-103060500D01*
X141115740Y-102500591D01*
X140798577Y-102025923D01*
X140487746Y-101818232D01*
X140478007Y-101769275D01*
X140798577Y-101555077D01*
X141115740Y-101080409D01*
X141227113Y-100520500D01*
X141115740Y-99960591D01*
X140798577Y-99485923D01*
X140677894Y-99405285D01*
X140811765Y-99378657D01*
X141021809Y-99238309D01*
X141162157Y-99028265D01*
X141211440Y-98780500D01*
X141211440Y-97180500D01*
X141162157Y-96932735D01*
X141021809Y-96722691D01*
X140811765Y-96582343D01*
X140564000Y-96533060D01*
X139348700Y-96533060D01*
X139348700Y-95559245D01*
X144499861Y-95559245D01*
X144573995Y-95805364D01*
X145111223Y-95998465D01*
X145681454Y-95971278D01*
X146082005Y-95805364D01*
X146156139Y-95559245D01*
X145328000Y-94731105D01*
X144499861Y-95559245D01*
X139348700Y-95559245D01*
X139348700Y-94334723D01*
X143881035Y-94334723D01*
X143908222Y-94904954D01*
X144074136Y-95305505D01*
X144320255Y-95379639D01*
X145148395Y-94551500D01*
X144320255Y-93723361D01*
X144074136Y-93797495D01*
X143881035Y-94334723D01*
X139348700Y-94334723D01*
X139348700Y-93543755D01*
X144499861Y-93543755D01*
X145328000Y-94371895D01*
X146156139Y-93543755D01*
X146082005Y-93297636D01*
X145544777Y-93104535D01*
X144974546Y-93131722D01*
X144573995Y-93297636D01*
X144499861Y-93543755D01*
X139348700Y-93543755D01*
X139348700Y-90835921D01*
X139540959Y-90926914D01*
X139763000Y-90805629D01*
X139763000Y-89662000D01*
X140017000Y-89662000D01*
X140017000Y-90805629D01*
X140239041Y-90926914D01*
X140745134Y-90687389D01*
X141121041Y-90272423D01*
X141281904Y-89884039D01*
X141159915Y-89662000D01*
X140017000Y-89662000D01*
X139763000Y-89662000D01*
X139743000Y-89662000D01*
X139743000Y-89408000D01*
X139763000Y-89408000D01*
X139763000Y-89388000D01*
X140017000Y-89388000D01*
X140017000Y-89408000D01*
X141159915Y-89408000D01*
X141281904Y-89185961D01*
X141121041Y-88797577D01*
X140918699Y-88574210D01*
X141467860Y-88025050D01*
X141529358Y-87983958D01*
X141570449Y-87922461D01*
X141570451Y-87922459D01*
X141692161Y-87740307D01*
X141704859Y-87676471D01*
X141734900Y-87525444D01*
X141734900Y-87525441D01*
X141749329Y-87452900D01*
X141734900Y-87380360D01*
X141734900Y-76442840D01*
X141749329Y-76370300D01*
X141734900Y-76297757D01*
X141734900Y-76297756D01*
X141692161Y-76082893D01*
X141652165Y-76023035D01*
X141570451Y-75900741D01*
X141570449Y-75900739D01*
X141529358Y-75839242D01*
X141467861Y-75798151D01*
X141177734Y-75508024D01*
X141288157Y-75342765D01*
X141337440Y-75095000D01*
X141337440Y-73495000D01*
X141288157Y-73247235D01*
X141147809Y-73037191D01*
X140937765Y-72896843D01*
X140690000Y-72847560D01*
X139090000Y-72847560D01*
X138842235Y-72896843D01*
X138632191Y-73037191D01*
X138491843Y-73247235D01*
X138442560Y-73495000D01*
X138442560Y-75095000D01*
X138491843Y-75342765D01*
X138632191Y-75552809D01*
X138842235Y-75693157D01*
X138976106Y-75719785D01*
X138855423Y-75800423D01*
X138647732Y-76111255D01*
X138497493Y-76141139D01*
X138315341Y-76262849D01*
X138315339Y-76262851D01*
X138253842Y-76303942D01*
X138212751Y-76365439D01*
X134606291Y-79971900D01*
X134135013Y-79971900D01*
X134241113Y-79438500D01*
X134129740Y-78878591D01*
X133812577Y-78403923D01*
X133460242Y-78168500D01*
X133812577Y-77933077D01*
X134129740Y-77458409D01*
X134241113Y-76898500D01*
X134129740Y-76338591D01*
X133812577Y-75863923D01*
X133460242Y-75628500D01*
X133812577Y-75393077D01*
X134129740Y-74918409D01*
X134241113Y-74358500D01*
X134129740Y-73798591D01*
X133821743Y-73337641D01*
X133981272Y-73098891D01*
X134035800Y-72824759D01*
X134035800Y-72824754D01*
X134054210Y-72732200D01*
X134035800Y-72639646D01*
X134035800Y-71767745D01*
X144591861Y-71767745D01*
X144665995Y-72013864D01*
X145203223Y-72206965D01*
X145773454Y-72179778D01*
X146174005Y-72013864D01*
X146248139Y-71767745D01*
X145420000Y-70939605D01*
X144591861Y-71767745D01*
X134035800Y-71767745D01*
X134035800Y-71638096D01*
X134312534Y-71361362D01*
X134531000Y-70833939D01*
X134531000Y-70263061D01*
X134480938Y-70142200D01*
X144117179Y-70142200D01*
X143973035Y-70543223D01*
G36*
X157607000Y-113538000D02*
X157627000Y-113538000D01*
X157627000Y-113792000D01*
X157607000Y-113792000D01*
X157607000Y-113812000D01*
X157353000Y-113812000D01*
X157353000Y-113792000D01*
X157333000Y-113792000D01*
X157333000Y-113538000D01*
X157353000Y-113538000D01*
X157353000Y-113518000D01*
X157607000Y-113518000D01*
X157607000Y-113538000D01*
X157607000Y-113538000D01*
G37*
X157607000Y-113538000D02*
X157627000Y-113538000D01*
X157627000Y-113792000D01*
X157607000Y-113792000D01*
X157607000Y-113812000D01*
X157353000Y-113812000D01*
X157353000Y-113792000D01*
X157333000Y-113792000D01*
X157333000Y-113538000D01*
X157353000Y-113538000D01*
X157353000Y-113518000D01*
X157607000Y-113518000D01*
X157607000Y-113538000D01*
G36*
X167724801Y-103951090D02*
X158721957Y-112953934D01*
X158711041Y-112927577D01*
X158520581Y-112717328D01*
X166228258Y-105009651D01*
X166289758Y-104968558D01*
X166452561Y-104724907D01*
X166495300Y-104510044D01*
X166495300Y-104510040D01*
X166509729Y-104437501D01*
X166495300Y-104364962D01*
X166495300Y-96498409D01*
X167724800Y-95268909D01*
X167724801Y-103951090D01*
X167724801Y-103951090D01*
G37*
X167724801Y-103951090D02*
X158721957Y-112953934D01*
X158711041Y-112927577D01*
X158520581Y-112717328D01*
X166228258Y-105009651D01*
X166289758Y-104968558D01*
X166452561Y-104724907D01*
X166495300Y-104510044D01*
X166495300Y-104510040D01*
X166509729Y-104437501D01*
X166495300Y-104364962D01*
X166495300Y-96498409D01*
X167724800Y-95268909D01*
X167724801Y-103951090D01*
G36*
X172847000Y-100838000D02*
X172867000Y-100838000D01*
X172867000Y-101092000D01*
X172847000Y-101092000D01*
X172847000Y-101112000D01*
X172593000Y-101112000D01*
X172593000Y-101092000D01*
X172573000Y-101092000D01*
X172573000Y-100838000D01*
X172593000Y-100838000D01*
X172593000Y-100818000D01*
X172847000Y-100818000D01*
X172847000Y-100838000D01*
X172847000Y-100838000D01*
G37*
X172847000Y-100838000D02*
X172867000Y-100838000D01*
X172867000Y-101092000D01*
X172847000Y-101092000D01*
X172847000Y-101112000D01*
X172593000Y-101112000D01*
X172593000Y-101092000D01*
X172573000Y-101092000D01*
X172573000Y-100838000D01*
X172593000Y-100838000D01*
X172593000Y-100818000D01*
X172847000Y-100818000D01*
X172847000Y-100838000D01*
G36*
X130936201Y-87134511D02*
X130936200Y-93298902D01*
X130748777Y-93231535D01*
X130178546Y-93258722D01*
X129777995Y-93424636D01*
X129703861Y-93670755D01*
X130532000Y-94498895D01*
X130546142Y-94484752D01*
X130725748Y-94664358D01*
X130711605Y-94678500D01*
X130725748Y-94692643D01*
X130546142Y-94872248D01*
X130532000Y-94858105D01*
X130517858Y-94872248D01*
X130338253Y-94692643D01*
X130352395Y-94678500D01*
X129524255Y-93850361D01*
X129278136Y-93924495D01*
X129169273Y-94227363D01*
X125795704Y-90853795D01*
X126013134Y-90750889D01*
X126389041Y-90335923D01*
X126549904Y-89947539D01*
X126427915Y-89725500D01*
X125285000Y-89725500D01*
X125285000Y-89745500D01*
X125031000Y-89745500D01*
X125031000Y-89725500D01*
X125011000Y-89725500D01*
X125011000Y-89471500D01*
X125031000Y-89471500D01*
X125031000Y-89451500D01*
X125285000Y-89451500D01*
X125285000Y-89471500D01*
X126427915Y-89471500D01*
X126549904Y-89249461D01*
X126389041Y-88861077D01*
X126013134Y-88446111D01*
X125808892Y-88349447D01*
X126192577Y-88093077D01*
X126509740Y-87618409D01*
X126621113Y-87058500D01*
X126509740Y-86498591D01*
X126192577Y-86023923D01*
X125840242Y-85788500D01*
X126192577Y-85553077D01*
X126509740Y-85078409D01*
X126621113Y-84518500D01*
X126509740Y-83958591D01*
X126192577Y-83483923D01*
X125840242Y-83248500D01*
X126192577Y-83013077D01*
X126441792Y-82640101D01*
X130936201Y-87134511D01*
X130936201Y-87134511D01*
G37*
X130936201Y-87134511D02*
X130936200Y-93298902D01*
X130748777Y-93231535D01*
X130178546Y-93258722D01*
X129777995Y-93424636D01*
X129703861Y-93670755D01*
X130532000Y-94498895D01*
X130546142Y-94484752D01*
X130725748Y-94664358D01*
X130711605Y-94678500D01*
X130725748Y-94692643D01*
X130546142Y-94872248D01*
X130532000Y-94858105D01*
X130517858Y-94872248D01*
X130338253Y-94692643D01*
X130352395Y-94678500D01*
X129524255Y-93850361D01*
X129278136Y-93924495D01*
X129169273Y-94227363D01*
X125795704Y-90853795D01*
X126013134Y-90750889D01*
X126389041Y-90335923D01*
X126549904Y-89947539D01*
X126427915Y-89725500D01*
X125285000Y-89725500D01*
X125285000Y-89745500D01*
X125031000Y-89745500D01*
X125031000Y-89725500D01*
X125011000Y-89725500D01*
X125011000Y-89471500D01*
X125031000Y-89471500D01*
X125031000Y-89451500D01*
X125285000Y-89451500D01*
X125285000Y-89471500D01*
X126427915Y-89471500D01*
X126549904Y-89249461D01*
X126389041Y-88861077D01*
X126013134Y-88446111D01*
X125808892Y-88349447D01*
X126192577Y-88093077D01*
X126509740Y-87618409D01*
X126621113Y-87058500D01*
X126509740Y-86498591D01*
X126192577Y-86023923D01*
X125840242Y-85788500D01*
X126192577Y-85553077D01*
X126509740Y-85078409D01*
X126621113Y-84518500D01*
X126509740Y-83958591D01*
X126192577Y-83483923D01*
X125840242Y-83248500D01*
X126192577Y-83013077D01*
X126441792Y-82640101D01*
X130936201Y-87134511D01*
G04 #@! TD*
M02*
