G04 #@! TF.GenerationSoftware,KiCad,Pcbnew,(5.0.0-3-g5ebb6b6)*
G04 #@! TF.CreationDate,2018-12-06T20:17:27+09:00*
G04 #@! TF.ProjectId,Z80-1MSRAM,5A38302D314D5352414D2E6B69636164,rev?*
G04 #@! TF.SameCoordinates,Original*
G04 #@! TF.FileFunction,Copper,L1,Top,Signal*
G04 #@! TF.FilePolarity,Positive*
%FSLAX46Y46*%
G04 Gerber Fmt 4.6, Leading zero omitted, Abs format (unit mm)*
G04 Created by KiCad (PCBNEW (5.0.0-3-g5ebb6b6)) date 2018 December 06, Thursday 20:17:27*
%MOMM*%
%LPD*%
G01*
G04 APERTURE LIST*
G04 #@! TA.AperFunction,ComponentPad*
%ADD10R,1.700000X1.700000*%
G04 #@! TD*
G04 #@! TA.AperFunction,ComponentPad*
%ADD11O,1.700000X1.700000*%
G04 #@! TD*
G04 #@! TA.AperFunction,ComponentPad*
%ADD12R,1.800000X1.800000*%
G04 #@! TD*
G04 #@! TA.AperFunction,ComponentPad*
%ADD13C,1.800000*%
G04 #@! TD*
G04 #@! TA.AperFunction,ComponentPad*
%ADD14R,1.600000X1.600000*%
G04 #@! TD*
G04 #@! TA.AperFunction,ComponentPad*
%ADD15O,1.600000X1.600000*%
G04 #@! TD*
G04 #@! TA.AperFunction,ComponentPad*
%ADD16C,1.600000*%
G04 #@! TD*
G04 #@! TA.AperFunction,ComponentPad*
%ADD17R,1.727200X1.727200*%
G04 #@! TD*
G04 #@! TA.AperFunction,ComponentPad*
%ADD18O,1.727200X1.727200*%
G04 #@! TD*
G04 #@! TA.AperFunction,ComponentPad*
%ADD19R,2.000000X2.000000*%
G04 #@! TD*
G04 #@! TA.AperFunction,ComponentPad*
%ADD20C,2.000000*%
G04 #@! TD*
G04 #@! TA.AperFunction,ViaPad*
%ADD21C,0.889000*%
G04 #@! TD*
G04 #@! TA.AperFunction,Conductor*
%ADD22C,0.203200*%
G04 #@! TD*
G04 #@! TA.AperFunction,Conductor*
%ADD23C,0.609600*%
G04 #@! TD*
G04 #@! TA.AperFunction,Conductor*
%ADD24C,0.254000*%
G04 #@! TD*
G04 APERTURE END LIST*
D10*
G04 #@! TO.P,J2,1*
G04 #@! TO.N,Net-(J2-Pad1)*
X117920000Y-101727000D03*
D11*
G04 #@! TO.P,J2,2*
G04 #@! TO.N,Net-(J2-Pad2)*
X117920000Y-104267000D03*
G04 #@! TO.P,J2,3*
G04 #@! TO.N,Net-(J2-Pad3)*
X115380000Y-101727000D03*
G04 #@! TO.P,J2,4*
G04 #@! TO.N,Net-(J2-Pad2)*
X115380000Y-104267000D03*
G04 #@! TO.P,J2,5*
G04 #@! TO.N,Net-(J2-Pad5)*
X112840000Y-101727000D03*
G04 #@! TO.P,J2,6*
G04 #@! TO.N,Net-(J2-Pad2)*
X112840000Y-104267000D03*
G04 #@! TO.P,J2,7*
G04 #@! TO.N,Net-(J2-Pad7)*
X110300000Y-101727000D03*
G04 #@! TO.P,J2,8*
G04 #@! TO.N,Net-(J2-Pad2)*
X110300000Y-104267000D03*
G04 #@! TD*
D12*
G04 #@! TO.P,D3,1*
G04 #@! TO.N,Net-(D3-Pad1)*
X125870000Y-118540000D03*
D13*
G04 #@! TO.P,D3,2*
G04 #@! TO.N,Net-(D3-Pad2)*
X125870000Y-121080000D03*
G04 #@! TD*
D14*
G04 #@! TO.P,U2,1*
G04 #@! TO.N,VCC*
X139764000Y-97980500D03*
D15*
G04 #@! TO.P,U2,8*
G04 #@! TO.N,Net-(U2-Pad8)*
X147384000Y-113220500D03*
G04 #@! TO.P,U2,2*
G04 #@! TO.N,/D0*
X139764000Y-100520500D03*
G04 #@! TO.P,U2,9*
G04 #@! TO.N,/DA1*
X147384000Y-110680500D03*
G04 #@! TO.P,U2,3*
G04 #@! TO.N,Net-(U1-Pad1)*
X139764000Y-103060500D03*
G04 #@! TO.P,U2,10*
G04 #@! TO.N,VCC*
X147384000Y-108140500D03*
G04 #@! TO.P,U2,4*
G04 #@! TO.N,Net-(U2-Pad13)*
X139764000Y-105600500D03*
G04 #@! TO.P,U2,11*
G04 #@! TO.N,Net-(U1-Pad1)*
X147384000Y-105600500D03*
G04 #@! TO.P,U2,5*
G04 #@! TO.N,/DA0*
X139764000Y-108140500D03*
G04 #@! TO.P,U2,12*
G04 #@! TO.N,/D1*
X147384000Y-103060500D03*
G04 #@! TO.P,U2,6*
G04 #@! TO.N,Net-(U2-Pad6)*
X139764000Y-110680500D03*
G04 #@! TO.P,U2,13*
G04 #@! TO.N,Net-(U2-Pad13)*
X147384000Y-100520500D03*
G04 #@! TO.P,U2,7*
G04 #@! TO.N,GND*
X139764000Y-113220500D03*
G04 #@! TO.P,U2,14*
G04 #@! TO.N,VCC*
X147384000Y-97980500D03*
G04 #@! TD*
D16*
G04 #@! TO.P,R3,1*
G04 #@! TO.N,VCC*
X110109000Y-112586000D03*
D15*
G04 #@! TO.P,R3,2*
G04 #@! TO.N,Net-(D3-Pad2)*
X120269000Y-112586000D03*
G04 #@! TD*
D14*
G04 #@! TO.P,U7,1*
G04 #@! TO.N,/A14*
X180340000Y-80645000D03*
D15*
G04 #@! TO.P,U7,15*
G04 #@! TO.N,/D3*
X195580000Y-113665000D03*
G04 #@! TO.P,U7,2*
G04 #@! TO.N,/A12*
X180340000Y-83185000D03*
G04 #@! TO.P,U7,16*
G04 #@! TO.N,/D4*
X195580000Y-111125000D03*
G04 #@! TO.P,U7,3*
G04 #@! TO.N,/A7*
X180340000Y-85725000D03*
G04 #@! TO.P,U7,17*
G04 #@! TO.N,/D5*
X195580000Y-108585000D03*
G04 #@! TO.P,U7,4*
G04 #@! TO.N,/A6*
X180340000Y-88265000D03*
G04 #@! TO.P,U7,18*
G04 #@! TO.N,/D6*
X195580000Y-106045000D03*
G04 #@! TO.P,U7,5*
G04 #@! TO.N,/A5*
X180340000Y-90805000D03*
G04 #@! TO.P,U7,19*
G04 #@! TO.N,/D7*
X195580000Y-103505000D03*
G04 #@! TO.P,U7,6*
G04 #@! TO.N,/A4*
X180340000Y-93345000D03*
G04 #@! TO.P,U7,20*
G04 #@! TO.N,Net-(U1-Pad13)*
X195580000Y-100965000D03*
G04 #@! TO.P,U7,7*
G04 #@! TO.N,/A3*
X180340000Y-95885000D03*
G04 #@! TO.P,U7,21*
G04 #@! TO.N,/A10*
X195580000Y-98425000D03*
G04 #@! TO.P,U7,8*
G04 #@! TO.N,/A2*
X180340000Y-98425000D03*
G04 #@! TO.P,U7,22*
G04 #@! TO.N,~MEMRD*
X195580000Y-95885000D03*
G04 #@! TO.P,U7,9*
G04 #@! TO.N,/A1*
X180340000Y-100965000D03*
G04 #@! TO.P,U7,23*
G04 #@! TO.N,/A11*
X195580000Y-93345000D03*
G04 #@! TO.P,U7,10*
G04 #@! TO.N,/A0*
X180340000Y-103505000D03*
G04 #@! TO.P,U7,24*
G04 #@! TO.N,/A9*
X195580000Y-90805000D03*
G04 #@! TO.P,U7,11*
G04 #@! TO.N,/D0*
X180340000Y-106045000D03*
G04 #@! TO.P,U7,25*
G04 #@! TO.N,/A8*
X195580000Y-88265000D03*
G04 #@! TO.P,U7,12*
G04 #@! TO.N,/D1*
X180340000Y-108585000D03*
G04 #@! TO.P,U7,26*
G04 #@! TO.N,/A13*
X195580000Y-85725000D03*
G04 #@! TO.P,U7,13*
G04 #@! TO.N,/D2*
X180340000Y-111125000D03*
G04 #@! TO.P,U7,27*
G04 #@! TO.N,VCC*
X195580000Y-83185000D03*
G04 #@! TO.P,U7,14*
G04 #@! TO.N,GND*
X180340000Y-113665000D03*
G04 #@! TO.P,U7,28*
G04 #@! TO.N,VCC*
X195580000Y-80645000D03*
G04 #@! TD*
D17*
G04 #@! TO.P,J1,1*
G04 #@! TO.N,VCC*
X175260000Y-125095000D03*
D18*
G04 #@! TO.P,J1,2*
G04 #@! TO.N,GND*
X175260000Y-127635000D03*
G04 #@! TO.P,J1,3*
G04 #@! TO.N,VCC*
X172720000Y-125095000D03*
G04 #@! TO.P,J1,4*
G04 #@! TO.N,GND*
X172720000Y-127635000D03*
G04 #@! TO.P,J1,5*
G04 #@! TO.N,Net-(J1-Pad5)*
X170180000Y-125095000D03*
G04 #@! TO.P,J1,6*
G04 #@! TO.N,Net-(J1-Pad6)*
X170180000Y-127635000D03*
G04 #@! TO.P,J1,7*
G04 #@! TO.N,Net-(J1-Pad7)*
X167640000Y-125095000D03*
G04 #@! TO.P,J1,8*
G04 #@! TO.N,Net-(J1-Pad8)*
X167640000Y-127635000D03*
G04 #@! TO.P,J1,9*
G04 #@! TO.N,/D0*
X165100000Y-125095000D03*
G04 #@! TO.P,J1,10*
G04 #@! TO.N,/D1*
X165100000Y-127635000D03*
G04 #@! TO.P,J1,11*
G04 #@! TO.N,/D2*
X162560000Y-125095000D03*
G04 #@! TO.P,J1,12*
G04 #@! TO.N,/D3*
X162560000Y-127635000D03*
G04 #@! TO.P,J1,13*
G04 #@! TO.N,/D4*
X160020000Y-125095000D03*
G04 #@! TO.P,J1,14*
G04 #@! TO.N,/D5*
X160020000Y-127635000D03*
G04 #@! TO.P,J1,15*
G04 #@! TO.N,/D6*
X157480000Y-125095000D03*
G04 #@! TO.P,J1,16*
G04 #@! TO.N,/D7*
X157480000Y-127635000D03*
G04 #@! TO.P,J1,17*
G04 #@! TO.N,Net-(J1-Pad17)*
X154940000Y-125095000D03*
G04 #@! TO.P,J1,18*
G04 #@! TO.N,~MEMRD*
X154940000Y-127635000D03*
G04 #@! TO.P,J1,19*
G04 #@! TO.N,~IOWR*
X152400000Y-125095000D03*
G04 #@! TO.P,J1,20*
G04 #@! TO.N,~MEMWR*
X152400000Y-127635000D03*
G04 #@! TO.P,J1,21*
G04 #@! TO.N,RES*
X149860000Y-125095000D03*
G04 #@! TO.P,J1,22*
G04 #@! TO.N,Net-(J1-Pad22)*
X149860000Y-127635000D03*
G04 #@! TO.P,J1,23*
G04 #@! TO.N,Net-(J1-Pad23)*
X147320000Y-125095000D03*
G04 #@! TO.P,J1,24*
G04 #@! TO.N,Net-(J1-Pad24)*
X147320000Y-127635000D03*
G04 #@! TO.P,J1,25*
G04 #@! TO.N,/A0*
X144780000Y-125095000D03*
G04 #@! TO.P,J1,26*
G04 #@! TO.N,/A1*
X144780000Y-127635000D03*
G04 #@! TO.P,J1,27*
G04 #@! TO.N,/A2*
X142240000Y-125095000D03*
G04 #@! TO.P,J1,28*
G04 #@! TO.N,/A3*
X142240000Y-127635000D03*
G04 #@! TO.P,J1,29*
G04 #@! TO.N,/A4*
X139700000Y-125095000D03*
G04 #@! TO.P,J1,30*
G04 #@! TO.N,/A5*
X139700000Y-127635000D03*
G04 #@! TO.P,J1,31*
G04 #@! TO.N,/A6*
X137160000Y-125095000D03*
G04 #@! TO.P,J1,32*
G04 #@! TO.N,/A7*
X137160000Y-127635000D03*
G04 #@! TO.P,J1,33*
G04 #@! TO.N,/A8*
X134620000Y-125095000D03*
G04 #@! TO.P,J1,34*
G04 #@! TO.N,/A9*
X134620000Y-127635000D03*
G04 #@! TO.P,J1,35*
G04 #@! TO.N,/A10*
X132080000Y-125095000D03*
G04 #@! TO.P,J1,36*
G04 #@! TO.N,/A11*
X132080000Y-127635000D03*
G04 #@! TO.P,J1,37*
G04 #@! TO.N,/A12*
X129540000Y-125095000D03*
G04 #@! TO.P,J1,38*
G04 #@! TO.N,/A13*
X129540000Y-127635000D03*
G04 #@! TO.P,J1,39*
G04 #@! TO.N,/A14*
X127000000Y-125095000D03*
G04 #@! TO.P,J1,40*
G04 #@! TO.N,/A15*
X127000000Y-127635000D03*
G04 #@! TD*
D19*
G04 #@! TO.P,D1,1*
G04 #@! TO.N,Net-(D1-Pad1)*
X111920000Y-118600000D03*
D20*
G04 #@! TO.P,D1,2*
G04 #@! TO.N,Net-(D1-Pad2)*
X111920000Y-121140000D03*
G04 #@! TD*
D19*
G04 #@! TO.P,D2,1*
G04 #@! TO.N,Net-(D2-Pad1)*
X118370000Y-118680000D03*
D20*
G04 #@! TO.P,D2,2*
G04 #@! TO.N,Net-(D2-Pad2)*
X118370000Y-121220000D03*
G04 #@! TD*
D14*
G04 #@! TO.P,U1,1*
G04 #@! TO.N,Net-(U1-Pad1)*
X139890000Y-74295000D03*
D15*
G04 #@! TO.P,U1,8*
G04 #@! TO.N,Net-(U1-Pad8)*
X147510000Y-89535000D03*
G04 #@! TO.P,U1,2*
G04 #@! TO.N,~IOWR*
X139890000Y-76835000D03*
G04 #@! TO.P,U1,9*
G04 #@! TO.N,Net-(U1-Pad4)*
X147510000Y-86995000D03*
G04 #@! TO.P,U1,3*
G04 #@! TO.N,Net-(J2-Pad2)*
X139890000Y-79375000D03*
G04 #@! TO.P,U1,10*
G04 #@! TO.N,Net-(U1-Pad10)*
X147510000Y-84455000D03*
G04 #@! TO.P,U1,4*
G04 #@! TO.N,Net-(U1-Pad4)*
X139890000Y-81915000D03*
G04 #@! TO.P,U1,11*
G04 #@! TO.N,Net-(U1-Pad10)*
X147510000Y-81915000D03*
G04 #@! TO.P,U1,5*
G04 #@! TO.N,/DA0*
X139890000Y-84455000D03*
G04 #@! TO.P,U1,12*
G04 #@! TO.N,Net-(U1-Pad10)*
X147510000Y-79375000D03*
G04 #@! TO.P,U1,6*
G04 #@! TO.N,/DA1*
X139890000Y-86995000D03*
G04 #@! TO.P,U1,13*
G04 #@! TO.N,Net-(U1-Pad13)*
X147510000Y-76835000D03*
G04 #@! TO.P,U1,7*
G04 #@! TO.N,GND*
X139890000Y-89535000D03*
G04 #@! TO.P,U1,14*
G04 #@! TO.N,VCC*
X147510000Y-74295000D03*
G04 #@! TD*
D14*
G04 #@! TO.P,U3,1*
G04 #@! TO.N,GND*
X109230000Y-75410000D03*
D15*
G04 #@! TO.P,U3,9*
G04 #@! TO.N,Net-(U3-Pad9)*
X116850000Y-93190000D03*
G04 #@! TO.P,U3,2*
G04 #@! TO.N,/A6*
X109230000Y-77950000D03*
G04 #@! TO.P,U3,10*
G04 #@! TO.N,Net-(U3-Pad10)*
X116850000Y-90650000D03*
G04 #@! TO.P,U3,3*
G04 #@! TO.N,/A7*
X109230000Y-80490000D03*
G04 #@! TO.P,U3,11*
G04 #@! TO.N,Net-(U3-Pad11)*
X116850000Y-88110000D03*
G04 #@! TO.P,U3,4*
G04 #@! TO.N,Net-(J2-Pad1)*
X109230000Y-83030000D03*
G04 #@! TO.P,U3,12*
G04 #@! TO.N,Net-(U1-Pad8)*
X116850000Y-85570000D03*
G04 #@! TO.P,U3,5*
G04 #@! TO.N,Net-(J2-Pad3)*
X109230000Y-85570000D03*
G04 #@! TO.P,U3,13*
G04 #@! TO.N,/A15*
X116850000Y-83030000D03*
G04 #@! TO.P,U3,6*
G04 #@! TO.N,Net-(J2-Pad5)*
X109230000Y-88110000D03*
G04 #@! TO.P,U3,14*
G04 #@! TO.N,/A14*
X116850000Y-80490000D03*
G04 #@! TO.P,U3,7*
G04 #@! TO.N,Net-(J2-Pad7)*
X109230000Y-90650000D03*
G04 #@! TO.P,U3,15*
G04 #@! TO.N,GND*
X116850000Y-77950000D03*
G04 #@! TO.P,U3,8*
X109230000Y-93190000D03*
G04 #@! TO.P,U3,16*
G04 #@! TO.N,VCC*
X116850000Y-75410000D03*
G04 #@! TD*
D14*
G04 #@! TO.P,U4,1*
G04 #@! TO.N,/DA1*
X125158000Y-74358500D03*
D15*
G04 #@! TO.P,U4,8*
G04 #@! TO.N,Net-(D2-Pad1)*
X132778000Y-89598500D03*
G04 #@! TO.P,U4,2*
G04 #@! TO.N,Net-(U4-Pad2)*
X125158000Y-76898500D03*
G04 #@! TO.P,U4,9*
G04 #@! TO.N,/DA1*
X132778000Y-87058500D03*
G04 #@! TO.P,U4,3*
G04 #@! TO.N,Net-(U4-Pad3)*
X125158000Y-79438500D03*
G04 #@! TO.P,U4,10*
G04 #@! TO.N,Net-(D1-Pad1)*
X132778000Y-84518500D03*
G04 #@! TO.P,U4,4*
G04 #@! TO.N,/MEMA16*
X125158000Y-81978500D03*
G04 #@! TO.P,U4,11*
G04 #@! TO.N,/DA0*
X132778000Y-81978500D03*
G04 #@! TO.P,U4,5*
G04 #@! TO.N,RES*
X125158000Y-84518500D03*
G04 #@! TO.P,U4,12*
G04 #@! TO.N,Net-(D3-Pad1)*
X132778000Y-79438500D03*
G04 #@! TO.P,U4,6*
G04 #@! TO.N,Net-(U2-Pad13)*
X125158000Y-87058500D03*
G04 #@! TO.P,U4,13*
G04 #@! TO.N,Net-(U1-Pad4)*
X132778000Y-76898500D03*
G04 #@! TO.P,U4,7*
G04 #@! TO.N,GND*
X125158000Y-89598500D03*
G04 #@! TO.P,U4,14*
G04 #@! TO.N,VCC*
X132778000Y-74358500D03*
G04 #@! TD*
D14*
G04 #@! TO.P,U5,1*
G04 #@! TO.N,/DA0*
X124904000Y-98107500D03*
D15*
G04 #@! TO.P,U5,8*
G04 #@! TO.N,Net-(U5-Pad5)*
X132524000Y-113347500D03*
G04 #@! TO.P,U5,2*
G04 #@! TO.N,/A15*
X124904000Y-100647500D03*
G04 #@! TO.P,U5,9*
X132524000Y-110807500D03*
G04 #@! TO.P,U5,3*
G04 #@! TO.N,Net-(U5-Pad3)*
X124904000Y-103187500D03*
G04 #@! TO.P,U5,10*
G04 #@! TO.N,Net-(U4-Pad2)*
X132524000Y-108267500D03*
G04 #@! TO.P,U5,4*
G04 #@! TO.N,Net-(U5-Pad3)*
X124904000Y-105727500D03*
G04 #@! TO.P,U5,11*
G04 #@! TO.N,Net-(U4-Pad3)*
X132524000Y-105727500D03*
G04 #@! TO.P,U5,5*
G04 #@! TO.N,Net-(U5-Pad5)*
X124904000Y-108267500D03*
G04 #@! TO.P,U5,12*
G04 #@! TO.N,/DA1*
X132524000Y-103187500D03*
G04 #@! TO.P,U5,6*
G04 #@! TO.N,/MEMA15*
X124904000Y-110807500D03*
G04 #@! TO.P,U5,13*
G04 #@! TO.N,/A15*
X132524000Y-100647500D03*
G04 #@! TO.P,U5,7*
G04 #@! TO.N,GND*
X124904000Y-113347500D03*
G04 #@! TO.P,U5,14*
G04 #@! TO.N,VCC*
X132524000Y-98107500D03*
G04 #@! TD*
D14*
G04 #@! TO.P,U6,1*
G04 #@! TO.N,N/C*
X157480000Y-75565000D03*
D15*
G04 #@! TO.P,U6,17*
G04 #@! TO.N,/D3*
X172720000Y-113665000D03*
G04 #@! TO.P,U6,2*
G04 #@! TO.N,/MEMA16*
X157480000Y-78105000D03*
G04 #@! TO.P,U6,18*
G04 #@! TO.N,/D4*
X172720000Y-111125000D03*
G04 #@! TO.P,U6,3*
G04 #@! TO.N,/A14*
X157480000Y-80645000D03*
G04 #@! TO.P,U6,19*
G04 #@! TO.N,/D5*
X172720000Y-108585000D03*
G04 #@! TO.P,U6,4*
G04 #@! TO.N,/A12*
X157480000Y-83185000D03*
G04 #@! TO.P,U6,20*
G04 #@! TO.N,/D6*
X172720000Y-106045000D03*
G04 #@! TO.P,U6,5*
G04 #@! TO.N,/A7*
X157480000Y-85725000D03*
G04 #@! TO.P,U6,21*
G04 #@! TO.N,/D7*
X172720000Y-103505000D03*
G04 #@! TO.P,U6,6*
G04 #@! TO.N,/A6*
X157480000Y-88265000D03*
G04 #@! TO.P,U6,22*
G04 #@! TO.N,GND*
X172720000Y-100965000D03*
G04 #@! TO.P,U6,7*
G04 #@! TO.N,/A5*
X157480000Y-90805000D03*
G04 #@! TO.P,U6,23*
G04 #@! TO.N,/A10*
X172720000Y-98425000D03*
G04 #@! TO.P,U6,8*
G04 #@! TO.N,/A4*
X157480000Y-93345000D03*
G04 #@! TO.P,U6,24*
G04 #@! TO.N,~MEMRD*
X172720000Y-95885000D03*
G04 #@! TO.P,U6,9*
G04 #@! TO.N,/A3*
X157480000Y-95885000D03*
G04 #@! TO.P,U6,25*
G04 #@! TO.N,/A11*
X172720000Y-93345000D03*
G04 #@! TO.P,U6,10*
G04 #@! TO.N,/A2*
X157480000Y-98425000D03*
G04 #@! TO.P,U6,26*
G04 #@! TO.N,/A9*
X172720000Y-90805000D03*
G04 #@! TO.P,U6,11*
G04 #@! TO.N,/A1*
X157480000Y-100965000D03*
G04 #@! TO.P,U6,27*
G04 #@! TO.N,/A8*
X172720000Y-88265000D03*
G04 #@! TO.P,U6,12*
G04 #@! TO.N,/A0*
X157480000Y-103505000D03*
G04 #@! TO.P,U6,28*
G04 #@! TO.N,/A13*
X172720000Y-85725000D03*
G04 #@! TO.P,U6,13*
G04 #@! TO.N,/D0*
X157480000Y-106045000D03*
G04 #@! TO.P,U6,29*
G04 #@! TO.N,~MEMWR*
X172720000Y-83185000D03*
G04 #@! TO.P,U6,14*
G04 #@! TO.N,/D1*
X157480000Y-108585000D03*
G04 #@! TO.P,U6,30*
G04 #@! TO.N,Net-(U1-Pad13)*
X172720000Y-80645000D03*
G04 #@! TO.P,U6,15*
G04 #@! TO.N,/D2*
X157480000Y-111125000D03*
G04 #@! TO.P,U6,31*
G04 #@! TO.N,/MEMA15*
X172720000Y-78105000D03*
G04 #@! TO.P,U6,16*
G04 #@! TO.N,GND*
X157480000Y-113665000D03*
G04 #@! TO.P,U6,32*
G04 #@! TO.N,VCC*
X172720000Y-75565000D03*
G04 #@! TD*
D16*
G04 #@! TO.P,C1,1*
G04 #@! TO.N,VCC*
X147920000Y-70760000D03*
G04 #@! TO.P,C1,2*
G04 #@! TO.N,GND*
X145420000Y-70760000D03*
G04 #@! TD*
G04 #@! TO.P,C2,1*
G04 #@! TO.N,VCC*
X147828000Y-94551500D03*
G04 #@! TO.P,C2,2*
G04 #@! TO.N,GND*
X145328000Y-94551500D03*
G04 #@! TD*
G04 #@! TO.P,C3,1*
G04 #@! TO.N,VCC*
X117390000Y-72000000D03*
G04 #@! TO.P,C3,2*
G04 #@! TO.N,GND*
X114890000Y-72000000D03*
G04 #@! TD*
G04 #@! TO.P,C4,1*
G04 #@! TO.N,VCC*
X133096000Y-70548500D03*
G04 #@! TO.P,C4,2*
G04 #@! TO.N,GND*
X130596000Y-70548500D03*
G04 #@! TD*
G04 #@! TO.P,C5,1*
G04 #@! TO.N,VCC*
X133032000Y-94678500D03*
G04 #@! TO.P,C5,2*
G04 #@! TO.N,GND*
X130532000Y-94678500D03*
G04 #@! TD*
G04 #@! TO.P,C6,1*
G04 #@! TO.N,VCC*
X172720000Y-72390000D03*
G04 #@! TO.P,C6,2*
G04 #@! TO.N,GND*
X170220000Y-72390000D03*
G04 #@! TD*
G04 #@! TO.P,C7,1*
G04 #@! TO.N,VCC*
X195540000Y-77470000D03*
G04 #@! TO.P,C7,2*
G04 #@! TO.N,GND*
X193040000Y-77470000D03*
G04 #@! TD*
G04 #@! TO.P,R1,1*
G04 #@! TO.N,VCC*
X111760000Y-135255000D03*
D15*
G04 #@! TO.P,R1,2*
G04 #@! TO.N,Net-(D1-Pad2)*
X111760000Y-125095000D03*
G04 #@! TD*
D16*
G04 #@! TO.P,R2,1*
G04 #@! TO.N,VCC*
X118110000Y-135255000D03*
D15*
G04 #@! TO.P,R2,2*
G04 #@! TO.N,Net-(D2-Pad2)*
X118110000Y-125095000D03*
G04 #@! TD*
D14*
G04 #@! TO.P,C8,1*
G04 #@! TO.N,VCC*
X185890000Y-130420000D03*
D16*
G04 #@! TO.P,C8,2*
G04 #@! TO.N,GND*
X188390000Y-130420000D03*
G04 #@! TD*
D21*
G04 #@! TO.N,Net-(D1-Pad1)*
X123920400Y-94778300D03*
G04 #@! TO.N,Net-(D2-Pad1)*
X127192700Y-94946300D03*
G04 #@! TO.N,VCC*
X135763000Y-98044000D03*
X135763000Y-94742000D03*
G04 #@! TO.N,GND*
X167434500Y-100965000D03*
G04 #@! TO.N,~IOWR*
X139149100Y-117045300D03*
G04 #@! TO.N,Net-(U4-Pad2)*
X120953500Y-82120300D03*
G04 #@! TO.N,/MEMA15*
X127870200Y-96756000D03*
G04 #@! TD*
D22*
G04 #@! TO.N,Net-(D1-Pad1)*
X123920400Y-94778300D02*
X123920400Y-86733100D01*
X123920400Y-86733100D02*
X125029900Y-85623600D01*
X125029900Y-85623600D02*
X130567800Y-85623600D01*
X130567800Y-85623600D02*
X131672900Y-84518500D01*
X132778000Y-84518500D02*
X131672900Y-84518500D01*
G04 #@! TO.N,Net-(D1-Pad2)*
X111760000Y-125095000D02*
X111760000Y-123989900D01*
X111760000Y-123989900D02*
X111920000Y-123829900D01*
X111920000Y-123829900D02*
X111920000Y-121140000D01*
G04 #@! TO.N,Net-(D2-Pad1)*
X131672900Y-89598500D02*
X131672900Y-90466100D01*
X131672900Y-90466100D02*
X127192700Y-94946300D01*
X132778000Y-89598500D02*
X131672900Y-89598500D01*
G04 #@! TO.N,Net-(D2-Pad2)*
X118110000Y-125095000D02*
X118110000Y-123989900D01*
X118110000Y-123989900D02*
X118370000Y-123729900D01*
X118370000Y-123729900D02*
X118370000Y-121220000D01*
D23*
G04 #@! TO.N,VCC*
X141072300Y-97980500D02*
X147384000Y-97980500D01*
X139764000Y-97980500D02*
X141072300Y-97980500D01*
X195580000Y-83185000D02*
X196888300Y-83185000D01*
X197993000Y-82373100D02*
X197700200Y-82373100D01*
X197700200Y-82373100D02*
X196888300Y-83185000D01*
X197993000Y-82373100D02*
X197993000Y-79923000D01*
X197993000Y-79923000D02*
X195540000Y-77470000D01*
X185890000Y-129010000D02*
X197993000Y-116907000D01*
X197993000Y-116907000D02*
X197993000Y-82373100D01*
X133096000Y-70548500D02*
X133096000Y-69417100D01*
X133096000Y-69417100D02*
X132322000Y-68643500D01*
X132322000Y-68643500D02*
X120746000Y-68643500D01*
X120746000Y-68643500D02*
X117390000Y-72000000D01*
X147920000Y-70760000D02*
X145740000Y-68580000D01*
X145740000Y-68580000D02*
X135064000Y-68580000D01*
X135064000Y-68580000D02*
X134747000Y-68897500D01*
X134747000Y-68897500D02*
X133096000Y-70548500D01*
X172720000Y-72390000D02*
X172720000Y-71258600D01*
X172720000Y-71258600D02*
X169978000Y-68516500D01*
X169978000Y-68516500D02*
X150164000Y-68516500D01*
X150164000Y-68516500D02*
X147920000Y-70760000D01*
X195540000Y-77470000D02*
X190460000Y-72390000D01*
X190460000Y-72390000D02*
X190460000Y-72159500D01*
X190460000Y-72159500D02*
X189230000Y-70929500D01*
X189230000Y-70929500D02*
X174180000Y-70929500D01*
X174180000Y-70929500D02*
X172720000Y-72390000D01*
X195540000Y-77470000D02*
X195540000Y-80605000D01*
X195540000Y-80605000D02*
X195580000Y-80645000D01*
X118110000Y-135255000D02*
X182465000Y-135255000D01*
X182465000Y-135255000D02*
X185890000Y-131830000D01*
X185890000Y-131830000D02*
X185890000Y-130420000D01*
X111760000Y-135255000D02*
X118110000Y-135255000D01*
X175260000Y-125095000D02*
X181975000Y-125095000D01*
X181975000Y-125095000D02*
X185890000Y-129010000D01*
X185890000Y-129010000D02*
X185890000Y-130420000D01*
X172720000Y-125095000D02*
X175260000Y-125095000D01*
X138455700Y-97980500D02*
X139764000Y-97980500D01*
X138328700Y-98107500D02*
X138455700Y-97980500D01*
X135826500Y-98107500D02*
X138328700Y-98107500D01*
X135763000Y-98044000D02*
X135826500Y-98107500D01*
X133095500Y-94742000D02*
X133032000Y-94678500D01*
X135763000Y-94742000D02*
X133095500Y-94742000D01*
G04 #@! TO.N,GND*
X145420000Y-70760000D02*
X147050000Y-72390000D01*
X147050000Y-72390000D02*
X170220000Y-72390000D01*
X145420000Y-70760000D02*
X144315100Y-71864900D01*
X144315100Y-71864900D02*
X131912400Y-71864900D01*
X131912400Y-71864900D02*
X130596000Y-70548500D01*
X171411700Y-100965000D02*
X167434500Y-100965000D01*
X139764000Y-113220500D02*
X141072300Y-113220500D01*
X157480000Y-113665000D02*
X156171700Y-113665000D01*
X156171700Y-113665000D02*
X155306900Y-114529800D01*
X155306900Y-114529800D02*
X142381600Y-114529800D01*
X142381600Y-114529800D02*
X141072300Y-113220500D01*
X172720000Y-100965000D02*
X171411700Y-100965000D01*
X193040000Y-77470000D02*
X189547500Y-73977500D01*
X189547500Y-73977500D02*
X171807500Y-73977500D01*
X171807500Y-73977500D02*
X170220000Y-72390000D01*
X130532000Y-94678500D02*
X135675500Y-89535000D01*
X135675500Y-89535000D02*
X138581700Y-89535000D01*
X139890000Y-89535000D02*
X138581700Y-89535000D01*
X138455700Y-113220500D02*
X136965400Y-114710800D01*
X136965400Y-114710800D02*
X127575600Y-114710800D01*
X127575600Y-114710800D02*
X126212300Y-113347500D01*
X172720000Y-127635000D02*
X175260000Y-127635000D01*
X139764000Y-113220500D02*
X138455700Y-113220500D01*
X124904000Y-113347500D02*
X126212300Y-113347500D01*
D22*
G04 #@! TO.N,/D0*
X157480000Y-106045000D02*
X158585100Y-106045000D01*
X158585100Y-106045000D02*
X159695900Y-104934200D01*
X159695900Y-104934200D02*
X178124100Y-104934200D01*
X178124100Y-104934200D02*
X179234900Y-106045000D01*
X179234900Y-106045000D02*
X180340000Y-106045000D01*
X156927500Y-106045000D02*
X157480000Y-106045000D01*
X156927500Y-106045000D02*
X156374900Y-106045000D01*
X156374900Y-106045000D02*
X152285200Y-101955300D01*
X152285200Y-101955300D02*
X142303900Y-101955300D01*
X142303900Y-101955300D02*
X140869100Y-100520500D01*
X139764000Y-100520500D02*
X140869100Y-100520500D01*
G04 #@! TO.N,/D1*
X157480000Y-109690100D02*
X157251000Y-109690100D01*
X157251000Y-109690100D02*
X156328700Y-110612400D01*
X156328700Y-110612400D02*
X156328700Y-111544300D01*
X156328700Y-111544300D02*
X157179400Y-112395000D01*
X157179400Y-112395000D02*
X157805200Y-112395000D01*
X157805200Y-112395000D02*
X161302600Y-115892400D01*
X161302600Y-115892400D02*
X161302600Y-125530400D01*
X161302600Y-125530400D02*
X162238500Y-126466300D01*
X162238500Y-126466300D02*
X163054900Y-126466300D01*
X163054900Y-126466300D02*
X163931300Y-127342700D01*
X163931300Y-127342700D02*
X163931300Y-127635000D01*
X157480000Y-108585000D02*
X157480000Y-109690100D01*
X165100000Y-127635000D02*
X163931300Y-127635000D01*
X147384000Y-103060500D02*
X148489100Y-103060500D01*
X157480000Y-108585000D02*
X154013600Y-108585000D01*
X154013600Y-108585000D02*
X148489100Y-103060500D01*
X158032600Y-108585000D02*
X157480000Y-108585000D01*
X158032600Y-108585000D02*
X158585100Y-108585000D01*
X180340000Y-108585000D02*
X179234900Y-108585000D01*
X158585100Y-108585000D02*
X159739300Y-107430800D01*
X159739300Y-107430800D02*
X178080700Y-107430800D01*
X178080700Y-107430800D02*
X179234900Y-108585000D01*
G04 #@! TO.N,/D2*
X163112600Y-115652400D02*
X162560000Y-116205000D01*
X162560000Y-116205000D02*
X162560000Y-125095000D01*
X180340000Y-111125000D02*
X175789900Y-111125000D01*
X175789900Y-111125000D02*
X174682700Y-110017800D01*
X174682700Y-110017800D02*
X168747200Y-110017800D01*
X168747200Y-110017800D02*
X163112600Y-115652400D01*
X158585100Y-111125000D02*
X163112600Y-115652400D01*
X157480000Y-111125000D02*
X158585100Y-111125000D01*
G04 #@! TO.N,/D3*
X195580000Y-113665000D02*
X194474900Y-113665000D01*
X172720000Y-113665000D02*
X173825100Y-113665000D01*
X173825100Y-113665000D02*
X174935200Y-114775100D01*
X174935200Y-114775100D02*
X193364800Y-114775100D01*
X193364800Y-114775100D02*
X194474900Y-113665000D01*
G04 #@! TO.N,/D4*
X195580000Y-111125000D02*
X194474900Y-111125000D01*
X172720000Y-111125000D02*
X173825100Y-111125000D01*
X173825100Y-111125000D02*
X174990900Y-112290800D01*
X174990900Y-112290800D02*
X193309100Y-112290800D01*
X193309100Y-112290800D02*
X194474900Y-111125000D01*
G04 #@! TO.N,/D5*
X195580000Y-108585000D02*
X194474900Y-108585000D01*
X172720000Y-108585000D02*
X173825100Y-108585000D01*
X173825100Y-108585000D02*
X174990900Y-109750800D01*
X174990900Y-109750800D02*
X193309100Y-109750800D01*
X193309100Y-109750800D02*
X194474900Y-108585000D01*
G04 #@! TO.N,/D6*
X172720000Y-106045000D02*
X173825100Y-106045000D01*
X173825100Y-106045000D02*
X178659600Y-106045000D01*
X178659600Y-106045000D02*
X179794400Y-107179800D01*
X179794400Y-107179800D02*
X193340100Y-107179800D01*
X193340100Y-107179800D02*
X194474900Y-106045000D01*
X195580000Y-106045000D02*
X194474900Y-106045000D01*
G04 #@! TO.N,/D7*
X195580000Y-103505000D02*
X194474900Y-103505000D01*
X172720000Y-103505000D02*
X177270200Y-103505000D01*
X177270200Y-103505000D02*
X178381400Y-104616200D01*
X178381400Y-104616200D02*
X193363700Y-104616200D01*
X193363700Y-104616200D02*
X194474900Y-103505000D01*
G04 #@! TO.N,~MEMRD*
X195580000Y-95885000D02*
X194474900Y-95885000D01*
X172720000Y-95885000D02*
X173825100Y-95885000D01*
X173825100Y-95885000D02*
X174990900Y-97050800D01*
X174990900Y-97050800D02*
X193309100Y-97050800D01*
X193309100Y-97050800D02*
X194474900Y-95885000D01*
G04 #@! TO.N,~IOWR*
X139149100Y-117045300D02*
X143544800Y-117045300D01*
X143544800Y-117045300D02*
X151231300Y-124731800D01*
X151231300Y-124731800D02*
X151231300Y-125095000D01*
X152400000Y-125095000D02*
X151231300Y-125095000D01*
G04 #@! TO.N,/A0*
X158585100Y-103505000D02*
X159750900Y-102339200D01*
X159750900Y-102339200D02*
X178069100Y-102339200D01*
X178069100Y-102339200D02*
X179234900Y-103505000D01*
X180340000Y-103505000D02*
X179234900Y-103505000D01*
X157480000Y-103505000D02*
X158585100Y-103505000D01*
G04 #@! TO.N,/A1*
X158585100Y-100965000D02*
X159701700Y-99848400D01*
X159701700Y-99848400D02*
X177543100Y-99848400D01*
X177543100Y-99848400D02*
X178659700Y-100965000D01*
X178659700Y-100965000D02*
X179234900Y-100965000D01*
X180340000Y-100965000D02*
X179234900Y-100965000D01*
X157480000Y-100965000D02*
X158585100Y-100965000D01*
G04 #@! TO.N,/A2*
X158585100Y-98425000D02*
X159702300Y-97307800D01*
X159702300Y-97307800D02*
X173283200Y-97307800D01*
X173283200Y-97307800D02*
X174400400Y-98425000D01*
X174400400Y-98425000D02*
X180340000Y-98425000D01*
X157480000Y-98425000D02*
X158585100Y-98425000D01*
G04 #@! TO.N,/A3*
X158585100Y-95885000D02*
X159703800Y-94766300D01*
X159703800Y-94766300D02*
X173673900Y-94766300D01*
X173673900Y-94766300D02*
X174792600Y-95885000D01*
X174792600Y-95885000D02*
X180340000Y-95885000D01*
X157480000Y-95885000D02*
X158585100Y-95885000D01*
G04 #@! TO.N,/A4*
X158585100Y-93345000D02*
X159719900Y-92210200D01*
X159719900Y-92210200D02*
X173265600Y-92210200D01*
X173265600Y-92210200D02*
X174400400Y-93345000D01*
X174400400Y-93345000D02*
X180340000Y-93345000D01*
X157480000Y-93345000D02*
X158585100Y-93345000D01*
G04 #@! TO.N,/A5*
X158585100Y-90805000D02*
X159719900Y-89670200D01*
X159719900Y-89670200D02*
X173265600Y-89670200D01*
X173265600Y-89670200D02*
X174400400Y-90805000D01*
X174400400Y-90805000D02*
X180340000Y-90805000D01*
X157480000Y-90805000D02*
X158585100Y-90805000D01*
G04 #@! TO.N,/A6*
X158585100Y-88265000D02*
X159705100Y-87145000D01*
X159705100Y-87145000D02*
X173280400Y-87145000D01*
X173280400Y-87145000D02*
X174400400Y-88265000D01*
X174400400Y-88265000D02*
X180340000Y-88265000D01*
X157480000Y-88265000D02*
X158585100Y-88265000D01*
X109230000Y-79055100D02*
X109001000Y-79055100D01*
X109001000Y-79055100D02*
X107694200Y-80361900D01*
X107694200Y-80361900D02*
X107694200Y-104612000D01*
X107694200Y-104612000D02*
X126765300Y-123683100D01*
X126765300Y-123683100D02*
X132410600Y-123683100D01*
X132410600Y-123683100D02*
X133350000Y-124622500D01*
X133350000Y-124622500D02*
X133350000Y-125517700D01*
X133350000Y-125517700D02*
X134096100Y-126263800D01*
X134096100Y-126263800D02*
X134941500Y-126263800D01*
X134941500Y-126263800D02*
X135788800Y-127111100D01*
X135788800Y-127111100D02*
X135788800Y-127926900D01*
X135788800Y-127926900D02*
X136696000Y-128834100D01*
X136696000Y-128834100D02*
X137671400Y-128834100D01*
X137671400Y-128834100D02*
X138335200Y-128170300D01*
X138335200Y-128170300D02*
X138335200Y-126270200D01*
X138335200Y-126270200D02*
X137160000Y-125095000D01*
X109230000Y-77950000D02*
X109230000Y-79055100D01*
G04 #@! TO.N,/A7*
X109230000Y-80490000D02*
X109230000Y-81595100D01*
X137160000Y-127635000D02*
X137160000Y-126466300D01*
X137160000Y-126466300D02*
X136867700Y-126466300D01*
X136867700Y-126466300D02*
X135991300Y-125589900D01*
X135991300Y-125589900D02*
X135991300Y-124800000D01*
X135991300Y-124800000D02*
X130936500Y-119745200D01*
X130936500Y-119745200D02*
X124138400Y-119745200D01*
X124138400Y-119745200D02*
X108101000Y-103707800D01*
X108101000Y-103707800D02*
X108101000Y-82495100D01*
X108101000Y-82495100D02*
X109001000Y-81595100D01*
X109001000Y-81595100D02*
X109230000Y-81595100D01*
X180340000Y-85725000D02*
X179234900Y-85725000D01*
X157480000Y-85725000D02*
X158585100Y-85725000D01*
X158585100Y-85725000D02*
X159700100Y-84610000D01*
X159700100Y-84610000D02*
X178119900Y-84610000D01*
X178119900Y-84610000D02*
X179234900Y-85725000D01*
G04 #@! TO.N,/A8*
X195580000Y-88265000D02*
X194474900Y-88265000D01*
X172720000Y-88265000D02*
X173825100Y-88265000D01*
X173825100Y-88265000D02*
X174990900Y-89430800D01*
X174990900Y-89430800D02*
X193309100Y-89430800D01*
X193309100Y-89430800D02*
X194474900Y-88265000D01*
G04 #@! TO.N,/A9*
X195580000Y-90805000D02*
X194474900Y-90805000D01*
X172720000Y-90805000D02*
X173825100Y-90805000D01*
X173825100Y-90805000D02*
X174990900Y-91970800D01*
X174990900Y-91970800D02*
X193309100Y-91970800D01*
X193309100Y-91970800D02*
X194474900Y-90805000D01*
G04 #@! TO.N,/A10*
X195027500Y-98425000D02*
X196734900Y-100132400D01*
X196734900Y-100132400D02*
X196734900Y-114079800D01*
X196734900Y-114079800D02*
X188129300Y-122685400D01*
X188129300Y-122685400D02*
X168359300Y-122685400D01*
X168359300Y-122685400D02*
X166370000Y-124674700D01*
X166370000Y-124674700D02*
X166370000Y-128029700D01*
X166370000Y-128029700D02*
X165130200Y-129269500D01*
X165130200Y-129269500D02*
X134549400Y-129269500D01*
X134549400Y-129269500D02*
X133350000Y-128070100D01*
X133350000Y-128070100D02*
X133350000Y-127170500D01*
X133350000Y-127170500D02*
X132443200Y-126263700D01*
X132443200Y-126263700D02*
X132080000Y-126263700D01*
X132080000Y-125095000D02*
X132080000Y-126263700D01*
X195027500Y-98425000D02*
X194474900Y-98425000D01*
X195580000Y-98425000D02*
X195027500Y-98425000D01*
X172720000Y-98425000D02*
X173825100Y-98425000D01*
X173825100Y-98425000D02*
X174682900Y-99282800D01*
X174682900Y-99282800D02*
X177552800Y-99282800D01*
X177552800Y-99282800D02*
X177846400Y-99576400D01*
X177846400Y-99576400D02*
X193323500Y-99576400D01*
X193323500Y-99576400D02*
X194474900Y-98425000D01*
G04 #@! TO.N,/A11*
X195580000Y-93345000D02*
X194474900Y-93345000D01*
X172720000Y-93345000D02*
X173825100Y-93345000D01*
X173825100Y-93345000D02*
X174990900Y-94510800D01*
X174990900Y-94510800D02*
X193309100Y-94510800D01*
X193309100Y-94510800D02*
X194474900Y-93345000D01*
G04 #@! TO.N,/A12*
X157480000Y-83185000D02*
X158585100Y-83185000D01*
X180340000Y-83185000D02*
X179234900Y-83185000D01*
X158585100Y-83185000D02*
X159750900Y-82019200D01*
X159750900Y-82019200D02*
X178069100Y-82019200D01*
X178069100Y-82019200D02*
X179234900Y-83185000D01*
G04 #@! TO.N,/A13*
X195580000Y-85725000D02*
X195580000Y-86830100D01*
X195580000Y-85725000D02*
X194474900Y-85725000D01*
X172720000Y-85725000D02*
X173825100Y-85725000D01*
X173825100Y-85725000D02*
X174936300Y-86836200D01*
X174936300Y-86836200D02*
X193363700Y-86836200D01*
X193363700Y-86836200D02*
X194474900Y-85725000D01*
X129540000Y-127635000D02*
X130708700Y-127635000D01*
X195580000Y-86830100D02*
X195718100Y-86830100D01*
X195718100Y-86830100D02*
X197162200Y-88274200D01*
X197162200Y-88274200D02*
X197162200Y-114227800D01*
X197162200Y-114227800D02*
X187898900Y-123491100D01*
X187898900Y-123491100D02*
X170026800Y-123491100D01*
X170026800Y-123491100D02*
X168910000Y-124607900D01*
X168910000Y-124607900D02*
X168910000Y-128053300D01*
X168910000Y-128053300D02*
X167262200Y-129701100D01*
X167262200Y-129701100D02*
X132411600Y-129701100D01*
X132411600Y-129701100D02*
X130708700Y-127998200D01*
X130708700Y-127998200D02*
X130708700Y-127635000D01*
G04 #@! TO.N,/A14*
X156374900Y-80645000D02*
X153834900Y-78105000D01*
X153834900Y-78105000D02*
X139524800Y-78105000D01*
X139524800Y-78105000D02*
X134617200Y-73197400D01*
X134617200Y-73197400D02*
X124223500Y-73197400D01*
X124223500Y-73197400D02*
X117955100Y-79465800D01*
X117955100Y-79465800D02*
X117955100Y-80490000D01*
X116850000Y-80490000D02*
X117955100Y-80490000D01*
X157480000Y-80645000D02*
X156374900Y-80645000D01*
G04 #@! TO.N,/A15*
X132524000Y-100647500D02*
X124904000Y-100647500D01*
G04 #@! TO.N,Net-(U1-Pad1)*
X139764000Y-103060500D02*
X140869100Y-103060500D01*
X140869100Y-103060500D02*
X143409100Y-105600500D01*
X143409100Y-105600500D02*
X147384000Y-105600500D01*
G04 #@! TO.N,/DA1*
X132778000Y-87058500D02*
X133883100Y-87058500D01*
X138784900Y-86995000D02*
X133946600Y-86995000D01*
X133946600Y-86995000D02*
X133883100Y-87058500D01*
X132524000Y-103187500D02*
X133629100Y-103187500D01*
X147384000Y-110680500D02*
X146278900Y-110680500D01*
X146278900Y-110680500D02*
X142468900Y-106870500D01*
X142468900Y-106870500D02*
X137312100Y-106870500D01*
X137312100Y-106870500D02*
X133629100Y-103187500D01*
X139890000Y-86995000D02*
X138784900Y-86995000D01*
G04 #@! TO.N,/DA0*
X139764000Y-108140500D02*
X136517600Y-108140500D01*
X136517600Y-108140500D02*
X132834600Y-104457500D01*
X132834600Y-104457500D02*
X130480400Y-104457500D01*
X130480400Y-104457500D02*
X127869800Y-101846900D01*
X127869800Y-101846900D02*
X124537200Y-101846900D01*
X124537200Y-101846900D02*
X123769000Y-101078700D01*
X123769000Y-101078700D02*
X123769000Y-100209500D01*
X123769000Y-100209500D02*
X124765900Y-99212600D01*
X124765900Y-99212600D02*
X124904000Y-99212600D01*
X124904000Y-98107500D02*
X124904000Y-99212600D01*
G04 #@! TO.N,Net-(U4-Pad2)*
X120953500Y-82120300D02*
X120953500Y-81979100D01*
X120953500Y-81979100D02*
X124929000Y-78003600D01*
X124929000Y-78003600D02*
X125158000Y-78003600D01*
X125158000Y-76898500D02*
X125158000Y-78003600D01*
G04 #@! TO.N,Net-(U5-Pad5)*
X132524000Y-113347500D02*
X131418900Y-113347500D01*
X131418900Y-113347500D02*
X126338900Y-108267500D01*
X126338900Y-108267500D02*
X126009100Y-108267500D01*
X124904000Y-108267500D02*
X126009100Y-108267500D01*
G04 #@! TO.N,/MEMA15*
X171614900Y-78105000D02*
X161589900Y-78105000D01*
X161589900Y-78105000D02*
X157779900Y-81915000D01*
X157779900Y-81915000D02*
X156889400Y-81915000D01*
X156889400Y-81915000D02*
X145814800Y-92989600D01*
X145814800Y-92989600D02*
X144222800Y-92989600D01*
X144222800Y-92989600D02*
X140456400Y-96756000D01*
X140456400Y-96756000D02*
X127870200Y-96756000D01*
X172720000Y-78105000D02*
X171614900Y-78105000D01*
G04 #@! TO.N,RES*
X148717000Y-123444000D02*
X148717000Y-123952000D01*
X135083050Y-123317000D02*
X148590000Y-123317000D01*
X131019050Y-119253000D02*
X135083050Y-123317000D01*
X148717000Y-123952000D02*
X149860000Y-125095000D01*
X125532500Y-115573800D02*
X125532500Y-115626500D01*
X129159000Y-119253000D02*
X131019050Y-119253000D01*
X123127500Y-113168800D02*
X125532500Y-115573800D01*
X123127500Y-86549000D02*
X123127500Y-113168800D01*
X148590000Y-123317000D02*
X148717000Y-123444000D01*
X125532500Y-115626500D02*
X129159000Y-119253000D01*
X125158000Y-84518500D02*
X123127500Y-86549000D01*
G04 #@! TO.N,Net-(U2-Pad13)*
X138654100Y-99409200D02*
X145167600Y-99409200D01*
X145167600Y-99409200D02*
X146278900Y-100520500D01*
X147384000Y-100520500D02*
X146278900Y-100520500D01*
X138654100Y-99409200D02*
X129418300Y-99409200D01*
X129418300Y-99409200D02*
X126263100Y-96254000D01*
X126263100Y-96254000D02*
X126263100Y-89140700D01*
X126263100Y-89140700D02*
X125286000Y-88163600D01*
X125286000Y-88163600D02*
X125158000Y-88163600D01*
X138654100Y-99409200D02*
X138654100Y-103614500D01*
X138654100Y-103614500D02*
X139535000Y-104495400D01*
X139535000Y-104495400D02*
X139764000Y-104495400D01*
X139764000Y-105600500D02*
X139764000Y-104495400D01*
X125158000Y-87058500D02*
X125158000Y-88163600D01*
G04 #@! TO.N,Net-(D3-Pad1)*
X125870000Y-118540000D02*
X125870000Y-117334900D01*
X132778000Y-79438500D02*
X131672900Y-79438500D01*
X131672900Y-79438500D02*
X127862900Y-83248500D01*
X127862900Y-83248500D02*
X124865000Y-83248500D01*
X124865000Y-83248500D02*
X122720700Y-85392800D01*
X122720700Y-85392800D02*
X122720700Y-114185600D01*
X122720700Y-114185600D02*
X125870000Y-117334900D01*
G04 #@! TO.N,Net-(U1-Pad13)*
X172720000Y-80645000D02*
X172720000Y-79539900D01*
X172720000Y-79539900D02*
X172858100Y-79539900D01*
X172858100Y-79539900D02*
X173827900Y-78570100D01*
X173827900Y-78570100D02*
X173827900Y-77630700D01*
X173827900Y-77630700D02*
X173032200Y-76835000D01*
X173032200Y-76835000D02*
X147510000Y-76835000D01*
G04 #@! TO.N,Net-(J2-Pad1)*
X109230000Y-84135100D02*
X109368400Y-84135100D01*
X109368400Y-84135100D02*
X110910300Y-85677000D01*
X110910300Y-85677000D02*
X110910300Y-89422300D01*
X110910300Y-89422300D02*
X117920000Y-96432000D01*
X117920000Y-96432000D02*
X117920000Y-100571900D01*
X117920000Y-101727000D02*
X117920000Y-100571900D01*
X109230000Y-83030000D02*
X109230000Y-84135100D01*
G04 #@! TO.N,Net-(U1-Pad8)*
X146404900Y-89535000D02*
X142594900Y-85725000D01*
X142594900Y-85725000D02*
X139560300Y-85725000D01*
X139560300Y-85725000D02*
X138328300Y-84493000D01*
X138328300Y-84493000D02*
X138328300Y-83422800D01*
X138328300Y-83422800D02*
X133238400Y-78332900D01*
X133238400Y-78332900D02*
X131505100Y-78332900D01*
X131505100Y-78332900D02*
X128998100Y-80839900D01*
X128998100Y-80839900D02*
X124717200Y-80839900D01*
X124717200Y-80839900D02*
X119987100Y-85570000D01*
X119987100Y-85570000D02*
X116850000Y-85570000D01*
X147510000Y-89535000D02*
X146404900Y-89535000D01*
G04 #@! TO.N,Net-(J2-Pad3)*
X109230000Y-86675100D02*
X109368300Y-86675100D01*
X109368300Y-86675100D02*
X110335100Y-87641900D01*
X110335100Y-87641900D02*
X110335100Y-89422400D01*
X110335100Y-89422400D02*
X115380000Y-94467300D01*
X115380000Y-94467300D02*
X115380000Y-101727000D01*
X109230000Y-85570000D02*
X109230000Y-86675100D01*
G04 #@! TO.N,Net-(J2-Pad5)*
X109230000Y-88110000D02*
X109230000Y-89215100D01*
X109230000Y-89215100D02*
X109391200Y-89215100D01*
X109391200Y-89215100D02*
X112840000Y-92663900D01*
X112840000Y-92663900D02*
X112840000Y-101727000D01*
G04 #@! TO.N,Net-(J2-Pad7)*
X110300000Y-101727000D02*
X110300000Y-100571900D01*
X109230000Y-90650000D02*
X109230000Y-91755100D01*
X109230000Y-91755100D02*
X109368100Y-91755100D01*
X109368100Y-91755100D02*
X110350400Y-92737400D01*
X110350400Y-92737400D02*
X110350400Y-100521500D01*
X110350400Y-100521500D02*
X110300000Y-100571900D01*
G04 #@! TO.N,Net-(U1-Pad4)*
X132778000Y-76898500D02*
X133883100Y-76898500D01*
X139890000Y-81915000D02*
X138784900Y-81915000D01*
X133883100Y-76898500D02*
X133883100Y-77013200D01*
X133883100Y-77013200D02*
X138784900Y-81915000D01*
X139890000Y-81915000D02*
X140995100Y-81915000D01*
X140995100Y-81915000D02*
X146075100Y-86995000D01*
X146075100Y-86995000D02*
X147510000Y-86995000D01*
G04 #@! TO.N,Net-(J2-Pad2)*
X139890000Y-79375000D02*
X138784900Y-79375000D01*
X138784900Y-79375000D02*
X135163300Y-75753400D01*
X135163300Y-75753400D02*
X124740200Y-75753400D01*
X124740200Y-75753400D02*
X117974300Y-82519300D01*
X117974300Y-82519300D02*
X117974300Y-83505400D01*
X117974300Y-83505400D02*
X117179700Y-84300000D01*
X117179700Y-84300000D02*
X116551900Y-84300000D01*
X116551900Y-84300000D02*
X115728000Y-85123900D01*
X115728000Y-85123900D02*
X115728000Y-93630800D01*
X115728000Y-93630800D02*
X119075200Y-96978000D01*
X119075200Y-96978000D02*
X119075200Y-102708300D01*
X119075200Y-102708300D02*
X118094100Y-103689400D01*
X118094100Y-103689400D02*
X117920000Y-103689400D01*
X115380000Y-104267000D02*
X116535100Y-104267000D01*
X117920000Y-103689400D02*
X117112700Y-103689400D01*
X117112700Y-103689400D02*
X116535100Y-104267000D01*
X117920000Y-104267000D02*
X117920000Y-103689400D01*
X112840000Y-104267000D02*
X115380000Y-104267000D01*
X110300000Y-104267000D02*
X112840000Y-104267000D01*
G04 #@! TD*
D24*
G04 #@! TO.N,GND*
G36*
X199950001Y-137541262D02*
X102361782Y-137667835D01*
X102355083Y-133775431D01*
X104315000Y-133775431D01*
X104315000Y-134664569D01*
X104655259Y-135486026D01*
X105283974Y-136114741D01*
X106105431Y-136455000D01*
X106994569Y-136455000D01*
X107816026Y-136114741D01*
X108444741Y-135486026D01*
X108785000Y-134664569D01*
X108785000Y-133775431D01*
X108444741Y-132953974D01*
X107816026Y-132325259D01*
X106994569Y-131985000D01*
X106105431Y-131985000D01*
X105283974Y-132325259D01*
X104655259Y-132953974D01*
X104315000Y-133775431D01*
X102355083Y-133775431D01*
X102327243Y-117600000D01*
X110272560Y-117600000D01*
X110272560Y-119600000D01*
X110321843Y-119847765D01*
X110462191Y-120057809D01*
X110598723Y-120149038D01*
X110533914Y-120213847D01*
X110285000Y-120814778D01*
X110285000Y-121465222D01*
X110533914Y-122066153D01*
X110993847Y-122526086D01*
X111183400Y-122604602D01*
X111183400Y-123527000D01*
X111066139Y-123702494D01*
X111036255Y-123852732D01*
X110725423Y-124060423D01*
X110408260Y-124535091D01*
X110296887Y-125095000D01*
X110408260Y-125654909D01*
X110725423Y-126129577D01*
X111200091Y-126446740D01*
X111618667Y-126530000D01*
X111901333Y-126530000D01*
X112319909Y-126446740D01*
X112794577Y-126129577D01*
X113111740Y-125654909D01*
X113223113Y-125095000D01*
X113111740Y-124535091D01*
X112794577Y-124060423D01*
X112645050Y-123960512D01*
X112656600Y-123902444D01*
X112656600Y-123902441D01*
X112671029Y-123829901D01*
X112656600Y-123757360D01*
X112656600Y-122604601D01*
X112846153Y-122526086D01*
X113306086Y-122066153D01*
X113555000Y-121465222D01*
X113555000Y-120814778D01*
X113306086Y-120213847D01*
X113241277Y-120149038D01*
X113377809Y-120057809D01*
X113518157Y-119847765D01*
X113567440Y-119600000D01*
X113567440Y-117600000D01*
X113518157Y-117352235D01*
X113377809Y-117142191D01*
X113167765Y-117001843D01*
X112920000Y-116952560D01*
X110920000Y-116952560D01*
X110672235Y-117001843D01*
X110462191Y-117142191D01*
X110321843Y-117352235D01*
X110272560Y-117600000D01*
X102327243Y-117600000D01*
X102318121Y-112300561D01*
X108674000Y-112300561D01*
X108674000Y-112871439D01*
X108892466Y-113398862D01*
X109296138Y-113802534D01*
X109823561Y-114021000D01*
X110394439Y-114021000D01*
X110921862Y-113802534D01*
X111325534Y-113398862D01*
X111544000Y-112871439D01*
X111544000Y-112300561D01*
X111325534Y-111773138D01*
X110921862Y-111369466D01*
X110394439Y-111151000D01*
X109823561Y-111151000D01*
X109296138Y-111369466D01*
X108892466Y-111773138D01*
X108674000Y-112300561D01*
X102318121Y-112300561D01*
X102310000Y-107582603D01*
X102310000Y-80361900D01*
X106943171Y-80361900D01*
X106957600Y-80434440D01*
X106957601Y-104539455D01*
X106943171Y-104612000D01*
X107000339Y-104899406D01*
X107122049Y-105081558D01*
X107122052Y-105081561D01*
X107163143Y-105143058D01*
X107224640Y-105184149D01*
X119073050Y-117032560D01*
X117370000Y-117032560D01*
X117122235Y-117081843D01*
X116912191Y-117222191D01*
X116771843Y-117432235D01*
X116722560Y-117680000D01*
X116722560Y-119680000D01*
X116771843Y-119927765D01*
X116912191Y-120137809D01*
X117048723Y-120229038D01*
X116983914Y-120293847D01*
X116735000Y-120894778D01*
X116735000Y-121545222D01*
X116983914Y-122146153D01*
X117443847Y-122606086D01*
X117633400Y-122684602D01*
X117633400Y-123422455D01*
X117578943Y-123458842D01*
X117537852Y-123520339D01*
X117537849Y-123520342D01*
X117416139Y-123702494D01*
X117386255Y-123852732D01*
X117075423Y-124060423D01*
X116758260Y-124535091D01*
X116646887Y-125095000D01*
X116758260Y-125654909D01*
X117075423Y-126129577D01*
X117550091Y-126446740D01*
X117968667Y-126530000D01*
X118251333Y-126530000D01*
X118669909Y-126446740D01*
X119144577Y-126129577D01*
X119461740Y-125654909D01*
X119573113Y-125095000D01*
X119461740Y-124535091D01*
X119144577Y-124060423D01*
X119065760Y-124007759D01*
X119106600Y-123802444D01*
X119106600Y-123802440D01*
X119121029Y-123729900D01*
X119106600Y-123657360D01*
X119106600Y-122684601D01*
X119296153Y-122606086D01*
X119756086Y-122146153D01*
X120005000Y-121545222D01*
X120005000Y-120894778D01*
X119756086Y-120293847D01*
X119691277Y-120229038D01*
X119827809Y-120137809D01*
X119968157Y-119927765D01*
X120017440Y-119680000D01*
X120017440Y-117976950D01*
X126000790Y-123960300D01*
X125919570Y-124014570D01*
X125588350Y-124510275D01*
X125472041Y-125095000D01*
X125588350Y-125679725D01*
X125919570Y-126175430D01*
X126203281Y-126365000D01*
X125919570Y-126554570D01*
X125588350Y-127050275D01*
X125472041Y-127635000D01*
X125588350Y-128219725D01*
X125919570Y-128715430D01*
X126415275Y-129046650D01*
X126852402Y-129133600D01*
X127147598Y-129133600D01*
X127584725Y-129046650D01*
X128080430Y-128715430D01*
X128270000Y-128431719D01*
X128459570Y-128715430D01*
X128955275Y-129046650D01*
X129392402Y-129133600D01*
X129687598Y-129133600D01*
X130124725Y-129046650D01*
X130478833Y-128810042D01*
X131839450Y-130170660D01*
X131880542Y-130232158D01*
X131942039Y-130273249D01*
X131942041Y-130273251D01*
X132124193Y-130394961D01*
X132339056Y-130437700D01*
X132339059Y-130437700D01*
X132411599Y-130452129D01*
X132484140Y-130437700D01*
X167189660Y-130437700D01*
X167262200Y-130452129D01*
X167334740Y-130437700D01*
X167334744Y-130437700D01*
X167549607Y-130394961D01*
X167793258Y-130232158D01*
X167834351Y-130170658D01*
X169213473Y-128791537D01*
X169595275Y-129046650D01*
X170032402Y-129133600D01*
X170327598Y-129133600D01*
X170764725Y-129046650D01*
X171260430Y-128715430D01*
X171461854Y-128413979D01*
X171513179Y-128523490D01*
X171945053Y-128917688D01*
X172360974Y-129089958D01*
X172593000Y-128968817D01*
X172593000Y-127762000D01*
X172847000Y-127762000D01*
X172847000Y-128968817D01*
X173079026Y-129089958D01*
X173494947Y-128917688D01*
X173926821Y-128523490D01*
X173990000Y-128388687D01*
X174053179Y-128523490D01*
X174485053Y-128917688D01*
X174900974Y-129089958D01*
X175133000Y-128968817D01*
X175133000Y-127762000D01*
X175387000Y-127762000D01*
X175387000Y-128968817D01*
X175619026Y-129089958D01*
X176034947Y-128917688D01*
X176466821Y-128523490D01*
X176714968Y-127994027D01*
X176594469Y-127762000D01*
X175387000Y-127762000D01*
X175133000Y-127762000D01*
X172847000Y-127762000D01*
X172593000Y-127762000D01*
X172573000Y-127762000D01*
X172573000Y-127508000D01*
X172593000Y-127508000D01*
X172593000Y-127488000D01*
X172847000Y-127488000D01*
X172847000Y-127508000D01*
X175133000Y-127508000D01*
X175133000Y-127488000D01*
X175387000Y-127488000D01*
X175387000Y-127508000D01*
X176594469Y-127508000D01*
X176714968Y-127275973D01*
X176466821Y-126746510D01*
X176279050Y-126575119D01*
X176371365Y-126556757D01*
X176581409Y-126416409D01*
X176721757Y-126206365D01*
X176755883Y-126034800D01*
X181585723Y-126034800D01*
X184680701Y-129129778D01*
X184632191Y-129162191D01*
X184491843Y-129372235D01*
X184442560Y-129620000D01*
X184442560Y-131220000D01*
X184491843Y-131467765D01*
X184632191Y-131677809D01*
X184680700Y-131710222D01*
X182075723Y-134315200D01*
X119199596Y-134315200D01*
X118922862Y-134038466D01*
X118395439Y-133820000D01*
X117824561Y-133820000D01*
X117297138Y-134038466D01*
X117020404Y-134315200D01*
X112849596Y-134315200D01*
X112572862Y-134038466D01*
X112045439Y-133820000D01*
X111474561Y-133820000D01*
X110947138Y-134038466D01*
X110543466Y-134442138D01*
X110325000Y-134969561D01*
X110325000Y-135540439D01*
X110543466Y-136067862D01*
X110947138Y-136471534D01*
X111474561Y-136690000D01*
X112045439Y-136690000D01*
X112572862Y-136471534D01*
X112849596Y-136194800D01*
X117020404Y-136194800D01*
X117297138Y-136471534D01*
X117824561Y-136690000D01*
X118395439Y-136690000D01*
X118922862Y-136471534D01*
X119199596Y-136194800D01*
X182372446Y-136194800D01*
X182465000Y-136213210D01*
X182557554Y-136194800D01*
X182557559Y-136194800D01*
X182831691Y-136140272D01*
X183142557Y-135932557D01*
X183194988Y-135854089D01*
X185373646Y-133675431D01*
X193405000Y-133675431D01*
X193405000Y-134564569D01*
X193745259Y-135386026D01*
X194373974Y-136014741D01*
X195195431Y-136355000D01*
X196084569Y-136355000D01*
X196906026Y-136014741D01*
X197534741Y-135386026D01*
X197875000Y-134564569D01*
X197875000Y-133675431D01*
X197534741Y-132853974D01*
X196906026Y-132225259D01*
X196084569Y-131885000D01*
X195195431Y-131885000D01*
X194373974Y-132225259D01*
X193745259Y-132853974D01*
X193405000Y-133675431D01*
X185373646Y-133675431D01*
X186489093Y-132559985D01*
X186567557Y-132507557D01*
X186689366Y-132325259D01*
X186775271Y-132196693D01*
X186775271Y-132196692D01*
X186775272Y-132196691D01*
X186829800Y-131922559D01*
X186829800Y-131922551D01*
X186846973Y-131836217D01*
X186937765Y-131818157D01*
X187147809Y-131677809D01*
X187288157Y-131467765D01*
X187296117Y-131427745D01*
X187561861Y-131427745D01*
X187635995Y-131673864D01*
X188173223Y-131866965D01*
X188743454Y-131839778D01*
X189144005Y-131673864D01*
X189218139Y-131427745D01*
X188390000Y-130599605D01*
X187561861Y-131427745D01*
X187296117Y-131427745D01*
X187334693Y-131233813D01*
X187382255Y-131248139D01*
X188210395Y-130420000D01*
X188569605Y-130420000D01*
X189397745Y-131248139D01*
X189643864Y-131174005D01*
X189836965Y-130636777D01*
X189809778Y-130066546D01*
X189643864Y-129665995D01*
X189397745Y-129591861D01*
X188569605Y-130420000D01*
X188210395Y-130420000D01*
X187382255Y-129591861D01*
X187334693Y-129606187D01*
X187296118Y-129412255D01*
X187561861Y-129412255D01*
X188390000Y-130240395D01*
X189218139Y-129412255D01*
X189144005Y-129166136D01*
X188606777Y-128973035D01*
X188036546Y-129000222D01*
X187635995Y-129166136D01*
X187561861Y-129412255D01*
X187296118Y-129412255D01*
X187288157Y-129372235D01*
X187147809Y-129162191D01*
X187099299Y-129129778D01*
X198592093Y-117636985D01*
X198670557Y-117584557D01*
X198722986Y-117506092D01*
X198722988Y-117506090D01*
X198878271Y-117273692D01*
X198878272Y-117273691D01*
X198932800Y-116999559D01*
X198932800Y-116999554D01*
X198951210Y-116907000D01*
X198932800Y-116814446D01*
X198932800Y-82465658D01*
X198951211Y-82373100D01*
X198932800Y-82280541D01*
X198932800Y-80015554D01*
X198951210Y-79923000D01*
X198932800Y-79830446D01*
X198932800Y-79830441D01*
X198878272Y-79556309D01*
X198857124Y-79524659D01*
X198722988Y-79323910D01*
X198722986Y-79323908D01*
X198670557Y-79245443D01*
X198592092Y-79193014D01*
X196975000Y-77575923D01*
X196975000Y-77184561D01*
X196756534Y-76657138D01*
X196352862Y-76253466D01*
X195825439Y-76035000D01*
X195434078Y-76035000D01*
X191383358Y-71984281D01*
X191345272Y-71792809D01*
X191291573Y-71712443D01*
X191189988Y-71560410D01*
X191189986Y-71560408D01*
X191137557Y-71481943D01*
X191059092Y-71429514D01*
X189959987Y-70330410D01*
X189907557Y-70251943D01*
X189596691Y-70044228D01*
X189322559Y-69989700D01*
X189322554Y-69989700D01*
X189230000Y-69971290D01*
X189137446Y-69989700D01*
X174272472Y-69989700D01*
X174179835Y-69971290D01*
X174001527Y-70006789D01*
X173813309Y-70044228D01*
X173813238Y-70044276D01*
X173813156Y-70044292D01*
X173655250Y-70149840D01*
X173502443Y-70251943D01*
X173449970Y-70330474D01*
X173285491Y-70495010D01*
X170707991Y-67917416D01*
X170655557Y-67838943D01*
X170504244Y-67737839D01*
X170455745Y-67705431D01*
X193405000Y-67705431D01*
X193405000Y-68594569D01*
X193745259Y-69416026D01*
X194373974Y-70044741D01*
X195195431Y-70385000D01*
X196084569Y-70385000D01*
X196906026Y-70044741D01*
X197534741Y-69416026D01*
X197875000Y-68594569D01*
X197875000Y-67705431D01*
X197534741Y-66883974D01*
X196906026Y-66255259D01*
X196084569Y-65915000D01*
X195195431Y-65915000D01*
X194373974Y-66255259D01*
X193745259Y-66883974D01*
X193405000Y-67705431D01*
X170455745Y-67705431D01*
X170344708Y-67631236D01*
X170344701Y-67631235D01*
X170344691Y-67631228D01*
X170101133Y-67582781D01*
X169978017Y-67558290D01*
X169885454Y-67576700D01*
X150256606Y-67576700D01*
X150164106Y-67558290D01*
X150071498Y-67576700D01*
X150071441Y-67576700D01*
X149974652Y-67595952D01*
X149797406Y-67631188D01*
X149797362Y-67631217D01*
X149797309Y-67631228D01*
X149647497Y-67731329D01*
X149564991Y-67786445D01*
X149564950Y-67786486D01*
X149486443Y-67838943D01*
X149434045Y-67917362D01*
X148026094Y-69325000D01*
X147814078Y-69325000D01*
X146469988Y-67980910D01*
X146417557Y-67902443D01*
X146106691Y-67694728D01*
X145832559Y-67640200D01*
X145832554Y-67640200D01*
X145740000Y-67621790D01*
X145647446Y-67640200D01*
X135156176Y-67640200D01*
X135063244Y-67621791D01*
X134881660Y-67658059D01*
X134697309Y-67694728D01*
X134696988Y-67694943D01*
X134696611Y-67695018D01*
X134541655Y-67798733D01*
X134386443Y-67902443D01*
X134333805Y-67981221D01*
X134083022Y-68232400D01*
X133661674Y-68653748D01*
X133051920Y-68044309D01*
X132999557Y-67965943D01*
X132920987Y-67913444D01*
X132920901Y-67913358D01*
X132844634Y-67862426D01*
X132688691Y-67758228D01*
X132688567Y-67758203D01*
X132688463Y-67758134D01*
X132507947Y-67722276D01*
X132414559Y-67703700D01*
X132414432Y-67703700D01*
X132321753Y-67685290D01*
X132229324Y-67703700D01*
X120838518Y-67703700D01*
X120745928Y-67685290D01*
X120570510Y-67720196D01*
X120379309Y-67758228D01*
X120379278Y-67758249D01*
X120379241Y-67758256D01*
X120216556Y-67866977D01*
X120068443Y-67965943D01*
X120015995Y-68044436D01*
X117495808Y-70565000D01*
X117104561Y-70565000D01*
X116577138Y-70783466D01*
X116173466Y-71187138D01*
X116146475Y-71252299D01*
X116143864Y-71245995D01*
X115897745Y-71171861D01*
X115069605Y-72000000D01*
X115897745Y-72828139D01*
X116143864Y-72754005D01*
X116146290Y-72747254D01*
X116173466Y-72812862D01*
X116577138Y-73216534D01*
X117104561Y-73435000D01*
X117675439Y-73435000D01*
X118202862Y-73216534D01*
X118606534Y-72812862D01*
X118825000Y-72285439D01*
X118825000Y-71893963D01*
X119162667Y-71556245D01*
X129767861Y-71556245D01*
X129841995Y-71802364D01*
X130379223Y-71995465D01*
X130949454Y-71968278D01*
X131350005Y-71802364D01*
X131424139Y-71556245D01*
X130596000Y-70728105D01*
X129767861Y-71556245D01*
X119162667Y-71556245D01*
X121135319Y-69583300D01*
X129495564Y-69583300D01*
X129473378Y-69605486D01*
X129588253Y-69720361D01*
X129342136Y-69794495D01*
X129149035Y-70331723D01*
X129176222Y-70901954D01*
X129342136Y-71302505D01*
X129588255Y-71376639D01*
X130416395Y-70548500D01*
X130402252Y-70534358D01*
X130581858Y-70354752D01*
X130596000Y-70368895D01*
X130610142Y-70354752D01*
X130789748Y-70534358D01*
X130775605Y-70548500D01*
X131603745Y-71376639D01*
X131849864Y-71302505D01*
X131852290Y-71295754D01*
X131879466Y-71361362D01*
X132283138Y-71765034D01*
X132810561Y-71983500D01*
X133381439Y-71983500D01*
X133902317Y-71767745D01*
X144591861Y-71767745D01*
X144665995Y-72013864D01*
X145203223Y-72206965D01*
X145773454Y-72179778D01*
X146174005Y-72013864D01*
X146248139Y-71767745D01*
X145420000Y-70939605D01*
X144591861Y-71767745D01*
X133902317Y-71767745D01*
X133908862Y-71765034D01*
X134312534Y-71361362D01*
X134531000Y-70833939D01*
X134531000Y-70543223D01*
X143973035Y-70543223D01*
X144000222Y-71113454D01*
X144166136Y-71514005D01*
X144412255Y-71588139D01*
X145240395Y-70760000D01*
X144412255Y-69931861D01*
X144166136Y-70005995D01*
X143973035Y-70543223D01*
X134531000Y-70543223D01*
X134531000Y-70442577D01*
X135346358Y-69627220D01*
X135346664Y-69627015D01*
X135410749Y-69562829D01*
X135453778Y-69519800D01*
X144661879Y-69519800D01*
X144591861Y-69752255D01*
X145420000Y-70580395D01*
X145434143Y-70566253D01*
X145613748Y-70745858D01*
X145599605Y-70760000D01*
X146427745Y-71588139D01*
X146673864Y-71514005D01*
X146676290Y-71507254D01*
X146703466Y-71572862D01*
X147107138Y-71976534D01*
X147634561Y-72195000D01*
X148205439Y-72195000D01*
X148258013Y-72173223D01*
X168773035Y-72173223D01*
X168800222Y-72743454D01*
X168966136Y-73144005D01*
X169212255Y-73218139D01*
X170040395Y-72390000D01*
X169212255Y-71561861D01*
X168966136Y-71635995D01*
X168773035Y-72173223D01*
X148258013Y-72173223D01*
X148732862Y-71976534D01*
X149136534Y-71572862D01*
X149215486Y-71382255D01*
X169391861Y-71382255D01*
X170220000Y-72210395D01*
X171048139Y-71382255D01*
X170974005Y-71136136D01*
X170436777Y-70943035D01*
X169866546Y-70970222D01*
X169465995Y-71136136D01*
X169391861Y-71382255D01*
X149215486Y-71382255D01*
X149355000Y-71045439D01*
X149355000Y-70654249D01*
X150553216Y-69456300D01*
X169588713Y-69456300D01*
X171606471Y-71474133D01*
X171503466Y-71577138D01*
X171476475Y-71642299D01*
X171473864Y-71635995D01*
X171227745Y-71561861D01*
X170399605Y-72390000D01*
X171227745Y-73218139D01*
X171473864Y-73144005D01*
X171476290Y-73137254D01*
X171503466Y-73202862D01*
X171907138Y-73606534D01*
X172434561Y-73825000D01*
X173005439Y-73825000D01*
X173532862Y-73606534D01*
X173936534Y-73202862D01*
X174155000Y-72675439D01*
X174155000Y-72283814D01*
X174569372Y-71869300D01*
X188840723Y-71869300D01*
X189536642Y-72565220D01*
X189574728Y-72756690D01*
X189574729Y-72756691D01*
X189574729Y-72756692D01*
X189710805Y-72960343D01*
X189782443Y-73067557D01*
X189860911Y-73119988D01*
X192786384Y-76045462D01*
X192686546Y-76050222D01*
X192285995Y-76216136D01*
X192211861Y-76462255D01*
X193040000Y-77290395D01*
X193054142Y-77276252D01*
X193233748Y-77455858D01*
X193219605Y-77470000D01*
X194047745Y-78298139D01*
X194293864Y-78224005D01*
X194296290Y-78217254D01*
X194323466Y-78282862D01*
X194600200Y-78559596D01*
X194600201Y-79573822D01*
X194545423Y-79610423D01*
X194228260Y-80085091D01*
X194116887Y-80645000D01*
X194228260Y-81204909D01*
X194545423Y-81679577D01*
X194897758Y-81915000D01*
X194545423Y-82150423D01*
X194228260Y-82625091D01*
X194116887Y-83185000D01*
X194228260Y-83744909D01*
X194545423Y-84219577D01*
X194897758Y-84455000D01*
X194545423Y-84690423D01*
X194337732Y-85001255D01*
X194223092Y-85024058D01*
X194187493Y-85031139D01*
X194005341Y-85152849D01*
X194005339Y-85152851D01*
X193943842Y-85193942D01*
X193902750Y-85255440D01*
X193058591Y-86099600D01*
X181728600Y-86099600D01*
X181803113Y-85725000D01*
X181691740Y-85165091D01*
X181374577Y-84690423D01*
X181022242Y-84455000D01*
X181374577Y-84219577D01*
X181691740Y-83744909D01*
X181803113Y-83185000D01*
X181691740Y-82625091D01*
X181374577Y-82150423D01*
X181253894Y-82069785D01*
X181387765Y-82043157D01*
X181597809Y-81902809D01*
X181738157Y-81692765D01*
X181787440Y-81445000D01*
X181787440Y-79845000D01*
X181738157Y-79597235D01*
X181597809Y-79387191D01*
X181387765Y-79246843D01*
X181140000Y-79197560D01*
X179540000Y-79197560D01*
X179292235Y-79246843D01*
X179082191Y-79387191D01*
X178941843Y-79597235D01*
X178892560Y-79845000D01*
X178892560Y-81445000D01*
X178941843Y-81692765D01*
X179082191Y-81902809D01*
X179292235Y-82043157D01*
X179426106Y-82069785D01*
X179305423Y-82150423D01*
X179280032Y-82188423D01*
X178641251Y-81549642D01*
X178600158Y-81488142D01*
X178356507Y-81325339D01*
X178141644Y-81282600D01*
X178141640Y-81282600D01*
X178069100Y-81268171D01*
X177996560Y-81282600D01*
X174019829Y-81282600D01*
X174071740Y-81204909D01*
X174183113Y-80645000D01*
X174071740Y-80085091D01*
X173784501Y-79655208D01*
X174297458Y-79142251D01*
X174358958Y-79101158D01*
X174521761Y-78857507D01*
X174564500Y-78642644D01*
X174564500Y-78642641D01*
X174578929Y-78570101D01*
X174564500Y-78497560D01*
X174564500Y-78477745D01*
X192211861Y-78477745D01*
X192285995Y-78723864D01*
X192823223Y-78916965D01*
X193393454Y-78889778D01*
X193794005Y-78723864D01*
X193868139Y-78477745D01*
X193040000Y-77649605D01*
X192211861Y-78477745D01*
X174564500Y-78477745D01*
X174564500Y-77703240D01*
X174578929Y-77630700D01*
X174564500Y-77558159D01*
X174564500Y-77558156D01*
X174521761Y-77343293D01*
X174486416Y-77290395D01*
X174461579Y-77253223D01*
X191593035Y-77253223D01*
X191620222Y-77823454D01*
X191786136Y-78224005D01*
X192032255Y-78298139D01*
X192860395Y-77470000D01*
X192032255Y-76641861D01*
X191786136Y-76715995D01*
X191593035Y-77253223D01*
X174461579Y-77253223D01*
X174400051Y-77161141D01*
X174400049Y-77161139D01*
X174358958Y-77099642D01*
X174297460Y-77058550D01*
X173788186Y-76549277D01*
X174071740Y-76124909D01*
X174183113Y-75565000D01*
X174071740Y-75005091D01*
X173754577Y-74530423D01*
X173279909Y-74213260D01*
X172861333Y-74130000D01*
X172578667Y-74130000D01*
X172160091Y-74213260D01*
X171685423Y-74530423D01*
X171368260Y-75005091D01*
X171256887Y-75565000D01*
X171362987Y-76098400D01*
X158927440Y-76098400D01*
X158927440Y-74765000D01*
X158878157Y-74517235D01*
X158737809Y-74307191D01*
X158527765Y-74166843D01*
X158280000Y-74117560D01*
X156680000Y-74117560D01*
X156432235Y-74166843D01*
X156222191Y-74307191D01*
X156081843Y-74517235D01*
X156032560Y-74765000D01*
X156032560Y-76098400D01*
X148743679Y-76098400D01*
X148544577Y-75800423D01*
X148192242Y-75565000D01*
X148544577Y-75329577D01*
X148861740Y-74854909D01*
X148973113Y-74295000D01*
X148861740Y-73735091D01*
X148636333Y-73397745D01*
X169391861Y-73397745D01*
X169465995Y-73643864D01*
X170003223Y-73836965D01*
X170573454Y-73809778D01*
X170974005Y-73643864D01*
X171048139Y-73397745D01*
X170220000Y-72569605D01*
X169391861Y-73397745D01*
X148636333Y-73397745D01*
X148544577Y-73260423D01*
X148069909Y-72943260D01*
X147651333Y-72860000D01*
X147368667Y-72860000D01*
X146950091Y-72943260D01*
X146475423Y-73260423D01*
X146158260Y-73735091D01*
X146046887Y-74295000D01*
X146158260Y-74854909D01*
X146475423Y-75329577D01*
X146827758Y-75565000D01*
X146475423Y-75800423D01*
X146158260Y-76275091D01*
X146046887Y-76835000D01*
X146152987Y-77368400D01*
X141247013Y-77368400D01*
X141353113Y-76835000D01*
X141241740Y-76275091D01*
X140924577Y-75800423D01*
X140803894Y-75719785D01*
X140937765Y-75693157D01*
X141147809Y-75552809D01*
X141288157Y-75342765D01*
X141337440Y-75095000D01*
X141337440Y-73495000D01*
X141288157Y-73247235D01*
X141147809Y-73037191D01*
X140937765Y-72896843D01*
X140690000Y-72847560D01*
X139090000Y-72847560D01*
X138842235Y-72896843D01*
X138632191Y-73037191D01*
X138491843Y-73247235D01*
X138442560Y-73495000D01*
X138442560Y-75095000D01*
X138491843Y-75342765D01*
X138632191Y-75552809D01*
X138842235Y-75693157D01*
X138976106Y-75719785D01*
X138855423Y-75800423D01*
X138617704Y-76156195D01*
X135189351Y-72727842D01*
X135148258Y-72666342D01*
X134904607Y-72503539D01*
X134689744Y-72460800D01*
X134689740Y-72460800D01*
X134617200Y-72446371D01*
X134544660Y-72460800D01*
X124296040Y-72460800D01*
X124223499Y-72446371D01*
X124150959Y-72460800D01*
X124150956Y-72460800D01*
X123936093Y-72503539D01*
X123753941Y-72625249D01*
X123753939Y-72625251D01*
X123692442Y-72666342D01*
X123651351Y-72727839D01*
X118184548Y-78194643D01*
X118119915Y-78077000D01*
X116977000Y-78077000D01*
X116977000Y-78097000D01*
X116723000Y-78097000D01*
X116723000Y-78077000D01*
X115580085Y-78077000D01*
X115458096Y-78299039D01*
X115618959Y-78687423D01*
X115994866Y-79102389D01*
X116199108Y-79199053D01*
X115815423Y-79455423D01*
X115498260Y-79930091D01*
X115386887Y-80490000D01*
X115498260Y-81049909D01*
X115815423Y-81524577D01*
X116167758Y-81760000D01*
X115815423Y-81995423D01*
X115498260Y-82470091D01*
X115386887Y-83030000D01*
X115498260Y-83589909D01*
X115787461Y-84022729D01*
X115258442Y-84551749D01*
X115196942Y-84592842D01*
X115034139Y-84836494D01*
X114991400Y-85051357D01*
X114991400Y-85051360D01*
X114976971Y-85123900D01*
X114991400Y-85196440D01*
X114991401Y-92461691D01*
X111646900Y-89117191D01*
X111646900Y-85749540D01*
X111661329Y-85677000D01*
X111646900Y-85604457D01*
X111646900Y-85604456D01*
X111604161Y-85389593D01*
X111557832Y-85320257D01*
X111482451Y-85207441D01*
X111482449Y-85207439D01*
X111441358Y-85145942D01*
X111379861Y-85104851D01*
X110294622Y-84019612D01*
X110581740Y-83589909D01*
X110693113Y-83030000D01*
X110581740Y-82470091D01*
X110264577Y-81995423D01*
X109944007Y-81781225D01*
X109953746Y-81732268D01*
X110264577Y-81524577D01*
X110581740Y-81049909D01*
X110693113Y-80490000D01*
X110581740Y-79930091D01*
X110264577Y-79455423D01*
X109944007Y-79241225D01*
X109953746Y-79192268D01*
X110264577Y-78984577D01*
X110581740Y-78509909D01*
X110693113Y-77950000D01*
X110581740Y-77390091D01*
X110264577Y-76915423D01*
X110158082Y-76844265D01*
X110389698Y-76748327D01*
X110568327Y-76569699D01*
X110665000Y-76336310D01*
X110665000Y-75695750D01*
X110506250Y-75537000D01*
X109357000Y-75537000D01*
X109357000Y-75557000D01*
X109103000Y-75557000D01*
X109103000Y-75537000D01*
X107953750Y-75537000D01*
X107795000Y-75695750D01*
X107795000Y-76336310D01*
X107891673Y-76569699D01*
X108070302Y-76748327D01*
X108301918Y-76844265D01*
X108195423Y-76915423D01*
X107878260Y-77390091D01*
X107766887Y-77950000D01*
X107878260Y-78509909D01*
X108129089Y-78885301D01*
X107224642Y-79789749D01*
X107163142Y-79830842D01*
X107000339Y-80074494D01*
X106957600Y-80289357D01*
X106957600Y-80289360D01*
X106943171Y-80361900D01*
X102310000Y-80361900D01*
X102310000Y-75410000D01*
X115386887Y-75410000D01*
X115498260Y-75969909D01*
X115815423Y-76444577D01*
X116199108Y-76700947D01*
X115994866Y-76797611D01*
X115618959Y-77212577D01*
X115458096Y-77600961D01*
X115580085Y-77823000D01*
X116723000Y-77823000D01*
X116723000Y-77803000D01*
X116977000Y-77803000D01*
X116977000Y-77823000D01*
X118119915Y-77823000D01*
X118241904Y-77600961D01*
X118081041Y-77212577D01*
X117705134Y-76797611D01*
X117500892Y-76700947D01*
X117884577Y-76444577D01*
X118201740Y-75969909D01*
X118313113Y-75410000D01*
X118201740Y-74850091D01*
X117884577Y-74375423D01*
X117409909Y-74058260D01*
X116991333Y-73975000D01*
X116708667Y-73975000D01*
X116290091Y-74058260D01*
X115815423Y-74375423D01*
X115498260Y-74850091D01*
X115386887Y-75410000D01*
X102310000Y-75410000D01*
X102310000Y-74483690D01*
X107795000Y-74483690D01*
X107795000Y-75124250D01*
X107953750Y-75283000D01*
X109103000Y-75283000D01*
X109103000Y-74133750D01*
X109357000Y-74133750D01*
X109357000Y-75283000D01*
X110506250Y-75283000D01*
X110665000Y-75124250D01*
X110665000Y-74483690D01*
X110568327Y-74250301D01*
X110389698Y-74071673D01*
X110156309Y-73975000D01*
X109515750Y-73975000D01*
X109357000Y-74133750D01*
X109103000Y-74133750D01*
X108944250Y-73975000D01*
X108303691Y-73975000D01*
X108070302Y-74071673D01*
X107891673Y-74250301D01*
X107795000Y-74483690D01*
X102310000Y-74483690D01*
X102310000Y-73007745D01*
X114061861Y-73007745D01*
X114135995Y-73253864D01*
X114673223Y-73446965D01*
X115243454Y-73419778D01*
X115644005Y-73253864D01*
X115718139Y-73007745D01*
X114890000Y-72179605D01*
X114061861Y-73007745D01*
X102310000Y-73007745D01*
X102310000Y-71783223D01*
X113443035Y-71783223D01*
X113470222Y-72353454D01*
X113636136Y-72754005D01*
X113882255Y-72828139D01*
X114710395Y-72000000D01*
X113882255Y-71171861D01*
X113636136Y-71245995D01*
X113443035Y-71783223D01*
X102310000Y-71783223D01*
X102310000Y-70992255D01*
X114061861Y-70992255D01*
X114890000Y-71820395D01*
X115718139Y-70992255D01*
X115644005Y-70746136D01*
X115106777Y-70553035D01*
X114536546Y-70580222D01*
X114135995Y-70746136D01*
X114061861Y-70992255D01*
X102310000Y-70992255D01*
X102310000Y-67755431D01*
X104415000Y-67755431D01*
X104415000Y-68644569D01*
X104755259Y-69466026D01*
X105383974Y-70094741D01*
X106205431Y-70435000D01*
X107094569Y-70435000D01*
X107916026Y-70094741D01*
X108544741Y-69466026D01*
X108885000Y-68644569D01*
X108885000Y-67755431D01*
X108544741Y-66933974D01*
X107916026Y-66305259D01*
X107094569Y-65965000D01*
X106205431Y-65965000D01*
X105383974Y-66305259D01*
X104755259Y-66933974D01*
X104415000Y-67755431D01*
X102310000Y-67755431D01*
X102310000Y-64210000D01*
X199950000Y-64210000D01*
X199950001Y-137541262D01*
X199950001Y-137541262D01*
G37*
X199950001Y-137541262D02*
X102361782Y-137667835D01*
X102355083Y-133775431D01*
X104315000Y-133775431D01*
X104315000Y-134664569D01*
X104655259Y-135486026D01*
X105283974Y-136114741D01*
X106105431Y-136455000D01*
X106994569Y-136455000D01*
X107816026Y-136114741D01*
X108444741Y-135486026D01*
X108785000Y-134664569D01*
X108785000Y-133775431D01*
X108444741Y-132953974D01*
X107816026Y-132325259D01*
X106994569Y-131985000D01*
X106105431Y-131985000D01*
X105283974Y-132325259D01*
X104655259Y-132953974D01*
X104315000Y-133775431D01*
X102355083Y-133775431D01*
X102327243Y-117600000D01*
X110272560Y-117600000D01*
X110272560Y-119600000D01*
X110321843Y-119847765D01*
X110462191Y-120057809D01*
X110598723Y-120149038D01*
X110533914Y-120213847D01*
X110285000Y-120814778D01*
X110285000Y-121465222D01*
X110533914Y-122066153D01*
X110993847Y-122526086D01*
X111183400Y-122604602D01*
X111183400Y-123527000D01*
X111066139Y-123702494D01*
X111036255Y-123852732D01*
X110725423Y-124060423D01*
X110408260Y-124535091D01*
X110296887Y-125095000D01*
X110408260Y-125654909D01*
X110725423Y-126129577D01*
X111200091Y-126446740D01*
X111618667Y-126530000D01*
X111901333Y-126530000D01*
X112319909Y-126446740D01*
X112794577Y-126129577D01*
X113111740Y-125654909D01*
X113223113Y-125095000D01*
X113111740Y-124535091D01*
X112794577Y-124060423D01*
X112645050Y-123960512D01*
X112656600Y-123902444D01*
X112656600Y-123902441D01*
X112671029Y-123829901D01*
X112656600Y-123757360D01*
X112656600Y-122604601D01*
X112846153Y-122526086D01*
X113306086Y-122066153D01*
X113555000Y-121465222D01*
X113555000Y-120814778D01*
X113306086Y-120213847D01*
X113241277Y-120149038D01*
X113377809Y-120057809D01*
X113518157Y-119847765D01*
X113567440Y-119600000D01*
X113567440Y-117600000D01*
X113518157Y-117352235D01*
X113377809Y-117142191D01*
X113167765Y-117001843D01*
X112920000Y-116952560D01*
X110920000Y-116952560D01*
X110672235Y-117001843D01*
X110462191Y-117142191D01*
X110321843Y-117352235D01*
X110272560Y-117600000D01*
X102327243Y-117600000D01*
X102318121Y-112300561D01*
X108674000Y-112300561D01*
X108674000Y-112871439D01*
X108892466Y-113398862D01*
X109296138Y-113802534D01*
X109823561Y-114021000D01*
X110394439Y-114021000D01*
X110921862Y-113802534D01*
X111325534Y-113398862D01*
X111544000Y-112871439D01*
X111544000Y-112300561D01*
X111325534Y-111773138D01*
X110921862Y-111369466D01*
X110394439Y-111151000D01*
X109823561Y-111151000D01*
X109296138Y-111369466D01*
X108892466Y-111773138D01*
X108674000Y-112300561D01*
X102318121Y-112300561D01*
X102310000Y-107582603D01*
X102310000Y-80361900D01*
X106943171Y-80361900D01*
X106957600Y-80434440D01*
X106957601Y-104539455D01*
X106943171Y-104612000D01*
X107000339Y-104899406D01*
X107122049Y-105081558D01*
X107122052Y-105081561D01*
X107163143Y-105143058D01*
X107224640Y-105184149D01*
X119073050Y-117032560D01*
X117370000Y-117032560D01*
X117122235Y-117081843D01*
X116912191Y-117222191D01*
X116771843Y-117432235D01*
X116722560Y-117680000D01*
X116722560Y-119680000D01*
X116771843Y-119927765D01*
X116912191Y-120137809D01*
X117048723Y-120229038D01*
X116983914Y-120293847D01*
X116735000Y-120894778D01*
X116735000Y-121545222D01*
X116983914Y-122146153D01*
X117443847Y-122606086D01*
X117633400Y-122684602D01*
X117633400Y-123422455D01*
X117578943Y-123458842D01*
X117537852Y-123520339D01*
X117537849Y-123520342D01*
X117416139Y-123702494D01*
X117386255Y-123852732D01*
X117075423Y-124060423D01*
X116758260Y-124535091D01*
X116646887Y-125095000D01*
X116758260Y-125654909D01*
X117075423Y-126129577D01*
X117550091Y-126446740D01*
X117968667Y-126530000D01*
X118251333Y-126530000D01*
X118669909Y-126446740D01*
X119144577Y-126129577D01*
X119461740Y-125654909D01*
X119573113Y-125095000D01*
X119461740Y-124535091D01*
X119144577Y-124060423D01*
X119065760Y-124007759D01*
X119106600Y-123802444D01*
X119106600Y-123802440D01*
X119121029Y-123729900D01*
X119106600Y-123657360D01*
X119106600Y-122684601D01*
X119296153Y-122606086D01*
X119756086Y-122146153D01*
X120005000Y-121545222D01*
X120005000Y-120894778D01*
X119756086Y-120293847D01*
X119691277Y-120229038D01*
X119827809Y-120137809D01*
X119968157Y-119927765D01*
X120017440Y-119680000D01*
X120017440Y-117976950D01*
X126000790Y-123960300D01*
X125919570Y-124014570D01*
X125588350Y-124510275D01*
X125472041Y-125095000D01*
X125588350Y-125679725D01*
X125919570Y-126175430D01*
X126203281Y-126365000D01*
X125919570Y-126554570D01*
X125588350Y-127050275D01*
X125472041Y-127635000D01*
X125588350Y-128219725D01*
X125919570Y-128715430D01*
X126415275Y-129046650D01*
X126852402Y-129133600D01*
X127147598Y-129133600D01*
X127584725Y-129046650D01*
X128080430Y-128715430D01*
X128270000Y-128431719D01*
X128459570Y-128715430D01*
X128955275Y-129046650D01*
X129392402Y-129133600D01*
X129687598Y-129133600D01*
X130124725Y-129046650D01*
X130478833Y-128810042D01*
X131839450Y-130170660D01*
X131880542Y-130232158D01*
X131942039Y-130273249D01*
X131942041Y-130273251D01*
X132124193Y-130394961D01*
X132339056Y-130437700D01*
X132339059Y-130437700D01*
X132411599Y-130452129D01*
X132484140Y-130437700D01*
X167189660Y-130437700D01*
X167262200Y-130452129D01*
X167334740Y-130437700D01*
X167334744Y-130437700D01*
X167549607Y-130394961D01*
X167793258Y-130232158D01*
X167834351Y-130170658D01*
X169213473Y-128791537D01*
X169595275Y-129046650D01*
X170032402Y-129133600D01*
X170327598Y-129133600D01*
X170764725Y-129046650D01*
X171260430Y-128715430D01*
X171461854Y-128413979D01*
X171513179Y-128523490D01*
X171945053Y-128917688D01*
X172360974Y-129089958D01*
X172593000Y-128968817D01*
X172593000Y-127762000D01*
X172847000Y-127762000D01*
X172847000Y-128968817D01*
X173079026Y-129089958D01*
X173494947Y-128917688D01*
X173926821Y-128523490D01*
X173990000Y-128388687D01*
X174053179Y-128523490D01*
X174485053Y-128917688D01*
X174900974Y-129089958D01*
X175133000Y-128968817D01*
X175133000Y-127762000D01*
X175387000Y-127762000D01*
X175387000Y-128968817D01*
X175619026Y-129089958D01*
X176034947Y-128917688D01*
X176466821Y-128523490D01*
X176714968Y-127994027D01*
X176594469Y-127762000D01*
X175387000Y-127762000D01*
X175133000Y-127762000D01*
X172847000Y-127762000D01*
X172593000Y-127762000D01*
X172573000Y-127762000D01*
X172573000Y-127508000D01*
X172593000Y-127508000D01*
X172593000Y-127488000D01*
X172847000Y-127488000D01*
X172847000Y-127508000D01*
X175133000Y-127508000D01*
X175133000Y-127488000D01*
X175387000Y-127488000D01*
X175387000Y-127508000D01*
X176594469Y-127508000D01*
X176714968Y-127275973D01*
X176466821Y-126746510D01*
X176279050Y-126575119D01*
X176371365Y-126556757D01*
X176581409Y-126416409D01*
X176721757Y-126206365D01*
X176755883Y-126034800D01*
X181585723Y-126034800D01*
X184680701Y-129129778D01*
X184632191Y-129162191D01*
X184491843Y-129372235D01*
X184442560Y-129620000D01*
X184442560Y-131220000D01*
X184491843Y-131467765D01*
X184632191Y-131677809D01*
X184680700Y-131710222D01*
X182075723Y-134315200D01*
X119199596Y-134315200D01*
X118922862Y-134038466D01*
X118395439Y-133820000D01*
X117824561Y-133820000D01*
X117297138Y-134038466D01*
X117020404Y-134315200D01*
X112849596Y-134315200D01*
X112572862Y-134038466D01*
X112045439Y-133820000D01*
X111474561Y-133820000D01*
X110947138Y-134038466D01*
X110543466Y-134442138D01*
X110325000Y-134969561D01*
X110325000Y-135540439D01*
X110543466Y-136067862D01*
X110947138Y-136471534D01*
X111474561Y-136690000D01*
X112045439Y-136690000D01*
X112572862Y-136471534D01*
X112849596Y-136194800D01*
X117020404Y-136194800D01*
X117297138Y-136471534D01*
X117824561Y-136690000D01*
X118395439Y-136690000D01*
X118922862Y-136471534D01*
X119199596Y-136194800D01*
X182372446Y-136194800D01*
X182465000Y-136213210D01*
X182557554Y-136194800D01*
X182557559Y-136194800D01*
X182831691Y-136140272D01*
X183142557Y-135932557D01*
X183194988Y-135854089D01*
X185373646Y-133675431D01*
X193405000Y-133675431D01*
X193405000Y-134564569D01*
X193745259Y-135386026D01*
X194373974Y-136014741D01*
X195195431Y-136355000D01*
X196084569Y-136355000D01*
X196906026Y-136014741D01*
X197534741Y-135386026D01*
X197875000Y-134564569D01*
X197875000Y-133675431D01*
X197534741Y-132853974D01*
X196906026Y-132225259D01*
X196084569Y-131885000D01*
X195195431Y-131885000D01*
X194373974Y-132225259D01*
X193745259Y-132853974D01*
X193405000Y-133675431D01*
X185373646Y-133675431D01*
X186489093Y-132559985D01*
X186567557Y-132507557D01*
X186689366Y-132325259D01*
X186775271Y-132196693D01*
X186775271Y-132196692D01*
X186775272Y-132196691D01*
X186829800Y-131922559D01*
X186829800Y-131922551D01*
X186846973Y-131836217D01*
X186937765Y-131818157D01*
X187147809Y-131677809D01*
X187288157Y-131467765D01*
X187296117Y-131427745D01*
X187561861Y-131427745D01*
X187635995Y-131673864D01*
X188173223Y-131866965D01*
X188743454Y-131839778D01*
X189144005Y-131673864D01*
X189218139Y-131427745D01*
X188390000Y-130599605D01*
X187561861Y-131427745D01*
X187296117Y-131427745D01*
X187334693Y-131233813D01*
X187382255Y-131248139D01*
X188210395Y-130420000D01*
X188569605Y-130420000D01*
X189397745Y-131248139D01*
X189643864Y-131174005D01*
X189836965Y-130636777D01*
X189809778Y-130066546D01*
X189643864Y-129665995D01*
X189397745Y-129591861D01*
X188569605Y-130420000D01*
X188210395Y-130420000D01*
X187382255Y-129591861D01*
X187334693Y-129606187D01*
X187296118Y-129412255D01*
X187561861Y-129412255D01*
X188390000Y-130240395D01*
X189218139Y-129412255D01*
X189144005Y-129166136D01*
X188606777Y-128973035D01*
X188036546Y-129000222D01*
X187635995Y-129166136D01*
X187561861Y-129412255D01*
X187296118Y-129412255D01*
X187288157Y-129372235D01*
X187147809Y-129162191D01*
X187099299Y-129129778D01*
X198592093Y-117636985D01*
X198670557Y-117584557D01*
X198722986Y-117506092D01*
X198722988Y-117506090D01*
X198878271Y-117273692D01*
X198878272Y-117273691D01*
X198932800Y-116999559D01*
X198932800Y-116999554D01*
X198951210Y-116907000D01*
X198932800Y-116814446D01*
X198932800Y-82465658D01*
X198951211Y-82373100D01*
X198932800Y-82280541D01*
X198932800Y-80015554D01*
X198951210Y-79923000D01*
X198932800Y-79830446D01*
X198932800Y-79830441D01*
X198878272Y-79556309D01*
X198857124Y-79524659D01*
X198722988Y-79323910D01*
X198722986Y-79323908D01*
X198670557Y-79245443D01*
X198592092Y-79193014D01*
X196975000Y-77575923D01*
X196975000Y-77184561D01*
X196756534Y-76657138D01*
X196352862Y-76253466D01*
X195825439Y-76035000D01*
X195434078Y-76035000D01*
X191383358Y-71984281D01*
X191345272Y-71792809D01*
X191291573Y-71712443D01*
X191189988Y-71560410D01*
X191189986Y-71560408D01*
X191137557Y-71481943D01*
X191059092Y-71429514D01*
X189959987Y-70330410D01*
X189907557Y-70251943D01*
X189596691Y-70044228D01*
X189322559Y-69989700D01*
X189322554Y-69989700D01*
X189230000Y-69971290D01*
X189137446Y-69989700D01*
X174272472Y-69989700D01*
X174179835Y-69971290D01*
X174001527Y-70006789D01*
X173813309Y-70044228D01*
X173813238Y-70044276D01*
X173813156Y-70044292D01*
X173655250Y-70149840D01*
X173502443Y-70251943D01*
X173449970Y-70330474D01*
X173285491Y-70495010D01*
X170707991Y-67917416D01*
X170655557Y-67838943D01*
X170504244Y-67737839D01*
X170455745Y-67705431D01*
X193405000Y-67705431D01*
X193405000Y-68594569D01*
X193745259Y-69416026D01*
X194373974Y-70044741D01*
X195195431Y-70385000D01*
X196084569Y-70385000D01*
X196906026Y-70044741D01*
X197534741Y-69416026D01*
X197875000Y-68594569D01*
X197875000Y-67705431D01*
X197534741Y-66883974D01*
X196906026Y-66255259D01*
X196084569Y-65915000D01*
X195195431Y-65915000D01*
X194373974Y-66255259D01*
X193745259Y-66883974D01*
X193405000Y-67705431D01*
X170455745Y-67705431D01*
X170344708Y-67631236D01*
X170344701Y-67631235D01*
X170344691Y-67631228D01*
X170101133Y-67582781D01*
X169978017Y-67558290D01*
X169885454Y-67576700D01*
X150256606Y-67576700D01*
X150164106Y-67558290D01*
X150071498Y-67576700D01*
X150071441Y-67576700D01*
X149974652Y-67595952D01*
X149797406Y-67631188D01*
X149797362Y-67631217D01*
X149797309Y-67631228D01*
X149647497Y-67731329D01*
X149564991Y-67786445D01*
X149564950Y-67786486D01*
X149486443Y-67838943D01*
X149434045Y-67917362D01*
X148026094Y-69325000D01*
X147814078Y-69325000D01*
X146469988Y-67980910D01*
X146417557Y-67902443D01*
X146106691Y-67694728D01*
X145832559Y-67640200D01*
X145832554Y-67640200D01*
X145740000Y-67621790D01*
X145647446Y-67640200D01*
X135156176Y-67640200D01*
X135063244Y-67621791D01*
X134881660Y-67658059D01*
X134697309Y-67694728D01*
X134696988Y-67694943D01*
X134696611Y-67695018D01*
X134541655Y-67798733D01*
X134386443Y-67902443D01*
X134333805Y-67981221D01*
X134083022Y-68232400D01*
X133661674Y-68653748D01*
X133051920Y-68044309D01*
X132999557Y-67965943D01*
X132920987Y-67913444D01*
X132920901Y-67913358D01*
X132844634Y-67862426D01*
X132688691Y-67758228D01*
X132688567Y-67758203D01*
X132688463Y-67758134D01*
X132507947Y-67722276D01*
X132414559Y-67703700D01*
X132414432Y-67703700D01*
X132321753Y-67685290D01*
X132229324Y-67703700D01*
X120838518Y-67703700D01*
X120745928Y-67685290D01*
X120570510Y-67720196D01*
X120379309Y-67758228D01*
X120379278Y-67758249D01*
X120379241Y-67758256D01*
X120216556Y-67866977D01*
X120068443Y-67965943D01*
X120015995Y-68044436D01*
X117495808Y-70565000D01*
X117104561Y-70565000D01*
X116577138Y-70783466D01*
X116173466Y-71187138D01*
X116146475Y-71252299D01*
X116143864Y-71245995D01*
X115897745Y-71171861D01*
X115069605Y-72000000D01*
X115897745Y-72828139D01*
X116143864Y-72754005D01*
X116146290Y-72747254D01*
X116173466Y-72812862D01*
X116577138Y-73216534D01*
X117104561Y-73435000D01*
X117675439Y-73435000D01*
X118202862Y-73216534D01*
X118606534Y-72812862D01*
X118825000Y-72285439D01*
X118825000Y-71893963D01*
X119162667Y-71556245D01*
X129767861Y-71556245D01*
X129841995Y-71802364D01*
X130379223Y-71995465D01*
X130949454Y-71968278D01*
X131350005Y-71802364D01*
X131424139Y-71556245D01*
X130596000Y-70728105D01*
X129767861Y-71556245D01*
X119162667Y-71556245D01*
X121135319Y-69583300D01*
X129495564Y-69583300D01*
X129473378Y-69605486D01*
X129588253Y-69720361D01*
X129342136Y-69794495D01*
X129149035Y-70331723D01*
X129176222Y-70901954D01*
X129342136Y-71302505D01*
X129588255Y-71376639D01*
X130416395Y-70548500D01*
X130402252Y-70534358D01*
X130581858Y-70354752D01*
X130596000Y-70368895D01*
X130610142Y-70354752D01*
X130789748Y-70534358D01*
X130775605Y-70548500D01*
X131603745Y-71376639D01*
X131849864Y-71302505D01*
X131852290Y-71295754D01*
X131879466Y-71361362D01*
X132283138Y-71765034D01*
X132810561Y-71983500D01*
X133381439Y-71983500D01*
X133902317Y-71767745D01*
X144591861Y-71767745D01*
X144665995Y-72013864D01*
X145203223Y-72206965D01*
X145773454Y-72179778D01*
X146174005Y-72013864D01*
X146248139Y-71767745D01*
X145420000Y-70939605D01*
X144591861Y-71767745D01*
X133902317Y-71767745D01*
X133908862Y-71765034D01*
X134312534Y-71361362D01*
X134531000Y-70833939D01*
X134531000Y-70543223D01*
X143973035Y-70543223D01*
X144000222Y-71113454D01*
X144166136Y-71514005D01*
X144412255Y-71588139D01*
X145240395Y-70760000D01*
X144412255Y-69931861D01*
X144166136Y-70005995D01*
X143973035Y-70543223D01*
X134531000Y-70543223D01*
X134531000Y-70442577D01*
X135346358Y-69627220D01*
X135346664Y-69627015D01*
X135410749Y-69562829D01*
X135453778Y-69519800D01*
X144661879Y-69519800D01*
X144591861Y-69752255D01*
X145420000Y-70580395D01*
X145434143Y-70566253D01*
X145613748Y-70745858D01*
X145599605Y-70760000D01*
X146427745Y-71588139D01*
X146673864Y-71514005D01*
X146676290Y-71507254D01*
X146703466Y-71572862D01*
X147107138Y-71976534D01*
X147634561Y-72195000D01*
X148205439Y-72195000D01*
X148258013Y-72173223D01*
X168773035Y-72173223D01*
X168800222Y-72743454D01*
X168966136Y-73144005D01*
X169212255Y-73218139D01*
X170040395Y-72390000D01*
X169212255Y-71561861D01*
X168966136Y-71635995D01*
X168773035Y-72173223D01*
X148258013Y-72173223D01*
X148732862Y-71976534D01*
X149136534Y-71572862D01*
X149215486Y-71382255D01*
X169391861Y-71382255D01*
X170220000Y-72210395D01*
X171048139Y-71382255D01*
X170974005Y-71136136D01*
X170436777Y-70943035D01*
X169866546Y-70970222D01*
X169465995Y-71136136D01*
X169391861Y-71382255D01*
X149215486Y-71382255D01*
X149355000Y-71045439D01*
X149355000Y-70654249D01*
X150553216Y-69456300D01*
X169588713Y-69456300D01*
X171606471Y-71474133D01*
X171503466Y-71577138D01*
X171476475Y-71642299D01*
X171473864Y-71635995D01*
X171227745Y-71561861D01*
X170399605Y-72390000D01*
X171227745Y-73218139D01*
X171473864Y-73144005D01*
X171476290Y-73137254D01*
X171503466Y-73202862D01*
X171907138Y-73606534D01*
X172434561Y-73825000D01*
X173005439Y-73825000D01*
X173532862Y-73606534D01*
X173936534Y-73202862D01*
X174155000Y-72675439D01*
X174155000Y-72283814D01*
X174569372Y-71869300D01*
X188840723Y-71869300D01*
X189536642Y-72565220D01*
X189574728Y-72756690D01*
X189574729Y-72756691D01*
X189574729Y-72756692D01*
X189710805Y-72960343D01*
X189782443Y-73067557D01*
X189860911Y-73119988D01*
X192786384Y-76045462D01*
X192686546Y-76050222D01*
X192285995Y-76216136D01*
X192211861Y-76462255D01*
X193040000Y-77290395D01*
X193054142Y-77276252D01*
X193233748Y-77455858D01*
X193219605Y-77470000D01*
X194047745Y-78298139D01*
X194293864Y-78224005D01*
X194296290Y-78217254D01*
X194323466Y-78282862D01*
X194600200Y-78559596D01*
X194600201Y-79573822D01*
X194545423Y-79610423D01*
X194228260Y-80085091D01*
X194116887Y-80645000D01*
X194228260Y-81204909D01*
X194545423Y-81679577D01*
X194897758Y-81915000D01*
X194545423Y-82150423D01*
X194228260Y-82625091D01*
X194116887Y-83185000D01*
X194228260Y-83744909D01*
X194545423Y-84219577D01*
X194897758Y-84455000D01*
X194545423Y-84690423D01*
X194337732Y-85001255D01*
X194223092Y-85024058D01*
X194187493Y-85031139D01*
X194005341Y-85152849D01*
X194005339Y-85152851D01*
X193943842Y-85193942D01*
X193902750Y-85255440D01*
X193058591Y-86099600D01*
X181728600Y-86099600D01*
X181803113Y-85725000D01*
X181691740Y-85165091D01*
X181374577Y-84690423D01*
X181022242Y-84455000D01*
X181374577Y-84219577D01*
X181691740Y-83744909D01*
X181803113Y-83185000D01*
X181691740Y-82625091D01*
X181374577Y-82150423D01*
X181253894Y-82069785D01*
X181387765Y-82043157D01*
X181597809Y-81902809D01*
X181738157Y-81692765D01*
X181787440Y-81445000D01*
X181787440Y-79845000D01*
X181738157Y-79597235D01*
X181597809Y-79387191D01*
X181387765Y-79246843D01*
X181140000Y-79197560D01*
X179540000Y-79197560D01*
X179292235Y-79246843D01*
X179082191Y-79387191D01*
X178941843Y-79597235D01*
X178892560Y-79845000D01*
X178892560Y-81445000D01*
X178941843Y-81692765D01*
X179082191Y-81902809D01*
X179292235Y-82043157D01*
X179426106Y-82069785D01*
X179305423Y-82150423D01*
X179280032Y-82188423D01*
X178641251Y-81549642D01*
X178600158Y-81488142D01*
X178356507Y-81325339D01*
X178141644Y-81282600D01*
X178141640Y-81282600D01*
X178069100Y-81268171D01*
X177996560Y-81282600D01*
X174019829Y-81282600D01*
X174071740Y-81204909D01*
X174183113Y-80645000D01*
X174071740Y-80085091D01*
X173784501Y-79655208D01*
X174297458Y-79142251D01*
X174358958Y-79101158D01*
X174521761Y-78857507D01*
X174564500Y-78642644D01*
X174564500Y-78642641D01*
X174578929Y-78570101D01*
X174564500Y-78497560D01*
X174564500Y-78477745D01*
X192211861Y-78477745D01*
X192285995Y-78723864D01*
X192823223Y-78916965D01*
X193393454Y-78889778D01*
X193794005Y-78723864D01*
X193868139Y-78477745D01*
X193040000Y-77649605D01*
X192211861Y-78477745D01*
X174564500Y-78477745D01*
X174564500Y-77703240D01*
X174578929Y-77630700D01*
X174564500Y-77558159D01*
X174564500Y-77558156D01*
X174521761Y-77343293D01*
X174486416Y-77290395D01*
X174461579Y-77253223D01*
X191593035Y-77253223D01*
X191620222Y-77823454D01*
X191786136Y-78224005D01*
X192032255Y-78298139D01*
X192860395Y-77470000D01*
X192032255Y-76641861D01*
X191786136Y-76715995D01*
X191593035Y-77253223D01*
X174461579Y-77253223D01*
X174400051Y-77161141D01*
X174400049Y-77161139D01*
X174358958Y-77099642D01*
X174297460Y-77058550D01*
X173788186Y-76549277D01*
X174071740Y-76124909D01*
X174183113Y-75565000D01*
X174071740Y-75005091D01*
X173754577Y-74530423D01*
X173279909Y-74213260D01*
X172861333Y-74130000D01*
X172578667Y-74130000D01*
X172160091Y-74213260D01*
X171685423Y-74530423D01*
X171368260Y-75005091D01*
X171256887Y-75565000D01*
X171362987Y-76098400D01*
X158927440Y-76098400D01*
X158927440Y-74765000D01*
X158878157Y-74517235D01*
X158737809Y-74307191D01*
X158527765Y-74166843D01*
X158280000Y-74117560D01*
X156680000Y-74117560D01*
X156432235Y-74166843D01*
X156222191Y-74307191D01*
X156081843Y-74517235D01*
X156032560Y-74765000D01*
X156032560Y-76098400D01*
X148743679Y-76098400D01*
X148544577Y-75800423D01*
X148192242Y-75565000D01*
X148544577Y-75329577D01*
X148861740Y-74854909D01*
X148973113Y-74295000D01*
X148861740Y-73735091D01*
X148636333Y-73397745D01*
X169391861Y-73397745D01*
X169465995Y-73643864D01*
X170003223Y-73836965D01*
X170573454Y-73809778D01*
X170974005Y-73643864D01*
X171048139Y-73397745D01*
X170220000Y-72569605D01*
X169391861Y-73397745D01*
X148636333Y-73397745D01*
X148544577Y-73260423D01*
X148069909Y-72943260D01*
X147651333Y-72860000D01*
X147368667Y-72860000D01*
X146950091Y-72943260D01*
X146475423Y-73260423D01*
X146158260Y-73735091D01*
X146046887Y-74295000D01*
X146158260Y-74854909D01*
X146475423Y-75329577D01*
X146827758Y-75565000D01*
X146475423Y-75800423D01*
X146158260Y-76275091D01*
X146046887Y-76835000D01*
X146152987Y-77368400D01*
X141247013Y-77368400D01*
X141353113Y-76835000D01*
X141241740Y-76275091D01*
X140924577Y-75800423D01*
X140803894Y-75719785D01*
X140937765Y-75693157D01*
X141147809Y-75552809D01*
X141288157Y-75342765D01*
X141337440Y-75095000D01*
X141337440Y-73495000D01*
X141288157Y-73247235D01*
X141147809Y-73037191D01*
X140937765Y-72896843D01*
X140690000Y-72847560D01*
X139090000Y-72847560D01*
X138842235Y-72896843D01*
X138632191Y-73037191D01*
X138491843Y-73247235D01*
X138442560Y-73495000D01*
X138442560Y-75095000D01*
X138491843Y-75342765D01*
X138632191Y-75552809D01*
X138842235Y-75693157D01*
X138976106Y-75719785D01*
X138855423Y-75800423D01*
X138617704Y-76156195D01*
X135189351Y-72727842D01*
X135148258Y-72666342D01*
X134904607Y-72503539D01*
X134689744Y-72460800D01*
X134689740Y-72460800D01*
X134617200Y-72446371D01*
X134544660Y-72460800D01*
X124296040Y-72460800D01*
X124223499Y-72446371D01*
X124150959Y-72460800D01*
X124150956Y-72460800D01*
X123936093Y-72503539D01*
X123753941Y-72625249D01*
X123753939Y-72625251D01*
X123692442Y-72666342D01*
X123651351Y-72727839D01*
X118184548Y-78194643D01*
X118119915Y-78077000D01*
X116977000Y-78077000D01*
X116977000Y-78097000D01*
X116723000Y-78097000D01*
X116723000Y-78077000D01*
X115580085Y-78077000D01*
X115458096Y-78299039D01*
X115618959Y-78687423D01*
X115994866Y-79102389D01*
X116199108Y-79199053D01*
X115815423Y-79455423D01*
X115498260Y-79930091D01*
X115386887Y-80490000D01*
X115498260Y-81049909D01*
X115815423Y-81524577D01*
X116167758Y-81760000D01*
X115815423Y-81995423D01*
X115498260Y-82470091D01*
X115386887Y-83030000D01*
X115498260Y-83589909D01*
X115787461Y-84022729D01*
X115258442Y-84551749D01*
X115196942Y-84592842D01*
X115034139Y-84836494D01*
X114991400Y-85051357D01*
X114991400Y-85051360D01*
X114976971Y-85123900D01*
X114991400Y-85196440D01*
X114991401Y-92461691D01*
X111646900Y-89117191D01*
X111646900Y-85749540D01*
X111661329Y-85677000D01*
X111646900Y-85604457D01*
X111646900Y-85604456D01*
X111604161Y-85389593D01*
X111557832Y-85320257D01*
X111482451Y-85207441D01*
X111482449Y-85207439D01*
X111441358Y-85145942D01*
X111379861Y-85104851D01*
X110294622Y-84019612D01*
X110581740Y-83589909D01*
X110693113Y-83030000D01*
X110581740Y-82470091D01*
X110264577Y-81995423D01*
X109944007Y-81781225D01*
X109953746Y-81732268D01*
X110264577Y-81524577D01*
X110581740Y-81049909D01*
X110693113Y-80490000D01*
X110581740Y-79930091D01*
X110264577Y-79455423D01*
X109944007Y-79241225D01*
X109953746Y-79192268D01*
X110264577Y-78984577D01*
X110581740Y-78509909D01*
X110693113Y-77950000D01*
X110581740Y-77390091D01*
X110264577Y-76915423D01*
X110158082Y-76844265D01*
X110389698Y-76748327D01*
X110568327Y-76569699D01*
X110665000Y-76336310D01*
X110665000Y-75695750D01*
X110506250Y-75537000D01*
X109357000Y-75537000D01*
X109357000Y-75557000D01*
X109103000Y-75557000D01*
X109103000Y-75537000D01*
X107953750Y-75537000D01*
X107795000Y-75695750D01*
X107795000Y-76336310D01*
X107891673Y-76569699D01*
X108070302Y-76748327D01*
X108301918Y-76844265D01*
X108195423Y-76915423D01*
X107878260Y-77390091D01*
X107766887Y-77950000D01*
X107878260Y-78509909D01*
X108129089Y-78885301D01*
X107224642Y-79789749D01*
X107163142Y-79830842D01*
X107000339Y-80074494D01*
X106957600Y-80289357D01*
X106957600Y-80289360D01*
X106943171Y-80361900D01*
X102310000Y-80361900D01*
X102310000Y-75410000D01*
X115386887Y-75410000D01*
X115498260Y-75969909D01*
X115815423Y-76444577D01*
X116199108Y-76700947D01*
X115994866Y-76797611D01*
X115618959Y-77212577D01*
X115458096Y-77600961D01*
X115580085Y-77823000D01*
X116723000Y-77823000D01*
X116723000Y-77803000D01*
X116977000Y-77803000D01*
X116977000Y-77823000D01*
X118119915Y-77823000D01*
X118241904Y-77600961D01*
X118081041Y-77212577D01*
X117705134Y-76797611D01*
X117500892Y-76700947D01*
X117884577Y-76444577D01*
X118201740Y-75969909D01*
X118313113Y-75410000D01*
X118201740Y-74850091D01*
X117884577Y-74375423D01*
X117409909Y-74058260D01*
X116991333Y-73975000D01*
X116708667Y-73975000D01*
X116290091Y-74058260D01*
X115815423Y-74375423D01*
X115498260Y-74850091D01*
X115386887Y-75410000D01*
X102310000Y-75410000D01*
X102310000Y-74483690D01*
X107795000Y-74483690D01*
X107795000Y-75124250D01*
X107953750Y-75283000D01*
X109103000Y-75283000D01*
X109103000Y-74133750D01*
X109357000Y-74133750D01*
X109357000Y-75283000D01*
X110506250Y-75283000D01*
X110665000Y-75124250D01*
X110665000Y-74483690D01*
X110568327Y-74250301D01*
X110389698Y-74071673D01*
X110156309Y-73975000D01*
X109515750Y-73975000D01*
X109357000Y-74133750D01*
X109103000Y-74133750D01*
X108944250Y-73975000D01*
X108303691Y-73975000D01*
X108070302Y-74071673D01*
X107891673Y-74250301D01*
X107795000Y-74483690D01*
X102310000Y-74483690D01*
X102310000Y-73007745D01*
X114061861Y-73007745D01*
X114135995Y-73253864D01*
X114673223Y-73446965D01*
X115243454Y-73419778D01*
X115644005Y-73253864D01*
X115718139Y-73007745D01*
X114890000Y-72179605D01*
X114061861Y-73007745D01*
X102310000Y-73007745D01*
X102310000Y-71783223D01*
X113443035Y-71783223D01*
X113470222Y-72353454D01*
X113636136Y-72754005D01*
X113882255Y-72828139D01*
X114710395Y-72000000D01*
X113882255Y-71171861D01*
X113636136Y-71245995D01*
X113443035Y-71783223D01*
X102310000Y-71783223D01*
X102310000Y-70992255D01*
X114061861Y-70992255D01*
X114890000Y-71820395D01*
X115718139Y-70992255D01*
X115644005Y-70746136D01*
X115106777Y-70553035D01*
X114536546Y-70580222D01*
X114135995Y-70746136D01*
X114061861Y-70992255D01*
X102310000Y-70992255D01*
X102310000Y-67755431D01*
X104415000Y-67755431D01*
X104415000Y-68644569D01*
X104755259Y-69466026D01*
X105383974Y-70094741D01*
X106205431Y-70435000D01*
X107094569Y-70435000D01*
X107916026Y-70094741D01*
X108544741Y-69466026D01*
X108885000Y-68644569D01*
X108885000Y-67755431D01*
X108544741Y-66933974D01*
X107916026Y-66305259D01*
X107094569Y-65965000D01*
X106205431Y-65965000D01*
X105383974Y-66305259D01*
X104755259Y-66933974D01*
X104415000Y-67755431D01*
X102310000Y-67755431D01*
X102310000Y-64210000D01*
X199950000Y-64210000D01*
X199950001Y-137541262D01*
G36*
X153441451Y-109054561D02*
X153482542Y-109116058D01*
X153544039Y-109157149D01*
X153544041Y-109157151D01*
X153637715Y-109219742D01*
X153726193Y-109278861D01*
X153941056Y-109321600D01*
X153941059Y-109321600D01*
X154013600Y-109336029D01*
X154086140Y-109321600D01*
X156246321Y-109321600D01*
X156379089Y-109520301D01*
X155859142Y-110040249D01*
X155797642Y-110081342D01*
X155634839Y-110324994D01*
X155592100Y-110539857D01*
X155592100Y-110539860D01*
X155577671Y-110612400D01*
X155592100Y-110684941D01*
X155592101Y-111471755D01*
X155577671Y-111544300D01*
X155634839Y-111831706D01*
X155756549Y-112013858D01*
X155756552Y-112013861D01*
X155797643Y-112075358D01*
X155859140Y-112116449D01*
X156449210Y-112706519D01*
X156248959Y-112927577D01*
X156088096Y-113315961D01*
X156210085Y-113538000D01*
X157353000Y-113538000D01*
X157353000Y-113518000D01*
X157607000Y-113518000D01*
X157607000Y-113538000D01*
X157627000Y-113538000D01*
X157627000Y-113792000D01*
X157607000Y-113792000D01*
X157607000Y-114935629D01*
X157829041Y-115056914D01*
X158335134Y-114817389D01*
X158711041Y-114402423D01*
X158728576Y-114360086D01*
X160566000Y-116197510D01*
X160566001Y-123675647D01*
X160167598Y-123596400D01*
X159872402Y-123596400D01*
X159435275Y-123683350D01*
X158939570Y-124014570D01*
X158750000Y-124298281D01*
X158560430Y-124014570D01*
X158064725Y-123683350D01*
X157627598Y-123596400D01*
X157332402Y-123596400D01*
X156895275Y-123683350D01*
X156399570Y-124014570D01*
X156210000Y-124298281D01*
X156020430Y-124014570D01*
X155524725Y-123683350D01*
X155087598Y-123596400D01*
X154792402Y-123596400D01*
X154355275Y-123683350D01*
X153859570Y-124014570D01*
X153670000Y-124298281D01*
X153480430Y-124014570D01*
X152984725Y-123683350D01*
X152547598Y-123596400D01*
X152252402Y-123596400D01*
X151815275Y-123683350D01*
X151461167Y-123919957D01*
X144116951Y-116575742D01*
X144075858Y-116514242D01*
X143832207Y-116351439D01*
X143617344Y-116308700D01*
X143617340Y-116308700D01*
X143544800Y-116294271D01*
X143472260Y-116308700D01*
X139939144Y-116308700D01*
X139760588Y-116130144D01*
X139363826Y-115965800D01*
X138934374Y-115965800D01*
X138537612Y-116130144D01*
X138233944Y-116433812D01*
X138069600Y-116830574D01*
X138069600Y-117260026D01*
X138233944Y-117656788D01*
X138537612Y-117960456D01*
X138934374Y-118124800D01*
X139363826Y-118124800D01*
X139760588Y-117960456D01*
X139939144Y-117781900D01*
X143239691Y-117781900D01*
X148038190Y-122580400D01*
X135388160Y-122580400D01*
X131591200Y-118783441D01*
X131550108Y-118721942D01*
X131306457Y-118559139D01*
X131091594Y-118516400D01*
X131091590Y-118516400D01*
X131019050Y-118501971D01*
X130946510Y-118516400D01*
X129464109Y-118516400D01*
X126210773Y-115263064D01*
X126157170Y-115182842D01*
X126104651Y-115104241D01*
X126104649Y-115104239D01*
X126063558Y-115042742D01*
X126002061Y-115001651D01*
X125583448Y-114583038D01*
X125759134Y-114499889D01*
X126135041Y-114084923D01*
X126295904Y-113696539D01*
X126173915Y-113474500D01*
X125031000Y-113474500D01*
X125031000Y-113494500D01*
X124777000Y-113494500D01*
X124777000Y-113474500D01*
X124757000Y-113474500D01*
X124757000Y-113220500D01*
X124777000Y-113220500D01*
X124777000Y-113200500D01*
X125031000Y-113200500D01*
X125031000Y-113220500D01*
X126173915Y-113220500D01*
X126295904Y-112998461D01*
X126135041Y-112610077D01*
X125759134Y-112195111D01*
X125554892Y-112098447D01*
X125938577Y-111842077D01*
X126255740Y-111367409D01*
X126367113Y-110807500D01*
X126255740Y-110247591D01*
X125938577Y-109772923D01*
X125586242Y-109537500D01*
X125938577Y-109302077D01*
X126096067Y-109066376D01*
X130846751Y-113817061D01*
X130887842Y-113878558D01*
X130949339Y-113919649D01*
X130949341Y-113919651D01*
X131090603Y-114014039D01*
X131131493Y-114041361D01*
X131281732Y-114071245D01*
X131489423Y-114382077D01*
X131964091Y-114699240D01*
X132382667Y-114782500D01*
X132665333Y-114782500D01*
X133083909Y-114699240D01*
X133558577Y-114382077D01*
X133875740Y-113907409D01*
X133942946Y-113569539D01*
X138372096Y-113569539D01*
X138532959Y-113957923D01*
X138908866Y-114372889D01*
X139414959Y-114612414D01*
X139637000Y-114491129D01*
X139637000Y-113347500D01*
X139891000Y-113347500D01*
X139891000Y-114491129D01*
X140113041Y-114612414D01*
X140619134Y-114372889D01*
X140995041Y-113957923D01*
X141155904Y-113569539D01*
X141033915Y-113347500D01*
X139891000Y-113347500D01*
X139637000Y-113347500D01*
X138494085Y-113347500D01*
X138372096Y-113569539D01*
X133942946Y-113569539D01*
X133987113Y-113347500D01*
X133875740Y-112787591D01*
X133558577Y-112312923D01*
X133206242Y-112077500D01*
X133558577Y-111842077D01*
X133875740Y-111367409D01*
X133987113Y-110807500D01*
X133875740Y-110247591D01*
X133558577Y-109772923D01*
X133206242Y-109537500D01*
X133558577Y-109302077D01*
X133875740Y-108827409D01*
X133987113Y-108267500D01*
X133875740Y-107707591D01*
X133558577Y-107232923D01*
X133206242Y-106997500D01*
X133558577Y-106762077D01*
X133774426Y-106439036D01*
X135945451Y-108610061D01*
X135986542Y-108671558D01*
X136048039Y-108712649D01*
X136048041Y-108712651D01*
X136084569Y-108737058D01*
X136230193Y-108834361D01*
X136445056Y-108877100D01*
X136445059Y-108877100D01*
X136517600Y-108891529D01*
X136590140Y-108877100D01*
X138530321Y-108877100D01*
X138729423Y-109175077D01*
X139081758Y-109410500D01*
X138729423Y-109645923D01*
X138412260Y-110120591D01*
X138300887Y-110680500D01*
X138412260Y-111240409D01*
X138729423Y-111715077D01*
X139113108Y-111971447D01*
X138908866Y-112068111D01*
X138532959Y-112483077D01*
X138372096Y-112871461D01*
X138494085Y-113093500D01*
X139637000Y-113093500D01*
X139637000Y-113073500D01*
X139891000Y-113073500D01*
X139891000Y-113093500D01*
X141033915Y-113093500D01*
X141155904Y-112871461D01*
X140995041Y-112483077D01*
X140619134Y-112068111D01*
X140414892Y-111971447D01*
X140798577Y-111715077D01*
X141115740Y-111240409D01*
X141227113Y-110680500D01*
X141115740Y-110120591D01*
X140798577Y-109645923D01*
X140446242Y-109410500D01*
X140798577Y-109175077D01*
X141115740Y-108700409D01*
X141227113Y-108140500D01*
X141121013Y-107607100D01*
X142163791Y-107607100D01*
X145706751Y-111150061D01*
X145747842Y-111211558D01*
X145809339Y-111252649D01*
X145809341Y-111252651D01*
X145975132Y-111363429D01*
X145991493Y-111374361D01*
X146141732Y-111404245D01*
X146349423Y-111715077D01*
X146701758Y-111950500D01*
X146349423Y-112185923D01*
X146032260Y-112660591D01*
X145920887Y-113220500D01*
X146032260Y-113780409D01*
X146349423Y-114255077D01*
X146824091Y-114572240D01*
X147242667Y-114655500D01*
X147525333Y-114655500D01*
X147943909Y-114572240D01*
X148418577Y-114255077D01*
X148579633Y-114014039D01*
X156088096Y-114014039D01*
X156248959Y-114402423D01*
X156624866Y-114817389D01*
X157130959Y-115056914D01*
X157353000Y-114935629D01*
X157353000Y-113792000D01*
X156210085Y-113792000D01*
X156088096Y-114014039D01*
X148579633Y-114014039D01*
X148735740Y-113780409D01*
X148847113Y-113220500D01*
X148735740Y-112660591D01*
X148418577Y-112185923D01*
X148066242Y-111950500D01*
X148418577Y-111715077D01*
X148735740Y-111240409D01*
X148847113Y-110680500D01*
X148735740Y-110120591D01*
X148418577Y-109645923D01*
X148066242Y-109410500D01*
X148418577Y-109175077D01*
X148735740Y-108700409D01*
X148847113Y-108140500D01*
X148735740Y-107580591D01*
X148418577Y-107105923D01*
X148066242Y-106870500D01*
X148418577Y-106635077D01*
X148735740Y-106160409D01*
X148847113Y-105600500D01*
X148735740Y-105040591D01*
X148418577Y-104565923D01*
X148066242Y-104330500D01*
X148418577Y-104095077D01*
X148443968Y-104057077D01*
X153441451Y-109054561D01*
X153441451Y-109054561D01*
G37*
X153441451Y-109054561D02*
X153482542Y-109116058D01*
X153544039Y-109157149D01*
X153544041Y-109157151D01*
X153637715Y-109219742D01*
X153726193Y-109278861D01*
X153941056Y-109321600D01*
X153941059Y-109321600D01*
X154013600Y-109336029D01*
X154086140Y-109321600D01*
X156246321Y-109321600D01*
X156379089Y-109520301D01*
X155859142Y-110040249D01*
X155797642Y-110081342D01*
X155634839Y-110324994D01*
X155592100Y-110539857D01*
X155592100Y-110539860D01*
X155577671Y-110612400D01*
X155592100Y-110684941D01*
X155592101Y-111471755D01*
X155577671Y-111544300D01*
X155634839Y-111831706D01*
X155756549Y-112013858D01*
X155756552Y-112013861D01*
X155797643Y-112075358D01*
X155859140Y-112116449D01*
X156449210Y-112706519D01*
X156248959Y-112927577D01*
X156088096Y-113315961D01*
X156210085Y-113538000D01*
X157353000Y-113538000D01*
X157353000Y-113518000D01*
X157607000Y-113518000D01*
X157607000Y-113538000D01*
X157627000Y-113538000D01*
X157627000Y-113792000D01*
X157607000Y-113792000D01*
X157607000Y-114935629D01*
X157829041Y-115056914D01*
X158335134Y-114817389D01*
X158711041Y-114402423D01*
X158728576Y-114360086D01*
X160566000Y-116197510D01*
X160566001Y-123675647D01*
X160167598Y-123596400D01*
X159872402Y-123596400D01*
X159435275Y-123683350D01*
X158939570Y-124014570D01*
X158750000Y-124298281D01*
X158560430Y-124014570D01*
X158064725Y-123683350D01*
X157627598Y-123596400D01*
X157332402Y-123596400D01*
X156895275Y-123683350D01*
X156399570Y-124014570D01*
X156210000Y-124298281D01*
X156020430Y-124014570D01*
X155524725Y-123683350D01*
X155087598Y-123596400D01*
X154792402Y-123596400D01*
X154355275Y-123683350D01*
X153859570Y-124014570D01*
X153670000Y-124298281D01*
X153480430Y-124014570D01*
X152984725Y-123683350D01*
X152547598Y-123596400D01*
X152252402Y-123596400D01*
X151815275Y-123683350D01*
X151461167Y-123919957D01*
X144116951Y-116575742D01*
X144075858Y-116514242D01*
X143832207Y-116351439D01*
X143617344Y-116308700D01*
X143617340Y-116308700D01*
X143544800Y-116294271D01*
X143472260Y-116308700D01*
X139939144Y-116308700D01*
X139760588Y-116130144D01*
X139363826Y-115965800D01*
X138934374Y-115965800D01*
X138537612Y-116130144D01*
X138233944Y-116433812D01*
X138069600Y-116830574D01*
X138069600Y-117260026D01*
X138233944Y-117656788D01*
X138537612Y-117960456D01*
X138934374Y-118124800D01*
X139363826Y-118124800D01*
X139760588Y-117960456D01*
X139939144Y-117781900D01*
X143239691Y-117781900D01*
X148038190Y-122580400D01*
X135388160Y-122580400D01*
X131591200Y-118783441D01*
X131550108Y-118721942D01*
X131306457Y-118559139D01*
X131091594Y-118516400D01*
X131091590Y-118516400D01*
X131019050Y-118501971D01*
X130946510Y-118516400D01*
X129464109Y-118516400D01*
X126210773Y-115263064D01*
X126157170Y-115182842D01*
X126104651Y-115104241D01*
X126104649Y-115104239D01*
X126063558Y-115042742D01*
X126002061Y-115001651D01*
X125583448Y-114583038D01*
X125759134Y-114499889D01*
X126135041Y-114084923D01*
X126295904Y-113696539D01*
X126173915Y-113474500D01*
X125031000Y-113474500D01*
X125031000Y-113494500D01*
X124777000Y-113494500D01*
X124777000Y-113474500D01*
X124757000Y-113474500D01*
X124757000Y-113220500D01*
X124777000Y-113220500D01*
X124777000Y-113200500D01*
X125031000Y-113200500D01*
X125031000Y-113220500D01*
X126173915Y-113220500D01*
X126295904Y-112998461D01*
X126135041Y-112610077D01*
X125759134Y-112195111D01*
X125554892Y-112098447D01*
X125938577Y-111842077D01*
X126255740Y-111367409D01*
X126367113Y-110807500D01*
X126255740Y-110247591D01*
X125938577Y-109772923D01*
X125586242Y-109537500D01*
X125938577Y-109302077D01*
X126096067Y-109066376D01*
X130846751Y-113817061D01*
X130887842Y-113878558D01*
X130949339Y-113919649D01*
X130949341Y-113919651D01*
X131090603Y-114014039D01*
X131131493Y-114041361D01*
X131281732Y-114071245D01*
X131489423Y-114382077D01*
X131964091Y-114699240D01*
X132382667Y-114782500D01*
X132665333Y-114782500D01*
X133083909Y-114699240D01*
X133558577Y-114382077D01*
X133875740Y-113907409D01*
X133942946Y-113569539D01*
X138372096Y-113569539D01*
X138532959Y-113957923D01*
X138908866Y-114372889D01*
X139414959Y-114612414D01*
X139637000Y-114491129D01*
X139637000Y-113347500D01*
X139891000Y-113347500D01*
X139891000Y-114491129D01*
X140113041Y-114612414D01*
X140619134Y-114372889D01*
X140995041Y-113957923D01*
X141155904Y-113569539D01*
X141033915Y-113347500D01*
X139891000Y-113347500D01*
X139637000Y-113347500D01*
X138494085Y-113347500D01*
X138372096Y-113569539D01*
X133942946Y-113569539D01*
X133987113Y-113347500D01*
X133875740Y-112787591D01*
X133558577Y-112312923D01*
X133206242Y-112077500D01*
X133558577Y-111842077D01*
X133875740Y-111367409D01*
X133987113Y-110807500D01*
X133875740Y-110247591D01*
X133558577Y-109772923D01*
X133206242Y-109537500D01*
X133558577Y-109302077D01*
X133875740Y-108827409D01*
X133987113Y-108267500D01*
X133875740Y-107707591D01*
X133558577Y-107232923D01*
X133206242Y-106997500D01*
X133558577Y-106762077D01*
X133774426Y-106439036D01*
X135945451Y-108610061D01*
X135986542Y-108671558D01*
X136048039Y-108712649D01*
X136048041Y-108712651D01*
X136084569Y-108737058D01*
X136230193Y-108834361D01*
X136445056Y-108877100D01*
X136445059Y-108877100D01*
X136517600Y-108891529D01*
X136590140Y-108877100D01*
X138530321Y-108877100D01*
X138729423Y-109175077D01*
X139081758Y-109410500D01*
X138729423Y-109645923D01*
X138412260Y-110120591D01*
X138300887Y-110680500D01*
X138412260Y-111240409D01*
X138729423Y-111715077D01*
X139113108Y-111971447D01*
X138908866Y-112068111D01*
X138532959Y-112483077D01*
X138372096Y-112871461D01*
X138494085Y-113093500D01*
X139637000Y-113093500D01*
X139637000Y-113073500D01*
X139891000Y-113073500D01*
X139891000Y-113093500D01*
X141033915Y-113093500D01*
X141155904Y-112871461D01*
X140995041Y-112483077D01*
X140619134Y-112068111D01*
X140414892Y-111971447D01*
X140798577Y-111715077D01*
X141115740Y-111240409D01*
X141227113Y-110680500D01*
X141115740Y-110120591D01*
X140798577Y-109645923D01*
X140446242Y-109410500D01*
X140798577Y-109175077D01*
X141115740Y-108700409D01*
X141227113Y-108140500D01*
X141121013Y-107607100D01*
X142163791Y-107607100D01*
X145706751Y-111150061D01*
X145747842Y-111211558D01*
X145809339Y-111252649D01*
X145809341Y-111252651D01*
X145975132Y-111363429D01*
X145991493Y-111374361D01*
X146141732Y-111404245D01*
X146349423Y-111715077D01*
X146701758Y-111950500D01*
X146349423Y-112185923D01*
X146032260Y-112660591D01*
X145920887Y-113220500D01*
X146032260Y-113780409D01*
X146349423Y-114255077D01*
X146824091Y-114572240D01*
X147242667Y-114655500D01*
X147525333Y-114655500D01*
X147943909Y-114572240D01*
X148418577Y-114255077D01*
X148579633Y-114014039D01*
X156088096Y-114014039D01*
X156248959Y-114402423D01*
X156624866Y-114817389D01*
X157130959Y-115056914D01*
X157353000Y-114935629D01*
X157353000Y-113792000D01*
X156210085Y-113792000D01*
X156088096Y-114014039D01*
X148579633Y-114014039D01*
X148735740Y-113780409D01*
X148847113Y-113220500D01*
X148735740Y-112660591D01*
X148418577Y-112185923D01*
X148066242Y-111950500D01*
X148418577Y-111715077D01*
X148735740Y-111240409D01*
X148847113Y-110680500D01*
X148735740Y-110120591D01*
X148418577Y-109645923D01*
X148066242Y-109410500D01*
X148418577Y-109175077D01*
X148735740Y-108700409D01*
X148847113Y-108140500D01*
X148735740Y-107580591D01*
X148418577Y-107105923D01*
X148066242Y-106870500D01*
X148418577Y-106635077D01*
X148735740Y-106160409D01*
X148847113Y-105600500D01*
X148735740Y-105040591D01*
X148418577Y-104565923D01*
X148066242Y-104330500D01*
X148418577Y-104095077D01*
X148443968Y-104057077D01*
X153441451Y-109054561D01*
G36*
X194545423Y-112159577D02*
X194897758Y-112395000D01*
X194545423Y-112630423D01*
X194337732Y-112941255D01*
X194187493Y-112971139D01*
X193943842Y-113133942D01*
X193902749Y-113195442D01*
X193059691Y-114038500D01*
X181721773Y-114038500D01*
X181731904Y-114014039D01*
X181609915Y-113792000D01*
X180467000Y-113792000D01*
X180467000Y-113812000D01*
X180213000Y-113812000D01*
X180213000Y-113792000D01*
X179070085Y-113792000D01*
X178948096Y-114014039D01*
X178958227Y-114038500D01*
X175240309Y-114038500D01*
X174397251Y-113195442D01*
X174356158Y-113133942D01*
X174112507Y-112971139D01*
X173962268Y-112941255D01*
X173754577Y-112630423D01*
X173402242Y-112395000D01*
X173754577Y-112159577D01*
X173779968Y-112121577D01*
X174418750Y-112760360D01*
X174459842Y-112821858D01*
X174521339Y-112862949D01*
X174521341Y-112862951D01*
X174677286Y-112967150D01*
X174703493Y-112984661D01*
X174918356Y-113027400D01*
X174918359Y-113027400D01*
X174990899Y-113041829D01*
X175063440Y-113027400D01*
X179067614Y-113027400D01*
X178948096Y-113315961D01*
X179070085Y-113538000D01*
X180213000Y-113538000D01*
X180213000Y-113518000D01*
X180467000Y-113518000D01*
X180467000Y-113538000D01*
X181609915Y-113538000D01*
X181731904Y-113315961D01*
X181612386Y-113027400D01*
X193236560Y-113027400D01*
X193309100Y-113041829D01*
X193381640Y-113027400D01*
X193381644Y-113027400D01*
X193596507Y-112984661D01*
X193840158Y-112821858D01*
X193881251Y-112760358D01*
X194520032Y-112121577D01*
X194545423Y-112159577D01*
X194545423Y-112159577D01*
G37*
X194545423Y-112159577D02*
X194897758Y-112395000D01*
X194545423Y-112630423D01*
X194337732Y-112941255D01*
X194187493Y-112971139D01*
X193943842Y-113133942D01*
X193902749Y-113195442D01*
X193059691Y-114038500D01*
X181721773Y-114038500D01*
X181731904Y-114014039D01*
X181609915Y-113792000D01*
X180467000Y-113792000D01*
X180467000Y-113812000D01*
X180213000Y-113812000D01*
X180213000Y-113792000D01*
X179070085Y-113792000D01*
X178948096Y-114014039D01*
X178958227Y-114038500D01*
X175240309Y-114038500D01*
X174397251Y-113195442D01*
X174356158Y-113133942D01*
X174112507Y-112971139D01*
X173962268Y-112941255D01*
X173754577Y-112630423D01*
X173402242Y-112395000D01*
X173754577Y-112159577D01*
X173779968Y-112121577D01*
X174418750Y-112760360D01*
X174459842Y-112821858D01*
X174521339Y-112862949D01*
X174521341Y-112862951D01*
X174677286Y-112967150D01*
X174703493Y-112984661D01*
X174918356Y-113027400D01*
X174918359Y-113027400D01*
X174990899Y-113041829D01*
X175063440Y-113027400D01*
X179067614Y-113027400D01*
X178948096Y-113315961D01*
X179070085Y-113538000D01*
X180213000Y-113538000D01*
X180213000Y-113518000D01*
X180467000Y-113518000D01*
X180467000Y-113538000D01*
X181609915Y-113538000D01*
X181731904Y-113315961D01*
X181612386Y-113027400D01*
X193236560Y-113027400D01*
X193309100Y-113041829D01*
X193381640Y-113027400D01*
X193381644Y-113027400D01*
X193596507Y-112984661D01*
X193840158Y-112821858D01*
X193881251Y-112760358D01*
X194520032Y-112121577D01*
X194545423Y-112159577D01*
G36*
X156128260Y-83744909D02*
X156445423Y-84219577D01*
X156797758Y-84455000D01*
X156445423Y-84690423D01*
X156128260Y-85165091D01*
X156016887Y-85725000D01*
X156128260Y-86284909D01*
X156445423Y-86759577D01*
X156797758Y-86995000D01*
X156445423Y-87230423D01*
X156128260Y-87705091D01*
X156016887Y-88265000D01*
X156128260Y-88824909D01*
X156445423Y-89299577D01*
X156797758Y-89535000D01*
X156445423Y-89770423D01*
X156128260Y-90245091D01*
X156016887Y-90805000D01*
X156128260Y-91364909D01*
X156445423Y-91839577D01*
X156797758Y-92075000D01*
X156445423Y-92310423D01*
X156128260Y-92785091D01*
X156016887Y-93345000D01*
X156128260Y-93904909D01*
X156445423Y-94379577D01*
X156797758Y-94615000D01*
X156445423Y-94850423D01*
X156128260Y-95325091D01*
X156016887Y-95885000D01*
X156128260Y-96444909D01*
X156445423Y-96919577D01*
X156797758Y-97155000D01*
X156445423Y-97390423D01*
X156128260Y-97865091D01*
X156016887Y-98425000D01*
X156128260Y-98984909D01*
X156445423Y-99459577D01*
X156797758Y-99695000D01*
X156445423Y-99930423D01*
X156128260Y-100405091D01*
X156016887Y-100965000D01*
X156128260Y-101524909D01*
X156445423Y-101999577D01*
X156797758Y-102235000D01*
X156445423Y-102470423D01*
X156128260Y-102945091D01*
X156016887Y-103505000D01*
X156128260Y-104064909D01*
X156445423Y-104539577D01*
X156797758Y-104775000D01*
X156445423Y-105010423D01*
X156420032Y-105048423D01*
X152857350Y-101485741D01*
X152816258Y-101424242D01*
X152572607Y-101261439D01*
X152357744Y-101218700D01*
X152357740Y-101218700D01*
X152285200Y-101204271D01*
X152212660Y-101218700D01*
X148643337Y-101218700D01*
X148735740Y-101080409D01*
X148847113Y-100520500D01*
X148735740Y-99960591D01*
X148418577Y-99485923D01*
X148066242Y-99250500D01*
X148418577Y-99015077D01*
X148735740Y-98540409D01*
X148847113Y-97980500D01*
X148735740Y-97420591D01*
X148418577Y-96945923D01*
X147943909Y-96628760D01*
X147525333Y-96545500D01*
X147242667Y-96545500D01*
X146824091Y-96628760D01*
X146349423Y-96945923D01*
X146286095Y-97040700D01*
X141213409Y-97040700D01*
X142694864Y-95559245D01*
X144499861Y-95559245D01*
X144573995Y-95805364D01*
X145111223Y-95998465D01*
X145681454Y-95971278D01*
X146082005Y-95805364D01*
X146156139Y-95559245D01*
X145328000Y-94731105D01*
X144499861Y-95559245D01*
X142694864Y-95559245D01*
X143882780Y-94371329D01*
X143908222Y-94904954D01*
X144074136Y-95305505D01*
X144320255Y-95379639D01*
X145148395Y-94551500D01*
X145507605Y-94551500D01*
X146335745Y-95379639D01*
X146581864Y-95305505D01*
X146584290Y-95298754D01*
X146611466Y-95364362D01*
X147015138Y-95768034D01*
X147542561Y-95986500D01*
X148113439Y-95986500D01*
X148640862Y-95768034D01*
X149044534Y-95364362D01*
X149263000Y-94836939D01*
X149263000Y-94266061D01*
X149044534Y-93738638D01*
X148640862Y-93334966D01*
X148113439Y-93116500D01*
X147542561Y-93116500D01*
X147015138Y-93334966D01*
X146611466Y-93738638D01*
X146584475Y-93803799D01*
X146581864Y-93797495D01*
X146335745Y-93723361D01*
X145507605Y-94551500D01*
X145148395Y-94551500D01*
X145134252Y-94537358D01*
X145313858Y-94357752D01*
X145328000Y-94371895D01*
X145995135Y-93704759D01*
X146102207Y-93683461D01*
X146345858Y-93520658D01*
X146386951Y-93459158D01*
X156123771Y-83722339D01*
X156128260Y-83744909D01*
X156128260Y-83744909D01*
G37*
X156128260Y-83744909D02*
X156445423Y-84219577D01*
X156797758Y-84455000D01*
X156445423Y-84690423D01*
X156128260Y-85165091D01*
X156016887Y-85725000D01*
X156128260Y-86284909D01*
X156445423Y-86759577D01*
X156797758Y-86995000D01*
X156445423Y-87230423D01*
X156128260Y-87705091D01*
X156016887Y-88265000D01*
X156128260Y-88824909D01*
X156445423Y-89299577D01*
X156797758Y-89535000D01*
X156445423Y-89770423D01*
X156128260Y-90245091D01*
X156016887Y-90805000D01*
X156128260Y-91364909D01*
X156445423Y-91839577D01*
X156797758Y-92075000D01*
X156445423Y-92310423D01*
X156128260Y-92785091D01*
X156016887Y-93345000D01*
X156128260Y-93904909D01*
X156445423Y-94379577D01*
X156797758Y-94615000D01*
X156445423Y-94850423D01*
X156128260Y-95325091D01*
X156016887Y-95885000D01*
X156128260Y-96444909D01*
X156445423Y-96919577D01*
X156797758Y-97155000D01*
X156445423Y-97390423D01*
X156128260Y-97865091D01*
X156016887Y-98425000D01*
X156128260Y-98984909D01*
X156445423Y-99459577D01*
X156797758Y-99695000D01*
X156445423Y-99930423D01*
X156128260Y-100405091D01*
X156016887Y-100965000D01*
X156128260Y-101524909D01*
X156445423Y-101999577D01*
X156797758Y-102235000D01*
X156445423Y-102470423D01*
X156128260Y-102945091D01*
X156016887Y-103505000D01*
X156128260Y-104064909D01*
X156445423Y-104539577D01*
X156797758Y-104775000D01*
X156445423Y-105010423D01*
X156420032Y-105048423D01*
X152857350Y-101485741D01*
X152816258Y-101424242D01*
X152572607Y-101261439D01*
X152357744Y-101218700D01*
X152357740Y-101218700D01*
X152285200Y-101204271D01*
X152212660Y-101218700D01*
X148643337Y-101218700D01*
X148735740Y-101080409D01*
X148847113Y-100520500D01*
X148735740Y-99960591D01*
X148418577Y-99485923D01*
X148066242Y-99250500D01*
X148418577Y-99015077D01*
X148735740Y-98540409D01*
X148847113Y-97980500D01*
X148735740Y-97420591D01*
X148418577Y-96945923D01*
X147943909Y-96628760D01*
X147525333Y-96545500D01*
X147242667Y-96545500D01*
X146824091Y-96628760D01*
X146349423Y-96945923D01*
X146286095Y-97040700D01*
X141213409Y-97040700D01*
X142694864Y-95559245D01*
X144499861Y-95559245D01*
X144573995Y-95805364D01*
X145111223Y-95998465D01*
X145681454Y-95971278D01*
X146082005Y-95805364D01*
X146156139Y-95559245D01*
X145328000Y-94731105D01*
X144499861Y-95559245D01*
X142694864Y-95559245D01*
X143882780Y-94371329D01*
X143908222Y-94904954D01*
X144074136Y-95305505D01*
X144320255Y-95379639D01*
X145148395Y-94551500D01*
X145507605Y-94551500D01*
X146335745Y-95379639D01*
X146581864Y-95305505D01*
X146584290Y-95298754D01*
X146611466Y-95364362D01*
X147015138Y-95768034D01*
X147542561Y-95986500D01*
X148113439Y-95986500D01*
X148640862Y-95768034D01*
X149044534Y-95364362D01*
X149263000Y-94836939D01*
X149263000Y-94266061D01*
X149044534Y-93738638D01*
X148640862Y-93334966D01*
X148113439Y-93116500D01*
X147542561Y-93116500D01*
X147015138Y-93334966D01*
X146611466Y-93738638D01*
X146584475Y-93803799D01*
X146581864Y-93797495D01*
X146335745Y-93723361D01*
X145507605Y-94551500D01*
X145148395Y-94551500D01*
X145134252Y-94537358D01*
X145313858Y-94357752D01*
X145328000Y-94371895D01*
X145995135Y-93704759D01*
X146102207Y-93683461D01*
X146345858Y-93520658D01*
X146386951Y-93459158D01*
X156123771Y-83722339D01*
X156128260Y-83744909D01*
G36*
X171328096Y-100615961D02*
X171450085Y-100838000D01*
X172593000Y-100838000D01*
X172593000Y-100818000D01*
X172847000Y-100818000D01*
X172847000Y-100838000D01*
X173989915Y-100838000D01*
X174111904Y-100615961D01*
X174099080Y-100585000D01*
X177237991Y-100585000D01*
X178087550Y-101434560D01*
X178128642Y-101496058D01*
X178190139Y-101537149D01*
X178190141Y-101537151D01*
X178298805Y-101609758D01*
X178350169Y-101644078D01*
X178141644Y-101602600D01*
X178141640Y-101602600D01*
X178069100Y-101588171D01*
X177996560Y-101602600D01*
X173992386Y-101602600D01*
X174111904Y-101314039D01*
X173989915Y-101092000D01*
X172847000Y-101092000D01*
X172847000Y-101112000D01*
X172593000Y-101112000D01*
X172593000Y-101092000D01*
X171450085Y-101092000D01*
X171328096Y-101314039D01*
X171447614Y-101602600D01*
X159823440Y-101602600D01*
X159750899Y-101588171D01*
X159678359Y-101602600D01*
X159678356Y-101602600D01*
X159463493Y-101645339D01*
X159281341Y-101767049D01*
X159281339Y-101767051D01*
X159219842Y-101808142D01*
X159178750Y-101869640D01*
X158539968Y-102508423D01*
X158514577Y-102470423D01*
X158162242Y-102235000D01*
X158514577Y-101999577D01*
X158722268Y-101688745D01*
X158872507Y-101658861D01*
X159116158Y-101496058D01*
X159157251Y-101434558D01*
X160006810Y-100585000D01*
X171340920Y-100585000D01*
X171328096Y-100615961D01*
X171328096Y-100615961D01*
G37*
X171328096Y-100615961D02*
X171450085Y-100838000D01*
X172593000Y-100838000D01*
X172593000Y-100818000D01*
X172847000Y-100818000D01*
X172847000Y-100838000D01*
X173989915Y-100838000D01*
X174111904Y-100615961D01*
X174099080Y-100585000D01*
X177237991Y-100585000D01*
X178087550Y-101434560D01*
X178128642Y-101496058D01*
X178190139Y-101537149D01*
X178190141Y-101537151D01*
X178298805Y-101609758D01*
X178350169Y-101644078D01*
X178141644Y-101602600D01*
X178141640Y-101602600D01*
X178069100Y-101588171D01*
X177996560Y-101602600D01*
X173992386Y-101602600D01*
X174111904Y-101314039D01*
X173989915Y-101092000D01*
X172847000Y-101092000D01*
X172847000Y-101112000D01*
X172593000Y-101112000D01*
X172593000Y-101092000D01*
X171450085Y-101092000D01*
X171328096Y-101314039D01*
X171447614Y-101602600D01*
X159823440Y-101602600D01*
X159750899Y-101588171D01*
X159678359Y-101602600D01*
X159678356Y-101602600D01*
X159463493Y-101645339D01*
X159281341Y-101767049D01*
X159281339Y-101767051D01*
X159219842Y-101808142D01*
X159178750Y-101869640D01*
X158539968Y-102508423D01*
X158514577Y-102470423D01*
X158162242Y-102235000D01*
X158514577Y-101999577D01*
X158722268Y-101688745D01*
X158872507Y-101658861D01*
X159116158Y-101496058D01*
X159157251Y-101434558D01*
X160006810Y-100585000D01*
X171340920Y-100585000D01*
X171328096Y-100615961D01*
G36*
X109357000Y-93063000D02*
X109377000Y-93063000D01*
X109377000Y-93317000D01*
X109357000Y-93317000D01*
X109357000Y-94460629D01*
X109579041Y-94581914D01*
X109613800Y-94565463D01*
X109613801Y-100273027D01*
X109606139Y-100284494D01*
X109578580Y-100423044D01*
X109229375Y-100656375D01*
X108901161Y-101147582D01*
X108837600Y-101467126D01*
X108837600Y-94561393D01*
X108880959Y-94581914D01*
X109103000Y-94460629D01*
X109103000Y-93317000D01*
X109083000Y-93317000D01*
X109083000Y-93063000D01*
X109103000Y-93063000D01*
X109103000Y-93043000D01*
X109357000Y-93043000D01*
X109357000Y-93063000D01*
X109357000Y-93063000D01*
G37*
X109357000Y-93063000D02*
X109377000Y-93063000D01*
X109377000Y-93317000D01*
X109357000Y-93317000D01*
X109357000Y-94460629D01*
X109579041Y-94581914D01*
X109613800Y-94565463D01*
X109613801Y-100273027D01*
X109606139Y-100284494D01*
X109578580Y-100423044D01*
X109229375Y-100656375D01*
X108901161Y-101147582D01*
X108837600Y-101467126D01*
X108837600Y-94561393D01*
X108880959Y-94581914D01*
X109103000Y-94460629D01*
X109103000Y-93317000D01*
X109083000Y-93317000D01*
X109083000Y-93063000D01*
X109103000Y-93063000D01*
X109103000Y-93043000D01*
X109357000Y-93043000D01*
X109357000Y-93063000D01*
G36*
X125285000Y-89471500D02*
X125305000Y-89471500D01*
X125305000Y-89725500D01*
X125285000Y-89725500D01*
X125285000Y-90869129D01*
X125507041Y-90990414D01*
X125526501Y-90981204D01*
X125526500Y-96181460D01*
X125512071Y-96254000D01*
X125526500Y-96326540D01*
X125526500Y-96326543D01*
X125569239Y-96541406D01*
X125648521Y-96660060D01*
X124104000Y-96660060D01*
X123864100Y-96707779D01*
X123864100Y-95857800D01*
X124135126Y-95857800D01*
X124531888Y-95693456D01*
X124835556Y-95389788D01*
X124999900Y-94993026D01*
X124999900Y-94563574D01*
X124835556Y-94166812D01*
X124657000Y-93988256D01*
X124657000Y-90918494D01*
X124808959Y-90990414D01*
X125031000Y-90869129D01*
X125031000Y-89725500D01*
X125011000Y-89725500D01*
X125011000Y-89471500D01*
X125031000Y-89471500D01*
X125031000Y-89451500D01*
X125285000Y-89451500D01*
X125285000Y-89471500D01*
X125285000Y-89471500D01*
G37*
X125285000Y-89471500D02*
X125305000Y-89471500D01*
X125305000Y-89725500D01*
X125285000Y-89725500D01*
X125285000Y-90869129D01*
X125507041Y-90990414D01*
X125526501Y-90981204D01*
X125526500Y-96181460D01*
X125512071Y-96254000D01*
X125526500Y-96326540D01*
X125526500Y-96326543D01*
X125569239Y-96541406D01*
X125648521Y-96660060D01*
X124104000Y-96660060D01*
X123864100Y-96707779D01*
X123864100Y-95857800D01*
X124135126Y-95857800D01*
X124531888Y-95693456D01*
X124835556Y-95389788D01*
X124999900Y-94993026D01*
X124999900Y-94563574D01*
X124835556Y-94166812D01*
X124657000Y-93988256D01*
X124657000Y-90918494D01*
X124808959Y-90990414D01*
X125031000Y-90869129D01*
X125031000Y-89725500D01*
X125011000Y-89725500D01*
X125011000Y-89471500D01*
X125031000Y-89471500D01*
X125031000Y-89451500D01*
X125285000Y-89451500D01*
X125285000Y-89471500D01*
G36*
X145832751Y-90004561D02*
X145873842Y-90066058D01*
X145935339Y-90107149D01*
X145935341Y-90107151D01*
X146025510Y-90167400D01*
X146117493Y-90228861D01*
X146267732Y-90258745D01*
X146475423Y-90569577D01*
X146905647Y-90857044D01*
X145509691Y-92253000D01*
X144295340Y-92253000D01*
X144222800Y-92238571D01*
X144150259Y-92253000D01*
X144150256Y-92253000D01*
X143935393Y-92295739D01*
X143753241Y-92417449D01*
X143753239Y-92417451D01*
X143691742Y-92458542D01*
X143650651Y-92520039D01*
X140151291Y-96019400D01*
X133544616Y-96019400D01*
X133844862Y-95895034D01*
X134058096Y-95681800D01*
X135211008Y-95681800D01*
X135548274Y-95821500D01*
X135977726Y-95821500D01*
X136374488Y-95657156D01*
X136678156Y-95353488D01*
X136842500Y-94956726D01*
X136842500Y-94527274D01*
X136678156Y-94130512D01*
X136374488Y-93826844D01*
X135977726Y-93662500D01*
X135548274Y-93662500D01*
X135211008Y-93802200D01*
X134185096Y-93802200D01*
X133844862Y-93461966D01*
X133317439Y-93243500D01*
X132746561Y-93243500D01*
X132219138Y-93461966D01*
X131815466Y-93865638D01*
X131788475Y-93930799D01*
X131785864Y-93924495D01*
X131539745Y-93850361D01*
X130711605Y-94678500D01*
X131539745Y-95506639D01*
X131785864Y-95432505D01*
X131788290Y-95425754D01*
X131815466Y-95491362D01*
X132219138Y-95895034D01*
X132519384Y-96019400D01*
X131075882Y-96019400D01*
X131286005Y-95932364D01*
X131360139Y-95686245D01*
X130532000Y-94858105D01*
X129703861Y-95686245D01*
X129777995Y-95932364D01*
X130020139Y-96019400D01*
X128660244Y-96019400D01*
X128481688Y-95840844D01*
X128084926Y-95676500D01*
X127989144Y-95676500D01*
X128107856Y-95557788D01*
X128272200Y-95161026D01*
X128272200Y-94908509D01*
X129427301Y-93753409D01*
X129524253Y-93850361D01*
X129278136Y-93924495D01*
X129085035Y-94461723D01*
X129112222Y-95031954D01*
X129278136Y-95432505D01*
X129524255Y-95506639D01*
X130352395Y-94678500D01*
X130338252Y-94664358D01*
X130517858Y-94484752D01*
X130532000Y-94498895D01*
X131360139Y-93670755D01*
X131286005Y-93424636D01*
X130748777Y-93231535D01*
X130178546Y-93258722D01*
X129777995Y-93424636D01*
X129703861Y-93670753D01*
X129606909Y-93573801D01*
X132142461Y-91038249D01*
X132203958Y-90997158D01*
X132233288Y-90953263D01*
X132636667Y-91033500D01*
X132919333Y-91033500D01*
X133337909Y-90950240D01*
X133812577Y-90633077D01*
X134129740Y-90158409D01*
X134184315Y-89884039D01*
X138498096Y-89884039D01*
X138658959Y-90272423D01*
X139034866Y-90687389D01*
X139540959Y-90926914D01*
X139763000Y-90805629D01*
X139763000Y-89662000D01*
X140017000Y-89662000D01*
X140017000Y-90805629D01*
X140239041Y-90926914D01*
X140745134Y-90687389D01*
X141121041Y-90272423D01*
X141281904Y-89884039D01*
X141159915Y-89662000D01*
X140017000Y-89662000D01*
X139763000Y-89662000D01*
X138620085Y-89662000D01*
X138498096Y-89884039D01*
X134184315Y-89884039D01*
X134241113Y-89598500D01*
X134129740Y-89038591D01*
X133812577Y-88563923D01*
X133460242Y-88328500D01*
X133812577Y-88093077D01*
X134020268Y-87782245D01*
X134170507Y-87752361D01*
X134201578Y-87731600D01*
X138656321Y-87731600D01*
X138855423Y-88029577D01*
X139239108Y-88285947D01*
X139034866Y-88382611D01*
X138658959Y-88797577D01*
X138498096Y-89185961D01*
X138620085Y-89408000D01*
X139763000Y-89408000D01*
X139763000Y-89388000D01*
X140017000Y-89388000D01*
X140017000Y-89408000D01*
X141159915Y-89408000D01*
X141281904Y-89185961D01*
X141121041Y-88797577D01*
X140745134Y-88382611D01*
X140540892Y-88285947D01*
X140924577Y-88029577D01*
X141241740Y-87554909D01*
X141353113Y-86995000D01*
X141247013Y-86461600D01*
X142289791Y-86461600D01*
X145832751Y-90004561D01*
X145832751Y-90004561D01*
G37*
X145832751Y-90004561D02*
X145873842Y-90066058D01*
X145935339Y-90107149D01*
X145935341Y-90107151D01*
X146025510Y-90167400D01*
X146117493Y-90228861D01*
X146267732Y-90258745D01*
X146475423Y-90569577D01*
X146905647Y-90857044D01*
X145509691Y-92253000D01*
X144295340Y-92253000D01*
X144222800Y-92238571D01*
X144150259Y-92253000D01*
X144150256Y-92253000D01*
X143935393Y-92295739D01*
X143753241Y-92417449D01*
X143753239Y-92417451D01*
X143691742Y-92458542D01*
X143650651Y-92520039D01*
X140151291Y-96019400D01*
X133544616Y-96019400D01*
X133844862Y-95895034D01*
X134058096Y-95681800D01*
X135211008Y-95681800D01*
X135548274Y-95821500D01*
X135977726Y-95821500D01*
X136374488Y-95657156D01*
X136678156Y-95353488D01*
X136842500Y-94956726D01*
X136842500Y-94527274D01*
X136678156Y-94130512D01*
X136374488Y-93826844D01*
X135977726Y-93662500D01*
X135548274Y-93662500D01*
X135211008Y-93802200D01*
X134185096Y-93802200D01*
X133844862Y-93461966D01*
X133317439Y-93243500D01*
X132746561Y-93243500D01*
X132219138Y-93461966D01*
X131815466Y-93865638D01*
X131788475Y-93930799D01*
X131785864Y-93924495D01*
X131539745Y-93850361D01*
X130711605Y-94678500D01*
X131539745Y-95506639D01*
X131785864Y-95432505D01*
X131788290Y-95425754D01*
X131815466Y-95491362D01*
X132219138Y-95895034D01*
X132519384Y-96019400D01*
X131075882Y-96019400D01*
X131286005Y-95932364D01*
X131360139Y-95686245D01*
X130532000Y-94858105D01*
X129703861Y-95686245D01*
X129777995Y-95932364D01*
X130020139Y-96019400D01*
X128660244Y-96019400D01*
X128481688Y-95840844D01*
X128084926Y-95676500D01*
X127989144Y-95676500D01*
X128107856Y-95557788D01*
X128272200Y-95161026D01*
X128272200Y-94908509D01*
X129427301Y-93753409D01*
X129524253Y-93850361D01*
X129278136Y-93924495D01*
X129085035Y-94461723D01*
X129112222Y-95031954D01*
X129278136Y-95432505D01*
X129524255Y-95506639D01*
X130352395Y-94678500D01*
X130338252Y-94664358D01*
X130517858Y-94484752D01*
X130532000Y-94498895D01*
X131360139Y-93670755D01*
X131286005Y-93424636D01*
X130748777Y-93231535D01*
X130178546Y-93258722D01*
X129777995Y-93424636D01*
X129703861Y-93670753D01*
X129606909Y-93573801D01*
X132142461Y-91038249D01*
X132203958Y-90997158D01*
X132233288Y-90953263D01*
X132636667Y-91033500D01*
X132919333Y-91033500D01*
X133337909Y-90950240D01*
X133812577Y-90633077D01*
X134129740Y-90158409D01*
X134184315Y-89884039D01*
X138498096Y-89884039D01*
X138658959Y-90272423D01*
X139034866Y-90687389D01*
X139540959Y-90926914D01*
X139763000Y-90805629D01*
X139763000Y-89662000D01*
X140017000Y-89662000D01*
X140017000Y-90805629D01*
X140239041Y-90926914D01*
X140745134Y-90687389D01*
X141121041Y-90272423D01*
X141281904Y-89884039D01*
X141159915Y-89662000D01*
X140017000Y-89662000D01*
X139763000Y-89662000D01*
X138620085Y-89662000D01*
X138498096Y-89884039D01*
X134184315Y-89884039D01*
X134241113Y-89598500D01*
X134129740Y-89038591D01*
X133812577Y-88563923D01*
X133460242Y-88328500D01*
X133812577Y-88093077D01*
X134020268Y-87782245D01*
X134170507Y-87752361D01*
X134201578Y-87731600D01*
X138656321Y-87731600D01*
X138855423Y-88029577D01*
X139239108Y-88285947D01*
X139034866Y-88382611D01*
X138658959Y-88797577D01*
X138498096Y-89185961D01*
X138620085Y-89408000D01*
X139763000Y-89408000D01*
X139763000Y-89388000D01*
X140017000Y-89388000D01*
X140017000Y-89408000D01*
X141159915Y-89408000D01*
X141281904Y-89185961D01*
X141121041Y-88797577D01*
X140745134Y-88382611D01*
X140540892Y-88285947D01*
X140924577Y-88029577D01*
X141241740Y-87554909D01*
X141353113Y-86995000D01*
X141247013Y-86461600D01*
X142289791Y-86461600D01*
X145832751Y-90004561D01*
G04 #@! TD*
M02*
