G04 #@! TF.GenerationSoftware,KiCad,Pcbnew,(5.0.0-3-g5ebb6b6)*
G04 #@! TF.CreationDate,2018-11-18T15:17:24+09:00*
G04 #@! TF.ProjectId,Z80-1MSRAM,5A38302D314D5352414D2E6B69636164,rev?*
G04 #@! TF.SameCoordinates,Original*
G04 #@! TF.FileFunction,Copper,L1,Top,Signal*
G04 #@! TF.FilePolarity,Positive*
%FSLAX46Y46*%
G04 Gerber Fmt 4.6, Leading zero omitted, Abs format (unit mm)*
G04 Created by KiCad (PCBNEW (5.0.0-3-g5ebb6b6)) date *
%MOMM*%
%LPD*%
G01*
G04 APERTURE LIST*
G04 #@! TA.AperFunction,ComponentPad*
%ADD10R,1.600000X1.600000*%
G04 #@! TD*
G04 #@! TA.AperFunction,ComponentPad*
%ADD11O,1.600000X1.600000*%
G04 #@! TD*
G04 #@! TA.AperFunction,ComponentPad*
%ADD12R,1.727200X1.727200*%
G04 #@! TD*
G04 #@! TA.AperFunction,ComponentPad*
%ADD13O,1.727200X1.727200*%
G04 #@! TD*
G04 #@! TA.AperFunction,ComponentPad*
%ADD14R,2.000000X2.000000*%
G04 #@! TD*
G04 #@! TA.AperFunction,ComponentPad*
%ADD15C,2.000000*%
G04 #@! TD*
G04 #@! TA.AperFunction,ComponentPad*
%ADD16C,1.600000*%
G04 #@! TD*
G04 #@! TA.AperFunction,ViaPad*
%ADD17C,0.889000*%
G04 #@! TD*
G04 #@! TA.AperFunction,Conductor*
%ADD18C,0.203200*%
G04 #@! TD*
G04 #@! TA.AperFunction,Conductor*
%ADD19C,0.609600*%
G04 #@! TD*
G04 #@! TA.AperFunction,Conductor*
%ADD20C,0.254000*%
G04 #@! TD*
G04 APERTURE END LIST*
D10*
G04 #@! TO.P,U7,1*
G04 #@! TO.N,/A14*
X180340000Y-80645000D03*
D11*
G04 #@! TO.P,U7,15*
G04 #@! TO.N,/D3*
X195580000Y-113665000D03*
G04 #@! TO.P,U7,2*
G04 #@! TO.N,/A12*
X180340000Y-83185000D03*
G04 #@! TO.P,U7,16*
G04 #@! TO.N,/D4*
X195580000Y-111125000D03*
G04 #@! TO.P,U7,3*
G04 #@! TO.N,/A7*
X180340000Y-85725000D03*
G04 #@! TO.P,U7,17*
G04 #@! TO.N,/D5*
X195580000Y-108585000D03*
G04 #@! TO.P,U7,4*
G04 #@! TO.N,/A6*
X180340000Y-88265000D03*
G04 #@! TO.P,U7,18*
G04 #@! TO.N,/D6*
X195580000Y-106045000D03*
G04 #@! TO.P,U7,5*
G04 #@! TO.N,/A5*
X180340000Y-90805000D03*
G04 #@! TO.P,U7,19*
G04 #@! TO.N,/D7*
X195580000Y-103505000D03*
G04 #@! TO.P,U7,6*
G04 #@! TO.N,/A4*
X180340000Y-93345000D03*
G04 #@! TO.P,U7,20*
G04 #@! TO.N,Net-(U3-Pad12)*
X195580000Y-100965000D03*
G04 #@! TO.P,U7,7*
G04 #@! TO.N,/A3*
X180340000Y-95885000D03*
G04 #@! TO.P,U7,21*
G04 #@! TO.N,/A10*
X195580000Y-98425000D03*
G04 #@! TO.P,U7,8*
G04 #@! TO.N,/A2*
X180340000Y-98425000D03*
G04 #@! TO.P,U7,22*
G04 #@! TO.N,~MEMRD*
X195580000Y-95885000D03*
G04 #@! TO.P,U7,9*
G04 #@! TO.N,/A1*
X180340000Y-100965000D03*
G04 #@! TO.P,U7,23*
G04 #@! TO.N,/A11*
X195580000Y-93345000D03*
G04 #@! TO.P,U7,10*
G04 #@! TO.N,/A0*
X180340000Y-103505000D03*
G04 #@! TO.P,U7,24*
G04 #@! TO.N,/A9*
X195580000Y-90805000D03*
G04 #@! TO.P,U7,11*
G04 #@! TO.N,/D0*
X180340000Y-106045000D03*
G04 #@! TO.P,U7,25*
G04 #@! TO.N,/A8*
X195580000Y-88265000D03*
G04 #@! TO.P,U7,12*
G04 #@! TO.N,/D1*
X180340000Y-108585000D03*
G04 #@! TO.P,U7,26*
G04 #@! TO.N,/A13*
X195580000Y-85725000D03*
G04 #@! TO.P,U7,13*
G04 #@! TO.N,/D2*
X180340000Y-111125000D03*
G04 #@! TO.P,U7,27*
G04 #@! TO.N,VCC*
X195580000Y-83185000D03*
G04 #@! TO.P,U7,14*
G04 #@! TO.N,GND*
X180340000Y-113665000D03*
G04 #@! TO.P,U7,28*
G04 #@! TO.N,VCC*
X195580000Y-80645000D03*
G04 #@! TD*
D12*
G04 #@! TO.P,J1,1*
G04 #@! TO.N,VCC*
X175260000Y-125095000D03*
D13*
G04 #@! TO.P,J1,2*
G04 #@! TO.N,GND*
X175260000Y-127635000D03*
G04 #@! TO.P,J1,3*
G04 #@! TO.N,VCC*
X172720000Y-125095000D03*
G04 #@! TO.P,J1,4*
G04 #@! TO.N,GND*
X172720000Y-127635000D03*
G04 #@! TO.P,J1,5*
G04 #@! TO.N,N/C*
X170180000Y-125095000D03*
G04 #@! TO.P,J1,6*
X170180000Y-127635000D03*
G04 #@! TO.P,J1,7*
X167640000Y-125095000D03*
G04 #@! TO.P,J1,8*
X167640000Y-127635000D03*
G04 #@! TO.P,J1,9*
G04 #@! TO.N,/D0*
X165100000Y-125095000D03*
G04 #@! TO.P,J1,10*
G04 #@! TO.N,/D1*
X165100000Y-127635000D03*
G04 #@! TO.P,J1,11*
G04 #@! TO.N,/D2*
X162560000Y-125095000D03*
G04 #@! TO.P,J1,12*
G04 #@! TO.N,/D3*
X162560000Y-127635000D03*
G04 #@! TO.P,J1,13*
G04 #@! TO.N,/D4*
X160020000Y-125095000D03*
G04 #@! TO.P,J1,14*
G04 #@! TO.N,/D5*
X160020000Y-127635000D03*
G04 #@! TO.P,J1,15*
G04 #@! TO.N,/D6*
X157480000Y-125095000D03*
G04 #@! TO.P,J1,16*
G04 #@! TO.N,/D7*
X157480000Y-127635000D03*
G04 #@! TO.P,J1,17*
G04 #@! TO.N,N/C*
X154940000Y-125095000D03*
G04 #@! TO.P,J1,18*
G04 #@! TO.N,~MEMRD*
X154940000Y-127635000D03*
G04 #@! TO.P,J1,19*
G04 #@! TO.N,~IOWR*
X152400000Y-125095000D03*
G04 #@! TO.P,J1,20*
G04 #@! TO.N,~MEMWR*
X152400000Y-127635000D03*
G04 #@! TO.P,J1,21*
G04 #@! TO.N,N/C*
X149860000Y-125095000D03*
G04 #@! TO.P,J1,22*
X149860000Y-127635000D03*
G04 #@! TO.P,J1,23*
X147320000Y-125095000D03*
G04 #@! TO.P,J1,24*
X147320000Y-127635000D03*
G04 #@! TO.P,J1,25*
G04 #@! TO.N,/A0*
X144780000Y-125095000D03*
G04 #@! TO.P,J1,26*
G04 #@! TO.N,/A1*
X144780000Y-127635000D03*
G04 #@! TO.P,J1,27*
G04 #@! TO.N,/A2*
X142240000Y-125095000D03*
G04 #@! TO.P,J1,28*
G04 #@! TO.N,/A3*
X142240000Y-127635000D03*
G04 #@! TO.P,J1,29*
G04 #@! TO.N,/A4*
X139700000Y-125095000D03*
G04 #@! TO.P,J1,30*
G04 #@! TO.N,/A5*
X139700000Y-127635000D03*
G04 #@! TO.P,J1,31*
G04 #@! TO.N,/A6*
X137160000Y-125095000D03*
G04 #@! TO.P,J1,32*
G04 #@! TO.N,/A7*
X137160000Y-127635000D03*
G04 #@! TO.P,J1,33*
G04 #@! TO.N,/A8*
X134620000Y-125095000D03*
G04 #@! TO.P,J1,34*
G04 #@! TO.N,/A9*
X134620000Y-127635000D03*
G04 #@! TO.P,J1,35*
G04 #@! TO.N,/A10*
X132080000Y-125095000D03*
G04 #@! TO.P,J1,36*
G04 #@! TO.N,/A11*
X132080000Y-127635000D03*
G04 #@! TO.P,J1,37*
G04 #@! TO.N,/A12*
X129540000Y-125095000D03*
G04 #@! TO.P,J1,38*
G04 #@! TO.N,/A13*
X129540000Y-127635000D03*
G04 #@! TO.P,J1,39*
G04 #@! TO.N,/A14*
X127000000Y-125095000D03*
G04 #@! TO.P,J1,40*
G04 #@! TO.N,/A15*
X127000000Y-127635000D03*
G04 #@! TD*
D14*
G04 #@! TO.P,D1,1*
G04 #@! TO.N,Net-(D1-Pad1)*
X111760000Y-120015000D03*
D15*
G04 #@! TO.P,D1,2*
G04 #@! TO.N,Net-(D1-Pad2)*
X111760000Y-122555000D03*
G04 #@! TD*
D14*
G04 #@! TO.P,D2,1*
G04 #@! TO.N,Net-(D2-Pad1)*
X118110000Y-120015000D03*
D15*
G04 #@! TO.P,D2,2*
G04 #@! TO.N,Net-(D2-Pad2)*
X118110000Y-122555000D03*
G04 #@! TD*
D10*
G04 #@! TO.P,U1,1*
G04 #@! TO.N,Net-(U1-Pad1)*
X107950000Y-97790000D03*
D11*
G04 #@! TO.P,U1,8*
G04 #@! TO.N,GND*
X115570000Y-113030000D03*
G04 #@! TO.P,U1,2*
G04 #@! TO.N,~IOWR*
X107950000Y-100330000D03*
G04 #@! TO.P,U1,9*
G04 #@! TO.N,GND*
X115570000Y-110490000D03*
G04 #@! TO.P,U1,3*
G04 #@! TO.N,/~MSEL*
X107950000Y-102870000D03*
G04 #@! TO.P,U1,10*
G04 #@! TO.N,N/C*
X115570000Y-107950000D03*
G04 #@! TO.P,U1,4*
X107950000Y-105410000D03*
G04 #@! TO.P,U1,11*
G04 #@! TO.N,GND*
X115570000Y-105410000D03*
G04 #@! TO.P,U1,5*
X107950000Y-107950000D03*
G04 #@! TO.P,U1,12*
X115570000Y-102870000D03*
G04 #@! TO.P,U1,6*
X107950000Y-110490000D03*
G04 #@! TO.P,U1,13*
G04 #@! TO.N,N/C*
X115570000Y-100330000D03*
G04 #@! TO.P,U1,7*
G04 #@! TO.N,GND*
X107950000Y-113030000D03*
G04 #@! TO.P,U1,14*
G04 #@! TO.N,VCC*
X115570000Y-97790000D03*
G04 #@! TD*
D10*
G04 #@! TO.P,U2,1*
G04 #@! TO.N,GND*
X122555000Y-90170000D03*
D11*
G04 #@! TO.P,U2,11*
G04 #@! TO.N,Net-(U1-Pad1)*
X130175000Y-113030000D03*
G04 #@! TO.P,U2,2*
G04 #@! TO.N,/D0*
X122555000Y-92710000D03*
G04 #@! TO.P,U2,12*
G04 #@! TO.N,N/C*
X130175000Y-110490000D03*
G04 #@! TO.P,U2,3*
G04 #@! TO.N,/D1*
X122555000Y-95250000D03*
G04 #@! TO.P,U2,13*
G04 #@! TO.N,N/C*
X130175000Y-107950000D03*
G04 #@! TO.P,U2,4*
G04 #@! TO.N,/D2*
X122555000Y-97790000D03*
G04 #@! TO.P,U2,14*
G04 #@! TO.N,N/C*
X130175000Y-105410000D03*
G04 #@! TO.P,U2,5*
G04 #@! TO.N,/D3*
X122555000Y-100330000D03*
G04 #@! TO.P,U2,15*
G04 #@! TO.N,N/C*
X130175000Y-102870000D03*
G04 #@! TO.P,U2,6*
G04 #@! TO.N,/D4*
X122555000Y-102870000D03*
G04 #@! TO.P,U2,16*
G04 #@! TO.N,N/C*
X130175000Y-100330000D03*
G04 #@! TO.P,U2,7*
G04 #@! TO.N,/D5*
X122555000Y-105410000D03*
G04 #@! TO.P,U2,17*
G04 #@! TO.N,N/C*
X130175000Y-97790000D03*
G04 #@! TO.P,U2,8*
G04 #@! TO.N,/D6*
X122555000Y-107950000D03*
G04 #@! TO.P,U2,18*
G04 #@! TO.N,/DA1*
X130175000Y-95250000D03*
G04 #@! TO.P,U2,9*
G04 #@! TO.N,/D7*
X122555000Y-110490000D03*
G04 #@! TO.P,U2,19*
G04 #@! TO.N,/DA0*
X130175000Y-92710000D03*
G04 #@! TO.P,U2,10*
G04 #@! TO.N,GND*
X122555000Y-113030000D03*
G04 #@! TO.P,U2,20*
G04 #@! TO.N,VCC*
X130175000Y-90170000D03*
G04 #@! TD*
D10*
G04 #@! TO.P,U3,1*
G04 #@! TO.N,GND*
X138430000Y-95885000D03*
D11*
G04 #@! TO.P,U3,9*
G04 #@! TO.N,N/C*
X146050000Y-113665000D03*
G04 #@! TO.P,U3,2*
G04 #@! TO.N,/A6*
X138430000Y-98425000D03*
G04 #@! TO.P,U3,10*
G04 #@! TO.N,N/C*
X146050000Y-111125000D03*
G04 #@! TO.P,U3,3*
G04 #@! TO.N,/A7*
X138430000Y-100965000D03*
G04 #@! TO.P,U3,11*
G04 #@! TO.N,N/C*
X146050000Y-108585000D03*
G04 #@! TO.P,U3,4*
X138430000Y-103505000D03*
G04 #@! TO.P,U3,12*
G04 #@! TO.N,Net-(U3-Pad12)*
X146050000Y-106045000D03*
G04 #@! TO.P,U3,5*
G04 #@! TO.N,N/C*
X138430000Y-106045000D03*
G04 #@! TO.P,U3,13*
G04 #@! TO.N,/A15*
X146050000Y-103505000D03*
G04 #@! TO.P,U3,6*
G04 #@! TO.N,/~MSEL*
X138430000Y-108585000D03*
G04 #@! TO.P,U3,14*
G04 #@! TO.N,/A14*
X146050000Y-100965000D03*
G04 #@! TO.P,U3,7*
G04 #@! TO.N,N/C*
X138430000Y-111125000D03*
G04 #@! TO.P,U3,15*
G04 #@! TO.N,GND*
X146050000Y-98425000D03*
G04 #@! TO.P,U3,8*
X138430000Y-113665000D03*
G04 #@! TO.P,U3,16*
G04 #@! TO.N,VCC*
X146050000Y-95885000D03*
G04 #@! TD*
D10*
G04 #@! TO.P,U4,1*
G04 #@! TO.N,/DA1*
X138430000Y-71120000D03*
D11*
G04 #@! TO.P,U4,8*
G04 #@! TO.N,Net-(D2-Pad1)*
X146050000Y-86360000D03*
G04 #@! TO.P,U4,2*
G04 #@! TO.N,Net-(U4-Pad2)*
X138430000Y-73660000D03*
G04 #@! TO.P,U4,9*
G04 #@! TO.N,/DA1*
X146050000Y-83820000D03*
G04 #@! TO.P,U4,3*
G04 #@! TO.N,Net-(U4-Pad3)*
X138430000Y-76200000D03*
G04 #@! TO.P,U4,10*
G04 #@! TO.N,Net-(D1-Pad1)*
X146050000Y-81280000D03*
G04 #@! TO.P,U4,4*
G04 #@! TO.N,/MEMA16*
X138430000Y-78740000D03*
G04 #@! TO.P,U4,11*
G04 #@! TO.N,/DA0*
X146050000Y-78740000D03*
G04 #@! TO.P,U4,5*
G04 #@! TO.N,GND*
X138430000Y-81280000D03*
G04 #@! TO.P,U4,12*
G04 #@! TO.N,N/C*
X146050000Y-76200000D03*
G04 #@! TO.P,U4,6*
X138430000Y-83820000D03*
G04 #@! TO.P,U4,13*
G04 #@! TO.N,GND*
X146050000Y-73660000D03*
G04 #@! TO.P,U4,7*
X138430000Y-86360000D03*
G04 #@! TO.P,U4,14*
G04 #@! TO.N,VCC*
X146050000Y-71120000D03*
G04 #@! TD*
D10*
G04 #@! TO.P,U5,1*
G04 #@! TO.N,/DA0*
X107950000Y-74930000D03*
D11*
G04 #@! TO.P,U5,8*
G04 #@! TO.N,Net-(U5-Pad5)*
X115570000Y-90170000D03*
G04 #@! TO.P,U5,2*
G04 #@! TO.N,/A15*
X107950000Y-77470000D03*
G04 #@! TO.P,U5,9*
X115570000Y-87630000D03*
G04 #@! TO.P,U5,3*
G04 #@! TO.N,Net-(U5-Pad3)*
X107950000Y-80010000D03*
G04 #@! TO.P,U5,10*
G04 #@! TO.N,Net-(U4-Pad2)*
X115570000Y-85090000D03*
G04 #@! TO.P,U5,4*
G04 #@! TO.N,Net-(U5-Pad3)*
X107950000Y-82550000D03*
G04 #@! TO.P,U5,11*
G04 #@! TO.N,Net-(U4-Pad3)*
X115570000Y-82550000D03*
G04 #@! TO.P,U5,5*
G04 #@! TO.N,Net-(U5-Pad5)*
X107950000Y-85090000D03*
G04 #@! TO.P,U5,12*
G04 #@! TO.N,/DA1*
X115570000Y-80010000D03*
G04 #@! TO.P,U5,6*
G04 #@! TO.N,/MEMA15*
X107950000Y-87630000D03*
G04 #@! TO.P,U5,13*
G04 #@! TO.N,/A15*
X115570000Y-77470000D03*
G04 #@! TO.P,U5,7*
G04 #@! TO.N,GND*
X107950000Y-90170000D03*
G04 #@! TO.P,U5,14*
G04 #@! TO.N,VCC*
X115570000Y-74930000D03*
G04 #@! TD*
D10*
G04 #@! TO.P,U6,1*
G04 #@! TO.N,N/C*
X157480000Y-75565000D03*
D11*
G04 #@! TO.P,U6,17*
G04 #@! TO.N,/D3*
X172720000Y-113665000D03*
G04 #@! TO.P,U6,2*
G04 #@! TO.N,/MEMA16*
X157480000Y-78105000D03*
G04 #@! TO.P,U6,18*
G04 #@! TO.N,/D4*
X172720000Y-111125000D03*
G04 #@! TO.P,U6,3*
G04 #@! TO.N,/A14*
X157480000Y-80645000D03*
G04 #@! TO.P,U6,19*
G04 #@! TO.N,/D5*
X172720000Y-108585000D03*
G04 #@! TO.P,U6,4*
G04 #@! TO.N,/A12*
X157480000Y-83185000D03*
G04 #@! TO.P,U6,20*
G04 #@! TO.N,/D6*
X172720000Y-106045000D03*
G04 #@! TO.P,U6,5*
G04 #@! TO.N,/A7*
X157480000Y-85725000D03*
G04 #@! TO.P,U6,21*
G04 #@! TO.N,/D7*
X172720000Y-103505000D03*
G04 #@! TO.P,U6,6*
G04 #@! TO.N,/A6*
X157480000Y-88265000D03*
G04 #@! TO.P,U6,22*
G04 #@! TO.N,GND*
X172720000Y-100965000D03*
G04 #@! TO.P,U6,7*
G04 #@! TO.N,/A5*
X157480000Y-90805000D03*
G04 #@! TO.P,U6,23*
G04 #@! TO.N,/A10*
X172720000Y-98425000D03*
G04 #@! TO.P,U6,8*
G04 #@! TO.N,/A4*
X157480000Y-93345000D03*
G04 #@! TO.P,U6,24*
G04 #@! TO.N,~MEMRD*
X172720000Y-95885000D03*
G04 #@! TO.P,U6,9*
G04 #@! TO.N,/A3*
X157480000Y-95885000D03*
G04 #@! TO.P,U6,25*
G04 #@! TO.N,/A11*
X172720000Y-93345000D03*
G04 #@! TO.P,U6,10*
G04 #@! TO.N,/A2*
X157480000Y-98425000D03*
G04 #@! TO.P,U6,26*
G04 #@! TO.N,/A9*
X172720000Y-90805000D03*
G04 #@! TO.P,U6,11*
G04 #@! TO.N,/A1*
X157480000Y-100965000D03*
G04 #@! TO.P,U6,27*
G04 #@! TO.N,/A8*
X172720000Y-88265000D03*
G04 #@! TO.P,U6,12*
G04 #@! TO.N,/A0*
X157480000Y-103505000D03*
G04 #@! TO.P,U6,28*
G04 #@! TO.N,/A13*
X172720000Y-85725000D03*
G04 #@! TO.P,U6,13*
G04 #@! TO.N,/D0*
X157480000Y-106045000D03*
G04 #@! TO.P,U6,29*
G04 #@! TO.N,~MEMWR*
X172720000Y-83185000D03*
G04 #@! TO.P,U6,14*
G04 #@! TO.N,/D1*
X157480000Y-108585000D03*
G04 #@! TO.P,U6,30*
G04 #@! TO.N,Net-(U3-Pad12)*
X172720000Y-80645000D03*
G04 #@! TO.P,U6,15*
G04 #@! TO.N,/D2*
X157480000Y-111125000D03*
G04 #@! TO.P,U6,31*
G04 #@! TO.N,/MEMA15*
X172720000Y-78105000D03*
G04 #@! TO.P,U6,16*
G04 #@! TO.N,GND*
X157480000Y-113665000D03*
G04 #@! TO.P,U6,32*
G04 #@! TO.N,VCC*
X172720000Y-75565000D03*
G04 #@! TD*
D16*
G04 #@! TO.P,C1,1*
G04 #@! TO.N,VCC*
X146010000Y-67945000D03*
G04 #@! TO.P,C1,2*
G04 #@! TO.N,GND*
X143510000Y-67945000D03*
G04 #@! TD*
G04 #@! TO.P,C2,1*
G04 #@! TO.N,VCC*
X130135000Y-86995000D03*
G04 #@! TO.P,C2,2*
G04 #@! TO.N,GND*
X127635000Y-86995000D03*
G04 #@! TD*
G04 #@! TO.P,C3,1*
G04 #@! TO.N,VCC*
X146010000Y-92075000D03*
G04 #@! TO.P,C3,2*
G04 #@! TO.N,GND*
X143510000Y-92075000D03*
G04 #@! TD*
G04 #@! TO.P,C4,1*
G04 #@! TO.N,VCC*
X115530000Y-93980000D03*
G04 #@! TO.P,C4,2*
G04 #@! TO.N,GND*
X113030000Y-93980000D03*
G04 #@! TD*
G04 #@! TO.P,C5,1*
G04 #@! TO.N,VCC*
X115570000Y-71755000D03*
G04 #@! TO.P,C5,2*
G04 #@! TO.N,GND*
X113070000Y-71755000D03*
G04 #@! TD*
G04 #@! TO.P,C6,1*
G04 #@! TO.N,VCC*
X172720000Y-72390000D03*
G04 #@! TO.P,C6,2*
G04 #@! TO.N,GND*
X170220000Y-72390000D03*
G04 #@! TD*
G04 #@! TO.P,C7,1*
G04 #@! TO.N,VCC*
X195540000Y-77470000D03*
G04 #@! TO.P,C7,2*
G04 #@! TO.N,GND*
X193040000Y-77470000D03*
G04 #@! TD*
G04 #@! TO.P,R1,1*
G04 #@! TO.N,VCC*
X111760000Y-135255000D03*
D11*
G04 #@! TO.P,R1,2*
G04 #@! TO.N,Net-(D1-Pad2)*
X111760000Y-125095000D03*
G04 #@! TD*
D16*
G04 #@! TO.P,R2,1*
G04 #@! TO.N,VCC*
X118110000Y-135255000D03*
D11*
G04 #@! TO.P,R2,2*
G04 #@! TO.N,Net-(D2-Pad2)*
X118110000Y-125095000D03*
G04 #@! TD*
D10*
G04 #@! TO.P,C8,1*
G04 #@! TO.N,VCC*
X186240000Y-131600000D03*
D16*
G04 #@! TO.P,C8,2*
G04 #@! TO.N,GND*
X188740000Y-131600000D03*
G04 #@! TD*
D17*
G04 #@! TO.N,Net-(D1-Pad1)*
X137075400Y-88855000D03*
G04 #@! TO.N,Net-(D2-Pad1)*
X135900000Y-95120000D03*
G04 #@! TO.N,/D1*
X132159500Y-99768800D03*
G04 #@! TO.N,/D2*
X120808500Y-116051700D03*
G04 #@! TO.N,/D6*
X127948500Y-115195600D03*
G04 #@! TO.N,/D7*
X192600000Y-105450000D03*
G04 #@! TO.N,/A2*
X175418100Y-89626600D03*
X167383500Y-89626600D03*
G04 #@! TO.N,/A8*
X152177800Y-98155000D03*
X139511600Y-120214600D03*
G04 #@! TO.N,/A9*
X178007000Y-90881700D03*
X164886000Y-115561800D03*
G04 #@! TO.N,/A10*
X136131300Y-99237800D03*
G04 #@! TO.N,/A11*
X154037300Y-96317900D03*
X140484100Y-120969400D03*
G04 #@! TO.N,/A14*
X138124700Y-117548900D03*
G04 #@! TO.N,Net-(U1-Pad1)*
X111504100Y-102509600D03*
G04 #@! TD*
D18*
G04 #@! TO.N,Net-(D1-Pad1)*
X137508000Y-88855000D02*
X137075400Y-88855000D01*
X144944900Y-81418100D02*
X137508000Y-88855000D01*
X144944900Y-81280000D02*
X144944900Y-81418100D01*
X146050000Y-81280000D02*
X144944900Y-81280000D01*
G04 #@! TO.N,Net-(D2-Pad1)*
X144944900Y-87145300D02*
X144944900Y-86360000D01*
X135900000Y-95120000D02*
X144944900Y-87145300D01*
X144944900Y-86360000D02*
X146050000Y-86360000D01*
D19*
G04 #@! TO.N,VCC*
X130135000Y-83225000D02*
X130135000Y-86995000D01*
X130175000Y-83185000D02*
X130135000Y-83225000D01*
X118745000Y-83185000D02*
X130175000Y-83185000D01*
X195540000Y-83145000D02*
X195580000Y-83185000D01*
X195540000Y-80605000D02*
X195540000Y-83145000D01*
X172720000Y-72390000D02*
X172720000Y-75565000D01*
X146010000Y-95845000D02*
X146050000Y-95885000D01*
X146010000Y-92075000D02*
X146010000Y-95845000D01*
X149225000Y-88860000D02*
X146010000Y-92075000D01*
X149225000Y-71755000D02*
X149225000Y-88860000D01*
X148590000Y-71120000D02*
X149225000Y-71755000D01*
X146050000Y-71120000D02*
X148590000Y-71120000D01*
X130135000Y-90130000D02*
X130175000Y-90170000D01*
X130135000Y-86995000D02*
X130135000Y-90130000D01*
X115530000Y-74890000D02*
X115570000Y-74930000D01*
X115570000Y-71755000D02*
X115530000Y-74890000D01*
X146010000Y-71080000D02*
X146050000Y-71120000D01*
X146010000Y-67945000D02*
X146010000Y-71080000D01*
X118070000Y-65405000D02*
X115570000Y-71755000D01*
X143470000Y-65405000D02*
X118070000Y-65405000D01*
X146010000Y-67945000D02*
X143470000Y-65405000D01*
X148550000Y-65405000D02*
X146010000Y-67945000D01*
X166866000Y-65405000D02*
X148550000Y-65405000D01*
X172720000Y-71258600D02*
X166866000Y-65405000D01*
X172720000Y-72390000D02*
X172720000Y-71258600D01*
X178435000Y-126797000D02*
X176733000Y-125095000D01*
X178435000Y-135255000D02*
X178435000Y-126797000D01*
X118110000Y-135255000D02*
X178435000Y-135255000D01*
X111760000Y-135255000D02*
X118110000Y-135255000D01*
X195540000Y-80605000D02*
X195580000Y-80645000D01*
X195540000Y-77470000D02*
X195540000Y-80605000D01*
X195540000Y-77470000D02*
X198120000Y-77470000D01*
X172720000Y-125095000D02*
X175260000Y-125095000D01*
X176733000Y-125095000D02*
X175260000Y-125095000D01*
X176733000Y-125095000D02*
X175260000Y-125095000D01*
X115530000Y-97750000D02*
X115550000Y-97770000D01*
X115530000Y-93980000D02*
X115530000Y-97750000D01*
X115550000Y-97770000D02*
X115570000Y-97790000D01*
X116165000Y-97750000D02*
X116205000Y-97790000D01*
X116145000Y-97770000D02*
X116165000Y-97750000D01*
X115550000Y-97770000D02*
X116145000Y-97770000D01*
X195540000Y-77470000D02*
X195540000Y-80605000D01*
X118745000Y-93345000D02*
X118745000Y-83185000D01*
X118110000Y-93980000D02*
X118745000Y-93345000D01*
X115530000Y-93980000D02*
X118110000Y-93980000D01*
X118110000Y-74930000D02*
X115570000Y-74930000D01*
X118745000Y-75565000D02*
X118110000Y-74930000D01*
X118745000Y-83185000D02*
X118745000Y-75565000D01*
X175670000Y-74510000D02*
X172720000Y-72390000D01*
X194830000Y-74380000D02*
X175670000Y-74510000D01*
X197500000Y-76000000D02*
X194830000Y-74380000D01*
X198120000Y-77470000D02*
X197500000Y-76000000D01*
X182245000Y-131699000D02*
X186300000Y-131660000D01*
X178435000Y-127889000D02*
X182245000Y-131699000D01*
X178435000Y-126797000D02*
X178435000Y-127889000D01*
X175310800Y-117043200D02*
X175260000Y-125171200D01*
X198183500Y-116941600D02*
X175310800Y-117043200D01*
X198120000Y-77470000D02*
X198183500Y-116941600D01*
G04 #@! TO.N,GND*
X127038300Y-86995000D02*
X123863300Y-90170000D01*
X127635000Y-86995000D02*
X127038300Y-86995000D01*
X122555000Y-90170000D02*
X123863300Y-90170000D01*
X139738300Y-95846700D02*
X139738300Y-95885000D01*
X143510000Y-92075000D02*
X139738300Y-95846700D01*
X138430000Y-95885000D02*
X139738300Y-95885000D01*
X180340000Y-113665000D02*
X179031700Y-113665000D01*
X138430000Y-113665000D02*
X137121700Y-113665000D01*
X122555000Y-113030000D02*
X123863300Y-113030000D01*
X107950000Y-113030000D02*
X109258300Y-113030000D01*
X122555000Y-113030000D02*
X121246700Y-113030000D01*
X138430000Y-113665000D02*
X139738300Y-113665000D01*
X141076400Y-115003100D02*
X139738300Y-113665000D01*
X154833600Y-115003100D02*
X141076400Y-115003100D01*
X156171700Y-113665000D02*
X154833600Y-115003100D01*
X157480000Y-113665000D02*
X156171700Y-113665000D01*
X166341300Y-113665000D02*
X158788300Y-113665000D01*
X167659700Y-114983400D02*
X166341300Y-113665000D01*
X177713300Y-114983400D02*
X167659700Y-114983400D01*
X179031700Y-113665000D02*
X177713300Y-114983400D01*
X157480000Y-113665000D02*
X158788300Y-113665000D01*
X110599900Y-114371600D02*
X109258300Y-113030000D01*
X118943600Y-114371600D02*
X110599900Y-114371600D01*
X120285200Y-113030000D02*
X118943600Y-114371600D01*
X121246700Y-113030000D02*
X120285200Y-113030000D01*
X127130500Y-113030000D02*
X123863300Y-113030000D01*
X128444400Y-114343900D02*
X127130500Y-113030000D01*
X136442800Y-114343900D02*
X128444400Y-114343900D01*
X137121700Y-113665000D02*
X136442800Y-114343900D01*
X175260000Y-127635000D02*
X172720000Y-127635000D01*
D18*
G04 #@! TO.N,/D0*
X159721800Y-104908300D02*
X158585100Y-106045000D01*
X178098200Y-104908300D02*
X159721800Y-104908300D01*
X179234900Y-106045000D02*
X178098200Y-104908300D01*
X180340000Y-106045000D02*
X179234900Y-106045000D01*
X157480000Y-106045000D02*
X158585100Y-106045000D01*
X134899388Y-100045205D02*
X137089183Y-102235000D01*
X122555000Y-92710000D02*
X126305600Y-96460600D01*
X156680001Y-105245001D02*
X157480000Y-106045000D01*
X126305600Y-96460600D02*
X131513600Y-96460600D01*
X153670000Y-102235000D02*
X156680001Y-105245001D01*
X134899388Y-99846388D02*
X134899388Y-100045205D01*
X137089183Y-102235000D02*
X153670000Y-102235000D01*
X131513600Y-96460600D02*
X134899388Y-99846388D01*
G04 #@! TO.N,/D1*
X132159500Y-101353800D02*
X132159500Y-99768800D01*
X138285600Y-107479900D02*
X132159500Y-101353800D01*
X155269800Y-107479900D02*
X138285600Y-107479900D01*
X156374900Y-108585000D02*
X155269800Y-107479900D01*
X157480000Y-108585000D02*
X156374900Y-108585000D01*
X159690800Y-107479300D02*
X158585100Y-108585000D01*
X178129200Y-107479300D02*
X159690800Y-107479300D01*
X179234900Y-108585000D02*
X178129200Y-107479300D01*
X180340000Y-108585000D02*
X179234900Y-108585000D01*
X157480000Y-108585000D02*
X158585100Y-108585000D01*
G04 #@! TO.N,/D2*
X169362400Y-111125000D02*
X157480000Y-111125000D01*
X170486600Y-110000800D02*
X169362400Y-111125000D01*
X178110700Y-110000800D02*
X170486600Y-110000800D01*
X179234900Y-111125000D02*
X178110700Y-110000800D01*
X180340000Y-111125000D02*
X179234900Y-111125000D01*
X122270000Y-117140000D02*
X120808500Y-116051700D01*
X125760000Y-126500000D02*
X122270000Y-117140000D01*
X130009000Y-126365000D02*
X125760000Y-126500000D01*
X130708800Y-127064800D02*
X130009000Y-126365000D01*
X130708800Y-127964600D02*
X130708800Y-127064800D01*
X132002600Y-129258400D02*
X130708800Y-127964600D01*
X161391300Y-127140100D02*
X161391300Y-127925500D01*
X160058400Y-129258400D02*
X132002600Y-129258400D01*
X161391300Y-127925500D02*
X160058400Y-129258400D01*
X162560000Y-125095000D02*
X162560000Y-126263700D01*
X162267700Y-126263700D02*
X161391300Y-127140100D01*
X162560000Y-126263700D02*
X162267700Y-126263700D01*
G04 #@! TO.N,/D3*
X194474900Y-113665000D02*
X195580000Y-113665000D01*
X191200000Y-116030000D02*
X194474900Y-113665000D01*
X173870000Y-116030000D02*
X191200000Y-116030000D01*
X166370000Y-124679500D02*
X173870000Y-116030000D01*
X164605100Y-126466300D02*
X165413200Y-126466300D01*
X163728700Y-127635000D02*
X163728700Y-127342700D01*
X166370000Y-125509500D02*
X166370000Y-124679500D01*
X165413200Y-126466300D02*
X166370000Y-125509500D01*
X163728700Y-127342700D02*
X164605100Y-126466300D01*
X162560000Y-127635000D02*
X163728700Y-127635000D01*
G04 #@! TO.N,/D4*
X195580000Y-111125000D02*
X194474900Y-111125000D01*
X160020000Y-125095000D02*
X161188700Y-125095000D01*
X172720000Y-111125000D02*
X171614900Y-111125000D01*
X122555000Y-102870000D02*
X122555000Y-103975100D01*
X122326000Y-103975100D02*
X122555000Y-103975100D01*
X121442400Y-104858700D02*
X122326000Y-103975100D01*
X121442400Y-105916900D02*
X121442400Y-104858700D01*
X122205500Y-106680000D02*
X121442400Y-105916900D01*
X124238800Y-106680000D02*
X122205500Y-106680000D01*
X126762000Y-109203200D02*
X124238800Y-106680000D01*
X130691600Y-109203200D02*
X126762000Y-109203200D01*
X133735800Y-112247400D02*
X130691600Y-109203200D01*
X170492500Y-112247400D02*
X133735800Y-112247400D01*
X171614900Y-111125000D02*
X170492500Y-112247400D01*
X172720000Y-111125000D02*
X173825100Y-111125000D01*
X192431300Y-113168600D02*
X194474900Y-111125000D01*
X181480100Y-113168600D02*
X192431300Y-113168600D01*
X181480100Y-114153800D02*
X181480100Y-113168600D01*
X180040500Y-115593400D02*
X181480100Y-114153800D01*
X170396600Y-115593400D02*
X180040500Y-115593400D01*
X161188700Y-124801300D02*
X170396600Y-115593400D01*
X161188700Y-125095000D02*
X161188700Y-124801300D01*
X175259900Y-112559800D02*
X173825100Y-111125000D01*
X180871300Y-112559800D02*
X175259900Y-112559800D01*
X181480100Y-113168600D02*
X180871300Y-112559800D01*
G04 #@! TO.N,/D5*
X122555000Y-105410000D02*
X123660100Y-105410000D01*
X172720000Y-108585000D02*
X171614900Y-108585000D01*
X195580000Y-108585000D02*
X194474900Y-108585000D01*
X178659600Y-108585000D02*
X172720000Y-108585000D01*
X179768800Y-109694200D02*
X178659600Y-108585000D01*
X193365700Y-109694200D02*
X179768800Y-109694200D01*
X194474900Y-108585000D02*
X193365700Y-109694200D01*
X125074000Y-106823900D02*
X123660100Y-105410000D01*
X132292200Y-106823900D02*
X125074000Y-106823900D01*
X135164100Y-109695800D02*
X132292200Y-106823900D01*
X169929000Y-109695800D02*
X135164100Y-109695800D01*
X171039800Y-108585000D02*
X169929000Y-109695800D01*
X171614900Y-108585000D02*
X171039800Y-108585000D01*
G04 #@! TO.N,/D6*
X195580000Y-106045000D02*
X194474900Y-106045000D01*
X178659600Y-106045000D02*
X172720000Y-106045000D01*
X179779500Y-107164900D02*
X178659600Y-106045000D01*
X193355000Y-107164900D02*
X179779500Y-107164900D01*
X194474900Y-106045000D02*
X193355000Y-107164900D01*
X128696200Y-115943300D02*
X127948500Y-115195600D01*
X147451800Y-115943300D02*
X128696200Y-115943300D01*
X156311300Y-124802800D02*
X147451800Y-115943300D01*
X156311300Y-125095000D02*
X156311300Y-124802800D01*
X157480000Y-125095000D02*
X156311300Y-125095000D01*
G04 #@! TO.N,/D7*
X157480000Y-127635000D02*
X156311300Y-127635000D01*
X122555000Y-110490000D02*
X121449900Y-110490000D01*
X195580000Y-103505000D02*
X194474900Y-103505000D01*
X120179900Y-111760000D02*
X121449900Y-110490000D01*
X107601500Y-111760000D02*
X120179900Y-111760000D01*
X106815700Y-112545800D02*
X107601500Y-111760000D01*
X106815700Y-113474100D02*
X106815700Y-112545800D01*
X108376500Y-115034900D02*
X106815700Y-113474100D01*
X119142900Y-115034900D02*
X108376500Y-115034900D01*
X119282400Y-114895400D02*
X119142900Y-115034900D01*
X121287600Y-114895400D02*
X119282400Y-114895400D01*
X122784800Y-116392600D02*
X121287600Y-114895400D01*
X145440100Y-116392600D02*
X122784800Y-116392600D01*
X153670000Y-124622500D02*
X145440100Y-116392600D01*
X153670000Y-125517700D02*
X153670000Y-124622500D01*
X154618600Y-126466300D02*
X153670000Y-125517700D01*
X155434900Y-126466300D02*
X154618600Y-126466300D01*
X156311300Y-127342700D02*
X155434900Y-126466300D01*
X156311300Y-127635000D02*
X156311300Y-127342700D01*
X178659600Y-103505000D02*
X172720000Y-103505000D01*
X179812600Y-104658000D02*
X178659600Y-103505000D01*
X182319200Y-104658000D02*
X179812600Y-104658000D01*
X193321900Y-104658000D02*
X182319200Y-104658000D01*
X194474900Y-103505000D02*
X193321900Y-104658000D01*
X193300000Y-104660000D02*
X192600000Y-105450000D01*
G04 #@! TO.N,~MEMRD*
X174283000Y-95427100D02*
X173825100Y-95885000D01*
X177440300Y-95427100D02*
X174283000Y-95427100D01*
X178106200Y-94761200D02*
X177440300Y-95427100D01*
X193351100Y-94761200D02*
X178106200Y-94761200D01*
X194474900Y-95885000D02*
X193351100Y-94761200D01*
X195580000Y-95885000D02*
X194474900Y-95885000D01*
X172720000Y-95885000D02*
X173825100Y-95885000D01*
G04 #@! TO.N,~IOWR*
X107950000Y-100330000D02*
X107950000Y-101435100D01*
X152400000Y-125095000D02*
X151231300Y-125095000D01*
X107811900Y-101435100D02*
X107950000Y-101435100D01*
X106409000Y-102838000D02*
X107811900Y-101435100D01*
X106409000Y-113642600D02*
X106409000Y-102838000D01*
X108208000Y-115441600D02*
X106409000Y-113642600D01*
X119311400Y-115441600D02*
X108208000Y-115441600D01*
X119450900Y-115302100D02*
X119311400Y-115441600D01*
X121119100Y-115302100D02*
X119450900Y-115302100D01*
X122616300Y-116799300D02*
X121119100Y-115302100D01*
X143241400Y-116799300D02*
X122616300Y-116799300D01*
X151231300Y-124789200D02*
X143241400Y-116799300D01*
X151231300Y-125095000D02*
X151231300Y-124789200D01*
G04 #@! TO.N,/A0*
X159721800Y-102368300D02*
X158585100Y-103505000D01*
X178098200Y-102368300D02*
X159721800Y-102368300D01*
X179234900Y-103505000D02*
X178098200Y-102368300D01*
X180340000Y-103505000D02*
X179234900Y-103505000D01*
X157480000Y-103505000D02*
X158585100Y-103505000D01*
G04 #@! TO.N,/A1*
X159700100Y-99850000D02*
X158585100Y-100965000D01*
X178119900Y-99850000D02*
X159700100Y-99850000D01*
X179234900Y-100965000D02*
X178119900Y-99850000D01*
X180340000Y-100965000D02*
X179234900Y-100965000D01*
X157480000Y-100965000D02*
X158585100Y-100965000D01*
G04 #@! TO.N,/A2*
X175418100Y-89626600D02*
X167383500Y-89626600D01*
G04 #@! TO.N,/A3*
X159696300Y-96996200D02*
X158585100Y-95885000D01*
X174128700Y-96996200D02*
X159696300Y-96996200D01*
X175239900Y-95885000D02*
X174128700Y-96996200D01*
X180340000Y-95885000D02*
X175239900Y-95885000D01*
X157480000Y-95885000D02*
X158585100Y-95885000D01*
G04 #@! TO.N,/A4*
X180340000Y-93345000D02*
X179234900Y-93345000D01*
X157480000Y-93345000D02*
X158585100Y-93345000D01*
X159696300Y-94456200D02*
X158585100Y-93345000D01*
X177548600Y-94456200D02*
X159696300Y-94456200D01*
X178659800Y-93345000D02*
X177548600Y-94456200D01*
X179234900Y-93345000D02*
X178659800Y-93345000D01*
G04 #@! TO.N,/A5*
X180340000Y-90805000D02*
X179234900Y-90805000D01*
X157480000Y-90805000D02*
X158585100Y-90805000D01*
X178090300Y-91949600D02*
X179234900Y-90805000D01*
X159729700Y-91949600D02*
X178090300Y-91949600D01*
X158585100Y-90805000D02*
X159729700Y-91949600D01*
G04 #@! TO.N,/A6*
X159696400Y-87153700D02*
X158585100Y-88265000D01*
X178123600Y-87153700D02*
X159696400Y-87153700D01*
X179234900Y-88265000D02*
X178123600Y-87153700D01*
X157480000Y-88265000D02*
X158585100Y-88265000D01*
X180340000Y-88265000D02*
X179234900Y-88265000D01*
G04 #@! TO.N,/A7*
X159750900Y-84559200D02*
X158585100Y-85725000D01*
X178069100Y-84559200D02*
X159750900Y-84559200D01*
X179234900Y-85725000D02*
X178069100Y-84559200D01*
X180340000Y-85725000D02*
X179234900Y-85725000D01*
X157480000Y-85725000D02*
X157618200Y-85725000D01*
X157618200Y-85725000D02*
X158585100Y-85725000D01*
X157618200Y-85725000D02*
X157618200Y-85973700D01*
X135293099Y-98801934D02*
X135293099Y-99737165D01*
X136520934Y-100965000D02*
X137298630Y-100965000D01*
X137083933Y-97011100D02*
X135293099Y-98801934D01*
X157618200Y-85973700D02*
X146580800Y-97011100D01*
X137298630Y-100965000D02*
X138430000Y-100965000D01*
X146580800Y-97011100D02*
X137083933Y-97011100D01*
X135293099Y-99737165D02*
X136520934Y-100965000D01*
G04 #@! TO.N,/A8*
X195580000Y-88265000D02*
X194474900Y-88265000D01*
X173272600Y-88265000D02*
X173825100Y-88265000D01*
X173272600Y-88265000D02*
X172720000Y-88265000D01*
X175116700Y-88265000D02*
X173825100Y-88265000D01*
X176231600Y-89379900D02*
X175116700Y-88265000D01*
X193360000Y-89379900D02*
X176231600Y-89379900D01*
X194474900Y-88265000D02*
X193360000Y-89379900D01*
X152177800Y-94503900D02*
X152177800Y-98155000D01*
X157146700Y-89535000D02*
X152177800Y-94503900D01*
X161833700Y-89535000D02*
X157146700Y-89535000D01*
X163103700Y-88265000D02*
X161833700Y-89535000D01*
X172720000Y-88265000D02*
X163103700Y-88265000D01*
X134631200Y-125095000D02*
X134620000Y-125095000D01*
X139511600Y-120214600D02*
X134631200Y-125095000D01*
G04 #@! TO.N,/A9*
X172720000Y-90805000D02*
X173825100Y-90805000D01*
X173901800Y-90881700D02*
X178007000Y-90881700D01*
X173825100Y-90805000D02*
X173901800Y-90881700D01*
X134620000Y-127635000D02*
X135788700Y-127635000D01*
X135788700Y-127998200D02*
X135788700Y-127635000D01*
X136594400Y-128803900D02*
X135788700Y-127998200D01*
X157972700Y-128803900D02*
X136594400Y-128803900D01*
X158750000Y-128026600D02*
X157972700Y-128803900D01*
X158750000Y-121697800D02*
X158750000Y-128026600D01*
X164886000Y-115561800D02*
X158750000Y-121697800D01*
G04 #@! TO.N,/A10*
X174945200Y-97304900D02*
X173825100Y-98425000D01*
X193354800Y-97304900D02*
X174945200Y-97304900D01*
X194474900Y-98425000D02*
X193354800Y-97304900D01*
X195580000Y-98425000D02*
X194474900Y-98425000D01*
X173272600Y-98425000D02*
X173825100Y-98425000D01*
X173272600Y-98425000D02*
X172720000Y-98425000D01*
X159999900Y-98425000D02*
X158742601Y-99682299D01*
X172720000Y-98425000D02*
X159999900Y-98425000D01*
X158742601Y-99682299D02*
X136575799Y-99682299D01*
X136575799Y-99682299D02*
X136131300Y-99237800D01*
G04 #@! TO.N,/A11*
X195580000Y-93345000D02*
X194474900Y-93345000D01*
X177954900Y-93345000D02*
X172720000Y-93345000D01*
X179066200Y-92233700D02*
X177954900Y-93345000D01*
X193363600Y-92233700D02*
X179066200Y-92233700D01*
X194474900Y-93345000D02*
X193363600Y-92233700D01*
X132080000Y-127635000D02*
X133248700Y-127635000D01*
X133248700Y-127271800D02*
X133248700Y-127635000D01*
X134155500Y-126365000D02*
X133248700Y-127271800D01*
X135042700Y-126365000D02*
X134155500Y-126365000D01*
X135788800Y-125618900D02*
X135042700Y-126365000D01*
X135788800Y-124764500D02*
X135788800Y-125618900D01*
X139583900Y-120969400D02*
X135788800Y-124764500D01*
X140484100Y-120969400D02*
X139583900Y-120969400D01*
X154037300Y-95218100D02*
X154037300Y-96317900D01*
X157021700Y-92233700D02*
X154037300Y-95218100D01*
X159438500Y-92233700D02*
X157021700Y-92233700D01*
X160549800Y-93345000D02*
X159438500Y-92233700D01*
X172720000Y-93345000D02*
X160549800Y-93345000D01*
G04 #@! TO.N,/A12*
X159750900Y-82019200D02*
X158585100Y-83185000D01*
X178069100Y-82019200D02*
X159750900Y-82019200D01*
X179234900Y-83185000D02*
X178069100Y-82019200D01*
X180340000Y-83185000D02*
X179234900Y-83185000D01*
X157480000Y-83185000D02*
X158585100Y-83185000D01*
G04 #@! TO.N,/A13*
X178659600Y-85725000D02*
X172720000Y-85725000D01*
X179779500Y-86844900D02*
X178659600Y-85725000D01*
X193355000Y-86844900D02*
X179779500Y-86844900D01*
X194474900Y-85725000D02*
X193355000Y-86844900D01*
X195580000Y-85725000D02*
X194474900Y-85725000D01*
G04 #@! TO.N,/A14*
X159750900Y-79479200D02*
X158585100Y-80645000D01*
X178069100Y-79479200D02*
X159750900Y-79479200D01*
X179234900Y-80645000D02*
X178069100Y-79479200D01*
X180340000Y-80645000D02*
X179234900Y-80645000D01*
X157480000Y-80645000D02*
X158585100Y-80645000D01*
X128168700Y-124731800D02*
X128168700Y-125095000D01*
X135351600Y-117548900D02*
X128168700Y-124731800D01*
X138124700Y-117548900D02*
X135351600Y-117548900D01*
X127000000Y-125095000D02*
X128168700Y-125095000D01*
G04 #@! TO.N,/A15*
X115570000Y-77470000D02*
X107950000Y-77470000D01*
X146050000Y-103505000D02*
X144944900Y-103505000D01*
X115570000Y-87630000D02*
X115570000Y-88735100D01*
X115095800Y-98915200D02*
X114377500Y-98196900D01*
X132389500Y-98915200D02*
X115095800Y-98915200D01*
X132986900Y-99512600D02*
X132389500Y-98915200D01*
X132986900Y-99677200D02*
X132986900Y-99512600D01*
X137925900Y-104616200D02*
X132986900Y-99677200D01*
X143833700Y-104616200D02*
X137925900Y-104616200D01*
X144944900Y-103505000D02*
X143833700Y-104616200D01*
X115799000Y-88735100D02*
X115570000Y-88735100D01*
X116677200Y-89613300D02*
X115799000Y-88735100D01*
X116677200Y-90641800D02*
X116677200Y-89613300D01*
X114377500Y-92941500D02*
X116677200Y-90641800D01*
X114377500Y-98196900D02*
X114377500Y-92941500D01*
X120280000Y-116730000D02*
X121740000Y-117650000D01*
X121740000Y-117665000D02*
X125590000Y-127570000D01*
X108190000Y-116100000D02*
X119900000Y-116060000D01*
X105930000Y-113910000D02*
X108190000Y-116100000D01*
X106002300Y-100699300D02*
X105930000Y-113910000D01*
X107785500Y-98916100D02*
X106002300Y-100699300D01*
X113658300Y-98916100D02*
X107785500Y-98916100D01*
X114377500Y-98196900D02*
X113658300Y-98916100D01*
X119900000Y-116070000D02*
X120260000Y-116750000D01*
X125590300Y-127622300D02*
X127000000Y-127635000D01*
G04 #@! TO.N,Net-(U1-Pad1)*
X113134500Y-104140000D02*
X111504100Y-102509600D01*
X117123300Y-104140000D02*
X113134500Y-104140000D01*
X122068700Y-109085400D02*
X117123300Y-104140000D01*
X125125300Y-109085400D02*
X122068700Y-109085400D01*
X129069900Y-113030000D02*
X125125300Y-109085400D01*
X130175000Y-113030000D02*
X129069900Y-113030000D01*
G04 #@! TO.N,/~MSEL*
X138430000Y-108585000D02*
X137324900Y-108585000D01*
X107950000Y-102870000D02*
X109055100Y-102870000D01*
X137324900Y-108447000D02*
X137324900Y-108585000D01*
X130621600Y-101743700D02*
X137324900Y-108447000D01*
X110181400Y-101743700D02*
X130621600Y-101743700D01*
X109055100Y-102870000D02*
X110181400Y-101743700D01*
G04 #@! TO.N,/DA1*
X146050000Y-83820000D02*
X144944900Y-83820000D01*
X146279000Y-82714900D02*
X146050000Y-82714900D01*
X147203300Y-81790600D02*
X146279000Y-82714900D01*
X147203300Y-78314300D02*
X147203300Y-81790600D01*
X146359000Y-77470000D02*
X147203300Y-78314300D01*
X145747000Y-77470000D02*
X146359000Y-77470000D01*
X139535100Y-71258100D02*
X145747000Y-77470000D01*
X139535100Y-71120000D02*
X139535100Y-71258100D01*
X138430000Y-71120000D02*
X139535100Y-71120000D01*
X146050000Y-83820000D02*
X146050000Y-82714900D01*
X133514900Y-95250000D02*
X144944900Y-83820000D01*
X130175000Y-95250000D02*
X133514900Y-95250000D01*
G04 #@! TO.N,/DA0*
X144944900Y-78969000D02*
X144944900Y-78740000D01*
X138823900Y-85090000D02*
X144944900Y-78969000D01*
X138071300Y-85090000D02*
X138823900Y-85090000D01*
X131280100Y-91881200D02*
X138071300Y-85090000D01*
X131280100Y-92710000D02*
X131280100Y-91881200D01*
X130175000Y-92710000D02*
X131280100Y-92710000D01*
X146050000Y-78740000D02*
X144944900Y-78740000D01*
G04 #@! TO.N,Net-(U5-Pad5)*
X114135100Y-90170000D02*
X115570000Y-90170000D01*
X109055100Y-85090000D02*
X114135100Y-90170000D01*
X107950000Y-85090000D02*
X109055100Y-85090000D01*
G04 #@! TO.N,Net-(U3-Pad12)*
X195580000Y-100965000D02*
X195580000Y-99859900D01*
X177862100Y-80645000D02*
X172720000Y-80645000D01*
X178988200Y-81771100D02*
X177862100Y-80645000D01*
X182359900Y-81771100D02*
X178988200Y-81771100D01*
X185128900Y-84540100D02*
X182359900Y-81771100D01*
X195967200Y-84540100D02*
X185128900Y-84540100D01*
X196729400Y-85302300D02*
X195967200Y-84540100D01*
X196729400Y-98848600D02*
X196729400Y-85302300D01*
X195718100Y-99859900D02*
X196729400Y-98848600D01*
X195580000Y-99859900D02*
X195718100Y-99859900D01*
G04 #@! TD*
D20*
G04 #@! TO.N,GND*
G36*
X199898000Y-137668000D02*
X102362000Y-137668000D01*
X102362000Y-133775431D01*
X104315000Y-133775431D01*
X104315000Y-134664569D01*
X104655259Y-135486026D01*
X105283974Y-136114741D01*
X106105431Y-136455000D01*
X106994569Y-136455000D01*
X107816026Y-136114741D01*
X108444741Y-135486026D01*
X108785000Y-134664569D01*
X108785000Y-133775431D01*
X108444741Y-132953974D01*
X107816026Y-132325259D01*
X106994569Y-131985000D01*
X106105431Y-131985000D01*
X105283974Y-132325259D01*
X104655259Y-132953974D01*
X104315000Y-133775431D01*
X102362000Y-133775431D01*
X102362000Y-119015000D01*
X110112560Y-119015000D01*
X110112560Y-121015000D01*
X110161843Y-121262765D01*
X110302191Y-121472809D01*
X110438723Y-121564038D01*
X110373914Y-121628847D01*
X110125000Y-122229778D01*
X110125000Y-122880222D01*
X110373914Y-123481153D01*
X110833847Y-123941086D01*
X110877168Y-123959030D01*
X110725423Y-124060423D01*
X110408260Y-124535091D01*
X110296887Y-125095000D01*
X110408260Y-125654909D01*
X110725423Y-126129577D01*
X111200091Y-126446740D01*
X111618667Y-126530000D01*
X111901333Y-126530000D01*
X112319909Y-126446740D01*
X112794577Y-126129577D01*
X113111740Y-125654909D01*
X113223113Y-125095000D01*
X113111740Y-124535091D01*
X112794577Y-124060423D01*
X112642832Y-123959030D01*
X112686153Y-123941086D01*
X113146086Y-123481153D01*
X113395000Y-122880222D01*
X113395000Y-122229778D01*
X113146086Y-121628847D01*
X113081277Y-121564038D01*
X113217809Y-121472809D01*
X113358157Y-121262765D01*
X113407440Y-121015000D01*
X113407440Y-119015000D01*
X116462560Y-119015000D01*
X116462560Y-121015000D01*
X116511843Y-121262765D01*
X116652191Y-121472809D01*
X116788723Y-121564038D01*
X116723914Y-121628847D01*
X116475000Y-122229778D01*
X116475000Y-122880222D01*
X116723914Y-123481153D01*
X117183847Y-123941086D01*
X117227168Y-123959030D01*
X117075423Y-124060423D01*
X116758260Y-124535091D01*
X116646887Y-125095000D01*
X116758260Y-125654909D01*
X117075423Y-126129577D01*
X117550091Y-126446740D01*
X117968667Y-126530000D01*
X118251333Y-126530000D01*
X118669909Y-126446740D01*
X119144577Y-126129577D01*
X119461740Y-125654909D01*
X119573113Y-125095000D01*
X119461740Y-124535091D01*
X119144577Y-124060423D01*
X118992832Y-123959030D01*
X119036153Y-123941086D01*
X119496086Y-123481153D01*
X119745000Y-122880222D01*
X119745000Y-122229778D01*
X119496086Y-121628847D01*
X119431277Y-121564038D01*
X119567809Y-121472809D01*
X119708157Y-121262765D01*
X119757440Y-121015000D01*
X119757440Y-119015000D01*
X119708157Y-118767235D01*
X119567809Y-118557191D01*
X119357765Y-118416843D01*
X119110000Y-118367560D01*
X117110000Y-118367560D01*
X116862235Y-118416843D01*
X116652191Y-118557191D01*
X116511843Y-118767235D01*
X116462560Y-119015000D01*
X113407440Y-119015000D01*
X113358157Y-118767235D01*
X113217809Y-118557191D01*
X113007765Y-118416843D01*
X112760000Y-118367560D01*
X110760000Y-118367560D01*
X110512235Y-118416843D01*
X110302191Y-118557191D01*
X110161843Y-118767235D01*
X110112560Y-119015000D01*
X102362000Y-119015000D01*
X102362000Y-113921812D01*
X105179064Y-113921812D01*
X105208261Y-114057411D01*
X105234577Y-114193605D01*
X105239041Y-114200366D01*
X105240746Y-114208284D01*
X105319623Y-114322405D01*
X105396044Y-114438143D01*
X105463839Y-114483981D01*
X107622019Y-116575315D01*
X107660760Y-116632868D01*
X107726207Y-116676276D01*
X107729498Y-116679465D01*
X107786692Y-116716393D01*
X107904965Y-116794838D01*
X107909586Y-116795741D01*
X107913542Y-116798295D01*
X108053204Y-116823799D01*
X108119973Y-116836843D01*
X108124551Y-116836827D01*
X108201812Y-116850936D01*
X108269639Y-116836332D01*
X119452026Y-116798134D01*
X119642945Y-117158759D01*
X119781249Y-117328655D01*
X120039132Y-117467817D01*
X120075052Y-117471499D01*
X121133827Y-118138673D01*
X124860140Y-127725463D01*
X124893879Y-127903444D01*
X125054480Y-128148552D01*
X125296654Y-128313543D01*
X125511124Y-128358216D01*
X125681915Y-128359755D01*
X125919570Y-128715430D01*
X126415275Y-129046650D01*
X126852402Y-129133600D01*
X127147598Y-129133600D01*
X127584725Y-129046650D01*
X128080430Y-128715430D01*
X128270000Y-128431719D01*
X128459570Y-128715430D01*
X128955275Y-129046650D01*
X129392402Y-129133600D01*
X129687598Y-129133600D01*
X130124725Y-129046650D01*
X130499035Y-128796544D01*
X131430450Y-129727960D01*
X131471542Y-129789458D01*
X131533039Y-129830549D01*
X131533041Y-129830551D01*
X131715193Y-129952261D01*
X131930056Y-129995000D01*
X131930059Y-129995000D01*
X132002600Y-130009429D01*
X132075140Y-129995000D01*
X159985860Y-129995000D01*
X160058400Y-130009429D01*
X160130940Y-129995000D01*
X160130944Y-129995000D01*
X160345807Y-129952261D01*
X160589458Y-129789458D01*
X160630551Y-129727958D01*
X161577587Y-128780923D01*
X161975275Y-129046650D01*
X162412402Y-129133600D01*
X162707598Y-129133600D01*
X163144725Y-129046650D01*
X163640430Y-128715430D01*
X163830000Y-128431719D01*
X164019570Y-128715430D01*
X164515275Y-129046650D01*
X164952402Y-129133600D01*
X165247598Y-129133600D01*
X165684725Y-129046650D01*
X166180430Y-128715430D01*
X166370000Y-128431719D01*
X166559570Y-128715430D01*
X167055275Y-129046650D01*
X167492402Y-129133600D01*
X167787598Y-129133600D01*
X168224725Y-129046650D01*
X168720430Y-128715430D01*
X168910000Y-128431719D01*
X169099570Y-128715430D01*
X169595275Y-129046650D01*
X170032402Y-129133600D01*
X170327598Y-129133600D01*
X170764725Y-129046650D01*
X171260430Y-128715430D01*
X171461854Y-128413979D01*
X171513179Y-128523490D01*
X171945053Y-128917688D01*
X172360974Y-129089958D01*
X172593000Y-128968817D01*
X172593000Y-127762000D01*
X172847000Y-127762000D01*
X172847000Y-128968817D01*
X173079026Y-129089958D01*
X173494947Y-128917688D01*
X173926821Y-128523490D01*
X173990000Y-128388687D01*
X174053179Y-128523490D01*
X174485053Y-128917688D01*
X174900974Y-129089958D01*
X175133000Y-128968817D01*
X175133000Y-127762000D01*
X175387000Y-127762000D01*
X175387000Y-128968817D01*
X175619026Y-129089958D01*
X176034947Y-128917688D01*
X176466821Y-128523490D01*
X176714968Y-127994027D01*
X176594469Y-127762000D01*
X175387000Y-127762000D01*
X175133000Y-127762000D01*
X172847000Y-127762000D01*
X172593000Y-127762000D01*
X172573000Y-127762000D01*
X172573000Y-127508000D01*
X172593000Y-127508000D01*
X172593000Y-127488000D01*
X172847000Y-127488000D01*
X172847000Y-127508000D01*
X175133000Y-127508000D01*
X175133000Y-127488000D01*
X175387000Y-127488000D01*
X175387000Y-127508000D01*
X176594469Y-127508000D01*
X176714968Y-127275973D01*
X176466821Y-126746510D01*
X176279050Y-126575119D01*
X176371365Y-126556757D01*
X176581409Y-126416409D01*
X176639057Y-126330134D01*
X177495200Y-127186278D01*
X177495201Y-127347593D01*
X177495201Y-127796442D01*
X177476790Y-127889000D01*
X177495201Y-127981558D01*
X177495200Y-134315200D01*
X119199596Y-134315200D01*
X118922862Y-134038466D01*
X118395439Y-133820000D01*
X117824561Y-133820000D01*
X117297138Y-134038466D01*
X117020404Y-134315200D01*
X112849596Y-134315200D01*
X112572862Y-134038466D01*
X112045439Y-133820000D01*
X111474561Y-133820000D01*
X110947138Y-134038466D01*
X110543466Y-134442138D01*
X110325000Y-134969561D01*
X110325000Y-135540439D01*
X110543466Y-136067862D01*
X110947138Y-136471534D01*
X111474561Y-136690000D01*
X112045439Y-136690000D01*
X112572862Y-136471534D01*
X112849596Y-136194800D01*
X117020404Y-136194800D01*
X117297138Y-136471534D01*
X117824561Y-136690000D01*
X118395439Y-136690000D01*
X118922862Y-136471534D01*
X119199596Y-136194800D01*
X178342441Y-136194800D01*
X178435000Y-136213211D01*
X178527559Y-136194800D01*
X178801691Y-136140272D01*
X179112557Y-135932557D01*
X179320272Y-135621691D01*
X179393211Y-135255000D01*
X179374800Y-135162441D01*
X179374800Y-133675431D01*
X193405000Y-133675431D01*
X193405000Y-134564569D01*
X193745259Y-135386026D01*
X194373974Y-136014741D01*
X195195431Y-136355000D01*
X196084569Y-136355000D01*
X196906026Y-136014741D01*
X197534741Y-135386026D01*
X197875000Y-134564569D01*
X197875000Y-133675431D01*
X197534741Y-132853974D01*
X196906026Y-132225259D01*
X196084569Y-131885000D01*
X195195431Y-131885000D01*
X194373974Y-132225259D01*
X193745259Y-132853974D01*
X193405000Y-133675431D01*
X179374800Y-133675431D01*
X179374800Y-130157877D01*
X181518243Y-132301321D01*
X181573991Y-132383041D01*
X181726534Y-132482859D01*
X181878308Y-132584271D01*
X181882912Y-132585187D01*
X181886840Y-132587757D01*
X182066107Y-132621626D01*
X182245000Y-132657210D01*
X182342031Y-132637910D01*
X184835113Y-132613932D01*
X184841843Y-132647765D01*
X184982191Y-132857809D01*
X185192235Y-132998157D01*
X185440000Y-133047440D01*
X187040000Y-133047440D01*
X187287765Y-132998157D01*
X187497809Y-132857809D01*
X187638157Y-132647765D01*
X187646117Y-132607745D01*
X187911861Y-132607745D01*
X187985995Y-132853864D01*
X188523223Y-133046965D01*
X189093454Y-133019778D01*
X189494005Y-132853864D01*
X189568139Y-132607745D01*
X188740000Y-131779605D01*
X187911861Y-132607745D01*
X187646117Y-132607745D01*
X187684693Y-132413813D01*
X187732255Y-132428139D01*
X188560395Y-131600000D01*
X188919605Y-131600000D01*
X189747745Y-132428139D01*
X189993864Y-132354005D01*
X190186965Y-131816777D01*
X190159778Y-131246546D01*
X189993864Y-130845995D01*
X189747745Y-130771861D01*
X188919605Y-131600000D01*
X188560395Y-131600000D01*
X187732255Y-130771861D01*
X187684693Y-130786187D01*
X187646118Y-130592255D01*
X187911861Y-130592255D01*
X188740000Y-131420395D01*
X189568139Y-130592255D01*
X189494005Y-130346136D01*
X188956777Y-130153035D01*
X188386546Y-130180222D01*
X187985995Y-130346136D01*
X187911861Y-130592255D01*
X187646118Y-130592255D01*
X187638157Y-130552235D01*
X187497809Y-130342191D01*
X187287765Y-130201843D01*
X187040000Y-130152560D01*
X185440000Y-130152560D01*
X185192235Y-130201843D01*
X184982191Y-130342191D01*
X184841843Y-130552235D01*
X184805583Y-130734530D01*
X182630527Y-130755449D01*
X179374800Y-127499723D01*
X179374800Y-126889549D01*
X179393209Y-126796999D01*
X179374800Y-126704449D01*
X179374800Y-126704441D01*
X179320272Y-126430309D01*
X179320271Y-126430307D01*
X179164987Y-126197909D01*
X179164986Y-126197908D01*
X179112557Y-126119443D01*
X179034092Y-126067014D01*
X177462988Y-124495910D01*
X177410557Y-124417443D01*
X177099691Y-124209728D01*
X176825559Y-124155200D01*
X176825554Y-124155200D01*
X176753013Y-124140771D01*
X176721757Y-123983635D01*
X176581409Y-123773591D01*
X176371365Y-123633243D01*
X176209631Y-123601073D01*
X176244770Y-117978860D01*
X198093773Y-117881807D01*
X198185041Y-117899809D01*
X198278887Y-117880985D01*
X198280232Y-117880979D01*
X198369765Y-117862756D01*
X198551614Y-117826280D01*
X198552762Y-117825510D01*
X198554120Y-117825234D01*
X198708076Y-117721371D01*
X198862146Y-117618066D01*
X198862913Y-117616914D01*
X198864060Y-117616140D01*
X198966545Y-117461277D01*
X199069360Y-117306866D01*
X199069627Y-117305510D01*
X199070392Y-117304355D01*
X199105829Y-117121968D01*
X199123447Y-117032646D01*
X199123445Y-117031304D01*
X199141701Y-116937344D01*
X199123147Y-116846185D01*
X199059948Y-77561815D01*
X199078211Y-77470000D01*
X199077598Y-77466920D01*
X199078191Y-77463837D01*
X199041156Y-77283711D01*
X199005272Y-77103309D01*
X199004834Y-77102653D01*
X199004680Y-77101886D01*
X198950852Y-77021607D01*
X198431529Y-75790310D01*
X198430737Y-75772196D01*
X198359130Y-75618654D01*
X198329960Y-75549494D01*
X198320062Y-75534885D01*
X198272713Y-75433358D01*
X198216185Y-75381565D01*
X198173186Y-75318100D01*
X198079652Y-75256469D01*
X198066632Y-75244540D01*
X198002417Y-75205578D01*
X197860990Y-75112390D01*
X197843189Y-75108968D01*
X195332302Y-73585509D01*
X195190676Y-73492261D01*
X195080825Y-73471184D01*
X194975716Y-73432934D01*
X194806321Y-73440339D01*
X175969806Y-73568145D01*
X174155000Y-72263946D01*
X174155000Y-72104561D01*
X173936534Y-71577138D01*
X173668216Y-71308820D01*
X173678210Y-71258567D01*
X173642685Y-71080000D01*
X173605272Y-70891909D01*
X173605261Y-70891893D01*
X173605258Y-70891877D01*
X173485934Y-70713308D01*
X173397557Y-70581043D01*
X173319080Y-70528606D01*
X170495712Y-67705431D01*
X193405000Y-67705431D01*
X193405000Y-68594569D01*
X193745259Y-69416026D01*
X194373974Y-70044741D01*
X195195431Y-70385000D01*
X196084569Y-70385000D01*
X196906026Y-70044741D01*
X197534741Y-69416026D01*
X197875000Y-68594569D01*
X197875000Y-67705431D01*
X197534741Y-66883974D01*
X196906026Y-66255259D01*
X196084569Y-65915000D01*
X195195431Y-65915000D01*
X194373974Y-66255259D01*
X193745259Y-66883974D01*
X193405000Y-67705431D01*
X170495712Y-67705431D01*
X167595980Y-64805899D01*
X167543557Y-64727443D01*
X167465074Y-64675002D01*
X167465064Y-64674992D01*
X167395929Y-64628800D01*
X167232691Y-64519728D01*
X167232674Y-64519725D01*
X167232661Y-64519716D01*
X167068128Y-64486994D01*
X166958559Y-64465200D01*
X166958539Y-64465200D01*
X166865968Y-64446790D01*
X166773431Y-64465200D01*
X148642549Y-64465200D01*
X148549999Y-64446791D01*
X148457449Y-64465200D01*
X148457441Y-64465200D01*
X148183309Y-64519728D01*
X148183308Y-64519729D01*
X148183307Y-64519729D01*
X147950909Y-64675013D01*
X147950908Y-64675014D01*
X147872443Y-64727443D01*
X147820014Y-64805908D01*
X146115923Y-66510000D01*
X145904078Y-66510000D01*
X144199988Y-64805911D01*
X144147557Y-64727443D01*
X143836691Y-64519728D01*
X143562559Y-64465200D01*
X143562554Y-64465200D01*
X143470000Y-64446790D01*
X143377446Y-64465200D01*
X118154198Y-64465200D01*
X118053103Y-64446938D01*
X117878558Y-64484869D01*
X117703309Y-64519728D01*
X117696156Y-64524507D01*
X117687755Y-64526333D01*
X117540980Y-64628193D01*
X117392443Y-64727443D01*
X117387667Y-64734591D01*
X117380599Y-64739496D01*
X117283954Y-64889807D01*
X117184728Y-65038309D01*
X117164687Y-65139065D01*
X115093848Y-70398996D01*
X114757138Y-70538466D01*
X114353466Y-70942138D01*
X114326475Y-71007299D01*
X114323864Y-71000995D01*
X114077745Y-70926861D01*
X113249605Y-71755000D01*
X114077745Y-72583139D01*
X114323864Y-72509005D01*
X114326290Y-72502254D01*
X114353466Y-72567862D01*
X114616398Y-72830794D01*
X114603393Y-73850007D01*
X114535423Y-73895423D01*
X114218260Y-74370091D01*
X114106887Y-74930000D01*
X114218260Y-75489909D01*
X114535423Y-75964577D01*
X114887758Y-76200000D01*
X114535423Y-76435423D01*
X114336321Y-76733400D01*
X109183679Y-76733400D01*
X108984577Y-76435423D01*
X108863894Y-76354785D01*
X108997765Y-76328157D01*
X109207809Y-76187809D01*
X109348157Y-75977765D01*
X109397440Y-75730000D01*
X109397440Y-74130000D01*
X109348157Y-73882235D01*
X109207809Y-73672191D01*
X108997765Y-73531843D01*
X108750000Y-73482560D01*
X107150000Y-73482560D01*
X106902235Y-73531843D01*
X106692191Y-73672191D01*
X106551843Y-73882235D01*
X106502560Y-74130000D01*
X106502560Y-75730000D01*
X106551843Y-75977765D01*
X106692191Y-76187809D01*
X106902235Y-76328157D01*
X107036106Y-76354785D01*
X106915423Y-76435423D01*
X106598260Y-76910091D01*
X106486887Y-77470000D01*
X106598260Y-78029909D01*
X106915423Y-78504577D01*
X107267758Y-78740000D01*
X106915423Y-78975423D01*
X106598260Y-79450091D01*
X106486887Y-80010000D01*
X106598260Y-80569909D01*
X106915423Y-81044577D01*
X107267758Y-81280000D01*
X106915423Y-81515423D01*
X106598260Y-81990091D01*
X106486887Y-82550000D01*
X106598260Y-83109909D01*
X106915423Y-83584577D01*
X107267758Y-83820000D01*
X106915423Y-84055423D01*
X106598260Y-84530091D01*
X106486887Y-85090000D01*
X106598260Y-85649909D01*
X106915423Y-86124577D01*
X107267758Y-86360000D01*
X106915423Y-86595423D01*
X106598260Y-87070091D01*
X106486887Y-87630000D01*
X106598260Y-88189909D01*
X106915423Y-88664577D01*
X107299108Y-88920947D01*
X107094866Y-89017611D01*
X106718959Y-89432577D01*
X106558096Y-89820961D01*
X106680085Y-90043000D01*
X107823000Y-90043000D01*
X107823000Y-90023000D01*
X108077000Y-90023000D01*
X108077000Y-90043000D01*
X109219915Y-90043000D01*
X109341904Y-89820961D01*
X109181041Y-89432577D01*
X108805134Y-89017611D01*
X108600892Y-88920947D01*
X108984577Y-88664577D01*
X109301740Y-88189909D01*
X109413113Y-87630000D01*
X109301740Y-87070091D01*
X108984577Y-86595423D01*
X108632242Y-86360000D01*
X108984577Y-86124577D01*
X109009968Y-86086577D01*
X113562951Y-90639561D01*
X113604042Y-90701058D01*
X113665539Y-90742149D01*
X113665541Y-90742151D01*
X113823292Y-90847557D01*
X113847693Y-90863861D01*
X114062556Y-90906600D01*
X114062559Y-90906600D01*
X114135100Y-90921029D01*
X114207640Y-90906600D01*
X114336321Y-90906600D01*
X114535423Y-91204577D01*
X114857505Y-91419785D01*
X113907940Y-92369351D01*
X113846443Y-92410442D01*
X113805352Y-92471939D01*
X113805349Y-92471942D01*
X113683639Y-92654094D01*
X113676962Y-92687661D01*
X113246777Y-92533035D01*
X112676546Y-92560222D01*
X112275995Y-92726136D01*
X112201861Y-92972255D01*
X113030000Y-93800395D01*
X113044142Y-93786252D01*
X113223748Y-93965858D01*
X113209605Y-93980000D01*
X113223748Y-93994142D01*
X113044143Y-94173748D01*
X113030000Y-94159605D01*
X112201861Y-94987745D01*
X112275995Y-95233864D01*
X112813223Y-95426965D01*
X113383454Y-95399778D01*
X113640901Y-95293140D01*
X113640900Y-97891791D01*
X113353191Y-98179500D01*
X109397440Y-98179500D01*
X109397440Y-96990000D01*
X109348157Y-96742235D01*
X109207809Y-96532191D01*
X108997765Y-96391843D01*
X108750000Y-96342560D01*
X107150000Y-96342560D01*
X106902235Y-96391843D01*
X106692191Y-96532191D01*
X106551843Y-96742235D01*
X106502560Y-96990000D01*
X106502560Y-98590000D01*
X106551843Y-98837765D01*
X106660103Y-98999787D01*
X105534179Y-100125712D01*
X105474157Y-100165344D01*
X105431590Y-100228301D01*
X105430149Y-100229742D01*
X105390917Y-100288457D01*
X105310023Y-100408100D01*
X105309603Y-100410152D01*
X105308439Y-100411894D01*
X105280237Y-100553678D01*
X105266109Y-100622726D01*
X105266098Y-100624759D01*
X105251271Y-100699300D01*
X105265304Y-100769849D01*
X105193766Y-113841302D01*
X105179064Y-113921812D01*
X102362000Y-113921812D01*
X102362000Y-93763223D01*
X111583035Y-93763223D01*
X111610222Y-94333454D01*
X111776136Y-94734005D01*
X112022255Y-94808139D01*
X112850395Y-93980000D01*
X112022255Y-93151861D01*
X111776136Y-93225995D01*
X111583035Y-93763223D01*
X102362000Y-93763223D01*
X102362000Y-90519039D01*
X106558096Y-90519039D01*
X106718959Y-90907423D01*
X107094866Y-91322389D01*
X107600959Y-91561914D01*
X107823000Y-91440629D01*
X107823000Y-90297000D01*
X108077000Y-90297000D01*
X108077000Y-91440629D01*
X108299041Y-91561914D01*
X108805134Y-91322389D01*
X109181041Y-90907423D01*
X109341904Y-90519039D01*
X109219915Y-90297000D01*
X108077000Y-90297000D01*
X107823000Y-90297000D01*
X106680085Y-90297000D01*
X106558096Y-90519039D01*
X102362000Y-90519039D01*
X102362000Y-72762745D01*
X112241861Y-72762745D01*
X112315995Y-73008864D01*
X112853223Y-73201965D01*
X113423454Y-73174778D01*
X113824005Y-73008864D01*
X113898139Y-72762745D01*
X113070000Y-71934605D01*
X112241861Y-72762745D01*
X102362000Y-72762745D01*
X102362000Y-71538223D01*
X111623035Y-71538223D01*
X111650222Y-72108454D01*
X111816136Y-72509005D01*
X112062255Y-72583139D01*
X112890395Y-71755000D01*
X112062255Y-70926861D01*
X111816136Y-71000995D01*
X111623035Y-71538223D01*
X102362000Y-71538223D01*
X102362000Y-70747255D01*
X112241861Y-70747255D01*
X113070000Y-71575395D01*
X113898139Y-70747255D01*
X113824005Y-70501136D01*
X113286777Y-70308035D01*
X112716546Y-70335222D01*
X112315995Y-70501136D01*
X112241861Y-70747255D01*
X102362000Y-70747255D01*
X102362000Y-67755431D01*
X104415000Y-67755431D01*
X104415000Y-68644569D01*
X104755259Y-69466026D01*
X105383974Y-70094741D01*
X106205431Y-70435000D01*
X107094569Y-70435000D01*
X107916026Y-70094741D01*
X108544741Y-69466026D01*
X108885000Y-68644569D01*
X108885000Y-67755431D01*
X108544741Y-66933974D01*
X107916026Y-66305259D01*
X107094569Y-65965000D01*
X106205431Y-65965000D01*
X105383974Y-66305259D01*
X104755259Y-66933974D01*
X104415000Y-67755431D01*
X102362000Y-67755431D01*
X102362000Y-64262000D01*
X199898000Y-64262000D01*
X199898000Y-137668000D01*
X199898000Y-137668000D01*
G37*
X199898000Y-137668000D02*
X102362000Y-137668000D01*
X102362000Y-133775431D01*
X104315000Y-133775431D01*
X104315000Y-134664569D01*
X104655259Y-135486026D01*
X105283974Y-136114741D01*
X106105431Y-136455000D01*
X106994569Y-136455000D01*
X107816026Y-136114741D01*
X108444741Y-135486026D01*
X108785000Y-134664569D01*
X108785000Y-133775431D01*
X108444741Y-132953974D01*
X107816026Y-132325259D01*
X106994569Y-131985000D01*
X106105431Y-131985000D01*
X105283974Y-132325259D01*
X104655259Y-132953974D01*
X104315000Y-133775431D01*
X102362000Y-133775431D01*
X102362000Y-119015000D01*
X110112560Y-119015000D01*
X110112560Y-121015000D01*
X110161843Y-121262765D01*
X110302191Y-121472809D01*
X110438723Y-121564038D01*
X110373914Y-121628847D01*
X110125000Y-122229778D01*
X110125000Y-122880222D01*
X110373914Y-123481153D01*
X110833847Y-123941086D01*
X110877168Y-123959030D01*
X110725423Y-124060423D01*
X110408260Y-124535091D01*
X110296887Y-125095000D01*
X110408260Y-125654909D01*
X110725423Y-126129577D01*
X111200091Y-126446740D01*
X111618667Y-126530000D01*
X111901333Y-126530000D01*
X112319909Y-126446740D01*
X112794577Y-126129577D01*
X113111740Y-125654909D01*
X113223113Y-125095000D01*
X113111740Y-124535091D01*
X112794577Y-124060423D01*
X112642832Y-123959030D01*
X112686153Y-123941086D01*
X113146086Y-123481153D01*
X113395000Y-122880222D01*
X113395000Y-122229778D01*
X113146086Y-121628847D01*
X113081277Y-121564038D01*
X113217809Y-121472809D01*
X113358157Y-121262765D01*
X113407440Y-121015000D01*
X113407440Y-119015000D01*
X116462560Y-119015000D01*
X116462560Y-121015000D01*
X116511843Y-121262765D01*
X116652191Y-121472809D01*
X116788723Y-121564038D01*
X116723914Y-121628847D01*
X116475000Y-122229778D01*
X116475000Y-122880222D01*
X116723914Y-123481153D01*
X117183847Y-123941086D01*
X117227168Y-123959030D01*
X117075423Y-124060423D01*
X116758260Y-124535091D01*
X116646887Y-125095000D01*
X116758260Y-125654909D01*
X117075423Y-126129577D01*
X117550091Y-126446740D01*
X117968667Y-126530000D01*
X118251333Y-126530000D01*
X118669909Y-126446740D01*
X119144577Y-126129577D01*
X119461740Y-125654909D01*
X119573113Y-125095000D01*
X119461740Y-124535091D01*
X119144577Y-124060423D01*
X118992832Y-123959030D01*
X119036153Y-123941086D01*
X119496086Y-123481153D01*
X119745000Y-122880222D01*
X119745000Y-122229778D01*
X119496086Y-121628847D01*
X119431277Y-121564038D01*
X119567809Y-121472809D01*
X119708157Y-121262765D01*
X119757440Y-121015000D01*
X119757440Y-119015000D01*
X119708157Y-118767235D01*
X119567809Y-118557191D01*
X119357765Y-118416843D01*
X119110000Y-118367560D01*
X117110000Y-118367560D01*
X116862235Y-118416843D01*
X116652191Y-118557191D01*
X116511843Y-118767235D01*
X116462560Y-119015000D01*
X113407440Y-119015000D01*
X113358157Y-118767235D01*
X113217809Y-118557191D01*
X113007765Y-118416843D01*
X112760000Y-118367560D01*
X110760000Y-118367560D01*
X110512235Y-118416843D01*
X110302191Y-118557191D01*
X110161843Y-118767235D01*
X110112560Y-119015000D01*
X102362000Y-119015000D01*
X102362000Y-113921812D01*
X105179064Y-113921812D01*
X105208261Y-114057411D01*
X105234577Y-114193605D01*
X105239041Y-114200366D01*
X105240746Y-114208284D01*
X105319623Y-114322405D01*
X105396044Y-114438143D01*
X105463839Y-114483981D01*
X107622019Y-116575315D01*
X107660760Y-116632868D01*
X107726207Y-116676276D01*
X107729498Y-116679465D01*
X107786692Y-116716393D01*
X107904965Y-116794838D01*
X107909586Y-116795741D01*
X107913542Y-116798295D01*
X108053204Y-116823799D01*
X108119973Y-116836843D01*
X108124551Y-116836827D01*
X108201812Y-116850936D01*
X108269639Y-116836332D01*
X119452026Y-116798134D01*
X119642945Y-117158759D01*
X119781249Y-117328655D01*
X120039132Y-117467817D01*
X120075052Y-117471499D01*
X121133827Y-118138673D01*
X124860140Y-127725463D01*
X124893879Y-127903444D01*
X125054480Y-128148552D01*
X125296654Y-128313543D01*
X125511124Y-128358216D01*
X125681915Y-128359755D01*
X125919570Y-128715430D01*
X126415275Y-129046650D01*
X126852402Y-129133600D01*
X127147598Y-129133600D01*
X127584725Y-129046650D01*
X128080430Y-128715430D01*
X128270000Y-128431719D01*
X128459570Y-128715430D01*
X128955275Y-129046650D01*
X129392402Y-129133600D01*
X129687598Y-129133600D01*
X130124725Y-129046650D01*
X130499035Y-128796544D01*
X131430450Y-129727960D01*
X131471542Y-129789458D01*
X131533039Y-129830549D01*
X131533041Y-129830551D01*
X131715193Y-129952261D01*
X131930056Y-129995000D01*
X131930059Y-129995000D01*
X132002600Y-130009429D01*
X132075140Y-129995000D01*
X159985860Y-129995000D01*
X160058400Y-130009429D01*
X160130940Y-129995000D01*
X160130944Y-129995000D01*
X160345807Y-129952261D01*
X160589458Y-129789458D01*
X160630551Y-129727958D01*
X161577587Y-128780923D01*
X161975275Y-129046650D01*
X162412402Y-129133600D01*
X162707598Y-129133600D01*
X163144725Y-129046650D01*
X163640430Y-128715430D01*
X163830000Y-128431719D01*
X164019570Y-128715430D01*
X164515275Y-129046650D01*
X164952402Y-129133600D01*
X165247598Y-129133600D01*
X165684725Y-129046650D01*
X166180430Y-128715430D01*
X166370000Y-128431719D01*
X166559570Y-128715430D01*
X167055275Y-129046650D01*
X167492402Y-129133600D01*
X167787598Y-129133600D01*
X168224725Y-129046650D01*
X168720430Y-128715430D01*
X168910000Y-128431719D01*
X169099570Y-128715430D01*
X169595275Y-129046650D01*
X170032402Y-129133600D01*
X170327598Y-129133600D01*
X170764725Y-129046650D01*
X171260430Y-128715430D01*
X171461854Y-128413979D01*
X171513179Y-128523490D01*
X171945053Y-128917688D01*
X172360974Y-129089958D01*
X172593000Y-128968817D01*
X172593000Y-127762000D01*
X172847000Y-127762000D01*
X172847000Y-128968817D01*
X173079026Y-129089958D01*
X173494947Y-128917688D01*
X173926821Y-128523490D01*
X173990000Y-128388687D01*
X174053179Y-128523490D01*
X174485053Y-128917688D01*
X174900974Y-129089958D01*
X175133000Y-128968817D01*
X175133000Y-127762000D01*
X175387000Y-127762000D01*
X175387000Y-128968817D01*
X175619026Y-129089958D01*
X176034947Y-128917688D01*
X176466821Y-128523490D01*
X176714968Y-127994027D01*
X176594469Y-127762000D01*
X175387000Y-127762000D01*
X175133000Y-127762000D01*
X172847000Y-127762000D01*
X172593000Y-127762000D01*
X172573000Y-127762000D01*
X172573000Y-127508000D01*
X172593000Y-127508000D01*
X172593000Y-127488000D01*
X172847000Y-127488000D01*
X172847000Y-127508000D01*
X175133000Y-127508000D01*
X175133000Y-127488000D01*
X175387000Y-127488000D01*
X175387000Y-127508000D01*
X176594469Y-127508000D01*
X176714968Y-127275973D01*
X176466821Y-126746510D01*
X176279050Y-126575119D01*
X176371365Y-126556757D01*
X176581409Y-126416409D01*
X176639057Y-126330134D01*
X177495200Y-127186278D01*
X177495201Y-127347593D01*
X177495201Y-127796442D01*
X177476790Y-127889000D01*
X177495201Y-127981558D01*
X177495200Y-134315200D01*
X119199596Y-134315200D01*
X118922862Y-134038466D01*
X118395439Y-133820000D01*
X117824561Y-133820000D01*
X117297138Y-134038466D01*
X117020404Y-134315200D01*
X112849596Y-134315200D01*
X112572862Y-134038466D01*
X112045439Y-133820000D01*
X111474561Y-133820000D01*
X110947138Y-134038466D01*
X110543466Y-134442138D01*
X110325000Y-134969561D01*
X110325000Y-135540439D01*
X110543466Y-136067862D01*
X110947138Y-136471534D01*
X111474561Y-136690000D01*
X112045439Y-136690000D01*
X112572862Y-136471534D01*
X112849596Y-136194800D01*
X117020404Y-136194800D01*
X117297138Y-136471534D01*
X117824561Y-136690000D01*
X118395439Y-136690000D01*
X118922862Y-136471534D01*
X119199596Y-136194800D01*
X178342441Y-136194800D01*
X178435000Y-136213211D01*
X178527559Y-136194800D01*
X178801691Y-136140272D01*
X179112557Y-135932557D01*
X179320272Y-135621691D01*
X179393211Y-135255000D01*
X179374800Y-135162441D01*
X179374800Y-133675431D01*
X193405000Y-133675431D01*
X193405000Y-134564569D01*
X193745259Y-135386026D01*
X194373974Y-136014741D01*
X195195431Y-136355000D01*
X196084569Y-136355000D01*
X196906026Y-136014741D01*
X197534741Y-135386026D01*
X197875000Y-134564569D01*
X197875000Y-133675431D01*
X197534741Y-132853974D01*
X196906026Y-132225259D01*
X196084569Y-131885000D01*
X195195431Y-131885000D01*
X194373974Y-132225259D01*
X193745259Y-132853974D01*
X193405000Y-133675431D01*
X179374800Y-133675431D01*
X179374800Y-130157877D01*
X181518243Y-132301321D01*
X181573991Y-132383041D01*
X181726534Y-132482859D01*
X181878308Y-132584271D01*
X181882912Y-132585187D01*
X181886840Y-132587757D01*
X182066107Y-132621626D01*
X182245000Y-132657210D01*
X182342031Y-132637910D01*
X184835113Y-132613932D01*
X184841843Y-132647765D01*
X184982191Y-132857809D01*
X185192235Y-132998157D01*
X185440000Y-133047440D01*
X187040000Y-133047440D01*
X187287765Y-132998157D01*
X187497809Y-132857809D01*
X187638157Y-132647765D01*
X187646117Y-132607745D01*
X187911861Y-132607745D01*
X187985995Y-132853864D01*
X188523223Y-133046965D01*
X189093454Y-133019778D01*
X189494005Y-132853864D01*
X189568139Y-132607745D01*
X188740000Y-131779605D01*
X187911861Y-132607745D01*
X187646117Y-132607745D01*
X187684693Y-132413813D01*
X187732255Y-132428139D01*
X188560395Y-131600000D01*
X188919605Y-131600000D01*
X189747745Y-132428139D01*
X189993864Y-132354005D01*
X190186965Y-131816777D01*
X190159778Y-131246546D01*
X189993864Y-130845995D01*
X189747745Y-130771861D01*
X188919605Y-131600000D01*
X188560395Y-131600000D01*
X187732255Y-130771861D01*
X187684693Y-130786187D01*
X187646118Y-130592255D01*
X187911861Y-130592255D01*
X188740000Y-131420395D01*
X189568139Y-130592255D01*
X189494005Y-130346136D01*
X188956777Y-130153035D01*
X188386546Y-130180222D01*
X187985995Y-130346136D01*
X187911861Y-130592255D01*
X187646118Y-130592255D01*
X187638157Y-130552235D01*
X187497809Y-130342191D01*
X187287765Y-130201843D01*
X187040000Y-130152560D01*
X185440000Y-130152560D01*
X185192235Y-130201843D01*
X184982191Y-130342191D01*
X184841843Y-130552235D01*
X184805583Y-130734530D01*
X182630527Y-130755449D01*
X179374800Y-127499723D01*
X179374800Y-126889549D01*
X179393209Y-126796999D01*
X179374800Y-126704449D01*
X179374800Y-126704441D01*
X179320272Y-126430309D01*
X179320271Y-126430307D01*
X179164987Y-126197909D01*
X179164986Y-126197908D01*
X179112557Y-126119443D01*
X179034092Y-126067014D01*
X177462988Y-124495910D01*
X177410557Y-124417443D01*
X177099691Y-124209728D01*
X176825559Y-124155200D01*
X176825554Y-124155200D01*
X176753013Y-124140771D01*
X176721757Y-123983635D01*
X176581409Y-123773591D01*
X176371365Y-123633243D01*
X176209631Y-123601073D01*
X176244770Y-117978860D01*
X198093773Y-117881807D01*
X198185041Y-117899809D01*
X198278887Y-117880985D01*
X198280232Y-117880979D01*
X198369765Y-117862756D01*
X198551614Y-117826280D01*
X198552762Y-117825510D01*
X198554120Y-117825234D01*
X198708076Y-117721371D01*
X198862146Y-117618066D01*
X198862913Y-117616914D01*
X198864060Y-117616140D01*
X198966545Y-117461277D01*
X199069360Y-117306866D01*
X199069627Y-117305510D01*
X199070392Y-117304355D01*
X199105829Y-117121968D01*
X199123447Y-117032646D01*
X199123445Y-117031304D01*
X199141701Y-116937344D01*
X199123147Y-116846185D01*
X199059948Y-77561815D01*
X199078211Y-77470000D01*
X199077598Y-77466920D01*
X199078191Y-77463837D01*
X199041156Y-77283711D01*
X199005272Y-77103309D01*
X199004834Y-77102653D01*
X199004680Y-77101886D01*
X198950852Y-77021607D01*
X198431529Y-75790310D01*
X198430737Y-75772196D01*
X198359130Y-75618654D01*
X198329960Y-75549494D01*
X198320062Y-75534885D01*
X198272713Y-75433358D01*
X198216185Y-75381565D01*
X198173186Y-75318100D01*
X198079652Y-75256469D01*
X198066632Y-75244540D01*
X198002417Y-75205578D01*
X197860990Y-75112390D01*
X197843189Y-75108968D01*
X195332302Y-73585509D01*
X195190676Y-73492261D01*
X195080825Y-73471184D01*
X194975716Y-73432934D01*
X194806321Y-73440339D01*
X175969806Y-73568145D01*
X174155000Y-72263946D01*
X174155000Y-72104561D01*
X173936534Y-71577138D01*
X173668216Y-71308820D01*
X173678210Y-71258567D01*
X173642685Y-71080000D01*
X173605272Y-70891909D01*
X173605261Y-70891893D01*
X173605258Y-70891877D01*
X173485934Y-70713308D01*
X173397557Y-70581043D01*
X173319080Y-70528606D01*
X170495712Y-67705431D01*
X193405000Y-67705431D01*
X193405000Y-68594569D01*
X193745259Y-69416026D01*
X194373974Y-70044741D01*
X195195431Y-70385000D01*
X196084569Y-70385000D01*
X196906026Y-70044741D01*
X197534741Y-69416026D01*
X197875000Y-68594569D01*
X197875000Y-67705431D01*
X197534741Y-66883974D01*
X196906026Y-66255259D01*
X196084569Y-65915000D01*
X195195431Y-65915000D01*
X194373974Y-66255259D01*
X193745259Y-66883974D01*
X193405000Y-67705431D01*
X170495712Y-67705431D01*
X167595980Y-64805899D01*
X167543557Y-64727443D01*
X167465074Y-64675002D01*
X167465064Y-64674992D01*
X167395929Y-64628800D01*
X167232691Y-64519728D01*
X167232674Y-64519725D01*
X167232661Y-64519716D01*
X167068128Y-64486994D01*
X166958559Y-64465200D01*
X166958539Y-64465200D01*
X166865968Y-64446790D01*
X166773431Y-64465200D01*
X148642549Y-64465200D01*
X148549999Y-64446791D01*
X148457449Y-64465200D01*
X148457441Y-64465200D01*
X148183309Y-64519728D01*
X148183308Y-64519729D01*
X148183307Y-64519729D01*
X147950909Y-64675013D01*
X147950908Y-64675014D01*
X147872443Y-64727443D01*
X147820014Y-64805908D01*
X146115923Y-66510000D01*
X145904078Y-66510000D01*
X144199988Y-64805911D01*
X144147557Y-64727443D01*
X143836691Y-64519728D01*
X143562559Y-64465200D01*
X143562554Y-64465200D01*
X143470000Y-64446790D01*
X143377446Y-64465200D01*
X118154198Y-64465200D01*
X118053103Y-64446938D01*
X117878558Y-64484869D01*
X117703309Y-64519728D01*
X117696156Y-64524507D01*
X117687755Y-64526333D01*
X117540980Y-64628193D01*
X117392443Y-64727443D01*
X117387667Y-64734591D01*
X117380599Y-64739496D01*
X117283954Y-64889807D01*
X117184728Y-65038309D01*
X117164687Y-65139065D01*
X115093848Y-70398996D01*
X114757138Y-70538466D01*
X114353466Y-70942138D01*
X114326475Y-71007299D01*
X114323864Y-71000995D01*
X114077745Y-70926861D01*
X113249605Y-71755000D01*
X114077745Y-72583139D01*
X114323864Y-72509005D01*
X114326290Y-72502254D01*
X114353466Y-72567862D01*
X114616398Y-72830794D01*
X114603393Y-73850007D01*
X114535423Y-73895423D01*
X114218260Y-74370091D01*
X114106887Y-74930000D01*
X114218260Y-75489909D01*
X114535423Y-75964577D01*
X114887758Y-76200000D01*
X114535423Y-76435423D01*
X114336321Y-76733400D01*
X109183679Y-76733400D01*
X108984577Y-76435423D01*
X108863894Y-76354785D01*
X108997765Y-76328157D01*
X109207809Y-76187809D01*
X109348157Y-75977765D01*
X109397440Y-75730000D01*
X109397440Y-74130000D01*
X109348157Y-73882235D01*
X109207809Y-73672191D01*
X108997765Y-73531843D01*
X108750000Y-73482560D01*
X107150000Y-73482560D01*
X106902235Y-73531843D01*
X106692191Y-73672191D01*
X106551843Y-73882235D01*
X106502560Y-74130000D01*
X106502560Y-75730000D01*
X106551843Y-75977765D01*
X106692191Y-76187809D01*
X106902235Y-76328157D01*
X107036106Y-76354785D01*
X106915423Y-76435423D01*
X106598260Y-76910091D01*
X106486887Y-77470000D01*
X106598260Y-78029909D01*
X106915423Y-78504577D01*
X107267758Y-78740000D01*
X106915423Y-78975423D01*
X106598260Y-79450091D01*
X106486887Y-80010000D01*
X106598260Y-80569909D01*
X106915423Y-81044577D01*
X107267758Y-81280000D01*
X106915423Y-81515423D01*
X106598260Y-81990091D01*
X106486887Y-82550000D01*
X106598260Y-83109909D01*
X106915423Y-83584577D01*
X107267758Y-83820000D01*
X106915423Y-84055423D01*
X106598260Y-84530091D01*
X106486887Y-85090000D01*
X106598260Y-85649909D01*
X106915423Y-86124577D01*
X107267758Y-86360000D01*
X106915423Y-86595423D01*
X106598260Y-87070091D01*
X106486887Y-87630000D01*
X106598260Y-88189909D01*
X106915423Y-88664577D01*
X107299108Y-88920947D01*
X107094866Y-89017611D01*
X106718959Y-89432577D01*
X106558096Y-89820961D01*
X106680085Y-90043000D01*
X107823000Y-90043000D01*
X107823000Y-90023000D01*
X108077000Y-90023000D01*
X108077000Y-90043000D01*
X109219915Y-90043000D01*
X109341904Y-89820961D01*
X109181041Y-89432577D01*
X108805134Y-89017611D01*
X108600892Y-88920947D01*
X108984577Y-88664577D01*
X109301740Y-88189909D01*
X109413113Y-87630000D01*
X109301740Y-87070091D01*
X108984577Y-86595423D01*
X108632242Y-86360000D01*
X108984577Y-86124577D01*
X109009968Y-86086577D01*
X113562951Y-90639561D01*
X113604042Y-90701058D01*
X113665539Y-90742149D01*
X113665541Y-90742151D01*
X113823292Y-90847557D01*
X113847693Y-90863861D01*
X114062556Y-90906600D01*
X114062559Y-90906600D01*
X114135100Y-90921029D01*
X114207640Y-90906600D01*
X114336321Y-90906600D01*
X114535423Y-91204577D01*
X114857505Y-91419785D01*
X113907940Y-92369351D01*
X113846443Y-92410442D01*
X113805352Y-92471939D01*
X113805349Y-92471942D01*
X113683639Y-92654094D01*
X113676962Y-92687661D01*
X113246777Y-92533035D01*
X112676546Y-92560222D01*
X112275995Y-92726136D01*
X112201861Y-92972255D01*
X113030000Y-93800395D01*
X113044142Y-93786252D01*
X113223748Y-93965858D01*
X113209605Y-93980000D01*
X113223748Y-93994142D01*
X113044143Y-94173748D01*
X113030000Y-94159605D01*
X112201861Y-94987745D01*
X112275995Y-95233864D01*
X112813223Y-95426965D01*
X113383454Y-95399778D01*
X113640901Y-95293140D01*
X113640900Y-97891791D01*
X113353191Y-98179500D01*
X109397440Y-98179500D01*
X109397440Y-96990000D01*
X109348157Y-96742235D01*
X109207809Y-96532191D01*
X108997765Y-96391843D01*
X108750000Y-96342560D01*
X107150000Y-96342560D01*
X106902235Y-96391843D01*
X106692191Y-96532191D01*
X106551843Y-96742235D01*
X106502560Y-96990000D01*
X106502560Y-98590000D01*
X106551843Y-98837765D01*
X106660103Y-98999787D01*
X105534179Y-100125712D01*
X105474157Y-100165344D01*
X105431590Y-100228301D01*
X105430149Y-100229742D01*
X105390917Y-100288457D01*
X105310023Y-100408100D01*
X105309603Y-100410152D01*
X105308439Y-100411894D01*
X105280237Y-100553678D01*
X105266109Y-100622726D01*
X105266098Y-100624759D01*
X105251271Y-100699300D01*
X105265304Y-100769849D01*
X105193766Y-113841302D01*
X105179064Y-113921812D01*
X102362000Y-113921812D01*
X102362000Y-93763223D01*
X111583035Y-93763223D01*
X111610222Y-94333454D01*
X111776136Y-94734005D01*
X112022255Y-94808139D01*
X112850395Y-93980000D01*
X112022255Y-93151861D01*
X111776136Y-93225995D01*
X111583035Y-93763223D01*
X102362000Y-93763223D01*
X102362000Y-90519039D01*
X106558096Y-90519039D01*
X106718959Y-90907423D01*
X107094866Y-91322389D01*
X107600959Y-91561914D01*
X107823000Y-91440629D01*
X107823000Y-90297000D01*
X108077000Y-90297000D01*
X108077000Y-91440629D01*
X108299041Y-91561914D01*
X108805134Y-91322389D01*
X109181041Y-90907423D01*
X109341904Y-90519039D01*
X109219915Y-90297000D01*
X108077000Y-90297000D01*
X107823000Y-90297000D01*
X106680085Y-90297000D01*
X106558096Y-90519039D01*
X102362000Y-90519039D01*
X102362000Y-72762745D01*
X112241861Y-72762745D01*
X112315995Y-73008864D01*
X112853223Y-73201965D01*
X113423454Y-73174778D01*
X113824005Y-73008864D01*
X113898139Y-72762745D01*
X113070000Y-71934605D01*
X112241861Y-72762745D01*
X102362000Y-72762745D01*
X102362000Y-71538223D01*
X111623035Y-71538223D01*
X111650222Y-72108454D01*
X111816136Y-72509005D01*
X112062255Y-72583139D01*
X112890395Y-71755000D01*
X112062255Y-70926861D01*
X111816136Y-71000995D01*
X111623035Y-71538223D01*
X102362000Y-71538223D01*
X102362000Y-70747255D01*
X112241861Y-70747255D01*
X113070000Y-71575395D01*
X113898139Y-70747255D01*
X113824005Y-70501136D01*
X113286777Y-70308035D01*
X112716546Y-70335222D01*
X112315995Y-70501136D01*
X112241861Y-70747255D01*
X102362000Y-70747255D01*
X102362000Y-67755431D01*
X104415000Y-67755431D01*
X104415000Y-68644569D01*
X104755259Y-69466026D01*
X105383974Y-70094741D01*
X106205431Y-70435000D01*
X107094569Y-70435000D01*
X107916026Y-70094741D01*
X108544741Y-69466026D01*
X108885000Y-68644569D01*
X108885000Y-67755431D01*
X108544741Y-66933974D01*
X107916026Y-66305259D01*
X107094569Y-65965000D01*
X106205431Y-65965000D01*
X105383974Y-66305259D01*
X104755259Y-66933974D01*
X104415000Y-67755431D01*
X102362000Y-67755431D01*
X102362000Y-64262000D01*
X199898000Y-64262000D01*
X199898000Y-137668000D01*
G36*
X128497751Y-113499561D02*
X128538842Y-113561058D01*
X128600339Y-113602149D01*
X128600341Y-113602151D01*
X128746271Y-113699658D01*
X128782493Y-113723861D01*
X128932732Y-113753745D01*
X129140423Y-114064577D01*
X129615091Y-114381740D01*
X130033667Y-114465000D01*
X130316333Y-114465000D01*
X130734909Y-114381740D01*
X131209577Y-114064577D01*
X131243345Y-114014039D01*
X137038096Y-114014039D01*
X137198959Y-114402423D01*
X137574866Y-114817389D01*
X138080959Y-115056914D01*
X138303000Y-114935629D01*
X138303000Y-113792000D01*
X138557000Y-113792000D01*
X138557000Y-114935629D01*
X138779041Y-115056914D01*
X139285134Y-114817389D01*
X139661041Y-114402423D01*
X139821904Y-114014039D01*
X139699915Y-113792000D01*
X138557000Y-113792000D01*
X138303000Y-113792000D01*
X137160085Y-113792000D01*
X137038096Y-114014039D01*
X131243345Y-114014039D01*
X131526740Y-113589909D01*
X131638113Y-113030000D01*
X131526740Y-112470091D01*
X131209577Y-111995423D01*
X130857242Y-111760000D01*
X131209577Y-111524577D01*
X131514667Y-111067977D01*
X133163651Y-112716960D01*
X133204742Y-112778458D01*
X133266239Y-112819549D01*
X133266241Y-112819551D01*
X133429145Y-112928400D01*
X133448393Y-112941261D01*
X133663256Y-112984000D01*
X133663259Y-112984000D01*
X133735800Y-112998429D01*
X133808340Y-112984000D01*
X137175589Y-112984000D01*
X137038096Y-113315961D01*
X137160085Y-113538000D01*
X138303000Y-113538000D01*
X138303000Y-113518000D01*
X138557000Y-113518000D01*
X138557000Y-113538000D01*
X139699915Y-113538000D01*
X139821904Y-113315961D01*
X139684411Y-112984000D01*
X144779170Y-112984000D01*
X144698260Y-113105091D01*
X144586887Y-113665000D01*
X144698260Y-114224909D01*
X145015423Y-114699577D01*
X145490091Y-115016740D01*
X145908667Y-115100000D01*
X146191333Y-115100000D01*
X146609909Y-115016740D01*
X147084577Y-114699577D01*
X147401740Y-114224909D01*
X147443684Y-114014039D01*
X156088096Y-114014039D01*
X156248959Y-114402423D01*
X156624866Y-114817389D01*
X157130959Y-115056914D01*
X157353000Y-114935629D01*
X157353000Y-113792000D01*
X157607000Y-113792000D01*
X157607000Y-114935629D01*
X157829041Y-115056914D01*
X158335134Y-114817389D01*
X158711041Y-114402423D01*
X158871904Y-114014039D01*
X158749915Y-113792000D01*
X157607000Y-113792000D01*
X157353000Y-113792000D01*
X156210085Y-113792000D01*
X156088096Y-114014039D01*
X147443684Y-114014039D01*
X147513113Y-113665000D01*
X147401740Y-113105091D01*
X147320830Y-112984000D01*
X156225589Y-112984000D01*
X156088096Y-113315961D01*
X156210085Y-113538000D01*
X157353000Y-113538000D01*
X157353000Y-113518000D01*
X157607000Y-113518000D01*
X157607000Y-113538000D01*
X158749915Y-113538000D01*
X158871904Y-113315961D01*
X158734411Y-112984000D01*
X170419960Y-112984000D01*
X170492500Y-112998429D01*
X170565040Y-112984000D01*
X170565044Y-112984000D01*
X170779907Y-112941261D01*
X171023558Y-112778458D01*
X171064651Y-112716958D01*
X171660032Y-112121577D01*
X171685423Y-112159577D01*
X172037758Y-112395000D01*
X171685423Y-112630423D01*
X171368260Y-113105091D01*
X171256887Y-113665000D01*
X171368260Y-114224909D01*
X171685423Y-114699577D01*
X171920724Y-114856800D01*
X170469140Y-114856800D01*
X170396599Y-114842371D01*
X170324059Y-114856800D01*
X170324056Y-114856800D01*
X170130001Y-114895400D01*
X170109193Y-114899539D01*
X169927041Y-115021249D01*
X169927039Y-115021251D01*
X169865542Y-115062342D01*
X169824451Y-115123839D01*
X161000495Y-123947796D01*
X160604725Y-123683350D01*
X160167598Y-123596400D01*
X159872402Y-123596400D01*
X159486600Y-123673141D01*
X159486600Y-122002909D01*
X164848209Y-116641300D01*
X165100726Y-116641300D01*
X165497488Y-116476956D01*
X165801156Y-116173288D01*
X165965500Y-115776526D01*
X165965500Y-115347074D01*
X165801156Y-114950312D01*
X165497488Y-114646644D01*
X165100726Y-114482300D01*
X164671274Y-114482300D01*
X164274512Y-114646644D01*
X163970844Y-114950312D01*
X163806500Y-115347074D01*
X163806500Y-115599591D01*
X158280442Y-121125649D01*
X158218942Y-121166742D01*
X158177849Y-121228242D01*
X158133844Y-121294100D01*
X158056139Y-121410394D01*
X158013400Y-121625257D01*
X158013400Y-121625260D01*
X157998971Y-121697800D01*
X158013400Y-121770340D01*
X158013400Y-123673141D01*
X157627598Y-123596400D01*
X157332402Y-123596400D01*
X156895275Y-123683350D01*
X156498606Y-123948396D01*
X148023950Y-115473741D01*
X147982858Y-115412242D01*
X147739207Y-115249439D01*
X147524344Y-115206700D01*
X147524340Y-115206700D01*
X147451800Y-115192271D01*
X147379260Y-115206700D01*
X129028000Y-115206700D01*
X129028000Y-114980874D01*
X128863656Y-114584112D01*
X128559988Y-114280444D01*
X128163226Y-114116100D01*
X127733774Y-114116100D01*
X127337012Y-114280444D01*
X127033344Y-114584112D01*
X126869000Y-114980874D01*
X126869000Y-115410326D01*
X126970761Y-115656000D01*
X123089910Y-115656000D01*
X121859751Y-114425842D01*
X121818658Y-114364342D01*
X121575007Y-114201539D01*
X121360144Y-114158800D01*
X121360140Y-114158800D01*
X121287600Y-114144371D01*
X121215060Y-114158800D01*
X119354940Y-114158800D01*
X119282400Y-114144371D01*
X119209860Y-114158800D01*
X119209856Y-114158800D01*
X118994993Y-114201539D01*
X118850180Y-114298300D01*
X116180225Y-114298300D01*
X116425134Y-114182389D01*
X116801041Y-113767423D01*
X116961904Y-113379039D01*
X121163096Y-113379039D01*
X121323959Y-113767423D01*
X121699866Y-114182389D01*
X122205959Y-114421914D01*
X122428000Y-114300629D01*
X122428000Y-113157000D01*
X122682000Y-113157000D01*
X122682000Y-114300629D01*
X122904041Y-114421914D01*
X123410134Y-114182389D01*
X123786041Y-113767423D01*
X123946904Y-113379039D01*
X123824915Y-113157000D01*
X122682000Y-113157000D01*
X122428000Y-113157000D01*
X121285085Y-113157000D01*
X121163096Y-113379039D01*
X116961904Y-113379039D01*
X116839915Y-113157000D01*
X115697000Y-113157000D01*
X115697000Y-113177000D01*
X115443000Y-113177000D01*
X115443000Y-113157000D01*
X114300085Y-113157000D01*
X114178096Y-113379039D01*
X114338959Y-113767423D01*
X114714866Y-114182389D01*
X114959775Y-114298300D01*
X108681610Y-114298300D01*
X108642616Y-114259306D01*
X108805134Y-114182389D01*
X109181041Y-113767423D01*
X109341904Y-113379039D01*
X109219915Y-113157000D01*
X108077000Y-113157000D01*
X108077000Y-113177000D01*
X107823000Y-113177000D01*
X107823000Y-113157000D01*
X107803000Y-113157000D01*
X107803000Y-112903000D01*
X107823000Y-112903000D01*
X107823000Y-112883000D01*
X108077000Y-112883000D01*
X108077000Y-112903000D01*
X109219915Y-112903000D01*
X109341904Y-112680961D01*
X109265544Y-112496600D01*
X114254456Y-112496600D01*
X114178096Y-112680961D01*
X114300085Y-112903000D01*
X115443000Y-112903000D01*
X115443000Y-112883000D01*
X115697000Y-112883000D01*
X115697000Y-112903000D01*
X116839915Y-112903000D01*
X116961904Y-112680961D01*
X116885544Y-112496600D01*
X120107360Y-112496600D01*
X120179900Y-112511029D01*
X120252440Y-112496600D01*
X120252444Y-112496600D01*
X120467307Y-112453861D01*
X120710958Y-112291058D01*
X120752051Y-112229558D01*
X121495032Y-111486577D01*
X121520423Y-111524577D01*
X121904108Y-111780947D01*
X121699866Y-111877611D01*
X121323959Y-112292577D01*
X121163096Y-112680961D01*
X121285085Y-112903000D01*
X122428000Y-112903000D01*
X122428000Y-112883000D01*
X122682000Y-112883000D01*
X122682000Y-112903000D01*
X123824915Y-112903000D01*
X123946904Y-112680961D01*
X123786041Y-112292577D01*
X123410134Y-111877611D01*
X123205892Y-111780947D01*
X123589577Y-111524577D01*
X123906740Y-111049909D01*
X124018113Y-110490000D01*
X123906740Y-109930091D01*
X123834516Y-109822000D01*
X124820191Y-109822000D01*
X128497751Y-113499561D01*
X128497751Y-113499561D01*
G37*
X128497751Y-113499561D02*
X128538842Y-113561058D01*
X128600339Y-113602149D01*
X128600341Y-113602151D01*
X128746271Y-113699658D01*
X128782493Y-113723861D01*
X128932732Y-113753745D01*
X129140423Y-114064577D01*
X129615091Y-114381740D01*
X130033667Y-114465000D01*
X130316333Y-114465000D01*
X130734909Y-114381740D01*
X131209577Y-114064577D01*
X131243345Y-114014039D01*
X137038096Y-114014039D01*
X137198959Y-114402423D01*
X137574866Y-114817389D01*
X138080959Y-115056914D01*
X138303000Y-114935629D01*
X138303000Y-113792000D01*
X138557000Y-113792000D01*
X138557000Y-114935629D01*
X138779041Y-115056914D01*
X139285134Y-114817389D01*
X139661041Y-114402423D01*
X139821904Y-114014039D01*
X139699915Y-113792000D01*
X138557000Y-113792000D01*
X138303000Y-113792000D01*
X137160085Y-113792000D01*
X137038096Y-114014039D01*
X131243345Y-114014039D01*
X131526740Y-113589909D01*
X131638113Y-113030000D01*
X131526740Y-112470091D01*
X131209577Y-111995423D01*
X130857242Y-111760000D01*
X131209577Y-111524577D01*
X131514667Y-111067977D01*
X133163651Y-112716960D01*
X133204742Y-112778458D01*
X133266239Y-112819549D01*
X133266241Y-112819551D01*
X133429145Y-112928400D01*
X133448393Y-112941261D01*
X133663256Y-112984000D01*
X133663259Y-112984000D01*
X133735800Y-112998429D01*
X133808340Y-112984000D01*
X137175589Y-112984000D01*
X137038096Y-113315961D01*
X137160085Y-113538000D01*
X138303000Y-113538000D01*
X138303000Y-113518000D01*
X138557000Y-113518000D01*
X138557000Y-113538000D01*
X139699915Y-113538000D01*
X139821904Y-113315961D01*
X139684411Y-112984000D01*
X144779170Y-112984000D01*
X144698260Y-113105091D01*
X144586887Y-113665000D01*
X144698260Y-114224909D01*
X145015423Y-114699577D01*
X145490091Y-115016740D01*
X145908667Y-115100000D01*
X146191333Y-115100000D01*
X146609909Y-115016740D01*
X147084577Y-114699577D01*
X147401740Y-114224909D01*
X147443684Y-114014039D01*
X156088096Y-114014039D01*
X156248959Y-114402423D01*
X156624866Y-114817389D01*
X157130959Y-115056914D01*
X157353000Y-114935629D01*
X157353000Y-113792000D01*
X157607000Y-113792000D01*
X157607000Y-114935629D01*
X157829041Y-115056914D01*
X158335134Y-114817389D01*
X158711041Y-114402423D01*
X158871904Y-114014039D01*
X158749915Y-113792000D01*
X157607000Y-113792000D01*
X157353000Y-113792000D01*
X156210085Y-113792000D01*
X156088096Y-114014039D01*
X147443684Y-114014039D01*
X147513113Y-113665000D01*
X147401740Y-113105091D01*
X147320830Y-112984000D01*
X156225589Y-112984000D01*
X156088096Y-113315961D01*
X156210085Y-113538000D01*
X157353000Y-113538000D01*
X157353000Y-113518000D01*
X157607000Y-113518000D01*
X157607000Y-113538000D01*
X158749915Y-113538000D01*
X158871904Y-113315961D01*
X158734411Y-112984000D01*
X170419960Y-112984000D01*
X170492500Y-112998429D01*
X170565040Y-112984000D01*
X170565044Y-112984000D01*
X170779907Y-112941261D01*
X171023558Y-112778458D01*
X171064651Y-112716958D01*
X171660032Y-112121577D01*
X171685423Y-112159577D01*
X172037758Y-112395000D01*
X171685423Y-112630423D01*
X171368260Y-113105091D01*
X171256887Y-113665000D01*
X171368260Y-114224909D01*
X171685423Y-114699577D01*
X171920724Y-114856800D01*
X170469140Y-114856800D01*
X170396599Y-114842371D01*
X170324059Y-114856800D01*
X170324056Y-114856800D01*
X170130001Y-114895400D01*
X170109193Y-114899539D01*
X169927041Y-115021249D01*
X169927039Y-115021251D01*
X169865542Y-115062342D01*
X169824451Y-115123839D01*
X161000495Y-123947796D01*
X160604725Y-123683350D01*
X160167598Y-123596400D01*
X159872402Y-123596400D01*
X159486600Y-123673141D01*
X159486600Y-122002909D01*
X164848209Y-116641300D01*
X165100726Y-116641300D01*
X165497488Y-116476956D01*
X165801156Y-116173288D01*
X165965500Y-115776526D01*
X165965500Y-115347074D01*
X165801156Y-114950312D01*
X165497488Y-114646644D01*
X165100726Y-114482300D01*
X164671274Y-114482300D01*
X164274512Y-114646644D01*
X163970844Y-114950312D01*
X163806500Y-115347074D01*
X163806500Y-115599591D01*
X158280442Y-121125649D01*
X158218942Y-121166742D01*
X158177849Y-121228242D01*
X158133844Y-121294100D01*
X158056139Y-121410394D01*
X158013400Y-121625257D01*
X158013400Y-121625260D01*
X157998971Y-121697800D01*
X158013400Y-121770340D01*
X158013400Y-123673141D01*
X157627598Y-123596400D01*
X157332402Y-123596400D01*
X156895275Y-123683350D01*
X156498606Y-123948396D01*
X148023950Y-115473741D01*
X147982858Y-115412242D01*
X147739207Y-115249439D01*
X147524344Y-115206700D01*
X147524340Y-115206700D01*
X147451800Y-115192271D01*
X147379260Y-115206700D01*
X129028000Y-115206700D01*
X129028000Y-114980874D01*
X128863656Y-114584112D01*
X128559988Y-114280444D01*
X128163226Y-114116100D01*
X127733774Y-114116100D01*
X127337012Y-114280444D01*
X127033344Y-114584112D01*
X126869000Y-114980874D01*
X126869000Y-115410326D01*
X126970761Y-115656000D01*
X123089910Y-115656000D01*
X121859751Y-114425842D01*
X121818658Y-114364342D01*
X121575007Y-114201539D01*
X121360144Y-114158800D01*
X121360140Y-114158800D01*
X121287600Y-114144371D01*
X121215060Y-114158800D01*
X119354940Y-114158800D01*
X119282400Y-114144371D01*
X119209860Y-114158800D01*
X119209856Y-114158800D01*
X118994993Y-114201539D01*
X118850180Y-114298300D01*
X116180225Y-114298300D01*
X116425134Y-114182389D01*
X116801041Y-113767423D01*
X116961904Y-113379039D01*
X121163096Y-113379039D01*
X121323959Y-113767423D01*
X121699866Y-114182389D01*
X122205959Y-114421914D01*
X122428000Y-114300629D01*
X122428000Y-113157000D01*
X122682000Y-113157000D01*
X122682000Y-114300629D01*
X122904041Y-114421914D01*
X123410134Y-114182389D01*
X123786041Y-113767423D01*
X123946904Y-113379039D01*
X123824915Y-113157000D01*
X122682000Y-113157000D01*
X122428000Y-113157000D01*
X121285085Y-113157000D01*
X121163096Y-113379039D01*
X116961904Y-113379039D01*
X116839915Y-113157000D01*
X115697000Y-113157000D01*
X115697000Y-113177000D01*
X115443000Y-113177000D01*
X115443000Y-113157000D01*
X114300085Y-113157000D01*
X114178096Y-113379039D01*
X114338959Y-113767423D01*
X114714866Y-114182389D01*
X114959775Y-114298300D01*
X108681610Y-114298300D01*
X108642616Y-114259306D01*
X108805134Y-114182389D01*
X109181041Y-113767423D01*
X109341904Y-113379039D01*
X109219915Y-113157000D01*
X108077000Y-113157000D01*
X108077000Y-113177000D01*
X107823000Y-113177000D01*
X107823000Y-113157000D01*
X107803000Y-113157000D01*
X107803000Y-112903000D01*
X107823000Y-112903000D01*
X107823000Y-112883000D01*
X108077000Y-112883000D01*
X108077000Y-112903000D01*
X109219915Y-112903000D01*
X109341904Y-112680961D01*
X109265544Y-112496600D01*
X114254456Y-112496600D01*
X114178096Y-112680961D01*
X114300085Y-112903000D01*
X115443000Y-112903000D01*
X115443000Y-112883000D01*
X115697000Y-112883000D01*
X115697000Y-112903000D01*
X116839915Y-112903000D01*
X116961904Y-112680961D01*
X116885544Y-112496600D01*
X120107360Y-112496600D01*
X120179900Y-112511029D01*
X120252440Y-112496600D01*
X120252444Y-112496600D01*
X120467307Y-112453861D01*
X120710958Y-112291058D01*
X120752051Y-112229558D01*
X121495032Y-111486577D01*
X121520423Y-111524577D01*
X121904108Y-111780947D01*
X121699866Y-111877611D01*
X121323959Y-112292577D01*
X121163096Y-112680961D01*
X121285085Y-112903000D01*
X122428000Y-112903000D01*
X122428000Y-112883000D01*
X122682000Y-112883000D01*
X122682000Y-112903000D01*
X123824915Y-112903000D01*
X123946904Y-112680961D01*
X123786041Y-112292577D01*
X123410134Y-111877611D01*
X123205892Y-111780947D01*
X123589577Y-111524577D01*
X123906740Y-111049909D01*
X124018113Y-110490000D01*
X123906740Y-109930091D01*
X123834516Y-109822000D01*
X124820191Y-109822000D01*
X128497751Y-113499561D01*
G36*
X174687750Y-113029360D02*
X174728842Y-113090858D01*
X174790339Y-113131949D01*
X174790341Y-113131951D01*
X174923232Y-113220746D01*
X174972493Y-113253661D01*
X175187356Y-113296400D01*
X175187359Y-113296400D01*
X175259900Y-113310829D01*
X175332440Y-113296400D01*
X178956198Y-113296400D01*
X178948096Y-113315961D01*
X179070085Y-113538000D01*
X180213000Y-113538000D01*
X180213000Y-113518000D01*
X180467000Y-113518000D01*
X180467000Y-113538000D01*
X180487000Y-113538000D01*
X180487000Y-113792000D01*
X180467000Y-113792000D01*
X180467000Y-113812000D01*
X180213000Y-113812000D01*
X180213000Y-113792000D01*
X179070085Y-113792000D01*
X178948096Y-114014039D01*
X179108959Y-114402423D01*
X179484866Y-114817389D01*
X179568138Y-114856800D01*
X173519276Y-114856800D01*
X173754577Y-114699577D01*
X174071740Y-114224909D01*
X174183113Y-113665000D01*
X174071740Y-113105091D01*
X173754577Y-112630423D01*
X173402242Y-112395000D01*
X173754577Y-112159577D01*
X173779968Y-112121577D01*
X174687750Y-113029360D01*
X174687750Y-113029360D01*
G37*
X174687750Y-113029360D02*
X174728842Y-113090858D01*
X174790339Y-113131949D01*
X174790341Y-113131951D01*
X174923232Y-113220746D01*
X174972493Y-113253661D01*
X175187356Y-113296400D01*
X175187359Y-113296400D01*
X175259900Y-113310829D01*
X175332440Y-113296400D01*
X178956198Y-113296400D01*
X178948096Y-113315961D01*
X179070085Y-113538000D01*
X180213000Y-113538000D01*
X180213000Y-113518000D01*
X180467000Y-113518000D01*
X180467000Y-113538000D01*
X180487000Y-113538000D01*
X180487000Y-113792000D01*
X180467000Y-113792000D01*
X180467000Y-113812000D01*
X180213000Y-113812000D01*
X180213000Y-113792000D01*
X179070085Y-113792000D01*
X178948096Y-114014039D01*
X179108959Y-114402423D01*
X179484866Y-114817389D01*
X179568138Y-114856800D01*
X173519276Y-114856800D01*
X173754577Y-114699577D01*
X174071740Y-114224909D01*
X174183113Y-113665000D01*
X174071740Y-113105091D01*
X173754577Y-112630423D01*
X173402242Y-112395000D01*
X173754577Y-112159577D01*
X173779968Y-112121577D01*
X174687750Y-113029360D01*
G36*
X110424600Y-102724326D02*
X110588944Y-103121088D01*
X110892612Y-103424756D01*
X111289374Y-103589100D01*
X111541891Y-103589100D01*
X112562350Y-104609560D01*
X112603442Y-104671058D01*
X112664939Y-104712149D01*
X112664941Y-104712151D01*
X112847093Y-104833861D01*
X113061956Y-104876600D01*
X113061959Y-104876600D01*
X113134500Y-104891029D01*
X113207040Y-104876600D01*
X114254456Y-104876600D01*
X114178096Y-105060961D01*
X114300085Y-105283000D01*
X115443000Y-105283000D01*
X115443000Y-105263000D01*
X115697000Y-105263000D01*
X115697000Y-105283000D01*
X116839915Y-105283000D01*
X116961904Y-105060961D01*
X116933165Y-104991574D01*
X121470992Y-109529402D01*
X121312732Y-109766255D01*
X121162493Y-109796139D01*
X120980341Y-109917849D01*
X120980339Y-109917851D01*
X120918842Y-109958942D01*
X120877750Y-110020440D01*
X119874791Y-111023400D01*
X116885544Y-111023400D01*
X116961904Y-110839039D01*
X116839915Y-110617000D01*
X115697000Y-110617000D01*
X115697000Y-110637000D01*
X115443000Y-110637000D01*
X115443000Y-110617000D01*
X114300085Y-110617000D01*
X114178096Y-110839039D01*
X114254456Y-111023400D01*
X109265544Y-111023400D01*
X109341904Y-110839039D01*
X109219915Y-110617000D01*
X108077000Y-110617000D01*
X108077000Y-110637000D01*
X107823000Y-110637000D01*
X107823000Y-110617000D01*
X107803000Y-110617000D01*
X107803000Y-110363000D01*
X107823000Y-110363000D01*
X107823000Y-108077000D01*
X108077000Y-108077000D01*
X108077000Y-110363000D01*
X109219915Y-110363000D01*
X109341904Y-110140961D01*
X109181041Y-109752577D01*
X108805134Y-109337611D01*
X108556633Y-109220000D01*
X108805134Y-109102389D01*
X109181041Y-108687423D01*
X109341904Y-108299039D01*
X109219915Y-108077000D01*
X108077000Y-108077000D01*
X107823000Y-108077000D01*
X107803000Y-108077000D01*
X107803000Y-107950000D01*
X114106887Y-107950000D01*
X114218260Y-108509909D01*
X114535423Y-108984577D01*
X114919108Y-109240947D01*
X114714866Y-109337611D01*
X114338959Y-109752577D01*
X114178096Y-110140961D01*
X114300085Y-110363000D01*
X115443000Y-110363000D01*
X115443000Y-110343000D01*
X115697000Y-110343000D01*
X115697000Y-110363000D01*
X116839915Y-110363000D01*
X116961904Y-110140961D01*
X116801041Y-109752577D01*
X116425134Y-109337611D01*
X116220892Y-109240947D01*
X116604577Y-108984577D01*
X116921740Y-108509909D01*
X117033113Y-107950000D01*
X116921740Y-107390091D01*
X116604577Y-106915423D01*
X116220892Y-106659053D01*
X116425134Y-106562389D01*
X116801041Y-106147423D01*
X116961904Y-105759039D01*
X116839915Y-105537000D01*
X115697000Y-105537000D01*
X115697000Y-105557000D01*
X115443000Y-105557000D01*
X115443000Y-105537000D01*
X114300085Y-105537000D01*
X114178096Y-105759039D01*
X114338959Y-106147423D01*
X114714866Y-106562389D01*
X114919108Y-106659053D01*
X114535423Y-106915423D01*
X114218260Y-107390091D01*
X114106887Y-107950000D01*
X107803000Y-107950000D01*
X107803000Y-107823000D01*
X107823000Y-107823000D01*
X107823000Y-107803000D01*
X108077000Y-107803000D01*
X108077000Y-107823000D01*
X109219915Y-107823000D01*
X109341904Y-107600961D01*
X109181041Y-107212577D01*
X108805134Y-106797611D01*
X108600892Y-106700947D01*
X108984577Y-106444577D01*
X109301740Y-105969909D01*
X109413113Y-105410000D01*
X109301740Y-104850091D01*
X108984577Y-104375423D01*
X108632242Y-104140000D01*
X108984577Y-103904577D01*
X109192268Y-103593745D01*
X109342507Y-103563861D01*
X109586158Y-103401058D01*
X109627251Y-103339558D01*
X110424600Y-102542210D01*
X110424600Y-102724326D01*
X110424600Y-102724326D01*
G37*
X110424600Y-102724326D02*
X110588944Y-103121088D01*
X110892612Y-103424756D01*
X111289374Y-103589100D01*
X111541891Y-103589100D01*
X112562350Y-104609560D01*
X112603442Y-104671058D01*
X112664939Y-104712149D01*
X112664941Y-104712151D01*
X112847093Y-104833861D01*
X113061956Y-104876600D01*
X113061959Y-104876600D01*
X113134500Y-104891029D01*
X113207040Y-104876600D01*
X114254456Y-104876600D01*
X114178096Y-105060961D01*
X114300085Y-105283000D01*
X115443000Y-105283000D01*
X115443000Y-105263000D01*
X115697000Y-105263000D01*
X115697000Y-105283000D01*
X116839915Y-105283000D01*
X116961904Y-105060961D01*
X116933165Y-104991574D01*
X121470992Y-109529402D01*
X121312732Y-109766255D01*
X121162493Y-109796139D01*
X120980341Y-109917849D01*
X120980339Y-109917851D01*
X120918842Y-109958942D01*
X120877750Y-110020440D01*
X119874791Y-111023400D01*
X116885544Y-111023400D01*
X116961904Y-110839039D01*
X116839915Y-110617000D01*
X115697000Y-110617000D01*
X115697000Y-110637000D01*
X115443000Y-110637000D01*
X115443000Y-110617000D01*
X114300085Y-110617000D01*
X114178096Y-110839039D01*
X114254456Y-111023400D01*
X109265544Y-111023400D01*
X109341904Y-110839039D01*
X109219915Y-110617000D01*
X108077000Y-110617000D01*
X108077000Y-110637000D01*
X107823000Y-110637000D01*
X107823000Y-110617000D01*
X107803000Y-110617000D01*
X107803000Y-110363000D01*
X107823000Y-110363000D01*
X107823000Y-108077000D01*
X108077000Y-108077000D01*
X108077000Y-110363000D01*
X109219915Y-110363000D01*
X109341904Y-110140961D01*
X109181041Y-109752577D01*
X108805134Y-109337611D01*
X108556633Y-109220000D01*
X108805134Y-109102389D01*
X109181041Y-108687423D01*
X109341904Y-108299039D01*
X109219915Y-108077000D01*
X108077000Y-108077000D01*
X107823000Y-108077000D01*
X107803000Y-108077000D01*
X107803000Y-107950000D01*
X114106887Y-107950000D01*
X114218260Y-108509909D01*
X114535423Y-108984577D01*
X114919108Y-109240947D01*
X114714866Y-109337611D01*
X114338959Y-109752577D01*
X114178096Y-110140961D01*
X114300085Y-110363000D01*
X115443000Y-110363000D01*
X115443000Y-110343000D01*
X115697000Y-110343000D01*
X115697000Y-110363000D01*
X116839915Y-110363000D01*
X116961904Y-110140961D01*
X116801041Y-109752577D01*
X116425134Y-109337611D01*
X116220892Y-109240947D01*
X116604577Y-108984577D01*
X116921740Y-108509909D01*
X117033113Y-107950000D01*
X116921740Y-107390091D01*
X116604577Y-106915423D01*
X116220892Y-106659053D01*
X116425134Y-106562389D01*
X116801041Y-106147423D01*
X116961904Y-105759039D01*
X116839915Y-105537000D01*
X115697000Y-105537000D01*
X115697000Y-105557000D01*
X115443000Y-105557000D01*
X115443000Y-105537000D01*
X114300085Y-105537000D01*
X114178096Y-105759039D01*
X114338959Y-106147423D01*
X114714866Y-106562389D01*
X114919108Y-106659053D01*
X114535423Y-106915423D01*
X114218260Y-107390091D01*
X114106887Y-107950000D01*
X107803000Y-107950000D01*
X107803000Y-107823000D01*
X107823000Y-107823000D01*
X107823000Y-107803000D01*
X108077000Y-107803000D01*
X108077000Y-107823000D01*
X109219915Y-107823000D01*
X109341904Y-107600961D01*
X109181041Y-107212577D01*
X108805134Y-106797611D01*
X108600892Y-106700947D01*
X108984577Y-106444577D01*
X109301740Y-105969909D01*
X109413113Y-105410000D01*
X109301740Y-104850091D01*
X108984577Y-104375423D01*
X108632242Y-104140000D01*
X108984577Y-103904577D01*
X109192268Y-103593745D01*
X109342507Y-103563861D01*
X109586158Y-103401058D01*
X109627251Y-103339558D01*
X110424600Y-102542210D01*
X110424600Y-102724326D01*
G36*
X114178096Y-102520961D02*
X114300085Y-102743000D01*
X115443000Y-102743000D01*
X115443000Y-102723000D01*
X115697000Y-102723000D01*
X115697000Y-102743000D01*
X116839915Y-102743000D01*
X116961904Y-102520961D01*
X116945063Y-102480300D01*
X121169403Y-102480300D01*
X121091887Y-102870000D01*
X121203260Y-103429909D01*
X121454089Y-103805301D01*
X120972840Y-104286551D01*
X120911343Y-104327642D01*
X120870252Y-104389139D01*
X120870249Y-104389142D01*
X120748539Y-104571294D01*
X120691371Y-104858700D01*
X120705801Y-104931245D01*
X120705800Y-105844359D01*
X120691371Y-105916900D01*
X120705800Y-105989440D01*
X120705800Y-105989443D01*
X120748539Y-106204306D01*
X120911342Y-106447958D01*
X120972842Y-106489051D01*
X121471873Y-106988082D01*
X121288111Y-107263102D01*
X117695450Y-103670441D01*
X117654358Y-103608942D01*
X117410707Y-103446139D01*
X117195844Y-103403400D01*
X117195840Y-103403400D01*
X117123300Y-103388971D01*
X117050760Y-103403400D01*
X116885544Y-103403400D01*
X116961904Y-103219039D01*
X116839915Y-102997000D01*
X115697000Y-102997000D01*
X115697000Y-103017000D01*
X115443000Y-103017000D01*
X115443000Y-102997000D01*
X114300085Y-102997000D01*
X114178096Y-103219039D01*
X114254456Y-103403400D01*
X113439610Y-103403400D01*
X112583600Y-102547391D01*
X112583600Y-102480300D01*
X114194937Y-102480300D01*
X114178096Y-102520961D01*
X114178096Y-102520961D01*
G37*
X114178096Y-102520961D02*
X114300085Y-102743000D01*
X115443000Y-102743000D01*
X115443000Y-102723000D01*
X115697000Y-102723000D01*
X115697000Y-102743000D01*
X116839915Y-102743000D01*
X116961904Y-102520961D01*
X116945063Y-102480300D01*
X121169403Y-102480300D01*
X121091887Y-102870000D01*
X121203260Y-103429909D01*
X121454089Y-103805301D01*
X120972840Y-104286551D01*
X120911343Y-104327642D01*
X120870252Y-104389139D01*
X120870249Y-104389142D01*
X120748539Y-104571294D01*
X120691371Y-104858700D01*
X120705801Y-104931245D01*
X120705800Y-105844359D01*
X120691371Y-105916900D01*
X120705800Y-105989440D01*
X120705800Y-105989443D01*
X120748539Y-106204306D01*
X120911342Y-106447958D01*
X120972842Y-106489051D01*
X121471873Y-106988082D01*
X121288111Y-107263102D01*
X117695450Y-103670441D01*
X117654358Y-103608942D01*
X117410707Y-103446139D01*
X117195844Y-103403400D01*
X117195840Y-103403400D01*
X117123300Y-103388971D01*
X117050760Y-103403400D01*
X116885544Y-103403400D01*
X116961904Y-103219039D01*
X116839915Y-102997000D01*
X115697000Y-102997000D01*
X115697000Y-103017000D01*
X115443000Y-103017000D01*
X115443000Y-102997000D01*
X114300085Y-102997000D01*
X114178096Y-103219039D01*
X114254456Y-103403400D01*
X113439610Y-103403400D01*
X112583600Y-102547391D01*
X112583600Y-102480300D01*
X114194937Y-102480300D01*
X114178096Y-102520961D01*
G36*
X171328096Y-100615961D02*
X171450085Y-100838000D01*
X172593000Y-100838000D01*
X172593000Y-100818000D01*
X172847000Y-100818000D01*
X172847000Y-100838000D01*
X173989915Y-100838000D01*
X174111904Y-100615961D01*
X174099743Y-100586600D01*
X177814791Y-100586600D01*
X178662750Y-101434560D01*
X178703842Y-101496058D01*
X178765339Y-101537149D01*
X178765341Y-101537151D01*
X178921072Y-101641207D01*
X178947493Y-101658861D01*
X179097732Y-101688745D01*
X179305423Y-101999577D01*
X179657758Y-102235000D01*
X179305423Y-102470423D01*
X179280032Y-102508423D01*
X178670351Y-101898742D01*
X178629258Y-101837242D01*
X178385607Y-101674439D01*
X178170744Y-101631700D01*
X178170740Y-101631700D01*
X178098200Y-101617271D01*
X178025660Y-101631700D01*
X173980333Y-101631700D01*
X174111904Y-101314039D01*
X173989915Y-101092000D01*
X172847000Y-101092000D01*
X172847000Y-101112000D01*
X172593000Y-101112000D01*
X172593000Y-101092000D01*
X171450085Y-101092000D01*
X171328096Y-101314039D01*
X171459667Y-101631700D01*
X159794340Y-101631700D01*
X159721800Y-101617271D01*
X159649259Y-101631700D01*
X159649256Y-101631700D01*
X159434393Y-101674439D01*
X159252241Y-101796149D01*
X159252239Y-101796151D01*
X159190742Y-101837242D01*
X159149650Y-101898740D01*
X158539968Y-102508423D01*
X158514577Y-102470423D01*
X158162242Y-102235000D01*
X158514577Y-101999577D01*
X158722268Y-101688745D01*
X158872507Y-101658861D01*
X159116158Y-101496058D01*
X159157251Y-101434558D01*
X160005210Y-100586600D01*
X171340257Y-100586600D01*
X171328096Y-100615961D01*
X171328096Y-100615961D01*
G37*
X171328096Y-100615961D02*
X171450085Y-100838000D01*
X172593000Y-100838000D01*
X172593000Y-100818000D01*
X172847000Y-100818000D01*
X172847000Y-100838000D01*
X173989915Y-100838000D01*
X174111904Y-100615961D01*
X174099743Y-100586600D01*
X177814791Y-100586600D01*
X178662750Y-101434560D01*
X178703842Y-101496058D01*
X178765339Y-101537149D01*
X178765341Y-101537151D01*
X178921072Y-101641207D01*
X178947493Y-101658861D01*
X179097732Y-101688745D01*
X179305423Y-101999577D01*
X179657758Y-102235000D01*
X179305423Y-102470423D01*
X179280032Y-102508423D01*
X178670351Y-101898742D01*
X178629258Y-101837242D01*
X178385607Y-101674439D01*
X178170744Y-101631700D01*
X178170740Y-101631700D01*
X178098200Y-101617271D01*
X178025660Y-101631700D01*
X173980333Y-101631700D01*
X174111904Y-101314039D01*
X173989915Y-101092000D01*
X172847000Y-101092000D01*
X172847000Y-101112000D01*
X172593000Y-101112000D01*
X172593000Y-101092000D01*
X171450085Y-101092000D01*
X171328096Y-101314039D01*
X171459667Y-101631700D01*
X159794340Y-101631700D01*
X159721800Y-101617271D01*
X159649259Y-101631700D01*
X159649256Y-101631700D01*
X159434393Y-101674439D01*
X159252241Y-101796149D01*
X159252239Y-101796151D01*
X159190742Y-101837242D01*
X159149650Y-101898740D01*
X158539968Y-102508423D01*
X158514577Y-102470423D01*
X158162242Y-102235000D01*
X158514577Y-101999577D01*
X158722268Y-101688745D01*
X158872507Y-101658861D01*
X159116158Y-101496058D01*
X159157251Y-101434558D01*
X160005210Y-100586600D01*
X171340257Y-100586600D01*
X171328096Y-100615961D01*
G36*
X156128260Y-88824909D02*
X156403362Y-89236628D01*
X151708242Y-93931749D01*
X151646742Y-93972842D01*
X151483939Y-94216494D01*
X151441200Y-94431357D01*
X151441200Y-94431360D01*
X151426771Y-94503900D01*
X151441200Y-94576440D01*
X151441201Y-97364955D01*
X151262644Y-97543512D01*
X151098300Y-97940274D01*
X151098300Y-98369726D01*
X151262644Y-98766488D01*
X151441855Y-98945699D01*
X147370805Y-98945699D01*
X147441904Y-98774039D01*
X147319915Y-98552000D01*
X146177000Y-98552000D01*
X146177000Y-98572000D01*
X145923000Y-98572000D01*
X145923000Y-98552000D01*
X144780085Y-98552000D01*
X144658096Y-98774039D01*
X144729195Y-98945699D01*
X139789539Y-98945699D01*
X139893113Y-98425000D01*
X139781740Y-97865091D01*
X139703302Y-97747700D01*
X144794057Y-97747700D01*
X144658096Y-98075961D01*
X144780085Y-98298000D01*
X145923000Y-98298000D01*
X145923000Y-98278000D01*
X146177000Y-98278000D01*
X146177000Y-98298000D01*
X147319915Y-98298000D01*
X147441904Y-98075961D01*
X147281041Y-97687577D01*
X147127756Y-97518365D01*
X147152951Y-97480658D01*
X156075242Y-88558368D01*
X156128260Y-88824909D01*
X156128260Y-88824909D01*
G37*
X156128260Y-88824909D02*
X156403362Y-89236628D01*
X151708242Y-93931749D01*
X151646742Y-93972842D01*
X151483939Y-94216494D01*
X151441200Y-94431357D01*
X151441200Y-94431360D01*
X151426771Y-94503900D01*
X151441200Y-94576440D01*
X151441201Y-97364955D01*
X151262644Y-97543512D01*
X151098300Y-97940274D01*
X151098300Y-98369726D01*
X151262644Y-98766488D01*
X151441855Y-98945699D01*
X147370805Y-98945699D01*
X147441904Y-98774039D01*
X147319915Y-98552000D01*
X146177000Y-98552000D01*
X146177000Y-98572000D01*
X145923000Y-98572000D01*
X145923000Y-98552000D01*
X144780085Y-98552000D01*
X144658096Y-98774039D01*
X144729195Y-98945699D01*
X139789539Y-98945699D01*
X139893113Y-98425000D01*
X139781740Y-97865091D01*
X139703302Y-97747700D01*
X144794057Y-97747700D01*
X144658096Y-98075961D01*
X144780085Y-98298000D01*
X145923000Y-98298000D01*
X145923000Y-98278000D01*
X146177000Y-98278000D01*
X146177000Y-98298000D01*
X147319915Y-98298000D01*
X147441904Y-98075961D01*
X147281041Y-97687577D01*
X147127756Y-97518365D01*
X147152951Y-97480658D01*
X156075242Y-88558368D01*
X156128260Y-88824909D01*
G36*
X143256385Y-66520462D02*
X143156546Y-66525222D01*
X142755995Y-66691136D01*
X142681861Y-66937255D01*
X143510000Y-67765395D01*
X143524142Y-67751252D01*
X143703748Y-67930858D01*
X143689605Y-67945000D01*
X144517745Y-68773139D01*
X144763864Y-68699005D01*
X144766290Y-68692254D01*
X144793466Y-68757862D01*
X145070200Y-69034596D01*
X145070201Y-70048822D01*
X145015423Y-70085423D01*
X144698260Y-70560091D01*
X144586887Y-71120000D01*
X144698260Y-71679909D01*
X145015423Y-72154577D01*
X145399108Y-72410947D01*
X145194866Y-72507611D01*
X144818959Y-72922577D01*
X144658096Y-73310961D01*
X144780085Y-73533000D01*
X145923000Y-73533000D01*
X145923000Y-73513000D01*
X146177000Y-73513000D01*
X146177000Y-73533000D01*
X147319915Y-73533000D01*
X147441904Y-73310961D01*
X147281041Y-72922577D01*
X146905134Y-72507611D01*
X146700892Y-72410947D01*
X147084577Y-72154577D01*
X147147905Y-72059800D01*
X148200723Y-72059800D01*
X148285200Y-72144278D01*
X148285201Y-88470721D01*
X146115923Y-90640000D01*
X145724561Y-90640000D01*
X145197138Y-90858466D01*
X144793466Y-91262138D01*
X144766475Y-91327299D01*
X144763864Y-91320995D01*
X144517745Y-91246861D01*
X143689605Y-92075000D01*
X144517745Y-92903139D01*
X144763864Y-92829005D01*
X144766290Y-92822254D01*
X144793466Y-92887862D01*
X145070200Y-93164596D01*
X145070201Y-94813822D01*
X145015423Y-94850423D01*
X144698260Y-95325091D01*
X144586887Y-95885000D01*
X144664363Y-96274500D01*
X139865000Y-96274500D01*
X139865000Y-96170750D01*
X139706250Y-96012000D01*
X138557000Y-96012000D01*
X138557000Y-96032000D01*
X138303000Y-96032000D01*
X138303000Y-96012000D01*
X137153750Y-96012000D01*
X136995000Y-96170750D01*
X136995000Y-96277760D01*
X136796526Y-96317239D01*
X136614374Y-96438949D01*
X136614372Y-96438951D01*
X136552875Y-96480042D01*
X136511783Y-96541540D01*
X134823541Y-98229783D01*
X134762041Y-98270876D01*
X134603243Y-98508534D01*
X132085750Y-95991041D01*
X132082783Y-95986600D01*
X133442360Y-95986600D01*
X133514900Y-96001029D01*
X133587440Y-95986600D01*
X133587444Y-95986600D01*
X133802307Y-95943861D01*
X134045958Y-95781058D01*
X134087051Y-95719558D01*
X134820500Y-94986109D01*
X134820500Y-95334726D01*
X134984844Y-95731488D01*
X135288512Y-96035156D01*
X135685274Y-96199500D01*
X136114726Y-96199500D01*
X136511488Y-96035156D01*
X136815156Y-95731488D01*
X136979500Y-95334726D01*
X136979500Y-95150244D01*
X136995000Y-95136578D01*
X136995000Y-95599250D01*
X137153750Y-95758000D01*
X138303000Y-95758000D01*
X138303000Y-94608750D01*
X138557000Y-94608750D01*
X138557000Y-95758000D01*
X139706250Y-95758000D01*
X139865000Y-95599250D01*
X139865000Y-94958690D01*
X139768327Y-94725301D01*
X139589698Y-94546673D01*
X139356309Y-94450000D01*
X138715750Y-94450000D01*
X138557000Y-94608750D01*
X138303000Y-94608750D01*
X138144250Y-94450000D01*
X137773716Y-94450000D01*
X139324455Y-93082745D01*
X142681861Y-93082745D01*
X142755995Y-93328864D01*
X143293223Y-93521965D01*
X143863454Y-93494778D01*
X144264005Y-93328864D01*
X144338139Y-93082745D01*
X143510000Y-92254605D01*
X142681861Y-93082745D01*
X139324455Y-93082745D01*
X140713308Y-91858223D01*
X142063035Y-91858223D01*
X142090222Y-92428454D01*
X142256136Y-92829005D01*
X142502255Y-92903139D01*
X143330395Y-92075000D01*
X142502255Y-91246861D01*
X142256136Y-91320995D01*
X142063035Y-91858223D01*
X140713308Y-91858223D01*
X141610423Y-91067255D01*
X142681861Y-91067255D01*
X143510000Y-91895395D01*
X144338139Y-91067255D01*
X144264005Y-90821136D01*
X143726777Y-90628035D01*
X143156546Y-90655222D01*
X142755995Y-90821136D01*
X142681861Y-91067255D01*
X141610423Y-91067255D01*
X145395101Y-87730385D01*
X145456548Y-87689327D01*
X145490091Y-87711740D01*
X145908667Y-87795000D01*
X146191333Y-87795000D01*
X146609909Y-87711740D01*
X147084577Y-87394577D01*
X147401740Y-86919909D01*
X147513113Y-86360000D01*
X147401740Y-85800091D01*
X147084577Y-85325423D01*
X146732242Y-85090000D01*
X147084577Y-84854577D01*
X147401740Y-84379909D01*
X147513113Y-83820000D01*
X147401740Y-83260091D01*
X147150911Y-82884699D01*
X147672860Y-82362750D01*
X147734358Y-82321658D01*
X147775449Y-82260161D01*
X147775451Y-82260159D01*
X147897161Y-82078007D01*
X147904093Y-82043157D01*
X147939900Y-81863144D01*
X147939900Y-81863141D01*
X147954329Y-81790600D01*
X147939900Y-81718060D01*
X147939900Y-78386840D01*
X147954329Y-78314300D01*
X147939900Y-78241757D01*
X147939900Y-78241756D01*
X147897161Y-78026893D01*
X147871822Y-77988970D01*
X147775451Y-77844741D01*
X147775449Y-77844739D01*
X147734358Y-77783242D01*
X147672861Y-77742151D01*
X147116905Y-77186195D01*
X147401740Y-76759909D01*
X147513113Y-76200000D01*
X147401740Y-75640091D01*
X147084577Y-75165423D01*
X146700892Y-74909053D01*
X146905134Y-74812389D01*
X147281041Y-74397423D01*
X147441904Y-74009039D01*
X147319915Y-73787000D01*
X146177000Y-73787000D01*
X146177000Y-73807000D01*
X145923000Y-73807000D01*
X145923000Y-73787000D01*
X144780085Y-73787000D01*
X144658096Y-74009039D01*
X144818959Y-74397423D01*
X145194866Y-74812389D01*
X145399108Y-74909053D01*
X145015423Y-75165423D01*
X144802618Y-75483908D01*
X140248244Y-70929535D01*
X140228961Y-70832593D01*
X140066158Y-70588942D01*
X139877440Y-70462844D01*
X139877440Y-70320000D01*
X139828157Y-70072235D01*
X139687809Y-69862191D01*
X139477765Y-69721843D01*
X139230000Y-69672560D01*
X137630000Y-69672560D01*
X137382235Y-69721843D01*
X137172191Y-69862191D01*
X137031843Y-70072235D01*
X136982560Y-70320000D01*
X136982560Y-71920000D01*
X137031843Y-72167765D01*
X137172191Y-72377809D01*
X137382235Y-72518157D01*
X137516106Y-72544785D01*
X137395423Y-72625423D01*
X137078260Y-73100091D01*
X136966887Y-73660000D01*
X137078260Y-74219909D01*
X137395423Y-74694577D01*
X137747758Y-74930000D01*
X137395423Y-75165423D01*
X137078260Y-75640091D01*
X136966887Y-76200000D01*
X137078260Y-76759909D01*
X137395423Y-77234577D01*
X137747758Y-77470000D01*
X137395423Y-77705423D01*
X137078260Y-78180091D01*
X136966887Y-78740000D01*
X137078260Y-79299909D01*
X137395423Y-79774577D01*
X137779108Y-80030947D01*
X137574866Y-80127611D01*
X137198959Y-80542577D01*
X137038096Y-80930961D01*
X137160085Y-81153000D01*
X138303000Y-81153000D01*
X138303000Y-81133000D01*
X138557000Y-81133000D01*
X138557000Y-81153000D01*
X139699915Y-81153000D01*
X139821904Y-80930961D01*
X139661041Y-80542577D01*
X139285134Y-80127611D01*
X139080892Y-80030947D01*
X139464577Y-79774577D01*
X139781740Y-79299909D01*
X139893113Y-78740000D01*
X139781740Y-78180091D01*
X139464577Y-77705423D01*
X139112242Y-77470000D01*
X139464577Y-77234577D01*
X139781740Y-76759909D01*
X139893113Y-76200000D01*
X139781740Y-75640091D01*
X139464577Y-75165423D01*
X139112242Y-74930000D01*
X139464577Y-74694577D01*
X139781740Y-74219909D01*
X139893113Y-73660000D01*
X139781740Y-73100091D01*
X139464577Y-72625423D01*
X139343894Y-72544785D01*
X139477765Y-72518157D01*
X139643024Y-72407733D01*
X144985498Y-77750208D01*
X144807732Y-78016255D01*
X144657493Y-78046139D01*
X144413842Y-78208942D01*
X144251039Y-78452593D01*
X144209185Y-78663005D01*
X139713792Y-83158399D01*
X139464577Y-82785423D01*
X139080892Y-82529053D01*
X139285134Y-82432389D01*
X139661041Y-82017423D01*
X139821904Y-81629039D01*
X139699915Y-81407000D01*
X138557000Y-81407000D01*
X138557000Y-81427000D01*
X138303000Y-81427000D01*
X138303000Y-81407000D01*
X137160085Y-81407000D01*
X137038096Y-81629039D01*
X137198959Y-82017423D01*
X137574866Y-82432389D01*
X137779108Y-82529053D01*
X137395423Y-82785423D01*
X137078260Y-83260091D01*
X136966887Y-83820000D01*
X137078260Y-84379909D01*
X137343188Y-84776402D01*
X131560772Y-90558819D01*
X131638113Y-90170000D01*
X131526740Y-89610091D01*
X131209577Y-89135423D01*
X131074800Y-89045368D01*
X131074800Y-88084596D01*
X131351534Y-87807862D01*
X131570000Y-87280439D01*
X131570000Y-86709561D01*
X131351534Y-86182138D01*
X131074800Y-85905404D01*
X131074800Y-83478653D01*
X131133211Y-83185000D01*
X131060272Y-82818309D01*
X130852557Y-82507443D01*
X130541691Y-82299728D01*
X130267559Y-82245200D01*
X130267554Y-82245200D01*
X130175000Y-82226790D01*
X130082446Y-82245200D01*
X119684800Y-82245200D01*
X119684800Y-75657554D01*
X119703210Y-75565000D01*
X119684800Y-75472446D01*
X119684800Y-75472441D01*
X119630272Y-75198309D01*
X119576014Y-75117106D01*
X119474988Y-74965910D01*
X119474986Y-74965908D01*
X119422557Y-74887443D01*
X119344092Y-74835014D01*
X118839987Y-74330910D01*
X118787557Y-74252443D01*
X118476691Y-74044728D01*
X118202559Y-73990200D01*
X118202554Y-73990200D01*
X118110000Y-73971790D01*
X118017446Y-73990200D01*
X116667905Y-73990200D01*
X116604577Y-73895423D01*
X116483597Y-73814587D01*
X116495795Y-72858601D01*
X116786534Y-72567862D01*
X117005000Y-72040439D01*
X117005000Y-71469561D01*
X116844726Y-71082625D01*
X117683261Y-68952745D01*
X142681861Y-68952745D01*
X142755995Y-69198864D01*
X143293223Y-69391965D01*
X143863454Y-69364778D01*
X144264005Y-69198864D01*
X144338139Y-68952745D01*
X143510000Y-68124605D01*
X142681861Y-68952745D01*
X117683261Y-68952745D01*
X118165357Y-67728223D01*
X142063035Y-67728223D01*
X142090222Y-68298454D01*
X142256136Y-68699005D01*
X142502255Y-68773139D01*
X143330395Y-67945000D01*
X142502255Y-67116861D01*
X142256136Y-67190995D01*
X142063035Y-67728223D01*
X118165357Y-67728223D01*
X118710012Y-66344800D01*
X143080723Y-66344800D01*
X143256385Y-66520462D01*
X143256385Y-66520462D01*
G37*
X143256385Y-66520462D02*
X143156546Y-66525222D01*
X142755995Y-66691136D01*
X142681861Y-66937255D01*
X143510000Y-67765395D01*
X143524142Y-67751252D01*
X143703748Y-67930858D01*
X143689605Y-67945000D01*
X144517745Y-68773139D01*
X144763864Y-68699005D01*
X144766290Y-68692254D01*
X144793466Y-68757862D01*
X145070200Y-69034596D01*
X145070201Y-70048822D01*
X145015423Y-70085423D01*
X144698260Y-70560091D01*
X144586887Y-71120000D01*
X144698260Y-71679909D01*
X145015423Y-72154577D01*
X145399108Y-72410947D01*
X145194866Y-72507611D01*
X144818959Y-72922577D01*
X144658096Y-73310961D01*
X144780085Y-73533000D01*
X145923000Y-73533000D01*
X145923000Y-73513000D01*
X146177000Y-73513000D01*
X146177000Y-73533000D01*
X147319915Y-73533000D01*
X147441904Y-73310961D01*
X147281041Y-72922577D01*
X146905134Y-72507611D01*
X146700892Y-72410947D01*
X147084577Y-72154577D01*
X147147905Y-72059800D01*
X148200723Y-72059800D01*
X148285200Y-72144278D01*
X148285201Y-88470721D01*
X146115923Y-90640000D01*
X145724561Y-90640000D01*
X145197138Y-90858466D01*
X144793466Y-91262138D01*
X144766475Y-91327299D01*
X144763864Y-91320995D01*
X144517745Y-91246861D01*
X143689605Y-92075000D01*
X144517745Y-92903139D01*
X144763864Y-92829005D01*
X144766290Y-92822254D01*
X144793466Y-92887862D01*
X145070200Y-93164596D01*
X145070201Y-94813822D01*
X145015423Y-94850423D01*
X144698260Y-95325091D01*
X144586887Y-95885000D01*
X144664363Y-96274500D01*
X139865000Y-96274500D01*
X139865000Y-96170750D01*
X139706250Y-96012000D01*
X138557000Y-96012000D01*
X138557000Y-96032000D01*
X138303000Y-96032000D01*
X138303000Y-96012000D01*
X137153750Y-96012000D01*
X136995000Y-96170750D01*
X136995000Y-96277760D01*
X136796526Y-96317239D01*
X136614374Y-96438949D01*
X136614372Y-96438951D01*
X136552875Y-96480042D01*
X136511783Y-96541540D01*
X134823541Y-98229783D01*
X134762041Y-98270876D01*
X134603243Y-98508534D01*
X132085750Y-95991041D01*
X132082783Y-95986600D01*
X133442360Y-95986600D01*
X133514900Y-96001029D01*
X133587440Y-95986600D01*
X133587444Y-95986600D01*
X133802307Y-95943861D01*
X134045958Y-95781058D01*
X134087051Y-95719558D01*
X134820500Y-94986109D01*
X134820500Y-95334726D01*
X134984844Y-95731488D01*
X135288512Y-96035156D01*
X135685274Y-96199500D01*
X136114726Y-96199500D01*
X136511488Y-96035156D01*
X136815156Y-95731488D01*
X136979500Y-95334726D01*
X136979500Y-95150244D01*
X136995000Y-95136578D01*
X136995000Y-95599250D01*
X137153750Y-95758000D01*
X138303000Y-95758000D01*
X138303000Y-94608750D01*
X138557000Y-94608750D01*
X138557000Y-95758000D01*
X139706250Y-95758000D01*
X139865000Y-95599250D01*
X139865000Y-94958690D01*
X139768327Y-94725301D01*
X139589698Y-94546673D01*
X139356309Y-94450000D01*
X138715750Y-94450000D01*
X138557000Y-94608750D01*
X138303000Y-94608750D01*
X138144250Y-94450000D01*
X137773716Y-94450000D01*
X139324455Y-93082745D01*
X142681861Y-93082745D01*
X142755995Y-93328864D01*
X143293223Y-93521965D01*
X143863454Y-93494778D01*
X144264005Y-93328864D01*
X144338139Y-93082745D01*
X143510000Y-92254605D01*
X142681861Y-93082745D01*
X139324455Y-93082745D01*
X140713308Y-91858223D01*
X142063035Y-91858223D01*
X142090222Y-92428454D01*
X142256136Y-92829005D01*
X142502255Y-92903139D01*
X143330395Y-92075000D01*
X142502255Y-91246861D01*
X142256136Y-91320995D01*
X142063035Y-91858223D01*
X140713308Y-91858223D01*
X141610423Y-91067255D01*
X142681861Y-91067255D01*
X143510000Y-91895395D01*
X144338139Y-91067255D01*
X144264005Y-90821136D01*
X143726777Y-90628035D01*
X143156546Y-90655222D01*
X142755995Y-90821136D01*
X142681861Y-91067255D01*
X141610423Y-91067255D01*
X145395101Y-87730385D01*
X145456548Y-87689327D01*
X145490091Y-87711740D01*
X145908667Y-87795000D01*
X146191333Y-87795000D01*
X146609909Y-87711740D01*
X147084577Y-87394577D01*
X147401740Y-86919909D01*
X147513113Y-86360000D01*
X147401740Y-85800091D01*
X147084577Y-85325423D01*
X146732242Y-85090000D01*
X147084577Y-84854577D01*
X147401740Y-84379909D01*
X147513113Y-83820000D01*
X147401740Y-83260091D01*
X147150911Y-82884699D01*
X147672860Y-82362750D01*
X147734358Y-82321658D01*
X147775449Y-82260161D01*
X147775451Y-82260159D01*
X147897161Y-82078007D01*
X147904093Y-82043157D01*
X147939900Y-81863144D01*
X147939900Y-81863141D01*
X147954329Y-81790600D01*
X147939900Y-81718060D01*
X147939900Y-78386840D01*
X147954329Y-78314300D01*
X147939900Y-78241757D01*
X147939900Y-78241756D01*
X147897161Y-78026893D01*
X147871822Y-77988970D01*
X147775451Y-77844741D01*
X147775449Y-77844739D01*
X147734358Y-77783242D01*
X147672861Y-77742151D01*
X147116905Y-77186195D01*
X147401740Y-76759909D01*
X147513113Y-76200000D01*
X147401740Y-75640091D01*
X147084577Y-75165423D01*
X146700892Y-74909053D01*
X146905134Y-74812389D01*
X147281041Y-74397423D01*
X147441904Y-74009039D01*
X147319915Y-73787000D01*
X146177000Y-73787000D01*
X146177000Y-73807000D01*
X145923000Y-73807000D01*
X145923000Y-73787000D01*
X144780085Y-73787000D01*
X144658096Y-74009039D01*
X144818959Y-74397423D01*
X145194866Y-74812389D01*
X145399108Y-74909053D01*
X145015423Y-75165423D01*
X144802618Y-75483908D01*
X140248244Y-70929535D01*
X140228961Y-70832593D01*
X140066158Y-70588942D01*
X139877440Y-70462844D01*
X139877440Y-70320000D01*
X139828157Y-70072235D01*
X139687809Y-69862191D01*
X139477765Y-69721843D01*
X139230000Y-69672560D01*
X137630000Y-69672560D01*
X137382235Y-69721843D01*
X137172191Y-69862191D01*
X137031843Y-70072235D01*
X136982560Y-70320000D01*
X136982560Y-71920000D01*
X137031843Y-72167765D01*
X137172191Y-72377809D01*
X137382235Y-72518157D01*
X137516106Y-72544785D01*
X137395423Y-72625423D01*
X137078260Y-73100091D01*
X136966887Y-73660000D01*
X137078260Y-74219909D01*
X137395423Y-74694577D01*
X137747758Y-74930000D01*
X137395423Y-75165423D01*
X137078260Y-75640091D01*
X136966887Y-76200000D01*
X137078260Y-76759909D01*
X137395423Y-77234577D01*
X137747758Y-77470000D01*
X137395423Y-77705423D01*
X137078260Y-78180091D01*
X136966887Y-78740000D01*
X137078260Y-79299909D01*
X137395423Y-79774577D01*
X137779108Y-80030947D01*
X137574866Y-80127611D01*
X137198959Y-80542577D01*
X137038096Y-80930961D01*
X137160085Y-81153000D01*
X138303000Y-81153000D01*
X138303000Y-81133000D01*
X138557000Y-81133000D01*
X138557000Y-81153000D01*
X139699915Y-81153000D01*
X139821904Y-80930961D01*
X139661041Y-80542577D01*
X139285134Y-80127611D01*
X139080892Y-80030947D01*
X139464577Y-79774577D01*
X139781740Y-79299909D01*
X139893113Y-78740000D01*
X139781740Y-78180091D01*
X139464577Y-77705423D01*
X139112242Y-77470000D01*
X139464577Y-77234577D01*
X139781740Y-76759909D01*
X139893113Y-76200000D01*
X139781740Y-75640091D01*
X139464577Y-75165423D01*
X139112242Y-74930000D01*
X139464577Y-74694577D01*
X139781740Y-74219909D01*
X139893113Y-73660000D01*
X139781740Y-73100091D01*
X139464577Y-72625423D01*
X139343894Y-72544785D01*
X139477765Y-72518157D01*
X139643024Y-72407733D01*
X144985498Y-77750208D01*
X144807732Y-78016255D01*
X144657493Y-78046139D01*
X144413842Y-78208942D01*
X144251039Y-78452593D01*
X144209185Y-78663005D01*
X139713792Y-83158399D01*
X139464577Y-82785423D01*
X139080892Y-82529053D01*
X139285134Y-82432389D01*
X139661041Y-82017423D01*
X139821904Y-81629039D01*
X139699915Y-81407000D01*
X138557000Y-81407000D01*
X138557000Y-81427000D01*
X138303000Y-81427000D01*
X138303000Y-81407000D01*
X137160085Y-81407000D01*
X137038096Y-81629039D01*
X137198959Y-82017423D01*
X137574866Y-82432389D01*
X137779108Y-82529053D01*
X137395423Y-82785423D01*
X137078260Y-83260091D01*
X136966887Y-83820000D01*
X137078260Y-84379909D01*
X137343188Y-84776402D01*
X131560772Y-90558819D01*
X131638113Y-90170000D01*
X131526740Y-89610091D01*
X131209577Y-89135423D01*
X131074800Y-89045368D01*
X131074800Y-88084596D01*
X131351534Y-87807862D01*
X131570000Y-87280439D01*
X131570000Y-86709561D01*
X131351534Y-86182138D01*
X131074800Y-85905404D01*
X131074800Y-83478653D01*
X131133211Y-83185000D01*
X131060272Y-82818309D01*
X130852557Y-82507443D01*
X130541691Y-82299728D01*
X130267559Y-82245200D01*
X130267554Y-82245200D01*
X130175000Y-82226790D01*
X130082446Y-82245200D01*
X119684800Y-82245200D01*
X119684800Y-75657554D01*
X119703210Y-75565000D01*
X119684800Y-75472446D01*
X119684800Y-75472441D01*
X119630272Y-75198309D01*
X119576014Y-75117106D01*
X119474988Y-74965910D01*
X119474986Y-74965908D01*
X119422557Y-74887443D01*
X119344092Y-74835014D01*
X118839987Y-74330910D01*
X118787557Y-74252443D01*
X118476691Y-74044728D01*
X118202559Y-73990200D01*
X118202554Y-73990200D01*
X118110000Y-73971790D01*
X118017446Y-73990200D01*
X116667905Y-73990200D01*
X116604577Y-73895423D01*
X116483597Y-73814587D01*
X116495795Y-72858601D01*
X116786534Y-72567862D01*
X117005000Y-72040439D01*
X117005000Y-71469561D01*
X116844726Y-71082625D01*
X117683261Y-68952745D01*
X142681861Y-68952745D01*
X142755995Y-69198864D01*
X143293223Y-69391965D01*
X143863454Y-69364778D01*
X144264005Y-69198864D01*
X144338139Y-68952745D01*
X143510000Y-68124605D01*
X142681861Y-68952745D01*
X117683261Y-68952745D01*
X118165357Y-67728223D01*
X142063035Y-67728223D01*
X142090222Y-68298454D01*
X142256136Y-68699005D01*
X142502255Y-68773139D01*
X143330395Y-67945000D01*
X142502255Y-67116861D01*
X142256136Y-67190995D01*
X142063035Y-67728223D01*
X118165357Y-67728223D01*
X118710012Y-66344800D01*
X143080723Y-66344800D01*
X143256385Y-66520462D01*
G36*
X129195201Y-85905403D02*
X128918466Y-86182138D01*
X128891475Y-86247299D01*
X128888864Y-86240995D01*
X128642745Y-86166861D01*
X127814605Y-86995000D01*
X128642745Y-87823139D01*
X128888864Y-87749005D01*
X128891290Y-87742254D01*
X128918466Y-87807862D01*
X129195200Y-88084596D01*
X129195201Y-89098822D01*
X129140423Y-89135423D01*
X128823260Y-89610091D01*
X128711887Y-90170000D01*
X128823260Y-90729909D01*
X129140423Y-91204577D01*
X129492758Y-91440000D01*
X129140423Y-91675423D01*
X128823260Y-92150091D01*
X128711887Y-92710000D01*
X128823260Y-93269909D01*
X129140423Y-93744577D01*
X129492758Y-93980000D01*
X129140423Y-94215423D01*
X128823260Y-94690091D01*
X128711887Y-95250000D01*
X128806172Y-95724000D01*
X126610709Y-95724000D01*
X123948197Y-93061488D01*
X124018113Y-92710000D01*
X123906740Y-92150091D01*
X123589577Y-91675423D01*
X123483082Y-91604265D01*
X123714698Y-91508327D01*
X123893327Y-91329699D01*
X123990000Y-91096310D01*
X123990000Y-90455750D01*
X123831250Y-90297000D01*
X122682000Y-90297000D01*
X122682000Y-90317000D01*
X122428000Y-90317000D01*
X122428000Y-90297000D01*
X121278750Y-90297000D01*
X121120000Y-90455750D01*
X121120000Y-91096310D01*
X121216673Y-91329699D01*
X121395302Y-91508327D01*
X121626918Y-91604265D01*
X121520423Y-91675423D01*
X121203260Y-92150091D01*
X121091887Y-92710000D01*
X121203260Y-93269909D01*
X121520423Y-93744577D01*
X121872758Y-93980000D01*
X121520423Y-94215423D01*
X121203260Y-94690091D01*
X121091887Y-95250000D01*
X121203260Y-95809909D01*
X121520423Y-96284577D01*
X121872758Y-96520000D01*
X121520423Y-96755423D01*
X121203260Y-97230091D01*
X121091887Y-97790000D01*
X121169184Y-98178600D01*
X117075632Y-98178600D01*
X117090271Y-98156692D01*
X117163210Y-97790000D01*
X117090271Y-97423309D01*
X116934988Y-97190911D01*
X116894987Y-97150910D01*
X116842557Y-97072443D01*
X116795308Y-97040872D01*
X116604577Y-96755423D01*
X116469800Y-96665368D01*
X116469800Y-95069596D01*
X116619596Y-94919800D01*
X118017446Y-94919800D01*
X118110000Y-94938210D01*
X118202554Y-94919800D01*
X118202559Y-94919800D01*
X118476691Y-94865272D01*
X118674291Y-94733239D01*
X118709089Y-94709988D01*
X118787557Y-94657557D01*
X118839987Y-94579090D01*
X119344092Y-94074985D01*
X119422557Y-94022557D01*
X119474986Y-93944092D01*
X119474988Y-93944090D01*
X119630271Y-93711692D01*
X119630272Y-93711691D01*
X119684800Y-93437559D01*
X119684800Y-93437554D01*
X119703210Y-93345000D01*
X119684800Y-93252446D01*
X119684800Y-89243690D01*
X121120000Y-89243690D01*
X121120000Y-89884250D01*
X121278750Y-90043000D01*
X122428000Y-90043000D01*
X122428000Y-88893750D01*
X122682000Y-88893750D01*
X122682000Y-90043000D01*
X123831250Y-90043000D01*
X123990000Y-89884250D01*
X123990000Y-89243690D01*
X123893327Y-89010301D01*
X123714698Y-88831673D01*
X123481309Y-88735000D01*
X122840750Y-88735000D01*
X122682000Y-88893750D01*
X122428000Y-88893750D01*
X122269250Y-88735000D01*
X121628691Y-88735000D01*
X121395302Y-88831673D01*
X121216673Y-89010301D01*
X121120000Y-89243690D01*
X119684800Y-89243690D01*
X119684800Y-88002745D01*
X126806861Y-88002745D01*
X126880995Y-88248864D01*
X127418223Y-88441965D01*
X127988454Y-88414778D01*
X128389005Y-88248864D01*
X128463139Y-88002745D01*
X127635000Y-87174605D01*
X126806861Y-88002745D01*
X119684800Y-88002745D01*
X119684800Y-86778223D01*
X126188035Y-86778223D01*
X126215222Y-87348454D01*
X126381136Y-87749005D01*
X126627255Y-87823139D01*
X127455395Y-86995000D01*
X126627255Y-86166861D01*
X126381136Y-86240995D01*
X126188035Y-86778223D01*
X119684800Y-86778223D01*
X119684800Y-85987255D01*
X126806861Y-85987255D01*
X127635000Y-86815395D01*
X128463139Y-85987255D01*
X128389005Y-85741136D01*
X127851777Y-85548035D01*
X127281546Y-85575222D01*
X126880995Y-85741136D01*
X126806861Y-85987255D01*
X119684800Y-85987255D01*
X119684800Y-84124800D01*
X129195200Y-84124800D01*
X129195201Y-85905403D01*
X129195201Y-85905403D01*
G37*
X129195201Y-85905403D02*
X128918466Y-86182138D01*
X128891475Y-86247299D01*
X128888864Y-86240995D01*
X128642745Y-86166861D01*
X127814605Y-86995000D01*
X128642745Y-87823139D01*
X128888864Y-87749005D01*
X128891290Y-87742254D01*
X128918466Y-87807862D01*
X129195200Y-88084596D01*
X129195201Y-89098822D01*
X129140423Y-89135423D01*
X128823260Y-89610091D01*
X128711887Y-90170000D01*
X128823260Y-90729909D01*
X129140423Y-91204577D01*
X129492758Y-91440000D01*
X129140423Y-91675423D01*
X128823260Y-92150091D01*
X128711887Y-92710000D01*
X128823260Y-93269909D01*
X129140423Y-93744577D01*
X129492758Y-93980000D01*
X129140423Y-94215423D01*
X128823260Y-94690091D01*
X128711887Y-95250000D01*
X128806172Y-95724000D01*
X126610709Y-95724000D01*
X123948197Y-93061488D01*
X124018113Y-92710000D01*
X123906740Y-92150091D01*
X123589577Y-91675423D01*
X123483082Y-91604265D01*
X123714698Y-91508327D01*
X123893327Y-91329699D01*
X123990000Y-91096310D01*
X123990000Y-90455750D01*
X123831250Y-90297000D01*
X122682000Y-90297000D01*
X122682000Y-90317000D01*
X122428000Y-90317000D01*
X122428000Y-90297000D01*
X121278750Y-90297000D01*
X121120000Y-90455750D01*
X121120000Y-91096310D01*
X121216673Y-91329699D01*
X121395302Y-91508327D01*
X121626918Y-91604265D01*
X121520423Y-91675423D01*
X121203260Y-92150091D01*
X121091887Y-92710000D01*
X121203260Y-93269909D01*
X121520423Y-93744577D01*
X121872758Y-93980000D01*
X121520423Y-94215423D01*
X121203260Y-94690091D01*
X121091887Y-95250000D01*
X121203260Y-95809909D01*
X121520423Y-96284577D01*
X121872758Y-96520000D01*
X121520423Y-96755423D01*
X121203260Y-97230091D01*
X121091887Y-97790000D01*
X121169184Y-98178600D01*
X117075632Y-98178600D01*
X117090271Y-98156692D01*
X117163210Y-97790000D01*
X117090271Y-97423309D01*
X116934988Y-97190911D01*
X116894987Y-97150910D01*
X116842557Y-97072443D01*
X116795308Y-97040872D01*
X116604577Y-96755423D01*
X116469800Y-96665368D01*
X116469800Y-95069596D01*
X116619596Y-94919800D01*
X118017446Y-94919800D01*
X118110000Y-94938210D01*
X118202554Y-94919800D01*
X118202559Y-94919800D01*
X118476691Y-94865272D01*
X118674291Y-94733239D01*
X118709089Y-94709988D01*
X118787557Y-94657557D01*
X118839987Y-94579090D01*
X119344092Y-94074985D01*
X119422557Y-94022557D01*
X119474986Y-93944092D01*
X119474988Y-93944090D01*
X119630271Y-93711692D01*
X119630272Y-93711691D01*
X119684800Y-93437559D01*
X119684800Y-93437554D01*
X119703210Y-93345000D01*
X119684800Y-93252446D01*
X119684800Y-89243690D01*
X121120000Y-89243690D01*
X121120000Y-89884250D01*
X121278750Y-90043000D01*
X122428000Y-90043000D01*
X122428000Y-88893750D01*
X122682000Y-88893750D01*
X122682000Y-90043000D01*
X123831250Y-90043000D01*
X123990000Y-89884250D01*
X123990000Y-89243690D01*
X123893327Y-89010301D01*
X123714698Y-88831673D01*
X123481309Y-88735000D01*
X122840750Y-88735000D01*
X122682000Y-88893750D01*
X122428000Y-88893750D01*
X122269250Y-88735000D01*
X121628691Y-88735000D01*
X121395302Y-88831673D01*
X121216673Y-89010301D01*
X121120000Y-89243690D01*
X119684800Y-89243690D01*
X119684800Y-88002745D01*
X126806861Y-88002745D01*
X126880995Y-88248864D01*
X127418223Y-88441965D01*
X127988454Y-88414778D01*
X128389005Y-88248864D01*
X128463139Y-88002745D01*
X127635000Y-87174605D01*
X126806861Y-88002745D01*
X119684800Y-88002745D01*
X119684800Y-86778223D01*
X126188035Y-86778223D01*
X126215222Y-87348454D01*
X126381136Y-87749005D01*
X126627255Y-87823139D01*
X127455395Y-86995000D01*
X126627255Y-86166861D01*
X126381136Y-86240995D01*
X126188035Y-86778223D01*
X119684800Y-86778223D01*
X119684800Y-85987255D01*
X126806861Y-85987255D01*
X127635000Y-86815395D01*
X128463139Y-85987255D01*
X128389005Y-85741136D01*
X127851777Y-85548035D01*
X127281546Y-85575222D01*
X126880995Y-85741136D01*
X126806861Y-85987255D01*
X119684800Y-85987255D01*
X119684800Y-84124800D01*
X129195200Y-84124800D01*
X129195201Y-85905403D01*
G36*
X171606448Y-71474156D02*
X171503466Y-71577138D01*
X171476475Y-71642299D01*
X171473864Y-71635995D01*
X171227745Y-71561861D01*
X170399605Y-72390000D01*
X171227745Y-73218139D01*
X171473864Y-73144005D01*
X171476290Y-73137254D01*
X171503466Y-73202862D01*
X171780200Y-73479596D01*
X171780201Y-74467095D01*
X171685423Y-74530423D01*
X171368260Y-75005091D01*
X171256887Y-75565000D01*
X171368260Y-76124909D01*
X171685423Y-76599577D01*
X172037758Y-76835000D01*
X171685423Y-77070423D01*
X171368260Y-77545091D01*
X171256887Y-78105000D01*
X171368260Y-78664909D01*
X171420171Y-78742600D01*
X159823440Y-78742600D01*
X159750899Y-78728171D01*
X159678359Y-78742600D01*
X159678356Y-78742600D01*
X159463493Y-78785339D01*
X159281341Y-78907049D01*
X159281339Y-78907051D01*
X159219842Y-78948142D01*
X159178750Y-79009640D01*
X158539968Y-79648423D01*
X158514577Y-79610423D01*
X158162242Y-79375000D01*
X158514577Y-79139577D01*
X158831740Y-78664909D01*
X158943113Y-78105000D01*
X158831740Y-77545091D01*
X158514577Y-77070423D01*
X158393894Y-76989785D01*
X158527765Y-76963157D01*
X158737809Y-76822809D01*
X158878157Y-76612765D01*
X158927440Y-76365000D01*
X158927440Y-74765000D01*
X158878157Y-74517235D01*
X158737809Y-74307191D01*
X158527765Y-74166843D01*
X158280000Y-74117560D01*
X156680000Y-74117560D01*
X156432235Y-74166843D01*
X156222191Y-74307191D01*
X156081843Y-74517235D01*
X156032560Y-74765000D01*
X156032560Y-76365000D01*
X156081843Y-76612765D01*
X156222191Y-76822809D01*
X156432235Y-76963157D01*
X156566106Y-76989785D01*
X156445423Y-77070423D01*
X156128260Y-77545091D01*
X156016887Y-78105000D01*
X156128260Y-78664909D01*
X156445423Y-79139577D01*
X156797758Y-79375000D01*
X156445423Y-79610423D01*
X156128260Y-80085091D01*
X156016887Y-80645000D01*
X156128260Y-81204909D01*
X156445423Y-81679577D01*
X156797758Y-81915000D01*
X156445423Y-82150423D01*
X156128260Y-82625091D01*
X156016887Y-83185000D01*
X156128260Y-83744909D01*
X156445423Y-84219577D01*
X156797758Y-84455000D01*
X156445423Y-84690423D01*
X156128260Y-85165091D01*
X156016887Y-85725000D01*
X156128260Y-86284909D01*
X156183143Y-86367047D01*
X147330988Y-95219203D01*
X147084577Y-94850423D01*
X146949800Y-94760368D01*
X146949800Y-93164596D01*
X147226534Y-92887862D01*
X147445000Y-92360439D01*
X147445000Y-91969077D01*
X149824092Y-89589986D01*
X149902557Y-89537557D01*
X149954986Y-89459092D01*
X149954988Y-89459090D01*
X150096305Y-89247594D01*
X150110272Y-89226691D01*
X150164800Y-88952559D01*
X150164800Y-88952554D01*
X150183210Y-88860000D01*
X150164800Y-88767446D01*
X150164800Y-73397745D01*
X169391861Y-73397745D01*
X169465995Y-73643864D01*
X170003223Y-73836965D01*
X170573454Y-73809778D01*
X170974005Y-73643864D01*
X171048139Y-73397745D01*
X170220000Y-72569605D01*
X169391861Y-73397745D01*
X150164800Y-73397745D01*
X150164800Y-72173223D01*
X168773035Y-72173223D01*
X168800222Y-72743454D01*
X168966136Y-73144005D01*
X169212255Y-73218139D01*
X170040395Y-72390000D01*
X169212255Y-71561861D01*
X168966136Y-71635995D01*
X168773035Y-72173223D01*
X150164800Y-72173223D01*
X150164800Y-71847554D01*
X150183210Y-71755000D01*
X150164800Y-71662446D01*
X150164800Y-71662441D01*
X150110272Y-71388309D01*
X150106227Y-71382255D01*
X169391861Y-71382255D01*
X170220000Y-72210395D01*
X171048139Y-71382255D01*
X170974005Y-71136136D01*
X170436777Y-70943035D01*
X169866546Y-70970222D01*
X169465995Y-71136136D01*
X169391861Y-71382255D01*
X150106227Y-71382255D01*
X150023269Y-71258100D01*
X149954988Y-71155910D01*
X149954986Y-71155908D01*
X149902557Y-71077443D01*
X149824092Y-71025015D01*
X149319987Y-70520910D01*
X149267557Y-70442443D01*
X148956691Y-70234728D01*
X148682559Y-70180200D01*
X148682554Y-70180200D01*
X148590000Y-70161790D01*
X148497446Y-70180200D01*
X147147905Y-70180200D01*
X147084577Y-70085423D01*
X146949800Y-69995368D01*
X146949800Y-69034596D01*
X147226534Y-68757862D01*
X147445000Y-68230439D01*
X147445000Y-67839077D01*
X148939278Y-66344800D01*
X166476742Y-66344800D01*
X171606448Y-71474156D01*
X171606448Y-71474156D01*
G37*
X171606448Y-71474156D02*
X171503466Y-71577138D01*
X171476475Y-71642299D01*
X171473864Y-71635995D01*
X171227745Y-71561861D01*
X170399605Y-72390000D01*
X171227745Y-73218139D01*
X171473864Y-73144005D01*
X171476290Y-73137254D01*
X171503466Y-73202862D01*
X171780200Y-73479596D01*
X171780201Y-74467095D01*
X171685423Y-74530423D01*
X171368260Y-75005091D01*
X171256887Y-75565000D01*
X171368260Y-76124909D01*
X171685423Y-76599577D01*
X172037758Y-76835000D01*
X171685423Y-77070423D01*
X171368260Y-77545091D01*
X171256887Y-78105000D01*
X171368260Y-78664909D01*
X171420171Y-78742600D01*
X159823440Y-78742600D01*
X159750899Y-78728171D01*
X159678359Y-78742600D01*
X159678356Y-78742600D01*
X159463493Y-78785339D01*
X159281341Y-78907049D01*
X159281339Y-78907051D01*
X159219842Y-78948142D01*
X159178750Y-79009640D01*
X158539968Y-79648423D01*
X158514577Y-79610423D01*
X158162242Y-79375000D01*
X158514577Y-79139577D01*
X158831740Y-78664909D01*
X158943113Y-78105000D01*
X158831740Y-77545091D01*
X158514577Y-77070423D01*
X158393894Y-76989785D01*
X158527765Y-76963157D01*
X158737809Y-76822809D01*
X158878157Y-76612765D01*
X158927440Y-76365000D01*
X158927440Y-74765000D01*
X158878157Y-74517235D01*
X158737809Y-74307191D01*
X158527765Y-74166843D01*
X158280000Y-74117560D01*
X156680000Y-74117560D01*
X156432235Y-74166843D01*
X156222191Y-74307191D01*
X156081843Y-74517235D01*
X156032560Y-74765000D01*
X156032560Y-76365000D01*
X156081843Y-76612765D01*
X156222191Y-76822809D01*
X156432235Y-76963157D01*
X156566106Y-76989785D01*
X156445423Y-77070423D01*
X156128260Y-77545091D01*
X156016887Y-78105000D01*
X156128260Y-78664909D01*
X156445423Y-79139577D01*
X156797758Y-79375000D01*
X156445423Y-79610423D01*
X156128260Y-80085091D01*
X156016887Y-80645000D01*
X156128260Y-81204909D01*
X156445423Y-81679577D01*
X156797758Y-81915000D01*
X156445423Y-82150423D01*
X156128260Y-82625091D01*
X156016887Y-83185000D01*
X156128260Y-83744909D01*
X156445423Y-84219577D01*
X156797758Y-84455000D01*
X156445423Y-84690423D01*
X156128260Y-85165091D01*
X156016887Y-85725000D01*
X156128260Y-86284909D01*
X156183143Y-86367047D01*
X147330988Y-95219203D01*
X147084577Y-94850423D01*
X146949800Y-94760368D01*
X146949800Y-93164596D01*
X147226534Y-92887862D01*
X147445000Y-92360439D01*
X147445000Y-91969077D01*
X149824092Y-89589986D01*
X149902557Y-89537557D01*
X149954986Y-89459092D01*
X149954988Y-89459090D01*
X150096305Y-89247594D01*
X150110272Y-89226691D01*
X150164800Y-88952559D01*
X150164800Y-88952554D01*
X150183210Y-88860000D01*
X150164800Y-88767446D01*
X150164800Y-73397745D01*
X169391861Y-73397745D01*
X169465995Y-73643864D01*
X170003223Y-73836965D01*
X170573454Y-73809778D01*
X170974005Y-73643864D01*
X171048139Y-73397745D01*
X170220000Y-72569605D01*
X169391861Y-73397745D01*
X150164800Y-73397745D01*
X150164800Y-72173223D01*
X168773035Y-72173223D01*
X168800222Y-72743454D01*
X168966136Y-73144005D01*
X169212255Y-73218139D01*
X170040395Y-72390000D01*
X169212255Y-71561861D01*
X168966136Y-71635995D01*
X168773035Y-72173223D01*
X150164800Y-72173223D01*
X150164800Y-71847554D01*
X150183210Y-71755000D01*
X150164800Y-71662446D01*
X150164800Y-71662441D01*
X150110272Y-71388309D01*
X150106227Y-71382255D01*
X169391861Y-71382255D01*
X170220000Y-72210395D01*
X171048139Y-71382255D01*
X170974005Y-71136136D01*
X170436777Y-70943035D01*
X169866546Y-70970222D01*
X169465995Y-71136136D01*
X169391861Y-71382255D01*
X150106227Y-71382255D01*
X150023269Y-71258100D01*
X149954988Y-71155910D01*
X149954986Y-71155908D01*
X149902557Y-71077443D01*
X149824092Y-71025015D01*
X149319987Y-70520910D01*
X149267557Y-70442443D01*
X148956691Y-70234728D01*
X148682559Y-70180200D01*
X148682554Y-70180200D01*
X148590000Y-70161790D01*
X148497446Y-70180200D01*
X147147905Y-70180200D01*
X147084577Y-70085423D01*
X146949800Y-69995368D01*
X146949800Y-69034596D01*
X147226534Y-68757862D01*
X147445000Y-68230439D01*
X147445000Y-67839077D01*
X148939278Y-66344800D01*
X166476742Y-66344800D01*
X171606448Y-71474156D01*
G36*
X138557000Y-86233000D02*
X138577000Y-86233000D01*
X138577000Y-86487000D01*
X138557000Y-86487000D01*
X138557000Y-86507000D01*
X138303000Y-86507000D01*
X138303000Y-86487000D01*
X138283000Y-86487000D01*
X138283000Y-86233000D01*
X138303000Y-86233000D01*
X138303000Y-86213000D01*
X138557000Y-86213000D01*
X138557000Y-86233000D01*
X138557000Y-86233000D01*
G37*
X138557000Y-86233000D02*
X138577000Y-86233000D01*
X138577000Y-86487000D01*
X138557000Y-86487000D01*
X138557000Y-86507000D01*
X138303000Y-86507000D01*
X138303000Y-86487000D01*
X138283000Y-86487000D01*
X138283000Y-86233000D01*
X138303000Y-86233000D01*
X138303000Y-86213000D01*
X138557000Y-86213000D01*
X138557000Y-86233000D01*
G36*
X174985900Y-75175685D02*
X174997056Y-75192138D01*
X175137111Y-75284352D01*
X175196715Y-75327186D01*
X175214341Y-75335201D01*
X175309324Y-75397739D01*
X175382925Y-75411861D01*
X175451147Y-75442883D01*
X175564807Y-75446758D01*
X175583820Y-75450406D01*
X175657206Y-75449908D01*
X175824806Y-75455622D01*
X175843421Y-75448645D01*
X194570130Y-75321584D01*
X195745944Y-76035000D01*
X195254561Y-76035000D01*
X194727138Y-76253466D01*
X194323466Y-76657138D01*
X194296475Y-76722299D01*
X194293864Y-76715995D01*
X194047745Y-76641861D01*
X193219605Y-77470000D01*
X194047745Y-78298139D01*
X194293864Y-78224005D01*
X194296290Y-78217254D01*
X194323466Y-78282862D01*
X194600200Y-78559596D01*
X194600201Y-79573822D01*
X194545423Y-79610423D01*
X194228260Y-80085091D01*
X194116887Y-80645000D01*
X194228260Y-81204909D01*
X194545423Y-81679577D01*
X194600200Y-81716178D01*
X194600201Y-82113822D01*
X194545423Y-82150423D01*
X194228260Y-82625091D01*
X194116887Y-83185000D01*
X194228260Y-83744909D01*
X194267409Y-83803500D01*
X185434009Y-83803500D01*
X182932050Y-81301541D01*
X182890958Y-81240042D01*
X182647307Y-81077239D01*
X182432444Y-81034500D01*
X182432440Y-81034500D01*
X182359900Y-81020071D01*
X182287360Y-81034500D01*
X181787440Y-81034500D01*
X181787440Y-79845000D01*
X181738157Y-79597235D01*
X181597809Y-79387191D01*
X181387765Y-79246843D01*
X181140000Y-79197560D01*
X179540000Y-79197560D01*
X179292235Y-79246843D01*
X179082191Y-79387191D01*
X179056800Y-79425191D01*
X178641251Y-79009642D01*
X178600158Y-78948142D01*
X178356507Y-78785339D01*
X178141644Y-78742600D01*
X178141640Y-78742600D01*
X178069100Y-78728171D01*
X177996560Y-78742600D01*
X174019829Y-78742600D01*
X174071740Y-78664909D01*
X174108969Y-78477745D01*
X192211861Y-78477745D01*
X192285995Y-78723864D01*
X192823223Y-78916965D01*
X193393454Y-78889778D01*
X193794005Y-78723864D01*
X193868139Y-78477745D01*
X193040000Y-77649605D01*
X192211861Y-78477745D01*
X174108969Y-78477745D01*
X174183113Y-78105000D01*
X174071740Y-77545091D01*
X173876721Y-77253223D01*
X191593035Y-77253223D01*
X191620222Y-77823454D01*
X191786136Y-78224005D01*
X192032255Y-78298139D01*
X192860395Y-77470000D01*
X192032255Y-76641861D01*
X191786136Y-76715995D01*
X191593035Y-77253223D01*
X173876721Y-77253223D01*
X173754577Y-77070423D01*
X173402242Y-76835000D01*
X173754577Y-76599577D01*
X173846332Y-76462255D01*
X192211861Y-76462255D01*
X193040000Y-77290395D01*
X193868139Y-76462255D01*
X193794005Y-76216136D01*
X193256777Y-76023035D01*
X192686546Y-76050222D01*
X192285995Y-76216136D01*
X192211861Y-76462255D01*
X173846332Y-76462255D01*
X174071740Y-76124909D01*
X174183113Y-75565000D01*
X174071740Y-75005091D01*
X173754577Y-74530423D01*
X173659800Y-74467095D01*
X173659800Y-74222690D01*
X174985900Y-75175685D01*
X174985900Y-75175685D01*
G37*
X174985900Y-75175685D02*
X174997056Y-75192138D01*
X175137111Y-75284352D01*
X175196715Y-75327186D01*
X175214341Y-75335201D01*
X175309324Y-75397739D01*
X175382925Y-75411861D01*
X175451147Y-75442883D01*
X175564807Y-75446758D01*
X175583820Y-75450406D01*
X175657206Y-75449908D01*
X175824806Y-75455622D01*
X175843421Y-75448645D01*
X194570130Y-75321584D01*
X195745944Y-76035000D01*
X195254561Y-76035000D01*
X194727138Y-76253466D01*
X194323466Y-76657138D01*
X194296475Y-76722299D01*
X194293864Y-76715995D01*
X194047745Y-76641861D01*
X193219605Y-77470000D01*
X194047745Y-78298139D01*
X194293864Y-78224005D01*
X194296290Y-78217254D01*
X194323466Y-78282862D01*
X194600200Y-78559596D01*
X194600201Y-79573822D01*
X194545423Y-79610423D01*
X194228260Y-80085091D01*
X194116887Y-80645000D01*
X194228260Y-81204909D01*
X194545423Y-81679577D01*
X194600200Y-81716178D01*
X194600201Y-82113822D01*
X194545423Y-82150423D01*
X194228260Y-82625091D01*
X194116887Y-83185000D01*
X194228260Y-83744909D01*
X194267409Y-83803500D01*
X185434009Y-83803500D01*
X182932050Y-81301541D01*
X182890958Y-81240042D01*
X182647307Y-81077239D01*
X182432444Y-81034500D01*
X182432440Y-81034500D01*
X182359900Y-81020071D01*
X182287360Y-81034500D01*
X181787440Y-81034500D01*
X181787440Y-79845000D01*
X181738157Y-79597235D01*
X181597809Y-79387191D01*
X181387765Y-79246843D01*
X181140000Y-79197560D01*
X179540000Y-79197560D01*
X179292235Y-79246843D01*
X179082191Y-79387191D01*
X179056800Y-79425191D01*
X178641251Y-79009642D01*
X178600158Y-78948142D01*
X178356507Y-78785339D01*
X178141644Y-78742600D01*
X178141640Y-78742600D01*
X178069100Y-78728171D01*
X177996560Y-78742600D01*
X174019829Y-78742600D01*
X174071740Y-78664909D01*
X174108969Y-78477745D01*
X192211861Y-78477745D01*
X192285995Y-78723864D01*
X192823223Y-78916965D01*
X193393454Y-78889778D01*
X193794005Y-78723864D01*
X193868139Y-78477745D01*
X193040000Y-77649605D01*
X192211861Y-78477745D01*
X174108969Y-78477745D01*
X174183113Y-78105000D01*
X174071740Y-77545091D01*
X173876721Y-77253223D01*
X191593035Y-77253223D01*
X191620222Y-77823454D01*
X191786136Y-78224005D01*
X192032255Y-78298139D01*
X192860395Y-77470000D01*
X192032255Y-76641861D01*
X191786136Y-76715995D01*
X191593035Y-77253223D01*
X173876721Y-77253223D01*
X173754577Y-77070423D01*
X173402242Y-76835000D01*
X173754577Y-76599577D01*
X173846332Y-76462255D01*
X192211861Y-76462255D01*
X193040000Y-77290395D01*
X193868139Y-76462255D01*
X193794005Y-76216136D01*
X193256777Y-76023035D01*
X192686546Y-76050222D01*
X192285995Y-76216136D01*
X192211861Y-76462255D01*
X173846332Y-76462255D01*
X174071740Y-76124909D01*
X174183113Y-75565000D01*
X174071740Y-75005091D01*
X173754577Y-74530423D01*
X173659800Y-74467095D01*
X173659800Y-74222690D01*
X174985900Y-75175685D01*
G04 #@! TD*
M02*
