M48
;DRILL file {KiCad (5.0.0-3-g5ebb6b6)} date 2019 September 07, Saturday 09:18:50
;FORMAT={-:-/ absolute / metric / decimal}
FMAT,2
METRIC,TZ
T1C0.400
T2C0.800
T3C0.900
T4C1.000
T5C1.001
T6C1.016
T7C3.200
%
G90
G05
M71
T1
X122.263Y-97.715
X125.716Y-95.038
X130.631Y-100.081
X149.641Y-112.687
X154.018Y-121.84
X154.245Y-103.464
X154.83Y-102.235
X173.703Y-106.078
T2
X125.158Y-73.088
X125.158Y-75.629
X125.158Y-78.168
X125.158Y-80.709
X125.158Y-83.248
X125.158Y-85.788
X125.158Y-88.328
X132.778Y-73.088
X132.778Y-75.629
X132.778Y-78.168
X132.778Y-80.709
X132.778Y-83.248
X132.778Y-85.788
X132.778Y-88.328
X130.596Y-69.278
X133.096Y-69.278
X145.328Y-93.281
X147.828Y-93.281
X114.89Y-72.
X117.39Y-72.
X141.605Y-120.015
X151.765Y-120.015
X124.904Y-96.837
X124.904Y-99.377
X124.904Y-101.917
X124.904Y-104.457
X124.904Y-106.997
X124.904Y-109.537
X124.904Y-112.078
X132.524Y-96.837
X132.524Y-99.377
X132.524Y-101.917
X132.524Y-104.457
X132.524Y-106.997
X132.524Y-109.537
X132.524Y-112.078
X109.23Y-75.41
X109.23Y-77.95
X109.23Y-80.49
X109.23Y-83.03
X109.23Y-85.57
X109.23Y-88.11
X109.23Y-90.65
X109.23Y-93.19
X116.85Y-75.41
X116.85Y-77.95
X116.85Y-80.49
X116.85Y-83.03
X116.85Y-85.57
X116.85Y-88.11
X116.85Y-90.65
X116.85Y-93.19
X170.22Y-71.12
X172.72Y-71.12
X129.921Y-118.11
X129.921Y-120.61
X109.22Y-113.284
X119.38Y-113.284
X157.48Y-74.295
X157.48Y-76.835
X157.48Y-79.375
X157.48Y-81.915
X157.48Y-84.455
X157.48Y-86.995
X157.48Y-89.535
X157.48Y-92.075
X157.48Y-94.615
X157.48Y-97.155
X157.48Y-99.695
X157.48Y-102.235
X157.48Y-104.775
X157.48Y-107.315
X157.48Y-109.855
X157.48Y-112.395
X172.72Y-74.295
X172.72Y-76.835
X172.72Y-79.375
X172.72Y-81.915
X172.72Y-84.455
X172.72Y-86.995
X172.72Y-89.535
X172.72Y-92.075
X172.72Y-94.615
X172.72Y-97.155
X172.72Y-99.695
X172.72Y-102.235
X172.72Y-104.775
X172.72Y-107.315
X172.72Y-109.855
X172.72Y-112.395
X139.89Y-73.025
X139.89Y-75.565
X139.89Y-78.105
X139.89Y-80.645
X139.89Y-83.185
X139.89Y-85.725
X139.89Y-88.265
X147.51Y-73.025
X147.51Y-75.565
X147.51Y-78.105
X147.51Y-80.645
X147.51Y-83.185
X147.51Y-85.725
X147.51Y-88.265
X193.04Y-76.2
X195.54Y-76.2
X130.532Y-93.408
X133.032Y-93.408
X109.728Y-128.524
X119.888Y-128.524
X185.42Y-126.365
X187.92Y-126.365
X139.764Y-96.71
X139.764Y-99.251
X139.764Y-101.79
X139.764Y-104.331
X139.764Y-106.87
X139.764Y-109.41
X139.764Y-111.95
X147.384Y-96.71
X147.384Y-99.251
X147.384Y-101.79
X147.384Y-104.331
X147.384Y-106.87
X147.384Y-109.41
X147.384Y-111.95
X155.575Y-120.015
X165.735Y-120.015
X180.34Y-79.375
X180.34Y-81.915
X180.34Y-84.455
X180.34Y-86.995
X180.34Y-89.535
X180.34Y-92.075
X180.34Y-94.615
X180.34Y-97.155
X180.34Y-99.695
X180.34Y-102.235
X180.34Y-104.775
X180.34Y-107.315
X180.34Y-109.855
X180.34Y-112.395
X195.58Y-79.375
X195.58Y-81.915
X195.58Y-84.455
X195.58Y-86.995
X195.58Y-89.535
X195.58Y-92.075
X195.58Y-94.615
X195.58Y-97.155
X195.58Y-99.695
X195.58Y-102.235
X195.58Y-104.775
X195.58Y-107.315
X195.58Y-109.855
X195.58Y-112.395
X132.654Y-119.71
X135.194Y-119.71
X137.734Y-119.71
X145.42Y-69.49
X147.92Y-69.49
X109.728Y-125.476
X119.888Y-125.476
T3
X125.87Y-118.032
X125.87Y-120.572
T4
X110.327Y-107.98
X112.867Y-107.98
X115.407Y-107.98
X109.284Y-99.695
X109.284Y-102.235
X111.824Y-99.695
X111.824Y-102.235
X114.364Y-99.695
X114.364Y-102.235
X116.904Y-99.695
X116.904Y-102.235
X105.4Y-85.
X105.4Y-87.54
X105.4Y-90.08
T5
X118.37Y-118.172
X118.37Y-120.712
X111.92Y-118.092
X111.92Y-120.632
T6
X127.Y-125.095
X127.Y-127.635
X129.54Y-125.095
X129.54Y-127.635
X132.08Y-125.095
X132.08Y-127.635
X134.62Y-125.095
X134.62Y-127.635
X137.16Y-125.095
X137.16Y-127.635
X139.7Y-125.095
X139.7Y-127.635
X142.24Y-125.095
X142.24Y-127.635
X144.78Y-125.095
X144.78Y-127.635
X147.32Y-125.095
X147.32Y-127.635
X149.86Y-125.095
X149.86Y-127.635
X152.4Y-125.095
X152.4Y-127.635
X154.94Y-125.095
X154.94Y-127.635
X157.48Y-125.095
X157.48Y-127.635
X160.02Y-125.095
X160.02Y-127.635
X162.56Y-125.095
X162.56Y-127.635
X165.1Y-125.095
X165.1Y-127.635
X167.64Y-125.095
X167.64Y-127.635
X170.18Y-125.095
X170.18Y-127.635
X172.72Y-125.095
X172.72Y-127.635
X175.26Y-125.095
X175.26Y-127.635
T7
X106.55Y-134.22
X195.64Y-68.15
X195.64Y-134.12
X106.65Y-68.2
T0
M30
