G04 #@! TF.GenerationSoftware,KiCad,Pcbnew,(5.1.4-0-10_14)*
G04 #@! TF.CreationDate,2021-03-24T21:25:25+09:00*
G04 #@! TF.ProjectId,Z80-1MSRAM,5a38302d-314d-4535-9241-4d2e6b696361,rev?*
G04 #@! TF.SameCoordinates,Original*
G04 #@! TF.FileFunction,Soldermask,Top*
G04 #@! TF.FilePolarity,Negative*
%FSLAX46Y46*%
G04 Gerber Fmt 4.6, Leading zero omitted, Abs format (unit mm)*
G04 Created by KiCad (PCBNEW (5.1.4-0-10_14)) date 2021-03-24 21:25:25*
%MOMM*%
%LPD*%
G04 APERTURE LIST*
%ADD10O,2.100000X2.100000*%
%ADD11R,2.100000X2.100000*%
%ADD12C,2.000000*%
%ADD13C,1.900000*%
%ADD14R,1.900000X1.900000*%
%ADD15O,2.000000X2.000000*%
%ADD16R,2.200000X2.200000*%
%ADD17C,2.200000*%
%ADD18R,2.000000X2.000000*%
%ADD19R,2.127200X2.127200*%
%ADD20O,2.127200X2.127200*%
%ADD21R,2.400000X2.400000*%
%ADD22C,2.400000*%
%ADD23C,3.600000*%
G04 APERTURE END LIST*
D10*
X185580000Y-66000000D03*
X183040000Y-66000000D03*
D11*
X180500000Y-66000000D03*
D10*
X185580000Y-62500000D03*
X183040000Y-62500000D03*
D11*
X180500000Y-62500000D03*
D10*
X169160000Y-62500000D03*
X166620000Y-62500000D03*
X164080000Y-62500000D03*
X161540000Y-62500000D03*
D11*
X159000000Y-62500000D03*
X105400000Y-81500000D03*
D10*
X105400000Y-84040000D03*
X105400000Y-86580000D03*
D12*
X129921000Y-114610000D03*
X129921000Y-117110000D03*
D11*
X110327000Y-104480000D03*
D10*
X112867000Y-104480000D03*
X115407000Y-104480000D03*
D13*
X135194000Y-116210000D03*
X137734000Y-116210000D03*
D14*
X132654000Y-116210000D03*
D15*
X109728000Y-121976000D03*
D12*
X119888000Y-121976000D03*
X119888000Y-125024000D03*
D15*
X109728000Y-125024000D03*
X151765000Y-116515000D03*
D12*
X141605000Y-116515000D03*
X155575000Y-116515000D03*
D15*
X165735000Y-116515000D03*
D11*
X116904000Y-96195000D03*
D10*
X116904000Y-98735000D03*
X114364000Y-96195000D03*
X114364000Y-98735000D03*
X111824000Y-96195000D03*
X111824000Y-98735000D03*
X109284000Y-96195000D03*
X109284000Y-98735000D03*
D16*
X125870000Y-114532000D03*
D17*
X125870000Y-117072000D03*
D18*
X139764000Y-93210500D03*
D15*
X147384000Y-108450500D03*
X139764000Y-95750500D03*
X147384000Y-105910500D03*
X139764000Y-98290500D03*
X147384000Y-103370500D03*
X139764000Y-100830500D03*
X147384000Y-100830500D03*
X139764000Y-103370500D03*
X147384000Y-98290500D03*
X139764000Y-105910500D03*
X147384000Y-95750500D03*
X139764000Y-108450500D03*
X147384000Y-93210500D03*
D12*
X109220000Y-109784000D03*
D15*
X119380000Y-109784000D03*
D18*
X180340000Y-75875000D03*
D15*
X195580000Y-108895000D03*
X180340000Y-78415000D03*
X195580000Y-106355000D03*
X180340000Y-80955000D03*
X195580000Y-103815000D03*
X180340000Y-83495000D03*
X195580000Y-101275000D03*
X180340000Y-86035000D03*
X195580000Y-98735000D03*
X180340000Y-88575000D03*
X195580000Y-96195000D03*
X180340000Y-91115000D03*
X195580000Y-93655000D03*
X180340000Y-93655000D03*
X195580000Y-91115000D03*
X180340000Y-96195000D03*
X195580000Y-88575000D03*
X180340000Y-98735000D03*
X195580000Y-86035000D03*
X180340000Y-101275000D03*
X195580000Y-83495000D03*
X180340000Y-103815000D03*
X195580000Y-80955000D03*
X180340000Y-106355000D03*
X195580000Y-78415000D03*
X180340000Y-108895000D03*
X195580000Y-75875000D03*
D19*
X175260000Y-121595000D03*
D20*
X175260000Y-124135000D03*
X172720000Y-121595000D03*
X172720000Y-124135000D03*
X170180000Y-121595000D03*
X170180000Y-124135000D03*
X167640000Y-121595000D03*
X167640000Y-124135000D03*
X165100000Y-121595000D03*
X165100000Y-124135000D03*
X162560000Y-121595000D03*
X162560000Y-124135000D03*
X160020000Y-121595000D03*
X160020000Y-124135000D03*
X157480000Y-121595000D03*
X157480000Y-124135000D03*
X154940000Y-121595000D03*
X154940000Y-124135000D03*
X152400000Y-121595000D03*
X152400000Y-124135000D03*
X149860000Y-121595000D03*
X149860000Y-124135000D03*
X147320000Y-121595000D03*
X147320000Y-124135000D03*
X144780000Y-121595000D03*
X144780000Y-124135000D03*
X142240000Y-121595000D03*
X142240000Y-124135000D03*
X139700000Y-121595000D03*
X139700000Y-124135000D03*
X137160000Y-121595000D03*
X137160000Y-124135000D03*
X134620000Y-121595000D03*
X134620000Y-124135000D03*
X132080000Y-121595000D03*
X132080000Y-124135000D03*
X129540000Y-121595000D03*
X129540000Y-124135000D03*
X127000000Y-121595000D03*
X127000000Y-124135000D03*
D21*
X111920000Y-114592000D03*
D22*
X111920000Y-117132000D03*
D21*
X118370000Y-114672000D03*
D22*
X118370000Y-117212000D03*
D18*
X139890000Y-69525000D03*
D15*
X147510000Y-84765000D03*
X139890000Y-72065000D03*
X147510000Y-82225000D03*
X139890000Y-74605000D03*
X147510000Y-79685000D03*
X139890000Y-77145000D03*
X147510000Y-77145000D03*
X139890000Y-79685000D03*
X147510000Y-74605000D03*
X139890000Y-82225000D03*
X147510000Y-72065000D03*
X139890000Y-84765000D03*
X147510000Y-69525000D03*
D18*
X109230000Y-71910000D03*
D15*
X116850000Y-89690000D03*
X109230000Y-74450000D03*
X116850000Y-87150000D03*
X109230000Y-76990000D03*
X116850000Y-84610000D03*
X109230000Y-79530000D03*
X116850000Y-82070000D03*
X109230000Y-82070000D03*
X116850000Y-79530000D03*
X109230000Y-84610000D03*
X116850000Y-76990000D03*
X109230000Y-87150000D03*
X116850000Y-74450000D03*
X109230000Y-89690000D03*
X116850000Y-71910000D03*
D18*
X125158000Y-69588500D03*
D15*
X132778000Y-84828500D03*
X125158000Y-72128500D03*
X132778000Y-82288500D03*
X125158000Y-74668500D03*
X132778000Y-79748500D03*
X125158000Y-77208500D03*
X132778000Y-77208500D03*
X125158000Y-79748500D03*
X132778000Y-74668500D03*
X125158000Y-82288500D03*
X132778000Y-72128500D03*
X125158000Y-84828500D03*
X132778000Y-69588500D03*
D18*
X124904000Y-93337500D03*
D15*
X132524000Y-108577500D03*
X124904000Y-95877500D03*
X132524000Y-106037500D03*
X124904000Y-98417500D03*
X132524000Y-103497500D03*
X124904000Y-100957500D03*
X132524000Y-100957500D03*
X124904000Y-103497500D03*
X132524000Y-98417500D03*
X124904000Y-106037500D03*
X132524000Y-95877500D03*
X124904000Y-108577500D03*
X132524000Y-93337500D03*
D18*
X157480000Y-70795000D03*
D15*
X172720000Y-108895000D03*
X157480000Y-73335000D03*
X172720000Y-106355000D03*
X157480000Y-75875000D03*
X172720000Y-103815000D03*
X157480000Y-78415000D03*
X172720000Y-101275000D03*
X157480000Y-80955000D03*
X172720000Y-98735000D03*
X157480000Y-83495000D03*
X172720000Y-96195000D03*
X157480000Y-86035000D03*
X172720000Y-93655000D03*
X157480000Y-88575000D03*
X172720000Y-91115000D03*
X157480000Y-91115000D03*
X172720000Y-88575000D03*
X157480000Y-93655000D03*
X172720000Y-86035000D03*
X157480000Y-96195000D03*
X172720000Y-83495000D03*
X157480000Y-98735000D03*
X172720000Y-80955000D03*
X157480000Y-101275000D03*
X172720000Y-78415000D03*
X157480000Y-103815000D03*
X172720000Y-75875000D03*
X157480000Y-106355000D03*
X172720000Y-73335000D03*
X157480000Y-108895000D03*
X172720000Y-70795000D03*
D12*
X147920000Y-65990000D03*
X145420000Y-65990000D03*
X147828000Y-89781500D03*
X145328000Y-89781500D03*
X117390000Y-68500000D03*
X114890000Y-68500000D03*
X133096000Y-65778500D03*
X130596000Y-65778500D03*
X133032000Y-89908500D03*
X130532000Y-89908500D03*
X172720000Y-67620000D03*
X170220000Y-67620000D03*
X195540000Y-72700000D03*
X193040000Y-72700000D03*
D18*
X185420000Y-122865000D03*
D12*
X187920000Y-122865000D03*
D23*
X105500000Y-64500000D03*
X194500000Y-64500000D03*
X105510000Y-130490000D03*
X194500000Y-130490000D03*
M02*
