G04 #@! TF.GenerationSoftware,KiCad,Pcbnew,(5.1.4-0-10_14)*
G04 #@! TF.CreationDate,2021-03-25T21:32:33+09:00*
G04 #@! TF.ProjectId,Z80-1MSRAM,5a38302d-314d-4535-9241-4d2e6b696361,rev?*
G04 #@! TF.SameCoordinates,Original*
G04 #@! TF.FileFunction,Legend,Top*
G04 #@! TF.FilePolarity,Positive*
%FSLAX46Y46*%
G04 Gerber Fmt 4.6, Leading zero omitted, Abs format (unit mm)*
G04 Created by KiCad (PCBNEW (5.1.4-0-10_14)) date 2021-03-25 21:32:33*
%MOMM*%
%LPD*%
G04 APERTURE LIST*
%ADD10C,0.200000*%
%ADD11C,0.150000*%
%ADD12C,0.300000*%
%ADD13C,0.120000*%
%ADD14O,2.100000X2.100000*%
%ADD15R,2.100000X2.100000*%
%ADD16C,2.000000*%
%ADD17C,1.900000*%
%ADD18R,1.900000X1.900000*%
%ADD19O,2.000000X2.000000*%
%ADD20R,2.200000X2.200000*%
%ADD21C,2.200000*%
%ADD22R,2.000000X2.000000*%
%ADD23R,2.127200X2.127200*%
%ADD24O,2.127200X2.127200*%
%ADD25R,2.400000X2.400000*%
%ADD26C,2.400000*%
%ADD27C,3.600000*%
G04 APERTURE END LIST*
D10*
X156470476Y-79132380D02*
X156470476Y-78132380D01*
X157041904Y-79132380D02*
X156613333Y-78560952D01*
X157041904Y-78132380D02*
X156470476Y-78703809D01*
X157470476Y-78132380D02*
X157470476Y-78941904D01*
X157518095Y-79037142D01*
X157565714Y-79084761D01*
X157660952Y-79132380D01*
X157851428Y-79132380D01*
X157946666Y-79084761D01*
X157994285Y-79037142D01*
X158041904Y-78941904D01*
X158041904Y-78132380D01*
X158518095Y-79132380D02*
X158518095Y-78132380D01*
X159089523Y-79132380D01*
X159089523Y-78132380D01*
X159565714Y-79132380D02*
X159565714Y-78132380D01*
X160041904Y-78751428D02*
X160803809Y-78751428D01*
X161280000Y-79132380D02*
X161280000Y-78132380D01*
X161851428Y-79132380D01*
X161851428Y-78132380D01*
X162327619Y-78608571D02*
X162660952Y-78608571D01*
X162803809Y-79132380D02*
X162327619Y-79132380D01*
X162327619Y-78132380D01*
X162803809Y-78132380D01*
X163089523Y-78132380D02*
X163660952Y-78132380D01*
X163375238Y-79132380D02*
X163375238Y-78132380D01*
X164708571Y-78227619D02*
X164756190Y-78180000D01*
X164851428Y-78132380D01*
X165089523Y-78132380D01*
X165184761Y-78180000D01*
X165232380Y-78227619D01*
X165280000Y-78322857D01*
X165280000Y-78418095D01*
X165232380Y-78560952D01*
X164660952Y-79132380D01*
X165280000Y-79132380D01*
X165899047Y-78132380D02*
X165994285Y-78132380D01*
X166089523Y-78180000D01*
X166137142Y-78227619D01*
X166184761Y-78322857D01*
X166232380Y-78513333D01*
X166232380Y-78751428D01*
X166184761Y-78941904D01*
X166137142Y-79037142D01*
X166089523Y-79084761D01*
X165994285Y-79132380D01*
X165899047Y-79132380D01*
X165803809Y-79084761D01*
X165756190Y-79037142D01*
X165708571Y-78941904D01*
X165660952Y-78751428D01*
X165660952Y-78513333D01*
X165708571Y-78322857D01*
X165756190Y-78227619D01*
X165803809Y-78180000D01*
X165899047Y-78132380D01*
X166613333Y-78227619D02*
X166660952Y-78180000D01*
X166756190Y-78132380D01*
X166994285Y-78132380D01*
X167089523Y-78180000D01*
X167137142Y-78227619D01*
X167184761Y-78322857D01*
X167184761Y-78418095D01*
X167137142Y-78560952D01*
X166565714Y-79132380D01*
X167184761Y-79132380D01*
X168137142Y-79132380D02*
X167565714Y-79132380D01*
X167851428Y-79132380D02*
X167851428Y-78132380D01*
X167756190Y-78275238D01*
X167660952Y-78370476D01*
X167565714Y-78418095D01*
X193047619Y-91571428D02*
X194047619Y-91571428D01*
X193333333Y-91904761D01*
X194047619Y-92238095D01*
X193047619Y-92238095D01*
X193095238Y-92666666D02*
X193047619Y-92809523D01*
X193047619Y-93047619D01*
X193095238Y-93142857D01*
X193142857Y-93190476D01*
X193238095Y-93238095D01*
X193333333Y-93238095D01*
X193428571Y-93190476D01*
X193476190Y-93142857D01*
X193523809Y-93047619D01*
X193571428Y-92857142D01*
X193619047Y-92761904D01*
X193666666Y-92714285D01*
X193761904Y-92666666D01*
X193857142Y-92666666D01*
X193952380Y-92714285D01*
X194000000Y-92761904D01*
X194047619Y-92857142D01*
X194047619Y-93095238D01*
X194000000Y-93238095D01*
X194047619Y-93571428D02*
X193047619Y-94238095D01*
X194047619Y-94238095D02*
X193047619Y-93571428D01*
X193047619Y-95380952D02*
X194047619Y-95380952D01*
X193333333Y-95714285D01*
X194047619Y-96047619D01*
X193047619Y-96047619D01*
X193571428Y-96523809D02*
X193571428Y-96857142D01*
X193047619Y-97000000D02*
X193047619Y-96523809D01*
X194047619Y-96523809D01*
X194047619Y-97000000D01*
X193047619Y-97428571D02*
X194047619Y-97428571D01*
X193333333Y-97761904D01*
X194047619Y-98095238D01*
X193047619Y-98095238D01*
X193095238Y-99285714D02*
X193047619Y-99428571D01*
X193047619Y-99666666D01*
X193095238Y-99761904D01*
X193142857Y-99809523D01*
X193238095Y-99857142D01*
X193333333Y-99857142D01*
X193428571Y-99809523D01*
X193476190Y-99761904D01*
X193523809Y-99666666D01*
X193571428Y-99476190D01*
X193619047Y-99380952D01*
X193666666Y-99333333D01*
X193761904Y-99285714D01*
X193857142Y-99285714D01*
X193952380Y-99333333D01*
X194000000Y-99380952D01*
X194047619Y-99476190D01*
X194047619Y-99714285D01*
X194000000Y-99857142D01*
X193047619Y-100761904D02*
X193047619Y-100285714D01*
X194047619Y-100285714D01*
X194047619Y-101285714D02*
X194047619Y-101476190D01*
X194000000Y-101571428D01*
X193904761Y-101666666D01*
X193714285Y-101714285D01*
X193380952Y-101714285D01*
X193190476Y-101666666D01*
X193095238Y-101571428D01*
X193047619Y-101476190D01*
X193047619Y-101285714D01*
X193095238Y-101190476D01*
X193190476Y-101095238D01*
X193380952Y-101047619D01*
X193714285Y-101047619D01*
X193904761Y-101095238D01*
X194000000Y-101190476D01*
X194047619Y-101285714D01*
X194047619Y-102000000D02*
X194047619Y-102571428D01*
X193047619Y-102285714D02*
X194047619Y-102285714D01*
X189047619Y-76809523D02*
X190047619Y-76809523D01*
X189047619Y-77380952D02*
X189619047Y-76952380D01*
X190047619Y-77380952D02*
X189476190Y-76809523D01*
X190047619Y-77714285D02*
X190047619Y-78380952D01*
X189047619Y-77714285D01*
X189047619Y-78380952D01*
X189619047Y-78904761D02*
X189666666Y-78809523D01*
X189714285Y-78761904D01*
X189809523Y-78714285D01*
X189857142Y-78714285D01*
X189952380Y-78761904D01*
X190000000Y-78809523D01*
X190047619Y-78904761D01*
X190047619Y-79095238D01*
X190000000Y-79190476D01*
X189952380Y-79238095D01*
X189857142Y-79285714D01*
X189809523Y-79285714D01*
X189714285Y-79238095D01*
X189666666Y-79190476D01*
X189619047Y-79095238D01*
X189619047Y-78904761D01*
X189571428Y-78809523D01*
X189523809Y-78761904D01*
X189428571Y-78714285D01*
X189238095Y-78714285D01*
X189142857Y-78761904D01*
X189095238Y-78809523D01*
X189047619Y-78904761D01*
X189047619Y-79095238D01*
X189095238Y-79190476D01*
X189142857Y-79238095D01*
X189238095Y-79285714D01*
X189428571Y-79285714D01*
X189523809Y-79238095D01*
X189571428Y-79190476D01*
X189619047Y-79095238D01*
X190047619Y-79904761D02*
X190047619Y-80000000D01*
X190000000Y-80095238D01*
X189952380Y-80142857D01*
X189857142Y-80190476D01*
X189666666Y-80238095D01*
X189428571Y-80238095D01*
X189238095Y-80190476D01*
X189142857Y-80142857D01*
X189095238Y-80095238D01*
X189047619Y-80000000D01*
X189047619Y-79904761D01*
X189095238Y-79809523D01*
X189142857Y-79761904D01*
X189238095Y-79714285D01*
X189428571Y-79666666D01*
X189666666Y-79666666D01*
X189857142Y-79714285D01*
X189952380Y-79761904D01*
X190000000Y-79809523D01*
X190047619Y-79904761D01*
X189047619Y-72214285D02*
X190047619Y-72214285D01*
X189333333Y-72547619D01*
X190047619Y-72880952D01*
X189047619Y-72880952D01*
X189095238Y-73309523D02*
X189047619Y-73452380D01*
X189047619Y-73690476D01*
X189095238Y-73785714D01*
X189142857Y-73833333D01*
X189238095Y-73880952D01*
X189333333Y-73880952D01*
X189428571Y-73833333D01*
X189476190Y-73785714D01*
X189523809Y-73690476D01*
X189571428Y-73500000D01*
X189619047Y-73404761D01*
X189666666Y-73357142D01*
X189761904Y-73309523D01*
X189857142Y-73309523D01*
X189952380Y-73357142D01*
X190000000Y-73404761D01*
X190047619Y-73500000D01*
X190047619Y-73738095D01*
X190000000Y-73880952D01*
X190047619Y-74214285D02*
X189047619Y-74880952D01*
X190047619Y-74880952D02*
X189047619Y-74214285D01*
D11*
X102372380Y-89174285D02*
X102372380Y-88555238D01*
X102753333Y-88888571D01*
X102753333Y-88745714D01*
X102800952Y-88650476D01*
X102848571Y-88602857D01*
X102943809Y-88555238D01*
X103181904Y-88555238D01*
X103277142Y-88602857D01*
X103324761Y-88650476D01*
X103372380Y-88745714D01*
X103372380Y-89031428D01*
X103324761Y-89126666D01*
X103277142Y-89174285D01*
X102467619Y-88174285D02*
X102420000Y-88126666D01*
X102372380Y-88031428D01*
X102372380Y-87793333D01*
X102420000Y-87698095D01*
X102467619Y-87650476D01*
X102562857Y-87602857D01*
X102658095Y-87602857D01*
X102800952Y-87650476D01*
X103372380Y-88221904D01*
X103372380Y-87602857D01*
X103372380Y-87174285D02*
X102372380Y-87174285D01*
X102991428Y-87079047D02*
X103372380Y-86793333D01*
X102705714Y-86793333D02*
X103086666Y-87174285D01*
X103372380Y-93555238D02*
X103372380Y-94126666D01*
X103372380Y-93840952D02*
X102372380Y-93840952D01*
X102515238Y-93936190D01*
X102610476Y-94031428D01*
X102658095Y-94126666D01*
X102372380Y-92698095D02*
X102372380Y-92888571D01*
X102420000Y-92983809D01*
X102467619Y-93031428D01*
X102610476Y-93126666D01*
X102800952Y-93174285D01*
X103181904Y-93174285D01*
X103277142Y-93126666D01*
X103324761Y-93079047D01*
X103372380Y-92983809D01*
X103372380Y-92793333D01*
X103324761Y-92698095D01*
X103277142Y-92650476D01*
X103181904Y-92602857D01*
X102943809Y-92602857D01*
X102848571Y-92650476D01*
X102800952Y-92698095D01*
X102753333Y-92793333D01*
X102753333Y-92983809D01*
X102800952Y-93079047D01*
X102848571Y-93126666D01*
X102943809Y-93174285D01*
X103372380Y-92174285D02*
X102372380Y-92174285D01*
X102991428Y-92079047D02*
X103372380Y-91793333D01*
X102705714Y-91793333D02*
X103086666Y-92174285D01*
X110359571Y-111900952D02*
X110264333Y-111853333D01*
X110216714Y-111805714D01*
X110169095Y-111710476D01*
X110169095Y-111662857D01*
X110216714Y-111567619D01*
X110264333Y-111520000D01*
X110359571Y-111472380D01*
X110550047Y-111472380D01*
X110645285Y-111520000D01*
X110692904Y-111567619D01*
X110740523Y-111662857D01*
X110740523Y-111710476D01*
X110692904Y-111805714D01*
X110645285Y-111853333D01*
X110550047Y-111900952D01*
X110359571Y-111900952D01*
X110264333Y-111948571D01*
X110216714Y-111996190D01*
X110169095Y-112091428D01*
X110169095Y-112281904D01*
X110216714Y-112377142D01*
X110264333Y-112424761D01*
X110359571Y-112472380D01*
X110550047Y-112472380D01*
X110645285Y-112424761D01*
X110692904Y-112377142D01*
X110740523Y-112281904D01*
X110740523Y-112091428D01*
X110692904Y-111996190D01*
X110645285Y-111948571D01*
X110550047Y-111900952D01*
X111359571Y-111472380D02*
X111454809Y-111472380D01*
X111550047Y-111520000D01*
X111597666Y-111567619D01*
X111645285Y-111662857D01*
X111692904Y-111853333D01*
X111692904Y-112091428D01*
X111645285Y-112281904D01*
X111597666Y-112377142D01*
X111550047Y-112424761D01*
X111454809Y-112472380D01*
X111359571Y-112472380D01*
X111264333Y-112424761D01*
X111216714Y-112377142D01*
X111169095Y-112281904D01*
X111121476Y-112091428D01*
X111121476Y-111853333D01*
X111169095Y-111662857D01*
X111216714Y-111567619D01*
X111264333Y-111520000D01*
X111359571Y-111472380D01*
X116482870Y-103059900D02*
X116578108Y-103059900D01*
X116673346Y-103107520D01*
X116720965Y-103155139D01*
X116768584Y-103250377D01*
X116816203Y-103440853D01*
X116816203Y-103678948D01*
X116768584Y-103869424D01*
X116720965Y-103964662D01*
X116673346Y-104012281D01*
X116578108Y-104059900D01*
X116482870Y-104059900D01*
X116387632Y-104012281D01*
X116340013Y-103964662D01*
X116292394Y-103869424D01*
X116244775Y-103678948D01*
X116244775Y-103440853D01*
X116292394Y-103250377D01*
X116340013Y-103155139D01*
X116387632Y-103107520D01*
X116482870Y-103059900D01*
X117435251Y-103059900D02*
X117530489Y-103059900D01*
X117625727Y-103107520D01*
X117673346Y-103155139D01*
X117720965Y-103250377D01*
X117768584Y-103440853D01*
X117768584Y-103678948D01*
X117720965Y-103869424D01*
X117673346Y-103964662D01*
X117625727Y-104012281D01*
X117530489Y-104059900D01*
X117435251Y-104059900D01*
X117340013Y-104012281D01*
X117292394Y-103964662D01*
X117244775Y-103869424D01*
X117197156Y-103678948D01*
X117197156Y-103440853D01*
X117244775Y-103250377D01*
X117292394Y-103155139D01*
X117340013Y-103107520D01*
X117435251Y-103059900D01*
X115106190Y-111345380D02*
X115201428Y-111345380D01*
X115296666Y-111393000D01*
X115344285Y-111440619D01*
X115391904Y-111535857D01*
X115439523Y-111726333D01*
X115439523Y-111964428D01*
X115391904Y-112154904D01*
X115344285Y-112250142D01*
X115296666Y-112297761D01*
X115201428Y-112345380D01*
X115106190Y-112345380D01*
X115010952Y-112297761D01*
X114963333Y-112250142D01*
X114915714Y-112154904D01*
X114868095Y-111964428D01*
X114868095Y-111726333D01*
X114915714Y-111535857D01*
X114963333Y-111440619D01*
X115010952Y-111393000D01*
X115106190Y-111345380D01*
X116058571Y-111345380D02*
X116153809Y-111345380D01*
X116249047Y-111393000D01*
X116296666Y-111440619D01*
X116344285Y-111535857D01*
X116391904Y-111726333D01*
X116391904Y-111964428D01*
X116344285Y-112154904D01*
X116296666Y-112250142D01*
X116249047Y-112297761D01*
X116153809Y-112345380D01*
X116058571Y-112345380D01*
X115963333Y-112297761D01*
X115915714Y-112250142D01*
X115868095Y-112154904D01*
X115820476Y-111964428D01*
X115820476Y-111726333D01*
X115868095Y-111535857D01*
X115915714Y-111440619D01*
X115963333Y-111393000D01*
X116058571Y-111345380D01*
X106033571Y-115472142D02*
X106081190Y-115329285D01*
X106128809Y-115281666D01*
X106224047Y-115234047D01*
X106366904Y-115234047D01*
X106462142Y-115281666D01*
X106509761Y-115329285D01*
X106557380Y-115424523D01*
X106557380Y-115805476D01*
X105557380Y-115805476D01*
X105557380Y-115472142D01*
X105605000Y-115376904D01*
X105652619Y-115329285D01*
X105747857Y-115281666D01*
X105843095Y-115281666D01*
X105938333Y-115329285D01*
X105985952Y-115376904D01*
X106033571Y-115472142D01*
X106033571Y-115805476D01*
X106271666Y-114853095D02*
X106271666Y-114376904D01*
X106557380Y-114948333D02*
X105557380Y-114615000D01*
X106557380Y-114281666D01*
X106557380Y-113948333D02*
X105557380Y-113948333D01*
X106557380Y-113376904D01*
X105557380Y-113376904D01*
X106557380Y-112900714D02*
X105557380Y-112900714D01*
X106557380Y-112329285D02*
X105985952Y-112757857D01*
X105557380Y-112329285D02*
X106128809Y-112900714D01*
X106557380Y-111138809D02*
X105557380Y-111138809D01*
X105509761Y-109948333D02*
X106795476Y-110805476D01*
X105557380Y-109424523D02*
X105557380Y-109234047D01*
X105605000Y-109138809D01*
X105700238Y-109043571D01*
X105890714Y-108995952D01*
X106224047Y-108995952D01*
X106414523Y-109043571D01*
X106509761Y-109138809D01*
X106557380Y-109234047D01*
X106557380Y-109424523D01*
X106509761Y-109519761D01*
X106414523Y-109615000D01*
X106224047Y-109662619D01*
X105890714Y-109662619D01*
X105700238Y-109615000D01*
X105605000Y-109519761D01*
X105557380Y-109424523D01*
X106271666Y-107853095D02*
X106271666Y-107376904D01*
X106557380Y-107948333D02*
X105557380Y-107615000D01*
X106557380Y-107281666D01*
X106557380Y-106948333D02*
X105557380Y-106948333D01*
X105557380Y-106710238D01*
X105605000Y-106567380D01*
X105700238Y-106472142D01*
X105795476Y-106424523D01*
X105985952Y-106376904D01*
X106128809Y-106376904D01*
X106319285Y-106424523D01*
X106414523Y-106472142D01*
X106509761Y-106567380D01*
X106557380Y-106710238D01*
X106557380Y-106948333D01*
X106557380Y-105948333D02*
X105557380Y-105948333D01*
X105557380Y-105710238D01*
X105605000Y-105567380D01*
X105700238Y-105472142D01*
X105795476Y-105424523D01*
X105985952Y-105376904D01*
X106128809Y-105376904D01*
X106319285Y-105424523D01*
X106414523Y-105472142D01*
X106509761Y-105567380D01*
X106557380Y-105710238D01*
X106557380Y-105948333D01*
X106557380Y-104376904D02*
X106081190Y-104710238D01*
X106557380Y-104948333D02*
X105557380Y-104948333D01*
X105557380Y-104567380D01*
X105605000Y-104472142D01*
X105652619Y-104424523D01*
X105747857Y-104376904D01*
X105890714Y-104376904D01*
X105985952Y-104424523D01*
X106033571Y-104472142D01*
X106081190Y-104567380D01*
X106081190Y-104948333D01*
X174710809Y-78960571D02*
X174853666Y-79008190D01*
X174901285Y-79055809D01*
X174948904Y-79151047D01*
X174948904Y-79293904D01*
X174901285Y-79389142D01*
X174853666Y-79436761D01*
X174758428Y-79484380D01*
X174377476Y-79484380D01*
X174377476Y-78484380D01*
X174710809Y-78484380D01*
X174806047Y-78532000D01*
X174853666Y-78579619D01*
X174901285Y-78674857D01*
X174901285Y-78770095D01*
X174853666Y-78865333D01*
X174806047Y-78912952D01*
X174710809Y-78960571D01*
X174377476Y-78960571D01*
X175329857Y-79198666D02*
X175806047Y-79198666D01*
X175234619Y-79484380D02*
X175567952Y-78484380D01*
X175901285Y-79484380D01*
X176234619Y-79484380D02*
X176234619Y-78484380D01*
X176806047Y-79484380D01*
X176806047Y-78484380D01*
X177282238Y-79484380D02*
X177282238Y-78484380D01*
X177853666Y-79484380D02*
X177425095Y-78912952D01*
X177853666Y-78484380D02*
X177282238Y-79055809D01*
X179044142Y-79484380D02*
X179044142Y-78484380D01*
X179615571Y-79484380D01*
X179615571Y-78484380D01*
X180234619Y-79484380D02*
X180139380Y-79436761D01*
X180091761Y-79389142D01*
X180044142Y-79293904D01*
X180044142Y-79008190D01*
X180091761Y-78912952D01*
X180139380Y-78865333D01*
X180234619Y-78817714D01*
X180377476Y-78817714D01*
X180472714Y-78865333D01*
X180520333Y-78912952D01*
X180567952Y-79008190D01*
X180567952Y-79293904D01*
X180520333Y-79389142D01*
X180472714Y-79436761D01*
X180377476Y-79484380D01*
X180234619Y-79484380D01*
X180996523Y-79389142D02*
X181044142Y-79436761D01*
X180996523Y-79484380D01*
X180948904Y-79436761D01*
X180996523Y-79389142D01*
X180996523Y-79484380D01*
X108786005Y-103105620D02*
X108595529Y-103105620D01*
X108500291Y-103153240D01*
X108452672Y-103200859D01*
X108357434Y-103343716D01*
X108309815Y-103534192D01*
X108309815Y-103915144D01*
X108357434Y-104010382D01*
X108405053Y-104058001D01*
X108500291Y-104105620D01*
X108690767Y-104105620D01*
X108786005Y-104058001D01*
X108833624Y-104010382D01*
X108881243Y-103915144D01*
X108881243Y-103677049D01*
X108833624Y-103581811D01*
X108786005Y-103534192D01*
X108690767Y-103486573D01*
X108500291Y-103486573D01*
X108405053Y-103534192D01*
X108357434Y-103581811D01*
X108309815Y-103677049D01*
X109500291Y-103105620D02*
X109595529Y-103105620D01*
X109690767Y-103153240D01*
X109738386Y-103200859D01*
X109786005Y-103296097D01*
X109833624Y-103486573D01*
X109833624Y-103724668D01*
X109786005Y-103915144D01*
X109738386Y-104010382D01*
X109690767Y-104058001D01*
X109595529Y-104105620D01*
X109500291Y-104105620D01*
X109405053Y-104058001D01*
X109357434Y-104010382D01*
X109309815Y-103915144D01*
X109262196Y-103724668D01*
X109262196Y-103486573D01*
X109309815Y-103296097D01*
X109357434Y-103200859D01*
X109405053Y-103153240D01*
X109500291Y-103105620D01*
X111402205Y-103438954D02*
X111402205Y-104105620D01*
X111164110Y-103058001D02*
X110926015Y-103772287D01*
X111545062Y-103772287D01*
X112116491Y-103105620D02*
X112211729Y-103105620D01*
X112306967Y-103153240D01*
X112354586Y-103200859D01*
X112402205Y-103296097D01*
X112449824Y-103486573D01*
X112449824Y-103724668D01*
X112402205Y-103915144D01*
X112354586Y-104010382D01*
X112306967Y-104058001D01*
X112211729Y-104105620D01*
X112116491Y-104105620D01*
X112021253Y-104058001D01*
X111973634Y-104010382D01*
X111926015Y-103915144D01*
X111878396Y-103724668D01*
X111878396Y-103486573D01*
X111926015Y-103296097D01*
X111973634Y-103200859D01*
X112021253Y-103153240D01*
X112116491Y-103105620D01*
X113674295Y-103200859D02*
X113721914Y-103153240D01*
X113817152Y-103105620D01*
X114055247Y-103105620D01*
X114150485Y-103153240D01*
X114198104Y-103200859D01*
X114245723Y-103296097D01*
X114245723Y-103391335D01*
X114198104Y-103534192D01*
X113626676Y-104105620D01*
X114245723Y-104105620D01*
X114864771Y-103105620D02*
X114960009Y-103105620D01*
X115055247Y-103153240D01*
X115102866Y-103200859D01*
X115150485Y-103296097D01*
X115198104Y-103486573D01*
X115198104Y-103724668D01*
X115150485Y-103915144D01*
X115102866Y-104010382D01*
X115055247Y-104058001D01*
X114960009Y-104105620D01*
X114864771Y-104105620D01*
X114769533Y-104058001D01*
X114721914Y-104010382D01*
X114674295Y-103915144D01*
X114626676Y-103724668D01*
X114626676Y-103486573D01*
X114674295Y-103296097D01*
X114721914Y-103200859D01*
X114769533Y-103153240D01*
X114864771Y-103105620D01*
D12*
X142164928Y-108423928D02*
X142164928Y-109423928D01*
X140664928Y-108781071D01*
X141664928Y-110638214D02*
X140664928Y-110638214D01*
X142236357Y-110281071D02*
X141164928Y-109923928D01*
X141164928Y-110852500D01*
X140664928Y-111423928D02*
X142164928Y-111423928D01*
X141450642Y-111423928D02*
X141450642Y-112281071D01*
X140664928Y-112281071D02*
X142164928Y-112281071D01*
X140807785Y-113852500D02*
X140736357Y-113781071D01*
X140664928Y-113566785D01*
X140664928Y-113423928D01*
X140736357Y-113209642D01*
X140879214Y-113066785D01*
X141022071Y-112995357D01*
X141307785Y-112923928D01*
X141522071Y-112923928D01*
X141807785Y-112995357D01*
X141950642Y-113066785D01*
X142093500Y-113209642D01*
X142164928Y-113423928D01*
X142164928Y-113566785D01*
X142093500Y-113781071D01*
X142022071Y-113852500D01*
X142164928Y-114352500D02*
X142164928Y-115352500D01*
X140664928Y-114709642D01*
X141664928Y-116566785D02*
X140664928Y-116566785D01*
X142236357Y-116209642D02*
X141164928Y-115852500D01*
X141164928Y-116781071D01*
D11*
X185259523Y-71702380D02*
X185069047Y-71702380D01*
X184973809Y-71750000D01*
X184926190Y-71797619D01*
X184830952Y-71940476D01*
X184783333Y-72130952D01*
X184783333Y-72511904D01*
X184830952Y-72607142D01*
X184878571Y-72654761D01*
X184973809Y-72702380D01*
X185164285Y-72702380D01*
X185259523Y-72654761D01*
X185307142Y-72607142D01*
X185354761Y-72511904D01*
X185354761Y-72273809D01*
X185307142Y-72178571D01*
X185259523Y-72130952D01*
X185164285Y-72083333D01*
X184973809Y-72083333D01*
X184878571Y-72130952D01*
X184830952Y-72178571D01*
X184783333Y-72273809D01*
X186211904Y-72035714D02*
X186211904Y-72702380D01*
X185973809Y-71654761D02*
X185735714Y-72369047D01*
X186354761Y-72369047D01*
X186735714Y-72702380D02*
X186735714Y-71702380D01*
X186830952Y-72321428D02*
X187116666Y-72702380D01*
X187116666Y-72035714D02*
X186735714Y-72416666D01*
X187878571Y-72178571D02*
X188021428Y-72226190D01*
X188069047Y-72273809D01*
X188116666Y-72369047D01*
X188116666Y-72511904D01*
X188069047Y-72607142D01*
X188021428Y-72654761D01*
X187926190Y-72702380D01*
X187545238Y-72702380D01*
X187545238Y-71702380D01*
X187878571Y-71702380D01*
X187973809Y-71750000D01*
X188021428Y-71797619D01*
X188069047Y-71892857D01*
X188069047Y-71988095D01*
X188021428Y-72083333D01*
X187973809Y-72130952D01*
X187878571Y-72178571D01*
X187545238Y-72178571D01*
X184492380Y-73961904D02*
X183492380Y-73961904D01*
X184492380Y-73390476D02*
X183920952Y-73819047D01*
X183492380Y-73390476D02*
X184063809Y-73961904D01*
D12*
X122261428Y-69532857D02*
X121118571Y-70175714D01*
X121118571Y-68890000D01*
X122261428Y-69532857D01*
D11*
X179523809Y-71626380D02*
X179619047Y-71626380D01*
X179714285Y-71674000D01*
X179761904Y-71721619D01*
X179809523Y-71816857D01*
X179857142Y-72007333D01*
X179857142Y-72245428D01*
X179809523Y-72435904D01*
X179761904Y-72531142D01*
X179714285Y-72578761D01*
X179619047Y-72626380D01*
X179523809Y-72626380D01*
X179428571Y-72578761D01*
X179380952Y-72531142D01*
X179333333Y-72435904D01*
X179285714Y-72245428D01*
X179285714Y-72007333D01*
X179333333Y-71816857D01*
X179380952Y-71721619D01*
X179428571Y-71674000D01*
X179523809Y-71626380D01*
X180238095Y-71721619D02*
X180285714Y-71674000D01*
X180380952Y-71626380D01*
X180619047Y-71626380D01*
X180714285Y-71674000D01*
X180761904Y-71721619D01*
X180809523Y-71816857D01*
X180809523Y-71912095D01*
X180761904Y-72054952D01*
X180190476Y-72626380D01*
X180809523Y-72626380D01*
X181238095Y-72626380D02*
X181238095Y-71626380D01*
X181666666Y-72626380D02*
X181666666Y-72102571D01*
X181619047Y-72007333D01*
X181523809Y-71959714D01*
X181380952Y-71959714D01*
X181285714Y-72007333D01*
X181238095Y-72054952D01*
X172893809Y-71626380D02*
X172989047Y-71626380D01*
X173084285Y-71674000D01*
X173131904Y-71721619D01*
X173179523Y-71816857D01*
X173227142Y-72007333D01*
X173227142Y-72245428D01*
X173179523Y-72435904D01*
X173131904Y-72531142D01*
X173084285Y-72578761D01*
X172989047Y-72626380D01*
X172893809Y-72626380D01*
X172798571Y-72578761D01*
X172750952Y-72531142D01*
X172703333Y-72435904D01*
X172655714Y-72245428D01*
X172655714Y-72007333D01*
X172703333Y-71816857D01*
X172750952Y-71721619D01*
X172798571Y-71674000D01*
X172893809Y-71626380D01*
X174179523Y-72626380D02*
X173608095Y-72626380D01*
X173893809Y-72626380D02*
X173893809Y-71626380D01*
X173798571Y-71769238D01*
X173703333Y-71864476D01*
X173608095Y-71912095D01*
X174608095Y-72626380D02*
X174608095Y-71626380D01*
X175036666Y-72626380D02*
X175036666Y-72102571D01*
X174989047Y-72007333D01*
X174893809Y-71959714D01*
X174750952Y-71959714D01*
X174655714Y-72007333D01*
X174608095Y-72054952D01*
D12*
X120380714Y-74853571D02*
X120023571Y-74853571D01*
X120023571Y-72710714D01*
X120380714Y-72710714D01*
X120952142Y-74353571D02*
X120952142Y-72853571D01*
X121809285Y-74353571D02*
X121166428Y-73496428D01*
X121809285Y-72853571D02*
X120952142Y-73710714D01*
X122309285Y-72853571D02*
X123309285Y-72853571D01*
X122309285Y-74353571D01*
X123309285Y-74353571D01*
X124095000Y-73496428D02*
X123952142Y-73425000D01*
X123880714Y-73353571D01*
X123809285Y-73210714D01*
X123809285Y-73139285D01*
X123880714Y-72996428D01*
X123952142Y-72925000D01*
X124095000Y-72853571D01*
X124380714Y-72853571D01*
X124523571Y-72925000D01*
X124595000Y-72996428D01*
X124666428Y-73139285D01*
X124666428Y-73210714D01*
X124595000Y-73353571D01*
X124523571Y-73425000D01*
X124380714Y-73496428D01*
X124095000Y-73496428D01*
X123952142Y-73567857D01*
X123880714Y-73639285D01*
X123809285Y-73782142D01*
X123809285Y-74067857D01*
X123880714Y-74210714D01*
X123952142Y-74282142D01*
X124095000Y-74353571D01*
X124380714Y-74353571D01*
X124523571Y-74282142D01*
X124595000Y-74210714D01*
X124666428Y-74067857D01*
X124666428Y-73782142D01*
X124595000Y-73639285D01*
X124523571Y-73567857D01*
X124380714Y-73496428D01*
X125595000Y-72853571D02*
X125737857Y-72853571D01*
X125880714Y-72925000D01*
X125952142Y-72996428D01*
X126023571Y-73139285D01*
X126095000Y-73425000D01*
X126095000Y-73782142D01*
X126023571Y-74067857D01*
X125952142Y-74210714D01*
X125880714Y-74282142D01*
X125737857Y-74353571D01*
X125595000Y-74353571D01*
X125452142Y-74282142D01*
X125380714Y-74210714D01*
X125309285Y-74067857D01*
X125237857Y-73782142D01*
X125237857Y-73425000D01*
X125309285Y-73139285D01*
X125380714Y-72996428D01*
X125452142Y-72925000D01*
X125595000Y-72853571D01*
X126737857Y-73782142D02*
X127880714Y-73782142D01*
X129380714Y-74353571D02*
X128523571Y-74353571D01*
X128952142Y-74353571D02*
X128952142Y-72853571D01*
X128809285Y-73067857D01*
X128666428Y-73210714D01*
X128523571Y-73282142D01*
X130023571Y-74353571D02*
X130023571Y-72853571D01*
X130523571Y-73925000D01*
X131023571Y-72853571D01*
X131023571Y-74353571D01*
X131666428Y-74282142D02*
X131880714Y-74353571D01*
X132237857Y-74353571D01*
X132380714Y-74282142D01*
X132452142Y-74210714D01*
X132523571Y-74067857D01*
X132523571Y-73925000D01*
X132452142Y-73782142D01*
X132380714Y-73710714D01*
X132237857Y-73639285D01*
X131952142Y-73567857D01*
X131809285Y-73496428D01*
X131737857Y-73425000D01*
X131666428Y-73282142D01*
X131666428Y-73139285D01*
X131737857Y-72996428D01*
X131809285Y-72925000D01*
X131952142Y-72853571D01*
X132309285Y-72853571D01*
X132523571Y-72925000D01*
X134023571Y-74353571D02*
X133523571Y-73639285D01*
X133166428Y-74353571D02*
X133166428Y-72853571D01*
X133737857Y-72853571D01*
X133880714Y-72925000D01*
X133952142Y-72996428D01*
X134023571Y-73139285D01*
X134023571Y-73353571D01*
X133952142Y-73496428D01*
X133880714Y-73567857D01*
X133737857Y-73639285D01*
X133166428Y-73639285D01*
X134595000Y-73925000D02*
X135309285Y-73925000D01*
X134452142Y-74353571D02*
X134952142Y-72853571D01*
X135452142Y-74353571D01*
X135952142Y-74353571D02*
X135952142Y-72853571D01*
X136452142Y-73925000D01*
X136952142Y-72853571D01*
X136952142Y-74353571D01*
X137523571Y-74853571D02*
X137880714Y-74853571D01*
X137880714Y-72710714D01*
X137523571Y-72710714D01*
X141737857Y-74353571D02*
X140880714Y-74353571D01*
X141309285Y-74353571D02*
X141309285Y-72853571D01*
X141166428Y-73067857D01*
X141023571Y-73210714D01*
X140880714Y-73282142D01*
X142309285Y-72996428D02*
X142380714Y-72925000D01*
X142523571Y-72853571D01*
X142880714Y-72853571D01*
X143023571Y-72925000D01*
X143095000Y-72996428D01*
X143166428Y-73139285D01*
X143166428Y-73282142D01*
X143095000Y-73496428D01*
X142237857Y-74353571D01*
X143166428Y-74353571D01*
X144023571Y-73496428D02*
X143880714Y-73425000D01*
X143809285Y-73353571D01*
X143737857Y-73210714D01*
X143737857Y-73139285D01*
X143809285Y-72996428D01*
X143880714Y-72925000D01*
X144023571Y-72853571D01*
X144309285Y-72853571D01*
X144452142Y-72925000D01*
X144523571Y-72996428D01*
X144595000Y-73139285D01*
X144595000Y-73210714D01*
X144523571Y-73353571D01*
X144452142Y-73425000D01*
X144309285Y-73496428D01*
X144023571Y-73496428D01*
X143880714Y-73567857D01*
X143809285Y-73639285D01*
X143737857Y-73782142D01*
X143737857Y-74067857D01*
X143809285Y-74210714D01*
X143880714Y-74282142D01*
X144023571Y-74353571D01*
X144309285Y-74353571D01*
X144452142Y-74282142D01*
X144523571Y-74210714D01*
X144595000Y-74067857D01*
X144595000Y-73782142D01*
X144523571Y-73639285D01*
X144452142Y-73567857D01*
X144309285Y-73496428D01*
X145237857Y-74353571D02*
X145237857Y-72853571D01*
X145380714Y-73782142D02*
X145809285Y-74353571D01*
X145809285Y-73353571D02*
X145237857Y-73925000D01*
X146952142Y-73567857D02*
X147166428Y-73639285D01*
X147237857Y-73710714D01*
X147309285Y-73853571D01*
X147309285Y-74067857D01*
X147237857Y-74210714D01*
X147166428Y-74282142D01*
X147023571Y-74353571D01*
X146452142Y-74353571D01*
X146452142Y-72853571D01*
X146952142Y-72853571D01*
X147095000Y-72925000D01*
X147166428Y-72996428D01*
X147237857Y-73139285D01*
X147237857Y-73282142D01*
X147166428Y-73425000D01*
X147095000Y-73496428D01*
X146952142Y-73567857D01*
X146452142Y-73567857D01*
X149952142Y-74353571D02*
X149452142Y-73639285D01*
X149095000Y-74353571D02*
X149095000Y-72853571D01*
X149666428Y-72853571D01*
X149809285Y-72925000D01*
X149880714Y-72996428D01*
X149952142Y-73139285D01*
X149952142Y-73353571D01*
X149880714Y-73496428D01*
X149809285Y-73567857D01*
X149666428Y-73639285D01*
X149095000Y-73639285D01*
X150523571Y-73925000D02*
X151237857Y-73925000D01*
X150380714Y-74353571D02*
X150880714Y-72853571D01*
X151380714Y-74353571D01*
X151880714Y-74353571D02*
X151880714Y-72853571D01*
X152380714Y-73925000D01*
X152880714Y-72853571D01*
X152880714Y-74353571D01*
X154666428Y-72782142D02*
X153380714Y-74710714D01*
X156023571Y-74353571D02*
X155523571Y-73639285D01*
X155166428Y-74353571D02*
X155166428Y-72853571D01*
X155737857Y-72853571D01*
X155880714Y-72925000D01*
X155952142Y-72996428D01*
X156023571Y-73139285D01*
X156023571Y-73353571D01*
X155952142Y-73496428D01*
X155880714Y-73567857D01*
X155737857Y-73639285D01*
X155166428Y-73639285D01*
X156952142Y-72853571D02*
X157237857Y-72853571D01*
X157380714Y-72925000D01*
X157523571Y-73067857D01*
X157595000Y-73353571D01*
X157595000Y-73853571D01*
X157523571Y-74139285D01*
X157380714Y-74282142D01*
X157237857Y-74353571D01*
X156952142Y-74353571D01*
X156809285Y-74282142D01*
X156666428Y-74139285D01*
X156595000Y-73853571D01*
X156595000Y-73353571D01*
X156666428Y-73067857D01*
X156809285Y-72925000D01*
X156952142Y-72853571D01*
X158237857Y-74353571D02*
X158237857Y-72853571D01*
X158737857Y-73925000D01*
X159237857Y-72853571D01*
X159237857Y-74353571D01*
X161595000Y-73567857D02*
X161809285Y-73639285D01*
X161880714Y-73710714D01*
X161952142Y-73853571D01*
X161952142Y-74067857D01*
X161880714Y-74210714D01*
X161809285Y-74282142D01*
X161666428Y-74353571D01*
X161095000Y-74353571D01*
X161095000Y-72853571D01*
X161595000Y-72853571D01*
X161737857Y-72925000D01*
X161809285Y-72996428D01*
X161880714Y-73139285D01*
X161880714Y-73282142D01*
X161809285Y-73425000D01*
X161737857Y-73496428D01*
X161595000Y-73567857D01*
X161095000Y-73567857D01*
X162880714Y-72853571D02*
X163166428Y-72853571D01*
X163309285Y-72925000D01*
X163452142Y-73067857D01*
X163523571Y-73353571D01*
X163523571Y-73853571D01*
X163452142Y-74139285D01*
X163309285Y-74282142D01*
X163166428Y-74353571D01*
X162880714Y-74353571D01*
X162737857Y-74282142D01*
X162595000Y-74139285D01*
X162523571Y-73853571D01*
X162523571Y-73353571D01*
X162595000Y-73067857D01*
X162737857Y-72925000D01*
X162880714Y-72853571D01*
X164095000Y-73925000D02*
X164809285Y-73925000D01*
X163952142Y-74353571D02*
X164452142Y-72853571D01*
X164952142Y-74353571D01*
X166309285Y-74353571D02*
X165809285Y-73639285D01*
X165452142Y-74353571D02*
X165452142Y-72853571D01*
X166023571Y-72853571D01*
X166166428Y-72925000D01*
X166237857Y-72996428D01*
X166309285Y-73139285D01*
X166309285Y-73353571D01*
X166237857Y-73496428D01*
X166166428Y-73567857D01*
X166023571Y-73639285D01*
X165452142Y-73639285D01*
X166952142Y-74353571D02*
X166952142Y-72853571D01*
X167309285Y-72853571D01*
X167523571Y-72925000D01*
X167666428Y-73067857D01*
X167737857Y-73210714D01*
X167809285Y-73496428D01*
X167809285Y-73710714D01*
X167737857Y-73996428D01*
X167666428Y-74139285D01*
X167523571Y-74282142D01*
X167309285Y-74353571D01*
X166952142Y-74353571D01*
X163737857Y-76903571D02*
X163237857Y-76189285D01*
X162880714Y-76903571D02*
X162880714Y-75403571D01*
X163452142Y-75403571D01*
X163595000Y-75475000D01*
X163666428Y-75546428D01*
X163737857Y-75689285D01*
X163737857Y-75903571D01*
X163666428Y-76046428D01*
X163595000Y-76117857D01*
X163452142Y-76189285D01*
X162880714Y-76189285D01*
X164380714Y-76117857D02*
X164880714Y-76117857D01*
X165095000Y-76903571D02*
X164380714Y-76903571D01*
X164380714Y-75403571D01*
X165095000Y-75403571D01*
X165523571Y-75403571D02*
X166023571Y-76903571D01*
X166523571Y-75403571D01*
X167666428Y-75903571D02*
X167666428Y-76903571D01*
X167309285Y-75332142D02*
X166952142Y-76403571D01*
X167880714Y-76403571D01*
X142101428Y-85055928D02*
X142101428Y-86055928D01*
X140601428Y-85413071D01*
X141601428Y-87270214D02*
X140601428Y-87270214D01*
X142172857Y-86913071D02*
X141101428Y-86555928D01*
X141101428Y-87484500D01*
X140601428Y-88055928D02*
X142101428Y-88055928D01*
X141387142Y-88055928D02*
X141387142Y-88913071D01*
X140601428Y-88913071D02*
X142101428Y-88913071D01*
X140744285Y-90484500D02*
X140672857Y-90413071D01*
X140601428Y-90198785D01*
X140601428Y-90055928D01*
X140672857Y-89841642D01*
X140815714Y-89698785D01*
X140958571Y-89627357D01*
X141244285Y-89555928D01*
X141458571Y-89555928D01*
X141744285Y-89627357D01*
X141887142Y-89698785D01*
X142030000Y-89841642D01*
X142101428Y-90055928D01*
X142101428Y-90198785D01*
X142030000Y-90413071D01*
X141958571Y-90484500D01*
X142101428Y-91413071D02*
X142101428Y-91555928D01*
X142030000Y-91698785D01*
X141958571Y-91770214D01*
X141815714Y-91841642D01*
X141530000Y-91913071D01*
X141172857Y-91913071D01*
X140887142Y-91841642D01*
X140744285Y-91770214D01*
X140672857Y-91698785D01*
X140601428Y-91555928D01*
X140601428Y-91413071D01*
X140672857Y-91270214D01*
X140744285Y-91198785D01*
X140887142Y-91127357D01*
X141172857Y-91055928D01*
X141530000Y-91055928D01*
X141815714Y-91127357D01*
X141958571Y-91198785D01*
X142030000Y-91270214D01*
X142101428Y-91413071D01*
X141958571Y-92484500D02*
X142030000Y-92555928D01*
X142101428Y-92698785D01*
X142101428Y-93055928D01*
X142030000Y-93198785D01*
X141958571Y-93270214D01*
X141815714Y-93341642D01*
X141672857Y-93341642D01*
X141458571Y-93270214D01*
X140601428Y-92413071D01*
X140601428Y-93341642D01*
X127559928Y-108360428D02*
X127559928Y-109360428D01*
X126059928Y-108717571D01*
X127059928Y-110574714D02*
X126059928Y-110574714D01*
X127631357Y-110217571D02*
X126559928Y-109860428D01*
X126559928Y-110789000D01*
X126059928Y-111360428D02*
X127559928Y-111360428D01*
X126845642Y-111360428D02*
X126845642Y-112217571D01*
X126059928Y-112217571D02*
X127559928Y-112217571D01*
X126202785Y-113789000D02*
X126131357Y-113717571D01*
X126059928Y-113503285D01*
X126059928Y-113360428D01*
X126131357Y-113146142D01*
X126274214Y-113003285D01*
X126417071Y-112931857D01*
X126702785Y-112860428D01*
X126917071Y-112860428D01*
X127202785Y-112931857D01*
X127345642Y-113003285D01*
X127488500Y-113146142D01*
X127559928Y-113360428D01*
X127559928Y-113503285D01*
X127488500Y-113717571D01*
X127417071Y-113789000D01*
X127559928Y-114717571D02*
X127559928Y-114860428D01*
X127488500Y-115003285D01*
X127417071Y-115074714D01*
X127274214Y-115146142D01*
X126988500Y-115217571D01*
X126631357Y-115217571D01*
X126345642Y-115146142D01*
X126202785Y-115074714D01*
X126131357Y-115003285D01*
X126059928Y-114860428D01*
X126059928Y-114717571D01*
X126131357Y-114574714D01*
X126202785Y-114503285D01*
X126345642Y-114431857D01*
X126631357Y-114360428D01*
X126988500Y-114360428D01*
X127274214Y-114431857D01*
X127417071Y-114503285D01*
X127488500Y-114574714D01*
X127559928Y-114717571D01*
X127559928Y-116146142D02*
X127559928Y-116289000D01*
X127488500Y-116431857D01*
X127417071Y-116503285D01*
X127274214Y-116574714D01*
X126988500Y-116646142D01*
X126631357Y-116646142D01*
X126345642Y-116574714D01*
X126202785Y-116503285D01*
X126131357Y-116431857D01*
X126059928Y-116289000D01*
X126059928Y-116146142D01*
X126131357Y-116003285D01*
X126202785Y-115931857D01*
X126345642Y-115860428D01*
X126631357Y-115789000D01*
X126988500Y-115789000D01*
X127274214Y-115860428D01*
X127417071Y-115931857D01*
X127488500Y-116003285D01*
X127559928Y-116146142D01*
X127432928Y-85373428D02*
X127432928Y-86373428D01*
X125932928Y-85730571D01*
X126932928Y-87587714D02*
X125932928Y-87587714D01*
X127504357Y-87230571D02*
X126432928Y-86873428D01*
X126432928Y-87802000D01*
X125932928Y-88373428D02*
X127432928Y-88373428D01*
X126718642Y-88373428D02*
X126718642Y-89230571D01*
X125932928Y-89230571D02*
X127432928Y-89230571D01*
X126075785Y-90802000D02*
X126004357Y-90730571D01*
X125932928Y-90516285D01*
X125932928Y-90373428D01*
X126004357Y-90159142D01*
X126147214Y-90016285D01*
X126290071Y-89944857D01*
X126575785Y-89873428D01*
X126790071Y-89873428D01*
X127075785Y-89944857D01*
X127218642Y-90016285D01*
X127361500Y-90159142D01*
X127432928Y-90373428D01*
X127432928Y-90516285D01*
X127361500Y-90730571D01*
X127290071Y-90802000D01*
X127432928Y-91730571D02*
X127432928Y-91873428D01*
X127361500Y-92016285D01*
X127290071Y-92087714D01*
X127147214Y-92159142D01*
X126861500Y-92230571D01*
X126504357Y-92230571D01*
X126218642Y-92159142D01*
X126075785Y-92087714D01*
X126004357Y-92016285D01*
X125932928Y-91873428D01*
X125932928Y-91730571D01*
X126004357Y-91587714D01*
X126075785Y-91516285D01*
X126218642Y-91444857D01*
X126504357Y-91373428D01*
X126861500Y-91373428D01*
X127147214Y-91444857D01*
X127290071Y-91516285D01*
X127361500Y-91587714D01*
X127432928Y-91730571D01*
X126932928Y-93516285D02*
X125932928Y-93516285D01*
X127504357Y-93159142D02*
X126432928Y-92802000D01*
X126432928Y-93730571D01*
X114038428Y-85600642D02*
X114038428Y-86600642D01*
X112538428Y-85957785D01*
X113538428Y-87814928D02*
X112538428Y-87814928D01*
X114109857Y-87457785D02*
X113038428Y-87100642D01*
X113038428Y-88029214D01*
X112538428Y-88600642D02*
X114038428Y-88600642D01*
X113324142Y-88600642D02*
X113324142Y-89457785D01*
X112538428Y-89457785D02*
X114038428Y-89457785D01*
X112681285Y-91029214D02*
X112609857Y-90957785D01*
X112538428Y-90743500D01*
X112538428Y-90600642D01*
X112609857Y-90386357D01*
X112752714Y-90243500D01*
X112895571Y-90172071D01*
X113181285Y-90100642D01*
X113395571Y-90100642D01*
X113681285Y-90172071D01*
X113824142Y-90243500D01*
X113967000Y-90386357D01*
X114038428Y-90600642D01*
X114038428Y-90743500D01*
X113967000Y-90957785D01*
X113895571Y-91029214D01*
X112538428Y-92457785D02*
X112538428Y-91600642D01*
X112538428Y-92029214D02*
X114038428Y-92029214D01*
X113824142Y-91886357D01*
X113681285Y-91743500D01*
X113609857Y-91600642D01*
X114038428Y-92957785D02*
X114038428Y-93886357D01*
X113467000Y-93386357D01*
X113467000Y-93600642D01*
X113395571Y-93743500D01*
X113324142Y-93814928D01*
X113181285Y-93886357D01*
X112824142Y-93886357D01*
X112681285Y-93814928D01*
X112609857Y-93743500D01*
X112538428Y-93600642D01*
X112538428Y-93172071D01*
X112609857Y-93029214D01*
X112681285Y-92957785D01*
X112538428Y-94600642D02*
X112538428Y-94886357D01*
X112609857Y-95029214D01*
X112681285Y-95100642D01*
X112895571Y-95243500D01*
X113181285Y-95314928D01*
X113752714Y-95314928D01*
X113895571Y-95243500D01*
X113967000Y-95172071D01*
X114038428Y-95029214D01*
X114038428Y-94743500D01*
X113967000Y-94600642D01*
X113895571Y-94529214D01*
X113752714Y-94457785D01*
X113395571Y-94457785D01*
X113252714Y-94529214D01*
X113181285Y-94600642D01*
X113109857Y-94743500D01*
X113109857Y-95029214D01*
X113181285Y-95172071D01*
X113252714Y-95243500D01*
X113395571Y-95314928D01*
X161323428Y-103924285D02*
X161323428Y-103638571D01*
X161252000Y-103495714D01*
X161180571Y-103424285D01*
X160966285Y-103281428D01*
X160680571Y-103210000D01*
X160109142Y-103210000D01*
X159966285Y-103281428D01*
X159894857Y-103352857D01*
X159823428Y-103495714D01*
X159823428Y-103781428D01*
X159894857Y-103924285D01*
X159966285Y-103995714D01*
X160109142Y-104067142D01*
X160466285Y-104067142D01*
X160609142Y-103995714D01*
X160680571Y-103924285D01*
X160752000Y-103781428D01*
X160752000Y-103495714D01*
X160680571Y-103352857D01*
X160609142Y-103281428D01*
X160466285Y-103210000D01*
X161180571Y-104638571D02*
X161252000Y-104710000D01*
X161323428Y-104852857D01*
X161323428Y-105210000D01*
X161252000Y-105352857D01*
X161180571Y-105424285D01*
X161037714Y-105495714D01*
X160894857Y-105495714D01*
X160680571Y-105424285D01*
X159823428Y-104567142D01*
X159823428Y-105495714D01*
X160680571Y-106352857D02*
X160752000Y-106210000D01*
X160823428Y-106138571D01*
X160966285Y-106067142D01*
X161037714Y-106067142D01*
X161180571Y-106138571D01*
X161252000Y-106210000D01*
X161323428Y-106352857D01*
X161323428Y-106638571D01*
X161252000Y-106781428D01*
X161180571Y-106852857D01*
X161037714Y-106924285D01*
X160966285Y-106924285D01*
X160823428Y-106852857D01*
X160752000Y-106781428D01*
X160680571Y-106638571D01*
X160680571Y-106352857D01*
X160609142Y-106210000D01*
X160537714Y-106138571D01*
X160394857Y-106067142D01*
X160109142Y-106067142D01*
X159966285Y-106138571D01*
X159894857Y-106210000D01*
X159823428Y-106352857D01*
X159823428Y-106638571D01*
X159894857Y-106781428D01*
X159966285Y-106852857D01*
X160109142Y-106924285D01*
X160394857Y-106924285D01*
X160537714Y-106852857D01*
X160609142Y-106781428D01*
X160680571Y-106638571D01*
X159823428Y-108352857D02*
X159823428Y-107495714D01*
X159823428Y-107924285D02*
X161323428Y-107924285D01*
X161109142Y-107781428D01*
X160966285Y-107638571D01*
X160894857Y-107495714D01*
X161180571Y-108924285D02*
X161252000Y-108995714D01*
X161323428Y-109138571D01*
X161323428Y-109495714D01*
X161252000Y-109638571D01*
X161180571Y-109710000D01*
X161037714Y-109781428D01*
X160894857Y-109781428D01*
X160680571Y-109710000D01*
X159823428Y-108852857D01*
X159823428Y-109781428D01*
X160680571Y-110638571D02*
X160752000Y-110495714D01*
X160823428Y-110424285D01*
X160966285Y-110352857D01*
X161037714Y-110352857D01*
X161180571Y-110424285D01*
X161252000Y-110495714D01*
X161323428Y-110638571D01*
X161323428Y-110924285D01*
X161252000Y-111067142D01*
X161180571Y-111138571D01*
X161037714Y-111210000D01*
X160966285Y-111210000D01*
X160823428Y-111138571D01*
X160752000Y-111067142D01*
X160680571Y-110924285D01*
X160680571Y-110638571D01*
X160609142Y-110495714D01*
X160537714Y-110424285D01*
X160394857Y-110352857D01*
X160109142Y-110352857D01*
X159966285Y-110424285D01*
X159894857Y-110495714D01*
X159823428Y-110638571D01*
X159823428Y-110924285D01*
X159894857Y-111067142D01*
X159966285Y-111138571D01*
X160109142Y-111210000D01*
X160394857Y-111210000D01*
X160537714Y-111138571D01*
X160609142Y-111067142D01*
X160680571Y-110924285D01*
X157273428Y-102067142D02*
X157273428Y-101210000D01*
X157273428Y-101638571D02*
X158773428Y-101638571D01*
X158559142Y-101495714D01*
X158416285Y-101352857D01*
X158344857Y-101210000D01*
X158630571Y-102638571D02*
X158702000Y-102710000D01*
X158773428Y-102852857D01*
X158773428Y-103210000D01*
X158702000Y-103352857D01*
X158630571Y-103424285D01*
X158487714Y-103495714D01*
X158344857Y-103495714D01*
X158130571Y-103424285D01*
X157273428Y-102567142D01*
X157273428Y-103495714D01*
X158130571Y-104352857D02*
X158202000Y-104210000D01*
X158273428Y-104138571D01*
X158416285Y-104067142D01*
X158487714Y-104067142D01*
X158630571Y-104138571D01*
X158702000Y-104210000D01*
X158773428Y-104352857D01*
X158773428Y-104638571D01*
X158702000Y-104781428D01*
X158630571Y-104852857D01*
X158487714Y-104924285D01*
X158416285Y-104924285D01*
X158273428Y-104852857D01*
X158202000Y-104781428D01*
X158130571Y-104638571D01*
X158130571Y-104352857D01*
X158059142Y-104210000D01*
X157987714Y-104138571D01*
X157844857Y-104067142D01*
X157559142Y-104067142D01*
X157416285Y-104138571D01*
X157344857Y-104210000D01*
X157273428Y-104352857D01*
X157273428Y-104638571D01*
X157344857Y-104781428D01*
X157416285Y-104852857D01*
X157559142Y-104924285D01*
X157844857Y-104924285D01*
X157987714Y-104852857D01*
X158059142Y-104781428D01*
X158130571Y-104638571D01*
X157273428Y-105567142D02*
X158773428Y-105567142D01*
X157844857Y-105710000D02*
X157273428Y-106138571D01*
X158273428Y-106138571D02*
X157702000Y-105567142D01*
X157344857Y-107852857D02*
X157273428Y-108067142D01*
X157273428Y-108424285D01*
X157344857Y-108567142D01*
X157416285Y-108638571D01*
X157559142Y-108710000D01*
X157702000Y-108710000D01*
X157844857Y-108638571D01*
X157916285Y-108567142D01*
X157987714Y-108424285D01*
X158059142Y-108138571D01*
X158130571Y-107995714D01*
X158202000Y-107924285D01*
X158344857Y-107852857D01*
X158487714Y-107852857D01*
X158630571Y-107924285D01*
X158702000Y-107995714D01*
X158773428Y-108138571D01*
X158773428Y-108495714D01*
X158702000Y-108710000D01*
X157273428Y-110210000D02*
X157987714Y-109710000D01*
X157273428Y-109352857D02*
X158773428Y-109352857D01*
X158773428Y-109924285D01*
X158702000Y-110067142D01*
X158630571Y-110138571D01*
X158487714Y-110210000D01*
X158273428Y-110210000D01*
X158130571Y-110138571D01*
X158059142Y-110067142D01*
X157987714Y-109924285D01*
X157987714Y-109352857D01*
X157702000Y-110781428D02*
X157702000Y-111495714D01*
X157273428Y-110638571D02*
X158773428Y-111138571D01*
X157273428Y-111638571D01*
X157273428Y-112138571D02*
X158773428Y-112138571D01*
X157702000Y-112638571D01*
X158773428Y-113138571D01*
X157273428Y-113138571D01*
X184040571Y-106083285D02*
X184112000Y-106154714D01*
X184183428Y-106297571D01*
X184183428Y-106654714D01*
X184112000Y-106797571D01*
X184040571Y-106869000D01*
X183897714Y-106940428D01*
X183754857Y-106940428D01*
X183540571Y-106869000D01*
X182683428Y-106011857D01*
X182683428Y-106940428D01*
X183540571Y-107797571D02*
X183612000Y-107654714D01*
X183683428Y-107583285D01*
X183826285Y-107511857D01*
X183897714Y-107511857D01*
X184040571Y-107583285D01*
X184112000Y-107654714D01*
X184183428Y-107797571D01*
X184183428Y-108083285D01*
X184112000Y-108226142D01*
X184040571Y-108297571D01*
X183897714Y-108369000D01*
X183826285Y-108369000D01*
X183683428Y-108297571D01*
X183612000Y-108226142D01*
X183540571Y-108083285D01*
X183540571Y-107797571D01*
X183469142Y-107654714D01*
X183397714Y-107583285D01*
X183254857Y-107511857D01*
X182969142Y-107511857D01*
X182826285Y-107583285D01*
X182754857Y-107654714D01*
X182683428Y-107797571D01*
X182683428Y-108083285D01*
X182754857Y-108226142D01*
X182826285Y-108297571D01*
X182969142Y-108369000D01*
X183254857Y-108369000D01*
X183397714Y-108297571D01*
X183469142Y-108226142D01*
X183540571Y-108083285D01*
X184040571Y-108940428D02*
X184112000Y-109011857D01*
X184183428Y-109154714D01*
X184183428Y-109511857D01*
X184112000Y-109654714D01*
X184040571Y-109726142D01*
X183897714Y-109797571D01*
X183754857Y-109797571D01*
X183540571Y-109726142D01*
X182683428Y-108869000D01*
X182683428Y-109797571D01*
X184183428Y-111154714D02*
X184183428Y-110440428D01*
X183469142Y-110369000D01*
X183540571Y-110440428D01*
X183612000Y-110583285D01*
X183612000Y-110940428D01*
X183540571Y-111083285D01*
X183469142Y-111154714D01*
X183326285Y-111226142D01*
X182969142Y-111226142D01*
X182826285Y-111154714D01*
X182754857Y-111083285D01*
X182683428Y-110940428D01*
X182683428Y-110583285D01*
X182754857Y-110440428D01*
X182826285Y-110369000D01*
X184183428Y-112511857D02*
X184183428Y-112226142D01*
X184112000Y-112083285D01*
X184040571Y-112011857D01*
X183826285Y-111869000D01*
X183540571Y-111797571D01*
X182969142Y-111797571D01*
X182826285Y-111869000D01*
X182754857Y-111940428D01*
X182683428Y-112083285D01*
X182683428Y-112369000D01*
X182754857Y-112511857D01*
X182826285Y-112583285D01*
X182969142Y-112654714D01*
X183326285Y-112654714D01*
X183469142Y-112583285D01*
X183540571Y-112511857D01*
X183612000Y-112369000D01*
X183612000Y-112083285D01*
X183540571Y-111940428D01*
X183469142Y-111869000D01*
X183326285Y-111797571D01*
X180133428Y-108190428D02*
X180847714Y-107690428D01*
X180133428Y-107333285D02*
X181633428Y-107333285D01*
X181633428Y-107904714D01*
X181562000Y-108047571D01*
X181490571Y-108119000D01*
X181347714Y-108190428D01*
X181133428Y-108190428D01*
X180990571Y-108119000D01*
X180919142Y-108047571D01*
X180847714Y-107904714D01*
X180847714Y-107333285D01*
X181633428Y-109119000D02*
X181633428Y-109404714D01*
X181562000Y-109547571D01*
X181419142Y-109690428D01*
X181133428Y-109761857D01*
X180633428Y-109761857D01*
X180347714Y-109690428D01*
X180204857Y-109547571D01*
X180133428Y-109404714D01*
X180133428Y-109119000D01*
X180204857Y-108976142D01*
X180347714Y-108833285D01*
X180633428Y-108761857D01*
X181133428Y-108761857D01*
X181419142Y-108833285D01*
X181562000Y-108976142D01*
X181633428Y-109119000D01*
X180133428Y-110404714D02*
X181633428Y-110404714D01*
X180562000Y-110904714D01*
X181633428Y-111404714D01*
X180133428Y-111404714D01*
D13*
X191170000Y-72670000D02*
X192500000Y-72670000D01*
X191170000Y-74000000D02*
X191170000Y-72670000D01*
X191170000Y-75270000D02*
X193830000Y-75270000D01*
X193830000Y-75270000D02*
X193830000Y-80410000D01*
X191170000Y-75270000D02*
X191170000Y-80410000D01*
X191170000Y-80410000D02*
X193830000Y-80410000D01*
X194670000Y-72670000D02*
X196000000Y-72670000D01*
X194670000Y-74000000D02*
X194670000Y-72670000D01*
X194670000Y-75270000D02*
X197330000Y-75270000D01*
X197330000Y-75270000D02*
X197330000Y-80410000D01*
X194670000Y-75270000D02*
X194670000Y-80410000D01*
X194670000Y-80410000D02*
X197330000Y-80410000D01*
X195170000Y-90510000D02*
X196500000Y-90510000D01*
X195170000Y-91840000D02*
X195170000Y-90510000D01*
X195170000Y-93110000D02*
X197830000Y-93110000D01*
X197830000Y-93110000D02*
X197830000Y-103330000D01*
X195170000Y-93110000D02*
X195170000Y-103330000D01*
X195170000Y-103330000D02*
X197830000Y-103330000D01*
X103790000Y-94270000D02*
X106450000Y-94270000D01*
X103790000Y-89130000D02*
X103790000Y-94270000D01*
X106450000Y-89130000D02*
X106450000Y-94270000D01*
X103790000Y-89130000D02*
X106450000Y-89130000D01*
X103790000Y-87860000D02*
X103790000Y-86530000D01*
X103790000Y-86530000D02*
X105120000Y-86530000D01*
X123681000Y-126841000D02*
X123681000Y-128099000D01*
X121841000Y-126841000D02*
X121841000Y-128099000D01*
X116797000Y-115920000D02*
X116797000Y-113260000D01*
X111657000Y-115920000D02*
X116797000Y-115920000D01*
X111657000Y-113260000D02*
X116797000Y-113260000D01*
X111657000Y-115920000D02*
X111657000Y-113260000D01*
X110387000Y-115920000D02*
X109057000Y-115920000D01*
X109057000Y-115920000D02*
X109057000Y-114590000D01*
X126760000Y-129610000D02*
X130610000Y-129610000D01*
X126377369Y-129032045D02*
G75*
G03X126760000Y-129610000I2322631J1122045D01*
G01*
X126343600Y-126811193D02*
G75*
G02X128700000Y-125310000I2356400J-1098807D01*
G01*
X131056400Y-126811193D02*
G75*
G03X128700000Y-125310000I-2356400J-1098807D01*
G01*
X131002383Y-129022264D02*
G75*
G02X130610000Y-129610000I-2302383J1112264D01*
G01*
X173598000Y-81776000D02*
X174368000Y-81776000D01*
X181678000Y-81776000D02*
X180908000Y-81776000D01*
X174368000Y-83146000D02*
X180908000Y-83146000D01*
X174368000Y-80406000D02*
X174368000Y-83146000D01*
X180908000Y-80406000D02*
X174368000Y-80406000D01*
X180908000Y-83146000D02*
X180908000Y-80406000D01*
X180908000Y-86194000D02*
X180908000Y-83454000D01*
X180908000Y-83454000D02*
X174368000Y-83454000D01*
X174368000Y-83454000D02*
X174368000Y-86194000D01*
X174368000Y-86194000D02*
X180908000Y-86194000D01*
X181678000Y-84824000D02*
X180908000Y-84824000D01*
X173598000Y-84824000D02*
X174368000Y-84824000D01*
X118420000Y-131380000D02*
X118420000Y-130610000D01*
X118420000Y-123300000D02*
X118420000Y-124070000D01*
X119790000Y-130610000D02*
X119790000Y-124070000D01*
X117050000Y-130610000D02*
X119790000Y-130610000D01*
X117050000Y-124070000D02*
X117050000Y-130610000D01*
X119790000Y-124070000D02*
X117050000Y-124070000D01*
X137450000Y-126320000D02*
X137450000Y-129060000D01*
X137450000Y-129060000D02*
X143990000Y-129060000D01*
X143990000Y-129060000D02*
X143990000Y-126320000D01*
X143990000Y-126320000D02*
X137450000Y-126320000D01*
X136680000Y-127690000D02*
X137450000Y-127690000D01*
X144760000Y-127690000D02*
X143990000Y-127690000D01*
X108014000Y-104975000D02*
X108014000Y-110175000D01*
X115694000Y-104975000D02*
X108014000Y-104975000D01*
X118294000Y-110175000D02*
X108014000Y-110175000D01*
X115694000Y-104975000D02*
X115694000Y-107575000D01*
X115694000Y-107575000D02*
X118294000Y-107575000D01*
X118294000Y-107575000D02*
X118294000Y-110175000D01*
X116964000Y-104975000D02*
X118294000Y-104975000D01*
X118294000Y-104975000D02*
X118294000Y-106305000D01*
X187488608Y-77412335D02*
G75*
G03X187645516Y-74180000I-1078608J1672335D01*
G01*
X185331392Y-77412335D02*
G75*
G02X185174484Y-74180000I1078608J1672335D01*
G01*
X187489837Y-76781130D02*
G75*
G03X187490000Y-74699039I-1079837J1041130D01*
G01*
X185330163Y-76781130D02*
G75*
G02X185330000Y-74699039I1079837J1041130D01*
G01*
X187646000Y-74180000D02*
X187490000Y-74180000D01*
X185330000Y-74180000D02*
X185174000Y-74180000D01*
X142344000Y-104160000D02*
G75*
G02X140344000Y-104160000I-1000000J0D01*
G01*
X140344000Y-104160000D02*
X138694000Y-104160000D01*
X138694000Y-104160000D02*
X138694000Y-122060000D01*
X138694000Y-122060000D02*
X143994000Y-122060000D01*
X143994000Y-122060000D02*
X143994000Y-104160000D01*
X143994000Y-104160000D02*
X142344000Y-104160000D01*
X136204000Y-104100000D02*
X136204000Y-122120000D01*
X136204000Y-122120000D02*
X146484000Y-122120000D01*
X146484000Y-122120000D02*
X146484000Y-104100000D01*
X146484000Y-104100000D02*
X136204000Y-104100000D01*
X180880000Y-89270000D02*
X180880000Y-86530000D01*
X180880000Y-86530000D02*
X174340000Y-86530000D01*
X174340000Y-86530000D02*
X174340000Y-89270000D01*
X174340000Y-89270000D02*
X180880000Y-89270000D01*
X181650000Y-87900000D02*
X180880000Y-87900000D01*
X173570000Y-87900000D02*
X174340000Y-87900000D01*
X180960000Y-92485000D02*
X175380000Y-92485000D01*
X175380000Y-92485000D02*
X175380000Y-128285000D01*
X175380000Y-128285000D02*
X188540000Y-128285000D01*
X188540000Y-128285000D02*
X188540000Y-92485000D01*
X188540000Y-92485000D02*
X182960000Y-92485000D01*
X172950000Y-92485000D02*
X172950000Y-128285000D01*
X172950000Y-128285000D02*
X190970000Y-128285000D01*
X190970000Y-128285000D02*
X190970000Y-92485000D01*
X190970000Y-92485000D02*
X172950000Y-92485000D01*
X182960000Y-92485000D02*
G75*
G02X180960000Y-92485000I-1000000J0D01*
G01*
D11*
X134906000Y-67976000D02*
X134906000Y-68484000D01*
X135414000Y-67976000D02*
X135414000Y-68484000D01*
X137446000Y-67976000D02*
X137446000Y-68484000D01*
X137954000Y-67976000D02*
X137954000Y-68484000D01*
X132874000Y-67976000D02*
X132874000Y-68484000D01*
X132366000Y-67976000D02*
X132366000Y-68484000D01*
X130334000Y-67976000D02*
X130334000Y-68484000D01*
X129826000Y-67976000D02*
X129826000Y-68484000D01*
X127794000Y-67976000D02*
X127794000Y-68484000D01*
X127286000Y-67976000D02*
X127286000Y-68484000D01*
X125254000Y-67976000D02*
X125254000Y-68484000D01*
X124746000Y-67976000D02*
X124746000Y-68484000D01*
X165386000Y-67976000D02*
X165386000Y-68484000D01*
X165894000Y-67976000D02*
X165894000Y-68484000D01*
X167926000Y-67976000D02*
X167926000Y-68484000D01*
X168434000Y-67976000D02*
X168434000Y-68484000D01*
X163354000Y-67976000D02*
X163354000Y-68484000D01*
X162846000Y-67976000D02*
X162846000Y-68484000D01*
X160814000Y-67976000D02*
X160814000Y-68484000D01*
X160306000Y-67976000D02*
X160306000Y-68484000D01*
X170466000Y-67976000D02*
X170466000Y-68484000D01*
X170974000Y-67976000D02*
X170974000Y-68484000D01*
X173006000Y-67976000D02*
X173006000Y-68484000D01*
X173514000Y-67976000D02*
X173514000Y-68484000D01*
X155226000Y-67976000D02*
X155226000Y-68484000D01*
X155734000Y-67976000D02*
X155734000Y-68484000D01*
X157766000Y-67976000D02*
X157766000Y-68484000D01*
X158274000Y-67976000D02*
X158274000Y-68484000D01*
X153194000Y-67976000D02*
X153194000Y-68484000D01*
X152686000Y-67976000D02*
X152686000Y-68484000D01*
X150654000Y-67976000D02*
X150654000Y-68484000D01*
X150146000Y-67976000D02*
X150146000Y-68484000D01*
X139986000Y-67976000D02*
X139986000Y-68484000D01*
X140494000Y-67976000D02*
X140494000Y-68484000D01*
X142526000Y-67976000D02*
X142526000Y-68484000D01*
X143034000Y-67976000D02*
X143034000Y-68484000D01*
X148114000Y-67976000D02*
X148114000Y-68484000D01*
X147606000Y-67976000D02*
X147606000Y-68484000D01*
X145574000Y-67976000D02*
X145574000Y-68484000D01*
X145066000Y-67976000D02*
X145066000Y-68484000D01*
X170466000Y-65436000D02*
X170466000Y-65944000D01*
X170974000Y-65436000D02*
X170974000Y-65944000D01*
X173006000Y-65436000D02*
X173006000Y-65944000D01*
X173514000Y-65436000D02*
X173514000Y-65944000D01*
X168434000Y-65436000D02*
X168434000Y-65944000D01*
X167926000Y-65436000D02*
X167926000Y-65944000D01*
X165894000Y-65436000D02*
X165894000Y-65944000D01*
X165386000Y-65436000D02*
X165386000Y-65944000D01*
X150146000Y-65436000D02*
X150146000Y-65944000D01*
X150654000Y-65436000D02*
X150654000Y-65944000D01*
X152686000Y-65436000D02*
X152686000Y-65944000D01*
X153194000Y-65436000D02*
X153194000Y-65944000D01*
X148114000Y-65436000D02*
X148114000Y-65944000D01*
X147606000Y-65436000D02*
X147606000Y-65944000D01*
X145574000Y-65436000D02*
X145574000Y-65944000D01*
X145066000Y-65436000D02*
X145066000Y-65944000D01*
X155226000Y-65436000D02*
X155226000Y-65944000D01*
X155734000Y-65436000D02*
X155734000Y-65944000D01*
X157766000Y-65436000D02*
X157766000Y-65944000D01*
X158274000Y-65436000D02*
X158274000Y-65944000D01*
X163354000Y-65436000D02*
X163354000Y-65944000D01*
X162846000Y-65436000D02*
X162846000Y-65944000D01*
X160814000Y-65436000D02*
X160814000Y-65944000D01*
X160306000Y-65436000D02*
X160306000Y-65944000D01*
X139986000Y-65436000D02*
X139986000Y-65944000D01*
X140494000Y-65436000D02*
X140494000Y-65944000D01*
X142526000Y-65436000D02*
X142526000Y-65944000D01*
X143034000Y-65436000D02*
X143034000Y-65944000D01*
X137954000Y-65436000D02*
X137954000Y-65944000D01*
X137446000Y-65436000D02*
X137446000Y-65944000D01*
X135414000Y-65436000D02*
X135414000Y-65944000D01*
X134906000Y-65436000D02*
X134906000Y-65944000D01*
X124746000Y-65436000D02*
X124746000Y-65944000D01*
X125254000Y-65436000D02*
X125254000Y-65944000D01*
X127286000Y-65436000D02*
X127286000Y-65944000D01*
X127794000Y-65436000D02*
X127794000Y-65944000D01*
X132874000Y-65436000D02*
X132874000Y-65944000D01*
X132366000Y-65436000D02*
X132366000Y-65944000D01*
X130334000Y-65436000D02*
X130334000Y-65944000D01*
X129826000Y-65436000D02*
X129826000Y-65944000D01*
X123450000Y-69500000D02*
X123450000Y-70650000D01*
X123450000Y-70650000D02*
X125000000Y-70650000D01*
X124873000Y-62896000D02*
X124873000Y-56927000D01*
X124873000Y-56927000D02*
X125127000Y-56927000D01*
X125127000Y-56927000D02*
X125127000Y-62769000D01*
X125127000Y-62769000D02*
X125000000Y-62769000D01*
X125000000Y-62769000D02*
X125000000Y-56927000D01*
X164370000Y-65436000D02*
X164370000Y-62896000D01*
X164370000Y-65436000D02*
X166910000Y-65436000D01*
X166910000Y-65436000D02*
X166910000Y-62896000D01*
X165386000Y-62896000D02*
X165386000Y-56800000D01*
X165386000Y-56800000D02*
X165894000Y-56800000D01*
X165894000Y-56800000D02*
X165894000Y-62896000D01*
X166910000Y-62896000D02*
X164370000Y-62896000D01*
X169450000Y-62896000D02*
X166910000Y-62896000D01*
X168434000Y-56800000D02*
X168434000Y-62896000D01*
X167926000Y-56800000D02*
X168434000Y-56800000D01*
X167926000Y-62896000D02*
X167926000Y-56800000D01*
X169450000Y-65436000D02*
X169450000Y-62896000D01*
X166910000Y-65436000D02*
X169450000Y-65436000D01*
X166910000Y-65436000D02*
X166910000Y-62896000D01*
X171990000Y-65436000D02*
X171990000Y-62896000D01*
X171990000Y-65436000D02*
X174530000Y-65436000D01*
X173006000Y-62896000D02*
X173006000Y-56800000D01*
X173006000Y-56800000D02*
X173514000Y-56800000D01*
X173514000Y-56800000D02*
X173514000Y-62896000D01*
X174530000Y-62896000D02*
X171990000Y-62896000D01*
X171990000Y-62896000D02*
X169450000Y-62896000D01*
X170974000Y-56800000D02*
X170974000Y-62896000D01*
X170466000Y-56800000D02*
X170974000Y-56800000D01*
X170466000Y-62896000D02*
X170466000Y-56800000D01*
X171990000Y-65436000D02*
X171990000Y-62896000D01*
X169450000Y-65436000D02*
X171990000Y-65436000D01*
X169450000Y-65436000D02*
X169450000Y-62896000D01*
X174530000Y-65436000D02*
X174530000Y-62896000D01*
X144050000Y-65436000D02*
X144050000Y-62896000D01*
X144050000Y-65436000D02*
X146590000Y-65436000D01*
X146590000Y-65436000D02*
X146590000Y-62896000D01*
X145066000Y-62896000D02*
X145066000Y-56800000D01*
X145066000Y-56800000D02*
X145574000Y-56800000D01*
X145574000Y-56800000D02*
X145574000Y-62896000D01*
X146590000Y-62896000D02*
X144050000Y-62896000D01*
X149130000Y-62896000D02*
X146590000Y-62896000D01*
X148114000Y-56800000D02*
X148114000Y-62896000D01*
X147606000Y-56800000D02*
X148114000Y-56800000D01*
X147606000Y-62896000D02*
X147606000Y-56800000D01*
X149130000Y-65436000D02*
X149130000Y-62896000D01*
X146590000Y-65436000D02*
X149130000Y-65436000D01*
X146590000Y-65436000D02*
X146590000Y-62896000D01*
X151670000Y-65436000D02*
X151670000Y-62896000D01*
X151670000Y-65436000D02*
X154210000Y-65436000D01*
X154210000Y-65436000D02*
X154210000Y-62896000D01*
X152686000Y-62896000D02*
X152686000Y-56800000D01*
X152686000Y-56800000D02*
X153194000Y-56800000D01*
X153194000Y-56800000D02*
X153194000Y-62896000D01*
X154210000Y-62896000D02*
X151670000Y-62896000D01*
X151670000Y-62896000D02*
X149130000Y-62896000D01*
X150654000Y-56800000D02*
X150654000Y-62896000D01*
X150146000Y-56800000D02*
X150654000Y-56800000D01*
X150146000Y-62896000D02*
X150146000Y-56800000D01*
X151670000Y-65436000D02*
X151670000Y-62896000D01*
X149130000Y-65436000D02*
X151670000Y-65436000D01*
X149130000Y-65436000D02*
X149130000Y-62896000D01*
X159290000Y-65436000D02*
X159290000Y-62896000D01*
X159290000Y-65436000D02*
X161830000Y-65436000D01*
X161830000Y-65436000D02*
X161830000Y-62896000D01*
X160306000Y-62896000D02*
X160306000Y-56800000D01*
X160306000Y-56800000D02*
X160814000Y-56800000D01*
X160814000Y-56800000D02*
X160814000Y-62896000D01*
X161830000Y-62896000D02*
X159290000Y-62896000D01*
X164370000Y-62896000D02*
X161830000Y-62896000D01*
X163354000Y-56800000D02*
X163354000Y-62896000D01*
X162846000Y-56800000D02*
X163354000Y-56800000D01*
X162846000Y-62896000D02*
X162846000Y-56800000D01*
X164370000Y-65436000D02*
X164370000Y-62896000D01*
X161830000Y-65436000D02*
X164370000Y-65436000D01*
X161830000Y-65436000D02*
X161830000Y-62896000D01*
X156750000Y-65436000D02*
X156750000Y-62896000D01*
X156750000Y-65436000D02*
X159290000Y-65436000D01*
X159290000Y-65436000D02*
X159290000Y-62896000D01*
X157766000Y-62896000D02*
X157766000Y-56800000D01*
X157766000Y-56800000D02*
X158274000Y-56800000D01*
X158274000Y-56800000D02*
X158274000Y-62896000D01*
X159290000Y-62896000D02*
X156750000Y-62896000D01*
X156750000Y-62896000D02*
X154210000Y-62896000D01*
X155734000Y-56800000D02*
X155734000Y-62896000D01*
X155226000Y-56800000D02*
X155734000Y-56800000D01*
X155226000Y-62896000D02*
X155226000Y-56800000D01*
X156750000Y-65436000D02*
X156750000Y-62896000D01*
X154210000Y-65436000D02*
X156750000Y-65436000D01*
X154210000Y-65436000D02*
X154210000Y-62896000D01*
X133890000Y-65436000D02*
X133890000Y-62896000D01*
X133890000Y-65436000D02*
X136430000Y-65436000D01*
X136430000Y-65436000D02*
X136430000Y-62896000D01*
X134906000Y-62896000D02*
X134906000Y-56800000D01*
X134906000Y-56800000D02*
X135414000Y-56800000D01*
X135414000Y-56800000D02*
X135414000Y-62896000D01*
X136430000Y-62896000D02*
X133890000Y-62896000D01*
X138970000Y-62896000D02*
X136430000Y-62896000D01*
X137954000Y-56800000D02*
X137954000Y-62896000D01*
X137446000Y-56800000D02*
X137954000Y-56800000D01*
X137446000Y-62896000D02*
X137446000Y-56800000D01*
X138970000Y-65436000D02*
X138970000Y-62896000D01*
X136430000Y-65436000D02*
X138970000Y-65436000D01*
X136430000Y-65436000D02*
X136430000Y-62896000D01*
X141510000Y-65436000D02*
X141510000Y-62896000D01*
X141510000Y-65436000D02*
X144050000Y-65436000D01*
X144050000Y-65436000D02*
X144050000Y-62896000D01*
X142526000Y-62896000D02*
X142526000Y-56800000D01*
X142526000Y-56800000D02*
X143034000Y-56800000D01*
X143034000Y-56800000D02*
X143034000Y-62896000D01*
X144050000Y-62896000D02*
X141510000Y-62896000D01*
X141510000Y-62896000D02*
X138970000Y-62896000D01*
X140494000Y-56800000D02*
X140494000Y-62896000D01*
X139986000Y-56800000D02*
X140494000Y-56800000D01*
X139986000Y-62896000D02*
X139986000Y-56800000D01*
X141510000Y-65436000D02*
X141510000Y-62896000D01*
X138970000Y-65436000D02*
X141510000Y-65436000D01*
X138970000Y-65436000D02*
X138970000Y-62896000D01*
X128810000Y-65436000D02*
X128810000Y-62896000D01*
X128810000Y-65436000D02*
X131350000Y-65436000D01*
X131350000Y-65436000D02*
X131350000Y-62896000D01*
X129826000Y-62896000D02*
X129826000Y-56800000D01*
X129826000Y-56800000D02*
X130334000Y-56800000D01*
X130334000Y-56800000D02*
X130334000Y-62896000D01*
X131350000Y-62896000D02*
X128810000Y-62896000D01*
X133890000Y-62896000D02*
X131350000Y-62896000D01*
X132874000Y-56800000D02*
X132874000Y-62896000D01*
X132366000Y-56800000D02*
X132874000Y-56800000D01*
X132366000Y-62896000D02*
X132366000Y-56800000D01*
X133890000Y-65436000D02*
X133890000Y-62896000D01*
X131350000Y-65436000D02*
X133890000Y-65436000D01*
X131350000Y-65436000D02*
X131350000Y-62896000D01*
X126270000Y-65436000D02*
X126270000Y-62896000D01*
X126270000Y-65436000D02*
X128810000Y-65436000D01*
X128810000Y-65436000D02*
X128810000Y-62896000D01*
X127286000Y-62896000D02*
X127286000Y-56800000D01*
X127286000Y-56800000D02*
X127794000Y-56800000D01*
X127794000Y-56800000D02*
X127794000Y-62896000D01*
X128810000Y-62896000D02*
X126270000Y-62896000D01*
X126270000Y-62896000D02*
X123730000Y-62896000D01*
X125254000Y-56800000D02*
X125254000Y-62896000D01*
X124746000Y-56800000D02*
X125254000Y-56800000D01*
X124746000Y-62896000D02*
X124746000Y-56800000D01*
X126270000Y-65436000D02*
X126270000Y-62896000D01*
X123730000Y-65436000D02*
X126270000Y-65436000D01*
X123730000Y-65436000D02*
X123730000Y-62896000D01*
X172596000Y-74243000D02*
X172796000Y-74243000D01*
X175190000Y-74243000D02*
X175010000Y-74243000D01*
X174879643Y-77470744D02*
G75*
G03X175196000Y-74243000I-1003643J1727744D01*
G01*
X175009068Y-76795006D02*
G75*
G03X175010000Y-74692000I-1133068J1052006D01*
G01*
X172569274Y-74255780D02*
G75*
G03X172916000Y-77493000I1306726J-1497220D01*
G01*
X172796747Y-74729111D02*
G75*
G03X172816000Y-76777000I1079253J-1013889D01*
G01*
X179046000Y-74323000D02*
X179246000Y-74323000D01*
X181640000Y-74323000D02*
X181460000Y-74323000D01*
X181329643Y-77550744D02*
G75*
G03X181646000Y-74323000I-1003643J1727744D01*
G01*
X181459068Y-76875006D02*
G75*
G03X181460000Y-74772000I-1133068J1052006D01*
G01*
X179019274Y-74335780D02*
G75*
G03X179366000Y-77573000I1306726J-1497220D01*
G01*
X179246747Y-74809111D02*
G75*
G03X179266000Y-76857000I1079253J-1013889D01*
G01*
D13*
X140470000Y-80415000D02*
X138700000Y-80415000D01*
X138700000Y-80415000D02*
X138700000Y-98435000D01*
X138700000Y-98435000D02*
X144240000Y-98435000D01*
X144240000Y-98435000D02*
X144240000Y-80415000D01*
X144240000Y-80415000D02*
X142470000Y-80415000D01*
X136270000Y-80415000D02*
X136270000Y-98435000D01*
X136270000Y-98435000D02*
X146670000Y-98435000D01*
X146670000Y-98435000D02*
X146670000Y-80415000D01*
X146670000Y-80415000D02*
X136270000Y-80415000D01*
X142470000Y-80415000D02*
G75*
G02X140470000Y-80415000I-1000000J0D01*
G01*
X112100000Y-80630000D02*
X110330000Y-80630000D01*
X110330000Y-80630000D02*
X110330000Y-101190000D01*
X110330000Y-101190000D02*
X115870000Y-101190000D01*
X115870000Y-101190000D02*
X115870000Y-80630000D01*
X115870000Y-80630000D02*
X114100000Y-80630000D01*
X107900000Y-80630000D02*
X107900000Y-101190000D01*
X107900000Y-101190000D02*
X118300000Y-101190000D01*
X118300000Y-101190000D02*
X118300000Y-80630000D01*
X118300000Y-80630000D02*
X107900000Y-80630000D01*
X114100000Y-80630000D02*
G75*
G02X112100000Y-80630000I-1000000J0D01*
G01*
X125738000Y-80478500D02*
X123968000Y-80478500D01*
X123968000Y-80478500D02*
X123968000Y-98498500D01*
X123968000Y-98498500D02*
X129508000Y-98498500D01*
X129508000Y-98498500D02*
X129508000Y-80478500D01*
X129508000Y-80478500D02*
X127738000Y-80478500D01*
X121538000Y-80478500D02*
X121538000Y-98498500D01*
X121538000Y-98498500D02*
X131938000Y-98498500D01*
X131938000Y-98498500D02*
X131938000Y-80478500D01*
X131938000Y-80478500D02*
X121538000Y-80478500D01*
X127738000Y-80478500D02*
G75*
G02X125738000Y-80478500I-1000000J0D01*
G01*
X125484000Y-104228000D02*
X123714000Y-104228000D01*
X123714000Y-104228000D02*
X123714000Y-122248000D01*
X123714000Y-122248000D02*
X129254000Y-122248000D01*
X129254000Y-122248000D02*
X129254000Y-104228000D01*
X129254000Y-104228000D02*
X127484000Y-104228000D01*
X121284000Y-104228000D02*
X121284000Y-122248000D01*
X121284000Y-122248000D02*
X131684000Y-122248000D01*
X131684000Y-122248000D02*
X131684000Y-104228000D01*
X131684000Y-104228000D02*
X121284000Y-104228000D01*
X127484000Y-104228000D02*
G75*
G02X125484000Y-104228000I-1000000J0D01*
G01*
X158100000Y-87405000D02*
X152520000Y-87405000D01*
X152520000Y-87405000D02*
X152520000Y-128285000D01*
X152520000Y-128285000D02*
X165680000Y-128285000D01*
X165680000Y-128285000D02*
X165680000Y-87405000D01*
X165680000Y-87405000D02*
X160100000Y-87405000D01*
X150090000Y-87405000D02*
X150090000Y-128285000D01*
X150090000Y-128285000D02*
X168110000Y-128285000D01*
X168110000Y-128285000D02*
X168110000Y-87405000D01*
X168110000Y-87405000D02*
X150090000Y-87405000D01*
X160100000Y-87405000D02*
G75*
G02X158100000Y-87405000I-1000000J0D01*
G01*
X146500000Y-79580000D02*
X142380000Y-79580000D01*
X146500000Y-76960000D02*
X142380000Y-76960000D01*
X146500000Y-79580000D02*
X146500000Y-79020000D01*
X146500000Y-77520000D02*
X146500000Y-76960000D01*
X142380000Y-79580000D02*
X142380000Y-79020000D01*
X142380000Y-77520000D02*
X142380000Y-76960000D01*
X146408000Y-103372000D02*
X142288000Y-103372000D01*
X146408000Y-100752000D02*
X142288000Y-100752000D01*
X146408000Y-103372000D02*
X146408000Y-102812000D01*
X146408000Y-101312000D02*
X146408000Y-100752000D01*
X142288000Y-103372000D02*
X142288000Y-102812000D01*
X142288000Y-101312000D02*
X142288000Y-100752000D01*
X118260000Y-79920000D02*
X114140000Y-79920000D01*
X118260000Y-77300000D02*
X114140000Y-77300000D01*
X118260000Y-79920000D02*
X118260000Y-79360000D01*
X118260000Y-77860000D02*
X118260000Y-77300000D01*
X114140000Y-79920000D02*
X114140000Y-79360000D01*
X114140000Y-77860000D02*
X114140000Y-77300000D01*
X131676000Y-79368500D02*
X127556000Y-79368500D01*
X131676000Y-76748500D02*
X127556000Y-76748500D01*
X131676000Y-79368500D02*
X131676000Y-78808500D01*
X131676000Y-77308500D02*
X131676000Y-76748500D01*
X127556000Y-79368500D02*
X127556000Y-78808500D01*
X127556000Y-77308500D02*
X127556000Y-76748500D01*
X131690000Y-103360000D02*
X127570000Y-103360000D01*
X131690000Y-100740000D02*
X127570000Y-100740000D01*
X131690000Y-103360000D02*
X131690000Y-102800000D01*
X131690000Y-101300000D02*
X131690000Y-100740000D01*
X127570000Y-103360000D02*
X127570000Y-102800000D01*
X127570000Y-101300000D02*
X127570000Y-100740000D01*
X168040000Y-86510000D02*
X163920000Y-86510000D01*
X168040000Y-83890000D02*
X163920000Y-83890000D01*
X168040000Y-86510000D02*
X168040000Y-85950000D01*
X168040000Y-84450000D02*
X168040000Y-83890000D01*
X163920000Y-86510000D02*
X163920000Y-85950000D01*
X163920000Y-84450000D02*
X163920000Y-83890000D01*
X190870000Y-91560000D02*
X186750000Y-91560000D01*
X190870000Y-88940000D02*
X186750000Y-88940000D01*
X190870000Y-91560000D02*
X190870000Y-91000000D01*
X190870000Y-89500000D02*
X190870000Y-88940000D01*
X186750000Y-91560000D02*
X186750000Y-91000000D01*
X186750000Y-89500000D02*
X186750000Y-88940000D01*
X116870000Y-66500000D02*
G75*
G03X116870000Y-66500000I-2620000J0D01*
G01*
X114250000Y-63920000D02*
X114250000Y-69080000D01*
X114290000Y-63920000D02*
X114290000Y-69080000D01*
X114330000Y-63921000D02*
X114330000Y-69079000D01*
X114370000Y-63922000D02*
X114370000Y-69078000D01*
X114410000Y-63924000D02*
X114410000Y-69076000D01*
X114450000Y-63927000D02*
X114450000Y-69073000D01*
X114490000Y-63931000D02*
X114490000Y-65460000D01*
X114490000Y-67540000D02*
X114490000Y-69069000D01*
X114530000Y-63935000D02*
X114530000Y-65460000D01*
X114530000Y-67540000D02*
X114530000Y-69065000D01*
X114570000Y-63939000D02*
X114570000Y-65460000D01*
X114570000Y-67540000D02*
X114570000Y-69061000D01*
X114610000Y-63944000D02*
X114610000Y-65460000D01*
X114610000Y-67540000D02*
X114610000Y-69056000D01*
X114650000Y-63950000D02*
X114650000Y-65460000D01*
X114650000Y-67540000D02*
X114650000Y-69050000D01*
X114690000Y-63957000D02*
X114690000Y-65460000D01*
X114690000Y-67540000D02*
X114690000Y-69043000D01*
X114730000Y-63964000D02*
X114730000Y-65460000D01*
X114730000Y-67540000D02*
X114730000Y-69036000D01*
X114770000Y-63972000D02*
X114770000Y-65460000D01*
X114770000Y-67540000D02*
X114770000Y-69028000D01*
X114810000Y-63980000D02*
X114810000Y-65460000D01*
X114810000Y-67540000D02*
X114810000Y-69020000D01*
X114850000Y-63989000D02*
X114850000Y-65460000D01*
X114850000Y-67540000D02*
X114850000Y-69011000D01*
X114890000Y-63999000D02*
X114890000Y-65460000D01*
X114890000Y-67540000D02*
X114890000Y-69001000D01*
X114930000Y-64009000D02*
X114930000Y-65460000D01*
X114930000Y-67540000D02*
X114930000Y-68991000D01*
X114971000Y-64020000D02*
X114971000Y-65460000D01*
X114971000Y-67540000D02*
X114971000Y-68980000D01*
X115011000Y-64032000D02*
X115011000Y-65460000D01*
X115011000Y-67540000D02*
X115011000Y-68968000D01*
X115051000Y-64045000D02*
X115051000Y-65460000D01*
X115051000Y-67540000D02*
X115051000Y-68955000D01*
X115091000Y-64058000D02*
X115091000Y-65460000D01*
X115091000Y-67540000D02*
X115091000Y-68942000D01*
X115131000Y-64072000D02*
X115131000Y-65460000D01*
X115131000Y-67540000D02*
X115131000Y-68928000D01*
X115171000Y-64086000D02*
X115171000Y-65460000D01*
X115171000Y-67540000D02*
X115171000Y-68914000D01*
X115211000Y-64102000D02*
X115211000Y-65460000D01*
X115211000Y-67540000D02*
X115211000Y-68898000D01*
X115251000Y-64118000D02*
X115251000Y-65460000D01*
X115251000Y-67540000D02*
X115251000Y-68882000D01*
X115291000Y-64135000D02*
X115291000Y-65460000D01*
X115291000Y-67540000D02*
X115291000Y-68865000D01*
X115331000Y-64152000D02*
X115331000Y-65460000D01*
X115331000Y-67540000D02*
X115331000Y-68848000D01*
X115371000Y-64171000D02*
X115371000Y-65460000D01*
X115371000Y-67540000D02*
X115371000Y-68829000D01*
X115411000Y-64190000D02*
X115411000Y-65460000D01*
X115411000Y-67540000D02*
X115411000Y-68810000D01*
X115451000Y-64210000D02*
X115451000Y-65460000D01*
X115451000Y-67540000D02*
X115451000Y-68790000D01*
X115491000Y-64232000D02*
X115491000Y-65460000D01*
X115491000Y-67540000D02*
X115491000Y-68768000D01*
X115531000Y-64253000D02*
X115531000Y-65460000D01*
X115531000Y-67540000D02*
X115531000Y-68747000D01*
X115571000Y-64276000D02*
X115571000Y-65460000D01*
X115571000Y-67540000D02*
X115571000Y-68724000D01*
X115611000Y-64300000D02*
X115611000Y-65460000D01*
X115611000Y-67540000D02*
X115611000Y-68700000D01*
X115651000Y-64325000D02*
X115651000Y-65460000D01*
X115651000Y-67540000D02*
X115651000Y-68675000D01*
X115691000Y-64351000D02*
X115691000Y-65460000D01*
X115691000Y-67540000D02*
X115691000Y-68649000D01*
X115731000Y-64378000D02*
X115731000Y-65460000D01*
X115731000Y-67540000D02*
X115731000Y-68622000D01*
X115771000Y-64405000D02*
X115771000Y-65460000D01*
X115771000Y-67540000D02*
X115771000Y-68595000D01*
X115811000Y-64435000D02*
X115811000Y-65460000D01*
X115811000Y-67540000D02*
X115811000Y-68565000D01*
X115851000Y-64465000D02*
X115851000Y-65460000D01*
X115851000Y-67540000D02*
X115851000Y-68535000D01*
X115891000Y-64496000D02*
X115891000Y-65460000D01*
X115891000Y-67540000D02*
X115891000Y-68504000D01*
X115931000Y-64529000D02*
X115931000Y-65460000D01*
X115931000Y-67540000D02*
X115931000Y-68471000D01*
X115971000Y-64563000D02*
X115971000Y-65460000D01*
X115971000Y-67540000D02*
X115971000Y-68437000D01*
X116011000Y-64599000D02*
X116011000Y-65460000D01*
X116011000Y-67540000D02*
X116011000Y-68401000D01*
X116051000Y-64636000D02*
X116051000Y-65460000D01*
X116051000Y-67540000D02*
X116051000Y-68364000D01*
X116091000Y-64674000D02*
X116091000Y-65460000D01*
X116091000Y-67540000D02*
X116091000Y-68326000D01*
X116131000Y-64715000D02*
X116131000Y-65460000D01*
X116131000Y-67540000D02*
X116131000Y-68285000D01*
X116171000Y-64757000D02*
X116171000Y-65460000D01*
X116171000Y-67540000D02*
X116171000Y-68243000D01*
X116211000Y-64801000D02*
X116211000Y-65460000D01*
X116211000Y-67540000D02*
X116211000Y-68199000D01*
X116251000Y-64847000D02*
X116251000Y-65460000D01*
X116251000Y-67540000D02*
X116251000Y-68153000D01*
X116291000Y-64895000D02*
X116291000Y-65460000D01*
X116291000Y-67540000D02*
X116291000Y-68105000D01*
X116331000Y-64946000D02*
X116331000Y-65460000D01*
X116331000Y-67540000D02*
X116331000Y-68054000D01*
X116371000Y-65000000D02*
X116371000Y-65460000D01*
X116371000Y-67540000D02*
X116371000Y-68000000D01*
X116411000Y-65057000D02*
X116411000Y-65460000D01*
X116411000Y-67540000D02*
X116411000Y-67943000D01*
X116451000Y-65117000D02*
X116451000Y-65460000D01*
X116451000Y-67540000D02*
X116451000Y-67883000D01*
X116491000Y-65181000D02*
X116491000Y-65460000D01*
X116491000Y-67540000D02*
X116491000Y-67819000D01*
X116531000Y-65249000D02*
X116531000Y-65460000D01*
X116531000Y-67540000D02*
X116531000Y-67751000D01*
X116571000Y-65322000D02*
X116571000Y-67678000D01*
X116611000Y-65402000D02*
X116611000Y-67598000D01*
X116651000Y-65489000D02*
X116651000Y-67511000D01*
X116691000Y-65585000D02*
X116691000Y-67415000D01*
X116731000Y-65695000D02*
X116731000Y-67305000D01*
X116771000Y-65823000D02*
X116771000Y-67177000D01*
X116811000Y-65982000D02*
X116811000Y-67018000D01*
X116851000Y-66216000D02*
X116851000Y-66784000D01*
X111445225Y-65025000D02*
X111945225Y-65025000D01*
X111695225Y-64775000D02*
X111695225Y-65275000D01*
D11*
X191666666Y-71122380D02*
X191666666Y-71836666D01*
X191619047Y-71979523D01*
X191523809Y-72074761D01*
X191380952Y-72122380D01*
X191285714Y-72122380D01*
X192142857Y-72122380D02*
X192142857Y-71122380D01*
X192523809Y-71122380D01*
X192619047Y-71170000D01*
X192666666Y-71217619D01*
X192714285Y-71312857D01*
X192714285Y-71455714D01*
X192666666Y-71550952D01*
X192619047Y-71598571D01*
X192523809Y-71646190D01*
X192142857Y-71646190D01*
X193571428Y-71455714D02*
X193571428Y-72122380D01*
X193333333Y-71074761D02*
X193095238Y-71789047D01*
X193714285Y-71789047D01*
X195166666Y-71122380D02*
X195166666Y-71836666D01*
X195119047Y-71979523D01*
X195023809Y-72074761D01*
X194880952Y-72122380D01*
X194785714Y-72122380D01*
X195642857Y-72122380D02*
X195642857Y-71122380D01*
X196023809Y-71122380D01*
X196119047Y-71170000D01*
X196166666Y-71217619D01*
X196214285Y-71312857D01*
X196214285Y-71455714D01*
X196166666Y-71550952D01*
X196119047Y-71598571D01*
X196023809Y-71646190D01*
X195642857Y-71646190D01*
X196547619Y-71122380D02*
X197166666Y-71122380D01*
X196833333Y-71503333D01*
X196976190Y-71503333D01*
X197071428Y-71550952D01*
X197119047Y-71598571D01*
X197166666Y-71693809D01*
X197166666Y-71931904D01*
X197119047Y-72027142D01*
X197071428Y-72074761D01*
X196976190Y-72122380D01*
X196690476Y-72122380D01*
X196595238Y-72074761D01*
X196547619Y-72027142D01*
X196166666Y-88962380D02*
X196166666Y-89676666D01*
X196119047Y-89819523D01*
X196023809Y-89914761D01*
X195880952Y-89962380D01*
X195785714Y-89962380D01*
X196547619Y-88962380D02*
X197166666Y-88962380D01*
X196833333Y-89343333D01*
X196976190Y-89343333D01*
X197071428Y-89390952D01*
X197119047Y-89438571D01*
X197166666Y-89533809D01*
X197166666Y-89771904D01*
X197119047Y-89867142D01*
X197071428Y-89914761D01*
X196976190Y-89962380D01*
X196690476Y-89962380D01*
X196595238Y-89914761D01*
X196547619Y-89867142D01*
X104286666Y-84982380D02*
X104286666Y-85696666D01*
X104239047Y-85839523D01*
X104143809Y-85934761D01*
X104000952Y-85982380D01*
X103905714Y-85982380D01*
X104762857Y-85982380D02*
X104762857Y-84982380D01*
X105143809Y-84982380D01*
X105239047Y-85030000D01*
X105286666Y-85077619D01*
X105334285Y-85172857D01*
X105334285Y-85315714D01*
X105286666Y-85410952D01*
X105239047Y-85458571D01*
X105143809Y-85506190D01*
X104762857Y-85506190D01*
X105715238Y-85077619D02*
X105762857Y-85030000D01*
X105858095Y-84982380D01*
X106096190Y-84982380D01*
X106191428Y-85030000D01*
X106239047Y-85077619D01*
X106286666Y-85172857D01*
X106286666Y-85268095D01*
X106239047Y-85410952D01*
X105667619Y-85982380D01*
X106286666Y-85982380D01*
X122673333Y-131287142D02*
X122625714Y-131334761D01*
X122482857Y-131382380D01*
X122387619Y-131382380D01*
X122244761Y-131334761D01*
X122149523Y-131239523D01*
X122101904Y-131144285D01*
X122054285Y-130953809D01*
X122054285Y-130810952D01*
X122101904Y-130620476D01*
X122149523Y-130525238D01*
X122244761Y-130430000D01*
X122387619Y-130382380D01*
X122482857Y-130382380D01*
X122625714Y-130430000D01*
X122673333Y-130477619D01*
X123149523Y-131382380D02*
X123340000Y-131382380D01*
X123435238Y-131334761D01*
X123482857Y-131287142D01*
X123578095Y-131144285D01*
X123625714Y-130953809D01*
X123625714Y-130572857D01*
X123578095Y-130477619D01*
X123530476Y-130430000D01*
X123435238Y-130382380D01*
X123244761Y-130382380D01*
X123149523Y-130430000D01*
X123101904Y-130477619D01*
X123054285Y-130572857D01*
X123054285Y-130810952D01*
X123101904Y-130906190D01*
X123149523Y-130953809D01*
X123244761Y-131001428D01*
X123435238Y-131001428D01*
X123530476Y-130953809D01*
X123578095Y-130906190D01*
X123625714Y-130810952D01*
X117967380Y-115423333D02*
X118681666Y-115423333D01*
X118824523Y-115470952D01*
X118919761Y-115566190D01*
X118967380Y-115709047D01*
X118967380Y-115804285D01*
X118967380Y-114947142D02*
X117967380Y-114947142D01*
X117967380Y-114566190D01*
X118015000Y-114470952D01*
X118062619Y-114423333D01*
X118157857Y-114375714D01*
X118300714Y-114375714D01*
X118395952Y-114423333D01*
X118443571Y-114470952D01*
X118491190Y-114566190D01*
X118491190Y-114947142D01*
X118967380Y-113423333D02*
X118967380Y-113994761D01*
X118967380Y-113709047D02*
X117967380Y-113709047D01*
X118110238Y-113804285D01*
X118205476Y-113899523D01*
X118253095Y-113994761D01*
X128814761Y-131347619D02*
X128719523Y-131300000D01*
X128624285Y-131204761D01*
X128481428Y-131061904D01*
X128386190Y-131014285D01*
X128290952Y-131014285D01*
X128338571Y-131252380D02*
X128243333Y-131204761D01*
X128148095Y-131109523D01*
X128100476Y-130919047D01*
X128100476Y-130585714D01*
X128148095Y-130395238D01*
X128243333Y-130300000D01*
X128338571Y-130252380D01*
X128529047Y-130252380D01*
X128624285Y-130300000D01*
X128719523Y-130395238D01*
X128767142Y-130585714D01*
X128767142Y-130919047D01*
X128719523Y-131109523D01*
X128624285Y-131204761D01*
X128529047Y-131252380D01*
X128338571Y-131252380D01*
X129719523Y-131252380D02*
X129148095Y-131252380D01*
X129433809Y-131252380D02*
X129433809Y-130252380D01*
X129338571Y-130395238D01*
X129243333Y-130490476D01*
X129148095Y-130538095D01*
X177663333Y-82228380D02*
X177330000Y-81752190D01*
X177091904Y-82228380D02*
X177091904Y-81228380D01*
X177472857Y-81228380D01*
X177568095Y-81276000D01*
X177615714Y-81323619D01*
X177663333Y-81418857D01*
X177663333Y-81561714D01*
X177615714Y-81656952D01*
X177568095Y-81704571D01*
X177472857Y-81752190D01*
X177091904Y-81752190D01*
X178615714Y-82228380D02*
X178044285Y-82228380D01*
X178330000Y-82228380D02*
X178330000Y-81228380D01*
X178234761Y-81371238D01*
X178139523Y-81466476D01*
X178044285Y-81514095D01*
X177663333Y-85252380D02*
X177330000Y-84776190D01*
X177091904Y-85252380D02*
X177091904Y-84252380D01*
X177472857Y-84252380D01*
X177568095Y-84300000D01*
X177615714Y-84347619D01*
X177663333Y-84442857D01*
X177663333Y-84585714D01*
X177615714Y-84680952D01*
X177568095Y-84728571D01*
X177472857Y-84776190D01*
X177091904Y-84776190D01*
X178044285Y-84347619D02*
X178091904Y-84300000D01*
X178187142Y-84252380D01*
X178425238Y-84252380D01*
X178520476Y-84300000D01*
X178568095Y-84347619D01*
X178615714Y-84442857D01*
X178615714Y-84538095D01*
X178568095Y-84680952D01*
X177996666Y-85252380D01*
X178615714Y-85252380D01*
X118887380Y-127821666D02*
X118411190Y-128155000D01*
X118887380Y-128393095D02*
X117887380Y-128393095D01*
X117887380Y-128012142D01*
X117935000Y-127916904D01*
X117982619Y-127869285D01*
X118077857Y-127821666D01*
X118220714Y-127821666D01*
X118315952Y-127869285D01*
X118363571Y-127916904D01*
X118411190Y-128012142D01*
X118411190Y-128393095D01*
X118220714Y-126964523D02*
X118887380Y-126964523D01*
X117839761Y-127202619D02*
X118554047Y-127440714D01*
X118554047Y-126821666D01*
X140695573Y-128127380D02*
X140362240Y-127651190D01*
X140124144Y-128127380D02*
X140124144Y-127127380D01*
X140505097Y-127127380D01*
X140600335Y-127175000D01*
X140647954Y-127222619D01*
X140695573Y-127317857D01*
X140695573Y-127460714D01*
X140647954Y-127555952D01*
X140600335Y-127603571D01*
X140505097Y-127651190D01*
X140124144Y-127651190D01*
X141600335Y-127127380D02*
X141124144Y-127127380D01*
X141076525Y-127603571D01*
X141124144Y-127555952D01*
X141219382Y-127508333D01*
X141457478Y-127508333D01*
X141552716Y-127555952D01*
X141600335Y-127603571D01*
X141647954Y-127698809D01*
X141647954Y-127936904D01*
X141600335Y-128032142D01*
X141552716Y-128079761D01*
X141457478Y-128127380D01*
X141219382Y-128127380D01*
X141124144Y-128079761D01*
X141076525Y-128032142D01*
X118746380Y-107908333D02*
X119460666Y-107908333D01*
X119603523Y-107955952D01*
X119698761Y-108051190D01*
X119746380Y-108194047D01*
X119746380Y-108289285D01*
X118841619Y-107479761D02*
X118794000Y-107432142D01*
X118746380Y-107336904D01*
X118746380Y-107098809D01*
X118794000Y-107003571D01*
X118841619Y-106955952D01*
X118936857Y-106908333D01*
X119032095Y-106908333D01*
X119174952Y-106955952D01*
X119746380Y-107527380D01*
X119746380Y-106908333D01*
X183942380Y-76938095D02*
X182942380Y-76938095D01*
X182942380Y-76700000D01*
X182990000Y-76557142D01*
X183085238Y-76461904D01*
X183180476Y-76414285D01*
X183370952Y-76366666D01*
X183513809Y-76366666D01*
X183704285Y-76414285D01*
X183799523Y-76461904D01*
X183894761Y-76557142D01*
X183942380Y-76700000D01*
X183942380Y-76938095D01*
X182942380Y-76033333D02*
X182942380Y-75414285D01*
X183323333Y-75747619D01*
X183323333Y-75604761D01*
X183370952Y-75509523D01*
X183418571Y-75461904D01*
X183513809Y-75414285D01*
X183751904Y-75414285D01*
X183847142Y-75461904D01*
X183894761Y-75509523D01*
X183942380Y-75604761D01*
X183942380Y-75890476D01*
X183894761Y-75985714D01*
X183847142Y-76033333D01*
X136602095Y-102712380D02*
X136602095Y-103521904D01*
X136649714Y-103617142D01*
X136697333Y-103664761D01*
X136792571Y-103712380D01*
X136983047Y-103712380D01*
X137078285Y-103664761D01*
X137125904Y-103617142D01*
X137173523Y-103521904D01*
X137173523Y-102712380D01*
X137602095Y-102807619D02*
X137649714Y-102760000D01*
X137744952Y-102712380D01*
X137983047Y-102712380D01*
X138078285Y-102760000D01*
X138125904Y-102807619D01*
X138173523Y-102902857D01*
X138173523Y-102998095D01*
X138125904Y-103140952D01*
X137554476Y-103712380D01*
X138173523Y-103712380D01*
X177633333Y-88252380D02*
X177300000Y-87776190D01*
X177061904Y-88252380D02*
X177061904Y-87252380D01*
X177442857Y-87252380D01*
X177538095Y-87300000D01*
X177585714Y-87347619D01*
X177633333Y-87442857D01*
X177633333Y-87585714D01*
X177585714Y-87680952D01*
X177538095Y-87728571D01*
X177442857Y-87776190D01*
X177061904Y-87776190D01*
X177966666Y-87252380D02*
X178585714Y-87252380D01*
X178252380Y-87633333D01*
X178395238Y-87633333D01*
X178490476Y-87680952D01*
X178538095Y-87728571D01*
X178585714Y-87823809D01*
X178585714Y-88061904D01*
X178538095Y-88157142D01*
X178490476Y-88204761D01*
X178395238Y-88252380D01*
X178109523Y-88252380D01*
X178014285Y-88204761D01*
X177966666Y-88157142D01*
X173070095Y-90660380D02*
X173070095Y-91469904D01*
X173117714Y-91565142D01*
X173165333Y-91612761D01*
X173260571Y-91660380D01*
X173451047Y-91660380D01*
X173546285Y-91612761D01*
X173593904Y-91565142D01*
X173641523Y-91469904D01*
X173641523Y-90660380D01*
X174022476Y-90660380D02*
X174689142Y-90660380D01*
X174260571Y-91660380D01*
X121692380Y-64383333D02*
X122406666Y-64383333D01*
X122549523Y-64430952D01*
X122644761Y-64526190D01*
X122692380Y-64669047D01*
X122692380Y-64764285D01*
X122692380Y-63383333D02*
X122692380Y-63954761D01*
X122692380Y-63669047D02*
X121692380Y-63669047D01*
X121835238Y-63764285D01*
X121930476Y-63859523D01*
X121978095Y-63954761D01*
X171302380Y-77090095D02*
X170302380Y-77090095D01*
X170302380Y-76852000D01*
X170350000Y-76709142D01*
X170445238Y-76613904D01*
X170540476Y-76566285D01*
X170730952Y-76518666D01*
X170873809Y-76518666D01*
X171064285Y-76566285D01*
X171159523Y-76613904D01*
X171254761Y-76709142D01*
X171302380Y-76852000D01*
X171302380Y-77090095D01*
X171302380Y-75566285D02*
X171302380Y-76137714D01*
X171302380Y-75852000D02*
X170302380Y-75852000D01*
X170445238Y-75947238D01*
X170540476Y-76042476D01*
X170588095Y-76137714D01*
X171822380Y-74068904D02*
X170822380Y-74068904D01*
X171822380Y-73497476D02*
X171250952Y-73926047D01*
X170822380Y-73497476D02*
X171393809Y-74068904D01*
X177752380Y-77170095D02*
X176752380Y-77170095D01*
X176752380Y-76932000D01*
X176800000Y-76789142D01*
X176895238Y-76693904D01*
X176990476Y-76646285D01*
X177180952Y-76598666D01*
X177323809Y-76598666D01*
X177514285Y-76646285D01*
X177609523Y-76693904D01*
X177704761Y-76789142D01*
X177752380Y-76932000D01*
X177752380Y-77170095D01*
X176847619Y-76217714D02*
X176800000Y-76170095D01*
X176752380Y-76074857D01*
X176752380Y-75836761D01*
X176800000Y-75741523D01*
X176847619Y-75693904D01*
X176942857Y-75646285D01*
X177038095Y-75646285D01*
X177180952Y-75693904D01*
X177752380Y-76265333D01*
X177752380Y-75646285D01*
X178182380Y-74023904D02*
X177182380Y-74023904D01*
X178182380Y-73452476D02*
X177610952Y-73881047D01*
X177182380Y-73452476D02*
X177753809Y-74023904D01*
X136898095Y-78717380D02*
X136898095Y-79526904D01*
X136945714Y-79622142D01*
X136993333Y-79669761D01*
X137088571Y-79717380D01*
X137279047Y-79717380D01*
X137374285Y-79669761D01*
X137421904Y-79622142D01*
X137469523Y-79526904D01*
X137469523Y-78717380D01*
X138469523Y-79717380D02*
X137898095Y-79717380D01*
X138183809Y-79717380D02*
X138183809Y-78717380D01*
X138088571Y-78860238D01*
X137993333Y-78955476D01*
X137898095Y-79003095D01*
X107766095Y-79059380D02*
X107766095Y-79868904D01*
X107813714Y-79964142D01*
X107861333Y-80011761D01*
X107956571Y-80059380D01*
X108147047Y-80059380D01*
X108242285Y-80011761D01*
X108289904Y-79964142D01*
X108337523Y-79868904D01*
X108337523Y-79059380D01*
X108718476Y-79059380D02*
X109337523Y-79059380D01*
X109004190Y-79440333D01*
X109147047Y-79440333D01*
X109242285Y-79487952D01*
X109289904Y-79535571D01*
X109337523Y-79630809D01*
X109337523Y-79868904D01*
X109289904Y-79964142D01*
X109242285Y-80011761D01*
X109147047Y-80059380D01*
X108861333Y-80059380D01*
X108766095Y-80011761D01*
X108718476Y-79964142D01*
X121404095Y-79034880D02*
X121404095Y-79844404D01*
X121451714Y-79939642D01*
X121499333Y-79987261D01*
X121594571Y-80034880D01*
X121785047Y-80034880D01*
X121880285Y-79987261D01*
X121927904Y-79939642D01*
X121975523Y-79844404D01*
X121975523Y-79034880D01*
X122880285Y-79368214D02*
X122880285Y-80034880D01*
X122642190Y-78987261D02*
X122404095Y-79701547D01*
X123023142Y-79701547D01*
X121912095Y-102530380D02*
X121912095Y-103339904D01*
X121959714Y-103435142D01*
X122007333Y-103482761D01*
X122102571Y-103530380D01*
X122293047Y-103530380D01*
X122388285Y-103482761D01*
X122435904Y-103435142D01*
X122483523Y-103339904D01*
X122483523Y-102530380D01*
X123435904Y-102530380D02*
X122959714Y-102530380D01*
X122912095Y-103006571D01*
X122959714Y-102958952D01*
X123054952Y-102911333D01*
X123293047Y-102911333D01*
X123388285Y-102958952D01*
X123435904Y-103006571D01*
X123483523Y-103101809D01*
X123483523Y-103339904D01*
X123435904Y-103435142D01*
X123388285Y-103482761D01*
X123293047Y-103530380D01*
X123054952Y-103530380D01*
X122959714Y-103482761D01*
X122912095Y-103435142D01*
X149956095Y-85834380D02*
X149956095Y-86643904D01*
X150003714Y-86739142D01*
X150051333Y-86786761D01*
X150146571Y-86834380D01*
X150337047Y-86834380D01*
X150432285Y-86786761D01*
X150479904Y-86739142D01*
X150527523Y-86643904D01*
X150527523Y-85834380D01*
X151432285Y-85834380D02*
X151241809Y-85834380D01*
X151146571Y-85882000D01*
X151098952Y-85929619D01*
X151003714Y-86072476D01*
X150956095Y-86262952D01*
X150956095Y-86643904D01*
X151003714Y-86739142D01*
X151051333Y-86786761D01*
X151146571Y-86834380D01*
X151337047Y-86834380D01*
X151432285Y-86786761D01*
X151479904Y-86739142D01*
X151527523Y-86643904D01*
X151527523Y-86405809D01*
X151479904Y-86310571D01*
X151432285Y-86262952D01*
X151337047Y-86215333D01*
X151146571Y-86215333D01*
X151051333Y-86262952D01*
X151003714Y-86310571D01*
X150956095Y-86405809D01*
X145494833Y-76129642D02*
X145447214Y-76177261D01*
X145304357Y-76224880D01*
X145209119Y-76224880D01*
X145066261Y-76177261D01*
X144971023Y-76082023D01*
X144923404Y-75986785D01*
X144875785Y-75796309D01*
X144875785Y-75653452D01*
X144923404Y-75462976D01*
X144971023Y-75367738D01*
X145066261Y-75272500D01*
X145209119Y-75224880D01*
X145304357Y-75224880D01*
X145447214Y-75272500D01*
X145494833Y-75320119D01*
X146447214Y-76224880D02*
X145875785Y-76224880D01*
X146161500Y-76224880D02*
X146161500Y-75224880D01*
X146066261Y-75367738D01*
X145971023Y-75462976D01*
X145875785Y-75510595D01*
X145367833Y-100260142D02*
X145320214Y-100307761D01*
X145177357Y-100355380D01*
X145082119Y-100355380D01*
X144939261Y-100307761D01*
X144844023Y-100212523D01*
X144796404Y-100117285D01*
X144748785Y-99926809D01*
X144748785Y-99783952D01*
X144796404Y-99593476D01*
X144844023Y-99498238D01*
X144939261Y-99403000D01*
X145082119Y-99355380D01*
X145177357Y-99355380D01*
X145320214Y-99403000D01*
X145367833Y-99450619D01*
X145748785Y-99450619D02*
X145796404Y-99403000D01*
X145891642Y-99355380D01*
X146129738Y-99355380D01*
X146224976Y-99403000D01*
X146272595Y-99450619D01*
X146320214Y-99545857D01*
X146320214Y-99641095D01*
X146272595Y-99783952D01*
X145701166Y-100355380D01*
X146320214Y-100355380D01*
X117431833Y-76436142D02*
X117384214Y-76483761D01*
X117241357Y-76531380D01*
X117146119Y-76531380D01*
X117003261Y-76483761D01*
X116908023Y-76388523D01*
X116860404Y-76293285D01*
X116812785Y-76102809D01*
X116812785Y-75959952D01*
X116860404Y-75769476D01*
X116908023Y-75674238D01*
X117003261Y-75579000D01*
X117146119Y-75531380D01*
X117241357Y-75531380D01*
X117384214Y-75579000D01*
X117431833Y-75626619D01*
X117765166Y-75531380D02*
X118384214Y-75531380D01*
X118050880Y-75912333D01*
X118193738Y-75912333D01*
X118288976Y-75959952D01*
X118336595Y-76007571D01*
X118384214Y-76102809D01*
X118384214Y-76340904D01*
X118336595Y-76436142D01*
X118288976Y-76483761D01*
X118193738Y-76531380D01*
X117908023Y-76531380D01*
X117812785Y-76483761D01*
X117765166Y-76436142D01*
X130889833Y-76129642D02*
X130842214Y-76177261D01*
X130699357Y-76224880D01*
X130604119Y-76224880D01*
X130461261Y-76177261D01*
X130366023Y-76082023D01*
X130318404Y-75986785D01*
X130270785Y-75796309D01*
X130270785Y-75653452D01*
X130318404Y-75462976D01*
X130366023Y-75367738D01*
X130461261Y-75272500D01*
X130604119Y-75224880D01*
X130699357Y-75224880D01*
X130842214Y-75272500D01*
X130889833Y-75320119D01*
X131746976Y-75558214D02*
X131746976Y-76224880D01*
X131508880Y-75177261D02*
X131270785Y-75891547D01*
X131889833Y-75891547D01*
X130649833Y-100184642D02*
X130602214Y-100232261D01*
X130459357Y-100279880D01*
X130364119Y-100279880D01*
X130221261Y-100232261D01*
X130126023Y-100137023D01*
X130078404Y-100041785D01*
X130030785Y-99851309D01*
X130030785Y-99708452D01*
X130078404Y-99517976D01*
X130126023Y-99422738D01*
X130221261Y-99327500D01*
X130364119Y-99279880D01*
X130459357Y-99279880D01*
X130602214Y-99327500D01*
X130649833Y-99375119D01*
X131554595Y-99279880D02*
X131078404Y-99279880D01*
X131030785Y-99756071D01*
X131078404Y-99708452D01*
X131173642Y-99660833D01*
X131411738Y-99660833D01*
X131506976Y-99708452D01*
X131554595Y-99756071D01*
X131602214Y-99851309D01*
X131602214Y-100089404D01*
X131554595Y-100184642D01*
X131506976Y-100232261D01*
X131411738Y-100279880D01*
X131173642Y-100279880D01*
X131078404Y-100232261D01*
X131030785Y-100184642D01*
X167063333Y-83271142D02*
X167015714Y-83318761D01*
X166872857Y-83366380D01*
X166777619Y-83366380D01*
X166634761Y-83318761D01*
X166539523Y-83223523D01*
X166491904Y-83128285D01*
X166444285Y-82937809D01*
X166444285Y-82794952D01*
X166491904Y-82604476D01*
X166539523Y-82509238D01*
X166634761Y-82414000D01*
X166777619Y-82366380D01*
X166872857Y-82366380D01*
X167015714Y-82414000D01*
X167063333Y-82461619D01*
X167920476Y-82366380D02*
X167730000Y-82366380D01*
X167634761Y-82414000D01*
X167587142Y-82461619D01*
X167491904Y-82604476D01*
X167444285Y-82794952D01*
X167444285Y-83175904D01*
X167491904Y-83271142D01*
X167539523Y-83318761D01*
X167634761Y-83366380D01*
X167825238Y-83366380D01*
X167920476Y-83318761D01*
X167968095Y-83271142D01*
X168015714Y-83175904D01*
X168015714Y-82937809D01*
X167968095Y-82842571D01*
X167920476Y-82794952D01*
X167825238Y-82747333D01*
X167634761Y-82747333D01*
X167539523Y-82794952D01*
X167491904Y-82842571D01*
X167444285Y-82937809D01*
X189679333Y-88575142D02*
X189631714Y-88622761D01*
X189488857Y-88670380D01*
X189393619Y-88670380D01*
X189250761Y-88622761D01*
X189155523Y-88527523D01*
X189107904Y-88432285D01*
X189060285Y-88241809D01*
X189060285Y-88098952D01*
X189107904Y-87908476D01*
X189155523Y-87813238D01*
X189250761Y-87718000D01*
X189393619Y-87670380D01*
X189488857Y-87670380D01*
X189631714Y-87718000D01*
X189679333Y-87765619D01*
X190012666Y-87670380D02*
X190679333Y-87670380D01*
X190250761Y-88670380D01*
X118548333Y-66857142D02*
X118500714Y-66904761D01*
X118357857Y-66952380D01*
X118262619Y-66952380D01*
X118119761Y-66904761D01*
X118024523Y-66809523D01*
X117976904Y-66714285D01*
X117929285Y-66523809D01*
X117929285Y-66380952D01*
X117976904Y-66190476D01*
X118024523Y-66095238D01*
X118119761Y-66000000D01*
X118262619Y-65952380D01*
X118357857Y-65952380D01*
X118500714Y-66000000D01*
X118548333Y-66047619D01*
X119119761Y-66380952D02*
X119024523Y-66333333D01*
X118976904Y-66285714D01*
X118929285Y-66190476D01*
X118929285Y-66142857D01*
X118976904Y-66047619D01*
X119024523Y-66000000D01*
X119119761Y-65952380D01*
X119310238Y-65952380D01*
X119405476Y-66000000D01*
X119453095Y-66047619D01*
X119500714Y-66142857D01*
X119500714Y-66190476D01*
X119453095Y-66285714D01*
X119405476Y-66333333D01*
X119310238Y-66380952D01*
X119119761Y-66380952D01*
X119024523Y-66428571D01*
X118976904Y-66476190D01*
X118929285Y-66571428D01*
X118929285Y-66761904D01*
X118976904Y-66857142D01*
X119024523Y-66904761D01*
X119119761Y-66952380D01*
X119310238Y-66952380D01*
X119405476Y-66904761D01*
X119453095Y-66857142D01*
X119500714Y-66761904D01*
X119500714Y-66571428D01*
X119453095Y-66476190D01*
X119405476Y-66428571D01*
X119310238Y-66380952D01*
%LPC*%
D14*
X192500000Y-79080000D03*
X192500000Y-76540000D03*
D15*
X192500000Y-74000000D03*
D14*
X196000000Y-79080000D03*
X196000000Y-76540000D03*
D15*
X196000000Y-74000000D03*
D14*
X196500000Y-102000000D03*
X196500000Y-99460000D03*
X196500000Y-96920000D03*
X196500000Y-94380000D03*
D15*
X196500000Y-91840000D03*
X105120000Y-87860000D03*
D14*
X105120000Y-90400000D03*
X105120000Y-92940000D03*
D16*
X122761000Y-126220000D03*
X122761000Y-128720000D03*
D15*
X110387000Y-114590000D03*
D14*
X112927000Y-114590000D03*
X115467000Y-114590000D03*
D17*
X128700000Y-127910000D03*
X131240000Y-127910000D03*
D18*
X126160000Y-127910000D03*
D19*
X172558000Y-81776000D03*
D16*
X182718000Y-81776000D03*
X182718000Y-84824000D03*
D19*
X172558000Y-84824000D03*
X118420000Y-132420000D03*
D16*
X118420000Y-122260000D03*
X135640000Y-127690000D03*
D19*
X145800000Y-127690000D03*
D15*
X116964000Y-106305000D03*
D14*
X116964000Y-108845000D03*
X114424000Y-106305000D03*
X114424000Y-108845000D03*
X111884000Y-106305000D03*
X111884000Y-108845000D03*
X109344000Y-106305000D03*
X109344000Y-108845000D03*
D20*
X186410000Y-74470000D03*
D21*
X186410000Y-77010000D03*
D22*
X137534000Y-105490000D03*
D19*
X145154000Y-120730000D03*
X137534000Y-108030000D03*
X145154000Y-118190000D03*
X137534000Y-110570000D03*
X145154000Y-115650000D03*
X137534000Y-113110000D03*
X145154000Y-113110000D03*
X137534000Y-115650000D03*
X145154000Y-110570000D03*
X137534000Y-118190000D03*
X145154000Y-108030000D03*
X137534000Y-120730000D03*
X145154000Y-105490000D03*
D16*
X182690000Y-87900000D03*
D19*
X172530000Y-87900000D03*
D22*
X174340000Y-93875000D03*
D19*
X189580000Y-126895000D03*
X174340000Y-96415000D03*
X189580000Y-124355000D03*
X174340000Y-98955000D03*
X189580000Y-121815000D03*
X174340000Y-101495000D03*
X189580000Y-119275000D03*
X174340000Y-104035000D03*
X189580000Y-116735000D03*
X174340000Y-106575000D03*
X189580000Y-114195000D03*
X174340000Y-109115000D03*
X189580000Y-111655000D03*
X174340000Y-111655000D03*
X189580000Y-109115000D03*
X174340000Y-114195000D03*
X189580000Y-106575000D03*
X174340000Y-116735000D03*
X189580000Y-104035000D03*
X174340000Y-119275000D03*
X189580000Y-101495000D03*
X174340000Y-121815000D03*
X189580000Y-98955000D03*
X174340000Y-124355000D03*
X189580000Y-96415000D03*
X174340000Y-126895000D03*
X189580000Y-93875000D03*
D23*
X125000000Y-69500000D03*
D24*
X125000000Y-66960000D03*
X127540000Y-69500000D03*
X127540000Y-66960000D03*
X130080000Y-69500000D03*
X130080000Y-66960000D03*
X132620000Y-69500000D03*
X132620000Y-66960000D03*
X135160000Y-69500000D03*
X135160000Y-66960000D03*
X137700000Y-69500000D03*
X137700000Y-66960000D03*
X140240000Y-69500000D03*
X140240000Y-66960000D03*
X142780000Y-69500000D03*
X142780000Y-66960000D03*
X145320000Y-69500000D03*
X145320000Y-66960000D03*
X147860000Y-69500000D03*
X147860000Y-66960000D03*
X150400000Y-69500000D03*
X150400000Y-66960000D03*
X152940000Y-69500000D03*
X152940000Y-66960000D03*
X155480000Y-69500000D03*
X155480000Y-66960000D03*
X158020000Y-69500000D03*
X158020000Y-66960000D03*
X160560000Y-69500000D03*
X160560000Y-66960000D03*
X163100000Y-69500000D03*
X163100000Y-66960000D03*
X165640000Y-69500000D03*
X165640000Y-66960000D03*
X168180000Y-69500000D03*
X168180000Y-66960000D03*
X170720000Y-69500000D03*
X170720000Y-66960000D03*
X173260000Y-69500000D03*
X173260000Y-66960000D03*
D25*
X173910000Y-74442000D03*
D26*
X173910000Y-76982000D03*
D25*
X180360000Y-74522000D03*
D26*
X180360000Y-77062000D03*
D22*
X137660000Y-81805000D03*
D19*
X145280000Y-97045000D03*
X137660000Y-84345000D03*
X145280000Y-94505000D03*
X137660000Y-86885000D03*
X145280000Y-91965000D03*
X137660000Y-89425000D03*
X145280000Y-89425000D03*
X137660000Y-91965000D03*
X145280000Y-86885000D03*
X137660000Y-94505000D03*
X145280000Y-84345000D03*
X137660000Y-97045000D03*
X145280000Y-81805000D03*
D22*
X109290000Y-82020000D03*
D19*
X116910000Y-99800000D03*
X109290000Y-84560000D03*
X116910000Y-97260000D03*
X109290000Y-87100000D03*
X116910000Y-94720000D03*
X109290000Y-89640000D03*
X116910000Y-92180000D03*
X109290000Y-92180000D03*
X116910000Y-89640000D03*
X109290000Y-94720000D03*
X116910000Y-87100000D03*
X109290000Y-97260000D03*
X116910000Y-84560000D03*
X109290000Y-99800000D03*
X116910000Y-82020000D03*
D22*
X122928000Y-81868500D03*
D19*
X130548000Y-97108500D03*
X122928000Y-84408500D03*
X130548000Y-94568500D03*
X122928000Y-86948500D03*
X130548000Y-92028500D03*
X122928000Y-89488500D03*
X130548000Y-89488500D03*
X122928000Y-92028500D03*
X130548000Y-86948500D03*
X122928000Y-94568500D03*
X130548000Y-84408500D03*
X122928000Y-97108500D03*
X130548000Y-81868500D03*
D22*
X122674000Y-105618000D03*
D19*
X130294000Y-120858000D03*
X122674000Y-108158000D03*
X130294000Y-118318000D03*
X122674000Y-110698000D03*
X130294000Y-115778000D03*
X122674000Y-113238000D03*
X130294000Y-113238000D03*
X122674000Y-115778000D03*
X130294000Y-110698000D03*
X122674000Y-118318000D03*
X130294000Y-108158000D03*
X122674000Y-120858000D03*
X130294000Y-105618000D03*
D22*
X151480000Y-88795000D03*
D19*
X166720000Y-126895000D03*
X151480000Y-91335000D03*
X166720000Y-124355000D03*
X151480000Y-93875000D03*
X166720000Y-121815000D03*
X151480000Y-96415000D03*
X166720000Y-119275000D03*
X151480000Y-98955000D03*
X166720000Y-116735000D03*
X151480000Y-101495000D03*
X166720000Y-114195000D03*
X151480000Y-104035000D03*
X166720000Y-111655000D03*
X151480000Y-106575000D03*
X166720000Y-109115000D03*
X151480000Y-109115000D03*
X166720000Y-106575000D03*
X151480000Y-111655000D03*
X166720000Y-104035000D03*
X151480000Y-114195000D03*
X166720000Y-101495000D03*
X151480000Y-116735000D03*
X166720000Y-98955000D03*
X151480000Y-119275000D03*
X166720000Y-96415000D03*
X151480000Y-121815000D03*
X166720000Y-93875000D03*
X151480000Y-124355000D03*
X166720000Y-91335000D03*
X151480000Y-126895000D03*
X166720000Y-88795000D03*
D16*
X145690000Y-78270000D03*
X143190000Y-78270000D03*
X145598000Y-102062000D03*
X143098000Y-102062000D03*
X117450000Y-78610000D03*
X114950000Y-78610000D03*
X130866000Y-78058500D03*
X128366000Y-78058500D03*
X130880000Y-102050000D03*
X128380000Y-102050000D03*
X167230000Y-85200000D03*
X164730000Y-85200000D03*
X190060000Y-90250000D03*
X187560000Y-90250000D03*
D22*
X113000000Y-66500000D03*
D16*
X115500000Y-66500000D03*
D27*
X105500000Y-64500000D03*
X194500000Y-64500000D03*
X105510000Y-130490000D03*
X194500000Y-130490000D03*
M02*
