G04 #@! TF.GenerationSoftware,KiCad,Pcbnew,(5.0.0-3-g5ebb6b6)*
G04 #@! TF.CreationDate,2019-03-17T21:42:17+09:00*
G04 #@! TF.ProjectId,Z80-1MSRAM,5A38302D314D5352414D2E6B69636164,rev?*
G04 #@! TF.SameCoordinates,Original*
G04 #@! TF.FileFunction,Legend,Top*
G04 #@! TF.FilePolarity,Positive*
%FSLAX46Y46*%
G04 Gerber Fmt 4.6, Leading zero omitted, Abs format (unit mm)*
G04 Created by KiCad (PCBNEW (5.0.0-3-g5ebb6b6)) date *
%MOMM*%
%LPD*%
G01*
G04 APERTURE LIST*
%ADD10C,0.150000*%
%ADD11C,0.300000*%
%ADD12C,0.120000*%
%ADD13R,2.100000X2.100000*%
%ADD14O,2.100000X2.100000*%
%ADD15C,1.900000*%
%ADD16R,1.900000X1.900000*%
%ADD17O,2.000000X2.000000*%
%ADD18C,2.000000*%
%ADD19R,2.200000X2.200000*%
%ADD20C,2.200000*%
%ADD21R,2.000000X2.000000*%
%ADD22R,2.127200X2.127200*%
%ADD23O,2.127200X2.127200*%
%ADD24R,2.400000X2.400000*%
%ADD25C,2.400000*%
%ADD26C,3.600000*%
G04 APERTURE END LIST*
D10*
X110299571Y-105290952D02*
X110204333Y-105243333D01*
X110156714Y-105195714D01*
X110109095Y-105100476D01*
X110109095Y-105052857D01*
X110156714Y-104957619D01*
X110204333Y-104910000D01*
X110299571Y-104862380D01*
X110490047Y-104862380D01*
X110585285Y-104910000D01*
X110632904Y-104957619D01*
X110680523Y-105052857D01*
X110680523Y-105100476D01*
X110632904Y-105195714D01*
X110585285Y-105243333D01*
X110490047Y-105290952D01*
X110299571Y-105290952D01*
X110204333Y-105338571D01*
X110156714Y-105386190D01*
X110109095Y-105481428D01*
X110109095Y-105671904D01*
X110156714Y-105767142D01*
X110204333Y-105814761D01*
X110299571Y-105862380D01*
X110490047Y-105862380D01*
X110585285Y-105814761D01*
X110632904Y-105767142D01*
X110680523Y-105671904D01*
X110680523Y-105481428D01*
X110632904Y-105386190D01*
X110585285Y-105338571D01*
X110490047Y-105290952D01*
X111299571Y-104862380D02*
X111394809Y-104862380D01*
X111490047Y-104910000D01*
X111537666Y-104957619D01*
X111585285Y-105052857D01*
X111632904Y-105243333D01*
X111632904Y-105481428D01*
X111585285Y-105671904D01*
X111537666Y-105767142D01*
X111490047Y-105814761D01*
X111394809Y-105862380D01*
X111299571Y-105862380D01*
X111204333Y-105814761D01*
X111156714Y-105767142D01*
X111109095Y-105671904D01*
X111061476Y-105481428D01*
X111061476Y-105243333D01*
X111109095Y-105052857D01*
X111156714Y-104957619D01*
X111204333Y-104910000D01*
X111299571Y-104862380D01*
X116422870Y-96449900D02*
X116518108Y-96449900D01*
X116613346Y-96497520D01*
X116660965Y-96545139D01*
X116708584Y-96640377D01*
X116756203Y-96830853D01*
X116756203Y-97068948D01*
X116708584Y-97259424D01*
X116660965Y-97354662D01*
X116613346Y-97402281D01*
X116518108Y-97449900D01*
X116422870Y-97449900D01*
X116327632Y-97402281D01*
X116280013Y-97354662D01*
X116232394Y-97259424D01*
X116184775Y-97068948D01*
X116184775Y-96830853D01*
X116232394Y-96640377D01*
X116280013Y-96545139D01*
X116327632Y-96497520D01*
X116422870Y-96449900D01*
X117375251Y-96449900D02*
X117470489Y-96449900D01*
X117565727Y-96497520D01*
X117613346Y-96545139D01*
X117660965Y-96640377D01*
X117708584Y-96830853D01*
X117708584Y-97068948D01*
X117660965Y-97259424D01*
X117613346Y-97354662D01*
X117565727Y-97402281D01*
X117470489Y-97449900D01*
X117375251Y-97449900D01*
X117280013Y-97402281D01*
X117232394Y-97354662D01*
X117184775Y-97259424D01*
X117137156Y-97068948D01*
X117137156Y-96830853D01*
X117184775Y-96640377D01*
X117232394Y-96545139D01*
X117280013Y-96497520D01*
X117375251Y-96449900D01*
X115046190Y-104735380D02*
X115141428Y-104735380D01*
X115236666Y-104783000D01*
X115284285Y-104830619D01*
X115331904Y-104925857D01*
X115379523Y-105116333D01*
X115379523Y-105354428D01*
X115331904Y-105544904D01*
X115284285Y-105640142D01*
X115236666Y-105687761D01*
X115141428Y-105735380D01*
X115046190Y-105735380D01*
X114950952Y-105687761D01*
X114903333Y-105640142D01*
X114855714Y-105544904D01*
X114808095Y-105354428D01*
X114808095Y-105116333D01*
X114855714Y-104925857D01*
X114903333Y-104830619D01*
X114950952Y-104783000D01*
X115046190Y-104735380D01*
X115998571Y-104735380D02*
X116093809Y-104735380D01*
X116189047Y-104783000D01*
X116236666Y-104830619D01*
X116284285Y-104925857D01*
X116331904Y-105116333D01*
X116331904Y-105354428D01*
X116284285Y-105544904D01*
X116236666Y-105640142D01*
X116189047Y-105687761D01*
X116093809Y-105735380D01*
X115998571Y-105735380D01*
X115903333Y-105687761D01*
X115855714Y-105640142D01*
X115808095Y-105544904D01*
X115760476Y-105354428D01*
X115760476Y-105116333D01*
X115808095Y-104925857D01*
X115855714Y-104830619D01*
X115903333Y-104783000D01*
X115998571Y-104735380D01*
X105973571Y-108862142D02*
X106021190Y-108719285D01*
X106068809Y-108671666D01*
X106164047Y-108624047D01*
X106306904Y-108624047D01*
X106402142Y-108671666D01*
X106449761Y-108719285D01*
X106497380Y-108814523D01*
X106497380Y-109195476D01*
X105497380Y-109195476D01*
X105497380Y-108862142D01*
X105545000Y-108766904D01*
X105592619Y-108719285D01*
X105687857Y-108671666D01*
X105783095Y-108671666D01*
X105878333Y-108719285D01*
X105925952Y-108766904D01*
X105973571Y-108862142D01*
X105973571Y-109195476D01*
X106211666Y-108243095D02*
X106211666Y-107766904D01*
X106497380Y-108338333D02*
X105497380Y-108005000D01*
X106497380Y-107671666D01*
X106497380Y-107338333D02*
X105497380Y-107338333D01*
X106497380Y-106766904D01*
X105497380Y-106766904D01*
X106497380Y-106290714D02*
X105497380Y-106290714D01*
X106497380Y-105719285D02*
X105925952Y-106147857D01*
X105497380Y-105719285D02*
X106068809Y-106290714D01*
X106497380Y-104528809D02*
X105497380Y-104528809D01*
X105449761Y-103338333D02*
X106735476Y-104195476D01*
X105497380Y-102814523D02*
X105497380Y-102624047D01*
X105545000Y-102528809D01*
X105640238Y-102433571D01*
X105830714Y-102385952D01*
X106164047Y-102385952D01*
X106354523Y-102433571D01*
X106449761Y-102528809D01*
X106497380Y-102624047D01*
X106497380Y-102814523D01*
X106449761Y-102909761D01*
X106354523Y-103005000D01*
X106164047Y-103052619D01*
X105830714Y-103052619D01*
X105640238Y-103005000D01*
X105545000Y-102909761D01*
X105497380Y-102814523D01*
X106211666Y-101243095D02*
X106211666Y-100766904D01*
X106497380Y-101338333D02*
X105497380Y-101005000D01*
X106497380Y-100671666D01*
X106497380Y-100338333D02*
X105497380Y-100338333D01*
X105497380Y-100100238D01*
X105545000Y-99957380D01*
X105640238Y-99862142D01*
X105735476Y-99814523D01*
X105925952Y-99766904D01*
X106068809Y-99766904D01*
X106259285Y-99814523D01*
X106354523Y-99862142D01*
X106449761Y-99957380D01*
X106497380Y-100100238D01*
X106497380Y-100338333D01*
X106497380Y-99338333D02*
X105497380Y-99338333D01*
X105497380Y-99100238D01*
X105545000Y-98957380D01*
X105640238Y-98862142D01*
X105735476Y-98814523D01*
X105925952Y-98766904D01*
X106068809Y-98766904D01*
X106259285Y-98814523D01*
X106354523Y-98862142D01*
X106449761Y-98957380D01*
X106497380Y-99100238D01*
X106497380Y-99338333D01*
X106497380Y-97766904D02*
X106021190Y-98100238D01*
X106497380Y-98338333D02*
X105497380Y-98338333D01*
X105497380Y-97957380D01*
X105545000Y-97862142D01*
X105592619Y-97814523D01*
X105687857Y-97766904D01*
X105830714Y-97766904D01*
X105925952Y-97814523D01*
X105973571Y-97862142D01*
X106021190Y-97957380D01*
X106021190Y-98338333D01*
X112720809Y-122610571D02*
X112863666Y-122658190D01*
X112911285Y-122705809D01*
X112958904Y-122801047D01*
X112958904Y-122943904D01*
X112911285Y-123039142D01*
X112863666Y-123086761D01*
X112768428Y-123134380D01*
X112387476Y-123134380D01*
X112387476Y-122134380D01*
X112720809Y-122134380D01*
X112816047Y-122182000D01*
X112863666Y-122229619D01*
X112911285Y-122324857D01*
X112911285Y-122420095D01*
X112863666Y-122515333D01*
X112816047Y-122562952D01*
X112720809Y-122610571D01*
X112387476Y-122610571D01*
X113339857Y-122848666D02*
X113816047Y-122848666D01*
X113244619Y-123134380D02*
X113577952Y-122134380D01*
X113911285Y-123134380D01*
X114244619Y-123134380D02*
X114244619Y-122134380D01*
X114816047Y-123134380D01*
X114816047Y-122134380D01*
X115292238Y-123134380D02*
X115292238Y-122134380D01*
X115863666Y-123134380D02*
X115435095Y-122562952D01*
X115863666Y-122134380D02*
X115292238Y-122705809D01*
X117054142Y-123134380D02*
X117054142Y-122134380D01*
X117625571Y-123134380D01*
X117625571Y-122134380D01*
X118244619Y-123134380D02*
X118149380Y-123086761D01*
X118101761Y-123039142D01*
X118054142Y-122943904D01*
X118054142Y-122658190D01*
X118101761Y-122562952D01*
X118149380Y-122515333D01*
X118244619Y-122467714D01*
X118387476Y-122467714D01*
X118482714Y-122515333D01*
X118530333Y-122562952D01*
X118577952Y-122658190D01*
X118577952Y-122943904D01*
X118530333Y-123039142D01*
X118482714Y-123086761D01*
X118387476Y-123134380D01*
X118244619Y-123134380D01*
X119006523Y-123039142D02*
X119054142Y-123086761D01*
X119006523Y-123134380D01*
X118958904Y-123086761D01*
X119006523Y-123039142D01*
X119006523Y-123134380D01*
X108726005Y-96495620D02*
X108535529Y-96495620D01*
X108440291Y-96543240D01*
X108392672Y-96590859D01*
X108297434Y-96733716D01*
X108249815Y-96924192D01*
X108249815Y-97305144D01*
X108297434Y-97400382D01*
X108345053Y-97448001D01*
X108440291Y-97495620D01*
X108630767Y-97495620D01*
X108726005Y-97448001D01*
X108773624Y-97400382D01*
X108821243Y-97305144D01*
X108821243Y-97067049D01*
X108773624Y-96971811D01*
X108726005Y-96924192D01*
X108630767Y-96876573D01*
X108440291Y-96876573D01*
X108345053Y-96924192D01*
X108297434Y-96971811D01*
X108249815Y-97067049D01*
X109440291Y-96495620D02*
X109535529Y-96495620D01*
X109630767Y-96543240D01*
X109678386Y-96590859D01*
X109726005Y-96686097D01*
X109773624Y-96876573D01*
X109773624Y-97114668D01*
X109726005Y-97305144D01*
X109678386Y-97400382D01*
X109630767Y-97448001D01*
X109535529Y-97495620D01*
X109440291Y-97495620D01*
X109345053Y-97448001D01*
X109297434Y-97400382D01*
X109249815Y-97305144D01*
X109202196Y-97114668D01*
X109202196Y-96876573D01*
X109249815Y-96686097D01*
X109297434Y-96590859D01*
X109345053Y-96543240D01*
X109440291Y-96495620D01*
X111342205Y-96828954D02*
X111342205Y-97495620D01*
X111104110Y-96448001D02*
X110866015Y-97162287D01*
X111485062Y-97162287D01*
X112056491Y-96495620D02*
X112151729Y-96495620D01*
X112246967Y-96543240D01*
X112294586Y-96590859D01*
X112342205Y-96686097D01*
X112389824Y-96876573D01*
X112389824Y-97114668D01*
X112342205Y-97305144D01*
X112294586Y-97400382D01*
X112246967Y-97448001D01*
X112151729Y-97495620D01*
X112056491Y-97495620D01*
X111961253Y-97448001D01*
X111913634Y-97400382D01*
X111866015Y-97305144D01*
X111818396Y-97114668D01*
X111818396Y-96876573D01*
X111866015Y-96686097D01*
X111913634Y-96590859D01*
X111961253Y-96543240D01*
X112056491Y-96495620D01*
X113614295Y-96590859D02*
X113661914Y-96543240D01*
X113757152Y-96495620D01*
X113995247Y-96495620D01*
X114090485Y-96543240D01*
X114138104Y-96590859D01*
X114185723Y-96686097D01*
X114185723Y-96781335D01*
X114138104Y-96924192D01*
X113566676Y-97495620D01*
X114185723Y-97495620D01*
X114804771Y-96495620D02*
X114900009Y-96495620D01*
X114995247Y-96543240D01*
X115042866Y-96590859D01*
X115090485Y-96686097D01*
X115138104Y-96876573D01*
X115138104Y-97114668D01*
X115090485Y-97305144D01*
X115042866Y-97400382D01*
X114995247Y-97448001D01*
X114900009Y-97495620D01*
X114804771Y-97495620D01*
X114709533Y-97448001D01*
X114661914Y-97400382D01*
X114614295Y-97305144D01*
X114566676Y-97114668D01*
X114566676Y-96876573D01*
X114614295Y-96686097D01*
X114661914Y-96590859D01*
X114709533Y-96543240D01*
X114804771Y-96495620D01*
D11*
X144394928Y-99643928D02*
X144394928Y-100643928D01*
X142894928Y-100001071D01*
X143894928Y-101858214D02*
X142894928Y-101858214D01*
X144466357Y-101501071D02*
X143394928Y-101143928D01*
X143394928Y-102072500D01*
X142894928Y-102643928D02*
X144394928Y-102643928D01*
X143680642Y-102643928D02*
X143680642Y-103501071D01*
X142894928Y-103501071D02*
X144394928Y-103501071D01*
X143037785Y-105072500D02*
X142966357Y-105001071D01*
X142894928Y-104786785D01*
X142894928Y-104643928D01*
X142966357Y-104429642D01*
X143109214Y-104286785D01*
X143252071Y-104215357D01*
X143537785Y-104143928D01*
X143752071Y-104143928D01*
X144037785Y-104215357D01*
X144180642Y-104286785D01*
X144323500Y-104429642D01*
X144394928Y-104643928D01*
X144394928Y-104786785D01*
X144323500Y-105001071D01*
X144252071Y-105072500D01*
X144394928Y-105572500D02*
X144394928Y-106572500D01*
X142894928Y-105929642D01*
X143894928Y-107786785D02*
X142894928Y-107786785D01*
X144466357Y-107429642D02*
X143394928Y-107072500D01*
X143394928Y-108001071D01*
D10*
X124539523Y-115022380D02*
X124349047Y-115022380D01*
X124253809Y-115070000D01*
X124206190Y-115117619D01*
X124110952Y-115260476D01*
X124063333Y-115450952D01*
X124063333Y-115831904D01*
X124110952Y-115927142D01*
X124158571Y-115974761D01*
X124253809Y-116022380D01*
X124444285Y-116022380D01*
X124539523Y-115974761D01*
X124587142Y-115927142D01*
X124634761Y-115831904D01*
X124634761Y-115593809D01*
X124587142Y-115498571D01*
X124539523Y-115450952D01*
X124444285Y-115403333D01*
X124253809Y-115403333D01*
X124158571Y-115450952D01*
X124110952Y-115498571D01*
X124063333Y-115593809D01*
X125491904Y-115355714D02*
X125491904Y-116022380D01*
X125253809Y-114974761D02*
X125015714Y-115689047D01*
X125634761Y-115689047D01*
X126015714Y-116022380D02*
X126015714Y-115022380D01*
X126110952Y-115641428D02*
X126396666Y-116022380D01*
X126396666Y-115355714D02*
X126015714Y-115736666D01*
X127158571Y-115498571D02*
X127301428Y-115546190D01*
X127349047Y-115593809D01*
X127396666Y-115689047D01*
X127396666Y-115831904D01*
X127349047Y-115927142D01*
X127301428Y-115974761D01*
X127206190Y-116022380D01*
X126825238Y-116022380D01*
X126825238Y-115022380D01*
X127158571Y-115022380D01*
X127253809Y-115070000D01*
X127301428Y-115117619D01*
X127349047Y-115212857D01*
X127349047Y-115308095D01*
X127301428Y-115403333D01*
X127253809Y-115450952D01*
X127158571Y-115498571D01*
X126825238Y-115498571D01*
X123492380Y-117583904D02*
X122492380Y-117583904D01*
X123492380Y-117012476D02*
X122920952Y-117441047D01*
X122492380Y-117012476D02*
X123063809Y-117583904D01*
D11*
X177571471Y-126624542D02*
X178714328Y-125981685D01*
X178714328Y-127267400D01*
X177571471Y-126624542D01*
D10*
X117533809Y-115276380D02*
X117629047Y-115276380D01*
X117724285Y-115324000D01*
X117771904Y-115371619D01*
X117819523Y-115466857D01*
X117867142Y-115657333D01*
X117867142Y-115895428D01*
X117819523Y-116085904D01*
X117771904Y-116181142D01*
X117724285Y-116228761D01*
X117629047Y-116276380D01*
X117533809Y-116276380D01*
X117438571Y-116228761D01*
X117390952Y-116181142D01*
X117343333Y-116085904D01*
X117295714Y-115895428D01*
X117295714Y-115657333D01*
X117343333Y-115466857D01*
X117390952Y-115371619D01*
X117438571Y-115324000D01*
X117533809Y-115276380D01*
X118248095Y-115371619D02*
X118295714Y-115324000D01*
X118390952Y-115276380D01*
X118629047Y-115276380D01*
X118724285Y-115324000D01*
X118771904Y-115371619D01*
X118819523Y-115466857D01*
X118819523Y-115562095D01*
X118771904Y-115704952D01*
X118200476Y-116276380D01*
X118819523Y-116276380D01*
X119248095Y-116276380D02*
X119248095Y-115276380D01*
X119676666Y-116276380D02*
X119676666Y-115752571D01*
X119629047Y-115657333D01*
X119533809Y-115609714D01*
X119390952Y-115609714D01*
X119295714Y-115657333D01*
X119248095Y-115704952D01*
X110903809Y-115276380D02*
X110999047Y-115276380D01*
X111094285Y-115324000D01*
X111141904Y-115371619D01*
X111189523Y-115466857D01*
X111237142Y-115657333D01*
X111237142Y-115895428D01*
X111189523Y-116085904D01*
X111141904Y-116181142D01*
X111094285Y-116228761D01*
X110999047Y-116276380D01*
X110903809Y-116276380D01*
X110808571Y-116228761D01*
X110760952Y-116181142D01*
X110713333Y-116085904D01*
X110665714Y-115895428D01*
X110665714Y-115657333D01*
X110713333Y-115466857D01*
X110760952Y-115371619D01*
X110808571Y-115324000D01*
X110903809Y-115276380D01*
X112189523Y-116276380D02*
X111618095Y-116276380D01*
X111903809Y-116276380D02*
X111903809Y-115276380D01*
X111808571Y-115419238D01*
X111713333Y-115514476D01*
X111618095Y-115562095D01*
X112618095Y-116276380D02*
X112618095Y-115276380D01*
X113046666Y-116276380D02*
X113046666Y-115752571D01*
X112999047Y-115657333D01*
X112903809Y-115609714D01*
X112760952Y-115609714D01*
X112665714Y-115657333D01*
X112618095Y-115704952D01*
D11*
X145004285Y-117508571D02*
X145004285Y-116008571D01*
X145861428Y-117508571D02*
X145218571Y-116651428D01*
X145861428Y-116008571D02*
X145004285Y-116865714D01*
X146361428Y-116008571D02*
X147361428Y-116008571D01*
X146361428Y-117508571D01*
X147361428Y-117508571D01*
X148147142Y-116651428D02*
X148004285Y-116580000D01*
X147932857Y-116508571D01*
X147861428Y-116365714D01*
X147861428Y-116294285D01*
X147932857Y-116151428D01*
X148004285Y-116080000D01*
X148147142Y-116008571D01*
X148432857Y-116008571D01*
X148575714Y-116080000D01*
X148647142Y-116151428D01*
X148718571Y-116294285D01*
X148718571Y-116365714D01*
X148647142Y-116508571D01*
X148575714Y-116580000D01*
X148432857Y-116651428D01*
X148147142Y-116651428D01*
X148004285Y-116722857D01*
X147932857Y-116794285D01*
X147861428Y-116937142D01*
X147861428Y-117222857D01*
X147932857Y-117365714D01*
X148004285Y-117437142D01*
X148147142Y-117508571D01*
X148432857Y-117508571D01*
X148575714Y-117437142D01*
X148647142Y-117365714D01*
X148718571Y-117222857D01*
X148718571Y-116937142D01*
X148647142Y-116794285D01*
X148575714Y-116722857D01*
X148432857Y-116651428D01*
X149647142Y-116008571D02*
X149790000Y-116008571D01*
X149932857Y-116080000D01*
X150004285Y-116151428D01*
X150075714Y-116294285D01*
X150147142Y-116580000D01*
X150147142Y-116937142D01*
X150075714Y-117222857D01*
X150004285Y-117365714D01*
X149932857Y-117437142D01*
X149790000Y-117508571D01*
X149647142Y-117508571D01*
X149504285Y-117437142D01*
X149432857Y-117365714D01*
X149361428Y-117222857D01*
X149290000Y-116937142D01*
X149290000Y-116580000D01*
X149361428Y-116294285D01*
X149432857Y-116151428D01*
X149504285Y-116080000D01*
X149647142Y-116008571D01*
X150790000Y-116937142D02*
X151932857Y-116937142D01*
X153432857Y-117508571D02*
X152575714Y-117508571D01*
X153004285Y-117508571D02*
X153004285Y-116008571D01*
X152861428Y-116222857D01*
X152718571Y-116365714D01*
X152575714Y-116437142D01*
X154075714Y-117508571D02*
X154075714Y-116008571D01*
X154575714Y-117080000D01*
X155075714Y-116008571D01*
X155075714Y-117508571D01*
X155718571Y-117437142D02*
X155932857Y-117508571D01*
X156290000Y-117508571D01*
X156432857Y-117437142D01*
X156504285Y-117365714D01*
X156575714Y-117222857D01*
X156575714Y-117080000D01*
X156504285Y-116937142D01*
X156432857Y-116865714D01*
X156290000Y-116794285D01*
X156004285Y-116722857D01*
X155861428Y-116651428D01*
X155790000Y-116580000D01*
X155718571Y-116437142D01*
X155718571Y-116294285D01*
X155790000Y-116151428D01*
X155861428Y-116080000D01*
X156004285Y-116008571D01*
X156361428Y-116008571D01*
X156575714Y-116080000D01*
X158075714Y-117508571D02*
X157575714Y-116794285D01*
X157218571Y-117508571D02*
X157218571Y-116008571D01*
X157790000Y-116008571D01*
X157932857Y-116080000D01*
X158004285Y-116151428D01*
X158075714Y-116294285D01*
X158075714Y-116508571D01*
X158004285Y-116651428D01*
X157932857Y-116722857D01*
X157790000Y-116794285D01*
X157218571Y-116794285D01*
X158647142Y-117080000D02*
X159361428Y-117080000D01*
X158504285Y-117508571D02*
X159004285Y-116008571D01*
X159504285Y-117508571D01*
X160004285Y-117508571D02*
X160004285Y-116008571D01*
X160504285Y-117080000D01*
X161004285Y-116008571D01*
X161004285Y-117508571D01*
X162861428Y-117365714D02*
X162932857Y-117437142D01*
X162861428Y-117508571D01*
X162790000Y-117437142D01*
X162861428Y-117365714D01*
X162861428Y-117508571D01*
X162861428Y-116580000D02*
X162932857Y-116651428D01*
X162861428Y-116722857D01*
X162790000Y-116651428D01*
X162861428Y-116580000D01*
X162861428Y-116722857D01*
X164575714Y-116008571D02*
X165575714Y-116008571D01*
X164575714Y-117508571D01*
X165575714Y-117508571D01*
X166361428Y-116651428D02*
X166218571Y-116580000D01*
X166147142Y-116508571D01*
X166075714Y-116365714D01*
X166075714Y-116294285D01*
X166147142Y-116151428D01*
X166218571Y-116080000D01*
X166361428Y-116008571D01*
X166647142Y-116008571D01*
X166790000Y-116080000D01*
X166861428Y-116151428D01*
X166932857Y-116294285D01*
X166932857Y-116365714D01*
X166861428Y-116508571D01*
X166790000Y-116580000D01*
X166647142Y-116651428D01*
X166361428Y-116651428D01*
X166218571Y-116722857D01*
X166147142Y-116794285D01*
X166075714Y-116937142D01*
X166075714Y-117222857D01*
X166147142Y-117365714D01*
X166218571Y-117437142D01*
X166361428Y-117508571D01*
X166647142Y-117508571D01*
X166790000Y-117437142D01*
X166861428Y-117365714D01*
X166932857Y-117222857D01*
X166932857Y-116937142D01*
X166861428Y-116794285D01*
X166790000Y-116722857D01*
X166647142Y-116651428D01*
X167861428Y-116008571D02*
X168004285Y-116008571D01*
X168147142Y-116080000D01*
X168218571Y-116151428D01*
X168290000Y-116294285D01*
X168361428Y-116580000D01*
X168361428Y-116937142D01*
X168290000Y-117222857D01*
X168218571Y-117365714D01*
X168147142Y-117437142D01*
X168004285Y-117508571D01*
X167861428Y-117508571D01*
X167718571Y-117437142D01*
X167647142Y-117365714D01*
X167575714Y-117222857D01*
X167504285Y-116937142D01*
X167504285Y-116580000D01*
X167575714Y-116294285D01*
X167647142Y-116151428D01*
X167718571Y-116080000D01*
X167861428Y-116008571D01*
X170932857Y-117508571D02*
X170075714Y-117508571D01*
X170504285Y-117508571D02*
X170504285Y-116008571D01*
X170361428Y-116222857D01*
X170218571Y-116365714D01*
X170075714Y-116437142D01*
X171504285Y-116151428D02*
X171575714Y-116080000D01*
X171718571Y-116008571D01*
X172075714Y-116008571D01*
X172218571Y-116080000D01*
X172290000Y-116151428D01*
X172361428Y-116294285D01*
X172361428Y-116437142D01*
X172290000Y-116651428D01*
X171432857Y-117508571D01*
X172361428Y-117508571D01*
X173218571Y-116651428D02*
X173075714Y-116580000D01*
X173004285Y-116508571D01*
X172932857Y-116365714D01*
X172932857Y-116294285D01*
X173004285Y-116151428D01*
X173075714Y-116080000D01*
X173218571Y-116008571D01*
X173504285Y-116008571D01*
X173647142Y-116080000D01*
X173718571Y-116151428D01*
X173790000Y-116294285D01*
X173790000Y-116365714D01*
X173718571Y-116508571D01*
X173647142Y-116580000D01*
X173504285Y-116651428D01*
X173218571Y-116651428D01*
X173075714Y-116722857D01*
X173004285Y-116794285D01*
X172932857Y-116937142D01*
X172932857Y-117222857D01*
X173004285Y-117365714D01*
X173075714Y-117437142D01*
X173218571Y-117508571D01*
X173504285Y-117508571D01*
X173647142Y-117437142D01*
X173718571Y-117365714D01*
X173790000Y-117222857D01*
X173790000Y-116937142D01*
X173718571Y-116794285D01*
X173647142Y-116722857D01*
X173504285Y-116651428D01*
X174432857Y-117508571D02*
X174432857Y-116008571D01*
X174575714Y-116937142D02*
X175004285Y-117508571D01*
X175004285Y-116508571D02*
X174432857Y-117080000D01*
X176147142Y-116722857D02*
X176361428Y-116794285D01*
X176432857Y-116865714D01*
X176504285Y-117008571D01*
X176504285Y-117222857D01*
X176432857Y-117365714D01*
X176361428Y-117437142D01*
X176218571Y-117508571D01*
X175647142Y-117508571D01*
X175647142Y-116008571D01*
X176147142Y-116008571D01*
X176290000Y-116080000D01*
X176361428Y-116151428D01*
X176432857Y-116294285D01*
X176432857Y-116437142D01*
X176361428Y-116580000D01*
X176290000Y-116651428D01*
X176147142Y-116722857D01*
X175647142Y-116722857D01*
X179147142Y-117508571D02*
X178647142Y-116794285D01*
X178290000Y-117508571D02*
X178290000Y-116008571D01*
X178861428Y-116008571D01*
X179004285Y-116080000D01*
X179075714Y-116151428D01*
X179147142Y-116294285D01*
X179147142Y-116508571D01*
X179075714Y-116651428D01*
X179004285Y-116722857D01*
X178861428Y-116794285D01*
X178290000Y-116794285D01*
X179718571Y-117080000D02*
X180432857Y-117080000D01*
X179575714Y-117508571D02*
X180075714Y-116008571D01*
X180575714Y-117508571D01*
X181075714Y-117508571D02*
X181075714Y-116008571D01*
X181575714Y-117080000D01*
X182075714Y-116008571D01*
X182075714Y-117508571D01*
X183861428Y-115937142D02*
X182575714Y-117865714D01*
X185218571Y-117508571D02*
X184718571Y-116794285D01*
X184361428Y-117508571D02*
X184361428Y-116008571D01*
X184932857Y-116008571D01*
X185075714Y-116080000D01*
X185147142Y-116151428D01*
X185218571Y-116294285D01*
X185218571Y-116508571D01*
X185147142Y-116651428D01*
X185075714Y-116722857D01*
X184932857Y-116794285D01*
X184361428Y-116794285D01*
X186147142Y-116008571D02*
X186432857Y-116008571D01*
X186575714Y-116080000D01*
X186718571Y-116222857D01*
X186790000Y-116508571D01*
X186790000Y-117008571D01*
X186718571Y-117294285D01*
X186575714Y-117437142D01*
X186432857Y-117508571D01*
X186147142Y-117508571D01*
X186004285Y-117437142D01*
X185861428Y-117294285D01*
X185790000Y-117008571D01*
X185790000Y-116508571D01*
X185861428Y-116222857D01*
X186004285Y-116080000D01*
X186147142Y-116008571D01*
X187432857Y-117508571D02*
X187432857Y-116008571D01*
X187932857Y-117080000D01*
X188432857Y-116008571D01*
X188432857Y-117508571D01*
X190790000Y-116722857D02*
X191004285Y-116794285D01*
X191075714Y-116865714D01*
X191147142Y-117008571D01*
X191147142Y-117222857D01*
X191075714Y-117365714D01*
X191004285Y-117437142D01*
X190861428Y-117508571D01*
X190290000Y-117508571D01*
X190290000Y-116008571D01*
X190790000Y-116008571D01*
X190932857Y-116080000D01*
X191004285Y-116151428D01*
X191075714Y-116294285D01*
X191075714Y-116437142D01*
X191004285Y-116580000D01*
X190932857Y-116651428D01*
X190790000Y-116722857D01*
X190290000Y-116722857D01*
X192075714Y-116008571D02*
X192361428Y-116008571D01*
X192504285Y-116080000D01*
X192647142Y-116222857D01*
X192718571Y-116508571D01*
X192718571Y-117008571D01*
X192647142Y-117294285D01*
X192504285Y-117437142D01*
X192361428Y-117508571D01*
X192075714Y-117508571D01*
X191932857Y-117437142D01*
X191790000Y-117294285D01*
X191718571Y-117008571D01*
X191718571Y-116508571D01*
X191790000Y-116222857D01*
X191932857Y-116080000D01*
X192075714Y-116008571D01*
X193290000Y-117080000D02*
X194004285Y-117080000D01*
X193147142Y-117508571D02*
X193647142Y-116008571D01*
X194147142Y-117508571D01*
X195504285Y-117508571D02*
X195004285Y-116794285D01*
X194647142Y-117508571D02*
X194647142Y-116008571D01*
X195218571Y-116008571D01*
X195361428Y-116080000D01*
X195432857Y-116151428D01*
X195504285Y-116294285D01*
X195504285Y-116508571D01*
X195432857Y-116651428D01*
X195361428Y-116722857D01*
X195218571Y-116794285D01*
X194647142Y-116794285D01*
X196147142Y-117508571D02*
X196147142Y-116008571D01*
X196504285Y-116008571D01*
X196718571Y-116080000D01*
X196861428Y-116222857D01*
X196932857Y-116365714D01*
X197004285Y-116651428D01*
X197004285Y-116865714D01*
X196932857Y-117151428D01*
X196861428Y-117294285D01*
X196718571Y-117437142D01*
X196504285Y-117508571D01*
X196147142Y-117508571D01*
X190790000Y-120058571D02*
X190290000Y-119344285D01*
X189932857Y-120058571D02*
X189932857Y-118558571D01*
X190504285Y-118558571D01*
X190647142Y-118630000D01*
X190718571Y-118701428D01*
X190790000Y-118844285D01*
X190790000Y-119058571D01*
X190718571Y-119201428D01*
X190647142Y-119272857D01*
X190504285Y-119344285D01*
X189932857Y-119344285D01*
X191432857Y-119272857D02*
X191932857Y-119272857D01*
X192147142Y-120058571D02*
X191432857Y-120058571D01*
X191432857Y-118558571D01*
X192147142Y-118558571D01*
X192575714Y-118558571D02*
X193075714Y-120058571D01*
X193575714Y-118558571D01*
X194004285Y-118701428D02*
X194075714Y-118630000D01*
X194218571Y-118558571D01*
X194575714Y-118558571D01*
X194718571Y-118630000D01*
X194790000Y-118701428D01*
X194861428Y-118844285D01*
X194861428Y-118987142D01*
X194790000Y-119201428D01*
X193932857Y-120058571D01*
X194861428Y-120058571D01*
X195504285Y-119915714D02*
X195575714Y-119987142D01*
X195504285Y-120058571D01*
X195432857Y-119987142D01*
X195504285Y-119915714D01*
X195504285Y-120058571D01*
X197004285Y-120058571D02*
X196147142Y-120058571D01*
X196575714Y-120058571D02*
X196575714Y-118558571D01*
X196432857Y-118772857D01*
X196290000Y-118915714D01*
X196147142Y-118987142D01*
X186361428Y-122608571D02*
X186361428Y-121108571D01*
X187218571Y-122608571D02*
X186575714Y-121751428D01*
X187218571Y-121108571D02*
X186361428Y-121965714D01*
X187861428Y-121108571D02*
X187861428Y-122322857D01*
X187932857Y-122465714D01*
X188004285Y-122537142D01*
X188147142Y-122608571D01*
X188432857Y-122608571D01*
X188575714Y-122537142D01*
X188647142Y-122465714D01*
X188718571Y-122322857D01*
X188718571Y-121108571D01*
X189432857Y-122608571D02*
X189432857Y-121108571D01*
X190290000Y-122608571D01*
X190290000Y-121108571D01*
X191004285Y-122608571D02*
X191004285Y-121108571D01*
X191718571Y-122037142D02*
X192861428Y-122037142D01*
X193575714Y-122608571D02*
X193575714Y-121108571D01*
X194432857Y-122608571D01*
X194432857Y-121108571D01*
X195147142Y-121822857D02*
X195647142Y-121822857D01*
X195861428Y-122608571D02*
X195147142Y-122608571D01*
X195147142Y-121108571D01*
X195861428Y-121108571D01*
X196290000Y-121108571D02*
X197147142Y-121108571D01*
X196718571Y-122608571D02*
X196718571Y-121108571D01*
X144331428Y-76275928D02*
X144331428Y-77275928D01*
X142831428Y-76633071D01*
X143831428Y-78490214D02*
X142831428Y-78490214D01*
X144402857Y-78133071D02*
X143331428Y-77775928D01*
X143331428Y-78704500D01*
X142831428Y-79275928D02*
X144331428Y-79275928D01*
X143617142Y-79275928D02*
X143617142Y-80133071D01*
X142831428Y-80133071D02*
X144331428Y-80133071D01*
X142974285Y-81704500D02*
X142902857Y-81633071D01*
X142831428Y-81418785D01*
X142831428Y-81275928D01*
X142902857Y-81061642D01*
X143045714Y-80918785D01*
X143188571Y-80847357D01*
X143474285Y-80775928D01*
X143688571Y-80775928D01*
X143974285Y-80847357D01*
X144117142Y-80918785D01*
X144260000Y-81061642D01*
X144331428Y-81275928D01*
X144331428Y-81418785D01*
X144260000Y-81633071D01*
X144188571Y-81704500D01*
X144331428Y-82633071D02*
X144331428Y-82775928D01*
X144260000Y-82918785D01*
X144188571Y-82990214D01*
X144045714Y-83061642D01*
X143760000Y-83133071D01*
X143402857Y-83133071D01*
X143117142Y-83061642D01*
X142974285Y-82990214D01*
X142902857Y-82918785D01*
X142831428Y-82775928D01*
X142831428Y-82633071D01*
X142902857Y-82490214D01*
X142974285Y-82418785D01*
X143117142Y-82347357D01*
X143402857Y-82275928D01*
X143760000Y-82275928D01*
X144045714Y-82347357D01*
X144188571Y-82418785D01*
X144260000Y-82490214D01*
X144331428Y-82633071D01*
X144188571Y-83704500D02*
X144260000Y-83775928D01*
X144331428Y-83918785D01*
X144331428Y-84275928D01*
X144260000Y-84418785D01*
X144188571Y-84490214D01*
X144045714Y-84561642D01*
X143902857Y-84561642D01*
X143688571Y-84490214D01*
X142831428Y-83633071D01*
X142831428Y-84561642D01*
X129789928Y-99580428D02*
X129789928Y-100580428D01*
X128289928Y-99937571D01*
X129289928Y-101794714D02*
X128289928Y-101794714D01*
X129861357Y-101437571D02*
X128789928Y-101080428D01*
X128789928Y-102009000D01*
X128289928Y-102580428D02*
X129789928Y-102580428D01*
X129075642Y-102580428D02*
X129075642Y-103437571D01*
X128289928Y-103437571D02*
X129789928Y-103437571D01*
X128432785Y-105009000D02*
X128361357Y-104937571D01*
X128289928Y-104723285D01*
X128289928Y-104580428D01*
X128361357Y-104366142D01*
X128504214Y-104223285D01*
X128647071Y-104151857D01*
X128932785Y-104080428D01*
X129147071Y-104080428D01*
X129432785Y-104151857D01*
X129575642Y-104223285D01*
X129718500Y-104366142D01*
X129789928Y-104580428D01*
X129789928Y-104723285D01*
X129718500Y-104937571D01*
X129647071Y-105009000D01*
X129789928Y-105937571D02*
X129789928Y-106080428D01*
X129718500Y-106223285D01*
X129647071Y-106294714D01*
X129504214Y-106366142D01*
X129218500Y-106437571D01*
X128861357Y-106437571D01*
X128575642Y-106366142D01*
X128432785Y-106294714D01*
X128361357Y-106223285D01*
X128289928Y-106080428D01*
X128289928Y-105937571D01*
X128361357Y-105794714D01*
X128432785Y-105723285D01*
X128575642Y-105651857D01*
X128861357Y-105580428D01*
X129218500Y-105580428D01*
X129504214Y-105651857D01*
X129647071Y-105723285D01*
X129718500Y-105794714D01*
X129789928Y-105937571D01*
X129789928Y-107366142D02*
X129789928Y-107509000D01*
X129718500Y-107651857D01*
X129647071Y-107723285D01*
X129504214Y-107794714D01*
X129218500Y-107866142D01*
X128861357Y-107866142D01*
X128575642Y-107794714D01*
X128432785Y-107723285D01*
X128361357Y-107651857D01*
X128289928Y-107509000D01*
X128289928Y-107366142D01*
X128361357Y-107223285D01*
X128432785Y-107151857D01*
X128575642Y-107080428D01*
X128861357Y-107009000D01*
X129218500Y-107009000D01*
X129504214Y-107080428D01*
X129647071Y-107151857D01*
X129718500Y-107223285D01*
X129789928Y-107366142D01*
X129662928Y-76593428D02*
X129662928Y-77593428D01*
X128162928Y-76950571D01*
X129162928Y-78807714D02*
X128162928Y-78807714D01*
X129734357Y-78450571D02*
X128662928Y-78093428D01*
X128662928Y-79022000D01*
X128162928Y-79593428D02*
X129662928Y-79593428D01*
X128948642Y-79593428D02*
X128948642Y-80450571D01*
X128162928Y-80450571D02*
X129662928Y-80450571D01*
X128305785Y-82022000D02*
X128234357Y-81950571D01*
X128162928Y-81736285D01*
X128162928Y-81593428D01*
X128234357Y-81379142D01*
X128377214Y-81236285D01*
X128520071Y-81164857D01*
X128805785Y-81093428D01*
X129020071Y-81093428D01*
X129305785Y-81164857D01*
X129448642Y-81236285D01*
X129591500Y-81379142D01*
X129662928Y-81593428D01*
X129662928Y-81736285D01*
X129591500Y-81950571D01*
X129520071Y-82022000D01*
X129662928Y-82950571D02*
X129662928Y-83093428D01*
X129591500Y-83236285D01*
X129520071Y-83307714D01*
X129377214Y-83379142D01*
X129091500Y-83450571D01*
X128734357Y-83450571D01*
X128448642Y-83379142D01*
X128305785Y-83307714D01*
X128234357Y-83236285D01*
X128162928Y-83093428D01*
X128162928Y-82950571D01*
X128234357Y-82807714D01*
X128305785Y-82736285D01*
X128448642Y-82664857D01*
X128734357Y-82593428D01*
X129091500Y-82593428D01*
X129377214Y-82664857D01*
X129520071Y-82736285D01*
X129591500Y-82807714D01*
X129662928Y-82950571D01*
X129162928Y-84736285D02*
X128162928Y-84736285D01*
X129734357Y-84379142D02*
X128662928Y-84022000D01*
X128662928Y-84950571D01*
X113978428Y-78990642D02*
X113978428Y-79990642D01*
X112478428Y-79347785D01*
X113478428Y-81204928D02*
X112478428Y-81204928D01*
X114049857Y-80847785D02*
X112978428Y-80490642D01*
X112978428Y-81419214D01*
X112478428Y-81990642D02*
X113978428Y-81990642D01*
X113264142Y-81990642D02*
X113264142Y-82847785D01*
X112478428Y-82847785D02*
X113978428Y-82847785D01*
X112621285Y-84419214D02*
X112549857Y-84347785D01*
X112478428Y-84133500D01*
X112478428Y-83990642D01*
X112549857Y-83776357D01*
X112692714Y-83633500D01*
X112835571Y-83562071D01*
X113121285Y-83490642D01*
X113335571Y-83490642D01*
X113621285Y-83562071D01*
X113764142Y-83633500D01*
X113907000Y-83776357D01*
X113978428Y-83990642D01*
X113978428Y-84133500D01*
X113907000Y-84347785D01*
X113835571Y-84419214D01*
X112478428Y-85847785D02*
X112478428Y-84990642D01*
X112478428Y-85419214D02*
X113978428Y-85419214D01*
X113764142Y-85276357D01*
X113621285Y-85133500D01*
X113549857Y-84990642D01*
X113978428Y-86347785D02*
X113978428Y-87276357D01*
X113407000Y-86776357D01*
X113407000Y-86990642D01*
X113335571Y-87133500D01*
X113264142Y-87204928D01*
X113121285Y-87276357D01*
X112764142Y-87276357D01*
X112621285Y-87204928D01*
X112549857Y-87133500D01*
X112478428Y-86990642D01*
X112478428Y-86562071D01*
X112549857Y-86419214D01*
X112621285Y-86347785D01*
X112478428Y-87990642D02*
X112478428Y-88276357D01*
X112549857Y-88419214D01*
X112621285Y-88490642D01*
X112835571Y-88633500D01*
X113121285Y-88704928D01*
X113692714Y-88704928D01*
X113835571Y-88633500D01*
X113907000Y-88562071D01*
X113978428Y-88419214D01*
X113978428Y-88133500D01*
X113907000Y-87990642D01*
X113835571Y-87919214D01*
X113692714Y-87847785D01*
X113335571Y-87847785D01*
X113192714Y-87919214D01*
X113121285Y-87990642D01*
X113049857Y-88133500D01*
X113049857Y-88419214D01*
X113121285Y-88562071D01*
X113192714Y-88633500D01*
X113335571Y-88704928D01*
X167323428Y-89424285D02*
X167323428Y-89138571D01*
X167252000Y-88995714D01*
X167180571Y-88924285D01*
X166966285Y-88781428D01*
X166680571Y-88710000D01*
X166109142Y-88710000D01*
X165966285Y-88781428D01*
X165894857Y-88852857D01*
X165823428Y-88995714D01*
X165823428Y-89281428D01*
X165894857Y-89424285D01*
X165966285Y-89495714D01*
X166109142Y-89567142D01*
X166466285Y-89567142D01*
X166609142Y-89495714D01*
X166680571Y-89424285D01*
X166752000Y-89281428D01*
X166752000Y-88995714D01*
X166680571Y-88852857D01*
X166609142Y-88781428D01*
X166466285Y-88710000D01*
X167180571Y-90138571D02*
X167252000Y-90210000D01*
X167323428Y-90352857D01*
X167323428Y-90710000D01*
X167252000Y-90852857D01*
X167180571Y-90924285D01*
X167037714Y-90995714D01*
X166894857Y-90995714D01*
X166680571Y-90924285D01*
X165823428Y-90067142D01*
X165823428Y-90995714D01*
X166680571Y-91852857D02*
X166752000Y-91710000D01*
X166823428Y-91638571D01*
X166966285Y-91567142D01*
X167037714Y-91567142D01*
X167180571Y-91638571D01*
X167252000Y-91710000D01*
X167323428Y-91852857D01*
X167323428Y-92138571D01*
X167252000Y-92281428D01*
X167180571Y-92352857D01*
X167037714Y-92424285D01*
X166966285Y-92424285D01*
X166823428Y-92352857D01*
X166752000Y-92281428D01*
X166680571Y-92138571D01*
X166680571Y-91852857D01*
X166609142Y-91710000D01*
X166537714Y-91638571D01*
X166394857Y-91567142D01*
X166109142Y-91567142D01*
X165966285Y-91638571D01*
X165894857Y-91710000D01*
X165823428Y-91852857D01*
X165823428Y-92138571D01*
X165894857Y-92281428D01*
X165966285Y-92352857D01*
X166109142Y-92424285D01*
X166394857Y-92424285D01*
X166537714Y-92352857D01*
X166609142Y-92281428D01*
X166680571Y-92138571D01*
X165823428Y-93852857D02*
X165823428Y-92995714D01*
X165823428Y-93424285D02*
X167323428Y-93424285D01*
X167109142Y-93281428D01*
X166966285Y-93138571D01*
X166894857Y-92995714D01*
X167180571Y-94424285D02*
X167252000Y-94495714D01*
X167323428Y-94638571D01*
X167323428Y-94995714D01*
X167252000Y-95138571D01*
X167180571Y-95210000D01*
X167037714Y-95281428D01*
X166894857Y-95281428D01*
X166680571Y-95210000D01*
X165823428Y-94352857D01*
X165823428Y-95281428D01*
X166680571Y-96138571D02*
X166752000Y-95995714D01*
X166823428Y-95924285D01*
X166966285Y-95852857D01*
X167037714Y-95852857D01*
X167180571Y-95924285D01*
X167252000Y-95995714D01*
X167323428Y-96138571D01*
X167323428Y-96424285D01*
X167252000Y-96567142D01*
X167180571Y-96638571D01*
X167037714Y-96710000D01*
X166966285Y-96710000D01*
X166823428Y-96638571D01*
X166752000Y-96567142D01*
X166680571Y-96424285D01*
X166680571Y-96138571D01*
X166609142Y-95995714D01*
X166537714Y-95924285D01*
X166394857Y-95852857D01*
X166109142Y-95852857D01*
X165966285Y-95924285D01*
X165894857Y-95995714D01*
X165823428Y-96138571D01*
X165823428Y-96424285D01*
X165894857Y-96567142D01*
X165966285Y-96638571D01*
X166109142Y-96710000D01*
X166394857Y-96710000D01*
X166537714Y-96638571D01*
X166609142Y-96567142D01*
X166680571Y-96424285D01*
X163273428Y-87567142D02*
X163273428Y-86710000D01*
X163273428Y-87138571D02*
X164773428Y-87138571D01*
X164559142Y-86995714D01*
X164416285Y-86852857D01*
X164344857Y-86710000D01*
X164630571Y-88138571D02*
X164702000Y-88210000D01*
X164773428Y-88352857D01*
X164773428Y-88710000D01*
X164702000Y-88852857D01*
X164630571Y-88924285D01*
X164487714Y-88995714D01*
X164344857Y-88995714D01*
X164130571Y-88924285D01*
X163273428Y-88067142D01*
X163273428Y-88995714D01*
X164130571Y-89852857D02*
X164202000Y-89710000D01*
X164273428Y-89638571D01*
X164416285Y-89567142D01*
X164487714Y-89567142D01*
X164630571Y-89638571D01*
X164702000Y-89710000D01*
X164773428Y-89852857D01*
X164773428Y-90138571D01*
X164702000Y-90281428D01*
X164630571Y-90352857D01*
X164487714Y-90424285D01*
X164416285Y-90424285D01*
X164273428Y-90352857D01*
X164202000Y-90281428D01*
X164130571Y-90138571D01*
X164130571Y-89852857D01*
X164059142Y-89710000D01*
X163987714Y-89638571D01*
X163844857Y-89567142D01*
X163559142Y-89567142D01*
X163416285Y-89638571D01*
X163344857Y-89710000D01*
X163273428Y-89852857D01*
X163273428Y-90138571D01*
X163344857Y-90281428D01*
X163416285Y-90352857D01*
X163559142Y-90424285D01*
X163844857Y-90424285D01*
X163987714Y-90352857D01*
X164059142Y-90281428D01*
X164130571Y-90138571D01*
X163273428Y-91067142D02*
X164773428Y-91067142D01*
X163844857Y-91210000D02*
X163273428Y-91638571D01*
X164273428Y-91638571D02*
X163702000Y-91067142D01*
X163344857Y-93352857D02*
X163273428Y-93567142D01*
X163273428Y-93924285D01*
X163344857Y-94067142D01*
X163416285Y-94138571D01*
X163559142Y-94210000D01*
X163702000Y-94210000D01*
X163844857Y-94138571D01*
X163916285Y-94067142D01*
X163987714Y-93924285D01*
X164059142Y-93638571D01*
X164130571Y-93495714D01*
X164202000Y-93424285D01*
X164344857Y-93352857D01*
X164487714Y-93352857D01*
X164630571Y-93424285D01*
X164702000Y-93495714D01*
X164773428Y-93638571D01*
X164773428Y-93995714D01*
X164702000Y-94210000D01*
X163273428Y-95710000D02*
X163987714Y-95210000D01*
X163273428Y-94852857D02*
X164773428Y-94852857D01*
X164773428Y-95424285D01*
X164702000Y-95567142D01*
X164630571Y-95638571D01*
X164487714Y-95710000D01*
X164273428Y-95710000D01*
X164130571Y-95638571D01*
X164059142Y-95567142D01*
X163987714Y-95424285D01*
X163987714Y-94852857D01*
X163702000Y-96281428D02*
X163702000Y-96995714D01*
X163273428Y-96138571D02*
X164773428Y-96638571D01*
X163273428Y-97138571D01*
X163273428Y-97638571D02*
X164773428Y-97638571D01*
X163702000Y-98138571D01*
X164773428Y-98638571D01*
X163273428Y-98638571D01*
X190040571Y-91583285D02*
X190112000Y-91654714D01*
X190183428Y-91797571D01*
X190183428Y-92154714D01*
X190112000Y-92297571D01*
X190040571Y-92369000D01*
X189897714Y-92440428D01*
X189754857Y-92440428D01*
X189540571Y-92369000D01*
X188683428Y-91511857D01*
X188683428Y-92440428D01*
X189540571Y-93297571D02*
X189612000Y-93154714D01*
X189683428Y-93083285D01*
X189826285Y-93011857D01*
X189897714Y-93011857D01*
X190040571Y-93083285D01*
X190112000Y-93154714D01*
X190183428Y-93297571D01*
X190183428Y-93583285D01*
X190112000Y-93726142D01*
X190040571Y-93797571D01*
X189897714Y-93869000D01*
X189826285Y-93869000D01*
X189683428Y-93797571D01*
X189612000Y-93726142D01*
X189540571Y-93583285D01*
X189540571Y-93297571D01*
X189469142Y-93154714D01*
X189397714Y-93083285D01*
X189254857Y-93011857D01*
X188969142Y-93011857D01*
X188826285Y-93083285D01*
X188754857Y-93154714D01*
X188683428Y-93297571D01*
X188683428Y-93583285D01*
X188754857Y-93726142D01*
X188826285Y-93797571D01*
X188969142Y-93869000D01*
X189254857Y-93869000D01*
X189397714Y-93797571D01*
X189469142Y-93726142D01*
X189540571Y-93583285D01*
X190040571Y-94440428D02*
X190112000Y-94511857D01*
X190183428Y-94654714D01*
X190183428Y-95011857D01*
X190112000Y-95154714D01*
X190040571Y-95226142D01*
X189897714Y-95297571D01*
X189754857Y-95297571D01*
X189540571Y-95226142D01*
X188683428Y-94369000D01*
X188683428Y-95297571D01*
X190183428Y-96654714D02*
X190183428Y-95940428D01*
X189469142Y-95869000D01*
X189540571Y-95940428D01*
X189612000Y-96083285D01*
X189612000Y-96440428D01*
X189540571Y-96583285D01*
X189469142Y-96654714D01*
X189326285Y-96726142D01*
X188969142Y-96726142D01*
X188826285Y-96654714D01*
X188754857Y-96583285D01*
X188683428Y-96440428D01*
X188683428Y-96083285D01*
X188754857Y-95940428D01*
X188826285Y-95869000D01*
X190183428Y-98011857D02*
X190183428Y-97726142D01*
X190112000Y-97583285D01*
X190040571Y-97511857D01*
X189826285Y-97369000D01*
X189540571Y-97297571D01*
X188969142Y-97297571D01*
X188826285Y-97369000D01*
X188754857Y-97440428D01*
X188683428Y-97583285D01*
X188683428Y-97869000D01*
X188754857Y-98011857D01*
X188826285Y-98083285D01*
X188969142Y-98154714D01*
X189326285Y-98154714D01*
X189469142Y-98083285D01*
X189540571Y-98011857D01*
X189612000Y-97869000D01*
X189612000Y-97583285D01*
X189540571Y-97440428D01*
X189469142Y-97369000D01*
X189326285Y-97297571D01*
X186133428Y-93690428D02*
X186847714Y-93190428D01*
X186133428Y-92833285D02*
X187633428Y-92833285D01*
X187633428Y-93404714D01*
X187562000Y-93547571D01*
X187490571Y-93619000D01*
X187347714Y-93690428D01*
X187133428Y-93690428D01*
X186990571Y-93619000D01*
X186919142Y-93547571D01*
X186847714Y-93404714D01*
X186847714Y-92833285D01*
X187633428Y-94619000D02*
X187633428Y-94904714D01*
X187562000Y-95047571D01*
X187419142Y-95190428D01*
X187133428Y-95261857D01*
X186633428Y-95261857D01*
X186347714Y-95190428D01*
X186204857Y-95047571D01*
X186133428Y-94904714D01*
X186133428Y-94619000D01*
X186204857Y-94476142D01*
X186347714Y-94333285D01*
X186633428Y-94261857D01*
X187133428Y-94261857D01*
X187419142Y-94333285D01*
X187562000Y-94476142D01*
X187633428Y-94619000D01*
X186133428Y-95904714D02*
X187633428Y-95904714D01*
X186562000Y-96404714D01*
X187633428Y-96904714D01*
X186133428Y-96904714D01*
D12*
G04 #@! TO.C,JP1*
X116737000Y-109310000D02*
X116737000Y-106650000D01*
X111597000Y-109310000D02*
X116737000Y-109310000D01*
X111597000Y-106650000D02*
X116737000Y-106650000D01*
X111597000Y-109310000D02*
X111597000Y-106650000D01*
X110327000Y-109310000D02*
X108997000Y-109310000D01*
X108997000Y-109310000D02*
X108997000Y-107980000D01*
G04 #@! TO.C,Q1*
X133254000Y-121410000D02*
X137104000Y-121410000D01*
X132871369Y-120832045D02*
G75*
G03X133254000Y-121410000I2322631J1122045D01*
G01*
X132837600Y-118611193D02*
G75*
G02X135194000Y-117110000I2356400J-1098807D01*
G01*
X137550400Y-118611193D02*
G75*
G03X135194000Y-117110000I-2356400J-1098807D01*
G01*
X137496383Y-120822264D02*
G75*
G02X137104000Y-121410000I-2302383J1112264D01*
G01*
G04 #@! TO.C,R1*
X110768000Y-125476000D02*
X111538000Y-125476000D01*
X118848000Y-125476000D02*
X118078000Y-125476000D01*
X111538000Y-126846000D02*
X118078000Y-126846000D01*
X111538000Y-124106000D02*
X111538000Y-126846000D01*
X118078000Y-124106000D02*
X111538000Y-124106000D01*
X118078000Y-126846000D02*
X118078000Y-124106000D01*
G04 #@! TO.C,R2*
X118078000Y-129894000D02*
X118078000Y-127154000D01*
X118078000Y-127154000D02*
X111538000Y-127154000D01*
X111538000Y-127154000D02*
X111538000Y-129894000D01*
X111538000Y-129894000D02*
X118078000Y-129894000D01*
X118848000Y-128524000D02*
X118078000Y-128524000D01*
X110768000Y-128524000D02*
X111538000Y-128524000D01*
G04 #@! TO.C,R4*
X150725000Y-120015000D02*
X149955000Y-120015000D01*
X142645000Y-120015000D02*
X143415000Y-120015000D01*
X149955000Y-118645000D02*
X143415000Y-118645000D01*
X149955000Y-121385000D02*
X149955000Y-118645000D01*
X143415000Y-121385000D02*
X149955000Y-121385000D01*
X143415000Y-118645000D02*
X143415000Y-121385000D01*
G04 #@! TO.C,R5*
X157385000Y-118645000D02*
X157385000Y-121385000D01*
X157385000Y-121385000D02*
X163925000Y-121385000D01*
X163925000Y-121385000D02*
X163925000Y-118645000D01*
X163925000Y-118645000D02*
X157385000Y-118645000D01*
X156615000Y-120015000D02*
X157385000Y-120015000D01*
X164695000Y-120015000D02*
X163925000Y-120015000D01*
G04 #@! TO.C,J2*
X107954000Y-98365000D02*
X107954000Y-103565000D01*
X115634000Y-98365000D02*
X107954000Y-98365000D01*
X118234000Y-103565000D02*
X107954000Y-103565000D01*
X115634000Y-98365000D02*
X115634000Y-100965000D01*
X115634000Y-100965000D02*
X118234000Y-100965000D01*
X118234000Y-100965000D02*
X118234000Y-103565000D01*
X116904000Y-98365000D02*
X118234000Y-98365000D01*
X118234000Y-98365000D02*
X118234000Y-99695000D01*
G04 #@! TO.C,D3*
X126948608Y-120974335D02*
G75*
G03X127105516Y-117742000I-1078608J1672335D01*
G01*
X124791392Y-120974335D02*
G75*
G02X124634484Y-117742000I1078608J1672335D01*
G01*
X126949837Y-120343130D02*
G75*
G03X126950000Y-118261039I-1079837J1041130D01*
G01*
X124790163Y-120343130D02*
G75*
G02X124790000Y-118261039I1079837J1041130D01*
G01*
X127106000Y-117742000D02*
X126950000Y-117742000D01*
X124790000Y-117742000D02*
X124634000Y-117742000D01*
G04 #@! TO.C,U2*
X144574000Y-95380500D02*
G75*
G02X142574000Y-95380500I-1000000J0D01*
G01*
X142574000Y-95380500D02*
X140924000Y-95380500D01*
X140924000Y-95380500D02*
X140924000Y-113280500D01*
X140924000Y-113280500D02*
X146224000Y-113280500D01*
X146224000Y-113280500D02*
X146224000Y-95380500D01*
X146224000Y-95380500D02*
X144574000Y-95380500D01*
X138434000Y-95320500D02*
X138434000Y-113340500D01*
X138434000Y-113340500D02*
X148714000Y-113340500D01*
X148714000Y-113340500D02*
X148714000Y-95320500D01*
X148714000Y-95320500D02*
X138434000Y-95320500D01*
G04 #@! TO.C,R3*
X111030000Y-111914000D02*
X111030000Y-114654000D01*
X111030000Y-114654000D02*
X117570000Y-114654000D01*
X117570000Y-114654000D02*
X117570000Y-111914000D01*
X117570000Y-111914000D02*
X111030000Y-111914000D01*
X110260000Y-113284000D02*
X111030000Y-113284000D01*
X118340000Y-113284000D02*
X117570000Y-113284000D01*
G04 #@! TO.C,U7*
X186960000Y-77985000D02*
X181380000Y-77985000D01*
X181380000Y-77985000D02*
X181380000Y-113785000D01*
X181380000Y-113785000D02*
X194540000Y-113785000D01*
X194540000Y-113785000D02*
X194540000Y-77985000D01*
X194540000Y-77985000D02*
X188960000Y-77985000D01*
X178950000Y-77985000D02*
X178950000Y-113785000D01*
X178950000Y-113785000D02*
X196970000Y-113785000D01*
X196970000Y-113785000D02*
X196970000Y-77985000D01*
X196970000Y-77985000D02*
X178950000Y-77985000D01*
X188960000Y-77985000D02*
G75*
G02X186960000Y-77985000I-1000000J0D01*
G01*
D10*
G04 #@! TO.C,J1*
X165354000Y-126619000D02*
X165354000Y-126111000D01*
X164846000Y-126619000D02*
X164846000Y-126111000D01*
X162814000Y-126619000D02*
X162814000Y-126111000D01*
X162306000Y-126619000D02*
X162306000Y-126111000D01*
X167386000Y-126619000D02*
X167386000Y-126111000D01*
X167894000Y-126619000D02*
X167894000Y-126111000D01*
X169926000Y-126619000D02*
X169926000Y-126111000D01*
X170434000Y-126619000D02*
X170434000Y-126111000D01*
X172466000Y-126619000D02*
X172466000Y-126111000D01*
X172974000Y-126619000D02*
X172974000Y-126111000D01*
X175006000Y-126619000D02*
X175006000Y-126111000D01*
X175514000Y-126619000D02*
X175514000Y-126111000D01*
X134874000Y-126619000D02*
X134874000Y-126111000D01*
X134366000Y-126619000D02*
X134366000Y-126111000D01*
X132334000Y-126619000D02*
X132334000Y-126111000D01*
X131826000Y-126619000D02*
X131826000Y-126111000D01*
X136906000Y-126619000D02*
X136906000Y-126111000D01*
X137414000Y-126619000D02*
X137414000Y-126111000D01*
X139446000Y-126619000D02*
X139446000Y-126111000D01*
X139954000Y-126619000D02*
X139954000Y-126111000D01*
X129794000Y-126619000D02*
X129794000Y-126111000D01*
X129286000Y-126619000D02*
X129286000Y-126111000D01*
X127254000Y-126619000D02*
X127254000Y-126111000D01*
X126746000Y-126619000D02*
X126746000Y-126111000D01*
X145034000Y-126619000D02*
X145034000Y-126111000D01*
X144526000Y-126619000D02*
X144526000Y-126111000D01*
X142494000Y-126619000D02*
X142494000Y-126111000D01*
X141986000Y-126619000D02*
X141986000Y-126111000D01*
X147066000Y-126619000D02*
X147066000Y-126111000D01*
X147574000Y-126619000D02*
X147574000Y-126111000D01*
X149606000Y-126619000D02*
X149606000Y-126111000D01*
X150114000Y-126619000D02*
X150114000Y-126111000D01*
X160274000Y-126619000D02*
X160274000Y-126111000D01*
X159766000Y-126619000D02*
X159766000Y-126111000D01*
X157734000Y-126619000D02*
X157734000Y-126111000D01*
X157226000Y-126619000D02*
X157226000Y-126111000D01*
X152146000Y-126619000D02*
X152146000Y-126111000D01*
X152654000Y-126619000D02*
X152654000Y-126111000D01*
X154686000Y-126619000D02*
X154686000Y-126111000D01*
X155194000Y-126619000D02*
X155194000Y-126111000D01*
X129794000Y-129159000D02*
X129794000Y-128651000D01*
X129286000Y-129159000D02*
X129286000Y-128651000D01*
X127254000Y-129159000D02*
X127254000Y-128651000D01*
X126746000Y-129159000D02*
X126746000Y-128651000D01*
X131826000Y-129159000D02*
X131826000Y-128651000D01*
X132334000Y-129159000D02*
X132334000Y-128651000D01*
X134366000Y-129159000D02*
X134366000Y-128651000D01*
X134874000Y-129159000D02*
X134874000Y-128651000D01*
X150114000Y-129159000D02*
X150114000Y-128651000D01*
X149606000Y-129159000D02*
X149606000Y-128651000D01*
X147574000Y-129159000D02*
X147574000Y-128651000D01*
X147066000Y-129159000D02*
X147066000Y-128651000D01*
X152146000Y-129159000D02*
X152146000Y-128651000D01*
X152654000Y-129159000D02*
X152654000Y-128651000D01*
X154686000Y-129159000D02*
X154686000Y-128651000D01*
X155194000Y-129159000D02*
X155194000Y-128651000D01*
X145034000Y-129159000D02*
X145034000Y-128651000D01*
X144526000Y-129159000D02*
X144526000Y-128651000D01*
X142494000Y-129159000D02*
X142494000Y-128651000D01*
X141986000Y-129159000D02*
X141986000Y-128651000D01*
X136906000Y-129159000D02*
X136906000Y-128651000D01*
X137414000Y-129159000D02*
X137414000Y-128651000D01*
X139446000Y-129159000D02*
X139446000Y-128651000D01*
X139954000Y-129159000D02*
X139954000Y-128651000D01*
X160274000Y-129159000D02*
X160274000Y-128651000D01*
X159766000Y-129159000D02*
X159766000Y-128651000D01*
X157734000Y-129159000D02*
X157734000Y-128651000D01*
X157226000Y-129159000D02*
X157226000Y-128651000D01*
X162306000Y-129159000D02*
X162306000Y-128651000D01*
X162814000Y-129159000D02*
X162814000Y-128651000D01*
X164846000Y-129159000D02*
X164846000Y-128651000D01*
X165354000Y-129159000D02*
X165354000Y-128651000D01*
X175514000Y-129159000D02*
X175514000Y-128651000D01*
X175006000Y-129159000D02*
X175006000Y-128651000D01*
X172974000Y-129159000D02*
X172974000Y-128651000D01*
X172466000Y-129159000D02*
X172466000Y-128651000D01*
X167386000Y-129159000D02*
X167386000Y-128651000D01*
X167894000Y-129159000D02*
X167894000Y-128651000D01*
X169926000Y-129159000D02*
X169926000Y-128651000D01*
X170434000Y-129159000D02*
X170434000Y-128651000D01*
X176810000Y-125095000D02*
X176810000Y-123945000D01*
X176810000Y-123945000D02*
X175260000Y-123945000D01*
X175387000Y-131699000D02*
X175387000Y-137668000D01*
X175387000Y-137668000D02*
X175133000Y-137668000D01*
X175133000Y-137668000D02*
X175133000Y-131826000D01*
X175133000Y-131826000D02*
X175260000Y-131826000D01*
X175260000Y-131826000D02*
X175260000Y-137668000D01*
X135890000Y-129159000D02*
X135890000Y-131699000D01*
X135890000Y-129159000D02*
X133350000Y-129159000D01*
X133350000Y-129159000D02*
X133350000Y-131699000D01*
X134874000Y-131699000D02*
X134874000Y-137795000D01*
X134874000Y-137795000D02*
X134366000Y-137795000D01*
X134366000Y-137795000D02*
X134366000Y-131699000D01*
X133350000Y-131699000D02*
X135890000Y-131699000D01*
X130810000Y-131699000D02*
X133350000Y-131699000D01*
X131826000Y-137795000D02*
X131826000Y-131699000D01*
X132334000Y-137795000D02*
X131826000Y-137795000D01*
X132334000Y-131699000D02*
X132334000Y-137795000D01*
X130810000Y-129159000D02*
X130810000Y-131699000D01*
X133350000Y-129159000D02*
X130810000Y-129159000D01*
X133350000Y-129159000D02*
X133350000Y-131699000D01*
X128270000Y-129159000D02*
X128270000Y-131699000D01*
X128270000Y-129159000D02*
X125730000Y-129159000D01*
X127254000Y-131699000D02*
X127254000Y-137795000D01*
X127254000Y-137795000D02*
X126746000Y-137795000D01*
X126746000Y-137795000D02*
X126746000Y-131699000D01*
X125730000Y-131699000D02*
X128270000Y-131699000D01*
X128270000Y-131699000D02*
X130810000Y-131699000D01*
X129286000Y-137795000D02*
X129286000Y-131699000D01*
X129794000Y-137795000D02*
X129286000Y-137795000D01*
X129794000Y-131699000D02*
X129794000Y-137795000D01*
X128270000Y-129159000D02*
X128270000Y-131699000D01*
X130810000Y-129159000D02*
X128270000Y-129159000D01*
X130810000Y-129159000D02*
X130810000Y-131699000D01*
X125730000Y-129159000D02*
X125730000Y-131699000D01*
X156210000Y-129159000D02*
X156210000Y-131699000D01*
X156210000Y-129159000D02*
X153670000Y-129159000D01*
X153670000Y-129159000D02*
X153670000Y-131699000D01*
X155194000Y-131699000D02*
X155194000Y-137795000D01*
X155194000Y-137795000D02*
X154686000Y-137795000D01*
X154686000Y-137795000D02*
X154686000Y-131699000D01*
X153670000Y-131699000D02*
X156210000Y-131699000D01*
X151130000Y-131699000D02*
X153670000Y-131699000D01*
X152146000Y-137795000D02*
X152146000Y-131699000D01*
X152654000Y-137795000D02*
X152146000Y-137795000D01*
X152654000Y-131699000D02*
X152654000Y-137795000D01*
X151130000Y-129159000D02*
X151130000Y-131699000D01*
X153670000Y-129159000D02*
X151130000Y-129159000D01*
X153670000Y-129159000D02*
X153670000Y-131699000D01*
X148590000Y-129159000D02*
X148590000Y-131699000D01*
X148590000Y-129159000D02*
X146050000Y-129159000D01*
X146050000Y-129159000D02*
X146050000Y-131699000D01*
X147574000Y-131699000D02*
X147574000Y-137795000D01*
X147574000Y-137795000D02*
X147066000Y-137795000D01*
X147066000Y-137795000D02*
X147066000Y-131699000D01*
X146050000Y-131699000D02*
X148590000Y-131699000D01*
X148590000Y-131699000D02*
X151130000Y-131699000D01*
X149606000Y-137795000D02*
X149606000Y-131699000D01*
X150114000Y-137795000D02*
X149606000Y-137795000D01*
X150114000Y-131699000D02*
X150114000Y-137795000D01*
X148590000Y-129159000D02*
X148590000Y-131699000D01*
X151130000Y-129159000D02*
X148590000Y-129159000D01*
X151130000Y-129159000D02*
X151130000Y-131699000D01*
X140970000Y-129159000D02*
X140970000Y-131699000D01*
X140970000Y-129159000D02*
X138430000Y-129159000D01*
X138430000Y-129159000D02*
X138430000Y-131699000D01*
X139954000Y-131699000D02*
X139954000Y-137795000D01*
X139954000Y-137795000D02*
X139446000Y-137795000D01*
X139446000Y-137795000D02*
X139446000Y-131699000D01*
X138430000Y-131699000D02*
X140970000Y-131699000D01*
X135890000Y-131699000D02*
X138430000Y-131699000D01*
X136906000Y-137795000D02*
X136906000Y-131699000D01*
X137414000Y-137795000D02*
X136906000Y-137795000D01*
X137414000Y-131699000D02*
X137414000Y-137795000D01*
X135890000Y-129159000D02*
X135890000Y-131699000D01*
X138430000Y-129159000D02*
X135890000Y-129159000D01*
X138430000Y-129159000D02*
X138430000Y-131699000D01*
X143510000Y-129159000D02*
X143510000Y-131699000D01*
X143510000Y-129159000D02*
X140970000Y-129159000D01*
X140970000Y-129159000D02*
X140970000Y-131699000D01*
X142494000Y-131699000D02*
X142494000Y-137795000D01*
X142494000Y-137795000D02*
X141986000Y-137795000D01*
X141986000Y-137795000D02*
X141986000Y-131699000D01*
X140970000Y-131699000D02*
X143510000Y-131699000D01*
X143510000Y-131699000D02*
X146050000Y-131699000D01*
X144526000Y-137795000D02*
X144526000Y-131699000D01*
X145034000Y-137795000D02*
X144526000Y-137795000D01*
X145034000Y-131699000D02*
X145034000Y-137795000D01*
X143510000Y-129159000D02*
X143510000Y-131699000D01*
X146050000Y-129159000D02*
X143510000Y-129159000D01*
X146050000Y-129159000D02*
X146050000Y-131699000D01*
X166370000Y-129159000D02*
X166370000Y-131699000D01*
X166370000Y-129159000D02*
X163830000Y-129159000D01*
X163830000Y-129159000D02*
X163830000Y-131699000D01*
X165354000Y-131699000D02*
X165354000Y-137795000D01*
X165354000Y-137795000D02*
X164846000Y-137795000D01*
X164846000Y-137795000D02*
X164846000Y-131699000D01*
X163830000Y-131699000D02*
X166370000Y-131699000D01*
X161290000Y-131699000D02*
X163830000Y-131699000D01*
X162306000Y-137795000D02*
X162306000Y-131699000D01*
X162814000Y-137795000D02*
X162306000Y-137795000D01*
X162814000Y-131699000D02*
X162814000Y-137795000D01*
X161290000Y-129159000D02*
X161290000Y-131699000D01*
X163830000Y-129159000D02*
X161290000Y-129159000D01*
X163830000Y-129159000D02*
X163830000Y-131699000D01*
X158750000Y-129159000D02*
X158750000Y-131699000D01*
X158750000Y-129159000D02*
X156210000Y-129159000D01*
X156210000Y-129159000D02*
X156210000Y-131699000D01*
X157734000Y-131699000D02*
X157734000Y-137795000D01*
X157734000Y-137795000D02*
X157226000Y-137795000D01*
X157226000Y-137795000D02*
X157226000Y-131699000D01*
X156210000Y-131699000D02*
X158750000Y-131699000D01*
X158750000Y-131699000D02*
X161290000Y-131699000D01*
X159766000Y-137795000D02*
X159766000Y-131699000D01*
X160274000Y-137795000D02*
X159766000Y-137795000D01*
X160274000Y-131699000D02*
X160274000Y-137795000D01*
X158750000Y-129159000D02*
X158750000Y-131699000D01*
X161290000Y-129159000D02*
X158750000Y-129159000D01*
X161290000Y-129159000D02*
X161290000Y-131699000D01*
X171450000Y-129159000D02*
X171450000Y-131699000D01*
X171450000Y-129159000D02*
X168910000Y-129159000D01*
X168910000Y-129159000D02*
X168910000Y-131699000D01*
X170434000Y-131699000D02*
X170434000Y-137795000D01*
X170434000Y-137795000D02*
X169926000Y-137795000D01*
X169926000Y-137795000D02*
X169926000Y-131699000D01*
X168910000Y-131699000D02*
X171450000Y-131699000D01*
X166370000Y-131699000D02*
X168910000Y-131699000D01*
X167386000Y-137795000D02*
X167386000Y-131699000D01*
X167894000Y-137795000D02*
X167386000Y-137795000D01*
X167894000Y-131699000D02*
X167894000Y-137795000D01*
X166370000Y-129159000D02*
X166370000Y-131699000D01*
X168910000Y-129159000D02*
X166370000Y-129159000D01*
X168910000Y-129159000D02*
X168910000Y-131699000D01*
X173990000Y-129159000D02*
X173990000Y-131699000D01*
X173990000Y-129159000D02*
X171450000Y-129159000D01*
X171450000Y-129159000D02*
X171450000Y-131699000D01*
X172974000Y-131699000D02*
X172974000Y-137795000D01*
X172974000Y-137795000D02*
X172466000Y-137795000D01*
X172466000Y-137795000D02*
X172466000Y-131699000D01*
X171450000Y-131699000D02*
X173990000Y-131699000D01*
X173990000Y-131699000D02*
X176530000Y-131699000D01*
X175006000Y-137795000D02*
X175006000Y-131699000D01*
X175514000Y-137795000D02*
X175006000Y-137795000D01*
X175514000Y-131699000D02*
X175514000Y-137795000D01*
X173990000Y-129159000D02*
X173990000Y-131699000D01*
X176530000Y-129159000D02*
X173990000Y-129159000D01*
X176530000Y-129159000D02*
X176530000Y-131699000D01*
G04 #@! TO.C,D1*
X110606000Y-117893000D02*
X110806000Y-117893000D01*
X113200000Y-117893000D02*
X113020000Y-117893000D01*
X112889643Y-121120744D02*
G75*
G03X113206000Y-117893000I-1003643J1727744D01*
G01*
X113019068Y-120445006D02*
G75*
G03X113020000Y-118342000I-1133068J1052006D01*
G01*
X110579274Y-117905780D02*
G75*
G03X110926000Y-121143000I1306726J-1497220D01*
G01*
X110806747Y-118379111D02*
G75*
G03X110826000Y-120427000I1079253J-1013889D01*
G01*
G04 #@! TO.C,D2*
X117056000Y-117973000D02*
X117256000Y-117973000D01*
X119650000Y-117973000D02*
X119470000Y-117973000D01*
X119339643Y-121200744D02*
G75*
G03X119656000Y-117973000I-1003643J1727744D01*
G01*
X119469068Y-120525006D02*
G75*
G03X119470000Y-118422000I-1133068J1052006D01*
G01*
X117029274Y-117985780D02*
G75*
G03X117376000Y-121223000I1306726J-1497220D01*
G01*
X117256747Y-118459111D02*
G75*
G03X117276000Y-120507000I1079253J-1013889D01*
G01*
D12*
G04 #@! TO.C,U1*
X142700000Y-71635000D02*
X140930000Y-71635000D01*
X140930000Y-71635000D02*
X140930000Y-89655000D01*
X140930000Y-89655000D02*
X146470000Y-89655000D01*
X146470000Y-89655000D02*
X146470000Y-71635000D01*
X146470000Y-71635000D02*
X144700000Y-71635000D01*
X138500000Y-71635000D02*
X138500000Y-89655000D01*
X138500000Y-89655000D02*
X148900000Y-89655000D01*
X148900000Y-89655000D02*
X148900000Y-71635000D01*
X148900000Y-71635000D02*
X138500000Y-71635000D01*
X144700000Y-71635000D02*
G75*
G02X142700000Y-71635000I-1000000J0D01*
G01*
G04 #@! TO.C,U3*
X112040000Y-74020000D02*
X110270000Y-74020000D01*
X110270000Y-74020000D02*
X110270000Y-94580000D01*
X110270000Y-94580000D02*
X115810000Y-94580000D01*
X115810000Y-94580000D02*
X115810000Y-74020000D01*
X115810000Y-74020000D02*
X114040000Y-74020000D01*
X107840000Y-74020000D02*
X107840000Y-94580000D01*
X107840000Y-94580000D02*
X118240000Y-94580000D01*
X118240000Y-94580000D02*
X118240000Y-74020000D01*
X118240000Y-74020000D02*
X107840000Y-74020000D01*
X114040000Y-74020000D02*
G75*
G02X112040000Y-74020000I-1000000J0D01*
G01*
G04 #@! TO.C,U4*
X127968000Y-71698500D02*
X126198000Y-71698500D01*
X126198000Y-71698500D02*
X126198000Y-89718500D01*
X126198000Y-89718500D02*
X131738000Y-89718500D01*
X131738000Y-89718500D02*
X131738000Y-71698500D01*
X131738000Y-71698500D02*
X129968000Y-71698500D01*
X123768000Y-71698500D02*
X123768000Y-89718500D01*
X123768000Y-89718500D02*
X134168000Y-89718500D01*
X134168000Y-89718500D02*
X134168000Y-71698500D01*
X134168000Y-71698500D02*
X123768000Y-71698500D01*
X129968000Y-71698500D02*
G75*
G02X127968000Y-71698500I-1000000J0D01*
G01*
G04 #@! TO.C,U5*
X127714000Y-95447500D02*
X125944000Y-95447500D01*
X125944000Y-95447500D02*
X125944000Y-113467500D01*
X125944000Y-113467500D02*
X131484000Y-113467500D01*
X131484000Y-113467500D02*
X131484000Y-95447500D01*
X131484000Y-95447500D02*
X129714000Y-95447500D01*
X123514000Y-95447500D02*
X123514000Y-113467500D01*
X123514000Y-113467500D02*
X133914000Y-113467500D01*
X133914000Y-113467500D02*
X133914000Y-95447500D01*
X133914000Y-95447500D02*
X123514000Y-95447500D01*
X129714000Y-95447500D02*
G75*
G02X127714000Y-95447500I-1000000J0D01*
G01*
G04 #@! TO.C,U6*
X164100000Y-72905000D02*
X158520000Y-72905000D01*
X158520000Y-72905000D02*
X158520000Y-113785000D01*
X158520000Y-113785000D02*
X171680000Y-113785000D01*
X171680000Y-113785000D02*
X171680000Y-72905000D01*
X171680000Y-72905000D02*
X166100000Y-72905000D01*
X156090000Y-72905000D02*
X156090000Y-113785000D01*
X156090000Y-113785000D02*
X174110000Y-113785000D01*
X174110000Y-113785000D02*
X174110000Y-72905000D01*
X174110000Y-72905000D02*
X156090000Y-72905000D01*
X166100000Y-72905000D02*
G75*
G02X164100000Y-72905000I-1000000J0D01*
G01*
G04 #@! TO.C,C1*
X148730000Y-70800000D02*
X144610000Y-70800000D01*
X148730000Y-68180000D02*
X144610000Y-68180000D01*
X148730000Y-70800000D02*
X148730000Y-70240000D01*
X148730000Y-68740000D02*
X148730000Y-68180000D01*
X144610000Y-70800000D02*
X144610000Y-70240000D01*
X144610000Y-68740000D02*
X144610000Y-68180000D01*
G04 #@! TO.C,C2*
X148638000Y-94591500D02*
X144518000Y-94591500D01*
X148638000Y-91971500D02*
X144518000Y-91971500D01*
X148638000Y-94591500D02*
X148638000Y-94031500D01*
X148638000Y-92531500D02*
X148638000Y-91971500D01*
X144518000Y-94591500D02*
X144518000Y-94031500D01*
X144518000Y-92531500D02*
X144518000Y-91971500D01*
G04 #@! TO.C,C3*
X118200000Y-73310000D02*
X114080000Y-73310000D01*
X118200000Y-70690000D02*
X114080000Y-70690000D01*
X118200000Y-73310000D02*
X118200000Y-72750000D01*
X118200000Y-71250000D02*
X118200000Y-70690000D01*
X114080000Y-73310000D02*
X114080000Y-72750000D01*
X114080000Y-71250000D02*
X114080000Y-70690000D01*
G04 #@! TO.C,C4*
X133906000Y-70588500D02*
X129786000Y-70588500D01*
X133906000Y-67968500D02*
X129786000Y-67968500D01*
X133906000Y-70588500D02*
X133906000Y-70028500D01*
X133906000Y-68528500D02*
X133906000Y-67968500D01*
X129786000Y-70588500D02*
X129786000Y-70028500D01*
X129786000Y-68528500D02*
X129786000Y-67968500D01*
G04 #@! TO.C,C5*
X133842000Y-94718500D02*
X129722000Y-94718500D01*
X133842000Y-92098500D02*
X129722000Y-92098500D01*
X133842000Y-94718500D02*
X133842000Y-94158500D01*
X133842000Y-92658500D02*
X133842000Y-92098500D01*
X129722000Y-94718500D02*
X129722000Y-94158500D01*
X129722000Y-92658500D02*
X129722000Y-92098500D01*
G04 #@! TO.C,C6*
X173530000Y-72430000D02*
X169410000Y-72430000D01*
X173530000Y-69810000D02*
X169410000Y-69810000D01*
X173530000Y-72430000D02*
X173530000Y-71870000D01*
X173530000Y-70370000D02*
X173530000Y-69810000D01*
X169410000Y-72430000D02*
X169410000Y-71870000D01*
X169410000Y-70370000D02*
X169410000Y-69810000D01*
G04 #@! TO.C,C7*
X196350000Y-77510000D02*
X192230000Y-77510000D01*
X196350000Y-74890000D02*
X192230000Y-74890000D01*
X196350000Y-77510000D02*
X196350000Y-76950000D01*
X196350000Y-75450000D02*
X196350000Y-74890000D01*
X192230000Y-77510000D02*
X192230000Y-76950000D01*
X192230000Y-75450000D02*
X192230000Y-74890000D01*
G04 #@! TO.C,C8*
X189290000Y-126365000D02*
G75*
G03X189290000Y-126365000I-2620000J0D01*
G01*
X186670000Y-123785000D02*
X186670000Y-128945000D01*
X186710000Y-123785000D02*
X186710000Y-128945000D01*
X186750000Y-123786000D02*
X186750000Y-128944000D01*
X186790000Y-123787000D02*
X186790000Y-128943000D01*
X186830000Y-123789000D02*
X186830000Y-128941000D01*
X186870000Y-123792000D02*
X186870000Y-128938000D01*
X186910000Y-123796000D02*
X186910000Y-125325000D01*
X186910000Y-127405000D02*
X186910000Y-128934000D01*
X186950000Y-123800000D02*
X186950000Y-125325000D01*
X186950000Y-127405000D02*
X186950000Y-128930000D01*
X186990000Y-123804000D02*
X186990000Y-125325000D01*
X186990000Y-127405000D02*
X186990000Y-128926000D01*
X187030000Y-123809000D02*
X187030000Y-125325000D01*
X187030000Y-127405000D02*
X187030000Y-128921000D01*
X187070000Y-123815000D02*
X187070000Y-125325000D01*
X187070000Y-127405000D02*
X187070000Y-128915000D01*
X187110000Y-123822000D02*
X187110000Y-125325000D01*
X187110000Y-127405000D02*
X187110000Y-128908000D01*
X187150000Y-123829000D02*
X187150000Y-125325000D01*
X187150000Y-127405000D02*
X187150000Y-128901000D01*
X187190000Y-123837000D02*
X187190000Y-125325000D01*
X187190000Y-127405000D02*
X187190000Y-128893000D01*
X187230000Y-123845000D02*
X187230000Y-125325000D01*
X187230000Y-127405000D02*
X187230000Y-128885000D01*
X187270000Y-123854000D02*
X187270000Y-125325000D01*
X187270000Y-127405000D02*
X187270000Y-128876000D01*
X187310000Y-123864000D02*
X187310000Y-125325000D01*
X187310000Y-127405000D02*
X187310000Y-128866000D01*
X187350000Y-123874000D02*
X187350000Y-125325000D01*
X187350000Y-127405000D02*
X187350000Y-128856000D01*
X187391000Y-123885000D02*
X187391000Y-125325000D01*
X187391000Y-127405000D02*
X187391000Y-128845000D01*
X187431000Y-123897000D02*
X187431000Y-125325000D01*
X187431000Y-127405000D02*
X187431000Y-128833000D01*
X187471000Y-123910000D02*
X187471000Y-125325000D01*
X187471000Y-127405000D02*
X187471000Y-128820000D01*
X187511000Y-123923000D02*
X187511000Y-125325000D01*
X187511000Y-127405000D02*
X187511000Y-128807000D01*
X187551000Y-123937000D02*
X187551000Y-125325000D01*
X187551000Y-127405000D02*
X187551000Y-128793000D01*
X187591000Y-123951000D02*
X187591000Y-125325000D01*
X187591000Y-127405000D02*
X187591000Y-128779000D01*
X187631000Y-123967000D02*
X187631000Y-125325000D01*
X187631000Y-127405000D02*
X187631000Y-128763000D01*
X187671000Y-123983000D02*
X187671000Y-125325000D01*
X187671000Y-127405000D02*
X187671000Y-128747000D01*
X187711000Y-124000000D02*
X187711000Y-125325000D01*
X187711000Y-127405000D02*
X187711000Y-128730000D01*
X187751000Y-124017000D02*
X187751000Y-125325000D01*
X187751000Y-127405000D02*
X187751000Y-128713000D01*
X187791000Y-124036000D02*
X187791000Y-125325000D01*
X187791000Y-127405000D02*
X187791000Y-128694000D01*
X187831000Y-124055000D02*
X187831000Y-125325000D01*
X187831000Y-127405000D02*
X187831000Y-128675000D01*
X187871000Y-124075000D02*
X187871000Y-125325000D01*
X187871000Y-127405000D02*
X187871000Y-128655000D01*
X187911000Y-124097000D02*
X187911000Y-125325000D01*
X187911000Y-127405000D02*
X187911000Y-128633000D01*
X187951000Y-124118000D02*
X187951000Y-125325000D01*
X187951000Y-127405000D02*
X187951000Y-128612000D01*
X187991000Y-124141000D02*
X187991000Y-125325000D01*
X187991000Y-127405000D02*
X187991000Y-128589000D01*
X188031000Y-124165000D02*
X188031000Y-125325000D01*
X188031000Y-127405000D02*
X188031000Y-128565000D01*
X188071000Y-124190000D02*
X188071000Y-125325000D01*
X188071000Y-127405000D02*
X188071000Y-128540000D01*
X188111000Y-124216000D02*
X188111000Y-125325000D01*
X188111000Y-127405000D02*
X188111000Y-128514000D01*
X188151000Y-124243000D02*
X188151000Y-125325000D01*
X188151000Y-127405000D02*
X188151000Y-128487000D01*
X188191000Y-124270000D02*
X188191000Y-125325000D01*
X188191000Y-127405000D02*
X188191000Y-128460000D01*
X188231000Y-124300000D02*
X188231000Y-125325000D01*
X188231000Y-127405000D02*
X188231000Y-128430000D01*
X188271000Y-124330000D02*
X188271000Y-125325000D01*
X188271000Y-127405000D02*
X188271000Y-128400000D01*
X188311000Y-124361000D02*
X188311000Y-125325000D01*
X188311000Y-127405000D02*
X188311000Y-128369000D01*
X188351000Y-124394000D02*
X188351000Y-125325000D01*
X188351000Y-127405000D02*
X188351000Y-128336000D01*
X188391000Y-124428000D02*
X188391000Y-125325000D01*
X188391000Y-127405000D02*
X188391000Y-128302000D01*
X188431000Y-124464000D02*
X188431000Y-125325000D01*
X188431000Y-127405000D02*
X188431000Y-128266000D01*
X188471000Y-124501000D02*
X188471000Y-125325000D01*
X188471000Y-127405000D02*
X188471000Y-128229000D01*
X188511000Y-124539000D02*
X188511000Y-125325000D01*
X188511000Y-127405000D02*
X188511000Y-128191000D01*
X188551000Y-124580000D02*
X188551000Y-125325000D01*
X188551000Y-127405000D02*
X188551000Y-128150000D01*
X188591000Y-124622000D02*
X188591000Y-125325000D01*
X188591000Y-127405000D02*
X188591000Y-128108000D01*
X188631000Y-124666000D02*
X188631000Y-125325000D01*
X188631000Y-127405000D02*
X188631000Y-128064000D01*
X188671000Y-124712000D02*
X188671000Y-125325000D01*
X188671000Y-127405000D02*
X188671000Y-128018000D01*
X188711000Y-124760000D02*
X188711000Y-125325000D01*
X188711000Y-127405000D02*
X188711000Y-127970000D01*
X188751000Y-124811000D02*
X188751000Y-125325000D01*
X188751000Y-127405000D02*
X188751000Y-127919000D01*
X188791000Y-124865000D02*
X188791000Y-125325000D01*
X188791000Y-127405000D02*
X188791000Y-127865000D01*
X188831000Y-124922000D02*
X188831000Y-125325000D01*
X188831000Y-127405000D02*
X188831000Y-127808000D01*
X188871000Y-124982000D02*
X188871000Y-125325000D01*
X188871000Y-127405000D02*
X188871000Y-127748000D01*
X188911000Y-125046000D02*
X188911000Y-125325000D01*
X188911000Y-127405000D02*
X188911000Y-127684000D01*
X188951000Y-125114000D02*
X188951000Y-125325000D01*
X188951000Y-127405000D02*
X188951000Y-127616000D01*
X188991000Y-125187000D02*
X188991000Y-127543000D01*
X189031000Y-125267000D02*
X189031000Y-127463000D01*
X189071000Y-125354000D02*
X189071000Y-127376000D01*
X189111000Y-125450000D02*
X189111000Y-127280000D01*
X189151000Y-125560000D02*
X189151000Y-127170000D01*
X189191000Y-125688000D02*
X189191000Y-127042000D01*
X189231000Y-125847000D02*
X189231000Y-126883000D01*
X189271000Y-126081000D02*
X189271000Y-126649000D01*
X183865225Y-124890000D02*
X184365225Y-124890000D01*
X184115225Y-124640000D02*
X184115225Y-125140000D01*
G04 #@! TO.C,JP1*
D10*
X117907380Y-108813333D02*
X118621666Y-108813333D01*
X118764523Y-108860952D01*
X118859761Y-108956190D01*
X118907380Y-109099047D01*
X118907380Y-109194285D01*
X118907380Y-108337142D02*
X117907380Y-108337142D01*
X117907380Y-107956190D01*
X117955000Y-107860952D01*
X118002619Y-107813333D01*
X118097857Y-107765714D01*
X118240714Y-107765714D01*
X118335952Y-107813333D01*
X118383571Y-107860952D01*
X118431190Y-107956190D01*
X118431190Y-108337142D01*
X118907380Y-106813333D02*
X118907380Y-107384761D01*
X118907380Y-107099047D02*
X117907380Y-107099047D01*
X118050238Y-107194285D01*
X118145476Y-107289523D01*
X118193095Y-107384761D01*
G04 #@! TO.C,Q1*
X135098761Y-116697619D02*
X135003523Y-116650000D01*
X134908285Y-116554761D01*
X134765428Y-116411904D01*
X134670190Y-116364285D01*
X134574952Y-116364285D01*
X134622571Y-116602380D02*
X134527333Y-116554761D01*
X134432095Y-116459523D01*
X134384476Y-116269047D01*
X134384476Y-115935714D01*
X134432095Y-115745238D01*
X134527333Y-115650000D01*
X134622571Y-115602380D01*
X134813047Y-115602380D01*
X134908285Y-115650000D01*
X135003523Y-115745238D01*
X135051142Y-115935714D01*
X135051142Y-116269047D01*
X135003523Y-116459523D01*
X134908285Y-116554761D01*
X134813047Y-116602380D01*
X134622571Y-116602380D01*
X136003523Y-116602380D02*
X135432095Y-116602380D01*
X135717809Y-116602380D02*
X135717809Y-115602380D01*
X135622571Y-115745238D01*
X135527333Y-115840476D01*
X135432095Y-115888095D01*
G04 #@! TO.C,R1*
X107021333Y-125928380D02*
X106688000Y-125452190D01*
X106449904Y-125928380D02*
X106449904Y-124928380D01*
X106830857Y-124928380D01*
X106926095Y-124976000D01*
X106973714Y-125023619D01*
X107021333Y-125118857D01*
X107021333Y-125261714D01*
X106973714Y-125356952D01*
X106926095Y-125404571D01*
X106830857Y-125452190D01*
X106449904Y-125452190D01*
X107973714Y-125928380D02*
X107402285Y-125928380D01*
X107688000Y-125928380D02*
X107688000Y-124928380D01*
X107592761Y-125071238D01*
X107497523Y-125166476D01*
X107402285Y-125214095D01*
G04 #@! TO.C,R2*
X107021333Y-128976380D02*
X106688000Y-128500190D01*
X106449904Y-128976380D02*
X106449904Y-127976380D01*
X106830857Y-127976380D01*
X106926095Y-128024000D01*
X106973714Y-128071619D01*
X107021333Y-128166857D01*
X107021333Y-128309714D01*
X106973714Y-128404952D01*
X106926095Y-128452571D01*
X106830857Y-128500190D01*
X106449904Y-128500190D01*
X107402285Y-128071619D02*
X107449904Y-128024000D01*
X107545142Y-127976380D01*
X107783238Y-127976380D01*
X107878476Y-128024000D01*
X107926095Y-128071619D01*
X107973714Y-128166857D01*
X107973714Y-128262095D01*
X107926095Y-128404952D01*
X107354666Y-128976380D01*
X107973714Y-128976380D01*
G04 #@! TO.C,R4*
X146127173Y-123129300D02*
X145793840Y-122653110D01*
X145555744Y-123129300D02*
X145555744Y-122129300D01*
X145936697Y-122129300D01*
X146031935Y-122176920D01*
X146079554Y-122224539D01*
X146127173Y-122319777D01*
X146127173Y-122462634D01*
X146079554Y-122557872D01*
X146031935Y-122605491D01*
X145936697Y-122653110D01*
X145555744Y-122653110D01*
X146984316Y-122462634D02*
X146984316Y-123129300D01*
X146746220Y-122081681D02*
X146508125Y-122795967D01*
X147127173Y-122795967D01*
G04 #@! TO.C,R5*
X160630573Y-123093740D02*
X160297240Y-122617550D01*
X160059144Y-123093740D02*
X160059144Y-122093740D01*
X160440097Y-122093740D01*
X160535335Y-122141360D01*
X160582954Y-122188979D01*
X160630573Y-122284217D01*
X160630573Y-122427074D01*
X160582954Y-122522312D01*
X160535335Y-122569931D01*
X160440097Y-122617550D01*
X160059144Y-122617550D01*
X161535335Y-122093740D02*
X161059144Y-122093740D01*
X161011525Y-122569931D01*
X161059144Y-122522312D01*
X161154382Y-122474693D01*
X161392478Y-122474693D01*
X161487716Y-122522312D01*
X161535335Y-122569931D01*
X161582954Y-122665169D01*
X161582954Y-122903264D01*
X161535335Y-122998502D01*
X161487716Y-123046121D01*
X161392478Y-123093740D01*
X161154382Y-123093740D01*
X161059144Y-123046121D01*
X161011525Y-122998502D01*
G04 #@! TO.C,J2*
X118686380Y-101298333D02*
X119400666Y-101298333D01*
X119543523Y-101345952D01*
X119638761Y-101441190D01*
X119686380Y-101584047D01*
X119686380Y-101679285D01*
X118781619Y-100869761D02*
X118734000Y-100822142D01*
X118686380Y-100726904D01*
X118686380Y-100488809D01*
X118734000Y-100393571D01*
X118781619Y-100345952D01*
X118876857Y-100298333D01*
X118972095Y-100298333D01*
X119114952Y-100345952D01*
X119686380Y-100917380D01*
X119686380Y-100298333D01*
G04 #@! TO.C,D3*
X123402380Y-120500095D02*
X122402380Y-120500095D01*
X122402380Y-120262000D01*
X122450000Y-120119142D01*
X122545238Y-120023904D01*
X122640476Y-119976285D01*
X122830952Y-119928666D01*
X122973809Y-119928666D01*
X123164285Y-119976285D01*
X123259523Y-120023904D01*
X123354761Y-120119142D01*
X123402380Y-120262000D01*
X123402380Y-120500095D01*
X122402380Y-119595333D02*
X122402380Y-118976285D01*
X122783333Y-119309619D01*
X122783333Y-119166761D01*
X122830952Y-119071523D01*
X122878571Y-119023904D01*
X122973809Y-118976285D01*
X123211904Y-118976285D01*
X123307142Y-119023904D01*
X123354761Y-119071523D01*
X123402380Y-119166761D01*
X123402380Y-119452476D01*
X123354761Y-119547714D01*
X123307142Y-119595333D01*
G04 #@! TO.C,U2*
X138832095Y-93932880D02*
X138832095Y-94742404D01*
X138879714Y-94837642D01*
X138927333Y-94885261D01*
X139022571Y-94932880D01*
X139213047Y-94932880D01*
X139308285Y-94885261D01*
X139355904Y-94837642D01*
X139403523Y-94742404D01*
X139403523Y-93932880D01*
X139832095Y-94028119D02*
X139879714Y-93980500D01*
X139974952Y-93932880D01*
X140213047Y-93932880D01*
X140308285Y-93980500D01*
X140355904Y-94028119D01*
X140403523Y-94123357D01*
X140403523Y-94218595D01*
X140355904Y-94361452D01*
X139784476Y-94932880D01*
X140403523Y-94932880D01*
G04 #@! TO.C,R3*
X106767333Y-113863380D02*
X106434000Y-113387190D01*
X106195904Y-113863380D02*
X106195904Y-112863380D01*
X106576857Y-112863380D01*
X106672095Y-112911000D01*
X106719714Y-112958619D01*
X106767333Y-113053857D01*
X106767333Y-113196714D01*
X106719714Y-113291952D01*
X106672095Y-113339571D01*
X106576857Y-113387190D01*
X106195904Y-113387190D01*
X107100666Y-112863380D02*
X107719714Y-112863380D01*
X107386380Y-113244333D01*
X107529238Y-113244333D01*
X107624476Y-113291952D01*
X107672095Y-113339571D01*
X107719714Y-113434809D01*
X107719714Y-113672904D01*
X107672095Y-113768142D01*
X107624476Y-113815761D01*
X107529238Y-113863380D01*
X107243523Y-113863380D01*
X107148285Y-113815761D01*
X107100666Y-113768142D01*
G04 #@! TO.C,U7*
X179070095Y-76160380D02*
X179070095Y-76969904D01*
X179117714Y-77065142D01*
X179165333Y-77112761D01*
X179260571Y-77160380D01*
X179451047Y-77160380D01*
X179546285Y-77112761D01*
X179593904Y-77065142D01*
X179641523Y-76969904D01*
X179641523Y-76160380D01*
X180022476Y-76160380D02*
X180689142Y-76160380D01*
X180260571Y-77160380D01*
G04 #@! TO.C,J1*
X177252380Y-124793333D02*
X177966666Y-124793333D01*
X178109523Y-124840952D01*
X178204761Y-124936190D01*
X178252380Y-125079047D01*
X178252380Y-125174285D01*
X178252380Y-123793333D02*
X178252380Y-124364761D01*
X178252380Y-124079047D02*
X177252380Y-124079047D01*
X177395238Y-124174285D01*
X177490476Y-124269523D01*
X177538095Y-124364761D01*
G04 #@! TO.C,D1*
X109312380Y-120740095D02*
X108312380Y-120740095D01*
X108312380Y-120502000D01*
X108360000Y-120359142D01*
X108455238Y-120263904D01*
X108550476Y-120216285D01*
X108740952Y-120168666D01*
X108883809Y-120168666D01*
X109074285Y-120216285D01*
X109169523Y-120263904D01*
X109264761Y-120359142D01*
X109312380Y-120502000D01*
X109312380Y-120740095D01*
X109312380Y-119216285D02*
X109312380Y-119787714D01*
X109312380Y-119502000D02*
X108312380Y-119502000D01*
X108455238Y-119597238D01*
X108550476Y-119692476D01*
X108598095Y-119787714D01*
X109832380Y-117718904D02*
X108832380Y-117718904D01*
X109832380Y-117147476D02*
X109260952Y-117576047D01*
X108832380Y-117147476D02*
X109403809Y-117718904D01*
G04 #@! TO.C,D2*
X115762380Y-120820095D02*
X114762380Y-120820095D01*
X114762380Y-120582000D01*
X114810000Y-120439142D01*
X114905238Y-120343904D01*
X115000476Y-120296285D01*
X115190952Y-120248666D01*
X115333809Y-120248666D01*
X115524285Y-120296285D01*
X115619523Y-120343904D01*
X115714761Y-120439142D01*
X115762380Y-120582000D01*
X115762380Y-120820095D01*
X114857619Y-119867714D02*
X114810000Y-119820095D01*
X114762380Y-119724857D01*
X114762380Y-119486761D01*
X114810000Y-119391523D01*
X114857619Y-119343904D01*
X114952857Y-119296285D01*
X115048095Y-119296285D01*
X115190952Y-119343904D01*
X115762380Y-119915333D01*
X115762380Y-119296285D01*
X116192380Y-117673904D02*
X115192380Y-117673904D01*
X116192380Y-117102476D02*
X115620952Y-117531047D01*
X115192380Y-117102476D02*
X115763809Y-117673904D01*
G04 #@! TO.C,U1*
X139128095Y-69937380D02*
X139128095Y-70746904D01*
X139175714Y-70842142D01*
X139223333Y-70889761D01*
X139318571Y-70937380D01*
X139509047Y-70937380D01*
X139604285Y-70889761D01*
X139651904Y-70842142D01*
X139699523Y-70746904D01*
X139699523Y-69937380D01*
X140699523Y-70937380D02*
X140128095Y-70937380D01*
X140413809Y-70937380D02*
X140413809Y-69937380D01*
X140318571Y-70080238D01*
X140223333Y-70175476D01*
X140128095Y-70223095D01*
G04 #@! TO.C,U3*
X107706095Y-72449380D02*
X107706095Y-73258904D01*
X107753714Y-73354142D01*
X107801333Y-73401761D01*
X107896571Y-73449380D01*
X108087047Y-73449380D01*
X108182285Y-73401761D01*
X108229904Y-73354142D01*
X108277523Y-73258904D01*
X108277523Y-72449380D01*
X108658476Y-72449380D02*
X109277523Y-72449380D01*
X108944190Y-72830333D01*
X109087047Y-72830333D01*
X109182285Y-72877952D01*
X109229904Y-72925571D01*
X109277523Y-73020809D01*
X109277523Y-73258904D01*
X109229904Y-73354142D01*
X109182285Y-73401761D01*
X109087047Y-73449380D01*
X108801333Y-73449380D01*
X108706095Y-73401761D01*
X108658476Y-73354142D01*
G04 #@! TO.C,U4*
X123634095Y-70254880D02*
X123634095Y-71064404D01*
X123681714Y-71159642D01*
X123729333Y-71207261D01*
X123824571Y-71254880D01*
X124015047Y-71254880D01*
X124110285Y-71207261D01*
X124157904Y-71159642D01*
X124205523Y-71064404D01*
X124205523Y-70254880D01*
X125110285Y-70588214D02*
X125110285Y-71254880D01*
X124872190Y-70207261D02*
X124634095Y-70921547D01*
X125253142Y-70921547D01*
G04 #@! TO.C,U5*
X124142095Y-93749880D02*
X124142095Y-94559404D01*
X124189714Y-94654642D01*
X124237333Y-94702261D01*
X124332571Y-94749880D01*
X124523047Y-94749880D01*
X124618285Y-94702261D01*
X124665904Y-94654642D01*
X124713523Y-94559404D01*
X124713523Y-93749880D01*
X125665904Y-93749880D02*
X125189714Y-93749880D01*
X125142095Y-94226071D01*
X125189714Y-94178452D01*
X125284952Y-94130833D01*
X125523047Y-94130833D01*
X125618285Y-94178452D01*
X125665904Y-94226071D01*
X125713523Y-94321309D01*
X125713523Y-94559404D01*
X125665904Y-94654642D01*
X125618285Y-94702261D01*
X125523047Y-94749880D01*
X125284952Y-94749880D01*
X125189714Y-94702261D01*
X125142095Y-94654642D01*
G04 #@! TO.C,U6*
X155956095Y-71334380D02*
X155956095Y-72143904D01*
X156003714Y-72239142D01*
X156051333Y-72286761D01*
X156146571Y-72334380D01*
X156337047Y-72334380D01*
X156432285Y-72286761D01*
X156479904Y-72239142D01*
X156527523Y-72143904D01*
X156527523Y-71334380D01*
X157432285Y-71334380D02*
X157241809Y-71334380D01*
X157146571Y-71382000D01*
X157098952Y-71429619D01*
X157003714Y-71572476D01*
X156956095Y-71762952D01*
X156956095Y-72143904D01*
X157003714Y-72239142D01*
X157051333Y-72286761D01*
X157146571Y-72334380D01*
X157337047Y-72334380D01*
X157432285Y-72286761D01*
X157479904Y-72239142D01*
X157527523Y-72143904D01*
X157527523Y-71905809D01*
X157479904Y-71810571D01*
X157432285Y-71762952D01*
X157337047Y-71715333D01*
X157146571Y-71715333D01*
X157051333Y-71762952D01*
X157003714Y-71810571D01*
X156956095Y-71905809D01*
G04 #@! TO.C,C1*
X147724833Y-67349642D02*
X147677214Y-67397261D01*
X147534357Y-67444880D01*
X147439119Y-67444880D01*
X147296261Y-67397261D01*
X147201023Y-67302023D01*
X147153404Y-67206785D01*
X147105785Y-67016309D01*
X147105785Y-66873452D01*
X147153404Y-66682976D01*
X147201023Y-66587738D01*
X147296261Y-66492500D01*
X147439119Y-66444880D01*
X147534357Y-66444880D01*
X147677214Y-66492500D01*
X147724833Y-66540119D01*
X148677214Y-67444880D02*
X148105785Y-67444880D01*
X148391500Y-67444880D02*
X148391500Y-66444880D01*
X148296261Y-66587738D01*
X148201023Y-66682976D01*
X148105785Y-66730595D01*
G04 #@! TO.C,C2*
X147597833Y-91479642D02*
X147550214Y-91527261D01*
X147407357Y-91574880D01*
X147312119Y-91574880D01*
X147169261Y-91527261D01*
X147074023Y-91432023D01*
X147026404Y-91336785D01*
X146978785Y-91146309D01*
X146978785Y-91003452D01*
X147026404Y-90812976D01*
X147074023Y-90717738D01*
X147169261Y-90622500D01*
X147312119Y-90574880D01*
X147407357Y-90574880D01*
X147550214Y-90622500D01*
X147597833Y-90670119D01*
X147978785Y-90670119D02*
X148026404Y-90622500D01*
X148121642Y-90574880D01*
X148359738Y-90574880D01*
X148454976Y-90622500D01*
X148502595Y-90670119D01*
X148550214Y-90765357D01*
X148550214Y-90860595D01*
X148502595Y-91003452D01*
X147931166Y-91574880D01*
X148550214Y-91574880D01*
G04 #@! TO.C,C3*
X117371833Y-69826142D02*
X117324214Y-69873761D01*
X117181357Y-69921380D01*
X117086119Y-69921380D01*
X116943261Y-69873761D01*
X116848023Y-69778523D01*
X116800404Y-69683285D01*
X116752785Y-69492809D01*
X116752785Y-69349952D01*
X116800404Y-69159476D01*
X116848023Y-69064238D01*
X116943261Y-68969000D01*
X117086119Y-68921380D01*
X117181357Y-68921380D01*
X117324214Y-68969000D01*
X117371833Y-69016619D01*
X117705166Y-68921380D02*
X118324214Y-68921380D01*
X117990880Y-69302333D01*
X118133738Y-69302333D01*
X118228976Y-69349952D01*
X118276595Y-69397571D01*
X118324214Y-69492809D01*
X118324214Y-69730904D01*
X118276595Y-69826142D01*
X118228976Y-69873761D01*
X118133738Y-69921380D01*
X117848023Y-69921380D01*
X117752785Y-69873761D01*
X117705166Y-69826142D01*
G04 #@! TO.C,C4*
X133119833Y-67349642D02*
X133072214Y-67397261D01*
X132929357Y-67444880D01*
X132834119Y-67444880D01*
X132691261Y-67397261D01*
X132596023Y-67302023D01*
X132548404Y-67206785D01*
X132500785Y-67016309D01*
X132500785Y-66873452D01*
X132548404Y-66682976D01*
X132596023Y-66587738D01*
X132691261Y-66492500D01*
X132834119Y-66444880D01*
X132929357Y-66444880D01*
X133072214Y-66492500D01*
X133119833Y-66540119D01*
X133976976Y-66778214D02*
X133976976Y-67444880D01*
X133738880Y-66397261D02*
X133500785Y-67111547D01*
X134119833Y-67111547D01*
G04 #@! TO.C,C5*
X132801833Y-91543142D02*
X132754214Y-91590761D01*
X132611357Y-91638380D01*
X132516119Y-91638380D01*
X132373261Y-91590761D01*
X132278023Y-91495523D01*
X132230404Y-91400285D01*
X132182785Y-91209809D01*
X132182785Y-91066952D01*
X132230404Y-90876476D01*
X132278023Y-90781238D01*
X132373261Y-90686000D01*
X132516119Y-90638380D01*
X132611357Y-90638380D01*
X132754214Y-90686000D01*
X132801833Y-90733619D01*
X133706595Y-90638380D02*
X133230404Y-90638380D01*
X133182785Y-91114571D01*
X133230404Y-91066952D01*
X133325642Y-91019333D01*
X133563738Y-91019333D01*
X133658976Y-91066952D01*
X133706595Y-91114571D01*
X133754214Y-91209809D01*
X133754214Y-91447904D01*
X133706595Y-91543142D01*
X133658976Y-91590761D01*
X133563738Y-91638380D01*
X133325642Y-91638380D01*
X133230404Y-91590761D01*
X133182785Y-91543142D01*
G04 #@! TO.C,C6*
X172553333Y-69191142D02*
X172505714Y-69238761D01*
X172362857Y-69286380D01*
X172267619Y-69286380D01*
X172124761Y-69238761D01*
X172029523Y-69143523D01*
X171981904Y-69048285D01*
X171934285Y-68857809D01*
X171934285Y-68714952D01*
X171981904Y-68524476D01*
X172029523Y-68429238D01*
X172124761Y-68334000D01*
X172267619Y-68286380D01*
X172362857Y-68286380D01*
X172505714Y-68334000D01*
X172553333Y-68381619D01*
X173410476Y-68286380D02*
X173220000Y-68286380D01*
X173124761Y-68334000D01*
X173077142Y-68381619D01*
X172981904Y-68524476D01*
X172934285Y-68714952D01*
X172934285Y-69095904D01*
X172981904Y-69191142D01*
X173029523Y-69238761D01*
X173124761Y-69286380D01*
X173315238Y-69286380D01*
X173410476Y-69238761D01*
X173458095Y-69191142D01*
X173505714Y-69095904D01*
X173505714Y-68857809D01*
X173458095Y-68762571D01*
X173410476Y-68714952D01*
X173315238Y-68667333D01*
X173124761Y-68667333D01*
X173029523Y-68714952D01*
X172981904Y-68762571D01*
X172934285Y-68857809D01*
G04 #@! TO.C,C7*
X195159333Y-74525142D02*
X195111714Y-74572761D01*
X194968857Y-74620380D01*
X194873619Y-74620380D01*
X194730761Y-74572761D01*
X194635523Y-74477523D01*
X194587904Y-74382285D01*
X194540285Y-74191809D01*
X194540285Y-74048952D01*
X194587904Y-73858476D01*
X194635523Y-73763238D01*
X194730761Y-73668000D01*
X194873619Y-73620380D01*
X194968857Y-73620380D01*
X195111714Y-73668000D01*
X195159333Y-73715619D01*
X195492666Y-73620380D02*
X196159333Y-73620380D01*
X195730761Y-74620380D01*
G04 #@! TO.C,C8*
X190968333Y-126722142D02*
X190920714Y-126769761D01*
X190777857Y-126817380D01*
X190682619Y-126817380D01*
X190539761Y-126769761D01*
X190444523Y-126674523D01*
X190396904Y-126579285D01*
X190349285Y-126388809D01*
X190349285Y-126245952D01*
X190396904Y-126055476D01*
X190444523Y-125960238D01*
X190539761Y-125865000D01*
X190682619Y-125817380D01*
X190777857Y-125817380D01*
X190920714Y-125865000D01*
X190968333Y-125912619D01*
X191539761Y-126245952D02*
X191444523Y-126198333D01*
X191396904Y-126150714D01*
X191349285Y-126055476D01*
X191349285Y-126007857D01*
X191396904Y-125912619D01*
X191444523Y-125865000D01*
X191539761Y-125817380D01*
X191730238Y-125817380D01*
X191825476Y-125865000D01*
X191873095Y-125912619D01*
X191920714Y-126007857D01*
X191920714Y-126055476D01*
X191873095Y-126150714D01*
X191825476Y-126198333D01*
X191730238Y-126245952D01*
X191539761Y-126245952D01*
X191444523Y-126293571D01*
X191396904Y-126341190D01*
X191349285Y-126436428D01*
X191349285Y-126626904D01*
X191396904Y-126722142D01*
X191444523Y-126769761D01*
X191539761Y-126817380D01*
X191730238Y-126817380D01*
X191825476Y-126769761D01*
X191873095Y-126722142D01*
X191920714Y-126626904D01*
X191920714Y-126436428D01*
X191873095Y-126341190D01*
X191825476Y-126293571D01*
X191730238Y-126245952D01*
G04 #@! TD*
%LPC*%
D13*
G04 #@! TO.C,JP1*
X110327000Y-107980000D03*
D14*
X112867000Y-107980000D03*
X115407000Y-107980000D03*
G04 #@! TD*
D15*
G04 #@! TO.C,Q1*
X135194000Y-119710000D03*
X137734000Y-119710000D03*
D16*
X132654000Y-119710000D03*
G04 #@! TD*
D17*
G04 #@! TO.C,R1*
X109728000Y-125476000D03*
D18*
X119888000Y-125476000D03*
G04 #@! TD*
G04 #@! TO.C,R2*
X119888000Y-128524000D03*
D17*
X109728000Y-128524000D03*
G04 #@! TD*
G04 #@! TO.C,R4*
X151765000Y-120015000D03*
D18*
X141605000Y-120015000D03*
G04 #@! TD*
G04 #@! TO.C,R5*
X155575000Y-120015000D03*
D17*
X165735000Y-120015000D03*
G04 #@! TD*
D13*
G04 #@! TO.C,J2*
X116904000Y-99695000D03*
D14*
X116904000Y-102235000D03*
X114364000Y-99695000D03*
X114364000Y-102235000D03*
X111824000Y-99695000D03*
X111824000Y-102235000D03*
X109284000Y-99695000D03*
X109284000Y-102235000D03*
G04 #@! TD*
D19*
G04 #@! TO.C,D3*
X125870000Y-118032000D03*
D20*
X125870000Y-120572000D03*
G04 #@! TD*
D21*
G04 #@! TO.C,U2*
X139764000Y-96710500D03*
D17*
X147384000Y-111950500D03*
X139764000Y-99250500D03*
X147384000Y-109410500D03*
X139764000Y-101790500D03*
X147384000Y-106870500D03*
X139764000Y-104330500D03*
X147384000Y-104330500D03*
X139764000Y-106870500D03*
X147384000Y-101790500D03*
X139764000Y-109410500D03*
X147384000Y-99250500D03*
X139764000Y-111950500D03*
X147384000Y-96710500D03*
G04 #@! TD*
D18*
G04 #@! TO.C,R3*
X109220000Y-113284000D03*
D17*
X119380000Y-113284000D03*
G04 #@! TD*
D21*
G04 #@! TO.C,U7*
X180340000Y-79375000D03*
D17*
X195580000Y-112395000D03*
X180340000Y-81915000D03*
X195580000Y-109855000D03*
X180340000Y-84455000D03*
X195580000Y-107315000D03*
X180340000Y-86995000D03*
X195580000Y-104775000D03*
X180340000Y-89535000D03*
X195580000Y-102235000D03*
X180340000Y-92075000D03*
X195580000Y-99695000D03*
X180340000Y-94615000D03*
X195580000Y-97155000D03*
X180340000Y-97155000D03*
X195580000Y-94615000D03*
X180340000Y-99695000D03*
X195580000Y-92075000D03*
X180340000Y-102235000D03*
X195580000Y-89535000D03*
X180340000Y-104775000D03*
X195580000Y-86995000D03*
X180340000Y-107315000D03*
X195580000Y-84455000D03*
X180340000Y-109855000D03*
X195580000Y-81915000D03*
X180340000Y-112395000D03*
X195580000Y-79375000D03*
G04 #@! TD*
D22*
G04 #@! TO.C,J1*
X175260000Y-125095000D03*
D23*
X175260000Y-127635000D03*
X172720000Y-125095000D03*
X172720000Y-127635000D03*
X170180000Y-125095000D03*
X170180000Y-127635000D03*
X167640000Y-125095000D03*
X167640000Y-127635000D03*
X165100000Y-125095000D03*
X165100000Y-127635000D03*
X162560000Y-125095000D03*
X162560000Y-127635000D03*
X160020000Y-125095000D03*
X160020000Y-127635000D03*
X157480000Y-125095000D03*
X157480000Y-127635000D03*
X154940000Y-125095000D03*
X154940000Y-127635000D03*
X152400000Y-125095000D03*
X152400000Y-127635000D03*
X149860000Y-125095000D03*
X149860000Y-127635000D03*
X147320000Y-125095000D03*
X147320000Y-127635000D03*
X144780000Y-125095000D03*
X144780000Y-127635000D03*
X142240000Y-125095000D03*
X142240000Y-127635000D03*
X139700000Y-125095000D03*
X139700000Y-127635000D03*
X137160000Y-125095000D03*
X137160000Y-127635000D03*
X134620000Y-125095000D03*
X134620000Y-127635000D03*
X132080000Y-125095000D03*
X132080000Y-127635000D03*
X129540000Y-125095000D03*
X129540000Y-127635000D03*
X127000000Y-125095000D03*
X127000000Y-127635000D03*
G04 #@! TD*
D24*
G04 #@! TO.C,D1*
X111920000Y-118092000D03*
D25*
X111920000Y-120632000D03*
G04 #@! TD*
D24*
G04 #@! TO.C,D2*
X118370000Y-118172000D03*
D25*
X118370000Y-120712000D03*
G04 #@! TD*
D21*
G04 #@! TO.C,U1*
X139890000Y-73025000D03*
D17*
X147510000Y-88265000D03*
X139890000Y-75565000D03*
X147510000Y-85725000D03*
X139890000Y-78105000D03*
X147510000Y-83185000D03*
X139890000Y-80645000D03*
X147510000Y-80645000D03*
X139890000Y-83185000D03*
X147510000Y-78105000D03*
X139890000Y-85725000D03*
X147510000Y-75565000D03*
X139890000Y-88265000D03*
X147510000Y-73025000D03*
G04 #@! TD*
D21*
G04 #@! TO.C,U3*
X109230000Y-75410000D03*
D17*
X116850000Y-93190000D03*
X109230000Y-77950000D03*
X116850000Y-90650000D03*
X109230000Y-80490000D03*
X116850000Y-88110000D03*
X109230000Y-83030000D03*
X116850000Y-85570000D03*
X109230000Y-85570000D03*
X116850000Y-83030000D03*
X109230000Y-88110000D03*
X116850000Y-80490000D03*
X109230000Y-90650000D03*
X116850000Y-77950000D03*
X109230000Y-93190000D03*
X116850000Y-75410000D03*
G04 #@! TD*
D21*
G04 #@! TO.C,U4*
X125158000Y-73088500D03*
D17*
X132778000Y-88328500D03*
X125158000Y-75628500D03*
X132778000Y-85788500D03*
X125158000Y-78168500D03*
X132778000Y-83248500D03*
X125158000Y-80708500D03*
X132778000Y-80708500D03*
X125158000Y-83248500D03*
X132778000Y-78168500D03*
X125158000Y-85788500D03*
X132778000Y-75628500D03*
X125158000Y-88328500D03*
X132778000Y-73088500D03*
G04 #@! TD*
D21*
G04 #@! TO.C,U5*
X124904000Y-96837500D03*
D17*
X132524000Y-112077500D03*
X124904000Y-99377500D03*
X132524000Y-109537500D03*
X124904000Y-101917500D03*
X132524000Y-106997500D03*
X124904000Y-104457500D03*
X132524000Y-104457500D03*
X124904000Y-106997500D03*
X132524000Y-101917500D03*
X124904000Y-109537500D03*
X132524000Y-99377500D03*
X124904000Y-112077500D03*
X132524000Y-96837500D03*
G04 #@! TD*
D21*
G04 #@! TO.C,U6*
X157480000Y-74295000D03*
D17*
X172720000Y-112395000D03*
X157480000Y-76835000D03*
X172720000Y-109855000D03*
X157480000Y-79375000D03*
X172720000Y-107315000D03*
X157480000Y-81915000D03*
X172720000Y-104775000D03*
X157480000Y-84455000D03*
X172720000Y-102235000D03*
X157480000Y-86995000D03*
X172720000Y-99695000D03*
X157480000Y-89535000D03*
X172720000Y-97155000D03*
X157480000Y-92075000D03*
X172720000Y-94615000D03*
X157480000Y-94615000D03*
X172720000Y-92075000D03*
X157480000Y-97155000D03*
X172720000Y-89535000D03*
X157480000Y-99695000D03*
X172720000Y-86995000D03*
X157480000Y-102235000D03*
X172720000Y-84455000D03*
X157480000Y-104775000D03*
X172720000Y-81915000D03*
X157480000Y-107315000D03*
X172720000Y-79375000D03*
X157480000Y-109855000D03*
X172720000Y-76835000D03*
X157480000Y-112395000D03*
X172720000Y-74295000D03*
G04 #@! TD*
D18*
G04 #@! TO.C,C1*
X147920000Y-69490000D03*
X145420000Y-69490000D03*
G04 #@! TD*
G04 #@! TO.C,C2*
X147828000Y-93281500D03*
X145328000Y-93281500D03*
G04 #@! TD*
G04 #@! TO.C,C3*
X117390000Y-72000000D03*
X114890000Y-72000000D03*
G04 #@! TD*
G04 #@! TO.C,C4*
X133096000Y-69278500D03*
X130596000Y-69278500D03*
G04 #@! TD*
G04 #@! TO.C,C5*
X133032000Y-93408500D03*
X130532000Y-93408500D03*
G04 #@! TD*
G04 #@! TO.C,C6*
X172720000Y-71120000D03*
X170220000Y-71120000D03*
G04 #@! TD*
G04 #@! TO.C,C7*
X195540000Y-76200000D03*
X193040000Y-76200000D03*
G04 #@! TD*
D21*
G04 #@! TO.C,C8*
X185420000Y-126365000D03*
D18*
X187920000Y-126365000D03*
G04 #@! TD*
D26*
G04 #@! TO.C,MH1*
X106650000Y-68200000D03*
G04 #@! TD*
G04 #@! TO.C,MH2*
X195640000Y-68150000D03*
G04 #@! TD*
G04 #@! TO.C,MH3*
X106550000Y-134220000D03*
G04 #@! TD*
G04 #@! TO.C,MH4*
X195640000Y-134120000D03*
G04 #@! TD*
M02*
