G04 #@! TF.GenerationSoftware,KiCad,Pcbnew,(5.1.4-0-10_14)*
G04 #@! TF.CreationDate,2021-03-24T22:09:23+09:00*
G04 #@! TF.ProjectId,Z80-1MSRAM,5a38302d-314d-4535-9241-4d2e6b696361,rev?*
G04 #@! TF.SameCoordinates,Original*
G04 #@! TF.FileFunction,Copper,L2,Bot*
G04 #@! TF.FilePolarity,Positive*
%FSLAX46Y46*%
G04 Gerber Fmt 4.6, Leading zero omitted, Abs format (unit mm)*
G04 Created by KiCad (PCBNEW (5.1.4-0-10_14)) date 2021-03-24 22:09:23*
%MOMM*%
%LPD*%
G04 APERTURE LIST*
%ADD10O,1.700000X1.700000*%
%ADD11R,1.700000X1.700000*%
%ADD12C,1.600000*%
%ADD13C,1.500000*%
%ADD14R,1.500000X1.500000*%
%ADD15O,1.600000X1.600000*%
%ADD16R,1.800000X1.800000*%
%ADD17C,1.800000*%
%ADD18R,1.600000X1.600000*%
%ADD19R,1.727200X1.727200*%
%ADD20O,1.727200X1.727200*%
%ADD21R,2.000000X2.000000*%
%ADD22C,2.000000*%
%ADD23C,0.800000*%
%ADD24C,0.250000*%
%ADD25C,0.600000*%
%ADD26C,0.254000*%
G04 APERTURE END LIST*
D10*
X194000000Y-79580000D03*
X194000000Y-77040000D03*
D11*
X194000000Y-74500000D03*
D10*
X197500000Y-79580000D03*
X197500000Y-77040000D03*
D11*
X197500000Y-74500000D03*
D10*
X197000000Y-102000000D03*
X197000000Y-99460000D03*
X197000000Y-96920000D03*
X197000000Y-94380000D03*
D11*
X197000000Y-91840000D03*
X105120000Y-87860000D03*
D10*
X105120000Y-90400000D03*
X105120000Y-92940000D03*
D12*
X122761000Y-126220000D03*
X122761000Y-128720000D03*
D11*
X110387000Y-114590000D03*
D10*
X112927000Y-114590000D03*
X115467000Y-114590000D03*
D13*
X128700000Y-127910000D03*
X131240000Y-127910000D03*
D14*
X126160000Y-127910000D03*
D15*
X172558000Y-81776000D03*
D12*
X182718000Y-81776000D03*
X182718000Y-84824000D03*
D15*
X172558000Y-84824000D03*
X118420000Y-132420000D03*
D12*
X118420000Y-122260000D03*
X135640000Y-127690000D03*
D15*
X145800000Y-127690000D03*
D11*
X116964000Y-106305000D03*
D10*
X116964000Y-108845000D03*
X114424000Y-106305000D03*
X114424000Y-108845000D03*
X111884000Y-106305000D03*
X111884000Y-108845000D03*
X109344000Y-106305000D03*
X109344000Y-108845000D03*
D16*
X186410000Y-74470000D03*
D17*
X186410000Y-77010000D03*
D18*
X137534000Y-105490000D03*
D15*
X145154000Y-120730000D03*
X137534000Y-108030000D03*
X145154000Y-118190000D03*
X137534000Y-110570000D03*
X145154000Y-115650000D03*
X137534000Y-113110000D03*
X145154000Y-113110000D03*
X137534000Y-115650000D03*
X145154000Y-110570000D03*
X137534000Y-118190000D03*
X145154000Y-108030000D03*
X137534000Y-120730000D03*
X145154000Y-105490000D03*
D12*
X182690000Y-87900000D03*
D15*
X172530000Y-87900000D03*
D18*
X174340000Y-93875000D03*
D15*
X189580000Y-126895000D03*
X174340000Y-96415000D03*
X189580000Y-124355000D03*
X174340000Y-98955000D03*
X189580000Y-121815000D03*
X174340000Y-101495000D03*
X189580000Y-119275000D03*
X174340000Y-104035000D03*
X189580000Y-116735000D03*
X174340000Y-106575000D03*
X189580000Y-114195000D03*
X174340000Y-109115000D03*
X189580000Y-111655000D03*
X174340000Y-111655000D03*
X189580000Y-109115000D03*
X174340000Y-114195000D03*
X189580000Y-106575000D03*
X174340000Y-116735000D03*
X189580000Y-104035000D03*
X174340000Y-119275000D03*
X189580000Y-101495000D03*
X174340000Y-121815000D03*
X189580000Y-98955000D03*
X174340000Y-124355000D03*
X189580000Y-96415000D03*
X174340000Y-126895000D03*
X189580000Y-93875000D03*
D19*
X125000000Y-69500000D03*
D20*
X125000000Y-66960000D03*
X127540000Y-69500000D03*
X127540000Y-66960000D03*
X130080000Y-69500000D03*
X130080000Y-66960000D03*
X132620000Y-69500000D03*
X132620000Y-66960000D03*
X135160000Y-69500000D03*
X135160000Y-66960000D03*
X137700000Y-69500000D03*
X137700000Y-66960000D03*
X140240000Y-69500000D03*
X140240000Y-66960000D03*
X142780000Y-69500000D03*
X142780000Y-66960000D03*
X145320000Y-69500000D03*
X145320000Y-66960000D03*
X147860000Y-69500000D03*
X147860000Y-66960000D03*
X150400000Y-69500000D03*
X150400000Y-66960000D03*
X152940000Y-69500000D03*
X152940000Y-66960000D03*
X155480000Y-69500000D03*
X155480000Y-66960000D03*
X158020000Y-69500000D03*
X158020000Y-66960000D03*
X160560000Y-69500000D03*
X160560000Y-66960000D03*
X163100000Y-69500000D03*
X163100000Y-66960000D03*
X165640000Y-69500000D03*
X165640000Y-66960000D03*
X168180000Y-69500000D03*
X168180000Y-66960000D03*
X170720000Y-69500000D03*
X170720000Y-66960000D03*
X173260000Y-69500000D03*
X173260000Y-66960000D03*
D21*
X173910000Y-74442000D03*
D22*
X173910000Y-76982000D03*
D21*
X180360000Y-74522000D03*
D22*
X180360000Y-77062000D03*
D18*
X137660000Y-81805000D03*
D15*
X145280000Y-97045000D03*
X137660000Y-84345000D03*
X145280000Y-94505000D03*
X137660000Y-86885000D03*
X145280000Y-91965000D03*
X137660000Y-89425000D03*
X145280000Y-89425000D03*
X137660000Y-91965000D03*
X145280000Y-86885000D03*
X137660000Y-94505000D03*
X145280000Y-84345000D03*
X137660000Y-97045000D03*
X145280000Y-81805000D03*
D18*
X109290000Y-82020000D03*
D15*
X116910000Y-99800000D03*
X109290000Y-84560000D03*
X116910000Y-97260000D03*
X109290000Y-87100000D03*
X116910000Y-94720000D03*
X109290000Y-89640000D03*
X116910000Y-92180000D03*
X109290000Y-92180000D03*
X116910000Y-89640000D03*
X109290000Y-94720000D03*
X116910000Y-87100000D03*
X109290000Y-97260000D03*
X116910000Y-84560000D03*
X109290000Y-99800000D03*
X116910000Y-82020000D03*
D18*
X122928000Y-81868500D03*
D15*
X130548000Y-97108500D03*
X122928000Y-84408500D03*
X130548000Y-94568500D03*
X122928000Y-86948500D03*
X130548000Y-92028500D03*
X122928000Y-89488500D03*
X130548000Y-89488500D03*
X122928000Y-92028500D03*
X130548000Y-86948500D03*
X122928000Y-94568500D03*
X130548000Y-84408500D03*
X122928000Y-97108500D03*
X130548000Y-81868500D03*
D18*
X122674000Y-105618000D03*
D15*
X130294000Y-120858000D03*
X122674000Y-108158000D03*
X130294000Y-118318000D03*
X122674000Y-110698000D03*
X130294000Y-115778000D03*
X122674000Y-113238000D03*
X130294000Y-113238000D03*
X122674000Y-115778000D03*
X130294000Y-110698000D03*
X122674000Y-118318000D03*
X130294000Y-108158000D03*
X122674000Y-120858000D03*
X130294000Y-105618000D03*
D18*
X151480000Y-88795000D03*
D15*
X166720000Y-126895000D03*
X151480000Y-91335000D03*
X166720000Y-124355000D03*
X151480000Y-93875000D03*
X166720000Y-121815000D03*
X151480000Y-96415000D03*
X166720000Y-119275000D03*
X151480000Y-98955000D03*
X166720000Y-116735000D03*
X151480000Y-101495000D03*
X166720000Y-114195000D03*
X151480000Y-104035000D03*
X166720000Y-111655000D03*
X151480000Y-106575000D03*
X166720000Y-109115000D03*
X151480000Y-109115000D03*
X166720000Y-106575000D03*
X151480000Y-111655000D03*
X166720000Y-104035000D03*
X151480000Y-114195000D03*
X166720000Y-101495000D03*
X151480000Y-116735000D03*
X166720000Y-98955000D03*
X151480000Y-119275000D03*
X166720000Y-96415000D03*
X151480000Y-121815000D03*
X166720000Y-93875000D03*
X151480000Y-124355000D03*
X166720000Y-91335000D03*
X151480000Y-126895000D03*
X166720000Y-88795000D03*
D12*
X145690000Y-78270000D03*
X143190000Y-78270000D03*
X145598000Y-102062000D03*
X143098000Y-102062000D03*
X117450000Y-78610000D03*
X114950000Y-78610000D03*
X130866000Y-78058500D03*
X128366000Y-78058500D03*
X130880000Y-102050000D03*
X128380000Y-102050000D03*
X167230000Y-85200000D03*
X164730000Y-85200000D03*
X190060000Y-90250000D03*
X187560000Y-90250000D03*
D18*
X113000000Y-66500000D03*
D12*
X115500000Y-66500000D03*
D23*
X171421800Y-87024800D03*
X141568700Y-81314400D03*
X191287100Y-77176800D03*
X160669800Y-76478900D03*
X163925300Y-96708400D03*
X147364000Y-114127100D03*
X151895700Y-79954300D03*
D24*
X173910000Y-76982000D02*
X172558000Y-78334000D01*
X172558000Y-78334000D02*
X172558000Y-81776000D01*
X180360000Y-74522000D02*
X177404700Y-77477300D01*
X177404700Y-77477300D02*
X177404700Y-78586300D01*
X177404700Y-78586300D02*
X172803200Y-83187800D01*
X172803200Y-83187800D02*
X172556100Y-83187800D01*
X172556100Y-83187800D02*
X171421800Y-84322100D01*
X171421800Y-84322100D02*
X171421800Y-87024800D01*
X173683300Y-84824000D02*
X173683300Y-83738700D01*
X173683300Y-83738700D02*
X180360000Y-77062000D01*
X172558000Y-84824000D02*
X173683300Y-84824000D01*
D25*
X182690000Y-87900000D02*
X187710000Y-87900000D01*
X187710000Y-87900000D02*
X190060000Y-90250000D01*
X182718000Y-84824000D02*
X182690000Y-84852000D01*
X182690000Y-84852000D02*
X182690000Y-87900000D01*
X145800000Y-127690000D02*
X145800000Y-126389700D01*
X145154000Y-115650000D02*
X146454400Y-116950400D01*
X146454400Y-116950400D02*
X146454400Y-125735300D01*
X146454400Y-125735300D02*
X145800000Y-126389700D01*
X145280000Y-81805000D02*
X145280000Y-80504700D01*
X145280000Y-80504700D02*
X145690000Y-80094700D01*
X145690000Y-80094700D02*
X145690000Y-78270000D01*
X125000000Y-69500000D02*
X125000000Y-70863900D01*
X125000000Y-70863900D02*
X117450000Y-78413900D01*
X117450000Y-78413900D02*
X117450000Y-78610000D01*
X130880000Y-102050000D02*
X129222400Y-100392400D01*
X129222400Y-100392400D02*
X129222400Y-83194100D01*
X129222400Y-83194100D02*
X130548000Y-81868500D01*
X130294000Y-104317700D02*
X130880000Y-103731700D01*
X130880000Y-103731700D02*
X130880000Y-102050000D01*
X189580000Y-93875000D02*
X189580000Y-92574700D01*
X189580000Y-92574700D02*
X190060000Y-92094700D01*
X190060000Y-92094700D02*
X190060000Y-90250000D01*
X130548000Y-81868500D02*
X130548000Y-80568200D01*
X127540000Y-69500000D02*
X127540000Y-70863900D01*
X130866000Y-78058500D02*
X130866000Y-74189900D01*
X130866000Y-74189900D02*
X127540000Y-70863900D01*
X130548000Y-80568200D02*
X130866000Y-80250200D01*
X130866000Y-80250200D02*
X130866000Y-78058500D01*
X145154000Y-105490000D02*
X145154000Y-104189700D01*
X145598000Y-102062000D02*
X145598000Y-103745700D01*
X145598000Y-103745700D02*
X145154000Y-104189700D01*
X130294000Y-105618000D02*
X130294000Y-104317700D01*
X166720000Y-88795000D02*
X166720000Y-87494700D01*
X167230000Y-85200000D02*
X167230000Y-86984700D01*
X167230000Y-86984700D02*
X166720000Y-87494700D01*
X124682800Y-80566700D02*
X121878500Y-80566700D01*
X121878500Y-80566700D02*
X118210300Y-84234900D01*
X118210300Y-84234900D02*
X118210300Y-84560000D01*
X128366000Y-78058500D02*
X127191000Y-78058500D01*
X127191000Y-78058500D02*
X124682800Y-80566700D01*
X124682800Y-80566700D02*
X124682800Y-95353700D01*
X124682800Y-95353700D02*
X122928000Y-97108500D01*
X115500000Y-66960000D02*
X115500000Y-78060000D01*
X115500000Y-78060000D02*
X114950000Y-78610000D01*
X115500000Y-66500000D02*
X115500000Y-66960000D01*
X115500000Y-66960000D02*
X123636100Y-66960000D01*
X125000000Y-66960000D02*
X123636100Y-66960000D01*
X116910000Y-84560000D02*
X118210300Y-84560000D01*
X113623400Y-80653200D02*
X113623400Y-81273400D01*
X113623400Y-81273400D02*
X116910000Y-84560000D01*
X114950000Y-78610000D02*
X113623400Y-79936600D01*
X113623400Y-79936600D02*
X113623400Y-80653200D01*
X113623400Y-80653200D02*
X108306300Y-80653200D01*
X108306300Y-80653200D02*
X106594000Y-82365500D01*
X106594000Y-82365500D02*
X106594000Y-87860000D01*
X106594000Y-87860000D02*
X106594000Y-97104000D01*
X106594000Y-97104000D02*
X109290000Y-99800000D01*
X106470300Y-87860000D02*
X106594000Y-87860000D01*
X105120000Y-87860000D02*
X106470300Y-87860000D01*
X137534000Y-120730000D02*
X143098000Y-115166000D01*
X143098000Y-115166000D02*
X143098000Y-102062000D01*
X126160000Y-125644300D02*
X126160000Y-127910000D01*
X122674000Y-122158300D02*
X126160000Y-125644300D01*
X126160000Y-125644300D02*
X131319400Y-125644300D01*
X131319400Y-125644300D02*
X136233700Y-120730000D01*
X137534000Y-120730000D02*
X136233700Y-120730000D01*
X151480000Y-126895000D02*
X152780300Y-126895000D01*
X166720000Y-114195000D02*
X165419700Y-114195000D01*
X152780300Y-126895000D02*
X152780300Y-126834400D01*
X152780300Y-126834400D02*
X165419700Y-114195000D01*
X166720000Y-114195000D02*
X170253000Y-117728000D01*
X170253000Y-117728000D02*
X170253000Y-122808000D01*
X170253000Y-122808000D02*
X174340000Y-126895000D01*
X137660000Y-97045000D02*
X138960300Y-97045000D01*
X138960300Y-97045000D02*
X143098000Y-101182700D01*
X143098000Y-101182700D02*
X143098000Y-102062000D01*
X122674000Y-120858000D02*
X122674000Y-122158300D01*
D24*
X135160000Y-69500000D02*
X135160000Y-70688900D01*
X137534000Y-108030000D02*
X137534000Y-106904700D01*
X137534000Y-106904700D02*
X136830700Y-106904700D01*
X136830700Y-106904700D02*
X135075600Y-105149600D01*
X135075600Y-105149600D02*
X135075600Y-70773300D01*
X135075600Y-70773300D02*
X135160000Y-70688900D01*
X151480000Y-120689700D02*
X151198700Y-120689700D01*
X151198700Y-120689700D02*
X148089300Y-117580300D01*
X148089300Y-117580300D02*
X148089300Y-113826600D01*
X148089300Y-113826600D02*
X145958000Y-111695300D01*
X145958000Y-111695300D02*
X145154000Y-111695300D01*
X151480000Y-121815000D02*
X151480000Y-120689700D01*
X145154000Y-110570000D02*
X145154000Y-109444700D01*
X135160000Y-66960000D02*
X135160000Y-68148900D01*
X135160000Y-68148900D02*
X135531600Y-68148900D01*
X135531600Y-68148900D02*
X136348900Y-68966200D01*
X136348900Y-68966200D02*
X136348900Y-77840700D01*
X136348900Y-77840700D02*
X143870000Y-85361800D01*
X143870000Y-85361800D02*
X143870000Y-92178600D01*
X143870000Y-92178600D02*
X144926400Y-93235000D01*
X144926400Y-93235000D02*
X145614400Y-93235000D01*
X145614400Y-93235000D02*
X146751200Y-94371800D01*
X146751200Y-94371800D02*
X146751200Y-108128800D01*
X146751200Y-108128800D02*
X145435300Y-109444700D01*
X145435300Y-109444700D02*
X145154000Y-109444700D01*
X145154000Y-110570000D02*
X145154000Y-111695300D01*
X137700000Y-70688900D02*
X137700000Y-78471400D01*
X137700000Y-78471400D02*
X144843600Y-85615000D01*
X144843600Y-85615000D02*
X145668600Y-85615000D01*
X145668600Y-85615000D02*
X149454100Y-89400500D01*
X149454100Y-89400500D02*
X149454100Y-116306700D01*
X149454100Y-116306700D02*
X151152400Y-118005000D01*
X151152400Y-118005000D02*
X151836100Y-118005000D01*
X151836100Y-118005000D02*
X152608300Y-118777200D01*
X152608300Y-118777200D02*
X152608300Y-122382700D01*
X152608300Y-122382700D02*
X151761300Y-123229700D01*
X151761300Y-123229700D02*
X151480000Y-123229700D01*
X151480000Y-124355000D02*
X151480000Y-123229700D01*
X137700000Y-69500000D02*
X137700000Y-70688900D01*
X189580000Y-125769700D02*
X189861300Y-125769700D01*
X189861300Y-125769700D02*
X199664600Y-115966400D01*
X199664600Y-115966400D02*
X199664600Y-73816600D01*
X199664600Y-73816600D02*
X189700700Y-63852700D01*
X189700700Y-63852700D02*
X141624700Y-63852700D01*
X141624700Y-63852700D02*
X138888900Y-66588500D01*
X138888900Y-66588500D02*
X138888900Y-66960000D01*
X137700000Y-66960000D02*
X138888900Y-66960000D01*
X189580000Y-126895000D02*
X189580000Y-125769700D01*
X189580000Y-120689700D02*
X189861300Y-120689700D01*
X189861300Y-120689700D02*
X199186700Y-111364300D01*
X199186700Y-111364300D02*
X199186700Y-73984200D01*
X199186700Y-73984200D02*
X189557400Y-64354900D01*
X189557400Y-64354900D02*
X143662500Y-64354900D01*
X143662500Y-64354900D02*
X141428900Y-66588500D01*
X141428900Y-66588500D02*
X141428900Y-66960000D01*
X140240000Y-66960000D02*
X141428900Y-66960000D01*
X189580000Y-121815000D02*
X189580000Y-120689700D01*
X189580000Y-118149700D02*
X189861300Y-118149700D01*
X189861300Y-118149700D02*
X198689300Y-109321700D01*
X198689300Y-109321700D02*
X198689300Y-76533400D01*
X198689300Y-76533400D02*
X197940500Y-75784600D01*
X197940500Y-75784600D02*
X196549700Y-75784600D01*
X196549700Y-75784600D02*
X196324600Y-75559500D01*
X196324600Y-75559500D02*
X196324600Y-74581700D01*
X196324600Y-74581700D02*
X186552500Y-64809600D01*
X186552500Y-64809600D02*
X145736200Y-64809600D01*
X145736200Y-64809600D02*
X143968900Y-66576900D01*
X143968900Y-66576900D02*
X143968900Y-67493800D01*
X143968900Y-67493800D02*
X143151600Y-68311100D01*
X143151600Y-68311100D02*
X142780000Y-68311100D01*
X142780000Y-69500000D02*
X142780000Y-68311100D01*
X189580000Y-119275000D02*
X189580000Y-118149700D01*
X147860000Y-69500000D02*
X147860000Y-70688900D01*
X141568700Y-81314400D02*
X141568700Y-76980200D01*
X141568700Y-76980200D02*
X147860000Y-70688900D01*
X147860000Y-66960000D02*
X149048900Y-66960000D01*
X166720000Y-96415000D02*
X166720000Y-95289700D01*
X166720000Y-95289700D02*
X166438700Y-95289700D01*
X166438700Y-95289700D02*
X165551100Y-94402100D01*
X165551100Y-94402100D02*
X165551100Y-87779200D01*
X165551100Y-87779200D02*
X165855400Y-87474900D01*
X165855400Y-87474900D02*
X165855400Y-78104900D01*
X165855400Y-78104900D02*
X166854100Y-77106200D01*
X166854100Y-77106200D02*
X166854100Y-66492700D01*
X166854100Y-66492700D02*
X165673500Y-65312100D01*
X165673500Y-65312100D02*
X150325300Y-65312100D01*
X150325300Y-65312100D02*
X149048900Y-66588500D01*
X149048900Y-66588500D02*
X149048900Y-66960000D01*
X155480000Y-69500000D02*
X155480000Y-101647900D01*
X155480000Y-101647900D02*
X151915300Y-105212600D01*
X151915300Y-105212600D02*
X151193300Y-105212600D01*
X151193300Y-105212600D02*
X149904400Y-106501500D01*
X149904400Y-106501500D02*
X149904400Y-114306600D01*
X149904400Y-114306600D02*
X151207500Y-115609700D01*
X151207500Y-115609700D02*
X151480000Y-115609700D01*
X151480000Y-116735000D02*
X151480000Y-115609700D01*
X155480000Y-66960000D02*
X155480000Y-68148900D01*
X151480000Y-114195000D02*
X151480000Y-113069700D01*
X151480000Y-113069700D02*
X151198600Y-113069700D01*
X151198600Y-113069700D02*
X150354700Y-112225800D01*
X150354700Y-112225800D02*
X150354700Y-108642700D01*
X150354700Y-108642700D02*
X151152400Y-107845000D01*
X151152400Y-107845000D02*
X151824600Y-107845000D01*
X151824600Y-107845000D02*
X156668900Y-103000700D01*
X156668900Y-103000700D02*
X156668900Y-68966200D01*
X156668900Y-68966200D02*
X155851600Y-68148900D01*
X155851600Y-68148900D02*
X155480000Y-68148900D01*
X158020000Y-104552300D02*
X166248000Y-112780300D01*
X166248000Y-112780300D02*
X172089400Y-112780300D01*
X172089400Y-112780300D02*
X173214700Y-111655000D01*
X158020000Y-69500000D02*
X158020000Y-104552300D01*
X158020000Y-104552300D02*
X152042600Y-110529700D01*
X152042600Y-110529700D02*
X151480000Y-110529700D01*
X174340000Y-111655000D02*
X173214700Y-111655000D01*
X151480000Y-111655000D02*
X151480000Y-110529700D01*
X174340000Y-109115000D02*
X173214700Y-109115000D01*
X158020000Y-66960000D02*
X158020000Y-68148900D01*
X158020000Y-68148900D02*
X158391600Y-68148900D01*
X158391600Y-68148900D02*
X159208900Y-68966200D01*
X159208900Y-68966200D02*
X159208900Y-100694500D01*
X159208900Y-100694500D02*
X166504100Y-107989700D01*
X166504100Y-107989700D02*
X172089400Y-107989700D01*
X172089400Y-107989700D02*
X173214700Y-109115000D01*
X160560000Y-69500000D02*
X160560000Y-70688900D01*
X174340000Y-106575000D02*
X173214700Y-106575000D01*
X173214700Y-106575000D02*
X169404700Y-102765000D01*
X169404700Y-102765000D02*
X166373500Y-102765000D01*
X166373500Y-102765000D02*
X161400700Y-97792200D01*
X161400700Y-97792200D02*
X161400700Y-71529600D01*
X161400700Y-71529600D02*
X160560000Y-70688900D01*
X160560000Y-66960000D02*
X159371100Y-66960000D01*
X151480000Y-104035000D02*
X151480000Y-102909700D01*
X151480000Y-102909700D02*
X151761300Y-102909700D01*
X151761300Y-102909700D02*
X154210000Y-100461000D01*
X154210000Y-100461000D02*
X154210000Y-66516400D01*
X154210000Y-66516400D02*
X154955300Y-65771100D01*
X154955300Y-65771100D02*
X158553800Y-65771100D01*
X158553800Y-65771100D02*
X159371100Y-66588400D01*
X159371100Y-66588400D02*
X159371100Y-66960000D01*
X163100000Y-70688900D02*
X163100000Y-96926600D01*
X163100000Y-96926600D02*
X166543100Y-100369700D01*
X166543100Y-100369700D02*
X172089400Y-100369700D01*
X172089400Y-100369700D02*
X173214700Y-101495000D01*
X163100000Y-69500000D02*
X163100000Y-70688900D01*
X174340000Y-101495000D02*
X173214700Y-101495000D01*
X166720000Y-101495000D02*
X161866200Y-96641200D01*
X161866200Y-96641200D02*
X161866200Y-66458400D01*
X161866200Y-66458400D02*
X162562100Y-65762500D01*
X162562100Y-65762500D02*
X163625300Y-65762500D01*
X163625300Y-65762500D02*
X164451100Y-66588300D01*
X164451100Y-66588300D02*
X164451100Y-67493800D01*
X164451100Y-67493800D02*
X165268400Y-68311100D01*
X165268400Y-68311100D02*
X165640000Y-68311100D01*
X165640000Y-69500000D02*
X165640000Y-68311100D01*
X189580000Y-110529700D02*
X189861300Y-110529700D01*
X189861300Y-110529700D02*
X192131400Y-108259600D01*
X192131400Y-108259600D02*
X192131400Y-78021100D01*
X192131400Y-78021100D02*
X191287100Y-77176800D01*
X189580000Y-111655000D02*
X189580000Y-110529700D01*
X189580000Y-111655000D02*
X188454700Y-111655000D01*
X166720000Y-111655000D02*
X167845300Y-111655000D01*
X167845300Y-111655000D02*
X168970600Y-110529700D01*
X168970600Y-110529700D02*
X187329400Y-110529700D01*
X187329400Y-110529700D02*
X188454700Y-111655000D01*
X166720000Y-105449700D02*
X166438700Y-105449700D01*
X166438700Y-105449700D02*
X160669800Y-99680800D01*
X160669800Y-99680800D02*
X160669800Y-76478900D01*
X166720000Y-106575000D02*
X166720000Y-105449700D01*
X170720000Y-70688900D02*
X170246200Y-71162700D01*
X170246200Y-71162700D02*
X170246200Y-91899200D01*
X170246200Y-91899200D02*
X173636700Y-95289700D01*
X173636700Y-95289700D02*
X174340000Y-95289700D01*
X170720000Y-69500000D02*
X170720000Y-70688900D01*
X174340000Y-96415000D02*
X174340000Y-95289700D01*
X170720000Y-66960000D02*
X171908900Y-66960000D01*
X189580000Y-98955000D02*
X189580000Y-97829700D01*
X189580000Y-97829700D02*
X189861300Y-97829700D01*
X189861300Y-97829700D02*
X191230700Y-96460300D01*
X191230700Y-96460300D02*
X191230700Y-89124600D01*
X191230700Y-89124600D02*
X188933700Y-86827600D01*
X188933700Y-86827600D02*
X188933700Y-77752000D01*
X188933700Y-77752000D02*
X186877100Y-75695400D01*
X186877100Y-75695400D02*
X185353500Y-75695400D01*
X185353500Y-75695400D02*
X177807000Y-68148900D01*
X177807000Y-68148900D02*
X172726200Y-68148900D01*
X172726200Y-68148900D02*
X171908900Y-67331600D01*
X171908900Y-67331600D02*
X171908900Y-66960000D01*
X173260000Y-70688900D02*
X170696500Y-73252400D01*
X170696500Y-73252400D02*
X170696500Y-89106200D01*
X170696500Y-89106200D02*
X174340000Y-92749700D01*
X173260000Y-69500000D02*
X173260000Y-70688900D01*
X174340000Y-93875000D02*
X174340000Y-92749700D01*
X122674000Y-108158000D02*
X122674000Y-107032700D01*
X116910000Y-89640000D02*
X116910000Y-90765300D01*
X116910000Y-90765300D02*
X117191300Y-90765300D01*
X117191300Y-90765300D02*
X118768400Y-92342400D01*
X118768400Y-92342400D02*
X118768400Y-103830400D01*
X118768400Y-103830400D02*
X121970700Y-107032700D01*
X121970700Y-107032700D02*
X122674000Y-107032700D01*
X137534000Y-110570000D02*
X137534000Y-109444700D01*
X137660000Y-81805000D02*
X137660000Y-82930300D01*
X137660000Y-82930300D02*
X137378700Y-82930300D01*
X137378700Y-82930300D02*
X135577700Y-84731300D01*
X135577700Y-84731300D02*
X135577700Y-101473600D01*
X135577700Y-101473600D02*
X138659300Y-104555200D01*
X138659300Y-104555200D02*
X138659300Y-108600800D01*
X138659300Y-108600800D02*
X137815400Y-109444700D01*
X137815400Y-109444700D02*
X137534000Y-109444700D01*
X122928000Y-82993800D02*
X123209400Y-82993800D01*
X123209400Y-82993800D02*
X124053300Y-83837700D01*
X124053300Y-83837700D02*
X124053300Y-92557400D01*
X124053300Y-92557400D02*
X123312200Y-93298500D01*
X123312200Y-93298500D02*
X122570800Y-93298500D01*
X122570800Y-93298500D02*
X121338200Y-94531100D01*
X121338200Y-94531100D02*
X121338200Y-99001500D01*
X121338200Y-99001500D02*
X128409600Y-106072900D01*
X128409600Y-106072900D02*
X128409600Y-107969600D01*
X128409600Y-107969600D02*
X130012700Y-109572700D01*
X130012700Y-109572700D02*
X130294000Y-109572700D01*
X130294000Y-110698000D02*
X130294000Y-109572700D01*
X122928000Y-81868500D02*
X122928000Y-82993800D01*
X137534000Y-114524700D02*
X137815200Y-114524700D01*
X137815200Y-114524700D02*
X139109600Y-113230300D01*
X139109600Y-113230300D02*
X139109600Y-100893300D01*
X139109600Y-100893300D02*
X136028100Y-97811800D01*
X136028100Y-97811800D02*
X136028100Y-94440800D01*
X136028100Y-94440800D02*
X137378600Y-93090300D01*
X137378600Y-93090300D02*
X137660000Y-93090300D01*
X137660000Y-91965000D02*
X137660000Y-93090300D01*
X137534000Y-115650000D02*
X137534000Y-114524700D01*
X122928000Y-85533800D02*
X122646600Y-85533800D01*
X122646600Y-85533800D02*
X120437600Y-87742800D01*
X120437600Y-87742800D02*
X120437600Y-99747900D01*
X120437600Y-99747900D02*
X125423400Y-104733700D01*
X125423400Y-104733700D02*
X125423400Y-110063400D01*
X125423400Y-110063400D02*
X130012700Y-114652700D01*
X130012700Y-114652700D02*
X130294000Y-114652700D01*
X122928000Y-84408500D02*
X122928000Y-85533800D01*
X130294000Y-115778000D02*
X130294000Y-114652700D01*
X122928000Y-88073800D02*
X122646700Y-88073800D01*
X122646700Y-88073800D02*
X120887900Y-89832600D01*
X120887900Y-89832600D02*
X120887900Y-99561300D01*
X120887900Y-99561300D02*
X127013500Y-105686900D01*
X127013500Y-105686900D02*
X127013500Y-109051400D01*
X127013500Y-109051400D02*
X130074800Y-112112700D01*
X130074800Y-112112700D02*
X130294000Y-112112700D01*
X122928000Y-86948500D02*
X122928000Y-88073800D01*
X130294000Y-113238000D02*
X130294000Y-112112700D01*
X122674000Y-115778000D02*
X123799300Y-115778000D01*
X123799300Y-115778000D02*
X128879300Y-120858000D01*
X128879300Y-120858000D02*
X130294000Y-120858000D01*
X122674000Y-113238000D02*
X122674000Y-110698000D01*
X172530000Y-87900000D02*
X173655300Y-87900000D01*
X186410000Y-77010000D02*
X184545300Y-77010000D01*
X184545300Y-77010000D02*
X173655300Y-87900000D01*
X137534000Y-113110000D02*
X136408700Y-113110000D01*
X122928000Y-94568500D02*
X122928000Y-95693800D01*
X122928000Y-95693800D02*
X122646700Y-95693800D01*
X122646700Y-95693800D02*
X121788600Y-96551900D01*
X121788600Y-96551900D02*
X121788600Y-98712300D01*
X121788600Y-98712300D02*
X129964300Y-106888000D01*
X129964300Y-106888000D02*
X130749300Y-106888000D01*
X130749300Y-106888000D02*
X136408700Y-112547400D01*
X136408700Y-112547400D02*
X136408700Y-113110000D01*
X116964000Y-106305000D02*
X116964000Y-105129700D01*
X109290000Y-89640000D02*
X109290000Y-90765300D01*
X109290000Y-90765300D02*
X109571300Y-90765300D01*
X109571300Y-90765300D02*
X114874400Y-96068400D01*
X114874400Y-96068400D02*
X114874400Y-103040100D01*
X114874400Y-103040100D02*
X116964000Y-105129700D01*
X109290000Y-92180000D02*
X109290000Y-93305300D01*
X109290000Y-93305300D02*
X109571300Y-93305300D01*
X109571300Y-93305300D02*
X114424000Y-98158000D01*
X114424000Y-98158000D02*
X114424000Y-106305000D01*
X109290000Y-94720000D02*
X109290000Y-95845300D01*
X109290000Y-95845300D02*
X109571300Y-95845300D01*
X109571300Y-95845300D02*
X111884000Y-98158000D01*
X111884000Y-98158000D02*
X111884000Y-106305000D01*
X109344000Y-106305000D02*
X109344000Y-105129700D01*
X109290000Y-97260000D02*
X109290000Y-98385300D01*
X109290000Y-98385300D02*
X109571300Y-98385300D01*
X109571300Y-98385300D02*
X110452600Y-99266600D01*
X110452600Y-99266600D02*
X110452600Y-104021100D01*
X110452600Y-104021100D02*
X109344000Y-105129700D01*
X137660000Y-89425000D02*
X138785300Y-89425000D01*
X138785300Y-89425000D02*
X143865300Y-94505000D01*
X143865300Y-94505000D02*
X145280000Y-94505000D01*
X116964000Y-110020300D02*
X121596300Y-114652600D01*
X121596300Y-114652600D02*
X123493400Y-114652600D01*
X123493400Y-114652600D02*
X125749200Y-116908400D01*
X125749200Y-116908400D02*
X137902300Y-116908400D01*
X137902300Y-116908400D02*
X139561500Y-115249200D01*
X139561500Y-115249200D02*
X139561500Y-100708200D01*
X139561500Y-100708200D02*
X136529100Y-97675800D01*
X136529100Y-97675800D02*
X136529100Y-96546300D01*
X136529100Y-96546300D02*
X137300400Y-95775000D01*
X137300400Y-95775000D02*
X138033700Y-95775000D01*
X138033700Y-95775000D02*
X138802000Y-95006700D01*
X138802000Y-95006700D02*
X138802000Y-91423500D01*
X138802000Y-91423500D02*
X138073500Y-90695000D01*
X138073500Y-90695000D02*
X137312700Y-90695000D01*
X137312700Y-90695000D02*
X136528300Y-89910600D01*
X136528300Y-89910600D02*
X136528300Y-88860700D01*
X136528300Y-88860700D02*
X137378700Y-88010300D01*
X137378700Y-88010300D02*
X137660000Y-88010300D01*
X116964000Y-108845000D02*
X116964000Y-110020300D01*
X137660000Y-86885000D02*
X137660000Y-88010300D01*
X114424000Y-108845000D02*
X116964000Y-108845000D01*
X145280000Y-89425000D02*
X145280000Y-91965000D01*
X145280000Y-86885000D02*
X145280000Y-89425000D01*
X163925300Y-96708400D02*
X165046600Y-97829700D01*
X165046600Y-97829700D02*
X172089400Y-97829700D01*
X172089400Y-97829700D02*
X173214700Y-98955000D01*
X163100000Y-68148900D02*
X163471500Y-68148900D01*
X163471500Y-68148900D02*
X164318800Y-68996200D01*
X164318800Y-68996200D02*
X164318800Y-83811000D01*
X164318800Y-83811000D02*
X163550400Y-84579400D01*
X163550400Y-84579400D02*
X163550400Y-96333500D01*
X163550400Y-96333500D02*
X163925300Y-96708400D01*
X174340000Y-98955000D02*
X173214700Y-98955000D01*
X163100000Y-66960000D02*
X163100000Y-68148900D01*
X147364000Y-114127100D02*
X147255700Y-114235400D01*
X147255700Y-114235400D02*
X144913000Y-114235400D01*
X144913000Y-114235400D02*
X139520700Y-119627700D01*
X139520700Y-119627700D02*
X139520700Y-120394300D01*
X139520700Y-120394300D02*
X133522200Y-126392800D01*
X133522200Y-126392800D02*
X128662900Y-126392800D01*
X128662900Y-126392800D02*
X127235400Y-127820300D01*
X127235400Y-127820300D02*
X127235400Y-128796000D01*
X127235400Y-128796000D02*
X127041300Y-128990100D01*
X127041300Y-128990100D02*
X123031100Y-128990100D01*
X123031100Y-128990100D02*
X122761000Y-128720000D01*
X115467000Y-114590000D02*
X115467000Y-121425900D01*
X115467000Y-121425900D02*
X121961100Y-127920000D01*
X118420000Y-132420000D02*
X118420000Y-131294700D01*
X121961100Y-127920000D02*
X118586400Y-131294700D01*
X118586400Y-131294700D02*
X118420000Y-131294700D01*
X121961100Y-127920000D02*
X122761000Y-128720000D01*
X112927000Y-113414700D02*
X113154000Y-113187700D01*
X113154000Y-113187700D02*
X113154000Y-108414000D01*
X113154000Y-108414000D02*
X113898400Y-107669600D01*
X113898400Y-107669600D02*
X117781100Y-107669600D01*
X117781100Y-107669600D02*
X118163400Y-107287300D01*
X118163400Y-107287300D02*
X118163400Y-104047800D01*
X118163400Y-104047800D02*
X115511400Y-101395800D01*
X115511400Y-101395800D02*
X115511400Y-89132800D01*
X115511400Y-89132800D02*
X109523900Y-83145300D01*
X109523900Y-83145300D02*
X109290000Y-83145300D01*
X112927000Y-114590000D02*
X112927000Y-113414700D01*
X109290000Y-82020000D02*
X109290000Y-83145300D01*
X118420000Y-122260000D02*
X118801000Y-122260000D01*
X118801000Y-122260000D02*
X122761000Y-126220000D01*
X145280000Y-84345000D02*
X147505000Y-84345000D01*
X147505000Y-84345000D02*
X151895700Y-79954300D01*
X197500000Y-79580000D02*
X194000000Y-79580000D01*
X166720000Y-93875000D02*
X170124500Y-93875000D01*
X170124500Y-93875000D02*
X173868600Y-97619100D01*
X173868600Y-97619100D02*
X184671800Y-97619100D01*
X184671800Y-97619100D02*
X187141000Y-100088300D01*
X187141000Y-100088300D02*
X190070700Y-100088300D01*
X190070700Y-100088300D02*
X191681100Y-98477900D01*
X191681100Y-98477900D02*
X191681100Y-87986500D01*
X191681100Y-87986500D02*
X190557400Y-86862800D01*
X190557400Y-86862800D02*
X190557400Y-76813800D01*
X190557400Y-76813800D02*
X191555900Y-75815300D01*
X191555900Y-75815300D02*
X194755700Y-75815300D01*
X194755700Y-75815300D02*
X195980400Y-77040000D01*
X195980400Y-77040000D02*
X197500000Y-77040000D01*
X194000000Y-77040000D02*
X194000000Y-78215300D01*
X189580000Y-114195000D02*
X189580000Y-113069700D01*
X189580000Y-113069700D02*
X189861300Y-113069700D01*
X189861300Y-113069700D02*
X192824700Y-110106300D01*
X192824700Y-110106300D02*
X192824700Y-79023200D01*
X192824700Y-79023200D02*
X193632600Y-78215300D01*
X193632600Y-78215300D02*
X194000000Y-78215300D01*
D26*
G36*
X199290000Y-72367198D02*
G01*
X193327117Y-66404316D01*
X193441331Y-66480631D01*
X193848075Y-66649110D01*
X194279872Y-66735000D01*
X194720128Y-66735000D01*
X195151925Y-66649110D01*
X195558669Y-66480631D01*
X195924729Y-66236038D01*
X196236038Y-65924729D01*
X196480631Y-65558669D01*
X196649110Y-65151925D01*
X196735000Y-64720128D01*
X196735000Y-64279872D01*
X196649110Y-63848075D01*
X196480631Y-63441331D01*
X196236038Y-63075271D01*
X195924729Y-62763962D01*
X195558669Y-62519369D01*
X195151925Y-62350890D01*
X194720128Y-62265000D01*
X194279872Y-62265000D01*
X193848075Y-62350890D01*
X193441331Y-62519369D01*
X193075271Y-62763962D01*
X192763962Y-63075271D01*
X192519369Y-63441331D01*
X192350890Y-63848075D01*
X192265000Y-64279872D01*
X192265000Y-64720128D01*
X192350890Y-65151925D01*
X192519369Y-65558669D01*
X192595684Y-65672883D01*
X190264504Y-63341703D01*
X190240701Y-63312699D01*
X190124976Y-63217726D01*
X189992947Y-63147154D01*
X189849686Y-63103697D01*
X189738033Y-63092700D01*
X189738022Y-63092700D01*
X189700700Y-63089024D01*
X189663378Y-63092700D01*
X141662022Y-63092700D01*
X141624699Y-63089024D01*
X141587376Y-63092700D01*
X141587367Y-63092700D01*
X141475714Y-63103697D01*
X141332453Y-63147154D01*
X141200424Y-63217726D01*
X141200422Y-63217727D01*
X141200423Y-63217727D01*
X141113696Y-63288901D01*
X141113692Y-63288905D01*
X141084699Y-63312699D01*
X141060905Y-63341692D01*
X138623421Y-65779178D01*
X138536606Y-65707931D01*
X138276264Y-65568775D01*
X137993777Y-65483084D01*
X137773619Y-65461400D01*
X137626381Y-65461400D01*
X137406223Y-65483084D01*
X137123736Y-65568775D01*
X136863394Y-65707931D01*
X136635203Y-65895203D01*
X136447931Y-66123394D01*
X136430000Y-66156940D01*
X136412069Y-66123394D01*
X136224797Y-65895203D01*
X135996606Y-65707931D01*
X135736264Y-65568775D01*
X135453777Y-65483084D01*
X135233619Y-65461400D01*
X135086381Y-65461400D01*
X134866223Y-65483084D01*
X134583736Y-65568775D01*
X134323394Y-65707931D01*
X134095203Y-65895203D01*
X133907931Y-66123394D01*
X133890000Y-66156940D01*
X133872069Y-66123394D01*
X133684797Y-65895203D01*
X133456606Y-65707931D01*
X133196264Y-65568775D01*
X132913777Y-65483084D01*
X132693619Y-65461400D01*
X132546381Y-65461400D01*
X132326223Y-65483084D01*
X132043736Y-65568775D01*
X131783394Y-65707931D01*
X131555203Y-65895203D01*
X131367931Y-66123394D01*
X131350000Y-66156940D01*
X131332069Y-66123394D01*
X131144797Y-65895203D01*
X130916606Y-65707931D01*
X130656264Y-65568775D01*
X130373777Y-65483084D01*
X130153619Y-65461400D01*
X130006381Y-65461400D01*
X129786223Y-65483084D01*
X129503736Y-65568775D01*
X129243394Y-65707931D01*
X129015203Y-65895203D01*
X128827931Y-66123394D01*
X128804137Y-66167910D01*
X128746817Y-66071512D01*
X128550293Y-65853146D01*
X128314944Y-65677316D01*
X128049814Y-65550778D01*
X127899026Y-65505042D01*
X127667000Y-65626183D01*
X127667000Y-66833000D01*
X127687000Y-66833000D01*
X127687000Y-67087000D01*
X127667000Y-67087000D01*
X127667000Y-67107000D01*
X127413000Y-67107000D01*
X127413000Y-67087000D01*
X125127000Y-67087000D01*
X125127000Y-67107000D01*
X124873000Y-67107000D01*
X124873000Y-67087000D01*
X123665536Y-67087000D01*
X123545037Y-67319027D01*
X123643036Y-67595978D01*
X123793183Y-67848488D01*
X123954692Y-68027947D01*
X123892220Y-68046898D01*
X123781906Y-68105863D01*
X123685215Y-68185215D01*
X123605863Y-68281906D01*
X123546898Y-68392220D01*
X123510588Y-68511918D01*
X123498328Y-68636400D01*
X123498328Y-70363600D01*
X123510588Y-70488082D01*
X123546898Y-70607780D01*
X123605863Y-70718094D01*
X123685215Y-70814785D01*
X123708069Y-70833541D01*
X117366611Y-77175000D01*
X117308665Y-77175000D01*
X117031426Y-77230147D01*
X116770273Y-77338320D01*
X116535241Y-77495363D01*
X116335363Y-77695241D01*
X116201308Y-77895869D01*
X116186671Y-77868486D01*
X115942702Y-77796903D01*
X115129605Y-78610000D01*
X115942702Y-79423097D01*
X116186671Y-79351514D01*
X116200324Y-79322659D01*
X116335363Y-79524759D01*
X116535241Y-79724637D01*
X116770273Y-79881680D01*
X117031426Y-79989853D01*
X117308665Y-80045000D01*
X117591335Y-80045000D01*
X117868574Y-79989853D01*
X118129727Y-79881680D01*
X118364759Y-79724637D01*
X118564637Y-79524759D01*
X118721680Y-79289727D01*
X118820480Y-79051202D01*
X127552903Y-79051202D01*
X127624486Y-79295171D01*
X127879996Y-79416071D01*
X128154184Y-79484800D01*
X128436512Y-79498717D01*
X128716130Y-79457287D01*
X128982292Y-79362103D01*
X129107514Y-79295171D01*
X129179097Y-79051202D01*
X128366000Y-78238105D01*
X127552903Y-79051202D01*
X118820480Y-79051202D01*
X118829853Y-79028574D01*
X118885000Y-78751335D01*
X118885000Y-78468665D01*
X118857214Y-78328975D01*
X119057177Y-78129012D01*
X126925783Y-78129012D01*
X126967213Y-78408630D01*
X127062397Y-78674792D01*
X127129329Y-78800014D01*
X127373298Y-78871597D01*
X128186395Y-78058500D01*
X127373298Y-77245403D01*
X127129329Y-77316986D01*
X127008429Y-77572496D01*
X126939700Y-77846684D01*
X126925783Y-78129012D01*
X119057177Y-78129012D01*
X120120391Y-77065798D01*
X127552903Y-77065798D01*
X128366000Y-77878895D01*
X129179097Y-77065798D01*
X129107514Y-76821829D01*
X128852004Y-76700929D01*
X128577816Y-76632200D01*
X128295488Y-76618283D01*
X128015870Y-76659713D01*
X127749708Y-76754897D01*
X127624486Y-76821829D01*
X127552903Y-77065798D01*
X120120391Y-77065798D01*
X125628665Y-71557525D01*
X125664344Y-71528244D01*
X125781186Y-71385872D01*
X125868007Y-71223440D01*
X125905253Y-71100657D01*
X125921471Y-71047193D01*
X125926565Y-70995471D01*
X125988082Y-70989412D01*
X126107780Y-70953102D01*
X126218094Y-70894137D01*
X126314785Y-70814785D01*
X126394137Y-70718094D01*
X126453102Y-70607780D01*
X126468586Y-70556735D01*
X126475203Y-70564797D01*
X126605001Y-70671320D01*
X126605001Y-70817959D01*
X126600476Y-70863900D01*
X126618529Y-71047191D01*
X126638546Y-71113177D01*
X126671994Y-71223440D01*
X126758815Y-71385872D01*
X126875657Y-71528244D01*
X126911336Y-71557525D01*
X129931001Y-74577191D01*
X129931000Y-76964104D01*
X129751363Y-77143741D01*
X129617308Y-77344369D01*
X129602671Y-77316986D01*
X129358702Y-77245403D01*
X128545605Y-78058500D01*
X129358702Y-78871597D01*
X129602671Y-78800014D01*
X129616324Y-78771159D01*
X129751363Y-78973259D01*
X129931001Y-79152897D01*
X129931000Y-79862911D01*
X129919337Y-79874574D01*
X129883657Y-79903856D01*
X129766815Y-80046228D01*
X129679994Y-80208660D01*
X129626529Y-80384909D01*
X129608476Y-80568200D01*
X129613001Y-80614141D01*
X129613001Y-80779455D01*
X129528392Y-80848892D01*
X129349068Y-81067399D01*
X129215818Y-81316692D01*
X129133764Y-81587191D01*
X129106057Y-81868500D01*
X129116785Y-81977425D01*
X128593736Y-82500475D01*
X128558057Y-82529756D01*
X128441215Y-82672128D01*
X128378227Y-82789971D01*
X128354394Y-82834560D01*
X128300929Y-83010809D01*
X128282876Y-83194100D01*
X128287401Y-83240042D01*
X128287400Y-100346468D01*
X128282876Y-100392400D01*
X128294713Y-100512576D01*
X128300929Y-100575691D01*
X128311298Y-100609872D01*
X128309488Y-100609783D01*
X128029870Y-100651213D01*
X127763708Y-100746397D01*
X127638486Y-100813329D01*
X127566903Y-101057298D01*
X128380000Y-101870395D01*
X128394143Y-101856253D01*
X128573748Y-102035858D01*
X128559605Y-102050000D01*
X129372702Y-102863097D01*
X129616671Y-102791514D01*
X129630324Y-102762659D01*
X129765363Y-102964759D01*
X129945000Y-103144396D01*
X129945000Y-103344411D01*
X129665336Y-103624075D01*
X129629657Y-103653356D01*
X129512815Y-103795728D01*
X129425994Y-103958160D01*
X129372529Y-104134409D01*
X129354476Y-104317700D01*
X129359001Y-104363641D01*
X129359001Y-104528955D01*
X129274392Y-104598392D01*
X129095068Y-104816899D01*
X129050807Y-104899705D01*
X127193804Y-103042702D01*
X127566903Y-103042702D01*
X127638486Y-103286671D01*
X127893996Y-103407571D01*
X128168184Y-103476300D01*
X128450512Y-103490217D01*
X128730130Y-103448787D01*
X128996292Y-103353603D01*
X129121514Y-103286671D01*
X129193097Y-103042702D01*
X128380000Y-102229605D01*
X127566903Y-103042702D01*
X127193804Y-103042702D01*
X126271614Y-102120512D01*
X126939783Y-102120512D01*
X126981213Y-102400130D01*
X127076397Y-102666292D01*
X127143329Y-102791514D01*
X127387298Y-102863097D01*
X128200395Y-102050000D01*
X127387298Y-101236903D01*
X127143329Y-101308486D01*
X127022429Y-101563996D01*
X126953700Y-101838184D01*
X126939783Y-102120512D01*
X126271614Y-102120512D01*
X122625881Y-98474780D01*
X122801000Y-98379124D01*
X122801000Y-97235500D01*
X123055000Y-97235500D01*
X123055000Y-98379124D01*
X123277040Y-98500409D01*
X123541881Y-98405570D01*
X123783131Y-98260885D01*
X123991519Y-98071914D01*
X124159037Y-97845920D01*
X124279246Y-97591587D01*
X124319904Y-97457539D01*
X124197915Y-97235500D01*
X123055000Y-97235500D01*
X122801000Y-97235500D01*
X122781000Y-97235500D01*
X122781000Y-96981500D01*
X122801000Y-96981500D01*
X122801000Y-96961500D01*
X123055000Y-96961500D01*
X123055000Y-96981500D01*
X124197915Y-96981500D01*
X124319904Y-96759461D01*
X124279246Y-96625413D01*
X124159037Y-96371080D01*
X123991519Y-96145086D01*
X123783131Y-95956115D01*
X123664252Y-95884820D01*
X123677003Y-95842786D01*
X123681942Y-95792639D01*
X123729101Y-95767432D01*
X123947608Y-95588108D01*
X124126932Y-95369601D01*
X124260182Y-95120308D01*
X124342236Y-94849809D01*
X124369943Y-94568500D01*
X124342236Y-94287191D01*
X124260182Y-94016692D01*
X124126932Y-93767399D01*
X124032801Y-93652700D01*
X124564302Y-93121199D01*
X124593301Y-93097401D01*
X124688274Y-92981676D01*
X124758846Y-92849647D01*
X124802303Y-92706386D01*
X124813300Y-92594733D01*
X124813300Y-92594725D01*
X124816976Y-92557400D01*
X124813300Y-92520075D01*
X124813300Y-83875023D01*
X124816976Y-83837700D01*
X124813300Y-83800377D01*
X124813300Y-83800367D01*
X124802303Y-83688714D01*
X124758846Y-83545453D01*
X124688274Y-83413424D01*
X124593301Y-83297699D01*
X124564304Y-83273902D01*
X124277646Y-82987244D01*
X124317502Y-82912680D01*
X124353812Y-82792982D01*
X124366072Y-82668500D01*
X124366072Y-81068500D01*
X124353812Y-80944018D01*
X124317502Y-80824320D01*
X124258537Y-80714006D01*
X124179185Y-80617315D01*
X124082494Y-80537963D01*
X123972180Y-80478998D01*
X123852482Y-80442688D01*
X123728000Y-80430428D01*
X122128000Y-80430428D01*
X122003518Y-80442688D01*
X121883820Y-80478998D01*
X121773506Y-80537963D01*
X121676815Y-80617315D01*
X121597463Y-80714006D01*
X121538498Y-80824320D01*
X121502188Y-80944018D01*
X121489928Y-81068500D01*
X121489928Y-82668500D01*
X121502188Y-82792982D01*
X121538498Y-82912680D01*
X121597463Y-83022994D01*
X121676815Y-83119685D01*
X121773506Y-83199037D01*
X121883820Y-83258002D01*
X122003518Y-83294312D01*
X122021482Y-83296081D01*
X121908392Y-83388892D01*
X121729068Y-83607399D01*
X121595818Y-83856692D01*
X121513764Y-84127191D01*
X121486057Y-84408500D01*
X121513764Y-84689809D01*
X121595818Y-84960308D01*
X121729068Y-85209601D01*
X121804312Y-85301286D01*
X119926603Y-87178996D01*
X119897599Y-87202799D01*
X119849591Y-87261298D01*
X119802626Y-87318524D01*
X119764957Y-87388998D01*
X119732054Y-87450554D01*
X119688597Y-87593815D01*
X119677600Y-87705468D01*
X119677600Y-87705478D01*
X119673924Y-87742800D01*
X119677600Y-87780122D01*
X119677601Y-99710568D01*
X119673924Y-99747900D01*
X119677601Y-99785233D01*
X119688598Y-99896886D01*
X119697733Y-99927000D01*
X119732054Y-100040146D01*
X119802626Y-100172176D01*
X119856061Y-100237286D01*
X119897600Y-100287901D01*
X119926598Y-100311699D01*
X124663400Y-105048502D01*
X124663401Y-110026068D01*
X124659724Y-110063400D01*
X124663401Y-110100733D01*
X124674398Y-110212386D01*
X124682002Y-110237453D01*
X124717854Y-110355646D01*
X124788426Y-110487676D01*
X124859601Y-110574402D01*
X124883400Y-110603401D01*
X124912398Y-110627199D01*
X129170357Y-114885159D01*
X129095068Y-114976899D01*
X128961818Y-115226192D01*
X128879764Y-115496691D01*
X128852057Y-115778000D01*
X128879764Y-116059309D01*
X128906789Y-116148400D01*
X126064002Y-116148400D01*
X124057204Y-114141603D01*
X124033401Y-114112599D01*
X123917676Y-114017626D01*
X123891803Y-114003796D01*
X124006182Y-113789808D01*
X124088236Y-113519309D01*
X124115943Y-113238000D01*
X124088236Y-112956691D01*
X124006182Y-112686192D01*
X123872932Y-112436899D01*
X123693608Y-112218392D01*
X123475101Y-112039068D01*
X123434000Y-112017099D01*
X123434000Y-111918901D01*
X123475101Y-111896932D01*
X123693608Y-111717608D01*
X123872932Y-111499101D01*
X124006182Y-111249808D01*
X124088236Y-110979309D01*
X124115943Y-110698000D01*
X124088236Y-110416691D01*
X124006182Y-110146192D01*
X123872932Y-109896899D01*
X123693608Y-109678392D01*
X123475101Y-109499068D01*
X123342142Y-109428000D01*
X123475101Y-109356932D01*
X123693608Y-109177608D01*
X123872932Y-108959101D01*
X124006182Y-108709808D01*
X124088236Y-108439309D01*
X124115943Y-108158000D01*
X124088236Y-107876691D01*
X124006182Y-107606192D01*
X123872932Y-107356899D01*
X123693608Y-107138392D01*
X123580518Y-107045581D01*
X123598482Y-107043812D01*
X123718180Y-107007502D01*
X123828494Y-106948537D01*
X123925185Y-106869185D01*
X124004537Y-106772494D01*
X124063502Y-106662180D01*
X124099812Y-106542482D01*
X124112072Y-106418000D01*
X124112072Y-104818000D01*
X124099812Y-104693518D01*
X124063502Y-104573820D01*
X124004537Y-104463506D01*
X123925185Y-104366815D01*
X123828494Y-104287463D01*
X123718180Y-104228498D01*
X123598482Y-104192188D01*
X123474000Y-104179928D01*
X121874000Y-104179928D01*
X121749518Y-104192188D01*
X121629820Y-104228498D01*
X121519506Y-104287463D01*
X121422815Y-104366815D01*
X121343463Y-104463506D01*
X121284498Y-104573820D01*
X121248188Y-104693518D01*
X121235928Y-104818000D01*
X121235928Y-105223126D01*
X119528400Y-103515599D01*
X119528400Y-92379722D01*
X119532076Y-92342399D01*
X119528400Y-92305076D01*
X119528400Y-92305067D01*
X119517403Y-92193414D01*
X119473946Y-92050153D01*
X119403374Y-91918124D01*
X119308401Y-91802399D01*
X119279404Y-91778602D01*
X118033643Y-90532841D01*
X118108932Y-90441101D01*
X118242182Y-90191808D01*
X118324236Y-89921309D01*
X118351943Y-89640000D01*
X118324236Y-89358691D01*
X118242182Y-89088192D01*
X118108932Y-88838899D01*
X117929608Y-88620392D01*
X117711101Y-88441068D01*
X117578142Y-88370000D01*
X117711101Y-88298932D01*
X117929608Y-88119608D01*
X118108932Y-87901101D01*
X118242182Y-87651808D01*
X118324236Y-87381309D01*
X118351943Y-87100000D01*
X118324236Y-86818691D01*
X118242182Y-86548192D01*
X118108932Y-86298899D01*
X117929608Y-86080392D01*
X117711101Y-85901068D01*
X117573318Y-85827421D01*
X117765131Y-85712385D01*
X117973519Y-85523414D01*
X118141037Y-85297420D01*
X118261246Y-85043087D01*
X118301904Y-84909039D01*
X118179915Y-84687000D01*
X117037000Y-84687000D01*
X117037000Y-84707000D01*
X116783000Y-84707000D01*
X116783000Y-84687000D01*
X115640085Y-84687000D01*
X115518096Y-84909039D01*
X115558754Y-85043087D01*
X115678963Y-85297420D01*
X115846481Y-85523414D01*
X116054869Y-85712385D01*
X116246682Y-85827421D01*
X116108899Y-85901068D01*
X115890392Y-86080392D01*
X115711068Y-86298899D01*
X115577818Y-86548192D01*
X115495764Y-86818691D01*
X115468057Y-87100000D01*
X115495764Y-87381309D01*
X115577818Y-87651808D01*
X115711068Y-87901101D01*
X115890392Y-88119608D01*
X116108899Y-88298932D01*
X116241858Y-88370000D01*
X116108899Y-88441068D01*
X115991125Y-88537723D01*
X110623100Y-83169699D01*
X110679502Y-83064180D01*
X110715812Y-82944482D01*
X110728072Y-82820000D01*
X110728072Y-82020000D01*
X115468057Y-82020000D01*
X115495764Y-82301309D01*
X115577818Y-82571808D01*
X115711068Y-82821101D01*
X115890392Y-83039608D01*
X116108899Y-83218932D01*
X116246682Y-83292579D01*
X116054869Y-83407615D01*
X115846481Y-83596586D01*
X115678963Y-83822580D01*
X115558754Y-84076913D01*
X115518096Y-84210961D01*
X115640085Y-84433000D01*
X116783000Y-84433000D01*
X116783000Y-84413000D01*
X117037000Y-84413000D01*
X117037000Y-84433000D01*
X118179915Y-84433000D01*
X118301904Y-84210961D01*
X118261246Y-84076913D01*
X118141037Y-83822580D01*
X117973519Y-83596586D01*
X117765131Y-83407615D01*
X117573318Y-83292579D01*
X117711101Y-83218932D01*
X117929608Y-83039608D01*
X118108932Y-82821101D01*
X118242182Y-82571808D01*
X118324236Y-82301309D01*
X118351943Y-82020000D01*
X118324236Y-81738691D01*
X118242182Y-81468192D01*
X118108932Y-81218899D01*
X117929608Y-81000392D01*
X117711101Y-80821068D01*
X117461808Y-80687818D01*
X117191309Y-80605764D01*
X116980492Y-80585000D01*
X116839508Y-80585000D01*
X116628691Y-80605764D01*
X116358192Y-80687818D01*
X116108899Y-80821068D01*
X115890392Y-81000392D01*
X115711068Y-81218899D01*
X115577818Y-81468192D01*
X115495764Y-81738691D01*
X115468057Y-82020000D01*
X110728072Y-82020000D01*
X110728072Y-81220000D01*
X110715812Y-81095518D01*
X110679502Y-80975820D01*
X110620537Y-80865506D01*
X110541185Y-80768815D01*
X110444494Y-80689463D01*
X110334180Y-80630498D01*
X110214482Y-80594188D01*
X110090000Y-80581928D01*
X108490000Y-80581928D01*
X108365518Y-80594188D01*
X108245820Y-80630498D01*
X108135506Y-80689463D01*
X108038815Y-80768815D01*
X107959463Y-80865506D01*
X107900498Y-80975820D01*
X107864188Y-81095518D01*
X107851928Y-81220000D01*
X107851928Y-82820000D01*
X107864188Y-82944482D01*
X107900498Y-83064180D01*
X107959463Y-83174494D01*
X108038815Y-83271185D01*
X108135506Y-83350537D01*
X108245820Y-83409502D01*
X108365518Y-83445812D01*
X108383482Y-83447581D01*
X108270392Y-83540392D01*
X108091068Y-83758899D01*
X107957818Y-84008192D01*
X107875764Y-84278691D01*
X107848057Y-84560000D01*
X107875764Y-84841309D01*
X107957818Y-85111808D01*
X108091068Y-85361101D01*
X108270392Y-85579608D01*
X108488899Y-85758932D01*
X108621858Y-85830000D01*
X108488899Y-85901068D01*
X108270392Y-86080392D01*
X108091068Y-86298899D01*
X107957818Y-86548192D01*
X107875764Y-86818691D01*
X107848057Y-87100000D01*
X107875764Y-87381309D01*
X107957818Y-87651808D01*
X108091068Y-87901101D01*
X108270392Y-88119608D01*
X108488899Y-88298932D01*
X108621858Y-88370000D01*
X108488899Y-88441068D01*
X108270392Y-88620392D01*
X108091068Y-88838899D01*
X107957818Y-89088192D01*
X107875764Y-89358691D01*
X107848057Y-89640000D01*
X107875764Y-89921309D01*
X107957818Y-90191808D01*
X108091068Y-90441101D01*
X108270392Y-90659608D01*
X108488899Y-90838932D01*
X108536058Y-90864139D01*
X108540997Y-90914286D01*
X108551160Y-90947789D01*
X108488899Y-90981068D01*
X108270392Y-91160392D01*
X108091068Y-91378899D01*
X107957818Y-91628192D01*
X107875764Y-91898691D01*
X107848057Y-92180000D01*
X107875764Y-92461309D01*
X107957818Y-92731808D01*
X108091068Y-92981101D01*
X108270392Y-93199608D01*
X108488899Y-93378932D01*
X108536058Y-93404139D01*
X108540997Y-93454286D01*
X108551160Y-93487789D01*
X108488899Y-93521068D01*
X108270392Y-93700392D01*
X108091068Y-93918899D01*
X107957818Y-94168192D01*
X107875764Y-94438691D01*
X107848057Y-94720000D01*
X107875764Y-95001309D01*
X107957818Y-95271808D01*
X108091068Y-95521101D01*
X108270392Y-95739608D01*
X108488899Y-95918932D01*
X108536058Y-95944139D01*
X108540997Y-95994286D01*
X108551160Y-96027789D01*
X108488899Y-96061068D01*
X108270392Y-96240392D01*
X108091068Y-96458899D01*
X107957818Y-96708192D01*
X107875764Y-96978691D01*
X107848057Y-97260000D01*
X107875764Y-97541309D01*
X107957818Y-97811808D01*
X108091068Y-98061101D01*
X108270392Y-98279608D01*
X108488899Y-98458932D01*
X108536058Y-98484139D01*
X108540997Y-98534286D01*
X108553748Y-98576320D01*
X108434869Y-98647615D01*
X108226481Y-98836586D01*
X108058963Y-99062580D01*
X107938754Y-99316913D01*
X107898096Y-99450961D01*
X108020085Y-99673000D01*
X109163000Y-99673000D01*
X109163000Y-99653000D01*
X109417000Y-99653000D01*
X109417000Y-99673000D01*
X109437000Y-99673000D01*
X109437000Y-99927000D01*
X109417000Y-99927000D01*
X109417000Y-101070624D01*
X109639040Y-101191909D01*
X109692600Y-101172729D01*
X109692601Y-103706297D01*
X108832998Y-104565901D01*
X108804000Y-104589699D01*
X108780202Y-104618697D01*
X108780201Y-104618698D01*
X108709026Y-104705424D01*
X108638454Y-104837454D01*
X108616540Y-104909699D01*
X108596254Y-104976576D01*
X108594998Y-104980715D01*
X108590755Y-105023795D01*
X108514986Y-105064294D01*
X108288866Y-105249866D01*
X108103294Y-105475986D01*
X107965401Y-105733966D01*
X107880487Y-106013889D01*
X107851815Y-106305000D01*
X107880487Y-106596111D01*
X107965401Y-106876034D01*
X108103294Y-107134014D01*
X108288866Y-107360134D01*
X108514986Y-107545706D01*
X108569791Y-107575000D01*
X108514986Y-107604294D01*
X108288866Y-107789866D01*
X108103294Y-108015986D01*
X107965401Y-108273966D01*
X107880487Y-108553889D01*
X107851815Y-108845000D01*
X107880487Y-109136111D01*
X107965401Y-109416034D01*
X108103294Y-109674014D01*
X108288866Y-109900134D01*
X108514986Y-110085706D01*
X108772966Y-110223599D01*
X109052889Y-110308513D01*
X109271050Y-110330000D01*
X109416950Y-110330000D01*
X109635111Y-110308513D01*
X109915034Y-110223599D01*
X110173014Y-110085706D01*
X110399134Y-109900134D01*
X110584706Y-109674014D01*
X110614000Y-109619209D01*
X110643294Y-109674014D01*
X110828866Y-109900134D01*
X111054986Y-110085706D01*
X111312966Y-110223599D01*
X111592889Y-110308513D01*
X111811050Y-110330000D01*
X111956950Y-110330000D01*
X112175111Y-110308513D01*
X112394001Y-110242113D01*
X112394000Y-112868954D01*
X112387000Y-112874699D01*
X112363202Y-112903697D01*
X112363201Y-112903698D01*
X112292026Y-112990424D01*
X112221454Y-113122454D01*
X112200472Y-113191626D01*
X112177998Y-113265714D01*
X112173755Y-113308795D01*
X112097986Y-113349294D01*
X111871866Y-113534866D01*
X111847393Y-113564687D01*
X111826502Y-113495820D01*
X111767537Y-113385506D01*
X111688185Y-113288815D01*
X111591494Y-113209463D01*
X111481180Y-113150498D01*
X111361482Y-113114188D01*
X111237000Y-113101928D01*
X109537000Y-113101928D01*
X109412518Y-113114188D01*
X109292820Y-113150498D01*
X109182506Y-113209463D01*
X109085815Y-113288815D01*
X109006463Y-113385506D01*
X108947498Y-113495820D01*
X108911188Y-113615518D01*
X108898928Y-113740000D01*
X108898928Y-115440000D01*
X108911188Y-115564482D01*
X108947498Y-115684180D01*
X109006463Y-115794494D01*
X109085815Y-115891185D01*
X109182506Y-115970537D01*
X109292820Y-116029502D01*
X109412518Y-116065812D01*
X109537000Y-116078072D01*
X111237000Y-116078072D01*
X111361482Y-116065812D01*
X111481180Y-116029502D01*
X111591494Y-115970537D01*
X111688185Y-115891185D01*
X111767537Y-115794494D01*
X111826502Y-115684180D01*
X111847393Y-115615313D01*
X111871866Y-115645134D01*
X112097986Y-115830706D01*
X112355966Y-115968599D01*
X112635889Y-116053513D01*
X112854050Y-116075000D01*
X112999950Y-116075000D01*
X113218111Y-116053513D01*
X113498034Y-115968599D01*
X113756014Y-115830706D01*
X113982134Y-115645134D01*
X114167706Y-115419014D01*
X114197000Y-115364209D01*
X114226294Y-115419014D01*
X114411866Y-115645134D01*
X114637986Y-115830706D01*
X114707000Y-115867595D01*
X114707001Y-121388568D01*
X114703324Y-121425900D01*
X114707001Y-121463233D01*
X114713686Y-121531101D01*
X114717998Y-121574885D01*
X114761454Y-121718146D01*
X114832026Y-121850176D01*
X114858460Y-121882385D01*
X114927000Y-121965901D01*
X114955998Y-121989699D01*
X120886298Y-127920000D01*
X118256068Y-130550231D01*
X118127753Y-130589154D01*
X117995724Y-130659726D01*
X117879999Y-130754699D01*
X117785026Y-130870424D01*
X117714454Y-131002453D01*
X117670997Y-131145714D01*
X117666058Y-131195861D01*
X117618899Y-131221068D01*
X117400392Y-131400392D01*
X117221068Y-131618899D01*
X117087818Y-131868192D01*
X117005764Y-132138691D01*
X116978057Y-132420000D01*
X117005764Y-132701309D01*
X117087818Y-132971808D01*
X117221068Y-133221101D01*
X117400392Y-133439608D01*
X117618899Y-133618932D01*
X117868192Y-133752182D01*
X118138691Y-133834236D01*
X118349508Y-133855000D01*
X118490492Y-133855000D01*
X118701309Y-133834236D01*
X118971808Y-133752182D01*
X119221101Y-133618932D01*
X119439608Y-133439608D01*
X119618932Y-133221101D01*
X119752182Y-132971808D01*
X119834236Y-132701309D01*
X119861943Y-132420000D01*
X119834236Y-132138691D01*
X119752182Y-131868192D01*
X119618932Y-131618899D01*
X119491851Y-131464050D01*
X120686029Y-130269872D01*
X192265000Y-130269872D01*
X192265000Y-130710128D01*
X192350890Y-131141925D01*
X192519369Y-131548669D01*
X192763962Y-131914729D01*
X193075271Y-132226038D01*
X193441331Y-132470631D01*
X193848075Y-132639110D01*
X194279872Y-132725000D01*
X194720128Y-132725000D01*
X195151925Y-132639110D01*
X195558669Y-132470631D01*
X195924729Y-132226038D01*
X196236038Y-131914729D01*
X196480631Y-131548669D01*
X196649110Y-131141925D01*
X196735000Y-130710128D01*
X196735000Y-130269872D01*
X196649110Y-129838075D01*
X196480631Y-129431331D01*
X196236038Y-129065271D01*
X195924729Y-128753962D01*
X195558669Y-128509369D01*
X195151925Y-128340890D01*
X194720128Y-128255000D01*
X194279872Y-128255000D01*
X193848075Y-128340890D01*
X193441331Y-128509369D01*
X193075271Y-128753962D01*
X192763962Y-129065271D01*
X192519369Y-129431331D01*
X192350890Y-129838075D01*
X192265000Y-130269872D01*
X120686029Y-130269872D01*
X121516098Y-129439804D01*
X121646363Y-129634759D01*
X121846241Y-129834637D01*
X122081273Y-129991680D01*
X122342426Y-130099853D01*
X122619665Y-130155000D01*
X122902335Y-130155000D01*
X123179574Y-130099853D01*
X123440727Y-129991680D01*
X123675759Y-129834637D01*
X123760296Y-129750100D01*
X127003978Y-129750100D01*
X127041300Y-129753776D01*
X127078622Y-129750100D01*
X127078633Y-129750100D01*
X127190286Y-129739103D01*
X127333547Y-129695646D01*
X127465576Y-129625074D01*
X127581301Y-129530101D01*
X127605104Y-129501097D01*
X127746397Y-129359804D01*
X127775401Y-129336001D01*
X127870374Y-129220276D01*
X127940946Y-129088247D01*
X127945916Y-129071862D01*
X128043957Y-129137371D01*
X128296011Y-129241775D01*
X128563589Y-129295000D01*
X128836411Y-129295000D01*
X129103989Y-129241775D01*
X129356043Y-129137371D01*
X129582886Y-128985799D01*
X129775799Y-128792886D01*
X129927371Y-128566043D01*
X129970000Y-128463127D01*
X130012629Y-128566043D01*
X130164201Y-128792886D01*
X130357114Y-128985799D01*
X130583957Y-129137371D01*
X130836011Y-129241775D01*
X131103589Y-129295000D01*
X131376411Y-129295000D01*
X131643989Y-129241775D01*
X131896043Y-129137371D01*
X132122886Y-128985799D01*
X132315799Y-128792886D01*
X132467371Y-128566043D01*
X132571775Y-128313989D01*
X132625000Y-128046411D01*
X132625000Y-127773589D01*
X132580260Y-127548665D01*
X134205000Y-127548665D01*
X134205000Y-127831335D01*
X134260147Y-128108574D01*
X134368320Y-128369727D01*
X134525363Y-128604759D01*
X134725241Y-128804637D01*
X134960273Y-128961680D01*
X135221426Y-129069853D01*
X135498665Y-129125000D01*
X135781335Y-129125000D01*
X136058574Y-129069853D01*
X136319727Y-128961680D01*
X136554759Y-128804637D01*
X136754637Y-128604759D01*
X136911680Y-128369727D01*
X137019853Y-128108574D01*
X137075000Y-127831335D01*
X137075000Y-127548665D01*
X137019853Y-127271426D01*
X136911680Y-127010273D01*
X136754637Y-126775241D01*
X136554759Y-126575363D01*
X136319727Y-126418320D01*
X136058574Y-126310147D01*
X135781335Y-126255000D01*
X135498665Y-126255000D01*
X135221426Y-126310147D01*
X134960273Y-126418320D01*
X134725241Y-126575363D01*
X134525363Y-126775241D01*
X134368320Y-127010273D01*
X134260147Y-127271426D01*
X134205000Y-127548665D01*
X132580260Y-127548665D01*
X132571775Y-127506011D01*
X132467371Y-127253957D01*
X132399780Y-127152800D01*
X133484878Y-127152800D01*
X133522200Y-127156476D01*
X133559522Y-127152800D01*
X133559533Y-127152800D01*
X133671186Y-127141803D01*
X133814447Y-127098346D01*
X133946476Y-127027774D01*
X134062201Y-126932801D01*
X134086004Y-126903797D01*
X140031703Y-120958099D01*
X140060701Y-120934301D01*
X140087032Y-120902217D01*
X140155674Y-120818577D01*
X140226246Y-120686547D01*
X140247625Y-120616068D01*
X140269703Y-120543286D01*
X140280700Y-120431633D01*
X140280700Y-120431624D01*
X140284376Y-120394301D01*
X140280700Y-120356978D01*
X140280700Y-119942501D01*
X143891336Y-116331866D01*
X143955068Y-116451101D01*
X144134392Y-116669608D01*
X144352899Y-116848932D01*
X144485858Y-116920000D01*
X144352899Y-116991068D01*
X144134392Y-117170392D01*
X143955068Y-117388899D01*
X143821818Y-117638192D01*
X143739764Y-117908691D01*
X143712057Y-118190000D01*
X143739764Y-118471309D01*
X143821818Y-118741808D01*
X143955068Y-118991101D01*
X144134392Y-119209608D01*
X144352899Y-119388932D01*
X144485858Y-119460000D01*
X144352899Y-119531068D01*
X144134392Y-119710392D01*
X143955068Y-119928899D01*
X143821818Y-120178192D01*
X143739764Y-120448691D01*
X143712057Y-120730000D01*
X143739764Y-121011309D01*
X143821818Y-121281808D01*
X143955068Y-121531101D01*
X144134392Y-121749608D01*
X144352899Y-121928932D01*
X144602192Y-122062182D01*
X144872691Y-122144236D01*
X145083508Y-122165000D01*
X145224492Y-122165000D01*
X145435309Y-122144236D01*
X145519401Y-122118727D01*
X145519401Y-125348009D01*
X145171336Y-125696075D01*
X145135657Y-125725356D01*
X145018815Y-125867728D01*
X144964939Y-125968524D01*
X144931994Y-126030160D01*
X144878529Y-126206409D01*
X144860476Y-126389700D01*
X144865001Y-126435641D01*
X144865001Y-126600955D01*
X144780392Y-126670392D01*
X144601068Y-126888899D01*
X144467818Y-127138192D01*
X144385764Y-127408691D01*
X144358057Y-127690000D01*
X144385764Y-127971309D01*
X144467818Y-128241808D01*
X144601068Y-128491101D01*
X144780392Y-128709608D01*
X144998899Y-128888932D01*
X145248192Y-129022182D01*
X145518691Y-129104236D01*
X145729508Y-129125000D01*
X145870492Y-129125000D01*
X146081309Y-129104236D01*
X146351808Y-129022182D01*
X146601101Y-128888932D01*
X146819608Y-128709608D01*
X146998932Y-128491101D01*
X147132182Y-128241808D01*
X147214236Y-127971309D01*
X147241943Y-127690000D01*
X147214236Y-127408691D01*
X147164290Y-127244039D01*
X150088096Y-127244039D01*
X150128754Y-127378087D01*
X150248963Y-127632420D01*
X150416481Y-127858414D01*
X150624869Y-128047385D01*
X150866119Y-128192070D01*
X151130960Y-128286909D01*
X151353000Y-128165624D01*
X151353000Y-127022000D01*
X151607000Y-127022000D01*
X151607000Y-128165624D01*
X151829040Y-128286909D01*
X152093881Y-128192070D01*
X152335131Y-128047385D01*
X152543519Y-127858414D01*
X152711037Y-127632420D01*
X152831246Y-127378087D01*
X152871904Y-127244039D01*
X152749915Y-127022000D01*
X151607000Y-127022000D01*
X151353000Y-127022000D01*
X150210085Y-127022000D01*
X150088096Y-127244039D01*
X147164290Y-127244039D01*
X147132182Y-127138192D01*
X146998932Y-126888899D01*
X146829520Y-126682470D01*
X147083064Y-126428926D01*
X147118744Y-126399644D01*
X147235586Y-126257272D01*
X147322407Y-126094840D01*
X147360724Y-125968524D01*
X147375871Y-125918593D01*
X147393924Y-125735301D01*
X147389400Y-125689369D01*
X147389400Y-117883109D01*
X147454326Y-118004576D01*
X147494171Y-118053126D01*
X147549299Y-118120301D01*
X147578303Y-118144104D01*
X150356357Y-120922159D01*
X150281068Y-121013899D01*
X150147818Y-121263192D01*
X150065764Y-121533691D01*
X150038057Y-121815000D01*
X150065764Y-122096309D01*
X150147818Y-122366808D01*
X150281068Y-122616101D01*
X150460392Y-122834608D01*
X150678899Y-123013932D01*
X150741160Y-123047211D01*
X150730997Y-123080714D01*
X150726058Y-123130861D01*
X150678899Y-123156068D01*
X150460392Y-123335392D01*
X150281068Y-123553899D01*
X150147818Y-123803192D01*
X150065764Y-124073691D01*
X150038057Y-124355000D01*
X150065764Y-124636309D01*
X150147818Y-124906808D01*
X150281068Y-125156101D01*
X150460392Y-125374608D01*
X150678899Y-125553932D01*
X150816682Y-125627579D01*
X150624869Y-125742615D01*
X150416481Y-125931586D01*
X150248963Y-126157580D01*
X150128754Y-126411913D01*
X150088096Y-126545961D01*
X150210085Y-126768000D01*
X151353000Y-126768000D01*
X151353000Y-126748000D01*
X151607000Y-126748000D01*
X151607000Y-126768000D01*
X152749915Y-126768000D01*
X152871904Y-126545961D01*
X152831246Y-126411913D01*
X152711037Y-126157580D01*
X152543519Y-125931586D01*
X152335131Y-125742615D01*
X152143318Y-125627579D01*
X152281101Y-125553932D01*
X152499608Y-125374608D01*
X152678932Y-125156101D01*
X152812182Y-124906808D01*
X152894236Y-124636309D01*
X152921943Y-124355000D01*
X152894236Y-124073691D01*
X152812182Y-123803192D01*
X152678932Y-123553899D01*
X152603643Y-123462159D01*
X153119303Y-122946499D01*
X153148301Y-122922701D01*
X153174632Y-122890617D01*
X153243274Y-122806977D01*
X153313846Y-122674947D01*
X153338180Y-122594726D01*
X153357303Y-122531686D01*
X153368300Y-122420033D01*
X153368300Y-122420023D01*
X153371976Y-122382700D01*
X153368300Y-122345377D01*
X153368300Y-118814525D01*
X153371976Y-118777200D01*
X153368300Y-118739875D01*
X153368300Y-118739867D01*
X153357303Y-118628214D01*
X153313846Y-118484953D01*
X153243274Y-118352924D01*
X153148301Y-118237199D01*
X153119304Y-118213402D01*
X152572135Y-117666234D01*
X152678932Y-117536101D01*
X152812182Y-117286808D01*
X152894236Y-117016309D01*
X152921943Y-116735000D01*
X165278057Y-116735000D01*
X165305764Y-117016309D01*
X165387818Y-117286808D01*
X165521068Y-117536101D01*
X165700392Y-117754608D01*
X165918899Y-117933932D01*
X166051858Y-118005000D01*
X165918899Y-118076068D01*
X165700392Y-118255392D01*
X165521068Y-118473899D01*
X165387818Y-118723192D01*
X165305764Y-118993691D01*
X165278057Y-119275000D01*
X165305764Y-119556309D01*
X165387818Y-119826808D01*
X165521068Y-120076101D01*
X165700392Y-120294608D01*
X165918899Y-120473932D01*
X166051858Y-120545000D01*
X165918899Y-120616068D01*
X165700392Y-120795392D01*
X165521068Y-121013899D01*
X165387818Y-121263192D01*
X165305764Y-121533691D01*
X165278057Y-121815000D01*
X165305764Y-122096309D01*
X165387818Y-122366808D01*
X165521068Y-122616101D01*
X165700392Y-122834608D01*
X165918899Y-123013932D01*
X166051858Y-123085000D01*
X165918899Y-123156068D01*
X165700392Y-123335392D01*
X165521068Y-123553899D01*
X165387818Y-123803192D01*
X165305764Y-124073691D01*
X165278057Y-124355000D01*
X165305764Y-124636309D01*
X165387818Y-124906808D01*
X165521068Y-125156101D01*
X165700392Y-125374608D01*
X165918899Y-125553932D01*
X166051858Y-125625000D01*
X165918899Y-125696068D01*
X165700392Y-125875392D01*
X165521068Y-126093899D01*
X165387818Y-126343192D01*
X165305764Y-126613691D01*
X165278057Y-126895000D01*
X165305764Y-127176309D01*
X165387818Y-127446808D01*
X165521068Y-127696101D01*
X165700392Y-127914608D01*
X165918899Y-128093932D01*
X166168192Y-128227182D01*
X166438691Y-128309236D01*
X166649508Y-128330000D01*
X166790492Y-128330000D01*
X167001309Y-128309236D01*
X167271808Y-128227182D01*
X167521101Y-128093932D01*
X167739608Y-127914608D01*
X167918932Y-127696101D01*
X168052182Y-127446808D01*
X168113690Y-127244039D01*
X172948096Y-127244039D01*
X172988754Y-127378087D01*
X173108963Y-127632420D01*
X173276481Y-127858414D01*
X173484869Y-128047385D01*
X173726119Y-128192070D01*
X173990960Y-128286909D01*
X174213000Y-128165624D01*
X174213000Y-127022000D01*
X174467000Y-127022000D01*
X174467000Y-128165624D01*
X174689040Y-128286909D01*
X174953881Y-128192070D01*
X175195131Y-128047385D01*
X175403519Y-127858414D01*
X175571037Y-127632420D01*
X175691246Y-127378087D01*
X175731904Y-127244039D01*
X175609915Y-127022000D01*
X174467000Y-127022000D01*
X174213000Y-127022000D01*
X173070085Y-127022000D01*
X172948096Y-127244039D01*
X168113690Y-127244039D01*
X168134236Y-127176309D01*
X168161943Y-126895000D01*
X168134236Y-126613691D01*
X168052182Y-126343192D01*
X167918932Y-126093899D01*
X167739608Y-125875392D01*
X167521101Y-125696068D01*
X167388142Y-125625000D01*
X167521101Y-125553932D01*
X167739608Y-125374608D01*
X167918932Y-125156101D01*
X168052182Y-124906808D01*
X168134236Y-124636309D01*
X168161943Y-124355000D01*
X168134236Y-124073691D01*
X168052182Y-123803192D01*
X167918932Y-123553899D01*
X167739608Y-123335392D01*
X167521101Y-123156068D01*
X167388142Y-123085000D01*
X167521101Y-123013932D01*
X167739608Y-122834608D01*
X167918932Y-122616101D01*
X168052182Y-122366808D01*
X168134236Y-122096309D01*
X168161943Y-121815000D01*
X168134236Y-121533691D01*
X168052182Y-121263192D01*
X167918932Y-121013899D01*
X167739608Y-120795392D01*
X167521101Y-120616068D01*
X167388142Y-120545000D01*
X167521101Y-120473932D01*
X167739608Y-120294608D01*
X167918932Y-120076101D01*
X168052182Y-119826808D01*
X168134236Y-119556309D01*
X168161943Y-119275000D01*
X168134236Y-118993691D01*
X168052182Y-118723192D01*
X167918932Y-118473899D01*
X167739608Y-118255392D01*
X167521101Y-118076068D01*
X167388142Y-118005000D01*
X167521101Y-117933932D01*
X167739608Y-117754608D01*
X167918932Y-117536101D01*
X168052182Y-117286808D01*
X168134236Y-117016309D01*
X168161943Y-116735000D01*
X168134236Y-116453691D01*
X168052182Y-116183192D01*
X167918932Y-115933899D01*
X167739608Y-115715392D01*
X167521101Y-115536068D01*
X167383318Y-115462421D01*
X167575131Y-115347385D01*
X167783519Y-115158414D01*
X167951037Y-114932420D01*
X168071246Y-114678087D01*
X168111904Y-114544039D01*
X167989915Y-114322000D01*
X166847000Y-114322000D01*
X166847000Y-114342000D01*
X166593000Y-114342000D01*
X166593000Y-114322000D01*
X165450085Y-114322000D01*
X165328096Y-114544039D01*
X165368754Y-114678087D01*
X165488963Y-114932420D01*
X165656481Y-115158414D01*
X165864869Y-115347385D01*
X166056682Y-115462421D01*
X165918899Y-115536068D01*
X165700392Y-115715392D01*
X165521068Y-115933899D01*
X165387818Y-116183192D01*
X165305764Y-116453691D01*
X165278057Y-116735000D01*
X152921943Y-116735000D01*
X152894236Y-116453691D01*
X152812182Y-116183192D01*
X152678932Y-115933899D01*
X152499608Y-115715392D01*
X152281101Y-115536068D01*
X152233942Y-115510861D01*
X152229003Y-115460714D01*
X152218840Y-115427211D01*
X152281101Y-115393932D01*
X152499608Y-115214608D01*
X152678932Y-114996101D01*
X152812182Y-114746808D01*
X152894236Y-114476309D01*
X152921943Y-114195000D01*
X152894236Y-113913691D01*
X152812182Y-113643192D01*
X152678932Y-113393899D01*
X152499608Y-113175392D01*
X152281101Y-112996068D01*
X152233942Y-112970861D01*
X152229003Y-112920714D01*
X152218840Y-112887211D01*
X152281101Y-112853932D01*
X152499608Y-112674608D01*
X152678932Y-112456101D01*
X152812182Y-112206808D01*
X152894236Y-111936309D01*
X152921943Y-111655000D01*
X152894236Y-111373691D01*
X152812182Y-111103192D01*
X152718735Y-110928366D01*
X158020000Y-105627101D01*
X165642860Y-113249962D01*
X165488963Y-113457580D01*
X165368754Y-113711913D01*
X165328096Y-113845961D01*
X165450085Y-114068000D01*
X166593000Y-114068000D01*
X166593000Y-114048000D01*
X166847000Y-114048000D01*
X166847000Y-114068000D01*
X167989915Y-114068000D01*
X168111904Y-113845961D01*
X168071246Y-113711913D01*
X167990134Y-113540300D01*
X172052078Y-113540300D01*
X172089400Y-113543976D01*
X172126722Y-113540300D01*
X172126733Y-113540300D01*
X172238386Y-113529303D01*
X172381647Y-113485846D01*
X172513676Y-113415274D01*
X172629401Y-113320301D01*
X172653204Y-113291298D01*
X173297630Y-112646872D01*
X173320392Y-112674608D01*
X173538899Y-112853932D01*
X173671858Y-112925000D01*
X173538899Y-112996068D01*
X173320392Y-113175392D01*
X173141068Y-113393899D01*
X173007818Y-113643192D01*
X172925764Y-113913691D01*
X172898057Y-114195000D01*
X172925764Y-114476309D01*
X173007818Y-114746808D01*
X173141068Y-114996101D01*
X173320392Y-115214608D01*
X173538899Y-115393932D01*
X173671858Y-115465000D01*
X173538899Y-115536068D01*
X173320392Y-115715392D01*
X173141068Y-115933899D01*
X173007818Y-116183192D01*
X172925764Y-116453691D01*
X172898057Y-116735000D01*
X172925764Y-117016309D01*
X173007818Y-117286808D01*
X173141068Y-117536101D01*
X173320392Y-117754608D01*
X173538899Y-117933932D01*
X173671858Y-118005000D01*
X173538899Y-118076068D01*
X173320392Y-118255392D01*
X173141068Y-118473899D01*
X173007818Y-118723192D01*
X172925764Y-118993691D01*
X172898057Y-119275000D01*
X172925764Y-119556309D01*
X173007818Y-119826808D01*
X173141068Y-120076101D01*
X173320392Y-120294608D01*
X173538899Y-120473932D01*
X173671858Y-120545000D01*
X173538899Y-120616068D01*
X173320392Y-120795392D01*
X173141068Y-121013899D01*
X173007818Y-121263192D01*
X172925764Y-121533691D01*
X172898057Y-121815000D01*
X172925764Y-122096309D01*
X173007818Y-122366808D01*
X173141068Y-122616101D01*
X173320392Y-122834608D01*
X173538899Y-123013932D01*
X173671858Y-123085000D01*
X173538899Y-123156068D01*
X173320392Y-123335392D01*
X173141068Y-123553899D01*
X173007818Y-123803192D01*
X172925764Y-124073691D01*
X172898057Y-124355000D01*
X172925764Y-124636309D01*
X173007818Y-124906808D01*
X173141068Y-125156101D01*
X173320392Y-125374608D01*
X173538899Y-125553932D01*
X173676682Y-125627579D01*
X173484869Y-125742615D01*
X173276481Y-125931586D01*
X173108963Y-126157580D01*
X172988754Y-126411913D01*
X172948096Y-126545961D01*
X173070085Y-126768000D01*
X174213000Y-126768000D01*
X174213000Y-126748000D01*
X174467000Y-126748000D01*
X174467000Y-126768000D01*
X175609915Y-126768000D01*
X175731904Y-126545961D01*
X175691246Y-126411913D01*
X175571037Y-126157580D01*
X175403519Y-125931586D01*
X175195131Y-125742615D01*
X175003318Y-125627579D01*
X175141101Y-125553932D01*
X175359608Y-125374608D01*
X175538932Y-125156101D01*
X175672182Y-124906808D01*
X175754236Y-124636309D01*
X175781943Y-124355000D01*
X175754236Y-124073691D01*
X175672182Y-123803192D01*
X175538932Y-123553899D01*
X175359608Y-123335392D01*
X175141101Y-123156068D01*
X175008142Y-123085000D01*
X175141101Y-123013932D01*
X175359608Y-122834608D01*
X175538932Y-122616101D01*
X175672182Y-122366808D01*
X175754236Y-122096309D01*
X175781943Y-121815000D01*
X175754236Y-121533691D01*
X175672182Y-121263192D01*
X175538932Y-121013899D01*
X175359608Y-120795392D01*
X175141101Y-120616068D01*
X175008142Y-120545000D01*
X175141101Y-120473932D01*
X175359608Y-120294608D01*
X175538932Y-120076101D01*
X175672182Y-119826808D01*
X175754236Y-119556309D01*
X175781943Y-119275000D01*
X175754236Y-118993691D01*
X175672182Y-118723192D01*
X175538932Y-118473899D01*
X175359608Y-118255392D01*
X175141101Y-118076068D01*
X175008142Y-118005000D01*
X175141101Y-117933932D01*
X175359608Y-117754608D01*
X175538932Y-117536101D01*
X175672182Y-117286808D01*
X175754236Y-117016309D01*
X175781943Y-116735000D01*
X175754236Y-116453691D01*
X175672182Y-116183192D01*
X175538932Y-115933899D01*
X175359608Y-115715392D01*
X175141101Y-115536068D01*
X175008142Y-115465000D01*
X175141101Y-115393932D01*
X175359608Y-115214608D01*
X175538932Y-114996101D01*
X175672182Y-114746808D01*
X175754236Y-114476309D01*
X175781943Y-114195000D01*
X175754236Y-113913691D01*
X175672182Y-113643192D01*
X175538932Y-113393899D01*
X175359608Y-113175392D01*
X175141101Y-112996068D01*
X175008142Y-112925000D01*
X175141101Y-112853932D01*
X175359608Y-112674608D01*
X175538932Y-112456101D01*
X175672182Y-112206808D01*
X175754236Y-111936309D01*
X175781943Y-111655000D01*
X175754236Y-111373691D01*
X175728758Y-111289700D01*
X187014599Y-111289700D01*
X187890901Y-112166003D01*
X187914699Y-112195001D01*
X187943697Y-112218799D01*
X188030424Y-112289974D01*
X188162453Y-112360546D01*
X188305714Y-112404003D01*
X188355861Y-112408942D01*
X188381068Y-112456101D01*
X188560392Y-112674608D01*
X188778899Y-112853932D01*
X188841160Y-112887211D01*
X188830997Y-112920714D01*
X188826058Y-112970861D01*
X188778899Y-112996068D01*
X188560392Y-113175392D01*
X188381068Y-113393899D01*
X188247818Y-113643192D01*
X188165764Y-113913691D01*
X188138057Y-114195000D01*
X188165764Y-114476309D01*
X188247818Y-114746808D01*
X188381068Y-114996101D01*
X188560392Y-115214608D01*
X188778899Y-115393932D01*
X188911858Y-115465000D01*
X188778899Y-115536068D01*
X188560392Y-115715392D01*
X188381068Y-115933899D01*
X188247818Y-116183192D01*
X188165764Y-116453691D01*
X188138057Y-116735000D01*
X188165764Y-117016309D01*
X188247818Y-117286808D01*
X188381068Y-117536101D01*
X188560392Y-117754608D01*
X188778899Y-117933932D01*
X188841160Y-117967211D01*
X188830997Y-118000714D01*
X188826058Y-118050861D01*
X188778899Y-118076068D01*
X188560392Y-118255392D01*
X188381068Y-118473899D01*
X188247818Y-118723192D01*
X188165764Y-118993691D01*
X188138057Y-119275000D01*
X188165764Y-119556309D01*
X188247818Y-119826808D01*
X188381068Y-120076101D01*
X188560392Y-120294608D01*
X188778899Y-120473932D01*
X188841160Y-120507211D01*
X188830997Y-120540714D01*
X188826058Y-120590861D01*
X188778899Y-120616068D01*
X188560392Y-120795392D01*
X188381068Y-121013899D01*
X188247818Y-121263192D01*
X188165764Y-121533691D01*
X188138057Y-121815000D01*
X188165764Y-122096309D01*
X188247818Y-122366808D01*
X188381068Y-122616101D01*
X188560392Y-122834608D01*
X188778899Y-123013932D01*
X188911858Y-123085000D01*
X188778899Y-123156068D01*
X188560392Y-123335392D01*
X188381068Y-123553899D01*
X188247818Y-123803192D01*
X188165764Y-124073691D01*
X188138057Y-124355000D01*
X188165764Y-124636309D01*
X188247818Y-124906808D01*
X188381068Y-125156101D01*
X188560392Y-125374608D01*
X188778899Y-125553932D01*
X188841160Y-125587211D01*
X188830997Y-125620714D01*
X188826058Y-125670861D01*
X188778899Y-125696068D01*
X188560392Y-125875392D01*
X188381068Y-126093899D01*
X188247818Y-126343192D01*
X188165764Y-126613691D01*
X188138057Y-126895000D01*
X188165764Y-127176309D01*
X188247818Y-127446808D01*
X188381068Y-127696101D01*
X188560392Y-127914608D01*
X188778899Y-128093932D01*
X189028192Y-128227182D01*
X189298691Y-128309236D01*
X189509508Y-128330000D01*
X189650492Y-128330000D01*
X189861309Y-128309236D01*
X190131808Y-128227182D01*
X190381101Y-128093932D01*
X190599608Y-127914608D01*
X190778932Y-127696101D01*
X190912182Y-127446808D01*
X190994236Y-127176309D01*
X191021943Y-126895000D01*
X190994236Y-126613691D01*
X190912182Y-126343192D01*
X190778932Y-126093899D01*
X190703643Y-126002158D01*
X199290001Y-117415801D01*
X199290001Y-134290000D01*
X100710000Y-134290000D01*
X100710000Y-130269872D01*
X103275000Y-130269872D01*
X103275000Y-130710128D01*
X103360890Y-131141925D01*
X103529369Y-131548669D01*
X103773962Y-131914729D01*
X104085271Y-132226038D01*
X104451331Y-132470631D01*
X104858075Y-132639110D01*
X105289872Y-132725000D01*
X105730128Y-132725000D01*
X106161925Y-132639110D01*
X106568669Y-132470631D01*
X106934729Y-132226038D01*
X107246038Y-131914729D01*
X107490631Y-131548669D01*
X107659110Y-131141925D01*
X107745000Y-130710128D01*
X107745000Y-130269872D01*
X107659110Y-129838075D01*
X107490631Y-129431331D01*
X107246038Y-129065271D01*
X106934729Y-128753962D01*
X106568669Y-128509369D01*
X106161925Y-128340890D01*
X105730128Y-128255000D01*
X105289872Y-128255000D01*
X104858075Y-128340890D01*
X104451331Y-128509369D01*
X104085271Y-128753962D01*
X103773962Y-129065271D01*
X103529369Y-129431331D01*
X103360890Y-129838075D01*
X103275000Y-130269872D01*
X100710000Y-130269872D01*
X100710000Y-100149039D01*
X107898096Y-100149039D01*
X107938754Y-100283087D01*
X108058963Y-100537420D01*
X108226481Y-100763414D01*
X108434869Y-100952385D01*
X108676119Y-101097070D01*
X108940960Y-101191909D01*
X109163000Y-101070624D01*
X109163000Y-99927000D01*
X108020085Y-99927000D01*
X107898096Y-100149039D01*
X100710000Y-100149039D01*
X100710000Y-90400000D01*
X103627815Y-90400000D01*
X103656487Y-90691111D01*
X103741401Y-90971034D01*
X103879294Y-91229014D01*
X104064866Y-91455134D01*
X104290986Y-91640706D01*
X104345791Y-91670000D01*
X104290986Y-91699294D01*
X104064866Y-91884866D01*
X103879294Y-92110986D01*
X103741401Y-92368966D01*
X103656487Y-92648889D01*
X103627815Y-92940000D01*
X103656487Y-93231111D01*
X103741401Y-93511034D01*
X103879294Y-93769014D01*
X104064866Y-93995134D01*
X104290986Y-94180706D01*
X104548966Y-94318599D01*
X104828889Y-94403513D01*
X105047050Y-94425000D01*
X105192950Y-94425000D01*
X105411111Y-94403513D01*
X105691034Y-94318599D01*
X105949014Y-94180706D01*
X106175134Y-93995134D01*
X106360706Y-93769014D01*
X106498599Y-93511034D01*
X106583513Y-93231111D01*
X106612185Y-92940000D01*
X106583513Y-92648889D01*
X106498599Y-92368966D01*
X106360706Y-92110986D01*
X106175134Y-91884866D01*
X105949014Y-91699294D01*
X105894209Y-91670000D01*
X105949014Y-91640706D01*
X106175134Y-91455134D01*
X106360706Y-91229014D01*
X106498599Y-90971034D01*
X106583513Y-90691111D01*
X106612185Y-90400000D01*
X106583513Y-90108889D01*
X106498599Y-89828966D01*
X106360706Y-89570986D01*
X106175134Y-89344866D01*
X106145313Y-89320393D01*
X106214180Y-89299502D01*
X106324494Y-89240537D01*
X106421185Y-89161185D01*
X106500537Y-89064494D01*
X106559502Y-88954180D01*
X106595812Y-88834482D01*
X106608072Y-88710000D01*
X106605000Y-88145750D01*
X106446250Y-87987000D01*
X105247000Y-87987000D01*
X105247000Y-88007000D01*
X104993000Y-88007000D01*
X104993000Y-87987000D01*
X103793750Y-87987000D01*
X103635000Y-88145750D01*
X103631928Y-88710000D01*
X103644188Y-88834482D01*
X103680498Y-88954180D01*
X103739463Y-89064494D01*
X103818815Y-89161185D01*
X103915506Y-89240537D01*
X104025820Y-89299502D01*
X104094687Y-89320393D01*
X104064866Y-89344866D01*
X103879294Y-89570986D01*
X103741401Y-89828966D01*
X103656487Y-90108889D01*
X103627815Y-90400000D01*
X100710000Y-90400000D01*
X100710000Y-87010000D01*
X103631928Y-87010000D01*
X103635000Y-87574250D01*
X103793750Y-87733000D01*
X104993000Y-87733000D01*
X104993000Y-86533750D01*
X105247000Y-86533750D01*
X105247000Y-87733000D01*
X106446250Y-87733000D01*
X106605000Y-87574250D01*
X106608072Y-87010000D01*
X106595812Y-86885518D01*
X106559502Y-86765820D01*
X106500537Y-86655506D01*
X106421185Y-86558815D01*
X106324494Y-86479463D01*
X106214180Y-86420498D01*
X106094482Y-86384188D01*
X105970000Y-86371928D01*
X105405750Y-86375000D01*
X105247000Y-86533750D01*
X104993000Y-86533750D01*
X104834250Y-86375000D01*
X104270000Y-86371928D01*
X104145518Y-86384188D01*
X104025820Y-86420498D01*
X103915506Y-86479463D01*
X103818815Y-86558815D01*
X103739463Y-86655506D01*
X103680498Y-86765820D01*
X103644188Y-86885518D01*
X103631928Y-87010000D01*
X100710000Y-87010000D01*
X100710000Y-79602702D01*
X114136903Y-79602702D01*
X114208486Y-79846671D01*
X114463996Y-79967571D01*
X114738184Y-80036300D01*
X115020512Y-80050217D01*
X115300130Y-80008787D01*
X115566292Y-79913603D01*
X115691514Y-79846671D01*
X115763097Y-79602702D01*
X114950000Y-78789605D01*
X114136903Y-79602702D01*
X100710000Y-79602702D01*
X100710000Y-78680512D01*
X113509783Y-78680512D01*
X113551213Y-78960130D01*
X113646397Y-79226292D01*
X113713329Y-79351514D01*
X113957298Y-79423097D01*
X114770395Y-78610000D01*
X113957298Y-77796903D01*
X113713329Y-77868486D01*
X113592429Y-78123996D01*
X113523700Y-78398184D01*
X113509783Y-78680512D01*
X100710000Y-78680512D01*
X100710000Y-77617298D01*
X114136903Y-77617298D01*
X114950000Y-78430395D01*
X115763097Y-77617298D01*
X115691514Y-77373329D01*
X115436004Y-77252429D01*
X115161816Y-77183700D01*
X114879488Y-77169783D01*
X114599870Y-77211213D01*
X114333708Y-77306397D01*
X114208486Y-77373329D01*
X114136903Y-77617298D01*
X100710000Y-77617298D01*
X100710000Y-64279872D01*
X103265000Y-64279872D01*
X103265000Y-64720128D01*
X103350890Y-65151925D01*
X103519369Y-65558669D01*
X103763962Y-65924729D01*
X104075271Y-66236038D01*
X104441331Y-66480631D01*
X104848075Y-66649110D01*
X105279872Y-66735000D01*
X105720128Y-66735000D01*
X106151925Y-66649110D01*
X106558669Y-66480631D01*
X106924729Y-66236038D01*
X107236038Y-65924729D01*
X107386196Y-65700000D01*
X111561928Y-65700000D01*
X111561928Y-67300000D01*
X111574188Y-67424482D01*
X111610498Y-67544180D01*
X111669463Y-67654494D01*
X111748815Y-67751185D01*
X111845506Y-67830537D01*
X111955820Y-67889502D01*
X112075518Y-67925812D01*
X112200000Y-67938072D01*
X113800000Y-67938072D01*
X113924482Y-67925812D01*
X114044180Y-67889502D01*
X114154494Y-67830537D01*
X114251185Y-67751185D01*
X114330537Y-67654494D01*
X114389502Y-67544180D01*
X114405117Y-67492702D01*
X114686903Y-67492702D01*
X114758486Y-67736671D01*
X115013996Y-67857571D01*
X115288184Y-67926300D01*
X115570512Y-67940217D01*
X115850130Y-67898787D01*
X116116292Y-67803603D01*
X116241514Y-67736671D01*
X116313097Y-67492702D01*
X115500000Y-66679605D01*
X114686903Y-67492702D01*
X114405117Y-67492702D01*
X114425812Y-67424482D01*
X114438072Y-67300000D01*
X114438072Y-67292785D01*
X114507298Y-67313097D01*
X115320395Y-66500000D01*
X115679605Y-66500000D01*
X116492702Y-67313097D01*
X116736671Y-67241514D01*
X116857571Y-66986004D01*
X116926300Y-66711816D01*
X116931763Y-66600973D01*
X123545037Y-66600973D01*
X123665536Y-66833000D01*
X124873000Y-66833000D01*
X124873000Y-65626183D01*
X125127000Y-65626183D01*
X125127000Y-66833000D01*
X127413000Y-66833000D01*
X127413000Y-65626183D01*
X127180974Y-65505042D01*
X127030186Y-65550778D01*
X126765056Y-65677316D01*
X126529707Y-65853146D01*
X126333183Y-66071512D01*
X126270000Y-66177770D01*
X126206817Y-66071512D01*
X126010293Y-65853146D01*
X125774944Y-65677316D01*
X125509814Y-65550778D01*
X125359026Y-65505042D01*
X125127000Y-65626183D01*
X124873000Y-65626183D01*
X124640974Y-65505042D01*
X124490186Y-65550778D01*
X124225056Y-65677316D01*
X123989707Y-65853146D01*
X123793183Y-66071512D01*
X123643036Y-66324022D01*
X123545037Y-66600973D01*
X116931763Y-66600973D01*
X116940217Y-66429488D01*
X116898787Y-66149870D01*
X116803603Y-65883708D01*
X116736671Y-65758486D01*
X116492702Y-65686903D01*
X115679605Y-66500000D01*
X115320395Y-66500000D01*
X114507298Y-65686903D01*
X114438072Y-65707215D01*
X114438072Y-65700000D01*
X114425812Y-65575518D01*
X114405118Y-65507298D01*
X114686903Y-65507298D01*
X115500000Y-66320395D01*
X116313097Y-65507298D01*
X116241514Y-65263329D01*
X115986004Y-65142429D01*
X115711816Y-65073700D01*
X115429488Y-65059783D01*
X115149870Y-65101213D01*
X114883708Y-65196397D01*
X114758486Y-65263329D01*
X114686903Y-65507298D01*
X114405118Y-65507298D01*
X114389502Y-65455820D01*
X114330537Y-65345506D01*
X114251185Y-65248815D01*
X114154494Y-65169463D01*
X114044180Y-65110498D01*
X113924482Y-65074188D01*
X113800000Y-65061928D01*
X112200000Y-65061928D01*
X112075518Y-65074188D01*
X111955820Y-65110498D01*
X111845506Y-65169463D01*
X111748815Y-65248815D01*
X111669463Y-65345506D01*
X111610498Y-65455820D01*
X111574188Y-65575518D01*
X111561928Y-65700000D01*
X107386196Y-65700000D01*
X107480631Y-65558669D01*
X107649110Y-65151925D01*
X107735000Y-64720128D01*
X107735000Y-64279872D01*
X107649110Y-63848075D01*
X107480631Y-63441331D01*
X107236038Y-63075271D01*
X106924729Y-62763962D01*
X106558669Y-62519369D01*
X106151925Y-62350890D01*
X105720128Y-62265000D01*
X105279872Y-62265000D01*
X104848075Y-62350890D01*
X104441331Y-62519369D01*
X104075271Y-62763962D01*
X103763962Y-63075271D01*
X103519369Y-63441331D01*
X103350890Y-63848075D01*
X103265000Y-64279872D01*
X100710000Y-64279872D01*
X100710000Y-60710000D01*
X199290000Y-60710000D01*
X199290000Y-72367198D01*
X199290000Y-72367198D01*
G37*
X199290000Y-72367198D02*
X193327117Y-66404316D01*
X193441331Y-66480631D01*
X193848075Y-66649110D01*
X194279872Y-66735000D01*
X194720128Y-66735000D01*
X195151925Y-66649110D01*
X195558669Y-66480631D01*
X195924729Y-66236038D01*
X196236038Y-65924729D01*
X196480631Y-65558669D01*
X196649110Y-65151925D01*
X196735000Y-64720128D01*
X196735000Y-64279872D01*
X196649110Y-63848075D01*
X196480631Y-63441331D01*
X196236038Y-63075271D01*
X195924729Y-62763962D01*
X195558669Y-62519369D01*
X195151925Y-62350890D01*
X194720128Y-62265000D01*
X194279872Y-62265000D01*
X193848075Y-62350890D01*
X193441331Y-62519369D01*
X193075271Y-62763962D01*
X192763962Y-63075271D01*
X192519369Y-63441331D01*
X192350890Y-63848075D01*
X192265000Y-64279872D01*
X192265000Y-64720128D01*
X192350890Y-65151925D01*
X192519369Y-65558669D01*
X192595684Y-65672883D01*
X190264504Y-63341703D01*
X190240701Y-63312699D01*
X190124976Y-63217726D01*
X189992947Y-63147154D01*
X189849686Y-63103697D01*
X189738033Y-63092700D01*
X189738022Y-63092700D01*
X189700700Y-63089024D01*
X189663378Y-63092700D01*
X141662022Y-63092700D01*
X141624699Y-63089024D01*
X141587376Y-63092700D01*
X141587367Y-63092700D01*
X141475714Y-63103697D01*
X141332453Y-63147154D01*
X141200424Y-63217726D01*
X141200422Y-63217727D01*
X141200423Y-63217727D01*
X141113696Y-63288901D01*
X141113692Y-63288905D01*
X141084699Y-63312699D01*
X141060905Y-63341692D01*
X138623421Y-65779178D01*
X138536606Y-65707931D01*
X138276264Y-65568775D01*
X137993777Y-65483084D01*
X137773619Y-65461400D01*
X137626381Y-65461400D01*
X137406223Y-65483084D01*
X137123736Y-65568775D01*
X136863394Y-65707931D01*
X136635203Y-65895203D01*
X136447931Y-66123394D01*
X136430000Y-66156940D01*
X136412069Y-66123394D01*
X136224797Y-65895203D01*
X135996606Y-65707931D01*
X135736264Y-65568775D01*
X135453777Y-65483084D01*
X135233619Y-65461400D01*
X135086381Y-65461400D01*
X134866223Y-65483084D01*
X134583736Y-65568775D01*
X134323394Y-65707931D01*
X134095203Y-65895203D01*
X133907931Y-66123394D01*
X133890000Y-66156940D01*
X133872069Y-66123394D01*
X133684797Y-65895203D01*
X133456606Y-65707931D01*
X133196264Y-65568775D01*
X132913777Y-65483084D01*
X132693619Y-65461400D01*
X132546381Y-65461400D01*
X132326223Y-65483084D01*
X132043736Y-65568775D01*
X131783394Y-65707931D01*
X131555203Y-65895203D01*
X131367931Y-66123394D01*
X131350000Y-66156940D01*
X131332069Y-66123394D01*
X131144797Y-65895203D01*
X130916606Y-65707931D01*
X130656264Y-65568775D01*
X130373777Y-65483084D01*
X130153619Y-65461400D01*
X130006381Y-65461400D01*
X129786223Y-65483084D01*
X129503736Y-65568775D01*
X129243394Y-65707931D01*
X129015203Y-65895203D01*
X128827931Y-66123394D01*
X128804137Y-66167910D01*
X128746817Y-66071512D01*
X128550293Y-65853146D01*
X128314944Y-65677316D01*
X128049814Y-65550778D01*
X127899026Y-65505042D01*
X127667000Y-65626183D01*
X127667000Y-66833000D01*
X127687000Y-66833000D01*
X127687000Y-67087000D01*
X127667000Y-67087000D01*
X127667000Y-67107000D01*
X127413000Y-67107000D01*
X127413000Y-67087000D01*
X125127000Y-67087000D01*
X125127000Y-67107000D01*
X124873000Y-67107000D01*
X124873000Y-67087000D01*
X123665536Y-67087000D01*
X123545037Y-67319027D01*
X123643036Y-67595978D01*
X123793183Y-67848488D01*
X123954692Y-68027947D01*
X123892220Y-68046898D01*
X123781906Y-68105863D01*
X123685215Y-68185215D01*
X123605863Y-68281906D01*
X123546898Y-68392220D01*
X123510588Y-68511918D01*
X123498328Y-68636400D01*
X123498328Y-70363600D01*
X123510588Y-70488082D01*
X123546898Y-70607780D01*
X123605863Y-70718094D01*
X123685215Y-70814785D01*
X123708069Y-70833541D01*
X117366611Y-77175000D01*
X117308665Y-77175000D01*
X117031426Y-77230147D01*
X116770273Y-77338320D01*
X116535241Y-77495363D01*
X116335363Y-77695241D01*
X116201308Y-77895869D01*
X116186671Y-77868486D01*
X115942702Y-77796903D01*
X115129605Y-78610000D01*
X115942702Y-79423097D01*
X116186671Y-79351514D01*
X116200324Y-79322659D01*
X116335363Y-79524759D01*
X116535241Y-79724637D01*
X116770273Y-79881680D01*
X117031426Y-79989853D01*
X117308665Y-80045000D01*
X117591335Y-80045000D01*
X117868574Y-79989853D01*
X118129727Y-79881680D01*
X118364759Y-79724637D01*
X118564637Y-79524759D01*
X118721680Y-79289727D01*
X118820480Y-79051202D01*
X127552903Y-79051202D01*
X127624486Y-79295171D01*
X127879996Y-79416071D01*
X128154184Y-79484800D01*
X128436512Y-79498717D01*
X128716130Y-79457287D01*
X128982292Y-79362103D01*
X129107514Y-79295171D01*
X129179097Y-79051202D01*
X128366000Y-78238105D01*
X127552903Y-79051202D01*
X118820480Y-79051202D01*
X118829853Y-79028574D01*
X118885000Y-78751335D01*
X118885000Y-78468665D01*
X118857214Y-78328975D01*
X119057177Y-78129012D01*
X126925783Y-78129012D01*
X126967213Y-78408630D01*
X127062397Y-78674792D01*
X127129329Y-78800014D01*
X127373298Y-78871597D01*
X128186395Y-78058500D01*
X127373298Y-77245403D01*
X127129329Y-77316986D01*
X127008429Y-77572496D01*
X126939700Y-77846684D01*
X126925783Y-78129012D01*
X119057177Y-78129012D01*
X120120391Y-77065798D01*
X127552903Y-77065798D01*
X128366000Y-77878895D01*
X129179097Y-77065798D01*
X129107514Y-76821829D01*
X128852004Y-76700929D01*
X128577816Y-76632200D01*
X128295488Y-76618283D01*
X128015870Y-76659713D01*
X127749708Y-76754897D01*
X127624486Y-76821829D01*
X127552903Y-77065798D01*
X120120391Y-77065798D01*
X125628665Y-71557525D01*
X125664344Y-71528244D01*
X125781186Y-71385872D01*
X125868007Y-71223440D01*
X125905253Y-71100657D01*
X125921471Y-71047193D01*
X125926565Y-70995471D01*
X125988082Y-70989412D01*
X126107780Y-70953102D01*
X126218094Y-70894137D01*
X126314785Y-70814785D01*
X126394137Y-70718094D01*
X126453102Y-70607780D01*
X126468586Y-70556735D01*
X126475203Y-70564797D01*
X126605001Y-70671320D01*
X126605001Y-70817959D01*
X126600476Y-70863900D01*
X126618529Y-71047191D01*
X126638546Y-71113177D01*
X126671994Y-71223440D01*
X126758815Y-71385872D01*
X126875657Y-71528244D01*
X126911336Y-71557525D01*
X129931001Y-74577191D01*
X129931000Y-76964104D01*
X129751363Y-77143741D01*
X129617308Y-77344369D01*
X129602671Y-77316986D01*
X129358702Y-77245403D01*
X128545605Y-78058500D01*
X129358702Y-78871597D01*
X129602671Y-78800014D01*
X129616324Y-78771159D01*
X129751363Y-78973259D01*
X129931001Y-79152897D01*
X129931000Y-79862911D01*
X129919337Y-79874574D01*
X129883657Y-79903856D01*
X129766815Y-80046228D01*
X129679994Y-80208660D01*
X129626529Y-80384909D01*
X129608476Y-80568200D01*
X129613001Y-80614141D01*
X129613001Y-80779455D01*
X129528392Y-80848892D01*
X129349068Y-81067399D01*
X129215818Y-81316692D01*
X129133764Y-81587191D01*
X129106057Y-81868500D01*
X129116785Y-81977425D01*
X128593736Y-82500475D01*
X128558057Y-82529756D01*
X128441215Y-82672128D01*
X128378227Y-82789971D01*
X128354394Y-82834560D01*
X128300929Y-83010809D01*
X128282876Y-83194100D01*
X128287401Y-83240042D01*
X128287400Y-100346468D01*
X128282876Y-100392400D01*
X128294713Y-100512576D01*
X128300929Y-100575691D01*
X128311298Y-100609872D01*
X128309488Y-100609783D01*
X128029870Y-100651213D01*
X127763708Y-100746397D01*
X127638486Y-100813329D01*
X127566903Y-101057298D01*
X128380000Y-101870395D01*
X128394143Y-101856253D01*
X128573748Y-102035858D01*
X128559605Y-102050000D01*
X129372702Y-102863097D01*
X129616671Y-102791514D01*
X129630324Y-102762659D01*
X129765363Y-102964759D01*
X129945000Y-103144396D01*
X129945000Y-103344411D01*
X129665336Y-103624075D01*
X129629657Y-103653356D01*
X129512815Y-103795728D01*
X129425994Y-103958160D01*
X129372529Y-104134409D01*
X129354476Y-104317700D01*
X129359001Y-104363641D01*
X129359001Y-104528955D01*
X129274392Y-104598392D01*
X129095068Y-104816899D01*
X129050807Y-104899705D01*
X127193804Y-103042702D01*
X127566903Y-103042702D01*
X127638486Y-103286671D01*
X127893996Y-103407571D01*
X128168184Y-103476300D01*
X128450512Y-103490217D01*
X128730130Y-103448787D01*
X128996292Y-103353603D01*
X129121514Y-103286671D01*
X129193097Y-103042702D01*
X128380000Y-102229605D01*
X127566903Y-103042702D01*
X127193804Y-103042702D01*
X126271614Y-102120512D01*
X126939783Y-102120512D01*
X126981213Y-102400130D01*
X127076397Y-102666292D01*
X127143329Y-102791514D01*
X127387298Y-102863097D01*
X128200395Y-102050000D01*
X127387298Y-101236903D01*
X127143329Y-101308486D01*
X127022429Y-101563996D01*
X126953700Y-101838184D01*
X126939783Y-102120512D01*
X126271614Y-102120512D01*
X122625881Y-98474780D01*
X122801000Y-98379124D01*
X122801000Y-97235500D01*
X123055000Y-97235500D01*
X123055000Y-98379124D01*
X123277040Y-98500409D01*
X123541881Y-98405570D01*
X123783131Y-98260885D01*
X123991519Y-98071914D01*
X124159037Y-97845920D01*
X124279246Y-97591587D01*
X124319904Y-97457539D01*
X124197915Y-97235500D01*
X123055000Y-97235500D01*
X122801000Y-97235500D01*
X122781000Y-97235500D01*
X122781000Y-96981500D01*
X122801000Y-96981500D01*
X122801000Y-96961500D01*
X123055000Y-96961500D01*
X123055000Y-96981500D01*
X124197915Y-96981500D01*
X124319904Y-96759461D01*
X124279246Y-96625413D01*
X124159037Y-96371080D01*
X123991519Y-96145086D01*
X123783131Y-95956115D01*
X123664252Y-95884820D01*
X123677003Y-95842786D01*
X123681942Y-95792639D01*
X123729101Y-95767432D01*
X123947608Y-95588108D01*
X124126932Y-95369601D01*
X124260182Y-95120308D01*
X124342236Y-94849809D01*
X124369943Y-94568500D01*
X124342236Y-94287191D01*
X124260182Y-94016692D01*
X124126932Y-93767399D01*
X124032801Y-93652700D01*
X124564302Y-93121199D01*
X124593301Y-93097401D01*
X124688274Y-92981676D01*
X124758846Y-92849647D01*
X124802303Y-92706386D01*
X124813300Y-92594733D01*
X124813300Y-92594725D01*
X124816976Y-92557400D01*
X124813300Y-92520075D01*
X124813300Y-83875023D01*
X124816976Y-83837700D01*
X124813300Y-83800377D01*
X124813300Y-83800367D01*
X124802303Y-83688714D01*
X124758846Y-83545453D01*
X124688274Y-83413424D01*
X124593301Y-83297699D01*
X124564304Y-83273902D01*
X124277646Y-82987244D01*
X124317502Y-82912680D01*
X124353812Y-82792982D01*
X124366072Y-82668500D01*
X124366072Y-81068500D01*
X124353812Y-80944018D01*
X124317502Y-80824320D01*
X124258537Y-80714006D01*
X124179185Y-80617315D01*
X124082494Y-80537963D01*
X123972180Y-80478998D01*
X123852482Y-80442688D01*
X123728000Y-80430428D01*
X122128000Y-80430428D01*
X122003518Y-80442688D01*
X121883820Y-80478998D01*
X121773506Y-80537963D01*
X121676815Y-80617315D01*
X121597463Y-80714006D01*
X121538498Y-80824320D01*
X121502188Y-80944018D01*
X121489928Y-81068500D01*
X121489928Y-82668500D01*
X121502188Y-82792982D01*
X121538498Y-82912680D01*
X121597463Y-83022994D01*
X121676815Y-83119685D01*
X121773506Y-83199037D01*
X121883820Y-83258002D01*
X122003518Y-83294312D01*
X122021482Y-83296081D01*
X121908392Y-83388892D01*
X121729068Y-83607399D01*
X121595818Y-83856692D01*
X121513764Y-84127191D01*
X121486057Y-84408500D01*
X121513764Y-84689809D01*
X121595818Y-84960308D01*
X121729068Y-85209601D01*
X121804312Y-85301286D01*
X119926603Y-87178996D01*
X119897599Y-87202799D01*
X119849591Y-87261298D01*
X119802626Y-87318524D01*
X119764957Y-87388998D01*
X119732054Y-87450554D01*
X119688597Y-87593815D01*
X119677600Y-87705468D01*
X119677600Y-87705478D01*
X119673924Y-87742800D01*
X119677600Y-87780122D01*
X119677601Y-99710568D01*
X119673924Y-99747900D01*
X119677601Y-99785233D01*
X119688598Y-99896886D01*
X119697733Y-99927000D01*
X119732054Y-100040146D01*
X119802626Y-100172176D01*
X119856061Y-100237286D01*
X119897600Y-100287901D01*
X119926598Y-100311699D01*
X124663400Y-105048502D01*
X124663401Y-110026068D01*
X124659724Y-110063400D01*
X124663401Y-110100733D01*
X124674398Y-110212386D01*
X124682002Y-110237453D01*
X124717854Y-110355646D01*
X124788426Y-110487676D01*
X124859601Y-110574402D01*
X124883400Y-110603401D01*
X124912398Y-110627199D01*
X129170357Y-114885159D01*
X129095068Y-114976899D01*
X128961818Y-115226192D01*
X128879764Y-115496691D01*
X128852057Y-115778000D01*
X128879764Y-116059309D01*
X128906789Y-116148400D01*
X126064002Y-116148400D01*
X124057204Y-114141603D01*
X124033401Y-114112599D01*
X123917676Y-114017626D01*
X123891803Y-114003796D01*
X124006182Y-113789808D01*
X124088236Y-113519309D01*
X124115943Y-113238000D01*
X124088236Y-112956691D01*
X124006182Y-112686192D01*
X123872932Y-112436899D01*
X123693608Y-112218392D01*
X123475101Y-112039068D01*
X123434000Y-112017099D01*
X123434000Y-111918901D01*
X123475101Y-111896932D01*
X123693608Y-111717608D01*
X123872932Y-111499101D01*
X124006182Y-111249808D01*
X124088236Y-110979309D01*
X124115943Y-110698000D01*
X124088236Y-110416691D01*
X124006182Y-110146192D01*
X123872932Y-109896899D01*
X123693608Y-109678392D01*
X123475101Y-109499068D01*
X123342142Y-109428000D01*
X123475101Y-109356932D01*
X123693608Y-109177608D01*
X123872932Y-108959101D01*
X124006182Y-108709808D01*
X124088236Y-108439309D01*
X124115943Y-108158000D01*
X124088236Y-107876691D01*
X124006182Y-107606192D01*
X123872932Y-107356899D01*
X123693608Y-107138392D01*
X123580518Y-107045581D01*
X123598482Y-107043812D01*
X123718180Y-107007502D01*
X123828494Y-106948537D01*
X123925185Y-106869185D01*
X124004537Y-106772494D01*
X124063502Y-106662180D01*
X124099812Y-106542482D01*
X124112072Y-106418000D01*
X124112072Y-104818000D01*
X124099812Y-104693518D01*
X124063502Y-104573820D01*
X124004537Y-104463506D01*
X123925185Y-104366815D01*
X123828494Y-104287463D01*
X123718180Y-104228498D01*
X123598482Y-104192188D01*
X123474000Y-104179928D01*
X121874000Y-104179928D01*
X121749518Y-104192188D01*
X121629820Y-104228498D01*
X121519506Y-104287463D01*
X121422815Y-104366815D01*
X121343463Y-104463506D01*
X121284498Y-104573820D01*
X121248188Y-104693518D01*
X121235928Y-104818000D01*
X121235928Y-105223126D01*
X119528400Y-103515599D01*
X119528400Y-92379722D01*
X119532076Y-92342399D01*
X119528400Y-92305076D01*
X119528400Y-92305067D01*
X119517403Y-92193414D01*
X119473946Y-92050153D01*
X119403374Y-91918124D01*
X119308401Y-91802399D01*
X119279404Y-91778602D01*
X118033643Y-90532841D01*
X118108932Y-90441101D01*
X118242182Y-90191808D01*
X118324236Y-89921309D01*
X118351943Y-89640000D01*
X118324236Y-89358691D01*
X118242182Y-89088192D01*
X118108932Y-88838899D01*
X117929608Y-88620392D01*
X117711101Y-88441068D01*
X117578142Y-88370000D01*
X117711101Y-88298932D01*
X117929608Y-88119608D01*
X118108932Y-87901101D01*
X118242182Y-87651808D01*
X118324236Y-87381309D01*
X118351943Y-87100000D01*
X118324236Y-86818691D01*
X118242182Y-86548192D01*
X118108932Y-86298899D01*
X117929608Y-86080392D01*
X117711101Y-85901068D01*
X117573318Y-85827421D01*
X117765131Y-85712385D01*
X117973519Y-85523414D01*
X118141037Y-85297420D01*
X118261246Y-85043087D01*
X118301904Y-84909039D01*
X118179915Y-84687000D01*
X117037000Y-84687000D01*
X117037000Y-84707000D01*
X116783000Y-84707000D01*
X116783000Y-84687000D01*
X115640085Y-84687000D01*
X115518096Y-84909039D01*
X115558754Y-85043087D01*
X115678963Y-85297420D01*
X115846481Y-85523414D01*
X116054869Y-85712385D01*
X116246682Y-85827421D01*
X116108899Y-85901068D01*
X115890392Y-86080392D01*
X115711068Y-86298899D01*
X115577818Y-86548192D01*
X115495764Y-86818691D01*
X115468057Y-87100000D01*
X115495764Y-87381309D01*
X115577818Y-87651808D01*
X115711068Y-87901101D01*
X115890392Y-88119608D01*
X116108899Y-88298932D01*
X116241858Y-88370000D01*
X116108899Y-88441068D01*
X115991125Y-88537723D01*
X110623100Y-83169699D01*
X110679502Y-83064180D01*
X110715812Y-82944482D01*
X110728072Y-82820000D01*
X110728072Y-82020000D01*
X115468057Y-82020000D01*
X115495764Y-82301309D01*
X115577818Y-82571808D01*
X115711068Y-82821101D01*
X115890392Y-83039608D01*
X116108899Y-83218932D01*
X116246682Y-83292579D01*
X116054869Y-83407615D01*
X115846481Y-83596586D01*
X115678963Y-83822580D01*
X115558754Y-84076913D01*
X115518096Y-84210961D01*
X115640085Y-84433000D01*
X116783000Y-84433000D01*
X116783000Y-84413000D01*
X117037000Y-84413000D01*
X117037000Y-84433000D01*
X118179915Y-84433000D01*
X118301904Y-84210961D01*
X118261246Y-84076913D01*
X118141037Y-83822580D01*
X117973519Y-83596586D01*
X117765131Y-83407615D01*
X117573318Y-83292579D01*
X117711101Y-83218932D01*
X117929608Y-83039608D01*
X118108932Y-82821101D01*
X118242182Y-82571808D01*
X118324236Y-82301309D01*
X118351943Y-82020000D01*
X118324236Y-81738691D01*
X118242182Y-81468192D01*
X118108932Y-81218899D01*
X117929608Y-81000392D01*
X117711101Y-80821068D01*
X117461808Y-80687818D01*
X117191309Y-80605764D01*
X116980492Y-80585000D01*
X116839508Y-80585000D01*
X116628691Y-80605764D01*
X116358192Y-80687818D01*
X116108899Y-80821068D01*
X115890392Y-81000392D01*
X115711068Y-81218899D01*
X115577818Y-81468192D01*
X115495764Y-81738691D01*
X115468057Y-82020000D01*
X110728072Y-82020000D01*
X110728072Y-81220000D01*
X110715812Y-81095518D01*
X110679502Y-80975820D01*
X110620537Y-80865506D01*
X110541185Y-80768815D01*
X110444494Y-80689463D01*
X110334180Y-80630498D01*
X110214482Y-80594188D01*
X110090000Y-80581928D01*
X108490000Y-80581928D01*
X108365518Y-80594188D01*
X108245820Y-80630498D01*
X108135506Y-80689463D01*
X108038815Y-80768815D01*
X107959463Y-80865506D01*
X107900498Y-80975820D01*
X107864188Y-81095518D01*
X107851928Y-81220000D01*
X107851928Y-82820000D01*
X107864188Y-82944482D01*
X107900498Y-83064180D01*
X107959463Y-83174494D01*
X108038815Y-83271185D01*
X108135506Y-83350537D01*
X108245820Y-83409502D01*
X108365518Y-83445812D01*
X108383482Y-83447581D01*
X108270392Y-83540392D01*
X108091068Y-83758899D01*
X107957818Y-84008192D01*
X107875764Y-84278691D01*
X107848057Y-84560000D01*
X107875764Y-84841309D01*
X107957818Y-85111808D01*
X108091068Y-85361101D01*
X108270392Y-85579608D01*
X108488899Y-85758932D01*
X108621858Y-85830000D01*
X108488899Y-85901068D01*
X108270392Y-86080392D01*
X108091068Y-86298899D01*
X107957818Y-86548192D01*
X107875764Y-86818691D01*
X107848057Y-87100000D01*
X107875764Y-87381309D01*
X107957818Y-87651808D01*
X108091068Y-87901101D01*
X108270392Y-88119608D01*
X108488899Y-88298932D01*
X108621858Y-88370000D01*
X108488899Y-88441068D01*
X108270392Y-88620392D01*
X108091068Y-88838899D01*
X107957818Y-89088192D01*
X107875764Y-89358691D01*
X107848057Y-89640000D01*
X107875764Y-89921309D01*
X107957818Y-90191808D01*
X108091068Y-90441101D01*
X108270392Y-90659608D01*
X108488899Y-90838932D01*
X108536058Y-90864139D01*
X108540997Y-90914286D01*
X108551160Y-90947789D01*
X108488899Y-90981068D01*
X108270392Y-91160392D01*
X108091068Y-91378899D01*
X107957818Y-91628192D01*
X107875764Y-91898691D01*
X107848057Y-92180000D01*
X107875764Y-92461309D01*
X107957818Y-92731808D01*
X108091068Y-92981101D01*
X108270392Y-93199608D01*
X108488899Y-93378932D01*
X108536058Y-93404139D01*
X108540997Y-93454286D01*
X108551160Y-93487789D01*
X108488899Y-93521068D01*
X108270392Y-93700392D01*
X108091068Y-93918899D01*
X107957818Y-94168192D01*
X107875764Y-94438691D01*
X107848057Y-94720000D01*
X107875764Y-95001309D01*
X107957818Y-95271808D01*
X108091068Y-95521101D01*
X108270392Y-95739608D01*
X108488899Y-95918932D01*
X108536058Y-95944139D01*
X108540997Y-95994286D01*
X108551160Y-96027789D01*
X108488899Y-96061068D01*
X108270392Y-96240392D01*
X108091068Y-96458899D01*
X107957818Y-96708192D01*
X107875764Y-96978691D01*
X107848057Y-97260000D01*
X107875764Y-97541309D01*
X107957818Y-97811808D01*
X108091068Y-98061101D01*
X108270392Y-98279608D01*
X108488899Y-98458932D01*
X108536058Y-98484139D01*
X108540997Y-98534286D01*
X108553748Y-98576320D01*
X108434869Y-98647615D01*
X108226481Y-98836586D01*
X108058963Y-99062580D01*
X107938754Y-99316913D01*
X107898096Y-99450961D01*
X108020085Y-99673000D01*
X109163000Y-99673000D01*
X109163000Y-99653000D01*
X109417000Y-99653000D01*
X109417000Y-99673000D01*
X109437000Y-99673000D01*
X109437000Y-99927000D01*
X109417000Y-99927000D01*
X109417000Y-101070624D01*
X109639040Y-101191909D01*
X109692600Y-101172729D01*
X109692601Y-103706297D01*
X108832998Y-104565901D01*
X108804000Y-104589699D01*
X108780202Y-104618697D01*
X108780201Y-104618698D01*
X108709026Y-104705424D01*
X108638454Y-104837454D01*
X108616540Y-104909699D01*
X108596254Y-104976576D01*
X108594998Y-104980715D01*
X108590755Y-105023795D01*
X108514986Y-105064294D01*
X108288866Y-105249866D01*
X108103294Y-105475986D01*
X107965401Y-105733966D01*
X107880487Y-106013889D01*
X107851815Y-106305000D01*
X107880487Y-106596111D01*
X107965401Y-106876034D01*
X108103294Y-107134014D01*
X108288866Y-107360134D01*
X108514986Y-107545706D01*
X108569791Y-107575000D01*
X108514986Y-107604294D01*
X108288866Y-107789866D01*
X108103294Y-108015986D01*
X107965401Y-108273966D01*
X107880487Y-108553889D01*
X107851815Y-108845000D01*
X107880487Y-109136111D01*
X107965401Y-109416034D01*
X108103294Y-109674014D01*
X108288866Y-109900134D01*
X108514986Y-110085706D01*
X108772966Y-110223599D01*
X109052889Y-110308513D01*
X109271050Y-110330000D01*
X109416950Y-110330000D01*
X109635111Y-110308513D01*
X109915034Y-110223599D01*
X110173014Y-110085706D01*
X110399134Y-109900134D01*
X110584706Y-109674014D01*
X110614000Y-109619209D01*
X110643294Y-109674014D01*
X110828866Y-109900134D01*
X111054986Y-110085706D01*
X111312966Y-110223599D01*
X111592889Y-110308513D01*
X111811050Y-110330000D01*
X111956950Y-110330000D01*
X112175111Y-110308513D01*
X112394001Y-110242113D01*
X112394000Y-112868954D01*
X112387000Y-112874699D01*
X112363202Y-112903697D01*
X112363201Y-112903698D01*
X112292026Y-112990424D01*
X112221454Y-113122454D01*
X112200472Y-113191626D01*
X112177998Y-113265714D01*
X112173755Y-113308795D01*
X112097986Y-113349294D01*
X111871866Y-113534866D01*
X111847393Y-113564687D01*
X111826502Y-113495820D01*
X111767537Y-113385506D01*
X111688185Y-113288815D01*
X111591494Y-113209463D01*
X111481180Y-113150498D01*
X111361482Y-113114188D01*
X111237000Y-113101928D01*
X109537000Y-113101928D01*
X109412518Y-113114188D01*
X109292820Y-113150498D01*
X109182506Y-113209463D01*
X109085815Y-113288815D01*
X109006463Y-113385506D01*
X108947498Y-113495820D01*
X108911188Y-113615518D01*
X108898928Y-113740000D01*
X108898928Y-115440000D01*
X108911188Y-115564482D01*
X108947498Y-115684180D01*
X109006463Y-115794494D01*
X109085815Y-115891185D01*
X109182506Y-115970537D01*
X109292820Y-116029502D01*
X109412518Y-116065812D01*
X109537000Y-116078072D01*
X111237000Y-116078072D01*
X111361482Y-116065812D01*
X111481180Y-116029502D01*
X111591494Y-115970537D01*
X111688185Y-115891185D01*
X111767537Y-115794494D01*
X111826502Y-115684180D01*
X111847393Y-115615313D01*
X111871866Y-115645134D01*
X112097986Y-115830706D01*
X112355966Y-115968599D01*
X112635889Y-116053513D01*
X112854050Y-116075000D01*
X112999950Y-116075000D01*
X113218111Y-116053513D01*
X113498034Y-115968599D01*
X113756014Y-115830706D01*
X113982134Y-115645134D01*
X114167706Y-115419014D01*
X114197000Y-115364209D01*
X114226294Y-115419014D01*
X114411866Y-115645134D01*
X114637986Y-115830706D01*
X114707000Y-115867595D01*
X114707001Y-121388568D01*
X114703324Y-121425900D01*
X114707001Y-121463233D01*
X114713686Y-121531101D01*
X114717998Y-121574885D01*
X114761454Y-121718146D01*
X114832026Y-121850176D01*
X114858460Y-121882385D01*
X114927000Y-121965901D01*
X114955998Y-121989699D01*
X120886298Y-127920000D01*
X118256068Y-130550231D01*
X118127753Y-130589154D01*
X117995724Y-130659726D01*
X117879999Y-130754699D01*
X117785026Y-130870424D01*
X117714454Y-131002453D01*
X117670997Y-131145714D01*
X117666058Y-131195861D01*
X117618899Y-131221068D01*
X117400392Y-131400392D01*
X117221068Y-131618899D01*
X117087818Y-131868192D01*
X117005764Y-132138691D01*
X116978057Y-132420000D01*
X117005764Y-132701309D01*
X117087818Y-132971808D01*
X117221068Y-133221101D01*
X117400392Y-133439608D01*
X117618899Y-133618932D01*
X117868192Y-133752182D01*
X118138691Y-133834236D01*
X118349508Y-133855000D01*
X118490492Y-133855000D01*
X118701309Y-133834236D01*
X118971808Y-133752182D01*
X119221101Y-133618932D01*
X119439608Y-133439608D01*
X119618932Y-133221101D01*
X119752182Y-132971808D01*
X119834236Y-132701309D01*
X119861943Y-132420000D01*
X119834236Y-132138691D01*
X119752182Y-131868192D01*
X119618932Y-131618899D01*
X119491851Y-131464050D01*
X120686029Y-130269872D01*
X192265000Y-130269872D01*
X192265000Y-130710128D01*
X192350890Y-131141925D01*
X192519369Y-131548669D01*
X192763962Y-131914729D01*
X193075271Y-132226038D01*
X193441331Y-132470631D01*
X193848075Y-132639110D01*
X194279872Y-132725000D01*
X194720128Y-132725000D01*
X195151925Y-132639110D01*
X195558669Y-132470631D01*
X195924729Y-132226038D01*
X196236038Y-131914729D01*
X196480631Y-131548669D01*
X196649110Y-131141925D01*
X196735000Y-130710128D01*
X196735000Y-130269872D01*
X196649110Y-129838075D01*
X196480631Y-129431331D01*
X196236038Y-129065271D01*
X195924729Y-128753962D01*
X195558669Y-128509369D01*
X195151925Y-128340890D01*
X194720128Y-128255000D01*
X194279872Y-128255000D01*
X193848075Y-128340890D01*
X193441331Y-128509369D01*
X193075271Y-128753962D01*
X192763962Y-129065271D01*
X192519369Y-129431331D01*
X192350890Y-129838075D01*
X192265000Y-130269872D01*
X120686029Y-130269872D01*
X121516098Y-129439804D01*
X121646363Y-129634759D01*
X121846241Y-129834637D01*
X122081273Y-129991680D01*
X122342426Y-130099853D01*
X122619665Y-130155000D01*
X122902335Y-130155000D01*
X123179574Y-130099853D01*
X123440727Y-129991680D01*
X123675759Y-129834637D01*
X123760296Y-129750100D01*
X127003978Y-129750100D01*
X127041300Y-129753776D01*
X127078622Y-129750100D01*
X127078633Y-129750100D01*
X127190286Y-129739103D01*
X127333547Y-129695646D01*
X127465576Y-129625074D01*
X127581301Y-129530101D01*
X127605104Y-129501097D01*
X127746397Y-129359804D01*
X127775401Y-129336001D01*
X127870374Y-129220276D01*
X127940946Y-129088247D01*
X127945916Y-129071862D01*
X128043957Y-129137371D01*
X128296011Y-129241775D01*
X128563589Y-129295000D01*
X128836411Y-129295000D01*
X129103989Y-129241775D01*
X129356043Y-129137371D01*
X129582886Y-128985799D01*
X129775799Y-128792886D01*
X129927371Y-128566043D01*
X129970000Y-128463127D01*
X130012629Y-128566043D01*
X130164201Y-128792886D01*
X130357114Y-128985799D01*
X130583957Y-129137371D01*
X130836011Y-129241775D01*
X131103589Y-129295000D01*
X131376411Y-129295000D01*
X131643989Y-129241775D01*
X131896043Y-129137371D01*
X132122886Y-128985799D01*
X132315799Y-128792886D01*
X132467371Y-128566043D01*
X132571775Y-128313989D01*
X132625000Y-128046411D01*
X132625000Y-127773589D01*
X132580260Y-127548665D01*
X134205000Y-127548665D01*
X134205000Y-127831335D01*
X134260147Y-128108574D01*
X134368320Y-128369727D01*
X134525363Y-128604759D01*
X134725241Y-128804637D01*
X134960273Y-128961680D01*
X135221426Y-129069853D01*
X135498665Y-129125000D01*
X135781335Y-129125000D01*
X136058574Y-129069853D01*
X136319727Y-128961680D01*
X136554759Y-128804637D01*
X136754637Y-128604759D01*
X136911680Y-128369727D01*
X137019853Y-128108574D01*
X137075000Y-127831335D01*
X137075000Y-127548665D01*
X137019853Y-127271426D01*
X136911680Y-127010273D01*
X136754637Y-126775241D01*
X136554759Y-126575363D01*
X136319727Y-126418320D01*
X136058574Y-126310147D01*
X135781335Y-126255000D01*
X135498665Y-126255000D01*
X135221426Y-126310147D01*
X134960273Y-126418320D01*
X134725241Y-126575363D01*
X134525363Y-126775241D01*
X134368320Y-127010273D01*
X134260147Y-127271426D01*
X134205000Y-127548665D01*
X132580260Y-127548665D01*
X132571775Y-127506011D01*
X132467371Y-127253957D01*
X132399780Y-127152800D01*
X133484878Y-127152800D01*
X133522200Y-127156476D01*
X133559522Y-127152800D01*
X133559533Y-127152800D01*
X133671186Y-127141803D01*
X133814447Y-127098346D01*
X133946476Y-127027774D01*
X134062201Y-126932801D01*
X134086004Y-126903797D01*
X140031703Y-120958099D01*
X140060701Y-120934301D01*
X140087032Y-120902217D01*
X140155674Y-120818577D01*
X140226246Y-120686547D01*
X140247625Y-120616068D01*
X140269703Y-120543286D01*
X140280700Y-120431633D01*
X140280700Y-120431624D01*
X140284376Y-120394301D01*
X140280700Y-120356978D01*
X140280700Y-119942501D01*
X143891336Y-116331866D01*
X143955068Y-116451101D01*
X144134392Y-116669608D01*
X144352899Y-116848932D01*
X144485858Y-116920000D01*
X144352899Y-116991068D01*
X144134392Y-117170392D01*
X143955068Y-117388899D01*
X143821818Y-117638192D01*
X143739764Y-117908691D01*
X143712057Y-118190000D01*
X143739764Y-118471309D01*
X143821818Y-118741808D01*
X143955068Y-118991101D01*
X144134392Y-119209608D01*
X144352899Y-119388932D01*
X144485858Y-119460000D01*
X144352899Y-119531068D01*
X144134392Y-119710392D01*
X143955068Y-119928899D01*
X143821818Y-120178192D01*
X143739764Y-120448691D01*
X143712057Y-120730000D01*
X143739764Y-121011309D01*
X143821818Y-121281808D01*
X143955068Y-121531101D01*
X144134392Y-121749608D01*
X144352899Y-121928932D01*
X144602192Y-122062182D01*
X144872691Y-122144236D01*
X145083508Y-122165000D01*
X145224492Y-122165000D01*
X145435309Y-122144236D01*
X145519401Y-122118727D01*
X145519401Y-125348009D01*
X145171336Y-125696075D01*
X145135657Y-125725356D01*
X145018815Y-125867728D01*
X144964939Y-125968524D01*
X144931994Y-126030160D01*
X144878529Y-126206409D01*
X144860476Y-126389700D01*
X144865001Y-126435641D01*
X144865001Y-126600955D01*
X144780392Y-126670392D01*
X144601068Y-126888899D01*
X144467818Y-127138192D01*
X144385764Y-127408691D01*
X144358057Y-127690000D01*
X144385764Y-127971309D01*
X144467818Y-128241808D01*
X144601068Y-128491101D01*
X144780392Y-128709608D01*
X144998899Y-128888932D01*
X145248192Y-129022182D01*
X145518691Y-129104236D01*
X145729508Y-129125000D01*
X145870492Y-129125000D01*
X146081309Y-129104236D01*
X146351808Y-129022182D01*
X146601101Y-128888932D01*
X146819608Y-128709608D01*
X146998932Y-128491101D01*
X147132182Y-128241808D01*
X147214236Y-127971309D01*
X147241943Y-127690000D01*
X147214236Y-127408691D01*
X147164290Y-127244039D01*
X150088096Y-127244039D01*
X150128754Y-127378087D01*
X150248963Y-127632420D01*
X150416481Y-127858414D01*
X150624869Y-128047385D01*
X150866119Y-128192070D01*
X151130960Y-128286909D01*
X151353000Y-128165624D01*
X151353000Y-127022000D01*
X151607000Y-127022000D01*
X151607000Y-128165624D01*
X151829040Y-128286909D01*
X152093881Y-128192070D01*
X152335131Y-128047385D01*
X152543519Y-127858414D01*
X152711037Y-127632420D01*
X152831246Y-127378087D01*
X152871904Y-127244039D01*
X152749915Y-127022000D01*
X151607000Y-127022000D01*
X151353000Y-127022000D01*
X150210085Y-127022000D01*
X150088096Y-127244039D01*
X147164290Y-127244039D01*
X147132182Y-127138192D01*
X146998932Y-126888899D01*
X146829520Y-126682470D01*
X147083064Y-126428926D01*
X147118744Y-126399644D01*
X147235586Y-126257272D01*
X147322407Y-126094840D01*
X147360724Y-125968524D01*
X147375871Y-125918593D01*
X147393924Y-125735301D01*
X147389400Y-125689369D01*
X147389400Y-117883109D01*
X147454326Y-118004576D01*
X147494171Y-118053126D01*
X147549299Y-118120301D01*
X147578303Y-118144104D01*
X150356357Y-120922159D01*
X150281068Y-121013899D01*
X150147818Y-121263192D01*
X150065764Y-121533691D01*
X150038057Y-121815000D01*
X150065764Y-122096309D01*
X150147818Y-122366808D01*
X150281068Y-122616101D01*
X150460392Y-122834608D01*
X150678899Y-123013932D01*
X150741160Y-123047211D01*
X150730997Y-123080714D01*
X150726058Y-123130861D01*
X150678899Y-123156068D01*
X150460392Y-123335392D01*
X150281068Y-123553899D01*
X150147818Y-123803192D01*
X150065764Y-124073691D01*
X150038057Y-124355000D01*
X150065764Y-124636309D01*
X150147818Y-124906808D01*
X150281068Y-125156101D01*
X150460392Y-125374608D01*
X150678899Y-125553932D01*
X150816682Y-125627579D01*
X150624869Y-125742615D01*
X150416481Y-125931586D01*
X150248963Y-126157580D01*
X150128754Y-126411913D01*
X150088096Y-126545961D01*
X150210085Y-126768000D01*
X151353000Y-126768000D01*
X151353000Y-126748000D01*
X151607000Y-126748000D01*
X151607000Y-126768000D01*
X152749915Y-126768000D01*
X152871904Y-126545961D01*
X152831246Y-126411913D01*
X152711037Y-126157580D01*
X152543519Y-125931586D01*
X152335131Y-125742615D01*
X152143318Y-125627579D01*
X152281101Y-125553932D01*
X152499608Y-125374608D01*
X152678932Y-125156101D01*
X152812182Y-124906808D01*
X152894236Y-124636309D01*
X152921943Y-124355000D01*
X152894236Y-124073691D01*
X152812182Y-123803192D01*
X152678932Y-123553899D01*
X152603643Y-123462159D01*
X153119303Y-122946499D01*
X153148301Y-122922701D01*
X153174632Y-122890617D01*
X153243274Y-122806977D01*
X153313846Y-122674947D01*
X153338180Y-122594726D01*
X153357303Y-122531686D01*
X153368300Y-122420033D01*
X153368300Y-122420023D01*
X153371976Y-122382700D01*
X153368300Y-122345377D01*
X153368300Y-118814525D01*
X153371976Y-118777200D01*
X153368300Y-118739875D01*
X153368300Y-118739867D01*
X153357303Y-118628214D01*
X153313846Y-118484953D01*
X153243274Y-118352924D01*
X153148301Y-118237199D01*
X153119304Y-118213402D01*
X152572135Y-117666234D01*
X152678932Y-117536101D01*
X152812182Y-117286808D01*
X152894236Y-117016309D01*
X152921943Y-116735000D01*
X165278057Y-116735000D01*
X165305764Y-117016309D01*
X165387818Y-117286808D01*
X165521068Y-117536101D01*
X165700392Y-117754608D01*
X165918899Y-117933932D01*
X166051858Y-118005000D01*
X165918899Y-118076068D01*
X165700392Y-118255392D01*
X165521068Y-118473899D01*
X165387818Y-118723192D01*
X165305764Y-118993691D01*
X165278057Y-119275000D01*
X165305764Y-119556309D01*
X165387818Y-119826808D01*
X165521068Y-120076101D01*
X165700392Y-120294608D01*
X165918899Y-120473932D01*
X166051858Y-120545000D01*
X165918899Y-120616068D01*
X165700392Y-120795392D01*
X165521068Y-121013899D01*
X165387818Y-121263192D01*
X165305764Y-121533691D01*
X165278057Y-121815000D01*
X165305764Y-122096309D01*
X165387818Y-122366808D01*
X165521068Y-122616101D01*
X165700392Y-122834608D01*
X165918899Y-123013932D01*
X166051858Y-123085000D01*
X165918899Y-123156068D01*
X165700392Y-123335392D01*
X165521068Y-123553899D01*
X165387818Y-123803192D01*
X165305764Y-124073691D01*
X165278057Y-124355000D01*
X165305764Y-124636309D01*
X165387818Y-124906808D01*
X165521068Y-125156101D01*
X165700392Y-125374608D01*
X165918899Y-125553932D01*
X166051858Y-125625000D01*
X165918899Y-125696068D01*
X165700392Y-125875392D01*
X165521068Y-126093899D01*
X165387818Y-126343192D01*
X165305764Y-126613691D01*
X165278057Y-126895000D01*
X165305764Y-127176309D01*
X165387818Y-127446808D01*
X165521068Y-127696101D01*
X165700392Y-127914608D01*
X165918899Y-128093932D01*
X166168192Y-128227182D01*
X166438691Y-128309236D01*
X166649508Y-128330000D01*
X166790492Y-128330000D01*
X167001309Y-128309236D01*
X167271808Y-128227182D01*
X167521101Y-128093932D01*
X167739608Y-127914608D01*
X167918932Y-127696101D01*
X168052182Y-127446808D01*
X168113690Y-127244039D01*
X172948096Y-127244039D01*
X172988754Y-127378087D01*
X173108963Y-127632420D01*
X173276481Y-127858414D01*
X173484869Y-128047385D01*
X173726119Y-128192070D01*
X173990960Y-128286909D01*
X174213000Y-128165624D01*
X174213000Y-127022000D01*
X174467000Y-127022000D01*
X174467000Y-128165624D01*
X174689040Y-128286909D01*
X174953881Y-128192070D01*
X175195131Y-128047385D01*
X175403519Y-127858414D01*
X175571037Y-127632420D01*
X175691246Y-127378087D01*
X175731904Y-127244039D01*
X175609915Y-127022000D01*
X174467000Y-127022000D01*
X174213000Y-127022000D01*
X173070085Y-127022000D01*
X172948096Y-127244039D01*
X168113690Y-127244039D01*
X168134236Y-127176309D01*
X168161943Y-126895000D01*
X168134236Y-126613691D01*
X168052182Y-126343192D01*
X167918932Y-126093899D01*
X167739608Y-125875392D01*
X167521101Y-125696068D01*
X167388142Y-125625000D01*
X167521101Y-125553932D01*
X167739608Y-125374608D01*
X167918932Y-125156101D01*
X168052182Y-124906808D01*
X168134236Y-124636309D01*
X168161943Y-124355000D01*
X168134236Y-124073691D01*
X168052182Y-123803192D01*
X167918932Y-123553899D01*
X167739608Y-123335392D01*
X167521101Y-123156068D01*
X167388142Y-123085000D01*
X167521101Y-123013932D01*
X167739608Y-122834608D01*
X167918932Y-122616101D01*
X168052182Y-122366808D01*
X168134236Y-122096309D01*
X168161943Y-121815000D01*
X168134236Y-121533691D01*
X168052182Y-121263192D01*
X167918932Y-121013899D01*
X167739608Y-120795392D01*
X167521101Y-120616068D01*
X167388142Y-120545000D01*
X167521101Y-120473932D01*
X167739608Y-120294608D01*
X167918932Y-120076101D01*
X168052182Y-119826808D01*
X168134236Y-119556309D01*
X168161943Y-119275000D01*
X168134236Y-118993691D01*
X168052182Y-118723192D01*
X167918932Y-118473899D01*
X167739608Y-118255392D01*
X167521101Y-118076068D01*
X167388142Y-118005000D01*
X167521101Y-117933932D01*
X167739608Y-117754608D01*
X167918932Y-117536101D01*
X168052182Y-117286808D01*
X168134236Y-117016309D01*
X168161943Y-116735000D01*
X168134236Y-116453691D01*
X168052182Y-116183192D01*
X167918932Y-115933899D01*
X167739608Y-115715392D01*
X167521101Y-115536068D01*
X167383318Y-115462421D01*
X167575131Y-115347385D01*
X167783519Y-115158414D01*
X167951037Y-114932420D01*
X168071246Y-114678087D01*
X168111904Y-114544039D01*
X167989915Y-114322000D01*
X166847000Y-114322000D01*
X166847000Y-114342000D01*
X166593000Y-114342000D01*
X166593000Y-114322000D01*
X165450085Y-114322000D01*
X165328096Y-114544039D01*
X165368754Y-114678087D01*
X165488963Y-114932420D01*
X165656481Y-115158414D01*
X165864869Y-115347385D01*
X166056682Y-115462421D01*
X165918899Y-115536068D01*
X165700392Y-115715392D01*
X165521068Y-115933899D01*
X165387818Y-116183192D01*
X165305764Y-116453691D01*
X165278057Y-116735000D01*
X152921943Y-116735000D01*
X152894236Y-116453691D01*
X152812182Y-116183192D01*
X152678932Y-115933899D01*
X152499608Y-115715392D01*
X152281101Y-115536068D01*
X152233942Y-115510861D01*
X152229003Y-115460714D01*
X152218840Y-115427211D01*
X152281101Y-115393932D01*
X152499608Y-115214608D01*
X152678932Y-114996101D01*
X152812182Y-114746808D01*
X152894236Y-114476309D01*
X152921943Y-114195000D01*
X152894236Y-113913691D01*
X152812182Y-113643192D01*
X152678932Y-113393899D01*
X152499608Y-113175392D01*
X152281101Y-112996068D01*
X152233942Y-112970861D01*
X152229003Y-112920714D01*
X152218840Y-112887211D01*
X152281101Y-112853932D01*
X152499608Y-112674608D01*
X152678932Y-112456101D01*
X152812182Y-112206808D01*
X152894236Y-111936309D01*
X152921943Y-111655000D01*
X152894236Y-111373691D01*
X152812182Y-111103192D01*
X152718735Y-110928366D01*
X158020000Y-105627101D01*
X165642860Y-113249962D01*
X165488963Y-113457580D01*
X165368754Y-113711913D01*
X165328096Y-113845961D01*
X165450085Y-114068000D01*
X166593000Y-114068000D01*
X166593000Y-114048000D01*
X166847000Y-114048000D01*
X166847000Y-114068000D01*
X167989915Y-114068000D01*
X168111904Y-113845961D01*
X168071246Y-113711913D01*
X167990134Y-113540300D01*
X172052078Y-113540300D01*
X172089400Y-113543976D01*
X172126722Y-113540300D01*
X172126733Y-113540300D01*
X172238386Y-113529303D01*
X172381647Y-113485846D01*
X172513676Y-113415274D01*
X172629401Y-113320301D01*
X172653204Y-113291298D01*
X173297630Y-112646872D01*
X173320392Y-112674608D01*
X173538899Y-112853932D01*
X173671858Y-112925000D01*
X173538899Y-112996068D01*
X173320392Y-113175392D01*
X173141068Y-113393899D01*
X173007818Y-113643192D01*
X172925764Y-113913691D01*
X172898057Y-114195000D01*
X172925764Y-114476309D01*
X173007818Y-114746808D01*
X173141068Y-114996101D01*
X173320392Y-115214608D01*
X173538899Y-115393932D01*
X173671858Y-115465000D01*
X173538899Y-115536068D01*
X173320392Y-115715392D01*
X173141068Y-115933899D01*
X173007818Y-116183192D01*
X172925764Y-116453691D01*
X172898057Y-116735000D01*
X172925764Y-117016309D01*
X173007818Y-117286808D01*
X173141068Y-117536101D01*
X173320392Y-117754608D01*
X173538899Y-117933932D01*
X173671858Y-118005000D01*
X173538899Y-118076068D01*
X173320392Y-118255392D01*
X173141068Y-118473899D01*
X173007818Y-118723192D01*
X172925764Y-118993691D01*
X172898057Y-119275000D01*
X172925764Y-119556309D01*
X173007818Y-119826808D01*
X173141068Y-120076101D01*
X173320392Y-120294608D01*
X173538899Y-120473932D01*
X173671858Y-120545000D01*
X173538899Y-120616068D01*
X173320392Y-120795392D01*
X173141068Y-121013899D01*
X173007818Y-121263192D01*
X172925764Y-121533691D01*
X172898057Y-121815000D01*
X172925764Y-122096309D01*
X173007818Y-122366808D01*
X173141068Y-122616101D01*
X173320392Y-122834608D01*
X173538899Y-123013932D01*
X173671858Y-123085000D01*
X173538899Y-123156068D01*
X173320392Y-123335392D01*
X173141068Y-123553899D01*
X173007818Y-123803192D01*
X172925764Y-124073691D01*
X172898057Y-124355000D01*
X172925764Y-124636309D01*
X173007818Y-124906808D01*
X173141068Y-125156101D01*
X173320392Y-125374608D01*
X173538899Y-125553932D01*
X173676682Y-125627579D01*
X173484869Y-125742615D01*
X173276481Y-125931586D01*
X173108963Y-126157580D01*
X172988754Y-126411913D01*
X172948096Y-126545961D01*
X173070085Y-126768000D01*
X174213000Y-126768000D01*
X174213000Y-126748000D01*
X174467000Y-126748000D01*
X174467000Y-126768000D01*
X175609915Y-126768000D01*
X175731904Y-126545961D01*
X175691246Y-126411913D01*
X175571037Y-126157580D01*
X175403519Y-125931586D01*
X175195131Y-125742615D01*
X175003318Y-125627579D01*
X175141101Y-125553932D01*
X175359608Y-125374608D01*
X175538932Y-125156101D01*
X175672182Y-124906808D01*
X175754236Y-124636309D01*
X175781943Y-124355000D01*
X175754236Y-124073691D01*
X175672182Y-123803192D01*
X175538932Y-123553899D01*
X175359608Y-123335392D01*
X175141101Y-123156068D01*
X175008142Y-123085000D01*
X175141101Y-123013932D01*
X175359608Y-122834608D01*
X175538932Y-122616101D01*
X175672182Y-122366808D01*
X175754236Y-122096309D01*
X175781943Y-121815000D01*
X175754236Y-121533691D01*
X175672182Y-121263192D01*
X175538932Y-121013899D01*
X175359608Y-120795392D01*
X175141101Y-120616068D01*
X175008142Y-120545000D01*
X175141101Y-120473932D01*
X175359608Y-120294608D01*
X175538932Y-120076101D01*
X175672182Y-119826808D01*
X175754236Y-119556309D01*
X175781943Y-119275000D01*
X175754236Y-118993691D01*
X175672182Y-118723192D01*
X175538932Y-118473899D01*
X175359608Y-118255392D01*
X175141101Y-118076068D01*
X175008142Y-118005000D01*
X175141101Y-117933932D01*
X175359608Y-117754608D01*
X175538932Y-117536101D01*
X175672182Y-117286808D01*
X175754236Y-117016309D01*
X175781943Y-116735000D01*
X175754236Y-116453691D01*
X175672182Y-116183192D01*
X175538932Y-115933899D01*
X175359608Y-115715392D01*
X175141101Y-115536068D01*
X175008142Y-115465000D01*
X175141101Y-115393932D01*
X175359608Y-115214608D01*
X175538932Y-114996101D01*
X175672182Y-114746808D01*
X175754236Y-114476309D01*
X175781943Y-114195000D01*
X175754236Y-113913691D01*
X175672182Y-113643192D01*
X175538932Y-113393899D01*
X175359608Y-113175392D01*
X175141101Y-112996068D01*
X175008142Y-112925000D01*
X175141101Y-112853932D01*
X175359608Y-112674608D01*
X175538932Y-112456101D01*
X175672182Y-112206808D01*
X175754236Y-111936309D01*
X175781943Y-111655000D01*
X175754236Y-111373691D01*
X175728758Y-111289700D01*
X187014599Y-111289700D01*
X187890901Y-112166003D01*
X187914699Y-112195001D01*
X187943697Y-112218799D01*
X188030424Y-112289974D01*
X188162453Y-112360546D01*
X188305714Y-112404003D01*
X188355861Y-112408942D01*
X188381068Y-112456101D01*
X188560392Y-112674608D01*
X188778899Y-112853932D01*
X188841160Y-112887211D01*
X188830997Y-112920714D01*
X188826058Y-112970861D01*
X188778899Y-112996068D01*
X188560392Y-113175392D01*
X188381068Y-113393899D01*
X188247818Y-113643192D01*
X188165764Y-113913691D01*
X188138057Y-114195000D01*
X188165764Y-114476309D01*
X188247818Y-114746808D01*
X188381068Y-114996101D01*
X188560392Y-115214608D01*
X188778899Y-115393932D01*
X188911858Y-115465000D01*
X188778899Y-115536068D01*
X188560392Y-115715392D01*
X188381068Y-115933899D01*
X188247818Y-116183192D01*
X188165764Y-116453691D01*
X188138057Y-116735000D01*
X188165764Y-117016309D01*
X188247818Y-117286808D01*
X188381068Y-117536101D01*
X188560392Y-117754608D01*
X188778899Y-117933932D01*
X188841160Y-117967211D01*
X188830997Y-118000714D01*
X188826058Y-118050861D01*
X188778899Y-118076068D01*
X188560392Y-118255392D01*
X188381068Y-118473899D01*
X188247818Y-118723192D01*
X188165764Y-118993691D01*
X188138057Y-119275000D01*
X188165764Y-119556309D01*
X188247818Y-119826808D01*
X188381068Y-120076101D01*
X188560392Y-120294608D01*
X188778899Y-120473932D01*
X188841160Y-120507211D01*
X188830997Y-120540714D01*
X188826058Y-120590861D01*
X188778899Y-120616068D01*
X188560392Y-120795392D01*
X188381068Y-121013899D01*
X188247818Y-121263192D01*
X188165764Y-121533691D01*
X188138057Y-121815000D01*
X188165764Y-122096309D01*
X188247818Y-122366808D01*
X188381068Y-122616101D01*
X188560392Y-122834608D01*
X188778899Y-123013932D01*
X188911858Y-123085000D01*
X188778899Y-123156068D01*
X188560392Y-123335392D01*
X188381068Y-123553899D01*
X188247818Y-123803192D01*
X188165764Y-124073691D01*
X188138057Y-124355000D01*
X188165764Y-124636309D01*
X188247818Y-124906808D01*
X188381068Y-125156101D01*
X188560392Y-125374608D01*
X188778899Y-125553932D01*
X188841160Y-125587211D01*
X188830997Y-125620714D01*
X188826058Y-125670861D01*
X188778899Y-125696068D01*
X188560392Y-125875392D01*
X188381068Y-126093899D01*
X188247818Y-126343192D01*
X188165764Y-126613691D01*
X188138057Y-126895000D01*
X188165764Y-127176309D01*
X188247818Y-127446808D01*
X188381068Y-127696101D01*
X188560392Y-127914608D01*
X188778899Y-128093932D01*
X189028192Y-128227182D01*
X189298691Y-128309236D01*
X189509508Y-128330000D01*
X189650492Y-128330000D01*
X189861309Y-128309236D01*
X190131808Y-128227182D01*
X190381101Y-128093932D01*
X190599608Y-127914608D01*
X190778932Y-127696101D01*
X190912182Y-127446808D01*
X190994236Y-127176309D01*
X191021943Y-126895000D01*
X190994236Y-126613691D01*
X190912182Y-126343192D01*
X190778932Y-126093899D01*
X190703643Y-126002158D01*
X199290001Y-117415801D01*
X199290001Y-134290000D01*
X100710000Y-134290000D01*
X100710000Y-130269872D01*
X103275000Y-130269872D01*
X103275000Y-130710128D01*
X103360890Y-131141925D01*
X103529369Y-131548669D01*
X103773962Y-131914729D01*
X104085271Y-132226038D01*
X104451331Y-132470631D01*
X104858075Y-132639110D01*
X105289872Y-132725000D01*
X105730128Y-132725000D01*
X106161925Y-132639110D01*
X106568669Y-132470631D01*
X106934729Y-132226038D01*
X107246038Y-131914729D01*
X107490631Y-131548669D01*
X107659110Y-131141925D01*
X107745000Y-130710128D01*
X107745000Y-130269872D01*
X107659110Y-129838075D01*
X107490631Y-129431331D01*
X107246038Y-129065271D01*
X106934729Y-128753962D01*
X106568669Y-128509369D01*
X106161925Y-128340890D01*
X105730128Y-128255000D01*
X105289872Y-128255000D01*
X104858075Y-128340890D01*
X104451331Y-128509369D01*
X104085271Y-128753962D01*
X103773962Y-129065271D01*
X103529369Y-129431331D01*
X103360890Y-129838075D01*
X103275000Y-130269872D01*
X100710000Y-130269872D01*
X100710000Y-100149039D01*
X107898096Y-100149039D01*
X107938754Y-100283087D01*
X108058963Y-100537420D01*
X108226481Y-100763414D01*
X108434869Y-100952385D01*
X108676119Y-101097070D01*
X108940960Y-101191909D01*
X109163000Y-101070624D01*
X109163000Y-99927000D01*
X108020085Y-99927000D01*
X107898096Y-100149039D01*
X100710000Y-100149039D01*
X100710000Y-90400000D01*
X103627815Y-90400000D01*
X103656487Y-90691111D01*
X103741401Y-90971034D01*
X103879294Y-91229014D01*
X104064866Y-91455134D01*
X104290986Y-91640706D01*
X104345791Y-91670000D01*
X104290986Y-91699294D01*
X104064866Y-91884866D01*
X103879294Y-92110986D01*
X103741401Y-92368966D01*
X103656487Y-92648889D01*
X103627815Y-92940000D01*
X103656487Y-93231111D01*
X103741401Y-93511034D01*
X103879294Y-93769014D01*
X104064866Y-93995134D01*
X104290986Y-94180706D01*
X104548966Y-94318599D01*
X104828889Y-94403513D01*
X105047050Y-94425000D01*
X105192950Y-94425000D01*
X105411111Y-94403513D01*
X105691034Y-94318599D01*
X105949014Y-94180706D01*
X106175134Y-93995134D01*
X106360706Y-93769014D01*
X106498599Y-93511034D01*
X106583513Y-93231111D01*
X106612185Y-92940000D01*
X106583513Y-92648889D01*
X106498599Y-92368966D01*
X106360706Y-92110986D01*
X106175134Y-91884866D01*
X105949014Y-91699294D01*
X105894209Y-91670000D01*
X105949014Y-91640706D01*
X106175134Y-91455134D01*
X106360706Y-91229014D01*
X106498599Y-90971034D01*
X106583513Y-90691111D01*
X106612185Y-90400000D01*
X106583513Y-90108889D01*
X106498599Y-89828966D01*
X106360706Y-89570986D01*
X106175134Y-89344866D01*
X106145313Y-89320393D01*
X106214180Y-89299502D01*
X106324494Y-89240537D01*
X106421185Y-89161185D01*
X106500537Y-89064494D01*
X106559502Y-88954180D01*
X106595812Y-88834482D01*
X106608072Y-88710000D01*
X106605000Y-88145750D01*
X106446250Y-87987000D01*
X105247000Y-87987000D01*
X105247000Y-88007000D01*
X104993000Y-88007000D01*
X104993000Y-87987000D01*
X103793750Y-87987000D01*
X103635000Y-88145750D01*
X103631928Y-88710000D01*
X103644188Y-88834482D01*
X103680498Y-88954180D01*
X103739463Y-89064494D01*
X103818815Y-89161185D01*
X103915506Y-89240537D01*
X104025820Y-89299502D01*
X104094687Y-89320393D01*
X104064866Y-89344866D01*
X103879294Y-89570986D01*
X103741401Y-89828966D01*
X103656487Y-90108889D01*
X103627815Y-90400000D01*
X100710000Y-90400000D01*
X100710000Y-87010000D01*
X103631928Y-87010000D01*
X103635000Y-87574250D01*
X103793750Y-87733000D01*
X104993000Y-87733000D01*
X104993000Y-86533750D01*
X105247000Y-86533750D01*
X105247000Y-87733000D01*
X106446250Y-87733000D01*
X106605000Y-87574250D01*
X106608072Y-87010000D01*
X106595812Y-86885518D01*
X106559502Y-86765820D01*
X106500537Y-86655506D01*
X106421185Y-86558815D01*
X106324494Y-86479463D01*
X106214180Y-86420498D01*
X106094482Y-86384188D01*
X105970000Y-86371928D01*
X105405750Y-86375000D01*
X105247000Y-86533750D01*
X104993000Y-86533750D01*
X104834250Y-86375000D01*
X104270000Y-86371928D01*
X104145518Y-86384188D01*
X104025820Y-86420498D01*
X103915506Y-86479463D01*
X103818815Y-86558815D01*
X103739463Y-86655506D01*
X103680498Y-86765820D01*
X103644188Y-86885518D01*
X103631928Y-87010000D01*
X100710000Y-87010000D01*
X100710000Y-79602702D01*
X114136903Y-79602702D01*
X114208486Y-79846671D01*
X114463996Y-79967571D01*
X114738184Y-80036300D01*
X115020512Y-80050217D01*
X115300130Y-80008787D01*
X115566292Y-79913603D01*
X115691514Y-79846671D01*
X115763097Y-79602702D01*
X114950000Y-78789605D01*
X114136903Y-79602702D01*
X100710000Y-79602702D01*
X100710000Y-78680512D01*
X113509783Y-78680512D01*
X113551213Y-78960130D01*
X113646397Y-79226292D01*
X113713329Y-79351514D01*
X113957298Y-79423097D01*
X114770395Y-78610000D01*
X113957298Y-77796903D01*
X113713329Y-77868486D01*
X113592429Y-78123996D01*
X113523700Y-78398184D01*
X113509783Y-78680512D01*
X100710000Y-78680512D01*
X100710000Y-77617298D01*
X114136903Y-77617298D01*
X114950000Y-78430395D01*
X115763097Y-77617298D01*
X115691514Y-77373329D01*
X115436004Y-77252429D01*
X115161816Y-77183700D01*
X114879488Y-77169783D01*
X114599870Y-77211213D01*
X114333708Y-77306397D01*
X114208486Y-77373329D01*
X114136903Y-77617298D01*
X100710000Y-77617298D01*
X100710000Y-64279872D01*
X103265000Y-64279872D01*
X103265000Y-64720128D01*
X103350890Y-65151925D01*
X103519369Y-65558669D01*
X103763962Y-65924729D01*
X104075271Y-66236038D01*
X104441331Y-66480631D01*
X104848075Y-66649110D01*
X105279872Y-66735000D01*
X105720128Y-66735000D01*
X106151925Y-66649110D01*
X106558669Y-66480631D01*
X106924729Y-66236038D01*
X107236038Y-65924729D01*
X107386196Y-65700000D01*
X111561928Y-65700000D01*
X111561928Y-67300000D01*
X111574188Y-67424482D01*
X111610498Y-67544180D01*
X111669463Y-67654494D01*
X111748815Y-67751185D01*
X111845506Y-67830537D01*
X111955820Y-67889502D01*
X112075518Y-67925812D01*
X112200000Y-67938072D01*
X113800000Y-67938072D01*
X113924482Y-67925812D01*
X114044180Y-67889502D01*
X114154494Y-67830537D01*
X114251185Y-67751185D01*
X114330537Y-67654494D01*
X114389502Y-67544180D01*
X114405117Y-67492702D01*
X114686903Y-67492702D01*
X114758486Y-67736671D01*
X115013996Y-67857571D01*
X115288184Y-67926300D01*
X115570512Y-67940217D01*
X115850130Y-67898787D01*
X116116292Y-67803603D01*
X116241514Y-67736671D01*
X116313097Y-67492702D01*
X115500000Y-66679605D01*
X114686903Y-67492702D01*
X114405117Y-67492702D01*
X114425812Y-67424482D01*
X114438072Y-67300000D01*
X114438072Y-67292785D01*
X114507298Y-67313097D01*
X115320395Y-66500000D01*
X115679605Y-66500000D01*
X116492702Y-67313097D01*
X116736671Y-67241514D01*
X116857571Y-66986004D01*
X116926300Y-66711816D01*
X116931763Y-66600973D01*
X123545037Y-66600973D01*
X123665536Y-66833000D01*
X124873000Y-66833000D01*
X124873000Y-65626183D01*
X125127000Y-65626183D01*
X125127000Y-66833000D01*
X127413000Y-66833000D01*
X127413000Y-65626183D01*
X127180974Y-65505042D01*
X127030186Y-65550778D01*
X126765056Y-65677316D01*
X126529707Y-65853146D01*
X126333183Y-66071512D01*
X126270000Y-66177770D01*
X126206817Y-66071512D01*
X126010293Y-65853146D01*
X125774944Y-65677316D01*
X125509814Y-65550778D01*
X125359026Y-65505042D01*
X125127000Y-65626183D01*
X124873000Y-65626183D01*
X124640974Y-65505042D01*
X124490186Y-65550778D01*
X124225056Y-65677316D01*
X123989707Y-65853146D01*
X123793183Y-66071512D01*
X123643036Y-66324022D01*
X123545037Y-66600973D01*
X116931763Y-66600973D01*
X116940217Y-66429488D01*
X116898787Y-66149870D01*
X116803603Y-65883708D01*
X116736671Y-65758486D01*
X116492702Y-65686903D01*
X115679605Y-66500000D01*
X115320395Y-66500000D01*
X114507298Y-65686903D01*
X114438072Y-65707215D01*
X114438072Y-65700000D01*
X114425812Y-65575518D01*
X114405118Y-65507298D01*
X114686903Y-65507298D01*
X115500000Y-66320395D01*
X116313097Y-65507298D01*
X116241514Y-65263329D01*
X115986004Y-65142429D01*
X115711816Y-65073700D01*
X115429488Y-65059783D01*
X115149870Y-65101213D01*
X114883708Y-65196397D01*
X114758486Y-65263329D01*
X114686903Y-65507298D01*
X114405118Y-65507298D01*
X114389502Y-65455820D01*
X114330537Y-65345506D01*
X114251185Y-65248815D01*
X114154494Y-65169463D01*
X114044180Y-65110498D01*
X113924482Y-65074188D01*
X113800000Y-65061928D01*
X112200000Y-65061928D01*
X112075518Y-65074188D01*
X111955820Y-65110498D01*
X111845506Y-65169463D01*
X111748815Y-65248815D01*
X111669463Y-65345506D01*
X111610498Y-65455820D01*
X111574188Y-65575518D01*
X111561928Y-65700000D01*
X107386196Y-65700000D01*
X107480631Y-65558669D01*
X107649110Y-65151925D01*
X107735000Y-64720128D01*
X107735000Y-64279872D01*
X107649110Y-63848075D01*
X107480631Y-63441331D01*
X107236038Y-63075271D01*
X106924729Y-62763962D01*
X106558669Y-62519369D01*
X106151925Y-62350890D01*
X105720128Y-62265000D01*
X105279872Y-62265000D01*
X104848075Y-62350890D01*
X104441331Y-62519369D01*
X104075271Y-62763962D01*
X103763962Y-63075271D01*
X103519369Y-63441331D01*
X103350890Y-63848075D01*
X103265000Y-64279872D01*
X100710000Y-64279872D01*
X100710000Y-60710000D01*
X199290000Y-60710000D01*
X199290000Y-72367198D01*
G36*
X115723294Y-109674014D02*
G01*
X115908866Y-109900134D01*
X116134986Y-110085706D01*
X116210755Y-110126205D01*
X116214998Y-110169286D01*
X116222405Y-110193703D01*
X116258454Y-110312546D01*
X116329026Y-110444576D01*
X116399605Y-110530576D01*
X116424000Y-110560301D01*
X116452998Y-110584099D01*
X121032505Y-115163608D01*
X121056299Y-115192601D01*
X121085292Y-115216395D01*
X121085296Y-115216399D01*
X121155121Y-115273702D01*
X121172024Y-115287574D01*
X121302106Y-115357105D01*
X121259764Y-115496691D01*
X121232057Y-115778000D01*
X121259764Y-116059309D01*
X121341818Y-116329808D01*
X121475068Y-116579101D01*
X121654392Y-116797608D01*
X121872899Y-116976932D01*
X122005858Y-117048000D01*
X121872899Y-117119068D01*
X121654392Y-117298392D01*
X121475068Y-117516899D01*
X121341818Y-117766192D01*
X121259764Y-118036691D01*
X121232057Y-118318000D01*
X121259764Y-118599309D01*
X121341818Y-118869808D01*
X121475068Y-119119101D01*
X121654392Y-119337608D01*
X121872899Y-119516932D01*
X122010682Y-119590579D01*
X121818869Y-119705615D01*
X121610481Y-119894586D01*
X121442963Y-120120580D01*
X121322754Y-120374913D01*
X121282096Y-120508961D01*
X121404085Y-120731000D01*
X122547000Y-120731000D01*
X122547000Y-120711000D01*
X122801000Y-120711000D01*
X122801000Y-120731000D01*
X123943915Y-120731000D01*
X124065904Y-120508961D01*
X124025246Y-120374913D01*
X123905037Y-120120580D01*
X123737519Y-119894586D01*
X123529131Y-119705615D01*
X123337318Y-119590579D01*
X123475101Y-119516932D01*
X123693608Y-119337608D01*
X123872932Y-119119101D01*
X124006182Y-118869808D01*
X124088236Y-118599309D01*
X124115943Y-118318000D01*
X124088236Y-118036691D01*
X124006182Y-117766192D01*
X123872932Y-117516899D01*
X123693608Y-117298392D01*
X123475101Y-117119068D01*
X123342142Y-117048000D01*
X123475101Y-116976932D01*
X123693608Y-116797608D01*
X123716371Y-116769872D01*
X128315501Y-121369003D01*
X128339299Y-121398001D01*
X128368297Y-121421799D01*
X128455023Y-121492974D01*
X128531199Y-121533691D01*
X128587053Y-121563546D01*
X128730314Y-121607003D01*
X128841967Y-121618000D01*
X128841977Y-121618000D01*
X128879300Y-121621676D01*
X128916623Y-121618000D01*
X129073099Y-121618000D01*
X129095068Y-121659101D01*
X129274392Y-121877608D01*
X129492899Y-122056932D01*
X129742192Y-122190182D01*
X130012691Y-122272236D01*
X130223508Y-122293000D01*
X130364492Y-122293000D01*
X130575309Y-122272236D01*
X130845808Y-122190182D01*
X131095101Y-122056932D01*
X131313608Y-121877608D01*
X131492932Y-121659101D01*
X131626182Y-121409808D01*
X131708236Y-121139309D01*
X131735943Y-120858000D01*
X131708236Y-120576691D01*
X131626182Y-120306192D01*
X131492932Y-120056899D01*
X131313608Y-119838392D01*
X131095101Y-119659068D01*
X130962142Y-119588000D01*
X131095101Y-119516932D01*
X131313608Y-119337608D01*
X131492932Y-119119101D01*
X131626182Y-118869808D01*
X131708236Y-118599309D01*
X131735943Y-118318000D01*
X131708236Y-118036691D01*
X131626182Y-117766192D01*
X131573911Y-117668400D01*
X136192655Y-117668400D01*
X136119764Y-117908691D01*
X136092057Y-118190000D01*
X136119764Y-118471309D01*
X136201818Y-118741808D01*
X136335068Y-118991101D01*
X136514392Y-119209608D01*
X136732899Y-119388932D01*
X136870682Y-119462579D01*
X136678869Y-119577615D01*
X136470481Y-119766586D01*
X136302963Y-119992580D01*
X136182754Y-120246913D01*
X136142096Y-120380961D01*
X136264085Y-120603000D01*
X137407000Y-120603000D01*
X137407000Y-120583000D01*
X137661000Y-120583000D01*
X137661000Y-120603000D01*
X137681000Y-120603000D01*
X137681000Y-120857000D01*
X137661000Y-120857000D01*
X137661000Y-120877000D01*
X137407000Y-120877000D01*
X137407000Y-120857000D01*
X136264085Y-120857000D01*
X136142096Y-121079039D01*
X136182754Y-121213087D01*
X136302963Y-121467420D01*
X136470481Y-121693414D01*
X136678869Y-121882385D01*
X136853239Y-121986960D01*
X133207399Y-125632800D01*
X128700223Y-125632800D01*
X128662900Y-125629124D01*
X128625577Y-125632800D01*
X128625567Y-125632800D01*
X128513914Y-125643797D01*
X128370653Y-125687254D01*
X128238624Y-125757826D01*
X128122899Y-125852799D01*
X128099101Y-125881797D01*
X127312246Y-126668652D01*
X127264494Y-126629463D01*
X127154180Y-126570498D01*
X127034482Y-126534188D01*
X126910000Y-126521928D01*
X126445750Y-126525000D01*
X126287000Y-126683750D01*
X126287000Y-127783000D01*
X126307000Y-127783000D01*
X126307000Y-128037000D01*
X126287000Y-128037000D01*
X126287000Y-128057000D01*
X126033000Y-128057000D01*
X126033000Y-128037000D01*
X124933750Y-128037000D01*
X124775000Y-128195750D01*
X124774773Y-128230100D01*
X124111309Y-128230100D01*
X124032680Y-128040273D01*
X123875637Y-127805241D01*
X123675759Y-127605363D01*
X123473173Y-127470000D01*
X123675759Y-127334637D01*
X123850396Y-127160000D01*
X124771928Y-127160000D01*
X124775000Y-127624250D01*
X124933750Y-127783000D01*
X126033000Y-127783000D01*
X126033000Y-126683750D01*
X125874250Y-126525000D01*
X125410000Y-126521928D01*
X125285518Y-126534188D01*
X125165820Y-126570498D01*
X125055506Y-126629463D01*
X124958815Y-126708815D01*
X124879463Y-126805506D01*
X124820498Y-126915820D01*
X124784188Y-127035518D01*
X124771928Y-127160000D01*
X123850396Y-127160000D01*
X123875637Y-127134759D01*
X124032680Y-126899727D01*
X124140853Y-126638574D01*
X124196000Y-126361335D01*
X124196000Y-126078665D01*
X124140853Y-125801426D01*
X124032680Y-125540273D01*
X123875637Y-125305241D01*
X123675759Y-125105363D01*
X123440727Y-124948320D01*
X123179574Y-124840147D01*
X122902335Y-124785000D01*
X122619665Y-124785000D01*
X122437114Y-124821312D01*
X119855000Y-122239199D01*
X119855000Y-122118665D01*
X119799853Y-121841426D01*
X119691680Y-121580273D01*
X119534637Y-121345241D01*
X119396435Y-121207039D01*
X121282096Y-121207039D01*
X121322754Y-121341087D01*
X121442963Y-121595420D01*
X121610481Y-121821414D01*
X121818869Y-122010385D01*
X122060119Y-122155070D01*
X122324960Y-122249909D01*
X122547000Y-122128624D01*
X122547000Y-120985000D01*
X122801000Y-120985000D01*
X122801000Y-122128624D01*
X123023040Y-122249909D01*
X123287881Y-122155070D01*
X123529131Y-122010385D01*
X123737519Y-121821414D01*
X123905037Y-121595420D01*
X124025246Y-121341087D01*
X124065904Y-121207039D01*
X123943915Y-120985000D01*
X122801000Y-120985000D01*
X122547000Y-120985000D01*
X121404085Y-120985000D01*
X121282096Y-121207039D01*
X119396435Y-121207039D01*
X119334759Y-121145363D01*
X119099727Y-120988320D01*
X118838574Y-120880147D01*
X118561335Y-120825000D01*
X118278665Y-120825000D01*
X118001426Y-120880147D01*
X117740273Y-120988320D01*
X117505241Y-121145363D01*
X117305363Y-121345241D01*
X117148320Y-121580273D01*
X117040147Y-121841426D01*
X117026406Y-121910505D01*
X116227000Y-121111099D01*
X116227000Y-115867595D01*
X116296014Y-115830706D01*
X116522134Y-115645134D01*
X116707706Y-115419014D01*
X116845599Y-115161034D01*
X116930513Y-114881111D01*
X116959185Y-114590000D01*
X116930513Y-114298889D01*
X116845599Y-114018966D01*
X116707706Y-113760986D01*
X116522134Y-113534866D01*
X116296014Y-113349294D01*
X116038034Y-113211401D01*
X115758111Y-113126487D01*
X115539950Y-113105000D01*
X115394050Y-113105000D01*
X115175889Y-113126487D01*
X114895966Y-113211401D01*
X114637986Y-113349294D01*
X114411866Y-113534866D01*
X114226294Y-113760986D01*
X114197000Y-113815791D01*
X114167706Y-113760986D01*
X113982134Y-113534866D01*
X113870642Y-113443367D01*
X113903003Y-113336686D01*
X113914000Y-113225033D01*
X113914000Y-113225024D01*
X113917676Y-113187701D01*
X113914000Y-113150378D01*
X113914000Y-110242114D01*
X114132889Y-110308513D01*
X114351050Y-110330000D01*
X114496950Y-110330000D01*
X114715111Y-110308513D01*
X114995034Y-110223599D01*
X115253014Y-110085706D01*
X115479134Y-109900134D01*
X115664706Y-109674014D01*
X115694000Y-109619209D01*
X115723294Y-109674014D01*
X115723294Y-109674014D01*
G37*
X115723294Y-109674014D02*
X115908866Y-109900134D01*
X116134986Y-110085706D01*
X116210755Y-110126205D01*
X116214998Y-110169286D01*
X116222405Y-110193703D01*
X116258454Y-110312546D01*
X116329026Y-110444576D01*
X116399605Y-110530576D01*
X116424000Y-110560301D01*
X116452998Y-110584099D01*
X121032505Y-115163608D01*
X121056299Y-115192601D01*
X121085292Y-115216395D01*
X121085296Y-115216399D01*
X121155121Y-115273702D01*
X121172024Y-115287574D01*
X121302106Y-115357105D01*
X121259764Y-115496691D01*
X121232057Y-115778000D01*
X121259764Y-116059309D01*
X121341818Y-116329808D01*
X121475068Y-116579101D01*
X121654392Y-116797608D01*
X121872899Y-116976932D01*
X122005858Y-117048000D01*
X121872899Y-117119068D01*
X121654392Y-117298392D01*
X121475068Y-117516899D01*
X121341818Y-117766192D01*
X121259764Y-118036691D01*
X121232057Y-118318000D01*
X121259764Y-118599309D01*
X121341818Y-118869808D01*
X121475068Y-119119101D01*
X121654392Y-119337608D01*
X121872899Y-119516932D01*
X122010682Y-119590579D01*
X121818869Y-119705615D01*
X121610481Y-119894586D01*
X121442963Y-120120580D01*
X121322754Y-120374913D01*
X121282096Y-120508961D01*
X121404085Y-120731000D01*
X122547000Y-120731000D01*
X122547000Y-120711000D01*
X122801000Y-120711000D01*
X122801000Y-120731000D01*
X123943915Y-120731000D01*
X124065904Y-120508961D01*
X124025246Y-120374913D01*
X123905037Y-120120580D01*
X123737519Y-119894586D01*
X123529131Y-119705615D01*
X123337318Y-119590579D01*
X123475101Y-119516932D01*
X123693608Y-119337608D01*
X123872932Y-119119101D01*
X124006182Y-118869808D01*
X124088236Y-118599309D01*
X124115943Y-118318000D01*
X124088236Y-118036691D01*
X124006182Y-117766192D01*
X123872932Y-117516899D01*
X123693608Y-117298392D01*
X123475101Y-117119068D01*
X123342142Y-117048000D01*
X123475101Y-116976932D01*
X123693608Y-116797608D01*
X123716371Y-116769872D01*
X128315501Y-121369003D01*
X128339299Y-121398001D01*
X128368297Y-121421799D01*
X128455023Y-121492974D01*
X128531199Y-121533691D01*
X128587053Y-121563546D01*
X128730314Y-121607003D01*
X128841967Y-121618000D01*
X128841977Y-121618000D01*
X128879300Y-121621676D01*
X128916623Y-121618000D01*
X129073099Y-121618000D01*
X129095068Y-121659101D01*
X129274392Y-121877608D01*
X129492899Y-122056932D01*
X129742192Y-122190182D01*
X130012691Y-122272236D01*
X130223508Y-122293000D01*
X130364492Y-122293000D01*
X130575309Y-122272236D01*
X130845808Y-122190182D01*
X131095101Y-122056932D01*
X131313608Y-121877608D01*
X131492932Y-121659101D01*
X131626182Y-121409808D01*
X131708236Y-121139309D01*
X131735943Y-120858000D01*
X131708236Y-120576691D01*
X131626182Y-120306192D01*
X131492932Y-120056899D01*
X131313608Y-119838392D01*
X131095101Y-119659068D01*
X130962142Y-119588000D01*
X131095101Y-119516932D01*
X131313608Y-119337608D01*
X131492932Y-119119101D01*
X131626182Y-118869808D01*
X131708236Y-118599309D01*
X131735943Y-118318000D01*
X131708236Y-118036691D01*
X131626182Y-117766192D01*
X131573911Y-117668400D01*
X136192655Y-117668400D01*
X136119764Y-117908691D01*
X136092057Y-118190000D01*
X136119764Y-118471309D01*
X136201818Y-118741808D01*
X136335068Y-118991101D01*
X136514392Y-119209608D01*
X136732899Y-119388932D01*
X136870682Y-119462579D01*
X136678869Y-119577615D01*
X136470481Y-119766586D01*
X136302963Y-119992580D01*
X136182754Y-120246913D01*
X136142096Y-120380961D01*
X136264085Y-120603000D01*
X137407000Y-120603000D01*
X137407000Y-120583000D01*
X137661000Y-120583000D01*
X137661000Y-120603000D01*
X137681000Y-120603000D01*
X137681000Y-120857000D01*
X137661000Y-120857000D01*
X137661000Y-120877000D01*
X137407000Y-120877000D01*
X137407000Y-120857000D01*
X136264085Y-120857000D01*
X136142096Y-121079039D01*
X136182754Y-121213087D01*
X136302963Y-121467420D01*
X136470481Y-121693414D01*
X136678869Y-121882385D01*
X136853239Y-121986960D01*
X133207399Y-125632800D01*
X128700223Y-125632800D01*
X128662900Y-125629124D01*
X128625577Y-125632800D01*
X128625567Y-125632800D01*
X128513914Y-125643797D01*
X128370653Y-125687254D01*
X128238624Y-125757826D01*
X128122899Y-125852799D01*
X128099101Y-125881797D01*
X127312246Y-126668652D01*
X127264494Y-126629463D01*
X127154180Y-126570498D01*
X127034482Y-126534188D01*
X126910000Y-126521928D01*
X126445750Y-126525000D01*
X126287000Y-126683750D01*
X126287000Y-127783000D01*
X126307000Y-127783000D01*
X126307000Y-128037000D01*
X126287000Y-128037000D01*
X126287000Y-128057000D01*
X126033000Y-128057000D01*
X126033000Y-128037000D01*
X124933750Y-128037000D01*
X124775000Y-128195750D01*
X124774773Y-128230100D01*
X124111309Y-128230100D01*
X124032680Y-128040273D01*
X123875637Y-127805241D01*
X123675759Y-127605363D01*
X123473173Y-127470000D01*
X123675759Y-127334637D01*
X123850396Y-127160000D01*
X124771928Y-127160000D01*
X124775000Y-127624250D01*
X124933750Y-127783000D01*
X126033000Y-127783000D01*
X126033000Y-126683750D01*
X125874250Y-126525000D01*
X125410000Y-126521928D01*
X125285518Y-126534188D01*
X125165820Y-126570498D01*
X125055506Y-126629463D01*
X124958815Y-126708815D01*
X124879463Y-126805506D01*
X124820498Y-126915820D01*
X124784188Y-127035518D01*
X124771928Y-127160000D01*
X123850396Y-127160000D01*
X123875637Y-127134759D01*
X124032680Y-126899727D01*
X124140853Y-126638574D01*
X124196000Y-126361335D01*
X124196000Y-126078665D01*
X124140853Y-125801426D01*
X124032680Y-125540273D01*
X123875637Y-125305241D01*
X123675759Y-125105363D01*
X123440727Y-124948320D01*
X123179574Y-124840147D01*
X122902335Y-124785000D01*
X122619665Y-124785000D01*
X122437114Y-124821312D01*
X119855000Y-122239199D01*
X119855000Y-122118665D01*
X119799853Y-121841426D01*
X119691680Y-121580273D01*
X119534637Y-121345241D01*
X119396435Y-121207039D01*
X121282096Y-121207039D01*
X121322754Y-121341087D01*
X121442963Y-121595420D01*
X121610481Y-121821414D01*
X121818869Y-122010385D01*
X122060119Y-122155070D01*
X122324960Y-122249909D01*
X122547000Y-122128624D01*
X122547000Y-120985000D01*
X122801000Y-120985000D01*
X122801000Y-122128624D01*
X123023040Y-122249909D01*
X123287881Y-122155070D01*
X123529131Y-122010385D01*
X123737519Y-121821414D01*
X123905037Y-121595420D01*
X124025246Y-121341087D01*
X124065904Y-121207039D01*
X123943915Y-120985000D01*
X122801000Y-120985000D01*
X122547000Y-120985000D01*
X121404085Y-120985000D01*
X121282096Y-121207039D01*
X119396435Y-121207039D01*
X119334759Y-121145363D01*
X119099727Y-120988320D01*
X118838574Y-120880147D01*
X118561335Y-120825000D01*
X118278665Y-120825000D01*
X118001426Y-120880147D01*
X117740273Y-120988320D01*
X117505241Y-121145363D01*
X117305363Y-121345241D01*
X117148320Y-121580273D01*
X117040147Y-121841426D01*
X117026406Y-121910505D01*
X116227000Y-121111099D01*
X116227000Y-115867595D01*
X116296014Y-115830706D01*
X116522134Y-115645134D01*
X116707706Y-115419014D01*
X116845599Y-115161034D01*
X116930513Y-114881111D01*
X116959185Y-114590000D01*
X116930513Y-114298889D01*
X116845599Y-114018966D01*
X116707706Y-113760986D01*
X116522134Y-113534866D01*
X116296014Y-113349294D01*
X116038034Y-113211401D01*
X115758111Y-113126487D01*
X115539950Y-113105000D01*
X115394050Y-113105000D01*
X115175889Y-113126487D01*
X114895966Y-113211401D01*
X114637986Y-113349294D01*
X114411866Y-113534866D01*
X114226294Y-113760986D01*
X114197000Y-113815791D01*
X114167706Y-113760986D01*
X113982134Y-113534866D01*
X113870642Y-113443367D01*
X113903003Y-113336686D01*
X113914000Y-113225033D01*
X113914000Y-113225024D01*
X113917676Y-113187701D01*
X113914000Y-113150378D01*
X113914000Y-110242114D01*
X114132889Y-110308513D01*
X114351050Y-110330000D01*
X114496950Y-110330000D01*
X114715111Y-110308513D01*
X114995034Y-110223599D01*
X115253014Y-110085706D01*
X115479134Y-109900134D01*
X115664706Y-109674014D01*
X115694000Y-109619209D01*
X115723294Y-109674014D01*
G36*
X143301501Y-95016003D02*
G01*
X143325299Y-95045001D01*
X143354297Y-95068799D01*
X143441023Y-95139974D01*
X143534244Y-95189802D01*
X143573053Y-95210546D01*
X143716314Y-95254003D01*
X143827967Y-95265000D01*
X143827977Y-95265000D01*
X143865300Y-95268676D01*
X143902623Y-95265000D01*
X144059099Y-95265000D01*
X144081068Y-95306101D01*
X144260392Y-95524608D01*
X144478899Y-95703932D01*
X144611858Y-95775000D01*
X144478899Y-95846068D01*
X144260392Y-96025392D01*
X144081068Y-96243899D01*
X143947818Y-96493192D01*
X143865764Y-96763691D01*
X143838057Y-97045000D01*
X143865764Y-97326309D01*
X143947818Y-97596808D01*
X144081068Y-97846101D01*
X144260392Y-98064608D01*
X144478899Y-98243932D01*
X144728192Y-98377182D01*
X144998691Y-98459236D01*
X145209508Y-98480000D01*
X145350492Y-98480000D01*
X145561309Y-98459236D01*
X145831808Y-98377182D01*
X145991200Y-98291985D01*
X145991200Y-100677100D01*
X145739335Y-100627000D01*
X145456665Y-100627000D01*
X145179426Y-100682147D01*
X144918273Y-100790320D01*
X144683241Y-100947363D01*
X144483363Y-101147241D01*
X144349308Y-101347869D01*
X144334671Y-101320486D01*
X144090702Y-101248903D01*
X143277605Y-102062000D01*
X144090702Y-102875097D01*
X144334671Y-102803514D01*
X144348324Y-102774659D01*
X144483363Y-102976759D01*
X144663001Y-103156397D01*
X144663001Y-103358411D01*
X144525337Y-103496074D01*
X144489657Y-103525356D01*
X144372815Y-103667728D01*
X144304398Y-103795728D01*
X144285994Y-103830160D01*
X144232529Y-104006409D01*
X144214476Y-104189700D01*
X144219001Y-104235641D01*
X144219001Y-104400955D01*
X144134392Y-104470392D01*
X143955068Y-104688899D01*
X143821818Y-104938192D01*
X143739764Y-105208691D01*
X143712057Y-105490000D01*
X143739764Y-105771309D01*
X143821818Y-106041808D01*
X143955068Y-106291101D01*
X144134392Y-106509608D01*
X144352899Y-106688932D01*
X144485858Y-106760000D01*
X144352899Y-106831068D01*
X144134392Y-107010392D01*
X143955068Y-107228899D01*
X143821818Y-107478192D01*
X143739764Y-107748691D01*
X143712057Y-108030000D01*
X143739764Y-108311309D01*
X143821818Y-108581808D01*
X143955068Y-108831101D01*
X144134392Y-109049608D01*
X144352899Y-109228932D01*
X144415160Y-109262211D01*
X144404997Y-109295714D01*
X144400058Y-109345861D01*
X144352899Y-109371068D01*
X144134392Y-109550392D01*
X143955068Y-109768899D01*
X143821818Y-110018192D01*
X143739764Y-110288691D01*
X143712057Y-110570000D01*
X143739764Y-110851309D01*
X143821818Y-111121808D01*
X143955068Y-111371101D01*
X144134392Y-111589608D01*
X144352899Y-111768932D01*
X144400058Y-111794139D01*
X144404997Y-111844286D01*
X144415160Y-111877789D01*
X144352899Y-111911068D01*
X144134392Y-112090392D01*
X143955068Y-112308899D01*
X143821818Y-112558192D01*
X143739764Y-112828691D01*
X143712057Y-113110000D01*
X143739764Y-113391309D01*
X143821818Y-113661808D01*
X143955068Y-113911101D01*
X144048568Y-114025031D01*
X139009703Y-119063896D01*
X138980699Y-119087699D01*
X138925571Y-119154874D01*
X138885726Y-119203424D01*
X138882421Y-119209608D01*
X138815154Y-119335454D01*
X138771697Y-119478715D01*
X138760700Y-119590368D01*
X138760700Y-119590378D01*
X138757024Y-119627700D01*
X138760700Y-119665022D01*
X138760700Y-119986729D01*
X138597519Y-119766586D01*
X138389131Y-119577615D01*
X138197318Y-119462579D01*
X138335101Y-119388932D01*
X138553608Y-119209608D01*
X138732932Y-118991101D01*
X138866182Y-118741808D01*
X138948236Y-118471309D01*
X138975943Y-118190000D01*
X138948236Y-117908691D01*
X138866182Y-117638192D01*
X138732932Y-117388899D01*
X138626405Y-117259096D01*
X140072504Y-115812998D01*
X140101501Y-115789201D01*
X140127832Y-115757117D01*
X140196474Y-115673477D01*
X140267046Y-115541447D01*
X140290046Y-115465624D01*
X140310503Y-115398186D01*
X140321500Y-115286533D01*
X140321500Y-115286524D01*
X140325176Y-115249201D01*
X140321500Y-115211878D01*
X140321500Y-103054702D01*
X142284903Y-103054702D01*
X142356486Y-103298671D01*
X142611996Y-103419571D01*
X142886184Y-103488300D01*
X143168512Y-103502217D01*
X143448130Y-103460787D01*
X143714292Y-103365603D01*
X143839514Y-103298671D01*
X143911097Y-103054702D01*
X143098000Y-102241605D01*
X142284903Y-103054702D01*
X140321500Y-103054702D01*
X140321500Y-102132512D01*
X141657783Y-102132512D01*
X141699213Y-102412130D01*
X141794397Y-102678292D01*
X141861329Y-102803514D01*
X142105298Y-102875097D01*
X142918395Y-102062000D01*
X142105298Y-101248903D01*
X141861329Y-101320486D01*
X141740429Y-101575996D01*
X141671700Y-101850184D01*
X141657783Y-102132512D01*
X140321500Y-102132512D01*
X140321500Y-101069298D01*
X142284903Y-101069298D01*
X143098000Y-101882395D01*
X143911097Y-101069298D01*
X143839514Y-100825329D01*
X143584004Y-100704429D01*
X143309816Y-100635700D01*
X143027488Y-100621783D01*
X142747870Y-100663213D01*
X142481708Y-100758397D01*
X142356486Y-100825329D01*
X142284903Y-101069298D01*
X140321500Y-101069298D01*
X140321500Y-100745522D01*
X140325176Y-100708199D01*
X140321500Y-100670876D01*
X140321500Y-100670867D01*
X140310503Y-100559214D01*
X140267046Y-100415953D01*
X140196474Y-100283924D01*
X140101501Y-100168199D01*
X140072503Y-100144401D01*
X138271150Y-98343048D01*
X138273881Y-98342070D01*
X138515131Y-98197385D01*
X138723519Y-98008414D01*
X138891037Y-97782420D01*
X139011246Y-97528087D01*
X139051904Y-97394039D01*
X138929915Y-97172000D01*
X137787000Y-97172000D01*
X137787000Y-97192000D01*
X137533000Y-97192000D01*
X137533000Y-97172000D01*
X137513000Y-97172000D01*
X137513000Y-96918000D01*
X137533000Y-96918000D01*
X137533000Y-96898000D01*
X137787000Y-96898000D01*
X137787000Y-96918000D01*
X138929915Y-96918000D01*
X139051904Y-96695961D01*
X139011246Y-96561913D01*
X138891037Y-96307580D01*
X138756892Y-96126609D01*
X139313004Y-95570498D01*
X139342001Y-95546701D01*
X139436974Y-95430976D01*
X139507546Y-95298947D01*
X139551003Y-95155686D01*
X139562000Y-95044033D01*
X139562000Y-95044024D01*
X139565676Y-95006701D01*
X139562000Y-94969378D01*
X139562000Y-91460833D01*
X139565677Y-91423500D01*
X139551003Y-91274514D01*
X139547080Y-91261581D01*
X143301501Y-95016003D01*
X143301501Y-95016003D01*
G37*
X143301501Y-95016003D02*
X143325299Y-95045001D01*
X143354297Y-95068799D01*
X143441023Y-95139974D01*
X143534244Y-95189802D01*
X143573053Y-95210546D01*
X143716314Y-95254003D01*
X143827967Y-95265000D01*
X143827977Y-95265000D01*
X143865300Y-95268676D01*
X143902623Y-95265000D01*
X144059099Y-95265000D01*
X144081068Y-95306101D01*
X144260392Y-95524608D01*
X144478899Y-95703932D01*
X144611858Y-95775000D01*
X144478899Y-95846068D01*
X144260392Y-96025392D01*
X144081068Y-96243899D01*
X143947818Y-96493192D01*
X143865764Y-96763691D01*
X143838057Y-97045000D01*
X143865764Y-97326309D01*
X143947818Y-97596808D01*
X144081068Y-97846101D01*
X144260392Y-98064608D01*
X144478899Y-98243932D01*
X144728192Y-98377182D01*
X144998691Y-98459236D01*
X145209508Y-98480000D01*
X145350492Y-98480000D01*
X145561309Y-98459236D01*
X145831808Y-98377182D01*
X145991200Y-98291985D01*
X145991200Y-100677100D01*
X145739335Y-100627000D01*
X145456665Y-100627000D01*
X145179426Y-100682147D01*
X144918273Y-100790320D01*
X144683241Y-100947363D01*
X144483363Y-101147241D01*
X144349308Y-101347869D01*
X144334671Y-101320486D01*
X144090702Y-101248903D01*
X143277605Y-102062000D01*
X144090702Y-102875097D01*
X144334671Y-102803514D01*
X144348324Y-102774659D01*
X144483363Y-102976759D01*
X144663001Y-103156397D01*
X144663001Y-103358411D01*
X144525337Y-103496074D01*
X144489657Y-103525356D01*
X144372815Y-103667728D01*
X144304398Y-103795728D01*
X144285994Y-103830160D01*
X144232529Y-104006409D01*
X144214476Y-104189700D01*
X144219001Y-104235641D01*
X144219001Y-104400955D01*
X144134392Y-104470392D01*
X143955068Y-104688899D01*
X143821818Y-104938192D01*
X143739764Y-105208691D01*
X143712057Y-105490000D01*
X143739764Y-105771309D01*
X143821818Y-106041808D01*
X143955068Y-106291101D01*
X144134392Y-106509608D01*
X144352899Y-106688932D01*
X144485858Y-106760000D01*
X144352899Y-106831068D01*
X144134392Y-107010392D01*
X143955068Y-107228899D01*
X143821818Y-107478192D01*
X143739764Y-107748691D01*
X143712057Y-108030000D01*
X143739764Y-108311309D01*
X143821818Y-108581808D01*
X143955068Y-108831101D01*
X144134392Y-109049608D01*
X144352899Y-109228932D01*
X144415160Y-109262211D01*
X144404997Y-109295714D01*
X144400058Y-109345861D01*
X144352899Y-109371068D01*
X144134392Y-109550392D01*
X143955068Y-109768899D01*
X143821818Y-110018192D01*
X143739764Y-110288691D01*
X143712057Y-110570000D01*
X143739764Y-110851309D01*
X143821818Y-111121808D01*
X143955068Y-111371101D01*
X144134392Y-111589608D01*
X144352899Y-111768932D01*
X144400058Y-111794139D01*
X144404997Y-111844286D01*
X144415160Y-111877789D01*
X144352899Y-111911068D01*
X144134392Y-112090392D01*
X143955068Y-112308899D01*
X143821818Y-112558192D01*
X143739764Y-112828691D01*
X143712057Y-113110000D01*
X143739764Y-113391309D01*
X143821818Y-113661808D01*
X143955068Y-113911101D01*
X144048568Y-114025031D01*
X139009703Y-119063896D01*
X138980699Y-119087699D01*
X138925571Y-119154874D01*
X138885726Y-119203424D01*
X138882421Y-119209608D01*
X138815154Y-119335454D01*
X138771697Y-119478715D01*
X138760700Y-119590368D01*
X138760700Y-119590378D01*
X138757024Y-119627700D01*
X138760700Y-119665022D01*
X138760700Y-119986729D01*
X138597519Y-119766586D01*
X138389131Y-119577615D01*
X138197318Y-119462579D01*
X138335101Y-119388932D01*
X138553608Y-119209608D01*
X138732932Y-118991101D01*
X138866182Y-118741808D01*
X138948236Y-118471309D01*
X138975943Y-118190000D01*
X138948236Y-117908691D01*
X138866182Y-117638192D01*
X138732932Y-117388899D01*
X138626405Y-117259096D01*
X140072504Y-115812998D01*
X140101501Y-115789201D01*
X140127832Y-115757117D01*
X140196474Y-115673477D01*
X140267046Y-115541447D01*
X140290046Y-115465624D01*
X140310503Y-115398186D01*
X140321500Y-115286533D01*
X140321500Y-115286524D01*
X140325176Y-115249201D01*
X140321500Y-115211878D01*
X140321500Y-103054702D01*
X142284903Y-103054702D01*
X142356486Y-103298671D01*
X142611996Y-103419571D01*
X142886184Y-103488300D01*
X143168512Y-103502217D01*
X143448130Y-103460787D01*
X143714292Y-103365603D01*
X143839514Y-103298671D01*
X143911097Y-103054702D01*
X143098000Y-102241605D01*
X142284903Y-103054702D01*
X140321500Y-103054702D01*
X140321500Y-102132512D01*
X141657783Y-102132512D01*
X141699213Y-102412130D01*
X141794397Y-102678292D01*
X141861329Y-102803514D01*
X142105298Y-102875097D01*
X142918395Y-102062000D01*
X142105298Y-101248903D01*
X141861329Y-101320486D01*
X141740429Y-101575996D01*
X141671700Y-101850184D01*
X141657783Y-102132512D01*
X140321500Y-102132512D01*
X140321500Y-101069298D01*
X142284903Y-101069298D01*
X143098000Y-101882395D01*
X143911097Y-101069298D01*
X143839514Y-100825329D01*
X143584004Y-100704429D01*
X143309816Y-100635700D01*
X143027488Y-100621783D01*
X142747870Y-100663213D01*
X142481708Y-100758397D01*
X142356486Y-100825329D01*
X142284903Y-101069298D01*
X140321500Y-101069298D01*
X140321500Y-100745522D01*
X140325176Y-100708199D01*
X140321500Y-100670876D01*
X140321500Y-100670867D01*
X140310503Y-100559214D01*
X140267046Y-100415953D01*
X140196474Y-100283924D01*
X140101501Y-100168199D01*
X140072503Y-100144401D01*
X138271150Y-98343048D01*
X138273881Y-98342070D01*
X138515131Y-98197385D01*
X138723519Y-98008414D01*
X138891037Y-97782420D01*
X139011246Y-97528087D01*
X139051904Y-97394039D01*
X138929915Y-97172000D01*
X137787000Y-97172000D01*
X137787000Y-97192000D01*
X137533000Y-97192000D01*
X137533000Y-97172000D01*
X137513000Y-97172000D01*
X137513000Y-96918000D01*
X137533000Y-96918000D01*
X137533000Y-96898000D01*
X137787000Y-96898000D01*
X137787000Y-96918000D01*
X138929915Y-96918000D01*
X139051904Y-96695961D01*
X139011246Y-96561913D01*
X138891037Y-96307580D01*
X138756892Y-96126609D01*
X139313004Y-95570498D01*
X139342001Y-95546701D01*
X139436974Y-95430976D01*
X139507546Y-95298947D01*
X139551003Y-95155686D01*
X139562000Y-95044033D01*
X139562000Y-95044024D01*
X139565676Y-95006701D01*
X139562000Y-94969378D01*
X139562000Y-91460833D01*
X139565677Y-91423500D01*
X139551003Y-91274514D01*
X139547080Y-91261581D01*
X143301501Y-95016003D01*
G36*
X151687931Y-70336606D02*
G01*
X151875203Y-70564797D01*
X152103394Y-70752069D01*
X152363736Y-70891225D01*
X152646223Y-70976916D01*
X152866381Y-70998600D01*
X153013619Y-70998600D01*
X153233777Y-70976916D01*
X153450001Y-70911326D01*
X153450000Y-100146198D01*
X152756737Y-100839462D01*
X152678932Y-100693899D01*
X152499608Y-100475392D01*
X152281101Y-100296068D01*
X152148142Y-100225000D01*
X152281101Y-100153932D01*
X152499608Y-99974608D01*
X152678932Y-99756101D01*
X152812182Y-99506808D01*
X152894236Y-99236309D01*
X152921943Y-98955000D01*
X152894236Y-98673691D01*
X152812182Y-98403192D01*
X152678932Y-98153899D01*
X152499608Y-97935392D01*
X152281101Y-97756068D01*
X152148142Y-97685000D01*
X152281101Y-97613932D01*
X152499608Y-97434608D01*
X152678932Y-97216101D01*
X152812182Y-96966808D01*
X152894236Y-96696309D01*
X152921943Y-96415000D01*
X152894236Y-96133691D01*
X152812182Y-95863192D01*
X152678932Y-95613899D01*
X152499608Y-95395392D01*
X152281101Y-95216068D01*
X152148142Y-95145000D01*
X152281101Y-95073932D01*
X152499608Y-94894608D01*
X152678932Y-94676101D01*
X152812182Y-94426808D01*
X152894236Y-94156309D01*
X152921943Y-93875000D01*
X152894236Y-93593691D01*
X152812182Y-93323192D01*
X152678932Y-93073899D01*
X152499608Y-92855392D01*
X152281101Y-92676068D01*
X152148142Y-92605000D01*
X152281101Y-92533932D01*
X152499608Y-92354608D01*
X152678932Y-92136101D01*
X152812182Y-91886808D01*
X152894236Y-91616309D01*
X152921943Y-91335000D01*
X152894236Y-91053691D01*
X152812182Y-90783192D01*
X152678932Y-90533899D01*
X152499608Y-90315392D01*
X152386518Y-90222581D01*
X152404482Y-90220812D01*
X152524180Y-90184502D01*
X152634494Y-90125537D01*
X152731185Y-90046185D01*
X152810537Y-89949494D01*
X152869502Y-89839180D01*
X152905812Y-89719482D01*
X152918072Y-89595000D01*
X152918072Y-87995000D01*
X152905812Y-87870518D01*
X152869502Y-87750820D01*
X152810537Y-87640506D01*
X152731185Y-87543815D01*
X152634494Y-87464463D01*
X152524180Y-87405498D01*
X152404482Y-87369188D01*
X152280000Y-87356928D01*
X150680000Y-87356928D01*
X150555518Y-87369188D01*
X150435820Y-87405498D01*
X150325506Y-87464463D01*
X150228815Y-87543815D01*
X150149463Y-87640506D01*
X150090498Y-87750820D01*
X150054188Y-87870518D01*
X150041928Y-87995000D01*
X150041928Y-88918776D01*
X150017899Y-88889496D01*
X150017895Y-88889492D01*
X149994101Y-88860499D01*
X149965109Y-88836706D01*
X146386784Y-85258383D01*
X146478932Y-85146101D01*
X146500901Y-85105000D01*
X147467678Y-85105000D01*
X147505000Y-85108676D01*
X147542322Y-85105000D01*
X147542333Y-85105000D01*
X147653986Y-85094003D01*
X147797247Y-85050546D01*
X147929276Y-84979974D01*
X148045001Y-84885001D01*
X148068804Y-84855997D01*
X151935503Y-80989300D01*
X151997639Y-80989300D01*
X152197598Y-80949526D01*
X152385956Y-80871505D01*
X152555474Y-80758237D01*
X152699637Y-80614074D01*
X152812905Y-80444556D01*
X152890926Y-80256198D01*
X152930700Y-80056239D01*
X152930700Y-79852361D01*
X152890926Y-79652402D01*
X152812905Y-79464044D01*
X152699637Y-79294526D01*
X152555474Y-79150363D01*
X152385956Y-79037095D01*
X152197598Y-78959074D01*
X151997639Y-78919300D01*
X151793761Y-78919300D01*
X151593802Y-78959074D01*
X151405444Y-79037095D01*
X151235926Y-79150363D01*
X151091763Y-79294526D01*
X150978495Y-79464044D01*
X150900474Y-79652402D01*
X150860700Y-79852361D01*
X150860700Y-79914497D01*
X147190199Y-83585000D01*
X146500901Y-83585000D01*
X146478932Y-83543899D01*
X146299608Y-83325392D01*
X146081101Y-83146068D01*
X145948142Y-83075000D01*
X146081101Y-83003932D01*
X146299608Y-82824608D01*
X146478932Y-82606101D01*
X146612182Y-82356808D01*
X146694236Y-82086309D01*
X146721943Y-81805000D01*
X146694236Y-81523691D01*
X146612182Y-81253192D01*
X146478932Y-81003899D01*
X146309519Y-80797469D01*
X146318655Y-80788333D01*
X146354344Y-80759044D01*
X146471186Y-80616672D01*
X146548077Y-80472818D01*
X146558007Y-80454241D01*
X146611472Y-80277992D01*
X146629524Y-80094700D01*
X146625000Y-80048765D01*
X146625000Y-79364396D01*
X146804637Y-79184759D01*
X146961680Y-78949727D01*
X147069853Y-78688574D01*
X147125000Y-78411335D01*
X147125000Y-78128665D01*
X147069853Y-77851426D01*
X146961680Y-77590273D01*
X146804637Y-77355241D01*
X146604759Y-77155363D01*
X146369727Y-76998320D01*
X146108574Y-76890147D01*
X145831335Y-76835000D01*
X145548665Y-76835000D01*
X145271426Y-76890147D01*
X145010273Y-76998320D01*
X144775241Y-77155363D01*
X144575363Y-77355241D01*
X144441308Y-77555869D01*
X144426671Y-77528486D01*
X144182702Y-77456903D01*
X143369605Y-78270000D01*
X144182702Y-79083097D01*
X144426671Y-79011514D01*
X144440324Y-78982659D01*
X144575363Y-79184759D01*
X144755000Y-79364396D01*
X144755000Y-79707411D01*
X144651337Y-79811074D01*
X144615657Y-79840356D01*
X144498815Y-79982728D01*
X144425442Y-80120001D01*
X144411994Y-80145160D01*
X144358529Y-80321409D01*
X144340476Y-80504700D01*
X144345001Y-80550641D01*
X144345001Y-80715955D01*
X144260392Y-80785392D01*
X144081068Y-81003899D01*
X143947818Y-81253192D01*
X143865764Y-81523691D01*
X143838057Y-81805000D01*
X143865764Y-82086309D01*
X143947818Y-82356808D01*
X144081068Y-82606101D01*
X144260392Y-82824608D01*
X144478899Y-83003932D01*
X144611858Y-83075000D01*
X144478899Y-83146068D01*
X144260392Y-83325392D01*
X144081068Y-83543899D01*
X143999641Y-83696239D01*
X142325106Y-82021705D01*
X142372637Y-81974174D01*
X142485905Y-81804656D01*
X142563926Y-81616298D01*
X142603700Y-81416339D01*
X142603700Y-81212461D01*
X142563926Y-81012502D01*
X142485905Y-80824144D01*
X142372637Y-80654626D01*
X142328700Y-80610689D01*
X142328700Y-79310907D01*
X142376903Y-79262704D01*
X142448486Y-79506671D01*
X142703996Y-79627571D01*
X142978184Y-79696300D01*
X143260512Y-79710217D01*
X143540130Y-79668787D01*
X143806292Y-79573603D01*
X143931514Y-79506671D01*
X144003097Y-79262702D01*
X143190000Y-78449605D01*
X143175858Y-78463748D01*
X142996253Y-78284143D01*
X143010395Y-78270000D01*
X142996253Y-78255858D01*
X143175858Y-78076253D01*
X143190000Y-78090395D01*
X144003097Y-77277298D01*
X143931514Y-77033329D01*
X143676004Y-76912429D01*
X143401816Y-76843700D01*
X143119488Y-76829783D01*
X142839870Y-76871213D01*
X142703842Y-76919859D01*
X148371003Y-71252699D01*
X148400001Y-71228901D01*
X148494974Y-71113176D01*
X148565546Y-70981147D01*
X148609003Y-70837886D01*
X148613057Y-70796727D01*
X148696606Y-70752069D01*
X148924797Y-70564797D01*
X149112069Y-70336606D01*
X149130000Y-70303060D01*
X149147931Y-70336606D01*
X149335203Y-70564797D01*
X149563394Y-70752069D01*
X149823736Y-70891225D01*
X150106223Y-70976916D01*
X150326381Y-70998600D01*
X150473619Y-70998600D01*
X150693777Y-70976916D01*
X150976264Y-70891225D01*
X151236606Y-70752069D01*
X151464797Y-70564797D01*
X151652069Y-70336606D01*
X151670000Y-70303060D01*
X151687931Y-70336606D01*
X151687931Y-70336606D01*
G37*
X151687931Y-70336606D02*
X151875203Y-70564797D01*
X152103394Y-70752069D01*
X152363736Y-70891225D01*
X152646223Y-70976916D01*
X152866381Y-70998600D01*
X153013619Y-70998600D01*
X153233777Y-70976916D01*
X153450001Y-70911326D01*
X153450000Y-100146198D01*
X152756737Y-100839462D01*
X152678932Y-100693899D01*
X152499608Y-100475392D01*
X152281101Y-100296068D01*
X152148142Y-100225000D01*
X152281101Y-100153932D01*
X152499608Y-99974608D01*
X152678932Y-99756101D01*
X152812182Y-99506808D01*
X152894236Y-99236309D01*
X152921943Y-98955000D01*
X152894236Y-98673691D01*
X152812182Y-98403192D01*
X152678932Y-98153899D01*
X152499608Y-97935392D01*
X152281101Y-97756068D01*
X152148142Y-97685000D01*
X152281101Y-97613932D01*
X152499608Y-97434608D01*
X152678932Y-97216101D01*
X152812182Y-96966808D01*
X152894236Y-96696309D01*
X152921943Y-96415000D01*
X152894236Y-96133691D01*
X152812182Y-95863192D01*
X152678932Y-95613899D01*
X152499608Y-95395392D01*
X152281101Y-95216068D01*
X152148142Y-95145000D01*
X152281101Y-95073932D01*
X152499608Y-94894608D01*
X152678932Y-94676101D01*
X152812182Y-94426808D01*
X152894236Y-94156309D01*
X152921943Y-93875000D01*
X152894236Y-93593691D01*
X152812182Y-93323192D01*
X152678932Y-93073899D01*
X152499608Y-92855392D01*
X152281101Y-92676068D01*
X152148142Y-92605000D01*
X152281101Y-92533932D01*
X152499608Y-92354608D01*
X152678932Y-92136101D01*
X152812182Y-91886808D01*
X152894236Y-91616309D01*
X152921943Y-91335000D01*
X152894236Y-91053691D01*
X152812182Y-90783192D01*
X152678932Y-90533899D01*
X152499608Y-90315392D01*
X152386518Y-90222581D01*
X152404482Y-90220812D01*
X152524180Y-90184502D01*
X152634494Y-90125537D01*
X152731185Y-90046185D01*
X152810537Y-89949494D01*
X152869502Y-89839180D01*
X152905812Y-89719482D01*
X152918072Y-89595000D01*
X152918072Y-87995000D01*
X152905812Y-87870518D01*
X152869502Y-87750820D01*
X152810537Y-87640506D01*
X152731185Y-87543815D01*
X152634494Y-87464463D01*
X152524180Y-87405498D01*
X152404482Y-87369188D01*
X152280000Y-87356928D01*
X150680000Y-87356928D01*
X150555518Y-87369188D01*
X150435820Y-87405498D01*
X150325506Y-87464463D01*
X150228815Y-87543815D01*
X150149463Y-87640506D01*
X150090498Y-87750820D01*
X150054188Y-87870518D01*
X150041928Y-87995000D01*
X150041928Y-88918776D01*
X150017899Y-88889496D01*
X150017895Y-88889492D01*
X149994101Y-88860499D01*
X149965109Y-88836706D01*
X146386784Y-85258383D01*
X146478932Y-85146101D01*
X146500901Y-85105000D01*
X147467678Y-85105000D01*
X147505000Y-85108676D01*
X147542322Y-85105000D01*
X147542333Y-85105000D01*
X147653986Y-85094003D01*
X147797247Y-85050546D01*
X147929276Y-84979974D01*
X148045001Y-84885001D01*
X148068804Y-84855997D01*
X151935503Y-80989300D01*
X151997639Y-80989300D01*
X152197598Y-80949526D01*
X152385956Y-80871505D01*
X152555474Y-80758237D01*
X152699637Y-80614074D01*
X152812905Y-80444556D01*
X152890926Y-80256198D01*
X152930700Y-80056239D01*
X152930700Y-79852361D01*
X152890926Y-79652402D01*
X152812905Y-79464044D01*
X152699637Y-79294526D01*
X152555474Y-79150363D01*
X152385956Y-79037095D01*
X152197598Y-78959074D01*
X151997639Y-78919300D01*
X151793761Y-78919300D01*
X151593802Y-78959074D01*
X151405444Y-79037095D01*
X151235926Y-79150363D01*
X151091763Y-79294526D01*
X150978495Y-79464044D01*
X150900474Y-79652402D01*
X150860700Y-79852361D01*
X150860700Y-79914497D01*
X147190199Y-83585000D01*
X146500901Y-83585000D01*
X146478932Y-83543899D01*
X146299608Y-83325392D01*
X146081101Y-83146068D01*
X145948142Y-83075000D01*
X146081101Y-83003932D01*
X146299608Y-82824608D01*
X146478932Y-82606101D01*
X146612182Y-82356808D01*
X146694236Y-82086309D01*
X146721943Y-81805000D01*
X146694236Y-81523691D01*
X146612182Y-81253192D01*
X146478932Y-81003899D01*
X146309519Y-80797469D01*
X146318655Y-80788333D01*
X146354344Y-80759044D01*
X146471186Y-80616672D01*
X146548077Y-80472818D01*
X146558007Y-80454241D01*
X146611472Y-80277992D01*
X146629524Y-80094700D01*
X146625000Y-80048765D01*
X146625000Y-79364396D01*
X146804637Y-79184759D01*
X146961680Y-78949727D01*
X147069853Y-78688574D01*
X147125000Y-78411335D01*
X147125000Y-78128665D01*
X147069853Y-77851426D01*
X146961680Y-77590273D01*
X146804637Y-77355241D01*
X146604759Y-77155363D01*
X146369727Y-76998320D01*
X146108574Y-76890147D01*
X145831335Y-76835000D01*
X145548665Y-76835000D01*
X145271426Y-76890147D01*
X145010273Y-76998320D01*
X144775241Y-77155363D01*
X144575363Y-77355241D01*
X144441308Y-77555869D01*
X144426671Y-77528486D01*
X144182702Y-77456903D01*
X143369605Y-78270000D01*
X144182702Y-79083097D01*
X144426671Y-79011514D01*
X144440324Y-78982659D01*
X144575363Y-79184759D01*
X144755000Y-79364396D01*
X144755000Y-79707411D01*
X144651337Y-79811074D01*
X144615657Y-79840356D01*
X144498815Y-79982728D01*
X144425442Y-80120001D01*
X144411994Y-80145160D01*
X144358529Y-80321409D01*
X144340476Y-80504700D01*
X144345001Y-80550641D01*
X144345001Y-80715955D01*
X144260392Y-80785392D01*
X144081068Y-81003899D01*
X143947818Y-81253192D01*
X143865764Y-81523691D01*
X143838057Y-81805000D01*
X143865764Y-82086309D01*
X143947818Y-82356808D01*
X144081068Y-82606101D01*
X144260392Y-82824608D01*
X144478899Y-83003932D01*
X144611858Y-83075000D01*
X144478899Y-83146068D01*
X144260392Y-83325392D01*
X144081068Y-83543899D01*
X143999641Y-83696239D01*
X142325106Y-82021705D01*
X142372637Y-81974174D01*
X142485905Y-81804656D01*
X142563926Y-81616298D01*
X142603700Y-81416339D01*
X142603700Y-81212461D01*
X142563926Y-81012502D01*
X142485905Y-80824144D01*
X142372637Y-80654626D01*
X142328700Y-80610689D01*
X142328700Y-79310907D01*
X142376903Y-79262704D01*
X142448486Y-79506671D01*
X142703996Y-79627571D01*
X142978184Y-79696300D01*
X143260512Y-79710217D01*
X143540130Y-79668787D01*
X143806292Y-79573603D01*
X143931514Y-79506671D01*
X144003097Y-79262702D01*
X143190000Y-78449605D01*
X143175858Y-78463748D01*
X142996253Y-78284143D01*
X143010395Y-78270000D01*
X142996253Y-78255858D01*
X143175858Y-78076253D01*
X143190000Y-78090395D01*
X144003097Y-77277298D01*
X143931514Y-77033329D01*
X143676004Y-76912429D01*
X143401816Y-76843700D01*
X143119488Y-76829783D01*
X142839870Y-76871213D01*
X142703842Y-76919859D01*
X148371003Y-71252699D01*
X148400001Y-71228901D01*
X148494974Y-71113176D01*
X148565546Y-70981147D01*
X148609003Y-70837886D01*
X148613057Y-70796727D01*
X148696606Y-70752069D01*
X148924797Y-70564797D01*
X149112069Y-70336606D01*
X149130000Y-70303060D01*
X149147931Y-70336606D01*
X149335203Y-70564797D01*
X149563394Y-70752069D01*
X149823736Y-70891225D01*
X150106223Y-70976916D01*
X150326381Y-70998600D01*
X150473619Y-70998600D01*
X150693777Y-70976916D01*
X150976264Y-70891225D01*
X151236606Y-70752069D01*
X151464797Y-70564797D01*
X151652069Y-70336606D01*
X151670000Y-70303060D01*
X151687931Y-70336606D01*
G36*
X188173701Y-78066803D02*
G01*
X188173700Y-86790278D01*
X188170024Y-86827600D01*
X188173700Y-86864922D01*
X188173700Y-86864932D01*
X188184697Y-86976585D01*
X188214142Y-87073654D01*
X188227042Y-87116179D01*
X188069540Y-87031993D01*
X187893292Y-86978529D01*
X187755932Y-86965000D01*
X187710000Y-86960476D01*
X187664068Y-86965000D01*
X183784396Y-86965000D01*
X183625000Y-86805604D01*
X183625000Y-85943821D01*
X183632759Y-85938637D01*
X183832637Y-85738759D01*
X183989680Y-85503727D01*
X184097853Y-85242574D01*
X184153000Y-84965335D01*
X184153000Y-84682665D01*
X184097853Y-84405426D01*
X183989680Y-84144273D01*
X183832637Y-83909241D01*
X183632759Y-83709363D01*
X183397727Y-83552320D01*
X183136574Y-83444147D01*
X182859335Y-83389000D01*
X182576665Y-83389000D01*
X182299426Y-83444147D01*
X182038273Y-83552320D01*
X181803241Y-83709363D01*
X181603363Y-83909241D01*
X181446320Y-84144273D01*
X181338147Y-84405426D01*
X181283000Y-84682665D01*
X181283000Y-84965335D01*
X181338147Y-85242574D01*
X181446320Y-85503727D01*
X181603363Y-85738759D01*
X181755000Y-85890396D01*
X181755001Y-86805603D01*
X181575363Y-86985241D01*
X181418320Y-87220273D01*
X181310147Y-87481426D01*
X181255000Y-87758665D01*
X181255000Y-88041335D01*
X181310147Y-88318574D01*
X181418320Y-88579727D01*
X181575363Y-88814759D01*
X181775241Y-89014637D01*
X182010273Y-89171680D01*
X182271426Y-89279853D01*
X182548665Y-89335000D01*
X182831335Y-89335000D01*
X183108574Y-89279853D01*
X183369727Y-89171680D01*
X183604759Y-89014637D01*
X183784396Y-88835000D01*
X187319294Y-88835000D01*
X187209870Y-88851213D01*
X186943708Y-88946397D01*
X186818486Y-89013329D01*
X186746903Y-89257298D01*
X187560000Y-90070395D01*
X187574143Y-90056253D01*
X187753748Y-90235858D01*
X187739605Y-90250000D01*
X188552702Y-91063097D01*
X188796671Y-90991514D01*
X188810324Y-90962659D01*
X188945363Y-91164759D01*
X189125000Y-91344396D01*
X189125000Y-91707411D01*
X188951336Y-91881075D01*
X188915657Y-91910356D01*
X188798815Y-92052728D01*
X188731536Y-92178600D01*
X188711994Y-92215160D01*
X188658529Y-92391409D01*
X188640476Y-92574700D01*
X188645001Y-92620641D01*
X188645001Y-92785955D01*
X188560392Y-92855392D01*
X188381068Y-93073899D01*
X188247818Y-93323192D01*
X188165764Y-93593691D01*
X188138057Y-93875000D01*
X188165764Y-94156309D01*
X188247818Y-94426808D01*
X188381068Y-94676101D01*
X188560392Y-94894608D01*
X188778899Y-95073932D01*
X188911858Y-95145000D01*
X188778899Y-95216068D01*
X188560392Y-95395392D01*
X188381068Y-95613899D01*
X188247818Y-95863192D01*
X188165764Y-96133691D01*
X188138057Y-96415000D01*
X188165764Y-96696309D01*
X188247818Y-96966808D01*
X188381068Y-97216101D01*
X188560392Y-97434608D01*
X188778899Y-97613932D01*
X188841160Y-97647211D01*
X188830997Y-97680714D01*
X188826058Y-97730861D01*
X188778899Y-97756068D01*
X188560392Y-97935392D01*
X188381068Y-98153899D01*
X188247818Y-98403192D01*
X188165764Y-98673691D01*
X188138057Y-98955000D01*
X188165764Y-99236309D01*
X188193669Y-99328300D01*
X187455802Y-99328300D01*
X185235604Y-97108103D01*
X185211801Y-97079099D01*
X185096076Y-96984126D01*
X184964047Y-96913554D01*
X184820786Y-96870097D01*
X184709133Y-96859100D01*
X184709122Y-96859100D01*
X184671800Y-96855424D01*
X184634478Y-96859100D01*
X175704854Y-96859100D01*
X175754236Y-96696309D01*
X175781943Y-96415000D01*
X175754236Y-96133691D01*
X175672182Y-95863192D01*
X175538932Y-95613899D01*
X175359608Y-95395392D01*
X175246518Y-95302581D01*
X175264482Y-95300812D01*
X175384180Y-95264502D01*
X175494494Y-95205537D01*
X175591185Y-95126185D01*
X175670537Y-95029494D01*
X175729502Y-94919180D01*
X175765812Y-94799482D01*
X175778072Y-94675000D01*
X175778072Y-93075000D01*
X175765812Y-92950518D01*
X175729502Y-92830820D01*
X175670537Y-92720506D01*
X175591185Y-92623815D01*
X175494494Y-92544463D01*
X175384180Y-92485498D01*
X175264482Y-92449188D01*
X175140000Y-92436928D01*
X175034575Y-92436928D01*
X174974974Y-92325423D01*
X174903799Y-92238697D01*
X174880001Y-92209699D01*
X174851003Y-92185901D01*
X173907804Y-91242702D01*
X186746903Y-91242702D01*
X186818486Y-91486671D01*
X187073996Y-91607571D01*
X187348184Y-91676300D01*
X187630512Y-91690217D01*
X187910130Y-91648787D01*
X188176292Y-91553603D01*
X188301514Y-91486671D01*
X188373097Y-91242702D01*
X187560000Y-90429605D01*
X186746903Y-91242702D01*
X173907804Y-91242702D01*
X172985614Y-90320512D01*
X186119783Y-90320512D01*
X186161213Y-90600130D01*
X186256397Y-90866292D01*
X186323329Y-90991514D01*
X186567298Y-91063097D01*
X187380395Y-90250000D01*
X186567298Y-89436903D01*
X186323329Y-89508486D01*
X186202429Y-89763996D01*
X186133700Y-90038184D01*
X186119783Y-90320512D01*
X172985614Y-90320512D01*
X171804377Y-89139276D01*
X171978192Y-89232182D01*
X172248691Y-89314236D01*
X172459508Y-89335000D01*
X172600492Y-89335000D01*
X172811309Y-89314236D01*
X173081808Y-89232182D01*
X173331101Y-89098932D01*
X173549608Y-88919608D01*
X173728932Y-88701101D01*
X173754139Y-88653942D01*
X173804286Y-88649003D01*
X173947547Y-88605546D01*
X174079576Y-88534974D01*
X174195301Y-88440001D01*
X174219104Y-88410997D01*
X181384442Y-81245660D01*
X181338147Y-81357426D01*
X181283000Y-81634665D01*
X181283000Y-81917335D01*
X181338147Y-82194574D01*
X181446320Y-82455727D01*
X181603363Y-82690759D01*
X181803241Y-82890637D01*
X182038273Y-83047680D01*
X182299426Y-83155853D01*
X182576665Y-83211000D01*
X182859335Y-83211000D01*
X183136574Y-83155853D01*
X183397727Y-83047680D01*
X183632759Y-82890637D01*
X183832637Y-82690759D01*
X183989680Y-82455727D01*
X184097853Y-82194574D01*
X184153000Y-81917335D01*
X184153000Y-81634665D01*
X184097853Y-81357426D01*
X183989680Y-81096273D01*
X183832637Y-80861241D01*
X183632759Y-80661363D01*
X183397727Y-80504320D01*
X183136574Y-80396147D01*
X182859335Y-80341000D01*
X182576665Y-80341000D01*
X182299426Y-80396147D01*
X182187660Y-80442442D01*
X184860102Y-77770000D01*
X185071687Y-77770000D01*
X185217688Y-77988505D01*
X185431495Y-78202312D01*
X185682905Y-78370299D01*
X185962257Y-78486011D01*
X186258816Y-78545000D01*
X186561184Y-78545000D01*
X186857743Y-78486011D01*
X187137095Y-78370299D01*
X187388505Y-78202312D01*
X187602312Y-77988505D01*
X187770299Y-77737095D01*
X187791884Y-77684985D01*
X188173701Y-78066803D01*
X188173701Y-78066803D01*
G37*
X188173701Y-78066803D02*
X188173700Y-86790278D01*
X188170024Y-86827600D01*
X188173700Y-86864922D01*
X188173700Y-86864932D01*
X188184697Y-86976585D01*
X188214142Y-87073654D01*
X188227042Y-87116179D01*
X188069540Y-87031993D01*
X187893292Y-86978529D01*
X187755932Y-86965000D01*
X187710000Y-86960476D01*
X187664068Y-86965000D01*
X183784396Y-86965000D01*
X183625000Y-86805604D01*
X183625000Y-85943821D01*
X183632759Y-85938637D01*
X183832637Y-85738759D01*
X183989680Y-85503727D01*
X184097853Y-85242574D01*
X184153000Y-84965335D01*
X184153000Y-84682665D01*
X184097853Y-84405426D01*
X183989680Y-84144273D01*
X183832637Y-83909241D01*
X183632759Y-83709363D01*
X183397727Y-83552320D01*
X183136574Y-83444147D01*
X182859335Y-83389000D01*
X182576665Y-83389000D01*
X182299426Y-83444147D01*
X182038273Y-83552320D01*
X181803241Y-83709363D01*
X181603363Y-83909241D01*
X181446320Y-84144273D01*
X181338147Y-84405426D01*
X181283000Y-84682665D01*
X181283000Y-84965335D01*
X181338147Y-85242574D01*
X181446320Y-85503727D01*
X181603363Y-85738759D01*
X181755000Y-85890396D01*
X181755001Y-86805603D01*
X181575363Y-86985241D01*
X181418320Y-87220273D01*
X181310147Y-87481426D01*
X181255000Y-87758665D01*
X181255000Y-88041335D01*
X181310147Y-88318574D01*
X181418320Y-88579727D01*
X181575363Y-88814759D01*
X181775241Y-89014637D01*
X182010273Y-89171680D01*
X182271426Y-89279853D01*
X182548665Y-89335000D01*
X182831335Y-89335000D01*
X183108574Y-89279853D01*
X183369727Y-89171680D01*
X183604759Y-89014637D01*
X183784396Y-88835000D01*
X187319294Y-88835000D01*
X187209870Y-88851213D01*
X186943708Y-88946397D01*
X186818486Y-89013329D01*
X186746903Y-89257298D01*
X187560000Y-90070395D01*
X187574143Y-90056253D01*
X187753748Y-90235858D01*
X187739605Y-90250000D01*
X188552702Y-91063097D01*
X188796671Y-90991514D01*
X188810324Y-90962659D01*
X188945363Y-91164759D01*
X189125000Y-91344396D01*
X189125000Y-91707411D01*
X188951336Y-91881075D01*
X188915657Y-91910356D01*
X188798815Y-92052728D01*
X188731536Y-92178600D01*
X188711994Y-92215160D01*
X188658529Y-92391409D01*
X188640476Y-92574700D01*
X188645001Y-92620641D01*
X188645001Y-92785955D01*
X188560392Y-92855392D01*
X188381068Y-93073899D01*
X188247818Y-93323192D01*
X188165764Y-93593691D01*
X188138057Y-93875000D01*
X188165764Y-94156309D01*
X188247818Y-94426808D01*
X188381068Y-94676101D01*
X188560392Y-94894608D01*
X188778899Y-95073932D01*
X188911858Y-95145000D01*
X188778899Y-95216068D01*
X188560392Y-95395392D01*
X188381068Y-95613899D01*
X188247818Y-95863192D01*
X188165764Y-96133691D01*
X188138057Y-96415000D01*
X188165764Y-96696309D01*
X188247818Y-96966808D01*
X188381068Y-97216101D01*
X188560392Y-97434608D01*
X188778899Y-97613932D01*
X188841160Y-97647211D01*
X188830997Y-97680714D01*
X188826058Y-97730861D01*
X188778899Y-97756068D01*
X188560392Y-97935392D01*
X188381068Y-98153899D01*
X188247818Y-98403192D01*
X188165764Y-98673691D01*
X188138057Y-98955000D01*
X188165764Y-99236309D01*
X188193669Y-99328300D01*
X187455802Y-99328300D01*
X185235604Y-97108103D01*
X185211801Y-97079099D01*
X185096076Y-96984126D01*
X184964047Y-96913554D01*
X184820786Y-96870097D01*
X184709133Y-96859100D01*
X184709122Y-96859100D01*
X184671800Y-96855424D01*
X184634478Y-96859100D01*
X175704854Y-96859100D01*
X175754236Y-96696309D01*
X175781943Y-96415000D01*
X175754236Y-96133691D01*
X175672182Y-95863192D01*
X175538932Y-95613899D01*
X175359608Y-95395392D01*
X175246518Y-95302581D01*
X175264482Y-95300812D01*
X175384180Y-95264502D01*
X175494494Y-95205537D01*
X175591185Y-95126185D01*
X175670537Y-95029494D01*
X175729502Y-94919180D01*
X175765812Y-94799482D01*
X175778072Y-94675000D01*
X175778072Y-93075000D01*
X175765812Y-92950518D01*
X175729502Y-92830820D01*
X175670537Y-92720506D01*
X175591185Y-92623815D01*
X175494494Y-92544463D01*
X175384180Y-92485498D01*
X175264482Y-92449188D01*
X175140000Y-92436928D01*
X175034575Y-92436928D01*
X174974974Y-92325423D01*
X174903799Y-92238697D01*
X174880001Y-92209699D01*
X174851003Y-92185901D01*
X173907804Y-91242702D01*
X186746903Y-91242702D01*
X186818486Y-91486671D01*
X187073996Y-91607571D01*
X187348184Y-91676300D01*
X187630512Y-91690217D01*
X187910130Y-91648787D01*
X188176292Y-91553603D01*
X188301514Y-91486671D01*
X188373097Y-91242702D01*
X187560000Y-90429605D01*
X186746903Y-91242702D01*
X173907804Y-91242702D01*
X172985614Y-90320512D01*
X186119783Y-90320512D01*
X186161213Y-90600130D01*
X186256397Y-90866292D01*
X186323329Y-90991514D01*
X186567298Y-91063097D01*
X187380395Y-90250000D01*
X186567298Y-89436903D01*
X186323329Y-89508486D01*
X186202429Y-89763996D01*
X186133700Y-90038184D01*
X186119783Y-90320512D01*
X172985614Y-90320512D01*
X171804377Y-89139276D01*
X171978192Y-89232182D01*
X172248691Y-89314236D01*
X172459508Y-89335000D01*
X172600492Y-89335000D01*
X172811309Y-89314236D01*
X173081808Y-89232182D01*
X173331101Y-89098932D01*
X173549608Y-88919608D01*
X173728932Y-88701101D01*
X173754139Y-88653942D01*
X173804286Y-88649003D01*
X173947547Y-88605546D01*
X174079576Y-88534974D01*
X174195301Y-88440001D01*
X174219104Y-88410997D01*
X181384442Y-81245660D01*
X181338147Y-81357426D01*
X181283000Y-81634665D01*
X181283000Y-81917335D01*
X181338147Y-82194574D01*
X181446320Y-82455727D01*
X181603363Y-82690759D01*
X181803241Y-82890637D01*
X182038273Y-83047680D01*
X182299426Y-83155853D01*
X182576665Y-83211000D01*
X182859335Y-83211000D01*
X183136574Y-83155853D01*
X183397727Y-83047680D01*
X183632759Y-82890637D01*
X183832637Y-82690759D01*
X183989680Y-82455727D01*
X184097853Y-82194574D01*
X184153000Y-81917335D01*
X184153000Y-81634665D01*
X184097853Y-81357426D01*
X183989680Y-81096273D01*
X183832637Y-80861241D01*
X183632759Y-80661363D01*
X183397727Y-80504320D01*
X183136574Y-80396147D01*
X182859335Y-80341000D01*
X182576665Y-80341000D01*
X182299426Y-80396147D01*
X182187660Y-80442442D01*
X184860102Y-77770000D01*
X185071687Y-77770000D01*
X185217688Y-77988505D01*
X185431495Y-78202312D01*
X185682905Y-78370299D01*
X185962257Y-78486011D01*
X186258816Y-78545000D01*
X186561184Y-78545000D01*
X186857743Y-78486011D01*
X187137095Y-78370299D01*
X187388505Y-78202312D01*
X187602312Y-77988505D01*
X187770299Y-77737095D01*
X187791884Y-77684985D01*
X188173701Y-78066803D01*
G36*
X164923748Y-85185858D02*
G01*
X164909605Y-85200000D01*
X164923748Y-85214143D01*
X164744143Y-85393748D01*
X164730000Y-85379605D01*
X164715858Y-85393748D01*
X164536253Y-85214143D01*
X164550395Y-85200000D01*
X164536253Y-85185858D01*
X164715858Y-85006253D01*
X164730000Y-85020395D01*
X164744143Y-85006253D01*
X164923748Y-85185858D01*
X164923748Y-85185858D01*
G37*
X164923748Y-85185858D02*
X164909605Y-85200000D01*
X164923748Y-85214143D01*
X164744143Y-85393748D01*
X164730000Y-85379605D01*
X164715858Y-85393748D01*
X164536253Y-85214143D01*
X164550395Y-85200000D01*
X164536253Y-85185858D01*
X164715858Y-85006253D01*
X164730000Y-85020395D01*
X164744143Y-85006253D01*
X164923748Y-85185858D01*
M02*
